<svg width="17" height="19" viewBox="0 0 17 19" fill="none" xmlns="http://www.w3.org/2000/svg">
<path d="M2.26747 0.566825V1.13369H1.13373H0V7.93609V14.7385H3.53583H7.07166L7.18504 15.0113C7.43304 15.6242 7.79796 16.1592 8.31169 16.6729C9.0061 17.3673 9.81743 17.8137 10.7882 18.0334C11.2381 18.1362 12.1841 18.1645 12.6659 18.0936C14.1433 17.8634 15.5286 16.9457 16.2691 15.7128C16.7509 14.905 16.9599 14.2106 16.9954 13.2965C17.0414 12.0636 16.7438 11.0184 16.0813 10.0796C15.8191 9.7111 15.2345 9.11589 14.9405 8.91394L14.7385 8.77577V4.95296V1.13369H13.6048H12.4711V0.566825V-4.13741e-05H11.9042H11.3373V0.566825V1.13369H7.36927H3.4012V0.566825V-4.13741e-05H2.83433H2.26747V0.566825ZM2.26747 2.83429V3.40116H2.83433H3.4012V2.83429V2.26743H7.36927H11.3373V2.83429V3.40116H11.9042H12.4711V2.83429V2.26743H13.0379H13.6048V3.40116V4.53489H7.36927H1.13373V3.40116V2.26743H1.7006H2.26747V2.83429ZM13.6048 6.94408V8.21598L13.4595 8.16638C13.2328 8.0849 12.7262 7.97152 12.5915 7.97152H12.4711V7.38694V6.80236H11.9042H11.3373V7.37986V7.95381L10.9795 8.01758C9.9804 8.18764 9.04153 8.67656 8.30106 9.40995L7.93614 9.76778V9.42058V9.06983H7.36927H6.8024V9.63669V10.2036H7.20984C7.43304 10.2036 7.61727 10.2142 7.61727 10.2248C7.61727 10.2354 7.58539 10.2886 7.54996 10.3417C7.41887 10.526 7.12481 11.146 7.03978 11.4259C6.86972 11.975 6.83075 12.2159 6.81303 12.921L6.79532 13.6048H3.96453H1.13373V9.63669V5.66863H7.36927H13.6048V6.94408ZM12.8891 9.22926C14.4268 9.64024 15.5428 10.8661 15.805 12.4356C15.8581 12.7438 15.8439 13.417 15.7837 13.7465C15.5144 15.1424 14.5047 16.3186 13.1797 16.7686C12.3152 17.0627 11.3905 17.0485 10.5402 16.7332C9.60839 16.386 8.80061 15.6561 8.35066 14.7562C7.83693 13.7252 7.83693 12.4179 8.3542 11.3373C8.70141 10.6039 9.39582 9.88824 10.1044 9.52686C10.9653 9.09109 11.9644 8.9848 12.8891 9.22926Z" fill="#263849"/>
<path d="M4.53494 7.36917V7.93604H5.10181H5.66868V7.36917V6.8023H5.10181H4.53494V7.36917Z" fill="#263849"/>
<path d="M6.8024 7.36917V7.93604H7.36927H7.93614V7.36917V6.8023H7.36927H6.8024V7.36917Z" fill="#263849"/>
<path d="M9.06988 7.36917V7.93604H9.63675H10.2036V7.36917V6.8023H9.63675H9.06988V7.36917Z" fill="#263849"/>
<path d="M2.26746 9.63626V10.2031H2.83433H3.4012V9.63626V9.06939H2.83433H2.26746V9.63626Z" fill="#263849"/>
<path d="M4.53494 9.63626V10.2031H5.10181H5.66868V9.63626V9.06939H5.10181H4.53494V9.63626Z" fill="#263849"/>
<path d="M2.26746 11.9043V12.4712H2.83433H3.4012V11.9043V11.3375H2.83433H2.26746V11.9043Z" fill="#263849"/>
<path d="M4.53494 11.9043V12.4712H5.10181H5.66868V11.9043V11.3375H5.10181H4.53494V11.9043Z" fill="#263849"/>
<path d="M11.3373 11.9039V13.6045H12.7545H14.1717V13.0376V12.4708H13.3214H12.4711V11.337V10.2033H11.9042H11.3373V11.9039Z" fill="#263849"/>
</svg>
