<svg width="20" height="22" viewBox="0 0 20 22" fill="none" xmlns="http://www.w3.org/2000/svg">
<path d="M2.66761 0.666897V1.3338H1.3338H0V9.33663V17.3395H4.1598H8.3196L8.45299 17.6604C8.74476 18.3815 9.17407 19.0109 9.77845 19.6153C10.5954 20.4322 11.5499 20.9574 12.692 21.2158C13.2213 21.3367 14.3342 21.37 14.9011 21.2867C16.6392 21.0157 18.269 19.9362 19.1401 18.4857C19.707 17.5354 19.9529 16.7184 19.9946 15.643C20.0487 14.1925 19.6986 12.9629 18.9192 11.8583C18.6107 11.4249 17.923 10.7246 17.577 10.487L17.3395 10.3245V5.82705V1.3338H16.0057H14.6718V0.666897V-3.8147e-06H14.0049H13.338V0.666897V1.3338H8.66973H4.00141V0.666897V-3.8147e-06H3.33451H2.66761V0.666897ZM2.66761 3.33451V4.00141H3.33451H4.00141V3.33451V2.6676H8.66973H13.338V3.33451V4.00141H14.0049H14.6718V3.33451V2.6676H15.3388H16.0057V4.00141V5.33521H8.66973H1.3338V4.00141V2.6676H2.00071H2.66761V3.33451ZM16.0057 8.16955V9.66591L15.8348 9.60755C15.568 9.51169 14.972 9.37831 14.8136 9.37831H14.6718V8.69056V8.00282H14.0049H13.338V8.68223V9.35747L12.9171 9.43249C11.7416 9.63256 10.6371 10.2078 9.76595 11.0706L9.33663 11.4916V11.0831V10.6704H8.66973H8.00283V11.3373V12.0042H8.48216C8.74476 12.0042 8.9615 12.0167 8.9615 12.0292C8.9615 12.0417 8.92399 12.1043 8.8823 12.1668C8.72808 12.3835 8.38213 13.113 8.28209 13.4422C8.08202 14.0883 8.03617 14.3717 8.01533 15.2012L7.99449 16.0056H4.66415H1.3338V11.3373V6.66902H8.66973H16.0057V8.16955ZM15.1637 10.858C16.9727 11.3415 18.2856 12.7837 18.5941 14.6302C18.6566 14.9928 18.6399 15.7847 18.5691 16.1724C18.2523 17.8146 17.0644 19.1984 15.5055 19.7278C14.4885 20.0737 13.4006 20.0571 12.4002 19.6861C11.304 19.2776 10.3537 18.419 9.8243 17.3603C9.21992 16.1474 9.21992 14.6093 9.82847 13.338C10.2369 12.4752 11.0539 11.6333 11.8875 11.2081C12.9004 10.6954 14.0758 10.5704 15.1637 10.858Z" fill="white"/>
<path d="M5.33594 8.66977V9.33667H6.00284H6.66974V8.66977V8.00287H6.00284H5.33594V8.66977Z" fill="white"/>
<path d="M8.00293 8.66977V9.33667H8.66983H9.33673V8.66977V8.00287H8.66983H8.00293V8.66977Z" fill="white"/>
<path d="M10.6709 8.66977V9.33667H11.3378H12.0047V8.66977V8.00287H11.3378H10.6709V8.66977Z" fill="white"/>
<path d="M2.66797 11.3371V12.004H3.33487H4.00177V11.3371V10.6702H3.33487H2.66797V11.3371Z" fill="white"/>
<path d="M5.33594 11.3371V12.004H6.00284H6.66974V11.3371V10.6702H6.00284H5.33594V11.3371Z" fill="white"/>
<path d="M2.66797 14.0051V14.672H3.33487H4.00177V14.0051V13.3382H3.33487H2.66797V14.0051Z" fill="white"/>
<path d="M5.33594 14.0051V14.672H6.00284H6.66974V14.0051V13.3382H6.00284H5.33594V14.0051Z" fill="white"/>
<path d="M13.3379 14.0046V16.0053H15.0051H16.6724V15.3384V14.6715H15.672H14.6717V13.3377V12.0039H14.0048H13.3379V14.0046Z" fill="white"/>
</svg>
