<svg width="20" height="21" viewBox="0 0 20 21" fill="none" xmlns="http://www.w3.org/2000/svg">
<path d="M16.3477 2.85156C15.5 3.42969 14.625 4.125 13.5938 5.03516C12.0977 6.35547 9.97656 8.63672 8.50391 10.5117C8.26953 10.8047 8.0625 11.0391 8.04297 11.0273C8.02344 11.0156 7.17969 10.4258 6.16797 9.71875C5.15234 9.00781 4.3125 8.42969 4.30078 8.42969C4.28516 8.42969 4.01562 8.6875 3.69922 9.00781L3.125 9.58594L3.42578 9.99219C5.05078 12.207 7.08984 15.1641 7.83203 16.3867L8.09766 16.8242L8.40234 16.3008C9.41406 14.5664 11.0391 12.043 12.2266 10.3438C12.9883 9.26172 13.75 8.22266 13.8438 8.13672C13.8945 8.09375 14.043 7.91016 14.1836 7.72656C15.5508 5.90234 17.3242 3.92969 18.6719 2.73438L18.8086 2.61328L17.7539 2.60938H16.6992L16.3477 2.85156Z" fill="#0AD4BC"/>
<path d="M7.1684 4.8398C4.58636 5.17183 2.36761 6.99605 1.56293 9.44527C0.535583 12.5625 1.84808 15.9296 4.71527 17.5429C5.65668 18.0742 6.64105 18.3437 7.78168 18.3789C8.73871 18.4101 9.43793 18.3085 10.2895 18.0117C11.6996 17.5234 12.9887 16.4843 13.8168 15.1679C14.0121 14.8632 14.3559 14.1093 14.4887 13.7148C14.9692 12.2539 14.9184 10.5351 14.3481 9.09371C14.2075 8.74214 13.9106 8.15621 13.8754 8.15621C13.8286 8.15621 12.8559 9.49605 11.9926 10.7421C10.8676 12.371 9.7309 14.1367 8.7309 15.8125C8.45746 16.2734 8.19965 16.7031 8.16449 16.7617L8.09808 16.871L7.75433 16.3125C7.34027 15.6406 6.28168 14.0625 5.50824 12.9609C4.82465 11.9843 3.53168 10.1835 3.27386 9.8398L3.08246 9.58589L3.68011 8.98824C4.00824 8.66011 4.2973 8.39839 4.32465 8.40621C4.34808 8.41792 5.18402 8.99214 6.18011 9.68746C7.17621 10.3828 8.00824 10.9648 8.03168 10.9804C8.05902 10.996 8.23871 10.7968 8.4809 10.4882C9.3598 9.37105 10.3403 8.25386 11.5043 7.03902L12.2582 6.25777L11.9418 6.03121C11.0746 5.41792 10.0395 5.01167 8.94183 4.85542C8.50043 4.79292 7.60199 4.78511 7.1684 4.8398Z" fill="#10171F"/>
</svg>
