<svg width="24" height="24" viewBox="0 0 24 24" fill="none" xmlns="http://www.w3.org/2000/svg">
<path d="M11.2031 1.55159C9.17343 1.7719 7.575 2.3344 5.98593 3.38909C5.5125 3.70315 5.26875 3.91409 4.57031 4.61253C3.84843 5.33909 3.66093 5.55471 3.3 6.09377C2.30625 7.59378 1.79062 8.9719 1.56562 10.7344C1.47187 11.5125 1.49531 13.0453 1.61718 13.711C1.92187 15.3938 2.47031 16.711 3.45 18.1313C3.67031 18.4453 4.02187 18.8438 4.6125 19.4297C5.32968 20.1469 5.55468 20.3391 6.075 20.686C7.45781 21.6 8.63437 22.0781 10.3125 22.3922C10.9453 22.5094 12.9891 22.5094 13.6641 22.3922C15.2719 22.1063 16.5047 21.5953 17.8969 20.6344C18.4031 20.2828 19.4484 19.2938 19.9781 18.6563C21.1078 17.3016 22.0172 15.4688 22.4062 13.7625C22.5937 12.9282 22.4906 12.5156 21.9891 12.1641C21.8016 12.0328 21.7594 12.0235 21.3797 12.0235C21.0094 12.0235 20.9484 12.0375 20.775 12.1547C20.4703 12.3516 20.3203 12.6 20.2031 13.0875C19.7344 15.0188 18.9422 16.4766 17.6297 17.8313C16.0922 19.4156 14.1844 20.2078 11.9062 20.2125C10.2844 20.2125 8.76093 19.725 7.3125 18.7453C6.68437 18.3235 6.32812 18 5.81718 17.4047C5.10937 16.5797 4.66875 15.8344 4.29843 14.8594C3.92343 13.8703 3.79687 13.125 3.79687 11.9672C3.79687 10.5891 4.05 9.52034 4.66406 8.30159C5.85 5.9344 8.01562 4.38284 10.7812 3.91409C11.025 3.8719 11.5969 3.82503 12.0469 3.81096C13.2703 3.77346 14.1187 3.90003 15.3469 4.3219C15.8297 4.48596 15.9422 4.5094 16.2187 4.49065C16.5984 4.4719 16.8375 4.33128 17.0672 3.99846C17.1984 3.81096 17.2219 3.73128 17.2406 3.42659C17.2547 3.11721 17.2406 3.04221 17.1469 2.8594C16.9828 2.55003 16.6734 2.34377 16.0922 2.14221C14.5312 1.60784 12.7031 1.38753 11.2031 1.55159Z" fill="#263849"/>
<path d="M20.9578 4.56095C20.8687 4.58908 20.6766 4.7297 20.5266 4.87033C20.3812 5.01564 18.5672 6.96564 16.5 9.21095C14.4281 11.4516 12.6469 13.3828 12.5344 13.5L12.3281 13.711L10.7719 12.1594C9.05155 10.4438 9.09374 10.4766 8.53124 10.5094C8.26405 10.5235 8.1703 10.5516 8.00624 10.6688C7.67343 10.8985 7.52812 11.1516 7.50937 11.5313C7.49999 11.7094 7.51405 11.9297 7.54687 12.0328C7.59374 12.1735 8.02968 12.6375 9.65155 14.2641C10.9922 15.6094 11.7609 16.3453 11.8875 16.4063C12.15 16.5328 12.6047 16.5328 12.8719 16.4016C13.0266 16.3313 14.1281 15.1641 17.6531 11.3531C20.1703 8.6297 22.2844 6.31877 22.35 6.22033C22.4953 6.00002 22.5422 5.58283 22.4531 5.27345C22.3781 5.01095 22.1344 4.72502 21.8766 4.59845C21.6516 4.49064 21.2344 4.47189 20.9578 4.56095Z" fill="#263849"/>
</svg>
