<svg width="30" height="30" viewBox="0 0 30 30" fill="none" xmlns="http://www.w3.org/2000/svg">
<path d="M17.4125 5.06249C17.1019 5.1621 16.7796 5.40233 16.6332 5.64843C16.5746 5.74804 15.2152 9.74413 13.6214 14.5312C10.4984 23.9062 10.5863 23.5898 10.8148 24.1289C10.9964 24.5742 11.4535 24.9141 11.9632 24.9902C12.4906 25.0723 13.1644 24.7441 13.3988 24.2988C13.4515 24.1933 14.7933 20.209 16.3871 15.4394C19.4984 6.0996 19.4105 6.41015 19.182 5.87108C19.0707 5.60155 18.7836 5.29687 18.5023 5.15038C18.2093 5.0039 17.723 4.96288 17.4125 5.06249Z" fill="url(#paint0_linear_686_418)"/>
<path d="M7.49341 9.31053C7.2063 9.40428 7.03638 9.52733 4.06568 11.7598C1.30591 13.8281 1.05982 14.0332 0.901618 14.3144C0.667243 14.748 0.667243 15.2519 0.907477 15.6855C1.05982 15.9726 1.30591 16.1719 4.06568 18.2402C5.71216 19.4765 7.14185 20.5312 7.2356 20.5781C7.54029 20.7363 7.92115 20.7656 8.30201 20.6543C9.27466 20.373 9.64966 19.1191 8.98755 18.3515C8.88208 18.2344 7.86255 17.4375 6.71412 16.582C5.57154 15.7265 4.63404 15.0176 4.63404 15C4.63404 14.9824 5.57154 14.2734 6.71412 13.418C7.86255 12.5625 8.88208 11.7656 8.98755 11.6484C9.57349 10.9746 9.34498 9.83788 8.5481 9.43358C8.29615 9.29881 7.72193 9.23436 7.49341 9.31053Z" fill="url(#paint1_linear_686_418)"/>
<path d="M21.7666 9.31053C20.7471 9.5742 20.3311 10.8633 21.0107 11.6484C21.1162 11.7656 22.1357 12.5625 23.2842 13.418C24.4268 14.2734 25.3643 14.9824 25.3643 15C25.3643 15.0176 24.4268 15.7265 23.2842 16.582C22.1357 17.4375 21.1162 18.2344 21.0107 18.3515C20.3486 19.1191 20.7236 20.373 21.6963 20.6543C22.1064 20.7715 22.4756 20.7363 22.8213 20.543C22.9502 20.4726 24.374 19.4238 25.9853 18.2168C28.7217 16.1601 28.9268 15.9961 29.0908 15.6972C29.2314 15.4394 29.2607 15.3105 29.2607 15C29.2607 14.6894 29.2314 14.5605 29.0908 14.3027C28.9268 14.0039 28.7217 13.8398 25.9853 11.7832C24.374 10.5762 22.9443 9.52147 22.8096 9.4453C22.54 9.29881 22.0537 9.23436 21.7666 9.31053Z" fill="url(#paint2_linear_686_418)"/>
<defs>
<linearGradient id="paint0_linear_686_418" x1="10.7168" y1="15.0054" x2="19.2801" y2="15.0054" gradientUnits="userSpaceOnUse">
<stop stop-color="#0AC2D4"/>
<stop offset="1" stop-color="#0AD4BC"/>
</linearGradient>
<linearGradient id="paint1_linear_686_418" x1="0.726562" y1="14.9996" x2="9.32056" y2="14.9996" gradientUnits="userSpaceOnUse">
<stop stop-color="#0AC2D4"/>
<stop offset="1" stop-color="#0AD4BC"/>
</linearGradient>
<linearGradient id="paint2_linear_686_418" x1="20.6777" y1="14.9999" x2="29.2607" y2="14.9999" gradientUnits="userSpaceOnUse">
<stop stop-color="#0AC2D4"/>
<stop offset="1" stop-color="#0AD4BC"/>
</linearGradient>
</defs>
</svg>
