<svg width="70" height="70" viewBox="0 0 70 70" fill="none" xmlns="http://www.w3.org/2000/svg">
<path d="M30.6933 5.94743C26.4551 6.57634 22.5996 8.0529 19.0176 10.4455C14.5058 13.467 10.8691 17.7599 8.50388 22.9006C3.36326 34.0705 5.66013 46.9494 14.3554 55.6447C19.3867 60.6759 25.8125 63.6154 32.9219 64.1349C41.3164 64.7502 49.5469 61.7013 55.4668 55.7951C59.5683 51.7072 62.4668 46.4162 63.6289 40.9064C64.0664 38.8556 64.3125 35.6564 64.1894 33.6193L64.0937 32.0197L63.2461 31.9377C60.9082 31.6779 58.9258 30.6525 57.6133 29.0256C56.8066 28.0002 55.8222 26.0041 55.6308 24.9513C55.4121 23.7892 55.5488 21.9982 55.959 20.7404C56.1504 20.1662 56.2734 19.6877 56.2461 19.6877C56.2187 19.6877 55.7129 19.8244 55.1387 19.9884C53.6484 20.3986 51.3652 20.4123 49.8203 20.0021C45.6367 18.8674 42.8203 16.2013 41.4121 12.0314C41.0156 10.8556 40.9746 10.5685 40.9609 9.0236C40.9472 8.08024 40.9883 7.09587 41.0566 6.82243L41.1523 6.33025L40.5781 6.23454C37.2012 5.71501 33.0859 5.60564 30.6933 5.94743ZM35.2187 11.9904C35.834 14.8752 36.9824 17.4318 38.623 19.5509C39.4844 20.672 41.6308 22.6818 42.7519 23.4201C44.3105 24.4455 46.1426 25.2521 48.0293 25.717L49.7383 26.1545L50.039 27.1935C51.1738 31.131 53.8672 34.4396 57.3945 36.217L58.2695 36.6545L58.1738 37.5021C57.6406 42.6838 55.6035 47.1134 52.1035 50.7638C48.166 54.8517 43.3945 57.34 38.1035 58.0373C34.5488 58.5021 30.9258 58.1877 27.6172 57.1213C20.4668 54.8244 14.3281 48.2892 12.4551 40.9474C11.7851 38.3224 11.5801 34.6994 11.9629 32.1564C12.3047 29.8322 13.3711 26.5783 14.5058 24.3088C15.3261 22.6818 17.2676 19.9338 18.6074 18.5119C21.3008 15.6271 25.8398 12.9611 29.3125 12.2228C30.7344 11.922 32.8672 11.6486 34.0703 11.6349C35.123 11.6213 35.1367 11.6213 35.2187 11.9904Z" fill="url(#paint0_linear_346_130)"/>
<path d="M29.3262 20.5493C28.4785 20.8364 28 21.1235 27.4531 21.6977C26.6055 22.5864 26.3183 23.2837 26.2773 24.6372C26.2363 25.6763 26.2637 25.9224 26.5508 26.5513C27.8769 29.4087 31.6094 30.0923 33.7832 27.8638C34.0976 27.5493 34.5078 26.9477 34.6992 26.5513C34.9863 25.9224 35.0137 25.6763 34.9726 24.6372C34.9453 23.7212 34.8633 23.311 34.6172 22.8325C34.1523 21.9575 33.291 21.1235 32.4844 20.7681C31.6367 20.3989 30.1055 20.2895 29.3262 20.5493Z" fill="url(#paint1_linear_346_130)"/>
<path d="M23.3105 35.1782C22.1211 35.6431 21.2461 36.4497 20.7539 37.5298C20.5078 38.0767 20.4395 38.4458 20.4395 39.3755C20.4395 40.7837 20.7812 41.645 21.6426 42.4927C22.5723 43.395 23.2559 43.6685 24.6367 43.7232C25.6758 43.7642 25.9219 43.7368 26.5508 43.4497C29.4082 42.1235 30.0918 38.3911 27.8633 36.2173C26.9473 35.3286 26.127 35.0005 24.8145 35.0142C24.2129 35.0142 23.543 35.0962 23.3105 35.1782Z" fill="url(#paint2_linear_346_130)"/>
<path d="M43.2715 40.7969C43.2031 40.8379 42.9707 40.8926 42.7519 40.9336C42.2871 41.043 41.3574 41.8633 41.0566 42.4375C40.7832 42.957 40.7559 44.502 41.0019 44.9805C41.2617 45.4727 41.9726 46.1973 42.4512 46.457C42.7109 46.5937 43.2031 46.6758 43.75 46.6758C44.2969 46.6758 44.7891 46.5937 45.0488 46.457C45.5273 46.1973 46.2383 45.4727 46.498 44.9805C46.7441 44.502 46.7168 42.957 46.457 42.4512C46.2109 42 45.4726 41.2617 45.0351 41.043C44.7344 40.8789 43.4902 40.7148 43.2715 40.7969Z" fill="url(#paint3_linear_346_130)"/>
<defs>
<linearGradient id="paint0_linear_346_130" x1="5.79456" y1="34.9819" x2="64.2211" y2="34.9819" gradientUnits="userSpaceOnUse">
<stop stop-color="#0AC2D4"/>
<stop offset="1" stop-color="#0AD4BC"/>
</linearGradient>
<linearGradient id="paint1_linear_346_130" x1="26.2622" y1="24.7973" x2="34.9878" y2="24.7973" gradientUnits="userSpaceOnUse">
<stop stop-color="#0AC2D4"/>
<stop offset="1" stop-color="#0AD4BC"/>
</linearGradient>
<linearGradient id="paint2_linear_346_130" x1="20.4395" y1="39.376" x2="29.187" y2="39.376" gradientUnits="userSpaceOnUse">
<stop stop-color="#0AC2D4"/>
<stop offset="1" stop-color="#0AD4BC"/>
</linearGradient>
<linearGradient id="paint3_linear_346_130" x1="40.8333" y1="43.7254" x2="46.6681" y2="43.7254" gradientUnits="userSpaceOnUse">
<stop stop-color="#0AC2D4"/>
<stop offset="1" stop-color="#0AD4BC"/>
</linearGradient>
</defs>
</svg>
