<svg width="50" height="50" viewBox="0 0 50 50" fill="none" xmlns="http://www.w3.org/2000/svg">
<rect width="50" height="50" rx="25" fill="#41506B"/>
<path d="M9.22477 14.2389C8.49246 14.4989 7.90388 15.0738 7.63013 15.8061C7.50694 16.1415 7.4864 16.3057 7.50694 16.8532C7.53431 17.3939 7.56853 17.565 7.72594 17.8661C7.9997 18.4 8.39665 18.7969 8.91679 19.057C9.17001 19.1802 9.38902 19.2897 9.40271 19.2965C9.4164 19.3034 9.88178 22.9512 10.4361 27.4066L11.449 35.4961L11.6612 35.6878L11.8734 35.8794H25.0137H38.1541L38.3663 35.6878L38.5784 35.4961L39.5913 27.4066C40.1457 22.9512 40.6111 19.3034 40.6248 19.2965C40.6384 19.2897 40.8575 19.1802 41.1107 19.057C41.6308 18.7969 42.0278 18.4068 42.3084 17.8661C42.4863 17.5308 42.5 17.4418 42.5 16.7506C42.5 16.073 42.4795 15.9567 42.3152 15.6076C42.0825 15.1012 41.5487 14.5674 41.0422 14.3347C40.7 14.1704 40.57 14.1499 39.9335 14.1499C39.297 14.1499 39.167 14.1704 38.8248 14.3347C37.7777 14.8274 37.1617 15.9909 37.3465 17.1612C37.4355 17.7566 37.6887 18.222 38.1541 18.66L38.5647 19.0365L34.9374 22.8691L31.317 26.7085L29.6471 24.2242C26.184 19.0844 26.1977 19.1049 26.3415 19.0159C26.6563 18.838 27.1354 18.3247 27.3338 17.9551C28.0251 16.6479 27.4639 14.9643 26.1225 14.3347C25.7803 14.1704 25.6502 14.1499 25.0137 14.1499C24.3772 14.1499 24.2472 14.1704 23.905 14.3347C22.5636 14.9643 22.0024 16.6479 22.6936 17.9551C22.8921 18.3247 23.3712 18.838 23.686 19.0159C23.8297 19.1049 23.8434 19.0844 20.3804 24.2242L18.7105 26.7085L15.09 22.8691L11.4696 19.0296L11.8734 18.6532C12.3388 18.222 12.592 17.7566 12.681 17.1612C12.8657 15.9909 12.2498 14.8206 11.2027 14.3347C10.6825 14.0951 9.76544 14.0472 9.22477 14.2389ZM10.4841 15.6282C10.9221 15.7924 11.2574 16.2784 11.2574 16.7574C11.2574 17.3323 10.6894 17.8798 10.0939 17.8798C9.49168 17.8798 8.93048 17.3255 8.93048 16.7301C8.93048 15.943 9.75859 15.3544 10.4841 15.6282ZM25.4038 15.6282C25.6639 15.724 25.9719 16.0183 26.0814 16.2852C26.3962 17.0175 25.8145 17.8798 25.0137 17.8798C24.4115 17.8798 23.8503 17.3255 23.8503 16.7301C23.8503 15.943 24.6784 15.3544 25.4038 15.6282ZM40.3236 15.6282C40.5837 15.724 40.8917 16.0183 41.0012 16.2852C41.316 17.0175 40.7343 17.8798 39.9335 17.8798C39.3449 17.8798 38.7701 17.3323 38.7701 16.7643C38.7701 15.943 39.5845 15.3476 40.3236 15.6282ZM27.8745 24.2379C29.7703 27.0781 30.7558 28.4948 30.8721 28.5495C31.1322 28.6659 31.406 28.6385 31.6387 28.4674C31.755 28.3853 33.4318 26.6469 35.3549 24.6006C37.2781 22.5542 38.8659 20.898 38.8864 20.9185C38.9001 20.9322 38.5374 23.9846 38.072 27.694L37.2302 34.4422H25C13.1327 34.4422 12.7631 34.4353 12.7631 34.3121C12.7631 34.2437 12.7425 33.9973 12.722 33.7646L12.6741 33.3471H22.4541C31.6181 33.3471 32.2409 33.3334 32.3778 33.2239C32.7542 32.9228 32.7816 32.478 32.4463 32.1426L32.2136 31.9099H22.3514H12.4962L12.4551 31.6841C12.3593 31.1365 11.1205 21.0007 11.1411 20.9391C11.1548 20.898 12.7426 22.5474 14.6657 24.5937C16.5957 26.6401 18.2725 28.3853 18.3888 28.4674C18.6215 28.6385 18.8953 28.6659 19.1553 28.5495C19.2717 28.4948 20.2572 27.0781 22.153 24.2379C23.7065 21.9109 24.9932 20.0083 25.0137 20.0083C25.0343 20.0083 26.3209 21.9109 27.8745 24.2379Z" fill="url(#paint0_linear_391_481)"/>
<path d="M33.9448 31.9715C33.6779 32.0879 33.5479 32.3069 33.5479 32.6422C33.5479 32.9092 33.5752 32.9844 33.76 33.1555C33.9585 33.3266 34.0269 33.3472 34.4786 33.3472C34.8961 33.3472 35.0056 33.3198 35.1356 33.2034C35.471 32.8886 35.4847 32.4027 35.1699 32.1084C35.033 31.9784 34.9166 31.9442 34.5402 31.9305C34.287 31.9168 34.0201 31.9373 33.9448 31.9715Z" fill="url(#paint1_linear_391_481)"/>
<defs>
<linearGradient id="paint0_linear_391_481" x1="7.5" y1="25" x2="42.5" y2="25" gradientUnits="userSpaceOnUse">
<stop stop-color="#0AC2D4"/>
<stop offset="1" stop-color="#0AD4BC"/>
</linearGradient>
<linearGradient id="paint1_linear_391_481" x1="33.5479" y1="32.6367" x2="35.3969" y2="32.6367" gradientUnits="userSpaceOnUse">
<stop stop-color="#0AC2D4"/>
<stop offset="1" stop-color="#0AD4BC"/>
</linearGradient>
</defs>
</svg>
