<svg width="70" height="70" viewBox="0 0 70 70" fill="none" xmlns="http://www.w3.org/2000/svg">
<g clip-path="url(#clip0_529_524)">
<path d="M35.4667 6.2124H35.8458L36.1958 6.35824L36.6042 6.62074L36.9833 6.94157L37.275 7.23324L37.5083 7.4374L37.7417 7.67074L37.975 7.8749L38.7625 8.6624V8.72074L38.85 8.7499L39.0542 8.98324L40.775 10.7041V10.7624H40.8333L41.0083 10.9666L41.0667 10.9957V11.0541H41.125V11.1124H41.1833V11.1707H41.2417V11.2291H41.3V11.2874H41.3583V11.3457H41.4167V11.4041L41.5333 11.4624L48.7667 18.6957L48.9708 18.9291L49.2333 19.2499L49.4083 19.5416L49.4667 19.7166V20.1541L49.35 20.5041L49.0583 20.8832H49V20.9416L48.7667 21.1457L48.475 21.3207L48.2125 21.4082H47.8917L47.5417 21.2624L47.2792 21.0874L46.9 20.7374L46.55 20.4166L42.4958 16.3624L42.2917 16.1874L42.1458 16.0124L41.9125 15.8082L41.5625 15.4582V15.3999L41.4458 15.3416V15.2832L41.3583 15.2541L41.1542 15.0207L39.5792 13.4457L39.4625 13.3582V13.2999L39.3458 13.2416L37.5958 11.4916V11.4332L37.5083 11.4041L37.4208 11.3166L37.3917 18.4041V34.9416L37.45 35.7582L37.5375 36.2249L37.7125 36.7499L37.9458 37.1874L38.2375 37.5957L38.6167 37.9749L39.025 38.2666L39.4917 38.5291L40.0167 38.7332L40.4833 38.8207L40.7458 38.8499L41.3292 38.8791H55.8833L62.7958 38.8499H64.8667L64.6333 38.5582L64.4 38.2957L64.2833 38.2082V38.1499H64.225L64.0208 37.9166L63.6125 37.5082V37.4499L63.525 37.4207L63.3208 37.1874L55.2708 29.1374L55.0667 28.9041L54.775 28.5541L54.5708 28.2332L54.4833 27.9999V27.6791L54.6292 27.2999L54.8333 26.9791L55.0375 26.7749L55.2708 26.5999L55.5625 26.4832L55.8542 26.4249L56.1458 26.4541L56.4958 26.5999L56.8458 26.8332L57.1375 27.0957L57.5167 27.4457L67.375 37.3041V37.3624H67.4333L67.6375 37.5957L67.9583 37.9166L68.1917 38.1207L68.775 38.7041L68.9792 38.9374L69.5917 39.5499V39.6082H69.65V39.6666H69.7083L69.9125 39.8999L70 39.9874V41.0666L69.8542 41.1541L69.6208 41.4166L69.3583 41.7374L69.0958 41.9999L69.0667 42.0582H69.0083L68.95 42.1749L68.3667 42.7582H68.3083V42.8166L68.075 43.0207L66.7042 44.3916L66.675 44.4499H66.6167L66.5583 44.5666H66.5V44.6249H66.4417V44.6832H66.3833V44.7416H66.325V44.7999L66.2083 44.9166H66.15V44.9749H66.0917V45.0332L65.8583 45.2374L65.6833 45.4416H65.625V45.4999L65.3917 45.7041L65.275 45.8499H65.2167V45.9082H65.1583V45.9666L64.925 46.1707L64.75 46.3749H64.6917V46.4332H64.6333V46.4916H64.575V46.5499H64.5167V46.6082H64.4583V46.6666H64.4V46.7249H64.3417L64.2833 46.8416L64.1667 46.8999L64.1083 47.0166H64.05V47.0749L63.8458 47.2499L63.8167 47.3082H63.7583V47.3666L63.525 47.5707L61.1042 49.9916L61.075 50.0499H61.0167V50.1082H60.9583V50.1666H60.9V50.2249H60.8417V50.2832H60.7833V50.3416H60.725V50.3999L60.6083 50.5166H60.55L60.4917 50.6332H60.4333V50.6916H60.375V50.7499H60.3167V50.8082L60.1708 50.9249L60.1417 50.9832H60.0833V51.0416H60.025V51.0999H59.9667V51.1582H59.9083V51.2166H59.85V51.2749H59.7917V51.3332L59.675 51.4499H59.6167L59.5583 51.5666H59.5V51.6249H59.4417V51.6832L59.2083 51.8874L58.7125 52.3832L58.6833 52.4416H58.625V52.4999L58.3917 52.7041L55.9125 55.1832L55.8833 55.2416H55.825V55.2999H55.7667V55.3582H55.7083V55.4166H55.65V55.4749H55.5917V55.5332L55.475 55.6499H55.4167L55.3583 55.7666L55.1833 55.9416H55.125V55.9999L55.0083 56.1166H54.95V56.1749H54.8917V56.2332L54.6583 56.4374L52.0042 59.0916L51.975 59.1499H51.9167V59.2082L51.8 59.3249H51.7417V59.3832H51.6833L51.625 59.4999H51.5667L51.5083 59.6166H51.45V59.6749H51.3917V59.7332H51.3333V59.7916H51.275L51.2167 59.9082L49.0583 62.0666H49V62.1249H48.9417L48.8833 62.2416L48.7083 62.4166H48.65V62.4749H48.5917V62.5332L48.475 62.6499H48.4167L48.3583 62.7666H48.3L48.2417 62.8832L47.775 63.2916L47.25 63.6416L46.9875 63.7874H46.8125L46.3458 63.6124L45.9375 63.3499L45.5875 63.0291L45.3542 62.8249L19.3083 36.7791L19.25 36.7499V36.6916H19.1917V36.6332H19.1333L18.9583 36.4291L18.9 36.3999V36.3416H18.8417V36.2832L18.725 36.2249V36.1666H18.6667L18.4625 35.9332L13.2708 30.7416L13.0667 30.5082L12.775 30.1291L12.5708 29.7499L12.5417 29.6332V29.3707L12.6292 29.0207L12.8042 28.6707L13.0667 28.3207L13.3292 28.0582L13.475 27.8832L13.6792 27.7082L13.8542 27.5041L14.0875 27.2999L34.475 6.9124L34.7958 6.6499L35.0875 6.41657L35.4667 6.2124ZM34.5917 10.7916L34.3292 10.9957L34.0375 11.2582L33.0167 12.2791L32.9583 12.3082V12.3666L32.8417 12.4249L30.275 14.9916V15.0499H30.2167V15.1082H30.1583V15.1666H30.1V15.2249H30.0417V15.2832L29.925 15.3416L29.8083 15.4582V15.5166H29.75L29.5458 15.7499L29.4 15.8666L29.1958 16.0999L28.525 16.7707L28.4083 16.8582V16.9166H28.35L28.1458 17.1499L28 17.2666L27.7958 17.4999L27.5917 17.6749V17.7332L27.475 17.7916V17.8499H27.4167L27.3 17.9666V18.0249H27.2417V18.0832H27.1833V18.1416H27.125V18.1999H27.0667V18.2582H27.0083L26.8042 18.4916L26.6583 18.6082V18.6666H26.6V18.7249H26.5417L26.3375 18.9582L26.1333 19.1332V19.1916H26.075L25.8708 19.4249L23.8583 21.4374L23.8 21.4666V21.5249H23.7417L23.625 21.6707L23.45 21.8166V21.8749H23.3917V21.9332L23.275 21.9916V22.0499H23.2167V22.1082H23.1583V22.1666L23.0417 22.2249L22.3417 22.9249V22.9832H22.2833V23.0416H22.225V23.0999L22.1083 23.1582L21.35 23.9166V23.9749H21.2917V24.0332H21.2333V24.0916H21.175V24.1499H21.1167V24.2082H21.0583V24.2666H21L20.7958 24.4999L19.0458 26.2499L18.9 26.3666L18.7833 26.4832V26.5416L18.6667 26.5999L18.6083 26.7166H18.55L18.3458 26.9499L18.025 27.2707L17.7917 27.4749L17.3542 27.8832L17.2667 27.9999L17.6458 28.0291H18.5208L20.475 28.0582H34.5333L34.5917 27.9999L34.6208 12.3666V10.7916H34.5917ZM17.325 30.7707L17.2958 30.8874L17.8208 31.4124L18.0542 31.6166L18.9292 32.4916L19.1042 32.6374L19.2792 32.8416L19.5125 33.0457L19.6583 33.2207H19.7167L19.7458 33.3082L19.9792 33.5124L20.6208 34.1541L20.7667 34.3291L20.9708 34.5041L21.175 34.7374H21.2333L21.2625 34.8249L21.4375 34.9707L21.6125 35.1749L21.8458 35.3791L21.9917 35.5541H22.05L22.1083 35.6707L22.2542 35.7874L22.4583 36.0207L23.1583 36.7207H23.2167L23.2458 36.8082L24.6458 38.2082H24.7042L24.7625 38.3249L25.4917 39.0541H25.55L25.5792 39.1416L25.8417 39.4041H25.9L25.9292 39.4916L26.1042 39.6374L26.3083 39.8707L27.2417 40.8041H27.3L27.3292 40.8916L27.5042 41.0374L27.7083 41.2707L30.2458 43.8082H30.3042L30.3625 43.9249L35.175 48.7374H35.2333L35.2625 48.8249L35.4375 48.9707L35.6417 49.2041L35.7583 49.3207H35.8167L35.8458 49.4082L37.2458 50.8082H37.3042L37.3625 50.9249L37.5958 51.1582L37.7708 51.3041L37.975 51.5374L38.1208 51.6541L38.325 51.8874L38.6458 52.2082H38.7042L38.7625 52.3249L39.025 52.5874H39.0833L39.1125 52.6749L39.4625 53.0249L39.6375 53.1707L39.8417 53.4041L40.8625 54.4249L41.0375 54.5707L41.2417 54.8041L42.9917 56.5541H43.05L43.0792 56.6416L43.3125 56.8457L44.9458 58.4791L45.2667 58.7416L45.3542 58.8291H45.4125V41.6207L45.3833 41.5916H41.3L40.6292 41.5624L39.725 41.4457L39.1125 41.2999L38.4708 41.0666L37.7125 40.6874L37.3042 40.4249L36.8375 40.0457L36.5458 39.7832L36.3125 39.5499L36.05 39.2291L35.7875 38.8791L35.4667 38.3541L35.2333 37.8874L35.0875 37.5666L34.825 36.7791L34.7083 36.2541L34.65 35.6999L34.6208 34.7374V30.9457L34.5917 30.7999L33.8625 30.7707H17.325ZM48.2125 41.5916L48.1833 42.1166L48.1542 45.7041V58.8582L48.1833 58.9166L48.3292 58.8582L48.6792 58.5374L48.8542 58.3332L49.0292 58.1874L49.2333 57.9541L49.4375 57.7499L49.6125 57.6041L49.7875 57.3999L50.0208 57.1957L53.8417 53.3749L53.9875 53.1999L54.2208 52.9957L54.5417 52.6457L55.0083 52.1791L55.2417 51.9749L55.3583 51.8291L55.5917 51.6249L56.6417 50.5749L56.8458 50.3416L56.9917 50.2249L57.1958 49.9916L59.1208 48.0666L59.3542 47.8624L60.6083 46.6082V46.5499L60.725 46.4916L61.075 46.1124L64.1667 43.0207L64.5458 42.6707L65.4792 41.7374L65.5083 41.6207L65.3917 41.5916H48.2125Z" fill="#263849"/>
<path d="M4.8125 50.9541H23.5958L24.4708 50.9833L24.7917 51.0416L25.1417 51.2458L25.4625 51.5666L25.6375 51.8583L25.6958 52.1208V52.6166L25.5792 52.8791L25.2875 53.2874L25.025 53.5791L24.9083 53.6374L24.5875 53.6666L23.3042 53.6958H5.13333L4.55 53.6374L4.31667 53.5499L4.05417 53.2874L3.79167 52.8791L3.675 52.6166L3.64583 52.2958L3.70417 51.9458L3.85 51.6541H3.90833L3.96667 51.5083L4.08333 51.3624H4.14167V51.3041L4.57917 51.0124L4.8125 50.9541Z" fill="#0AC2D4"/>
<path d="M3.26666 34.6792H8.4875L9.5375 34.7084L9.8875 34.7959L10.1792 34.9417L10.5 35.2625L10.6458 35.4959L10.7333 35.7584L10.7625 36.1959L10.675 36.4875L10.4708 36.8375L10.2375 37.1292L10.0333 37.3042L9.77083 37.3917L9.45 37.4209H1.16666L0.729165 37.3625L0.554165 37.2459L0.437498 37.1L0.262498 36.8667L0.116665 36.7209V36.6625L-1.90735e-06 36.6042V35.4959H0.0583314V35.4375H0.116665L0.174998 35.3209L0.291665 35.2042H0.349998L0.408331 35.0875L0.612498 34.9125L1.02083 34.7084L3.26666 34.6792Z" fill="#0AC2D4"/>
<path d="M10.4125 42.2041H18.2875L18.6958 42.2624L19.0458 42.4083L19.3667 42.6708L19.5708 42.9624L19.6875 43.3124L19.7167 43.6333L19.6292 43.9833L19.4542 44.3333L19.1625 44.6833L18.9 44.8583L18.5208 44.9458L16.3333 44.9749H11.0833L10.4125 44.9458L10.0625 44.8583L9.8 44.6541L9.56667 44.3624L9.33333 43.9541L9.275 43.6624L9.30417 43.3124L9.45 42.9624L9.65417 42.6999L9.8 42.5541L10.0042 42.3791L10.2083 42.2624L10.4125 42.2041Z" fill="#0AC2D4"/>
<path d="M10.9375 20.3291H14.7L15.4875 20.3583L15.8667 20.4166L16.2167 20.5916L16.4792 20.8833L16.6542 21.2333L16.7417 21.5833V21.9041L16.6542 22.2249L16.5083 22.4874L16.1875 22.8666L15.9542 23.0124L15.75 23.0708L15.3125 23.0999H10.325L9.82916 23.0708L9.5375 22.9833L9.1875 22.6624L8.925 22.3124L8.80833 22.0208V21.5249L8.89583 21.2333L9.07083 20.9416L9.39166 20.5624L9.74166 20.3874L9.8875 20.3583L10.9375 20.3291Z" fill="#0AC2D4"/>
<path d="M1.8375 20.3291H5.25L5.83333 20.3583L6.125 20.4166L6.3875 20.5333L6.65 20.7083L6.88333 20.9708L7.11666 21.4374L7.14583 21.5541V21.9041L7.02916 22.1958L6.85416 22.4874L6.59166 22.7791L6.3 22.9833L6.15416 23.0416L5.97916 23.0708L2.39166 23.0999H1.60416L1.05 23.0708L0.699998 22.9833L0.408331 22.7499L0.204165 22.4583L-1.90735e-06 22.2249V21.1166L0.233331 20.9124L0.524998 20.6208L0.816665 20.4458L1.10833 20.3583L1.8375 20.3291Z" fill="#0AC2D4"/>
<path d="M52.0333 22.6919H52.2667L52.6167 22.7794L52.9083 22.9544L53.2292 23.2169L53.4042 23.4502L53.55 23.7711L53.5792 23.8586V24.2669L53.4625 24.5877L53.2583 24.8794L52.9958 25.1711L52.7042 25.3752L52.4125 25.4919H51.975L51.6833 25.4044L51.3917 25.2002L51.2458 25.0836L50.9542 24.7044L50.8083 24.3836L50.7792 23.9752L50.8667 23.6252L51.0417 23.3044L51.45 22.8961L51.7417 22.7502L52.0333 22.6919Z" fill="#263849"/>
<path d="M13.125 34.7085H13.6208L13.9125 34.796L14.2333 34.971L14.4667 35.1752L14.7 35.4668L14.8167 35.7877L14.8458 36.0502L14.7875 36.4002L14.5833 36.8085L14.3208 37.1002L14.0875 37.2752L13.7083 37.421H13.0958L12.8042 37.3043L12.4833 37.071L12.25 36.7793L12.1042 36.4877L12.0458 36.2543V35.9043L12.1333 35.5252L12.3083 35.2627L12.5708 34.971L13.0375 34.7377L13.125 34.7085Z" fill="#0AC2D4"/>
</g>
<defs>
<clipPath id="clip0_529_524">
<rect width="70" height="70" fill="white"/>
</clipPath>
</defs>
</svg>
