<svg width="35" height="35" viewBox="0 0 35 35" fill="none" xmlns="http://www.w3.org/2000/svg">
<g clip-path="url(#clip0_556_318)">
<path d="M17.7333 3.10645H17.9229L18.0979 3.17936L18.3021 3.31061L18.4917 3.47103L18.6375 3.61686L18.7542 3.71895L18.8708 3.83561L18.9875 3.9377L19.3813 4.33145V4.36061L19.425 4.3752L19.5271 4.49186L20.3875 5.35228V5.38145H20.4167L20.5042 5.48353L20.5333 5.49811V5.52728H20.5625V5.55645H20.5917V5.58561H20.6208V5.61478H20.65V5.64395H20.6792V5.67311H20.7083V5.70228L20.7667 5.73145L24.3833 9.34811L24.4854 9.46478L24.6167 9.6252L24.7042 9.77103L24.7333 9.85853V10.0773L24.675 10.2523L24.5292 10.4419H24.5V10.471L24.3833 10.5731L24.2375 10.6606L24.1063 10.7044H23.9458L23.7708 10.6314L23.6396 10.5439L23.45 10.3689L23.275 10.2085L21.2479 8.18145L21.1458 8.09395L21.0729 8.00645L20.9563 7.90436L20.7813 7.72936V7.7002L20.7229 7.67103V7.64186L20.6792 7.62728L20.5771 7.51061L19.7896 6.72311L19.7313 6.67936V6.6502L19.6729 6.62103L18.7979 5.74603V5.71686L18.7542 5.70228L18.7104 5.65853L18.6958 9.20228V17.471L18.725 17.8794L18.7688 18.1127L18.8563 18.3752L18.9729 18.5939L19.1188 18.7981L19.3083 18.9877L19.5125 19.1335L19.7458 19.2648L20.0083 19.3669L20.2417 19.4106L20.3729 19.4252L20.6646 19.4398H27.9417L31.3979 19.4252H32.4333L32.3167 19.2794L32.2 19.1481L32.1417 19.1044V19.0752H32.1125L32.0104 18.9585L31.8063 18.7544V18.7252L31.7625 18.7106L31.6604 18.5939L27.6354 14.5689L27.5333 14.4523L27.3875 14.2773L27.2854 14.1169L27.2417 14.0002V13.8398L27.3146 13.6502L27.4167 13.4898L27.5188 13.3877L27.6354 13.3002L27.7813 13.2419L27.9271 13.2127L28.0729 13.2273L28.2479 13.3002L28.4229 13.4169L28.5688 13.5481L28.7583 13.7231L33.6875 18.6523V18.6814H33.7167L33.8188 18.7981L33.9792 18.9585L34.0958 19.0606L34.3875 19.3523L34.4896 19.4689L34.7958 19.7752V19.8044H34.825V19.8335H34.8542L34.9563 19.9502L35 19.9939V20.5335L34.9271 20.5773L34.8104 20.7085L34.6792 20.8689L34.5479 21.0002L34.5333 21.0294H34.5042L34.475 21.0877L34.1833 21.3794H34.1542V21.4085L34.0375 21.5106L33.3521 22.196L33.3375 22.2252H33.3083L33.2792 22.2835H33.25V22.3127H33.2208V22.3419H33.1917V22.371H33.1625V22.4002L33.1042 22.4585H33.075V22.4877H33.0458V22.5169L32.9292 22.6189L32.8417 22.721H32.8125V22.7502L32.6958 22.8523L32.6375 22.9252H32.6083V22.9544H32.5792V22.9835L32.4625 23.0856L32.375 23.1877H32.3458V23.2169H32.3167V23.246H32.2875V23.2752H32.2583V23.3044H32.2292V23.3335H32.2V23.3627H32.1708L32.1417 23.421L32.0833 23.4502L32.0542 23.5085H32.025V23.5377L31.9229 23.6252L31.9083 23.6544H31.8792V23.6835L31.7625 23.7856L30.5521 24.996L30.5375 25.0252H30.5083V25.0544H30.4792V25.0835H30.45V25.1127H30.4208V25.1419H30.3917V25.171H30.3625V25.2002L30.3042 25.2585H30.275L30.2458 25.3169H30.2167V25.346H30.1875V25.3752H30.1583V25.4044L30.0854 25.4627L30.0708 25.4919H30.0417V25.521H30.0125V25.5502H29.9833V25.5794H29.9542V25.6085H29.925V25.6377H29.8958V25.6669L29.8375 25.7252H29.8083L29.7792 25.7835H29.75V25.8127H29.7208V25.8419L29.6042 25.9439L29.3563 26.1919L29.3417 26.221H29.3125V26.2502L29.1958 26.3523L27.9563 27.5919L27.9417 27.621H27.9125V27.6502H27.8833V27.6794H27.8542V27.7085H27.825V27.7377H27.7958V27.7669L27.7375 27.8252H27.7083L27.6792 27.8835L27.5917 27.971H27.5625V28.0002L27.5042 28.0585H27.475V28.0877H27.4458V28.1169L27.3292 28.2189L26.0021 29.546L25.9875 29.5752H25.9583V29.6044L25.9 29.6627H25.8708V29.6919H25.8417L25.8125 29.7502H25.7833L25.7542 29.8085H25.725V29.8377H25.6958V29.8669H25.6667V29.896H25.6375L25.6083 29.9544L24.5292 31.0335H24.5V31.0627H24.4708L24.4417 31.121L24.3542 31.2085H24.325V31.2377H24.2958V31.2669L24.2375 31.3252H24.2083L24.1792 31.3835H24.15L24.1208 31.4419L23.8875 31.646L23.625 31.821L23.4938 31.8939H23.4063L23.1729 31.8064L22.9688 31.6752L22.7938 31.5148L22.6771 31.4127L9.65417 18.3898L9.625 18.3752V18.346H9.59584V18.3169H9.56667L9.47917 18.2148L9.45 18.2002V18.171H9.42084V18.1419L9.3625 18.1127V18.0835H9.33334L9.23125 17.9669L6.63542 15.371L6.53334 15.2544L6.3875 15.0648L6.28542 14.8752L6.27084 14.8169V14.6856L6.31459 14.5106L6.40209 14.3356L6.53334 14.1606L6.66459 14.0294L6.7375 13.9419L6.83959 13.8544L6.92709 13.7523L7.04375 13.6502L17.2375 3.45645L17.3979 3.3252L17.5438 3.20853L17.7333 3.10645ZM17.2958 5.39603L17.1646 5.49811L17.0188 5.62936L16.5083 6.13978L16.4792 6.15436V6.18353L16.4208 6.2127L15.1375 7.49603V7.5252H15.1083V7.55436H15.0792V7.58353H15.05V7.6127H15.0208V7.64186L14.9625 7.67103L14.9042 7.72936V7.75853H14.875L14.7729 7.8752L14.7 7.93353L14.5979 8.0502L14.2625 8.38561L14.2042 8.42936V8.45853H14.175L14.0729 8.5752L14 8.63353L13.8979 8.7502L13.7958 8.8377V8.86686L13.7375 8.89603V8.9252H13.7083L13.65 8.98353V9.0127H13.6208V9.04186H13.5917V9.07103H13.5625V9.1002H13.5333V9.12936H13.5042L13.4021 9.24603L13.3292 9.30436V9.33353H13.3V9.3627H13.2708L13.1688 9.47936L13.0667 9.56686V9.59603H13.0375L12.9354 9.7127L11.9292 10.7189L11.9 10.7335V10.7627H11.8708L11.8125 10.8356L11.725 10.9085V10.9377H11.6958V10.9669L11.6375 10.996V11.0252H11.6083V11.0544H11.5792V11.0835L11.5208 11.1127L11.1708 11.4627V11.4919H11.1417V11.521H11.1125V11.5502L11.0542 11.5794L10.675 11.9585V11.9877H10.6458V12.0169H10.6167V12.046H10.5875V12.0752H10.5583V12.1044H10.5292V12.1335H10.5L10.3979 12.2502L9.52292 13.1252L9.45 13.1835L9.39167 13.2419V13.271L9.33334 13.3002L9.30417 13.3585H9.275L9.17292 13.4752L9.0125 13.6356L8.89584 13.7377L8.67709 13.9419L8.63334 14.0002L8.82292 14.0148H9.26042L10.2375 14.0294H17.2667L17.2958 14.0002L17.3104 6.18353V5.39603H17.2958ZM8.6625 15.3856L8.64792 15.4439L8.91042 15.7064L9.02709 15.8085L9.46459 16.246L9.55209 16.3189L9.63959 16.421L9.75625 16.5231L9.82917 16.6106H9.85834L9.87292 16.6544L9.98959 16.7564L10.3104 17.0773L10.3833 17.1648L10.4854 17.2523L10.5875 17.3689H10.6167L10.6313 17.4127L10.7188 17.4856L10.8063 17.5877L10.9229 17.6898L10.9958 17.7773H11.025L11.0542 17.8356L11.1271 17.8939L11.2292 18.0106L11.5792 18.3606H11.6083L11.6229 18.4044L12.3229 19.1044H12.3521L12.3813 19.1627L12.7458 19.5273H12.775L12.7896 19.571L12.9208 19.7023H12.95L12.9646 19.746L13.0521 19.8189L13.1542 19.9356L13.6208 20.4023H13.65L13.6646 20.446L13.7521 20.5189L13.8542 20.6356L15.1229 21.9044H15.1521L15.1813 21.9627L17.5875 24.3689H17.6167L17.6313 24.4127L17.7188 24.4856L17.8208 24.6023L17.8792 24.6606H17.9083L17.9229 24.7044L18.6229 25.4044H18.6521L18.6813 25.4627L18.7979 25.5794L18.8854 25.6523L18.9875 25.7689L19.0604 25.8273L19.1625 25.9439L19.3229 26.1044H19.3521L19.3813 26.1627L19.5125 26.2939H19.5417L19.5563 26.3377L19.7313 26.5127L19.8188 26.5856L19.9208 26.7023L20.4313 27.2127L20.5188 27.2856L20.6208 27.4023L21.4958 28.2773H21.525L21.5396 28.321L21.6563 28.4231L22.4729 29.2398L22.6333 29.371L22.6771 29.4148H22.7063V20.8106L22.6917 20.796H20.65L20.3146 20.7814L19.8625 20.7231L19.5563 20.6502L19.2354 20.5335L18.8563 20.3439L18.6521 20.2127L18.4188 20.0231L18.2729 19.8919L18.1563 19.7752L18.025 19.6148L17.8938 19.4398L17.7333 19.1773L17.6167 18.9439L17.5438 18.7835L17.4125 18.3898L17.3542 18.1273L17.325 17.8502L17.3104 17.3689V15.4731L17.2958 15.4002L16.9313 15.3856H8.6625ZM24.1063 20.796L24.0917 21.0585L24.0771 22.8523V29.4294L24.0917 29.4585L24.1646 29.4294L24.3396 29.2689L24.4271 29.1669L24.5146 29.0939L24.6167 28.9773L24.7188 28.8752L24.8063 28.8023L24.8938 28.7002L25.0104 28.5981L26.9208 26.6877L26.9938 26.6002L27.1104 26.4981L27.2708 26.3231L27.5042 26.0898L27.6208 25.9877L27.6792 25.9148L27.7958 25.8127L28.3208 25.2877L28.4229 25.171L28.4958 25.1127L28.5979 24.996L29.5604 24.0335L29.6771 23.9314L30.3042 23.3044V23.2752L30.3625 23.246L30.5375 23.0564L32.0833 21.5106L32.2729 21.3356L32.7396 20.8689L32.7542 20.8106L32.6958 20.796H24.1063Z" fill="white"/>
<path d="M2.40625 25.4775H11.7979L12.2354 25.4921L12.3958 25.5213L12.5708 25.6234L12.7312 25.7838L12.8187 25.9296L12.8479 26.0609V26.3088L12.7896 26.44L12.6437 26.6442L12.5125 26.79L12.4542 26.8192L12.2937 26.8338L11.6521 26.8484H2.56666L2.275 26.8192L2.15833 26.7755L2.02708 26.6442L1.89583 26.44L1.8375 26.3088L1.82291 26.1484L1.85208 25.9734L1.925 25.8275H1.95416L1.98333 25.7546L2.04166 25.6817H2.07083V25.6525L2.28958 25.5067L2.40625 25.4775Z" fill="#0AC2D4"/>
<path d="M1.63333 17.3398H4.24375L4.76875 17.3544L4.94375 17.3982L5.08958 17.4711L5.25 17.6315L5.32292 17.7482L5.36667 17.8794L5.38125 18.0982L5.3375 18.244L5.23542 18.419L5.11875 18.5648L5.01667 18.6523L4.88542 18.6961L4.725 18.7107H0.583333L0.364583 18.6815L0.277083 18.6232L0.21875 18.5503L0.13125 18.4336L0.0583333 18.3607V18.3315L0 18.3023V17.7482H0.0291667V17.719H0.0583333L0.0875 17.6607L0.145833 17.6023H0.175L0.204167 17.544L0.30625 17.4565L0.510417 17.3544L1.63333 17.3398Z" fill="#0AC2D4"/>
<path d="M5.20625 21.1025H9.14375L9.34791 21.1317L9.52291 21.2046L9.68333 21.3359L9.78541 21.4817L9.84375 21.6567L9.85833 21.8171L9.81458 21.9921L9.72708 22.1671L9.58125 22.3421L9.45 22.4296L9.26041 22.4734L8.16666 22.488H5.54166L5.20625 22.4734L5.03125 22.4296L4.9 22.3275L4.78333 22.1817L4.66666 21.9775L4.6375 21.8317L4.65208 21.6567L4.725 21.4817L4.82708 21.3505L4.9 21.2775L5.00208 21.19L5.10416 21.1317L5.20625 21.1025Z" fill="#0AC2D4"/>
<path d="M5.46875 10.165H7.35L7.74375 10.1796L7.93333 10.2088L8.10833 10.2963L8.23958 10.4421L8.32708 10.6171L8.37083 10.7921V10.9525L8.32708 11.113L8.25417 11.2442L8.09375 11.4338L7.97708 11.5067L7.875 11.5359L7.65625 11.5505H5.1625L4.91458 11.5359L4.76875 11.4921L4.59375 11.3317L4.4625 11.1567L4.40417 11.0109V10.763L4.44792 10.6171L4.53542 10.4713L4.69583 10.2817L4.87083 10.1942L4.94375 10.1796L5.46875 10.165Z" fill="#0AC2D4"/>
<path d="M0.91875 10.165H2.625L2.91667 10.1796L3.0625 10.2088L3.19375 10.2671L3.325 10.3546L3.44167 10.4859L3.55833 10.7192L3.57292 10.7775V10.9525L3.51458 11.0984L3.42708 11.2442L3.29583 11.39L3.15 11.4921L3.07708 11.5213L2.98958 11.5359L1.19583 11.5505H0.802083L0.525 11.5359L0.35 11.4921L0.204167 11.3755L0.102083 11.2296L0 11.113V10.5588L0.116667 10.4567L0.2625 10.3109L0.408333 10.2234L0.554167 10.1796L0.91875 10.165Z" fill="#0AC2D4"/>
<path d="M26.0167 11.3457H26.1333L26.3083 11.3895L26.4542 11.477L26.6146 11.6082L26.7021 11.7249L26.775 11.8853L26.7896 11.929V12.1332L26.7313 12.2936L26.6292 12.4395L26.4979 12.5853L26.3521 12.6874L26.2063 12.7457H25.9875L25.8417 12.702L25.6958 12.5999L25.6229 12.5415L25.4771 12.352L25.4042 12.1915L25.3896 11.9874L25.4333 11.8124L25.5208 11.652L25.725 11.4478L25.8708 11.3749L26.0167 11.3457Z" fill="white"/>
<path d="M6.5625 17.3545H6.81042L6.95625 17.3982L7.11667 17.4857L7.23334 17.5878L7.35 17.7337L7.40834 17.8941L7.42292 18.0253L7.39375 18.2003L7.29167 18.4045L7.16042 18.5503L7.04375 18.6378L6.85417 18.7107H6.54792L6.40209 18.6524L6.24167 18.5357L6.125 18.3899L6.05209 18.2441L6.02292 18.1274V17.9524L6.06667 17.7628L6.15417 17.6316L6.28542 17.4857L6.51875 17.3691L6.5625 17.3545Z" fill="#0AC2D4"/>
</g>
<defs>
<clipPath id="clip0_556_318">
<rect width="35" height="35" fill="white"/>
</clipPath>
</defs>
</svg>
