<svg width="70" height="70" viewBox="0 0 70 70" fill="none" xmlns="http://www.w3.org/2000/svg">
<mask id="path-1-outside-1_530_543" maskUnits="userSpaceOnUse" x="7" y="7" width="56" height="56" fill="black">
<rect fill="white" x="7" y="7" width="56" height="56"/>
<path d="M16.1893 8.11537C15.1551 8.34754 14.5219 8.57971 13.5404 9.07571C11.0604 10.3421 9.16085 12.6321 8.29549 15.4076L8 16.3469V34.9733V53.5997L8.29549 54.5389C9.37192 57.9792 11.9574 60.5648 15.3978 61.6412L16.337 61.9367L25.8982 61.9683L35.4594 62L35.7338 61.7151L36.0187 61.4301V56.85V52.27L35.7655 52.0167C35.2906 51.5418 34.6363 51.5418 34.1614 52.0167L33.9081 52.27V56.0797V59.8894L25.55 59.8577C17.3185 59.8155 17.1707 59.8155 16.337 59.5833C13.3716 58.7707 11.1871 56.5862 10.3428 53.5997L10.1106 52.7554V34.9733V17.1911L10.3428 16.3469C11.1871 13.3603 13.3505 11.1969 16.337 10.3526L17.1813 10.1205H34.9634H52.7456L53.5898 10.3526C56.5764 11.1969 58.7398 13.3603 59.584 16.3469L59.8162 17.1911V34.9733V52.7554L59.584 53.5997C58.7398 56.5862 56.5236 58.7918 53.5898 59.5728C52.8194 59.7838 52.3973 59.8049 48.8198 59.8471L44.8834 59.8999V50.6025V41.3052H48.0494C51.4475 41.3052 51.6902 41.2735 51.9646 40.767C52.1018 40.5031 52.8828 32.8943 52.8194 32.4405C52.7983 32.2716 52.6506 32.0078 52.5134 31.8601L52.239 31.5962H48.5559H44.8623L44.894 29.3906C44.9362 27.4172 44.9573 27.1639 45.1367 26.9739C45.3267 26.7629 45.4533 26.7523 48.7565 26.7207L52.1862 26.689L52.4923 26.3407L52.7983 26.003V21.9928C52.7983 19.2279 52.7561 17.9087 52.6822 17.7293C52.4184 17.1595 52.239 17.1384 47.6062 17.1384C45.2739 17.1384 42.9311 17.1911 42.4034 17.2439C38.6254 17.6449 35.8921 19.6289 34.6363 22.8898C34.0347 24.4728 33.9081 25.4543 33.9081 28.6836V31.5962H31.217C28.3571 31.5962 28.0405 31.6384 27.7872 32.1133C27.6395 32.3983 27.6395 40.5031 27.7872 40.7881C28.0405 41.263 28.3571 41.3052 31.217 41.3052H33.9081V43.0359C33.9081 44.7561 33.9081 44.7561 34.1825 45.041C34.5835 45.4315 35.3433 45.4315 35.7444 45.041L36.0187 44.7561V42.2866C36.0187 40.7881 35.9765 39.7328 35.9132 39.6061C35.6599 39.1312 35.3433 39.089 32.4834 39.089H29.7924V36.4507V33.8124H32.5151C35.0267 33.8124 35.2484 33.7913 35.565 33.6013C35.7549 33.4853 35.9343 33.2847 35.9554 33.1581C35.9871 33.0209 36.0293 31.343 36.061 29.4328C36.1137 25.6653 36.1876 25.0638 36.7258 23.6708C37.5384 21.5918 39.037 20.2938 41.3692 19.65C42.129 19.4389 42.509 19.4178 46.3925 19.3756L50.5822 19.3334V21.9295V24.515L47.6589 24.5467C45.0417 24.5784 44.6829 24.5995 44.3558 24.7789C43.8387 25.0533 43.3216 25.5598 43.0577 26.0558C42.8361 26.4568 42.8256 26.6257 42.7939 29.8127L42.7622 33.137L43.0366 33.4114C43.1844 33.5591 43.4799 33.7069 43.7015 33.7491C43.9125 33.7807 45.5272 33.8124 47.2896 33.8124C50.255 33.8124 50.4766 33.823 50.4766 33.9918C50.4766 34.0973 50.3816 35.2899 50.2445 36.6301L50.0123 39.089H46.8041C43.406 39.089 43.1421 39.1207 42.8783 39.6061C42.8044 39.7433 42.7728 43.4158 42.7728 50.6237V61.4301L43.0577 61.7151L43.3427 62L48.461 61.9683L53.5898 61.9261L54.529 61.6412C57.9588 60.5753 60.5549 57.9792 61.6314 54.5389L61.9268 53.5997V34.9733V16.3469L61.6314 15.4076C60.5549 11.9673 57.9694 9.38175 54.529 8.30532L53.5898 8.00983L35.2273 7.98873C19.8618 7.97818 16.7592 7.99928 16.1893 8.11537Z"/>
</mask>
<path d="M16.1893 8.11537C15.1551 8.34754 14.5219 8.57971 13.5404 9.07571C11.0604 10.3421 9.16085 12.6321 8.29549 15.4076L8 16.3469V34.9733V53.5997L8.29549 54.5389C9.37192 57.9792 11.9574 60.5648 15.3978 61.6412L16.337 61.9367L25.8982 61.9683L35.4594 62L35.7338 61.7151L36.0187 61.4301V56.85V52.27L35.7655 52.0167C35.2906 51.5418 34.6363 51.5418 34.1614 52.0167L33.9081 52.27V56.0797V59.8894L25.55 59.8577C17.3185 59.8155 17.1707 59.8155 16.337 59.5833C13.3716 58.7707 11.1871 56.5862 10.3428 53.5997L10.1106 52.7554V34.9733V17.1911L10.3428 16.3469C11.1871 13.3603 13.3505 11.1969 16.337 10.3526L17.1813 10.1205H34.9634H52.7456L53.5898 10.3526C56.5764 11.1969 58.7398 13.3603 59.584 16.3469L59.8162 17.1911V34.9733V52.7554L59.584 53.5997C58.7398 56.5862 56.5236 58.7918 53.5898 59.5728C52.8194 59.7838 52.3973 59.8049 48.8198 59.8471L44.8834 59.8999V50.6025V41.3052H48.0494C51.4475 41.3052 51.6902 41.2735 51.9646 40.767C52.1018 40.5031 52.8828 32.8943 52.8194 32.4405C52.7983 32.2716 52.6506 32.0078 52.5134 31.8601L52.239 31.5962H48.5559H44.8623L44.894 29.3906C44.9362 27.4172 44.9573 27.1639 45.1367 26.9739C45.3267 26.7629 45.4533 26.7523 48.7565 26.7207L52.1862 26.689L52.4923 26.3407L52.7983 26.003V21.9928C52.7983 19.2279 52.7561 17.9087 52.6822 17.7293C52.4184 17.1595 52.239 17.1384 47.6062 17.1384C45.2739 17.1384 42.9311 17.1911 42.4034 17.2439C38.6254 17.6449 35.8921 19.6289 34.6363 22.8898C34.0347 24.4728 33.9081 25.4543 33.9081 28.6836V31.5962H31.217C28.3571 31.5962 28.0405 31.6384 27.7872 32.1133C27.6395 32.3983 27.6395 40.5031 27.7872 40.7881C28.0405 41.263 28.3571 41.3052 31.217 41.3052H33.9081V43.0359C33.9081 44.7561 33.9081 44.7561 34.1825 45.041C34.5835 45.4315 35.3433 45.4315 35.7444 45.041L36.0187 44.7561V42.2866C36.0187 40.7881 35.9765 39.7328 35.9132 39.6061C35.6599 39.1312 35.3433 39.089 32.4834 39.089H29.7924V36.4507V33.8124H32.5151C35.0267 33.8124 35.2484 33.7913 35.565 33.6013C35.7549 33.4853 35.9343 33.2847 35.9554 33.1581C35.9871 33.0209 36.0293 31.343 36.061 29.4328C36.1137 25.6653 36.1876 25.0638 36.7258 23.6708C37.5384 21.5918 39.037 20.2938 41.3692 19.65C42.129 19.4389 42.509 19.4178 46.3925 19.3756L50.5822 19.3334V21.9295V24.515L47.6589 24.5467C45.0417 24.5784 44.6829 24.5995 44.3558 24.7789C43.8387 25.0533 43.3216 25.5598 43.0577 26.0558C42.8361 26.4568 42.8256 26.6257 42.7939 29.8127L42.7622 33.137L43.0366 33.4114C43.1844 33.5591 43.4799 33.7069 43.7015 33.7491C43.9125 33.7807 45.5272 33.8124 47.2896 33.8124C50.255 33.8124 50.4766 33.823 50.4766 33.9918C50.4766 34.0973 50.3816 35.2899 50.2445 36.6301L50.0123 39.089H46.8041C43.406 39.089 43.1421 39.1207 42.8783 39.6061C42.8044 39.7433 42.7728 43.4158 42.7728 50.6237V61.4301L43.0577 61.7151L43.3427 62L48.461 61.9683L53.5898 61.9261L54.529 61.6412C57.9588 60.5753 60.5549 57.9792 61.6314 54.5389L61.9268 53.5997V34.9733V16.3469L61.6314 15.4076C60.5549 11.9673 57.9694 9.38175 54.529 8.30532L53.5898 8.00983L35.2273 7.98873C19.8618 7.97818 16.7592 7.99928 16.1893 8.11537Z" fill="#263849"/>
<path d="M16.1893 8.11537C15.1551 8.34754 14.5219 8.57971 13.5404 9.07571C11.0604 10.3421 9.16085 12.6321 8.29549 15.4076L8 16.3469V34.9733V53.5997L8.29549 54.5389C9.37192 57.9792 11.9574 60.5648 15.3978 61.6412L16.337 61.9367L25.8982 61.9683L35.4594 62L35.7338 61.7151L36.0187 61.4301V56.85V52.27L35.7655 52.0167C35.2906 51.5418 34.6363 51.5418 34.1614 52.0167L33.9081 52.27V56.0797V59.8894L25.55 59.8577C17.3185 59.8155 17.1707 59.8155 16.337 59.5833C13.3716 58.7707 11.1871 56.5862 10.3428 53.5997L10.1106 52.7554V34.9733V17.1911L10.3428 16.3469C11.1871 13.3603 13.3505 11.1969 16.337 10.3526L17.1813 10.1205H34.9634H52.7456L53.5898 10.3526C56.5764 11.1969 58.7398 13.3603 59.584 16.3469L59.8162 17.1911V34.9733V52.7554L59.584 53.5997C58.7398 56.5862 56.5236 58.7918 53.5898 59.5728C52.8194 59.7838 52.3973 59.8049 48.8198 59.8471L44.8834 59.8999V50.6025V41.3052H48.0494C51.4475 41.3052 51.6902 41.2735 51.9646 40.767C52.1018 40.5031 52.8828 32.8943 52.8194 32.4405C52.7983 32.2716 52.6506 32.0078 52.5134 31.8601L52.239 31.5962H48.5559H44.8623L44.894 29.3906C44.9362 27.4172 44.9573 27.1639 45.1367 26.9739C45.3267 26.7629 45.4533 26.7523 48.7565 26.7207L52.1862 26.689L52.4923 26.3407L52.7983 26.003V21.9928C52.7983 19.2279 52.7561 17.9087 52.6822 17.7293C52.4184 17.1595 52.239 17.1384 47.6062 17.1384C45.2739 17.1384 42.9311 17.1911 42.4034 17.2439C38.6254 17.6449 35.8921 19.6289 34.6363 22.8898C34.0347 24.4728 33.9081 25.4543 33.9081 28.6836V31.5962H31.217C28.3571 31.5962 28.0405 31.6384 27.7872 32.1133C27.6395 32.3983 27.6395 40.5031 27.7872 40.7881C28.0405 41.263 28.3571 41.3052 31.217 41.3052H33.9081V43.0359C33.9081 44.7561 33.9081 44.7561 34.1825 45.041C34.5835 45.4315 35.3433 45.4315 35.7444 45.041L36.0187 44.7561V42.2866C36.0187 40.7881 35.9765 39.7328 35.9132 39.6061C35.6599 39.1312 35.3433 39.089 32.4834 39.089H29.7924V36.4507V33.8124H32.5151C35.0267 33.8124 35.2484 33.7913 35.565 33.6013C35.7549 33.4853 35.9343 33.2847 35.9554 33.1581C35.9871 33.0209 36.0293 31.343 36.061 29.4328C36.1137 25.6653 36.1876 25.0638 36.7258 23.6708C37.5384 21.5918 39.037 20.2938 41.3692 19.65C42.129 19.4389 42.509 19.4178 46.3925 19.3756L50.5822 19.3334V21.9295V24.515L47.6589 24.5467C45.0417 24.5784 44.6829 24.5995 44.3558 24.7789C43.8387 25.0533 43.3216 25.5598 43.0577 26.0558C42.8361 26.4568 42.8256 26.6257 42.7939 29.8127L42.7622 33.137L43.0366 33.4114C43.1844 33.5591 43.4799 33.7069 43.7015 33.7491C43.9125 33.7807 45.5272 33.8124 47.2896 33.8124C50.255 33.8124 50.4766 33.823 50.4766 33.9918C50.4766 34.0973 50.3816 35.2899 50.2445 36.6301L50.0123 39.089H46.8041C43.406 39.089 43.1421 39.1207 42.8783 39.6061C42.8044 39.7433 42.7728 43.4158 42.7728 50.6237V61.4301L43.0577 61.7151L43.3427 62L48.461 61.9683L53.5898 61.9261L54.529 61.6412C57.9588 60.5753 60.5549 57.9792 61.6314 54.5389L61.9268 53.5997V34.9733V16.3469L61.6314 15.4076C60.5549 11.9673 57.9694 9.38175 54.529 8.30532L53.5898 8.00983L35.2273 7.98873C19.8618 7.97818 16.7592 7.99928 16.1893 8.11537Z" stroke="#263849" mask="url(#path-1-outside-1_530_543)"/>
<path d="M15.3731 24.2935C15.3731 22.7311 15.3633 21.4998 15.3448 20.6411C15.3355 20.2121 15.3237 19.8736 15.3106 19.6333C15.3041 19.5138 15.297 19.4157 15.2891 19.3413C15.2852 19.3043 15.2807 19.2692 15.2755 19.2397C15.2715 19.2174 15.2637 19.1745 15.2452 19.1343L15.2403 19.1245L15.2354 19.1157C15.1318 18.9324 14.9204 18.7749 14.7217 18.6685C14.5187 18.5597 14.2681 18.4712 14.0469 18.4712H14.0372L14.0274 18.4722C13.8586 18.4852 13.5955 18.5579 13.4014 18.6714V18.6694C13.302 18.7225 13.202 18.7961 13.1172 18.8716C13.0357 18.9443 12.9501 19.0348 12.8985 19.1294L12.8946 19.1372C12.8731 19.1803 12.8642 19.2268 12.8604 19.2476C12.8551 19.2769 12.8507 19.3115 12.8467 19.3481C12.8389 19.4219 12.8318 19.5198 12.8253 19.6392C12.8122 19.8789 12.8013 20.217 12.7921 20.646C12.7735 21.5047 12.7628 22.7361 12.7628 24.2935V29.2388L12.8331 29.311L13.1075 29.5962L13.1124 29.6021C13.3685 29.8515 13.7268 29.9653 14.0684 29.9653C14.3673 29.9653 14.6783 29.8779 14.9229 29.689L15.0235 29.6021L15.0294 29.5962L15.3038 29.311L15.3731 29.2388V24.2935Z" fill="#0AC2D4" stroke="#0AC2D4" stroke-width="0.5"/>
<path d="M13.0893 34.1475C13.5216 34.5798 14.0905 34.6759 14.559 34.4922C15.0286 34.3079 15.3733 33.8515 15.3734 33.2432C15.3734 32.8866 15.2844 32.5694 15.0844 32.3311C14.8839 32.0923 14.5965 31.9624 14.2592 31.9297C14.2569 31.9294 14.2546 31.929 14.2523 31.9287C14.2514 31.9286 14.2504 31.9278 14.2494 31.9277L14.2484 31.9287C14.1163 31.9117 13.9721 31.9084 13.8441 31.917C13.7214 31.9253 13.5802 31.9452 13.4789 31.9912V31.9922C13.0796 32.1691 12.8498 32.5781 12.7787 32.9756C12.7074 33.3744 12.7815 33.8396 13.0893 34.1475Z" fill="#0AC2D4" stroke="#0AC2D4" stroke-width="0.5"/>
<path d="M34.6288 49.9482C35.0463 50.0525 35.4629 49.9394 35.7997 49.6787L35.9393 49.5576L35.9471 49.5498C36.0579 49.4328 36.1445 49.3109 36.1991 49.1543C36.252 49.0025 36.2684 48.8359 36.2684 48.6396C36.2684 48.2514 36.1498 47.9081 35.9139 47.6602C35.6767 47.411 35.3434 47.2813 34.9637 47.2812C34.7766 47.2812 34.6121 47.2974 34.455 47.3613C34.2971 47.4256 34.1688 47.5284 34.037 47.6602C33.3077 48.3894 33.6251 49.6973 34.6288 49.9482Z" fill="#263849" stroke="#263849" stroke-width="0.5"/>
</svg>
