<svg width="50" height="50" viewBox="0 0 50 50" fill="none" xmlns="http://www.w3.org/2000/svg">
<path d="M4.3457 1.79668C4.13086 1.86504 3.81836 1.99199 3.65234 2.07988C3.21289 2.30449 2.48047 3.1541 2.30469 3.64238C2.07031 4.27714 0 18.574 0 19.5603C0 21.4451 0.888672 23.3494 2.37305 24.6092L2.73438 24.9217V26.6307C2.73438 27.5682 2.77344 28.4178 2.83203 28.5154C2.95898 28.7596 3.4668 28.9158 3.75 28.8084C4.21875 28.6326 4.29688 28.3787 4.29688 27.0213C4.29688 25.8592 4.30664 25.7615 4.47266 25.8299C5.46875 26.2107 7.34375 26.2791 8.51562 25.9861C10.2441 25.5467 11.9629 24.2479 12.7051 22.8318L12.8516 22.5486L13.2129 23.1248C13.6328 23.8084 14.6875 24.824 15.4395 25.2635C16.4062 25.8396 17.3047 26.0936 18.5352 26.1521C19.1992 26.1814 19.873 26.1521 20.2441 26.074C22.041 25.7322 23.7207 24.5994 24.668 23.1053C24.8242 22.8611 24.9707 22.6561 25 22.6561C25.0293 22.6561 25.2246 22.9295 25.4395 23.2518C26.2109 24.4139 27.4316 25.3416 28.8965 25.8592C29.5801 26.1033 29.7559 26.1229 31.1035 26.1229C32.4414 26.1229 32.627 26.0936 33.2812 25.8592C33.6816 25.7127 34.248 25.449 34.5508 25.2732C35.2832 24.8338 36.2988 23.867 36.7188 23.2029C36.9043 22.91 37.0898 22.6658 37.1289 22.6561C37.168 22.6561 37.2656 22.783 37.3535 22.9393C37.8125 23.8377 39.0332 24.9314 40.2148 25.5271C41.6602 26.2498 44.0723 26.3865 45.5371 25.8299C45.6934 25.7615 45.7031 26.2693 45.7031 35.6346C45.7031 46.5623 45.7422 45.9275 45.0586 46.4451L44.6973 46.7283L42.5195 46.7771C40.5664 46.826 40.332 46.8455 40.1465 47.0115C39.834 47.2947 39.8633 47.8709 40.2051 48.1443C40.459 48.3494 40.5469 48.3494 42.7246 48.3201C44.9609 48.2908 44.9707 48.2908 45.5273 48.0174C46.2109 47.6854 46.8066 47.0311 47.0703 46.3279C47.2656 45.8006 47.2656 45.615 47.2656 35.3611V24.9217L47.6855 24.5506C49.1895 23.1834 50 21.4549 50 19.5603C50 18.8572 48.1934 6.00566 47.8418 4.19902C47.6465 3.22246 46.9629 2.35332 46.0449 1.93339C45.5762 1.71855 45.4297 1.70879 42.9492 1.67949L40.332 1.65019L40.0879 1.89433C39.7656 2.2166 39.7656 2.66582 40.0879 2.97832L40.3223 3.22246H42.666C44.082 3.22246 45.1172 3.26152 45.2832 3.32988C45.7422 3.50566 46.1719 3.98418 46.2793 4.48222C46.3672 4.85332 48.3398 18.0857 48.3398 18.3006C48.3398 18.3299 45.9863 18.3592 43.1152 18.3592H37.8906L37.8516 18.1346C37.793 17.8807 36.709 3.88652 36.7188 3.48613C36.7188 3.23222 36.7383 3.22246 37.2461 3.22246C37.9492 3.22246 38.2812 2.96855 38.2812 2.44121C38.2812 2.14824 38.2227 2.02129 38.0273 1.86504L37.7637 1.65996L21.25 1.66972C8.22266 1.66972 4.6582 1.69902 4.3457 1.79668ZM13.2812 3.48613C13.291 3.88652 12.207 17.8807 12.1484 18.1346L12.1094 18.3592H6.88477C4.01367 18.3592 1.66016 18.3299 1.66016 18.3006C1.66016 18.0955 3.63281 4.85332 3.7207 4.48222C3.82812 4.00371 4.24805 3.50566 4.6875 3.32988C4.83398 3.27129 6.5918 3.23222 9.11133 3.23222L13.2812 3.22246V3.48613ZM24.2188 10.7908V18.3592H18.9551H13.7012L13.7305 18.1346C13.75 18.0174 14.0137 14.6678 14.3164 10.6932C14.6191 6.71855 14.8828 3.408 14.9023 3.33964C14.9316 3.25175 15.9473 3.22246 19.5801 3.22246H24.2188V10.7908ZM35.6543 10.3514C35.9668 14.2478 36.2305 17.6365 36.25 17.9002L36.2793 18.3592H31.0352H25.7812V10.7908V3.22246L30.4395 3.24199L35.1074 3.27129L35.6543 10.3514ZM12.0117 20.0975C12.0117 20.1951 11.9434 20.5174 11.8555 20.8103C11.3477 22.5389 9.94141 23.9451 8.21289 24.4529C7.54883 24.6482 6.18164 24.658 5.47852 24.4627C4.31641 24.16 3.125 23.3103 2.42188 22.285C2.07031 21.7674 1.70898 20.8982 1.61133 20.3318L1.54297 19.9217H6.77734C11.7773 19.9217 12.0117 19.9314 12.0117 20.0975ZM24.0625 20.5271C23.6426 22.3631 22.168 23.9061 20.3223 24.4529C20.0098 24.5408 19.4238 24.6092 18.916 24.6092C16.5234 24.6092 14.4238 22.9783 13.8184 20.6346C13.7402 20.3318 13.6719 20.0389 13.6719 19.9998C13.6719 19.9607 16.0449 19.9217 18.9355 19.9217H24.1992L24.0625 20.5271ZM36.2793 20.2342C35.8398 22.3143 34.4238 23.8572 32.4316 24.4529C31.7383 24.658 30.3711 24.658 29.6777 24.4529C27.832 23.9061 26.3574 22.3631 25.9375 20.5271L25.8008 19.9217H31.0742H36.3477L36.2793 20.2342ZM48.3887 20.3318C48.0762 22.2068 46.4355 23.9549 44.5215 24.4627C43.8184 24.658 42.4512 24.6482 41.7871 24.4529C40.0586 23.9451 38.6523 22.5389 38.1445 20.8103C37.8516 19.824 37.2754 19.9217 43.2227 19.9217H48.457L48.3887 20.3318Z" fill="url(#paint0_linear_538_800)"/>
<path d="M32.5195 27.9199C28.291 28.8477 25.3711 32.6855 25.6153 37.0117C25.752 39.4629 26.9336 41.7969 28.8086 43.3301C29.5996 43.9844 31.1524 44.7656 32.1778 45.0293C32.8028 45.1953 33.252 45.2441 34.375 45.2441C36.084 45.2441 36.8653 45.0684 38.3301 44.3359C40.0293 43.4863 41.2598 42.2852 42.1289 40.6152C42.832 39.2773 43.0762 38.3008 43.1348 36.6016C43.1934 35.0195 43.1641 34.7656 42.8516 34.4727C42.6465 34.2871 42.5293 34.2773 38.3887 34.2773C35.1953 34.2871 34.0918 34.3164 33.9746 34.4043C33.6426 34.6582 33.5938 34.9414 33.5938 36.5625C33.5938 38.125 33.6035 38.1836 33.8281 38.4473L34.0625 38.7207L36.0449 38.7695L38.0274 38.8184L37.4512 39.4141C37.0703 39.7949 36.6309 40.1172 36.1817 40.3418C35.5274 40.6641 35.459 40.6738 34.375 40.6738C33.291 40.6738 33.2227 40.6641 32.5684 40.3418C29.9024 39.0332 29.3164 35.5957 31.416 33.5156C32.9785 31.9629 35.2149 31.8359 37.0117 33.1934C37.9883 33.9355 38.1445 33.8867 39.6387 32.3828C40.6543 31.3477 40.7227 31.2598 40.7227 30.8887C40.7227 30.4004 40.5176 30.127 39.6582 29.4824C38.877 28.8867 37.7051 28.3105 36.7188 28.0273C35.6543 27.7246 33.6426 27.666 32.5195 27.9199ZM36.2793 29.541C36.9336 29.7266 38.0664 30.2637 38.5645 30.6348L38.8867 30.8887L38.4082 31.3672L37.9297 31.8457L37.3438 31.4941C36.4356 30.9375 35.5762 30.7227 34.375 30.7227C33.5938 30.7227 33.1836 30.7715 32.666 30.9277C30.7324 31.5332 29.1602 33.2129 28.7012 35.1562C28.5254 35.918 28.5547 37.334 28.7598 38.0371C29.336 40.0488 30.9278 41.6309 32.8711 42.1289C33.6426 42.3242 35.1367 42.334 35.8789 42.1387C37.1973 41.7969 38.4473 40.8984 39.1895 39.7656C39.9903 38.5449 40.1465 37.7734 39.6875 37.4121C39.4434 37.2168 39.3067 37.207 37.2949 37.207H35.1563V36.5234V35.8398H38.3887H41.6309L41.5723 36.7871C41.5039 37.9785 41.3184 38.7012 40.8203 39.6973C39.9024 41.5625 38.1836 42.959 36.1328 43.5156C35.2637 43.75 33.4863 43.75 32.6172 43.5156C30.0879 42.832 28.0762 40.8203 27.3828 38.2812C27.1094 37.3047 27.1387 35.5176 27.4317 34.5703C28.2129 32.041 30.1856 30.127 32.6856 29.4922C33.6035 29.2578 35.332 29.2871 36.2793 29.541Z" fill="url(#paint1_linear_538_800)"/>
<path d="M2.98828 30.5957L2.73438 30.8496V38.3203C2.73438 45.5957 2.74414 45.8105 2.92969 46.3281C3.19336 47.0313 3.78906 47.6855 4.47266 48.0176L5.0293 48.291L21.416 48.3203L37.8027 48.3398L38.0371 48.1055C38.3301 47.8125 38.3594 47.3828 38.0957 47.0605L37.9102 46.8262L21.6113 46.7773L5.30273 46.7285L4.95117 46.4551C4.75586 46.3086 4.54102 46.084 4.47266 45.9668C4.375 45.8008 4.33594 44.043 4.29688 38.2617C4.23828 29.9512 4.29688 30.5176 3.59375 30.4004C3.30078 30.3613 3.19336 30.3906 2.98828 30.5957Z" fill="url(#paint2_linear_538_800)"/>
<defs>
<linearGradient id="paint0_linear_538_800" x1="0" y1="24.9921" x2="50" y2="24.9921" gradientUnits="userSpaceOnUse">
<stop stop-color="#0AC2D4"/>
<stop offset="1" stop-color="#0AD4BC"/>
</linearGradient>
<linearGradient id="paint1_linear_538_800" x1="25.601" y1="36.5022" x2="43.1592" y2="36.5022" gradientUnits="userSpaceOnUse">
<stop stop-color="#0AC2D4"/>
<stop offset="1" stop-color="#0AD4BC"/>
</linearGradient>
<linearGradient id="paint2_linear_538_800" x1="2.73438" y1="39.3627" x2="38.2764" y2="39.3627" gradientUnits="userSpaceOnUse">
<stop stop-color="#0AC2D4"/>
<stop offset="1" stop-color="#0AD4BC"/>
</linearGradient>
</defs>
</svg>
