<svg width="101" height="100" viewBox="0 0 101 100" fill="none" xmlns="http://www.w3.org/2000/svg">
<g clip-path="url(#clip0_241_53)">
<path d="M9.19141 3.59372C8.76172 3.73044 8.13672 3.98434 7.80469 4.16013C6.92578 4.60934 5.46094 6.30856 5.10938 7.28513C4.64062 8.55466 0.5 37.1484 0.5 39.1211C0.5 42.8906 2.27734 46.6992 5.24609 49.2187L5.96875 49.8437V53.2617C5.96875 55.1367 6.04688 56.8359 6.16406 57.0312C6.41797 57.5195 7.43359 57.832 8 57.6172C8.9375 57.2656 9.09375 56.7578 9.09375 54.0429C9.09375 51.7187 9.11328 51.5234 9.44531 51.6601C11.4375 52.4218 15.1875 52.5586 17.5312 51.9726C20.9883 51.0937 24.4258 48.4961 25.9102 45.664L26.2031 45.0976L26.9258 46.25C27.7656 47.6172 29.875 49.6484 31.3789 50.5273C33.3125 51.6797 35.1094 52.1875 37.5703 52.3047C38.8984 52.3633 40.2461 52.3047 40.9883 52.1484C44.582 51.4648 47.9414 49.1992 49.8359 46.2109C50.1484 45.7226 50.4414 45.3125 50.5 45.3125C50.5586 45.3125 50.9492 45.8593 51.3789 46.5039C52.9219 48.8281 55.3633 50.6836 58.293 51.7187C59.6602 52.207 60.0117 52.2461 62.707 52.2461C65.3828 52.2461 65.7539 52.1875 67.0625 51.7187C67.8633 51.4258 68.9961 50.8984 69.6016 50.5468C71.0664 49.6679 73.0977 47.7343 73.9375 46.4062C74.3086 45.8203 74.6797 45.332 74.7578 45.3125C74.8359 45.3125 75.0312 45.5664 75.207 45.8789C76.125 47.6758 78.5664 49.8633 80.9297 51.0547C83.8203 52.5 88.6445 52.7734 91.5742 51.6601C91.8867 51.5234 91.9062 52.539 91.9062 71.2695C91.9062 93.125 91.9844 91.8554 90.6172 92.8906L89.8945 93.457L85.5391 93.5547C81.6328 93.6523 81.1641 93.6914 80.793 94.0234C80.168 94.5898 80.2266 95.7422 80.9102 96.289C81.418 96.6992 81.5938 96.6992 85.9492 96.6406C90.4219 96.582 90.4414 96.582 91.5547 96.0351C92.9219 95.3711 94.1133 94.0625 94.6406 92.6562C95.0312 91.6015 95.0312 91.2304 95.0312 70.7226V49.8437L95.8711 49.1015C98.8789 46.3672 100.5 42.9101 100.5 39.1211C100.5 37.7148 96.8867 12.0117 96.1836 8.39841C95.793 6.44528 94.4258 4.707 92.5898 3.86716C91.6523 3.43747 91.3594 3.41794 86.3984 3.35934L81.1641 3.30075L80.6758 3.78903C80.0312 4.43356 80.0312 5.332 80.6758 5.957L81.1445 6.44528H85.832C88.6641 6.44528 90.7344 6.52341 91.0664 6.66013C91.9844 7.01169 92.8438 7.96872 93.0586 8.96481C93.2344 9.707 97.1797 36.1718 97.1797 36.6015C97.1797 36.6601 92.4727 36.7187 86.7305 36.7187H76.2812L76.2031 36.2695C76.0859 35.7617 73.918 7.77341 73.9375 6.97263C73.9375 6.46481 73.9766 6.44528 74.9922 6.44528C76.3984 6.44528 77.0625 5.93747 77.0625 4.88278C77.0625 4.29684 76.9453 4.04294 76.5547 3.73044L76.0273 3.32028L43 3.33981C16.9453 3.33981 9.81641 3.39841 9.19141 3.59372ZM27.0625 6.97263C27.082 7.77341 24.9141 35.7617 24.7969 36.2695L24.7188 36.7187H14.2695C8.52734 36.7187 3.82031 36.6601 3.82031 36.6015C3.82031 36.1914 7.76562 9.707 7.94141 8.96481C8.15625 8.00778 8.99609 7.01169 9.875 6.66013C10.168 6.54294 13.6836 6.46481 18.7227 6.46481L27.0625 6.44528V6.97263ZM48.9375 21.582V36.7187H38.4102H27.9023L27.9609 36.2695C28 36.0351 28.5273 29.3359 29.1328 21.3867C29.7383 13.4375 30.2656 6.81638 30.3047 6.67966C30.3633 6.50388 32.3945 6.44528 39.6602 6.44528H48.9375V21.582ZM71.8086 20.7031C72.4336 28.4961 72.9609 35.2734 73 35.8008L73.0586 36.7187H62.5703H52.0625V21.582V6.44528L61.3789 6.48434L70.7148 6.54294L71.8086 20.7031ZM24.5234 40.1953C24.5234 40.3906 24.3867 41.0351 24.2109 41.6211C23.1953 45.0781 20.3828 47.8906 16.9258 48.9062C15.5977 49.2968 12.8633 49.3164 11.457 48.9258C9.13281 48.3203 6.75 46.6211 5.34375 44.5703C4.64062 43.5351 3.91797 41.7968 3.72266 40.664L3.58594 39.8437H14.0547C24.0547 39.8437 24.5234 39.8633 24.5234 40.1953ZM48.625 41.0547C47.7852 44.7265 44.8359 47.8125 41.1445 48.9062C40.5195 49.082 39.3477 49.2187 38.332 49.2187C33.5469 49.2187 29.3477 45.957 28.1367 41.2695C27.9805 40.664 27.8438 40.0781 27.8438 40C27.8438 39.9218 32.5898 39.8437 38.3711 39.8437H48.8984L48.625 41.0547ZM73.0586 40.4687C72.1797 44.6289 69.3477 47.7148 65.3633 48.9062C63.9766 49.3164 61.2422 49.3164 59.8555 48.9062C56.1641 47.8125 53.2148 44.7265 52.375 41.0547L52.1016 39.8437H62.6484H73.1953L73.0586 40.4687ZM97.2773 40.664C96.6523 44.414 93.3711 47.9101 89.543 48.9258C88.1367 49.3164 85.4023 49.2968 84.0742 48.9062C80.6172 47.8906 77.8047 45.0781 76.7891 41.6211C76.2031 39.6484 75.0508 39.8437 86.9453 39.8437H97.4141L97.2773 40.664Z" fill="#263849"/>
<path d="M65.5391 55.8398C57.0821 57.6953 51.2422 65.3711 51.7305 74.0234C52.0039 78.9258 54.3672 83.5938 58.1172 86.6602C59.6993 87.9688 62.8047 89.5312 64.8555 90.0586C66.1055 90.3906 67.0039 90.4883 69.25 90.4883C72.668 90.4883 74.2305 90.1367 77.1602 88.6719C80.5586 86.9727 83.0196 84.5703 84.7578 81.2305C86.1641 78.5547 86.6524 76.6016 86.7696 73.2031C86.8867 70.0391 86.8282 69.5312 86.2032 68.9453C85.793 68.5742 85.5586 68.5547 77.2774 68.5547C70.8907 68.5742 68.6836 68.6328 68.4493 68.8086C67.7852 69.3164 67.6875 69.8828 67.6875 73.125C67.6875 76.25 67.7071 76.3672 68.1563 76.8945L68.625 77.4414L72.5899 77.5391L76.5547 77.6367L75.4024 78.8281C74.6407 79.5898 73.7618 80.2344 72.8633 80.6836C71.5547 81.3281 71.418 81.3477 69.25 81.3477C67.0821 81.3477 66.9453 81.3281 65.6368 80.6836C60.3047 78.0664 59.1328 71.1914 63.3321 67.0312C66.4571 63.9258 70.9297 63.6719 74.5235 66.3867C76.4766 67.8711 76.7891 67.7734 79.7774 64.7656C81.8086 62.6953 81.9453 62.5195 81.9453 61.7773C81.9453 60.8008 81.5352 60.2539 79.8164 58.9648C78.2539 57.7734 75.9102 56.6211 73.9375 56.0547C71.8086 55.4492 67.7852 55.332 65.5391 55.8398ZM73.0586 59.082C74.3672 59.4531 76.6328 60.5273 77.6289 61.2695L78.2735 61.7773L77.3164 62.7344L76.3594 63.6914L75.1875 62.9883C73.3711 61.875 71.6524 61.4453 69.25 61.4453C67.6875 61.4453 66.8672 61.543 65.8321 61.8555C61.9649 63.0664 58.8203 66.4258 57.9024 70.3125C57.5508 71.8359 57.6094 74.668 58.0196 76.0742C59.1719 80.0977 62.3555 83.2617 66.2422 84.2578C67.7852 84.6484 70.7735 84.668 72.2578 84.2773C74.8946 83.5938 77.3946 81.7969 78.8789 79.5312C80.4805 77.0898 80.793 75.5469 79.875 74.8242C79.3868 74.4336 79.1133 74.4141 75.0899 74.4141H70.8125V73.0469V71.6797H77.2774H83.7617L83.6446 73.5742C83.5078 75.957 83.1368 77.4023 82.1407 79.3945C80.3047 83.125 76.8672 85.918 72.7657 87.0312C71.0274 87.5 67.4727 87.5 65.7344 87.0312C60.6758 85.6641 56.6524 81.6406 55.2657 76.5625C54.7188 74.6094 54.7774 71.0352 55.3633 69.1406C56.9258 64.082 60.8711 60.2539 65.8711 58.9844C67.7071 58.5156 71.1641 58.5742 73.0586 59.082Z" fill="#263849"/>
<path d="M6.47656 61.1914L5.96875 61.6992V76.6406C5.96875 91.1914 5.98828 91.6211 6.35938 92.6563C6.88672 94.0625 8.07812 95.3711 9.44531 96.0352L10.5586 96.582L43.332 96.6406L76.1055 96.6797L76.5742 96.2109C77.1602 95.625 77.2188 94.7656 76.6914 94.1211L76.3203 93.6523L43.7227 93.5547L11.1055 93.457L10.4023 92.9102C10.0117 92.6172 9.58203 92.168 9.44531 91.9336C9.25 91.6016 9.17188 88.0859 9.09375 76.5234C8.97656 59.9023 9.09375 61.0352 7.6875 60.8008C7.10156 60.7227 6.88672 60.7813 6.47656 61.1914Z" fill="#263849"/>
</g>
<defs>
<clipPath id="clip0_241_53">
<rect width="100" height="100" fill="white" transform="translate(0.5)"/>
</clipPath>
</defs>
</svg>
