<svg width="70" height="70" viewBox="0 0 70 70" fill="none" xmlns="http://www.w3.org/2000/svg">
<path d="M62.7082 35.7583L63.3499 35.7875L63.8749 35.9041L64.2249 36.05L64.6624 36.2833L64.9541 36.5166L65.3332 36.8666L65.7124 37.3916L65.9749 37.8583L66.1791 38.325L66.3541 38.9375L66.3832 39.1416V39.6083L66.2957 40.0458L66.1499 40.425L65.9457 40.7166L65.6249 41.125L65.3332 41.4458L65.0999 41.65L64.7207 42L64.4874 42.2041L64.1957 42.4666L63.8749 42.7291L63.5249 43.05L63.2916 43.2541L62.9707 43.5458L62.6499 43.8083L62.4166 44.0416L62.1832 44.2458L61.9791 44.45L61.7457 44.6541L61.3957 44.975L61.1624 45.1791L60.7832 45.5291L60.5791 45.7333L60.1124 46.1416L59.7624 46.4916H59.7041V46.55L59.4707 46.7541L59.0041 47.1916L58.6541 47.5125L58.2749 47.8625L58.1874 47.8916V47.95L57.9541 48.1541L57.6624 48.4166L57.3124 48.7666L57.0791 48.9708L56.6124 49.4083L56.3791 49.6125L56.0582 49.9333L55.8249 50.1375L55.3291 50.6333L55.0957 50.8375L54.7749 51.1291L54.4541 51.3916L54.0749 51.7416L53.7541 52.0041L53.2874 52.4416L52.8791 52.7916L52.1791 53.4333L51.8582 53.6958L51.5082 54.0166L51.1874 54.2791L50.9249 54.5125L50.6041 54.775L50.2249 55.0958L49.9624 55.3L49.5249 55.65L49.2041 55.9125L48.6791 56.2916L48.2416 56.5541L47.7749 56.8166L46.8707 57.225L45.4999 57.75L44.5957 58.0708L43.5457 58.4208L42.5249 58.7416L40.8041 59.2375L39.6082 59.5583L38.0041 59.9375L36.9541 60.1416L35.6999 60.3166L35.4374 60.3458L34.7957 60.375L34.2416 60.3458L33.3082 60.2L32.4916 60.025L31.8499 59.85L30.9749 59.6166L29.9249 59.4125L29.3999 59.3541H28.3499L26.9499 59.4708L25.2582 59.675L23.9457 59.8791L22.8082 60.0833L21.4374 60.3166L20.2416 60.55L18.9582 60.7833L17.3541 61.1041L15.4874 61.4541L14.6707 61.6V63.175L14.5832 63.7291L14.3499 64.3416L14.1166 64.6916L13.7666 65.1L13.3874 65.3625L12.9791 65.5375L12.5416 65.625L12.2207 65.6541L11.4332 65.6833L9.74155 65.7125H7.69989L6.06655 65.6833L5.45405 65.625L5.07489 65.5083L4.57905 65.1583L4.37489 64.9541L4.14155 64.6625L3.90822 64.2833L3.70405 63.8458L3.61655 63.35L3.58739 63.0291L3.55822 62.1833L3.52905 58.8V50.3125L3.58739 44.8583L3.61655 44.45L3.76239 43.8375L4.02489 43.3416L4.25822 43.05L4.31655 42.9625H4.37489V42.9041L4.69572 42.6416L4.98739 42.4375L5.39572 42.2625L5.65822 42.2041L6.03739 42.175L7.23322 42.1458H10.9957L12.1916 42.175L12.5999 42.2041L13.0374 42.3208L13.5041 42.5833L13.8249 42.8458L14.1166 43.1666L14.3499 43.575L14.5249 44.0416L14.6124 44.4791L14.6416 45.0625L14.9916 44.8875L15.5749 44.5083L16.8582 43.6916L17.3832 43.3416L18.3749 42.7L18.8124 42.4083L19.2791 42.1166L20.1249 41.5625L20.9416 41.0666L21.6124 40.7166L22.3707 40.3958L23.0416 40.1916L24.0041 39.9875L24.6166 39.9L24.9374 39.8708H25.8416L26.6874 39.9583L27.3582 40.075L28.1166 40.2791L28.7291 40.4833L29.4874 40.8041L30.8874 41.5041L31.4707 41.825L31.9374 42.0583L32.7832 42.4958L33.3082 42.7583L33.5416 42.8166L33.8916 42.8458H43.7207L45.0332 42.875L45.6457 42.9333L46.1416 43.05L46.5207 43.1958L46.9582 43.4291L47.3666 43.7208L47.6582 43.9833L47.8916 44.2166L48.2416 44.6833L48.5041 45.0916L48.7082 45.2666L48.9416 45.1208L49.2041 44.8583L49.6999 44.4791L50.2541 44.0708L51.0707 43.4875L51.8291 42.9041L52.1499 42.6708L52.7041 42.2625L53.1416 41.9125L54.3082 41.0375L55.4166 40.2208L55.8832 39.8708L56.4374 39.4625L57.3707 38.7625L57.9832 38.2958L58.3041 38.0625L58.9166 37.5958L59.4707 37.1875L60.0541 36.7791L60.5499 36.4583L61.0166 36.1958L61.5999 35.9625L61.9791 35.8458L62.2999 35.7875L62.7082 35.7583ZM62.6499 37.625L62.1249 37.7416L61.7749 37.8875L61.4541 38.0625L61.1041 38.2958L60.6082 38.6458L60.0541 39.025L59.6749 39.3166L59.2082 39.6666L58.6832 40.0458L58.2457 40.3666L57.9541 40.6L57.5749 40.8916L57.1082 41.2416L56.7874 41.475L56.3207 41.825L55.5624 42.4083L55.0374 42.7875L54.5999 43.1083L54.2207 43.4L53.7541 43.75L53.2291 44.1291L52.7916 44.45L52.5291 44.6541L52.2082 44.8875L51.9166 45.1208L51.4207 45.4708L51.0416 45.7625L50.6916 46.025L50.3124 46.3166L49.8166 46.6958L49.1166 47.1625L48.9416 47.3666L48.7666 47.95L48.5916 48.4166L48.3582 48.8833L48.1541 49.2041L47.8624 49.5833L47.5416 49.9333L47.1624 50.225L46.6957 50.4875L46.3749 50.6333L45.9666 50.75L45.3832 50.8375L44.6249 50.8958H36.1082L35.6707 50.8666L35.4374 50.75L35.2332 50.3416L35.2041 50.225V49.875L35.3207 49.5541L35.4666 49.35L35.6707 49.2333L35.8166 49.2041L38.6166 49.175H44.1582L45.0624 49.1458L45.5874 49.0291L45.9957 48.8541L46.3166 48.6208L46.4916 48.475L46.6957 48.2125L46.9582 47.7458L47.0749 47.425L47.1041 47.2208V46.6666L47.0166 46.2583L46.8707 45.8791L46.6374 45.5291L46.4041 45.2375L46.0832 44.975L45.7916 44.8L45.3249 44.6833L45.0916 44.6541L33.1916 44.625L32.8707 44.5375L31.5874 43.8958L31.0332 43.6041L28.8749 42.525L28.1166 42.2041L27.6207 42.0291L27.0082 41.8541L26.4249 41.7375L25.8707 41.6791H24.9666L24.2374 41.7666L23.4499 41.9416L22.8082 42.175L22.1666 42.4666L21.6416 42.7583L21.1166 43.0791L20.1249 43.7208L19.4249 44.1583L19.0749 44.3916L18.4041 44.8291L17.8791 45.15L17.3541 45.5L16.8582 45.8208L16.4207 46.1125L16.0124 46.375L15.2541 46.8416L14.8166 47.1041L14.6999 47.1916L14.6707 47.425L14.6416 59.8791L17.8499 59.2083L19.2499 58.9166L21.2624 58.5375L23.7999 58.1L25.8707 57.8083L27.2999 57.6625L28.2916 57.6041H29.8374L30.5957 57.6916L31.2666 57.8375L32.8124 58.2458L33.4541 58.3916L34.3874 58.5083H35.7582L36.7207 58.3916L37.9749 58.1291L39.8416 57.6625L41.1249 57.3125L42.8457 56.7875L44.0999 56.3791L45.0624 56.0291L46.1999 55.5916L47.0166 55.2125L47.4249 54.9791L47.9207 54.6291L48.3291 54.2791L48.6499 54.0166L48.9999 53.725L49.2916 53.4916L49.7582 53.1125L50.0791 52.85L50.4582 52.5L50.6916 52.2958L50.9832 52.0333L51.3041 51.7708L51.6541 51.45L51.9457 51.2166L52.3249 50.8666L52.6166 50.6041L53.0249 50.225L53.0832 50.1958V50.1375L53.1999 50.0791L53.6374 49.6708L53.9874 49.35L54.2207 49.1458L54.6874 48.7083L55.0082 48.4166L55.2416 48.2125L55.7374 47.7458L56.1749 47.3375L56.2332 47.3083V47.25L56.3499 47.1916L56.6416 46.9L56.6999 46.8708V46.8125L56.8166 46.7541L57.2832 46.2875L57.3416 46.2583V46.2L57.4582 46.1416L57.7499 45.85L57.8082 45.8208V45.7625L57.9249 45.7041L58.0999 45.5583L58.2166 45.4416V45.3833L58.3332 45.325L58.8291 44.8583L59.2082 44.5083L59.4999 44.2458L59.7332 44.0416L60.1999 43.6041L60.5207 43.3125L60.7541 43.1083L61.1332 42.7583L61.2499 42.6708V42.6125L61.3666 42.5541L61.5416 42.4083V42.35L61.6582 42.2916L61.9499 42L62.0082 41.9708V41.9125L62.1249 41.8541L62.3582 41.6208L62.6791 41.3583L62.8832 41.1541L63.2916 40.8333L63.6707 40.5125L63.9332 40.3083L64.3416 39.9291L64.5166 39.6375L64.5749 39.4916V39.1708L64.4291 38.7333L64.1957 38.2958L63.9332 38.0041L63.6999 37.8L63.3207 37.6541L63.1749 37.625H62.6499ZM6.35822 43.9541L5.65822 44.0125L5.48322 44.0708L5.42489 44.8291L5.39572 48.3583V63.2041L5.45405 63.6708L5.51239 63.8458L5.74572 63.9041L6.06655 63.9333L11.0541 63.9625L12.2499 63.9333L12.6874 63.875L12.7457 63.6416L12.8041 63.0875L12.8332 62.4458L12.8624 51.0125V49.1458L12.8332 45.85L12.8041 44.8L12.7457 44.1875L12.6582 44.0416L12.4541 43.9833L12.1332 43.9541H6.35822Z" fill="white"/>
<path d="M23.0707 4.2583H27.7666L31.3541 4.28747H43.5749L46.9582 4.2583H50.7791L51.6832 4.28747L52.2957 4.37497L52.6749 4.49163L53.0249 4.63747L53.4624 4.89997L53.8416 5.19163L54.1332 5.45413L54.4541 5.86247L54.7457 6.29997L55.0666 6.9708L55.1832 7.4083L55.2416 7.9333V25.4333L55.1832 26.1916L55.0957 26.6291L54.9207 27.125L54.6582 27.5916L54.3666 28H54.3082L54.2499 28.1166L54.1624 28.2333H54.1041L54.0457 28.35L53.7249 28.6416L53.3457 28.9041L52.8791 29.1375L52.2957 29.3125L51.5666 29.4291L51.2749 29.4583L50.5749 29.4875L50.4291 29.5166L50.3999 33.8916L50.3707 37.1L50.3124 37.3916L50.1374 37.625L49.8749 37.8L49.5541 37.8875L49.2916 37.8583L48.9707 37.6833L48.6207 37.3625L48.4166 37.1875V37.1291L48.2999 37.0708L47.4249 36.1958L47.1916 35.9916L46.9291 35.7291L46.6957 35.525L46.4916 35.35L46.0541 34.9125L45.8207 34.7083L45.5582 34.4458L45.3249 34.2416L44.8291 33.7458L44.5957 33.5416L44.0999 33.0458L43.9832 32.9583V32.9L43.8666 32.8416L42.7874 31.7625L42.5541 31.5583L42.2332 31.2375L41.9999 31.0333L41.5624 30.5958L41.3291 30.3916V30.3333L41.2124 30.275L40.7166 29.7791L40.6291 29.7208V29.6625L40.5124 29.6041L40.3666 29.4875L36.1957 29.4583V31.5875L36.1666 32.5791L36.0499 33.075L35.7874 33.6291L35.5541 33.95L35.2332 34.3L34.8249 34.5625L34.3874 34.7375L34.0082 34.825L33.1041 34.8833L31.8499 34.9125L23.9166 34.9416L23.6249 35L23.4499 35.2333L23.2166 35.4375L22.8374 35.7875L22.2249 36.4H22.1666V36.4583H22.1082V36.5166H22.0499V36.575L21.8166 36.7791L21.2624 37.3333L21.0291 37.5375L20.6207 37.9458L20.3874 38.15L20.1541 38.3833L19.9207 38.5875L19.6582 38.85L19.4249 39.0541L19.1624 39.2875L18.8124 39.55L18.5791 39.6375L18.3749 39.6083L17.9957 39.375L17.7041 39.0833L17.6166 38.7041V36.225L17.6457 35.0291L17.5582 34.9416L16.7707 34.7666L16.4207 34.6208L16.1291 34.4458L15.7207 34.125L15.5166 33.9208L15.2249 33.5125L15.0499 33.1333L14.9624 32.7541L14.9332 32.3458L14.9041 30.3333V23.1583L14.9332 22.2833L15.0207 21.7583L15.1374 21.4666L15.3999 21.0583L15.4582 20.9708H15.5166L15.5749 20.8541L15.7791 20.65L16.1582 20.3583L16.4791 20.1833L16.7124 20.0958L17.2082 20.0083L17.6457 19.9791L18.6666 19.95V8.0208L18.7249 7.46663L18.8124 7.0583L19.0457 6.50413L19.3082 6.03747L19.6582 5.5708L20.0082 5.2208L20.3874 4.92913L20.7082 4.72497L21.1749 4.49163L21.4374 4.40413L21.9916 4.31663L22.2541 4.28747L23.0707 4.2583ZM34.7666 5.97913L22.6916 6.0083L22.0791 6.06663L21.7291 6.1833L21.4666 6.32913L21.0874 6.64997L20.8249 7.02913L20.6499 7.37913L20.5332 7.72913L20.4749 8.42913L20.4457 17.7625V19.8041L20.4749 19.95H32.6082L33.5707 19.9791L34.1249 20.0375L34.5041 20.1541L34.9707 20.3875L35.2332 20.6208H35.2916V20.6791H35.3499L35.4082 20.7958L35.6416 21.0583L35.9041 21.4958L36.1082 21.9625L36.1374 22.1083L36.1666 22.5166V27.6791L39.5791 27.7083L40.8916 27.7375L41.1832 27.8541L41.5041 28.0583L41.7374 28.2916L41.9707 28.4958L42.6999 29.225L42.9332 29.4291L43.2249 29.7208H43.2832V29.7791L43.4291 29.925L43.5166 29.9541L43.5749 30.0708H43.6332V30.1291L43.8666 30.3333L44.5957 31.0625L44.8291 31.2666L45.5874 32.025L45.8207 32.2291L46.0832 32.4916L46.3166 32.6958L46.6666 33.0166L46.7832 33.075L46.8124 33.1625L47.0457 33.3666L47.3666 33.6875H47.4249V33.7458L47.6582 33.95L48.0957 34.4166L48.3874 34.6791L48.5916 34.8541V29.05L48.6207 28.35L48.7082 28.1166L48.8249 27.9708L49.0582 27.825L49.3499 27.7375L50.8374 27.7083L51.3916 27.6791L51.8582 27.5916L52.3249 27.4166L52.6457 27.2125L52.9957 26.8916L53.0249 26.8041H53.0832L53.2291 26.5125L53.3166 26.1625L53.3749 25.6958L53.4041 24.7333V20.4166L53.4332 13.825V10.9375L53.4041 7.90413L53.3457 7.52497L53.1707 7.08747L52.9957 6.82497L52.7624 6.56247L52.3541 6.2708L52.0624 6.12497L51.7999 6.06663L51.5374 6.03747L50.6332 6.0083L39.8416 5.97913H34.7666ZM19.9791 21.7875L17.0916 21.8166L16.8582 21.875L16.7999 21.9625L16.7416 22.4583L16.7124 23.3333V32.4625L16.7707 32.7541L16.8874 32.8708L17.2666 32.9875L18.8999 33.1916L19.1624 33.2791L19.2791 33.425L19.3666 33.6L19.3957 33.7458L19.4249 34.3875V36.4875L19.6874 36.3416L20.0374 36.0208L20.1832 35.9041V35.8458L20.2999 35.7875L20.5332 35.5541V35.4958L20.6499 35.4375L20.8249 35.2333L20.9999 35.0875L21.5541 34.5333L21.7874 34.3291L22.1666 33.95L22.3999 33.7458L22.6332 33.5125L22.9541 33.25L23.2166 33.1333L23.4791 33.1041L24.7041 33.075H33.4541L33.9207 33.0458L34.1541 32.9583L34.2707 32.725L34.3582 32.0541L34.3874 31.2083V29.1375L34.3582 22.5458L34.2707 22.05L34.1832 21.875L34.0374 21.8166L33.7749 21.7875H19.9791Z" fill="white"/>
<path d="M44.7417 12.25H46.4917L48.7667 12.2792L49 12.3958L49.175 12.6L49.2625 12.95V13.3292L49.2042 13.6208L49.0584 13.8542L48.9125 13.9417L48.6209 13.9708L47.075 14L44.0417 14.0292L31.2084 14.0875H25.5209L25.1125 14.0583L24.9084 13.9708L24.7625 13.825L24.6459 13.5333L24.6167 13.4167V13.0083L24.7334 12.6292L24.9084 12.4542L25.2 12.3667L25.4625 12.3375L28.8167 12.3083L44.7417 12.25Z" fill="white"/>
<path d="M46.3459 19.9792H48.3876L48.8543 20.0376L49.0876 20.2126L49.2334 20.4459L49.2918 20.6209V21.0001L49.2043 21.3209L49.0293 21.5834L48.8251 21.7001L48.4459 21.7584L47.5126 21.7876L43.5168 21.8459H40.7459L40.3084 21.8167L40.1043 21.7292L39.9001 21.4667L39.7834 21.1751V20.7376L39.9001 20.4459L40.0168 20.2709L40.2209 20.1251L40.4251 20.0959L42.5251 20.0376L43.9834 20.0084L46.3459 19.9792Z" fill="white"/>
<path d="M25.7249 26.5125H29.0791L29.5166 26.5416L29.7791 26.6291L29.9541 26.8333L30.0416 27.0375L30.0707 27.4166L30.0124 27.7666L29.8666 28.0583L29.7207 28.1458L29.3707 28.2333L29.0791 28.2625L27.6791 28.2916L23.5082 28.35H21.8457L21.4374 28.2916L21.2041 28.0583L21.0582 27.7666L21.0291 27.65V27.2708L21.1457 26.95L21.3207 26.7458L21.5541 26.6291L21.7874 26.6L22.3707 26.5708L23.6832 26.5416L25.7249 26.5125Z" fill="white"/>
</svg>
