<svg width="70" height="70" viewBox="0 0 70 70" fill="none" xmlns="http://www.w3.org/2000/svg">
<path d="M34.3874 29.5166H35.5833L36.4583 29.6041L37.1874 29.7499L37.8583 29.9541L38.5583 30.2458L39.0249 30.4791L39.4333 30.7124L40.1333 31.1791L40.5999 31.5583L40.8333 31.7624L41.1249 32.0249L41.4749 32.3749L41.7374 32.6958L42.1166 33.1624L42.4374 33.6583L42.7291 34.1833L42.9624 34.6499L43.1374 35.0291L43.3416 35.6124L43.5458 36.3416L43.6624 36.9541L43.7208 37.3916L43.7499 37.8874V38.7624L43.6916 39.4916L43.5166 40.3083L43.2541 41.2124L42.8749 42.1166L42.6416 42.5249L42.2041 43.2249L41.8541 43.7208L41.4458 44.1583L41.2416 44.3916L40.8333 44.7999L40.3666 45.1499L39.8708 45.4708L40.2208 45.6166L40.9208 45.8791L41.5916 46.1708L42.0874 46.4041L42.5833 46.6666L42.9916 46.8708L43.3999 47.1041L43.9833 47.4833L44.7124 47.9791L45.1499 48.3291L45.4708 48.5624L45.8499 48.8833L46.0833 49.0874L46.5499 49.5249L47.0166 49.9916L47.2208 50.2249L47.5416 50.6041L47.7749 50.8958L48.1541 51.3916L48.5333 51.9166L48.9124 52.4999L49.1749 52.9374L49.5249 53.6083L49.8749 54.3083L50.2249 55.1541L50.5166 55.9416L50.8083 56.8749L51.0999 58.0708L51.1583 58.5374L51.3916 58.4208L51.7708 58.0999L52.1208 57.7499L52.3541 57.5458L52.8499 57.0791L53.4333 56.4958L53.5791 56.3208L53.7249 56.1749L53.9874 55.8833L54.7458 54.9499L55.1833 54.3666L55.4749 53.9874L55.7958 53.5208L55.9999 53.2291L56.4083 52.5874L56.8166 51.8874L57.1083 51.3333L57.2833 51.0416L57.6041 50.3708L57.9249 49.6708L58.3041 48.7666L58.7124 47.6583L58.9749 46.8416L59.2666 45.8208L59.4999 44.8874L59.7041 43.8374L59.8791 42.6999L60.0249 41.1833L60.0833 39.9874V38.9083L60.0249 37.5958L59.9083 36.1083L59.7916 35.0874V34.6208L59.9083 34.3874L60.1708 34.1249L60.5791 33.9208L60.8999 33.8624L61.2208 33.9499L61.5416 34.1249L61.7458 34.3291L61.9499 34.7374L62.0374 35.1749L62.1833 36.5166L62.2999 37.8291L62.3291 38.3541V40.4833L62.2708 41.3874L62.0083 43.5458L61.8916 44.3333L61.5416 45.9374L61.3083 46.8416L60.9583 48.0083L60.5791 49.0583L60.4041 49.5249L60.0541 50.3999L59.5291 51.5083L59.1208 52.2958L58.7999 52.8791L58.4208 53.5208L58.0999 54.0458L57.2249 55.3583L56.8749 55.7958L56.6416 56.1166L56.3791 56.4666L56.0583 56.8749L55.7958 57.1958L55.4458 57.5749L55.2416 57.8083L55.0083 58.0416L54.8041 58.2749L53.8124 59.2666L53.5791 59.4708L53.2291 59.7916L52.9958 59.9958L52.6166 60.3458L52.2666 60.6374L51.8874 60.9291L51.3624 61.3083L50.9249 61.6291L50.5166 61.9208L49.8749 62.3291L49.3208 62.6791L48.5041 63.1458L48.0374 63.4083L47.4541 63.7291L46.7833 64.0499L46.1416 64.3416L45.1791 64.7499L43.8958 65.2166L42.6124 65.6249L41.2124 65.9749L40.1333 66.2083L39.1708 66.3541L38.8791 66.2666L38.6458 66.0916L38.4416 65.8583L38.2666 65.5666L38.2083 65.3041V64.9833L38.3249 64.6916L38.5291 64.4291L38.9958 64.1958L39.4041 64.0791L40.3083 63.9041L41.3291 63.6416L42.3499 63.3499L43.2833 63.0583L44.3333 62.6499L45.1791 62.2999L45.9374 61.9499L46.9874 61.4249L47.6583 61.0458L48.1833 60.7541L48.8249 60.3458L49.0291 60.1708L49.0583 60.1124V59.8499L48.8541 58.4208L48.6791 57.6041L48.3291 56.4666L47.9499 55.5041L47.5999 54.7458L47.3666 54.2791L47.0166 53.6666L46.6083 53.0541L46.3458 52.7041L46.0541 52.3249L45.7624 52.0041L45.4999 51.6833L45.0333 51.1874L44.6833 50.8374L44.4499 50.6333L44.1291 50.3416L43.3708 49.7583L42.9916 49.4958L42.3499 49.0874L41.8541 48.7958L41.2999 48.5041L40.3374 48.0666L39.7249 47.8333L38.7916 47.5416L38.0916 47.3666L37.3333 47.2208L36.5166 47.1041L35.9041 47.0458L35.3499 47.0166H34.7666L33.8041 47.0749L33.0166 47.1624L32.1416 47.3083L31.2666 47.5124L30.5666 47.7166L29.4874 48.0958L28.8458 48.3874L28.3791 48.6208L27.7374 48.9708L27.2708 49.2624L26.7166 49.6416L26.3374 49.9333L26.0458 50.1666L25.7541 50.4291L25.5208 50.6333L25.1708 50.9541L24.6458 51.4791L24.5874 51.5666H24.5291L24.4708 51.6833L24.1499 52.0333L23.9166 52.3249H23.8583L23.7999 52.4416L23.5083 52.8208L23.2458 53.1999L22.7791 53.9583L22.4291 54.5999L22.0791 55.3291L21.8458 55.8833L21.5833 56.6124L21.3791 57.3124L21.1166 58.3624L20.9124 59.4124L20.8541 59.9083L20.9416 60.1708L21.2041 60.3749L21.6416 60.6666L22.0499 60.8999L22.7499 61.3083L23.5666 61.7458L24.5874 62.2416L25.6958 62.7083L26.8333 63.1166L27.7666 63.4083L28.6999 63.6708L29.7791 63.9333L30.7999 64.1666L31.2374 64.3416L31.5291 64.5458L31.6458 64.6916L31.7333 64.9541V65.2458L31.6749 65.5666L31.4708 65.8874L31.3541 66.0333H31.2958L31.2374 66.1499L31.1208 66.2083V66.2666L30.9166 66.3833L30.5958 66.3249L30.2166 66.2666L28.7583 66.0041L27.7083 65.7416L26.8041 65.4791L25.7541 65.1291L25.0249 64.8666L23.9749 64.4291L23.1291 64.0499L22.2541 63.6124L21.6124 63.2624L20.9999 62.9124L20.3291 62.5041L19.6583 62.0666L19.1041 61.6874L18.5791 61.3083L18.1999 61.0166L17.8791 60.7541L17.5874 60.5208L17.2083 60.1999L16.7999 59.8499L16.4499 59.5291L16.2166 59.3249L14.6999 57.8083L14.4958 57.5749L14.2333 57.2833L13.9124 56.8749L13.5041 56.3791L13.0958 55.8541L12.8041 55.4458L12.4541 54.9499L12.0166 54.2791L11.6666 53.7249L11.1999 52.9374L10.7624 52.1499L10.4708 51.5958L10.1499 50.9249L9.94575 50.4583L9.77075 50.0791L9.39159 49.1166L9.04159 48.1249L8.72075 47.0749L8.37075 45.7624L8.07909 44.3041L7.90409 43.2541L7.72909 41.8249L7.64159 40.8041L7.58325 39.6666V38.9666L7.64159 37.9166L7.72909 36.9541L7.96242 35.0583L8.04992 34.6208L8.22492 34.2708L8.45825 34.0374L8.77909 33.9208L9.09992 33.8916L9.53742 34.0083L9.85825 34.1833L10.0916 34.3874L10.1499 34.5041V35.2333L9.94575 37.3041L9.88742 38.2374L9.85825 39.0541V39.9583L9.91659 41.2708L10.0333 42.4374L10.2083 43.6624L10.3541 44.4208L10.6458 45.6749L10.9374 46.7249L11.2874 47.7749L11.7541 48.9999L12.2499 50.1083L12.8333 51.2749L13.1249 51.8291L13.5041 52.4708L13.9708 53.1999L14.5249 54.0166L14.9333 54.5708L15.2541 54.9791L15.5166 55.2999L15.8666 55.7083L16.0708 55.9416L16.4208 56.3208L16.7416 56.6708L17.2666 57.1958L17.7333 57.6041L18.2583 58.1291L18.5791 58.3916L18.7541 58.5374H18.7833L18.8708 57.8958L19.3083 56.2624L19.6874 55.2124L20.2124 54.0458L20.5041 53.4916L20.8249 52.9083L21.1458 52.3833L21.4374 51.9458L21.8166 51.3916L22.0208 51.1291L22.3416 50.7208L22.6916 50.3124L22.9541 50.0208L23.1583 49.7874L23.6249 49.3208L23.8583 49.1166L24.0916 48.8833L24.4124 48.6208L24.8791 48.2416L25.2583 47.9499L25.8124 47.5708L26.5708 47.0749L27.3874 46.6083L28.1749 46.2291L29.0791 45.8499L29.9541 45.5583H30.0124V45.4708L29.8666 45.4124L29.4583 45.0916L29.1666 44.8291L28.4083 44.0708L28.1458 43.7499L27.8541 43.3708L27.5624 42.9333L27.2124 42.3208L26.9208 41.7083L26.6583 41.0374L26.5124 40.5999L26.3374 39.8708L26.2208 39.0249L26.1916 38.4999V37.7999L26.2499 37.1291L26.3666 36.4583L26.6583 35.4666L26.8916 34.8833L27.2416 34.1541L27.5041 33.7166L27.9416 33.0458L28.1458 32.7833L28.3791 32.4916L28.7874 32.0541L29.1374 31.7041L29.5166 31.4124L29.8666 31.1208L30.3041 30.8291L30.8291 30.5374L31.3833 30.2458L31.9666 30.0124L32.6958 29.7791L33.5999 29.6041L34.3874 29.5166ZM34.5916 31.7041L33.9791 31.7624L33.2499 31.9083L32.4624 32.1708L31.9958 32.4041L31.4999 32.6666L31.1791 32.8999L30.7708 33.2499L30.3916 33.5999L29.9249 34.0958L29.5749 34.5624L29.3999 34.8249L28.9624 35.6999L28.6708 36.5458L28.4666 37.3624L28.4083 37.8291L28.3791 38.3833L28.4374 39.0249L28.5833 39.7249L28.7583 40.3083L28.9624 40.8624L29.2833 41.5333L29.5749 41.9999L29.8666 42.3791L30.1874 42.7583L30.5666 43.1374L31.0624 43.5166L31.4999 43.8083L32.1124 44.1583L32.6666 44.3916L33.1041 44.5374L33.7749 44.6833L34.5333 44.7999L35.0874 44.8291L35.6708 44.7708L36.4874 44.6249L37.0999 44.4499L37.7416 44.1874L38.2083 43.9541L38.6458 43.6916L39.0541 43.3999L39.4916 43.0208L39.8708 42.6416L40.1333 42.3208L40.4249 41.9416L40.6291 41.6208L41.0374 40.8041L41.2708 40.0749L41.4166 39.4041L41.4749 38.9666L41.5041 38.5291V38.0916L41.4458 37.3624L41.3291 36.6916L41.1541 36.1083L40.9499 35.5541L40.6583 34.9708L40.3958 34.5624L40.0166 34.0666L39.6958 33.7166L39.3458 33.3666L39.0249 33.1041L38.4999 32.7249L37.8291 32.3458L37.2749 32.1124L36.8374 31.9666L36.1083 31.7916L35.6416 31.7333L35.2333 31.7041H34.5916Z" fill="white"/>
<path d="M34.8541 3.2959H35.0874L35.4374 3.3834L35.6708 3.5584L35.9333 3.85007L36.2249 4.37507L36.5749 5.0459L37.0999 6.0959L37.4208 6.76673L37.7416 7.4084L38.0624 8.07923L38.5583 9.0709L38.8791 9.82923L39.0541 10.1209L39.2583 10.2084L40.9791 10.4417L43.6624 10.8209L45.8499 11.1709L46.2583 11.2584L46.5499 11.4042L46.6958 11.5209L46.8999 11.8126L47.0166 12.1042V12.5709L46.7833 12.9792L46.5791 13.1834L46.3749 13.4167L46.2583 13.5334H46.1999V13.5917H46.1416V13.6501H46.0833V13.7084H46.0249V13.7667L45.7916 13.9709L43.8958 15.8667L43.6916 16.0417L43.5458 16.2167L43.3124 16.4209L42.7874 16.9459L42.5541 17.1501L42.1749 17.5001L42.0583 17.6167H41.9999V17.6751L41.8541 17.8209L41.7083 18.0542L41.7374 18.4626L42.1458 20.8834L42.4083 22.3709L42.6708 23.9167L42.8458 24.8209L42.8749 25.2584L42.8166 25.5209L42.6416 25.7834L42.4083 26.0167L42.1166 26.2209L41.8833 26.3084L41.5916 26.2501L41.2416 26.1334L40.7749 25.9292L40.2208 25.6376L39.4916 25.2584L38.8499 24.9084L38.0916 24.5001L37.1583 24.0042L36.3416 23.5959L35.6999 23.2459L35.1166 22.9251L34.9416 22.8959L34.6499 23.0126L34.3291 23.2167L33.8624 23.4501L33.4249 23.6834L32.9583 23.9167L32.1416 24.3542L31.6749 24.6167L30.3041 25.3167L29.3124 25.8417L28.8166 26.0751L28.3208 26.2501L27.9416 26.2792L27.6208 26.0751L27.4749 25.9584V25.9001H27.4166L27.2124 25.6084L27.0666 25.3167L27.0958 24.9084L27.4166 23.1876L27.6499 21.7584L27.8833 20.4167L28.2041 18.6376L28.2916 18.1417L28.1166 17.8792L26.8333 16.5959L26.6291 16.4209L23.5666 13.3584L23.3624 13.1251L23.0416 12.7167L22.8958 12.4251V12.1626L23.0416 11.8126L23.1583 11.6376L23.3916 11.4042L23.6541 11.2876L24.4416 11.1417L26.1624 10.8501L27.5916 10.6459L29.1374 10.4126L30.5666 10.2376L30.8583 10.1501L31.0041 9.91673L31.2374 9.45006L31.5583 8.77923L32.1999 7.4959L32.5208 6.82506L32.9291 5.97923L33.4249 4.98757L33.7166 4.4334L34.1249 3.70423L34.4166 3.44173L34.7083 3.32507L34.8541 3.2959ZM34.9999 6.8834L34.8833 7.02923L34.6499 7.4959L34.3291 8.16673L34.0958 8.6334L33.5416 9.7709L33.1916 10.5001L32.8999 11.0542L32.6374 11.5501L32.4041 11.9584L32.2291 12.1042L31.8499 12.2209L30.6833 12.4251L28.1166 12.8042L26.4249 13.0376L26.3666 13.0959L26.6583 13.3876L26.9791 13.6501L27.5333 14.2042L27.7666 14.4084L28.0583 14.7001L28.2916 14.9042L28.5249 15.1376H28.5833L28.6124 15.2251L28.8458 15.4292L29.4583 16.0417H29.5166L29.5458 16.1292L29.7791 16.3334L29.9249 16.5084H29.9833L30.0416 16.6251L30.3041 16.8876L30.5374 17.2667L30.6249 17.5001V17.8501L30.4791 18.6084L30.3333 19.2792L30.1291 20.6501L29.9833 21.4376L29.7208 22.8376L29.6916 23.0709L29.8958 23.0417L30.3624 22.8084L31.0624 22.4292L31.6166 22.1376L33.2499 21.2917L34.1541 20.8251L34.5916 20.5917L34.7666 20.5334H34.9999L35.4666 20.6501L36.2541 21.0292L36.5458 21.2042L37.0999 21.4667L37.5666 21.7292L38.4124 22.1667L38.8791 22.4001L39.4333 22.6917L40.0166 23.0126L40.1916 23.1292H40.2499L40.1916 22.7501L39.9874 21.4376L39.6083 19.2501L39.3458 17.7042V17.4417L39.4916 17.1501L39.7249 16.8292L39.7833 16.7126H39.8416V16.6542H39.8999L40.0749 16.4501L40.3083 16.2459L40.9208 15.6334L41.1249 15.4584V15.4001L41.2416 15.3417L41.8249 14.7584L41.8833 14.7292V14.6709L41.9999 14.6126L42.2916 14.3209L42.5249 14.1167L42.9624 13.7084L43.4291 13.2417L43.4583 13.0667L43.0791 12.9792L40.9499 12.6876L39.5499 12.4834L38.0916 12.2501L37.7999 12.1334L37.5958 11.9584L37.3333 11.5501L36.9833 10.9084L36.3708 9.6834L36.0499 9.01256L35.5833 8.05006L35.2916 7.4084L35.0583 6.94173L34.9999 6.8834Z" fill="white"/>
<path d="M54.6584 12.0459H54.8625L55.1542 12.1334L55.3292 12.2501L55.5334 12.4542L55.7667 12.8334L56.5834 14.4084L56.9625 15.2251L57.75 16.8876L57.9834 17.3542L58.1292 17.5292L58.5084 17.6167L61.6 18.0542L63.4959 18.3459L63.875 18.4626L64.1375 18.6084L64.3417 18.8417L64.4875 19.1334L64.5167 19.2792V19.6876L64.4 19.9501L64.2834 20.1251L64.05 20.4167H63.9917L63.9334 20.5334L63.4667 21.0001L63.2334 21.2042L62.5625 21.8751L62.3292 22.0792L61.6584 22.7501L61.425 22.9542L61.1334 23.2459L60.9 23.4501L60.4042 23.9167L60.2875 24.0917L60.5792 26.1334L61.1625 29.4876L61.1917 29.8376L61.1042 30.2751L60.9 30.5084L60.375 30.8292L60.1125 30.9167L59.5875 30.7417L58.7417 30.3334L57.4 29.6042L56.4667 29.1084L55.825 28.7876L55.1834 28.4376L54.6875 28.1751L54.5709 28.1459L54.5125 28.2626L54.0167 28.4959L53.375 28.8459L52.5875 29.2542L52.0334 29.5459L51.2459 29.9542L50.7792 30.2167L50.3125 30.4501L49.7292 30.7126L49.2625 30.8584H48.9709L48.65 30.6542L48.4459 30.4501L48.2417 30.2167L48.1542 30.1001L48.125 29.9834V29.6042L48.475 27.7667L48.65 26.6292L49 24.6459L49.0584 24.1501L48.9417 23.9751L48.825 23.8584V23.8001L48.7084 23.7417L47.8625 22.8959L47.6292 22.6917L46.9 21.9626L46.6667 21.7584L45.1792 20.2709L44.975 19.9792L44.8292 19.6876L44.8 19.6001V19.2792L44.9167 18.9876L45.0625 18.7251L45.325 18.5209L45.6167 18.4042L46.0834 18.3167L46.9584 18.2001L48.475 17.9376L50.9834 17.6167L51.2167 17.5292L51.3625 17.2959L51.7709 16.5376L52.0917 15.8376L52.325 15.3709L52.6459 14.7001L52.9084 14.1167L53.2 13.5626L53.4334 13.0667L53.725 12.5709L53.9875 12.2792L54.2792 12.1042L54.6584 12.0459ZM54.6584 15.6626L54.5125 15.8959L54.0459 16.8292L53.4042 18.1709L53.0834 18.7542L52.8792 19.1626L52.675 19.4542L52.5 19.5417L51.275 19.7751L50.4 19.9209L49.2334 20.0667L48.3292 20.1542L48.3584 20.2709L48.6209 20.5626L49.5834 21.5251L49.8167 21.7292L50.1084 21.9917L50.6042 22.4584L50.9542 22.8084L51.2459 23.1876L51.3625 23.4501V23.9167L51.2167 24.9959L51.0125 26.1042L50.8375 27.0376L50.7209 27.6792L51.0125 27.5917L51.5959 27.3001L52.2667 26.9209L53.025 26.5417L53.6959 26.1626L54.3375 25.8417L54.5125 25.7834L54.775 25.8126L55.2125 25.9584L56.1459 26.4251L56.9334 26.8334L57.8959 27.3584L58.4792 27.6792H58.5667L58.5959 27.7376L58.5375 27.3292L58.3334 26.1626L58.0709 24.5876L57.9834 23.8584L57.9542 23.4792L58.0709 23.1876L58.3334 22.8376L58.5375 22.6334L58.7709 22.4292L59.2375 21.9917L59.6167 21.6417L60.1417 21.1167L60.2 21.0876V21.0292L60.3167 20.9709L60.9584 20.3292L60.9875 20.2126L60.9584 20.1834L59.6459 20.0376L57.925 19.7751L56.9917 19.6001L56.7292 19.4542L56.4959 19.1626L56.175 18.6376L55.8542 17.9959L55.5334 17.3251L55.0959 16.3917L54.9209 15.9542L54.8334 15.8376H54.775L54.7459 15.7501H54.6875L54.6584 15.6626Z" fill="white"/>
<path d="M15.1374 12.0459H15.5166L15.8083 12.1334L15.9833 12.2501L16.2458 12.6001L16.4499 12.9209L16.6249 13.2417L17.1499 14.2917L17.4124 14.8751L17.6458 15.3417L18.0833 16.2459L18.4041 16.9167L18.6374 17.3834L18.7249 17.5292L19.0749 17.6167L22.6041 18.1126L24.2083 18.3459L24.5291 18.4626L24.7041 18.5792L24.9083 18.7834L25.0833 19.0167L25.1708 19.3084V19.7167L24.9374 20.0667L24.5583 20.5042L24.3833 20.7084H24.3249V20.7667L24.0916 20.9709L23.3624 21.7001L23.1291 21.9042L22.0499 22.9834L21.8166 23.1876L21.3499 23.6251L21.0874 23.8584H21.0291L20.9416 24.0334V24.3251L21.1166 25.6084L21.3499 26.9209L21.5249 28.0001L21.7874 29.2251L21.8166 29.4584V30.0126L21.6416 30.3334L21.2916 30.6834L21.1166 30.8001L20.7958 30.8876L20.4166 30.8001L19.8041 30.5376L18.8124 30.0417L18.1708 29.6917L17.3249 29.2542L16.6833 28.9042L15.5749 28.3209L15.3708 28.2334H15.2833L15.2541 28.2917H15.1958L15.1666 28.2042L14.7583 28.4084L14.2916 28.7001L13.8249 28.9334L13.1249 29.3126L12.5416 29.6042L11.9874 29.8959L10.8499 30.4792L10.3541 30.7126L9.9166 30.8292H9.68327L9.3041 30.6834L9.0416 30.4792L8.83743 30.2167L8.7791 30.0417V29.6334L8.89577 28.8459L9.18743 27.1834L9.42077 25.8126L9.59577 24.7334L9.68327 24.2959V24.1501L9.4791 23.8876L8.02077 22.4292L7.78743 22.2251L7.40827 21.8459L7.34993 21.8167V21.7584H7.2916V21.7001L7.17493 21.6417L5.92077 20.3876L5.6291 20.0084L5.48327 19.7167L5.4541 19.6001V19.2501L5.59993 18.8417L5.74577 18.6376L6.1541 18.4334L6.56243 18.3459L7.87493 18.1417L9.1291 17.9376L11.3749 17.6459L11.7541 17.5584L11.8999 17.4417L12.2499 16.7709L12.7749 15.7209L13.1833 14.8751L13.8249 13.5334L14.1166 12.9792L14.3499 12.5709L14.5249 12.3376L14.8166 12.1334L15.1374 12.0459ZM15.2249 15.7501L15.0791 15.8959L14.7583 16.6542L14.3499 17.5001L13.7374 18.7251L13.3583 19.3959L13.2708 19.4834L12.7166 19.6292L11.0249 19.9209L9.44993 20.1251L8.9541 20.1542L8.92493 20.2709L9.50827 20.8542L9.7416 21.0584L9.94577 21.2626L10.1791 21.4667L10.4416 21.7292L10.6749 21.9334L10.8791 22.1376L11.1708 22.3709L11.2583 22.4876H11.3166L11.3749 22.6042H11.4333L11.4916 22.7209L11.7541 23.0126L11.9583 23.3626L11.9874 23.5084V24.0042L11.8708 24.8792L11.5499 26.5417L11.3458 27.5334L11.3166 27.6792L11.5791 27.5917L11.9291 27.4459L12.4833 27.1542L13.2416 26.7459L14.0874 26.3084L14.7874 25.9292L15.0499 25.8126L15.3124 25.7834L15.7499 25.9292L17.2666 26.6876L17.8208 26.9792L18.6083 27.4167L19.0166 27.6209L19.1624 27.7376L19.2208 27.7084L19.1333 27.2126L18.7833 25.1417L18.6083 23.9751L18.5791 23.5376L18.6666 23.2751L18.8999 22.9542L19.1916 22.6626V22.6042H19.2499V22.5459H19.3083V22.4876H19.3666V22.4292L19.4833 22.3709L20.0374 21.8167L20.2708 21.6126L20.7083 21.1751L20.9416 20.9709L21.3499 20.5626V20.5042H21.4083L21.5541 20.3001L21.5249 20.2126L21.1749 20.1251L20.3291 20.0376L18.8416 19.8334L17.6166 19.6001L17.3833 19.4834L17.0916 19.1334L16.8291 18.6959L16.5083 18.0251L15.9833 16.9459L15.6916 16.3334L15.4291 15.8667L15.3416 15.7792L15.2249 15.7501Z" fill="white"/>
<path d="M34.7083 64.5459H35.2333L35.5249 64.6626L35.7874 64.8667L35.9916 65.1001L36.1083 65.3917V65.6542L36.0208 65.9459L35.8166 66.2667L35.6124 66.5001L35.3499 66.6459L35.1458 66.7042L34.8541 66.6751L34.4749 66.5584L34.2416 66.3834V66.3251H34.1833L34.0083 66.0626L33.8624 65.7709L33.8333 65.5667L33.9499 65.1876L34.0958 64.9251L34.3291 64.7209L34.6208 64.5751L34.7083 64.5459Z" fill="white"/>
</svg>
