<svg width="70" height="70" viewBox="0 0 70 70" fill="none" xmlns="http://www.w3.org/2000/svg">
<g clip-path="url(#clip0_500_319)">
<path d="M34.0083 11.3167H35.875L36.9833 11.4042L37.9167 11.55L38.9667 11.8125L40.0167 12.1625L40.9208 12.5417L42.0292 13.0958L42.8167 13.5625L43.3708 13.9417L43.925 14.35L44.4208 14.7583L44.7417 15.05L44.975 15.2542L45.6458 15.925L45.85 16.1583L46.2 16.5375L46.9583 17.5292L47.3667 18.1417L47.6875 18.6958L47.95 19.1625L48.3292 19.9792L48.6792 20.825L48.9125 21.525L49.2042 22.575L49.35 23.275L49.4667 24.2667L49.5542 25.2583L49.5833 26.25V39.3167L49.525 40.0458L49.4083 40.5417L49.2625 40.9208L49 41.3583L48.65 41.825L48.3292 42.1458L48.0375 42.35L47.5417 42.6125L47.0167 42.7875L46.375 42.875L44.0708 42.9042L43.8667 42.9625V43.0208L43.7208 43.1667L43.4 43.5167L43.1667 43.8083H43.1083V43.8667L42.9917 43.9833H42.9333L42.875 44.1L42.6417 44.3333L42.4083 44.5375L42.1167 44.8L41.7083 45.1208L41.125 45.5292L40.6583 45.8792L40.4833 46.0833L40.4542 46.2292L40.6292 46.375L40.8917 46.4625L42.3208 46.7542L44.3042 47.1042L46.025 47.425L47.8333 47.7458L48.6792 47.95L49.175 48.0958L49.9917 48.4167L50.7792 48.825L51.3042 49.175L51.7708 49.525L52.2083 49.9042L52.5 50.1958L52.7042 50.4292L52.9667 50.7792L53.4042 51.45L53.6667 51.9167L53.9292 52.4708L54.25 53.2583L54.5417 54.1042L54.9208 55.2708L56.4083 59.7333L56.6708 60.4625L56.8167 60.8708L56.7292 60.9292L56.35 60.9583H32.9583L32.6375 60.9292L32.6667 61.0167L33.0167 61.3667L33.1917 61.5708L33.425 61.775L33.6292 61.9792L33.8625 62.1833L34.0667 62.3875L34.2125 62.6208L34.2417 62.7375L33.9792 63L33.5708 63.3208L33.1042 63.7583L32.6958 64.1083L32.4625 64.3417L32.2292 64.5458L31.9083 64.8667L31.675 65.0708L31.3833 65.3625L31.15 65.5667L30.6542 66.0333L30.3625 66.2958L30.275 66.3833H30.2167V66.4417H30.1583V66.5L29.925 66.7042L29.6333 66.9667L29.3708 67.2L29.1375 67.4042L28.8458 67.6667L28.4375 67.9875L28.1458 68.25L27.7958 68.5125L27.1833 68.9208L26.4833 69.3L25.7542 69.5917L24.5875 69.9708L24.5583 70H21.6125L21.5833 69.9417L21.6125 69.8542L21.2625 69.7667L20.3583 69.4458L19.7458 69.1833L19.2792 68.95L18.8417 68.6875L18.4917 68.425L18.1125 68.1042L17.7042 67.7542L17.2083 67.2875L15.5167 65.5958L15.3417 65.45L15.1958 65.3042L15.1667 65.2167L15.05 65.1583L14.9333 65.0417V64.9833L14.8167 64.925V64.8667L14.7 64.8083V64.75L14.6125 64.7208L14.4667 64.5458L14.2917 64.4L14.1167 64.1958L10.5 60.5792L10.325 60.4333L10.1208 60.2L9.56667 59.6458L9.39167 59.5L9.1875 59.2667L2.625 52.7042L2.42083 52.4708L2.15833 52.2083L1.89583 51.8875L1.6625 51.5958L1.34167 51.1583L0.991667 50.575L0.641667 49.8458L0.4375 49.3208L0.204167 48.5333L0.0583333 47.9792L0 47.9208V45.4417L0.0291667 45.5583H0.0875L0.204167 45.0917L0.4375 44.3625L0.6125 43.8958L0.9625 43.1375L1.28333 42.6125L1.575 42.175L1.80833 41.8542L2.04167 41.5917L2.24583 41.3583L2.59583 40.9792L6.15417 37.4208L6.35833 37.1875L6.475 37.0708H6.53333L6.59167 36.9542L6.76667 36.8083L6.9125 36.6625L7.05833 36.4875H7.11667L7.175 36.3708L7.35 36.1958L7.46667 36.225L7.75833 36.4875L8.98333 37.7125L9.1875 37.9458L9.56667 38.2958L9.74167 38.5L9.975 38.7042L10.0917 38.85L10.325 39.0542L13.125 41.8542V41.9125H13.1833L13.3875 42.1458L14 42.7583L14.2333 42.9625L15.4583 44.1875L15.75 44.4208L15.8083 44.5375L15.6042 44.8L15.3708 45.0042L13.9125 46.4625L13.7083 46.6958L11.8125 48.5917L11.6083 48.7667L11.3458 49.0875L11.1417 49.3792L10.9958 49.7583L11.0542 50.05L11.2583 50.4583L11.55 50.7792L11.7542 51.0125L12.2208 51.45L12.25 51.5375L12.3667 51.5958L13.1833 52.4125V52.4708L13.3 52.5292L14.2625 53.4917L14.4667 53.6667L14.6708 53.9L15.1083 54.3083L15.1958 54.3375L15.3708 53.7542L15.5458 53.2875L15.925 52.325L16.2167 51.7708L16.45 51.3917L16.7708 50.925L17.0917 50.4875L17.6167 49.875L17.85 49.6708L18.1125 49.4375L18.5792 49.0875L19.1625 48.7375L19.8333 48.3875L20.5042 48.125L21.35 47.8917L22.1667 47.7167L23.7125 47.425L24.8208 47.2208L26.2792 46.9583L28.2333 46.6083L29.1083 46.4333L29.3708 46.3167L29.3417 46.2L29.1375 45.9667L28.7583 45.6458L28.2625 45.2667L27.8542 44.9458L27.5333 44.6542L27.3 44.45L26.4833 43.6333L26.2792 43.4L25.9 42.9333L25.5208 42.4083L25.1708 41.8542L24.7917 41.1542L24.325 40.1042L24.0042 39.2L23.7708 38.3542L23.6542 38.2375L23.1583 38.1208L22.6333 37.8875L22.225 37.625L21.9042 37.3625L21.2917 36.75L20.9417 36.2833L20.5917 35.6708L20.4167 35.2333L20.2708 34.7083L20.2125 34.3L20.1833 33.8625V27.125L20.2125 25.1417L20.2708 24.2958L20.3583 23.7417L20.5917 22.6042L20.7667 21.9042L21.1167 20.8542L21.4667 20.0083L21.8167 19.2792L22.0792 18.7833L22.4 18.2583L22.8083 17.6167L23.1292 17.1792L23.1583 17.1208H23.2167L23.275 16.975L23.5375 16.6542L23.9458 16.1583L24.3542 15.7208L25.1708 14.9042L25.9 14.3208L26.4542 13.9125L26.8042 13.6792L27.125 13.475L27.7083 13.125L28.525 12.6875L29.1667 12.3958L30.1583 12.0167L30.9167 11.7833L31.7625 11.5792L32.6375 11.4333L33.4833 11.3458L34.0083 11.3167ZM34.6208 13.5042L33.6583 13.5625L32.9583 13.65L31.8792 13.8833L31.2375 14.0583L30.3042 14.3792L29.7208 14.6417L29.225 14.875L28.6708 15.1958L27.9708 15.6333L27.5042 15.9833L27.125 16.275L26.3667 16.9167L25.8417 17.4417L25.5792 17.7625L25.2583 18.1417L24.9958 18.4917L24.675 18.9L24.4708 19.2208L24.2375 19.6L23.9458 20.125L23.7125 20.5917L23.3917 21.2917L23.1292 21.9917L22.8667 22.8083L22.7208 23.5083L22.6042 24.3542L22.5167 25.2583L22.4875 25.725L22.4583 28.8458V29.7208L22.4875 29.8375L22.8375 29.8083L23.1292 29.7208L23.3917 29.575L23.5667 29.3417L23.625 29.1958L23.5958 28.8167L23.5667 28.35V28.2042H25.375L26.2792 28.1167L27.125 27.9708L27.8833 27.7958L28.5833 27.5917L29.4 27.3L30.2458 26.9208L30.9458 26.5417L31.6458 26.1042L32.1708 25.725L32.55 25.4333L32.9292 25.1125L33.25 24.85L33.4833 24.6167L33.7167 24.4125L34.4167 23.7125V23.6542L34.5042 23.625L34.7375 23.3333L34.7958 23.275L34.9417 23.3042L35.2333 23.5667L35.5542 23.8875L35.7583 24.1208L35.875 24.2375H35.9333V24.2958L36.1667 24.5L36.4583 24.7917L36.6917 24.9958L37.1 25.3458L37.5083 25.6667L37.9458 25.9875L38.5292 26.3667L39.2 26.7458L39.7542 27.0375L40.6 27.3875L41.2417 27.6208L42 27.825L43.225 28.0583L44.1875 28.175L45.15 28.2333L45.5875 28.2042H46.0542L46.1417 28.4958L46.2 29.1958L46.2875 29.5167L46.375 29.6042L46.8708 29.75L47.3083 29.8083V28.6125L47.2792 25.2292L47.2208 24.325L47.0458 23.3333L46.8417 22.5167L46.55 21.6417L46.2 20.825L45.8208 20.0667L45.4125 19.3667L45.0333 18.7833L44.5667 18.1708L44.1875 17.7333L43.7792 17.2958L43.225 16.7417L42.9917 16.5375L42.525 16.1583L42 15.7792L41.3292 15.3417L40.7167 14.9917L40.2792 14.7583L39.3458 14.35L38.4417 14.0292L37.6542 13.825L36.8958 13.6792L35.9917 13.5625L35.0875 13.5042H34.6208ZM34.8833 26.5125L34.65 26.6292L34.3 26.95L33.8917 27.2708L33.5125 27.5625L33.0167 27.9125L32.4625 28.2625L31.8208 28.6417L31.0333 29.05L30.5083 29.2833L29.6625 29.6042L28.9042 29.8375L27.8542 30.1L26.6583 30.3042L25.9292 30.4208L25.8708 30.45V36.2833L25.9 36.9833L25.9875 37.6833L26.1333 38.3542L26.3083 38.9083L26.6 39.6667L26.8333 40.1917L27.2125 40.8625L27.5625 41.3875L27.8542 41.7667L28.175 42.1458L28.8167 42.7875L29.1375 43.05L29.6042 43.4292L30.0417 43.7208L30.7417 44.1292L31.3833 44.4208L31.9958 44.6542L32.8125 44.8875L33.3958 45.0042L34.1833 45.0917H35.6125L36.6042 44.975L37.275 44.8292L37.8875 44.625L38.3542 44.45L39.375 43.9542L39.9875 43.575L40.3958 43.2833L40.6875 43.0208L40.7167 42.9333L40.6875 42.9042L38.675 42.875H34.9125V40.6H42.525L42.7875 40.5125L42.9333 40.3375L43.225 39.6375L43.4 39.1708L43.6333 38.3542L43.75 37.7708L43.8375 37.1292L43.8667 36.7208L43.8958 35.7292V30.45L43.7208 30.3917L42.4083 30.2167L41.7375 30.1L41.1542 29.9542L40.3958 29.7208L39.8125 29.5167L39.0542 29.1958L38.5292 28.9625L37.975 28.6708L37.2167 28.2333L36.6042 27.825L36.2542 27.5625L35.7875 27.1833L35.3792 26.8333L35.175 26.6292L35.0583 26.5417L34.8833 26.5125ZM46.1708 31.9375L46.2 32.5792V32.9292L46.1708 33.5708V35.6708L46.2292 35.7292L46.5208 35.6125L46.6667 35.4958L46.9583 35.0583L47.1333 34.7667L47.25 34.3875L47.3375 33.9208V33.6583L47.25 33.1917L47.1042 32.8417L46.7542 32.3458L46.5792 32.1417L46.3167 31.9667L46.1708 31.9375ZM23.5083 31.9958L23.2458 32.1708L23.0417 32.375L22.75 32.8417L22.575 33.2208L22.4875 33.6875V34.1833L22.575 34.5333L22.8083 35L23.0417 35.3208L23.4792 35.7292L23.5667 35.7583V32.8708L23.625 32.4042V31.9958H23.5375H23.5083ZM47.25 37.8875L46.3167 38.1792L45.9958 38.2667L45.9083 38.3542L45.7917 38.9958L45.4708 39.9583L45.2667 40.5125V40.5708L45.5583 40.6H46.2875L46.5792 40.5417L46.8708 40.3958L47.0167 40.2792L47.1625 40.0458L47.25 39.6958L47.3083 39.2L47.3375 38.2958L47.3667 38.15V37.8875H47.25ZM7.29167 39.5208L7.14583 39.6083L6.7375 40.075L6.44583 40.3375L6.3 40.5125L6.2125 40.6583L6.3 40.7167L6.32917 40.775H6.3875L6.44583 40.8917L6.7375 41.1542L6.88333 41.2708L6.94167 41.3583H7L7.05833 41.475H7.11667L7.175 41.5917H7.23333L7.29167 41.7083L8.575 42.9917H8.63333L8.69167 43.1083L11.1708 45.5875L11.3458 45.7042L11.4625 45.675L11.6375 45.5292L11.8417 45.2667L12.075 45.0625L12.3667 44.8L12.5708 44.5667L12.5125 44.45L12.425 44.4208L12.3958 44.3333L12.075 44.0708L7.84583 39.8417L7.81667 39.7833H7.75833L7.7 39.6667L7.525 39.55L7.29167 39.5208ZM4.49167 42.3208L4.22917 42.525L3.96667 42.8458L3.675 43.1375L3.44167 43.4583L3.17917 43.8667L2.8 44.5958L2.50833 45.4708L2.3625 46.2L2.33333 46.4042V47.3667L2.47917 48.0958L2.7125 48.8542L2.91667 49.3208L3.20833 49.8458L3.5 50.2542L3.7625 50.575L4.17083 51.0125L4.52083 51.3625L4.725 51.5958L5.36667 52.2375L5.6 52.4417L6.0375 52.8792L6.18333 53.0542L6.41667 53.2583L7.64167 54.4833L7.875 54.6875L8.19583 55.0375L11.3458 58.1875L11.5792 58.3917L11.725 58.5667H11.7833L11.8125 58.6542L12.0167 58.8292L12.2208 59.0625L14.3792 61.2208L14.4083 61.2792H14.4667L14.525 61.3958L14.875 61.7167L15.575 62.4167L15.8083 62.6208L16.3042 63.1167L16.5083 63.35L17.0042 63.8458L17.2083 64.0792L18.9583 65.8292L19.1917 66.0333L19.4833 66.2958L19.8625 66.5875L20.3 66.8792L21.0875 67.2875L21.7292 67.5208L22.3125 67.6375L22.7792 67.6958H23.625L24.2667 67.6083L24.7625 67.4917L25.3167 67.2875L25.8417 67.0542L26.4833 66.6458L26.8917 66.325L27.2708 66.0042L27.6792 65.6542L27.7958 65.5667L27.825 65.4208L27.475 65.1H27.4167L27.3583 64.9833L23.4792 61.1042L23.4208 61.0167H23.3625L23.3042 60.9L22.9833 60.5792L22.8083 60.4333H22.75L22.6917 60.3167L22.5458 60.375L22.1083 60.725L21.7 60.9583L20.8833 61.2208L20.3875 61.3083H19.95L19.3958 61.2208L18.9583 61.075L18.4625 60.8125L17.9667 60.4333L17.5292 60.025L17.0042 59.5H16.9458L16.8875 59.3833L11.0542 53.55H10.9958L10.9375 53.4333L10.7042 53.2292L10.2958 52.8208L10.2375 52.7333H10.1792L10.1208 52.6167L9.77083 52.2667L9.50833 51.9458L9.275 51.625L8.98333 51.1L8.8375 50.6625L8.75 50.1667L8.72083 49.6125L8.80833 49.0875L8.925 48.7083L9.1875 48.1542L9.5375 47.6583L9.74167 47.3958L9.65417 47.25L9.1875 46.7833H9.12917L9.07083 46.6667L8.8375 46.4625L8.51667 46.1125L7.0875 44.6833H7.02917L6.97083 44.5667L6.85417 44.45H6.79583L6.7375 44.3333L6.50417 44.1292L6.27083 43.8667L6.0375 43.6625L5.1625 42.7875L4.95833 42.5542L4.725 42.35L4.49167 42.3208ZM31.6458 46.9875L31.6167 47.0458L31.7917 47.2792L32.0833 47.5708L32.4042 47.8333L33.2792 48.7083L33.5125 48.9125L34.4167 49.8167L34.65 50.1375L34.7958 50.225H34.9417L35.3208 49.8458L35.7 49.4958L35.9333 49.2917L36.1375 49.0583L37.1292 48.0667L37.3625 47.8625L37.5667 47.6583L37.8875 47.3958L38.1792 47.1042L38.2375 46.9875L37.975 47.0167L37.275 47.1625L36.3417 47.3083L35.5542 47.3667L34.7667 47.3958L33.7458 47.3375L32.9583 47.25L32.0542 47.075L31.7333 46.9875H31.6458ZM29.8083 48.6208L29.1667 48.7667L27.5625 49.0292L25.8417 49.35L24.3542 49.6125L22.4292 49.9625L21.6125 50.1667L20.825 50.4292L20.4167 50.6333L19.8625 50.9833L19.4833 51.275L19.1917 51.5375L18.9 51.8292L18.6083 52.2083L18.3167 52.675L18.0833 53.0833L17.8792 53.55L17.6167 54.2792L17.0917 55.8542L16.975 56.0583L17.0042 56.2042L17.1208 56.4083L18.025 57.3125H18.0833L18.1417 57.4292L18.4333 57.7208L18.6667 57.925L18.8417 58.1292L19.075 58.3333L19.3375 58.625L19.775 58.9167L20.1833 59.0625L20.5333 58.975L21.1458 58.5958L21.2917 58.4792V58.4208L21.4083 58.3625L21.6417 58.1583L21.9917 57.8083L22.225 57.6042L22.6625 57.225L23.0708 56.8458L23.3917 56.5833L23.5958 56.3792L23.8292 56.175L24.15 55.8833L24.3833 55.6792L24.675 55.4167L24.9083 55.2125L25.375 54.775L25.5792 54.5417L25.725 54.425V54.3667L25.9 54.3375L26.1917 54.5708L27.7375 56.1167L27.825 56.2333H27.8833L27.9125 56.3208L28.1458 56.525L30.1 58.4792L30.3625 58.6542L30.4792 58.6833H53.5792L53.6083 58.5667L53.3167 57.7208L52.7625 56.0292L52.4125 54.9208L52.0333 53.8417L51.7417 53.1417L51.3917 52.5L51.0708 52.0333L50.7792 51.6833L50.5458 51.4792L50.2542 51.2167L49.875 50.9542L49.4958 50.7208L49.0583 50.4875L48.6208 50.3125L48.0375 50.1375L46.8417 49.875L45.1792 49.5833L43.8083 49.3208L42.7875 49.1458L41.7083 48.9417L40.6583 48.7667L39.9875 48.6208H39.7833L39.3167 49.0875L39.2 49.175V49.2333L39.1125 49.2625L38.9083 49.4958L38.2958 50.1083V50.1667L38.1792 50.225L38.0625 50.3708L37.7708 50.6625L37.4792 50.925V50.9833L37.3625 51.0417L37.1583 51.275L36.5167 51.9167L36.4292 51.975V52.0333L36.3125 52.0917L36.1958 52.2375L35.9625 52.4417L35.6708 52.7625L35.6125 52.7917V52.85L35.4958 52.9083L35.1167 53.2875L34.8833 53.4625L34.7375 53.3458L34.5333 53.1125L33.9208 52.5H33.8625L33.8042 52.3833L33.3667 51.975L31.1792 49.7875L30.975 49.5542L30.0708 48.65L30.0125 48.6208H29.8083ZM25.7833 57.4583L25.6083 57.575L25.4042 57.8083L25.1708 58.0125L24.8792 58.3042L24.5292 58.5667L24.4125 58.6833L24.4708 58.8583L24.675 59.0917L29.4292 63.8458L29.6042 63.875L29.8375 63.7L30.0125 63.4958L30.3333 63.2333L30.7125 62.8833L30.8583 62.7375L30.9458 62.5333L25.9292 57.5167L25.7833 57.4583Z" fill="white"/>
<path d="M49.6999 0H68.0166L67.9582 0.0291667L67.9291 0.0875H67.5499L68.0166 0.320833L68.4832 0.6125L68.7749 0.845833L69.0082 1.05V1.10833H69.0666L69.3291 1.42917L69.5624 1.8375L69.7666 2.24583L69.8832 2.45H69.9416V2.5375H69.8832L69.9416 2.8L69.9999 2.77083V13.5625L69.9124 13.5333V13.3583L69.8249 13.3292L69.5332 13.9708L69.2707 14.3792L68.9499 14.7583L68.5124 15.1667L68.1041 15.4L67.8124 15.5458L67.3749 15.6917L66.7916 15.7792L66.3249 15.8083L63.6999 15.8375L63.2916 15.8958L62.5916 16.3625L62.0957 16.6542L61.4832 17.0333L60.8416 17.4417L60.3166 17.7625L59.7624 18.1125L59.3832 18.3458L57.9832 19.2208L57.4291 19.5708L56.9916 19.8333L56.4082 20.2125L55.8541 20.5625L55.3291 20.8833L54.7166 21.2625L54.1332 21.6125L53.4624 22.05L52.8791 22.4L52.6749 22.4875H52.5291L52.5582 22.2833L52.6457 21.9333L52.8207 20.9125L52.9957 19.8042L53.1707 18.8125L53.3749 17.5292L53.6082 16.2458L53.6666 15.8083H50.3124L49.8166 15.7208L49.2041 15.4875L48.8249 15.2542L48.4457 14.9333L48.1832 14.6708L47.8624 14.2333L47.6291 13.8542L47.4541 13.4458L47.3374 13.0667L47.2791 12.6V3.38333L47.3082 2.8875L47.4249 2.42083L47.5707 2.07083L47.6874 1.77917L47.8916 1.4L48.1832 1.07917L48.3291 0.933333L48.6207 0.670833L49.0291 0.408333L49.5541 0.116667L49.6999 0.0583333V0ZM50.9541 2.24583L50.3707 2.275L50.1082 2.33333L49.8749 2.50833L49.6707 2.91667L49.6416 3.03333L49.6124 3.4125L49.5832 5.3375V12.25L49.6416 12.775L49.7582 13.0667L49.9332 13.3292L50.1666 13.4458L50.5457 13.5042L56.3207 13.5333L56.3791 13.5625L56.3499 13.8833L56.1457 15.1083L55.9707 16.0708L55.7957 17.0917L55.6499 17.7917V17.9083L55.7957 17.8792L56.3207 17.5875L56.7582 17.2958L57.5457 16.8292L59.3832 15.6625L59.8791 15.3417L60.6957 14.8167L61.7457 14.175L62.3291 13.825L62.7374 13.5917L63.1457 13.5333L66.3541 13.5042L66.9666 13.4458L67.1999 13.3292L67.3457 13.1833L67.5207 12.9208L67.5791 12.6583L67.6082 12.1042V10.7917L67.5791 3.17917L67.4916 2.82917L67.3166 2.50833L67.1707 2.3625L66.9374 2.30417L66.6457 2.275L65.5374 2.24583H50.9541ZM69.8832 13.2125L69.8541 13.3L69.9416 13.2708V13.2125H69.8832Z" fill="white"/>
<path d="M34.0958 3.3833H35.6708L37.0708 3.44163L38.4417 3.5583L39.375 3.67497L41.0375 3.93747L42.1458 4.1708L43.2833 4.46247L44.0708 4.72497L44.2458 4.84163L44.2167 5.07497L43.8958 5.94997L43.75 6.6208L43.6625 6.91247L43.4292 6.8833L42.8167 6.7083L42.0583 6.50413L39.8708 6.06663L38.8792 5.9208L37.6542 5.77497L36.7208 5.68747L35.2917 5.62913H34.1542L32.8417 5.68747L31.7042 5.80413L30.1875 6.0083L29.3417 6.15413L28.1458 6.41663L27.2125 6.64997L25.9583 7.02913L24.7042 7.46663L23.8875 7.78747L23.1875 8.07913L22.1667 8.5458L21.35 8.95413L20.8833 9.21663L20.5333 9.39163L20.0375 9.6833L19.4542 10.0333L18.8708 10.4125L18.2583 10.8208L17.7917 11.1708L17.2375 11.5791L16.8583 11.8708L16.3917 12.25L16.0708 12.5125L15.7792 12.7458L15.6333 12.8916H15.575V12.95L15.2833 13.1833L15.05 13.4166L14.7583 13.65L14.2333 14.175H14.175L14.1167 14.2916L13.65 14.7583L13.4458 14.9916L13.125 15.3416L12.8625 15.6625L12.5125 16.0708L12.3083 16.3333H12.25L12.1917 16.45L11.9292 16.7708L11.6375 17.1208L11.4042 17.4416L11.1125 17.85L10.7917 18.2875L10.4708 18.7541L10.15 19.25L9.8 19.8333L9.39167 20.5333L9.0125 21.2333L8.34167 22.575L7.90417 23.5666L7.58333 24.4125L7.29167 25.2291L7.02917 25.9583L6.825 26.6L6.53333 27.475L6.475 27.7083V27.825L6.79583 27.7083L7.20417 27.4458L7.81667 27.0666L8.42917 26.7166L8.95417 26.425L9.39167 26.1625H9.56667L9.68333 26.3083L9.85833 26.6583L9.975 26.95L10.2958 27.475L10.5875 27.8833L10.6167 28L10.2375 28.2916L9.33333 28.8458L8.77917 29.1666L8.225 29.5166L7.58333 29.8958L7.11667 30.1875L6.41667 30.5958L5.6875 31.0333L4.92917 31.5L4.25833 31.85L4.08333 31.9666L3.96667 31.9375L3.52917 31.2083L3.03333 30.3625L2.8 29.9833L2.15833 28.9333L1.89583 28.4958L1.42917 27.7083L1.1375 27.2125L0.875 26.775L0.466667 26.075L0.116667 25.4916L0 25.375V25.2875L0.6125 25.0541L1.10833 24.7916L1.51667 24.5291L1.8375 24.2958L2.0125 24.2666L2.15833 24.3833L2.50833 25.0541L2.85833 25.6083L3.2375 26.2208L3.5875 26.8041L3.70417 27.0375L3.90833 27.475L4.05417 27.6208L4.17083 27.5041L4.34583 26.775L4.60833 25.9583L4.9 24.9958L5.10417 24.4416L5.3375 23.7708L5.6875 22.8958L5.89167 22.4L6.09583 21.9625L6.44583 21.2333L6.79583 20.5333L7.14583 19.8916L7.37917 19.4541L7.72917 18.8416L7.9625 18.4625L8.4 17.7625L8.6625 17.3541L8.86667 17.0625L9.24583 16.5083L9.94583 15.575L10.1792 15.2833L10.5 14.875L10.7333 14.6125L10.9958 14.2916L11.2875 13.9708L11.4917 13.7375L11.8708 13.3291L12.075 13.0958L12.2792 12.8916L12.4833 12.6583L13.0375 12.1041L13.2708 11.9L13.4167 11.7541H13.475V11.6958L13.7958 11.4333L14 11.2291L14.2333 11.025L14.6125 10.7041L14.9333 10.4416L15.3708 10.0916L15.8375 9.74163L16.3333 9.36247L16.8875 8.9833L17.2667 8.7208L17.85 8.34163L18.55 7.90413L19.0458 7.61247L19.4833 7.34997L20.8542 6.6208L21.525 6.29997L22.4 5.89163L23.1875 5.5708L24.2083 5.19163L25.2292 4.84163L26.425 4.49163L27.475 4.22913L28.6708 3.96663L29.8375 3.76247L31.0333 3.58747L32.2 3.4708L33.2208 3.41247L34.0958 3.3833Z" fill="white"/>
<path d="M62.7376 21.0291L62.9126 21.0874L63.3501 21.3499L63.9918 21.7291L64.4293 21.9916L65.6251 22.6916L66.3834 23.1582L66.9376 23.5082L67.7834 24.0041L68.2501 24.2957L68.8334 24.6457L69.0959 24.8207L69.2418 24.9666L69.2126 25.1707L69.0376 25.5207L68.5709 26.2791L68.3959 26.6874L68.2501 26.8916L67.9876 26.8041L67.5209 26.5124L66.7043 26.0749L66.0043 25.6666L65.4793 25.3457L64.9834 25.0541H64.9543L65.1001 25.5791L65.3334 26.2791L65.5959 27.2999L65.9751 29.1082L66.1501 30.1874L66.3543 31.8207L66.4709 33.3666L66.5001 34.0957V36.0499L66.4418 37.1874L66.3251 38.3541L66.1209 39.9582L65.9751 40.7749L65.6543 42.3207L65.3918 43.3416L65.0418 44.5374L64.5751 45.9082L64.3126 46.6082L64.0209 47.3082L63.7584 47.9499L63.5251 48.4166L63.1751 49.1457L62.8543 49.7874L62.4751 50.4582L62.1834 50.9832L61.9793 51.3041L61.8043 51.6249L61.4834 52.1207L61.2501 52.4707L60.9876 52.8791L60.6376 53.3749L60.2876 53.8416L59.9959 54.2207L59.7043 54.6582L59.5584 54.8624L59.4418 54.8041L59.0918 54.5707L58.5959 54.1916L58.1584 53.8416L57.7793 53.5499L57.7209 53.4916L57.7501 53.3457L57.9251 53.1124L58.2168 52.7916L58.5084 52.4124L58.8293 51.9749L59.0626 51.6249L59.2959 51.3041L59.7334 50.6332L60.0834 50.0499L60.4626 49.3791L60.6376 49.0874L60.8709 48.6207L61.0751 48.2707L61.3959 47.5999L61.7751 46.7541L62.0959 45.9666L62.4751 44.9457L62.9418 43.5166L63.3501 41.9999L63.6418 40.7166L63.8459 39.6374L63.9918 38.5582L64.1376 37.0707L64.2251 36.0791V34.0957L64.0793 32.1999L63.9626 31.1207L63.7876 29.9832L63.5834 28.9332L63.2918 27.6791L63.0293 26.6582L62.7959 25.6957L62.7668 25.6374L62.5626 25.8124L62.2418 26.2499L61.9793 26.6874L61.8334 26.9499L61.4834 27.5041L61.0459 28.2332L60.8126 28.6416L60.6959 28.7874L60.5793 28.7291L59.9668 28.3207L59.4709 28.0291L59.0043 27.7957L58.8293 27.6499L58.8001 27.5041L58.9751 27.2124L59.2668 26.8041L59.7334 26.0457L60.0251 25.5499L60.4626 24.8207L60.7543 24.3249L61.1626 23.5957L61.3959 23.2166L61.7168 22.6624L62.0084 22.1957L62.3584 21.6124L62.5334 21.2624V21.2041H62.5918L62.6501 21.0874L62.7376 21.0291Z" fill="white"/>
<path d="M57.9542 4.4624H59.4125L65.3042 4.49157L65.3917 4.57907V6.6499L65.3334 6.7374L60.8125 6.76657H52.1209L51.9167 6.7374L51.8584 6.67907L51.8 6.3874V4.5499L51.8584 4.49157L57.9542 4.4624Z" fill="white"/>
<path d="M51.8875 9.01245H59.0917L60.6959 9.04162L60.8417 9.07078L60.8709 9.12912V11.2291L60.8417 11.2583L59.9959 11.2875H51.975L51.8292 11.2L51.8 11.1416V9.12912L51.8292 9.04162L51.8875 9.01245Z" fill="white"/>
<path d="M63.1166 9.04175H65.3041L65.3624 9.07091L65.3916 9.18758V11.2292L65.3624 11.2584H63.1749L63.0874 11.2001V9.91675L63.1166 9.04175Z" fill="white"/>
<path d="M24.7041 69.9417L24.7332 70H24.5874L24.7041 69.9417Z" fill="white"/>
</g>
<defs>
<clipPath id="clip0_500_319">
<rect width="70" height="70" fill="white"/>
</clipPath>
</defs>
</svg>
