<svg width="70" height="70" viewBox="0 0 70 70" fill="none" xmlns="http://www.w3.org/2000/svg">
<path d="M34.6792 2.01245H35.175L35.5834 2.09995L36.05 2.27495L36.4292 2.47912L36.8084 2.77078L37.1584 3.09162L37.3334 3.23745L37.5375 3.47078L37.8584 3.84995L38.2084 4.34578L38.4417 4.66662L38.7917 5.16245L39.025 5.48328L39.375 5.97912L39.725 6.44578L39.9584 6.70828V6.76662H40.0167V6.82495L40.1334 6.88328L40.3667 7.05828L40.6584 7.14578L41.0084 7.08745L41.8834 6.79578L42.7584 6.41662L43.6625 5.97912L44.5084 5.62912L45.2375 5.36662L45.7917 5.22078L46.2292 5.16245H46.9584L47.3959 5.24995L47.7459 5.39578L48.0667 5.59995L48.4167 5.92078L48.6792 6.27078L48.9417 6.76662L49.2042 7.55412L49.3209 8.19578L49.5542 10.4125L49.7292 11.7833L49.8459 12.2791L49.9625 12.5416L50.1084 12.6875L50.3417 12.8333L50.7792 12.95L51.5959 13.0666L53.2584 13.2125L54.1917 13.3291L54.8625 13.4458L55.5334 13.6208L56 13.7958L56.4667 14.0583L56.7875 14.3208L56.875 14.3791V14.4375H56.9334L57.1959 14.8166L57.4292 15.2833L57.5459 15.6333L57.6042 15.925V16.2458L57.4584 17.0333L57.2542 17.7625L56.9917 18.4041L56.6125 19.3083L56.2625 20.0666L55.9125 20.8833L55.7084 21.4375L55.5917 21.8458V22.1375L55.7084 22.3708L55.9417 22.6625L56.2917 22.9833L56.7 23.3041L57.575 23.9458L57.9834 24.2375L58.9167 24.9375L59.2375 25.2L59.5584 25.4916L59.7917 25.6958L60.0542 26.0166L60.3459 26.4541L60.55 26.8625L60.6667 27.2416L60.725 27.6208V27.9125L60.6375 28.3791L60.5209 28.6708L60.3459 28.9916L60.1417 29.2833L59.8209 29.6916L59.675 29.8666H59.6167V29.925H59.5584V29.9833L59.325 30.1875L59.0625 30.4208L58.6834 30.7125L58.1875 31.0916L57.3709 31.675L57.0209 31.9083L56.5542 32.2583L56.0875 32.6375L55.9417 32.7833L55.6792 33.075L55.5917 33.3375L55.65 33.775L55.825 34.3583L56.1459 35.2041L56.7 36.4291L56.9917 37.1L57.2542 37.8L57.4875 38.5583L57.6042 39.1416V39.5208L57.4875 40.0166L57.2834 40.4833L57.0792 40.8041L56.8459 41.0958L56.5542 41.3583L56.0292 41.65L55.5917 41.825L54.8625 42L53.8417 42.175L52.3542 42.35L51.9167 42.3791L52.2959 43.225L52.7917 44.3916L53.1125 45.1208L53.5792 46.2583L53.9584 47.1625L54.3667 48.125L55.3 50.3416L55.6792 51.2166L56.1167 52.2666L56.5834 53.375L56.8459 53.9875L57.1959 54.8333L57.4875 55.5333L58.0417 56.8458L58.3334 57.5458L58.8292 58.7416L59.4125 60.1125L59.9375 61.3666L60.0834 61.8625L60.1417 62.2416L60.1125 62.5333L59.9959 62.8833L59.8209 63.2041L59.5292 63.6125L59.325 63.8166L59.0334 64.0208L58.5375 64.2541L58.3334 64.2833H57.8375L57.0792 64.1375L55.7667 63.7875L54.6292 63.4666L53.5209 63.175L53.2 63.0875H52.9667L52.7334 63.5541L52.2084 64.3708L51.8875 64.8958L51.0709 66.1208L50.7209 66.6166L50.4 67.025L50.1375 67.3166L49.875 67.55L49.4375 67.7833L49.0584 67.9291L48.7959 67.9875L48.0375 67.8125L47.5417 67.5791L47.25 67.3166L46.9584 66.8791L46.7542 66.5291L46.2875 65.4791L45.7917 64.3708L44.8875 62.2125L44.45 61.1916L43.9542 60.025L43.4875 58.9166L43.05 57.8666L42.7 57.05L42.2334 55.9708L41.6792 54.6583L41.3584 53.9291L40.8625 52.7625L40.3667 51.5666L40.0167 50.75L39.725 50.05L39.4917 49.4666L39.4334 49.4375L39.2292 49.6125L39.025 49.9333L38.7334 50.3708L38.4709 50.7791L38.0625 51.3333L37.7125 51.7416L37.45 52.0625L36.7792 52.7333L36.3709 53.025L36.0209 53.2L35.5542 53.375L35.0584 53.4625L34.5917 53.4333L34.125 53.3166L33.6292 53.0833L33.2792 52.8208L32.9 52.5L32.8417 52.3833L32.7542 52.3541L32.55 52.1208L32.2584 51.8L31.9375 51.3916L31.5584 50.8958L31.0042 50.0791L30.6834 49.6708L30.4792 49.4375H30.4209L30.1875 50.1666L29.9542 50.75L29.6042 51.5666L29.1667 52.6166L28.7875 53.4916L28.5834 53.9583L28 55.3L27.5042 56.4666L27.125 57.3708L26.425 59.0041L26.0459 59.9375L25.6375 60.8708L25.2584 61.775L24.8209 62.825L24.3834 63.8458L24.0042 64.7208L23.7125 65.4208L23.2459 66.4708L22.9542 66.9958L22.6917 67.3166L22.4584 67.5208L22.0209 67.7541L21.5542 67.9291L21.2917 67.9875L20.475 67.7833L20.0667 67.55L19.775 67.2875L19.4834 66.9666L19.1042 66.4416L18.6959 65.8L18.0542 64.8375L17.3542 63.7291L17.0042 63.1458L16.8875 63.0875V63.0291L15.8667 63.3208L14.7 63.6416L14.0875 63.8166L12.2792 64.2541L12.075 64.2833H11.4625L11.0542 64.1375L10.6458 63.8458L10.3833 63.5833L10.1792 63.2916L9.91668 62.7375L9.85835 62.5625V62.0958L9.94585 61.6875L10.1792 61.0458L10.5292 60.1708L10.85 59.4125L11.2292 58.5375L11.4917 57.925L11.9292 56.875L12.3958 55.7666L13.125 54.0166L13.8833 52.2083L14.175 51.5083L14.4083 50.9541L14.7292 50.1958L15.0209 49.4958L15.3709 48.6791L15.8375 47.6L16.1584 46.8416L16.5375 45.9375L16.7709 45.3833L17.0625 44.6833L17.325 44.0416L17.5875 43.4291L17.9667 42.525L18.025 42.3791L16.2167 42.2041L15.1959 42.0583L14.6708 41.9416L14.0875 41.7375L13.6208 41.5041L13.3 41.2708L12.95 40.9208L12.6875 40.5416L12.5417 40.2208L12.3667 39.6083V39.0541L12.6292 38.0041L12.8333 37.3916L13.125 36.7208L13.4458 36.0208L13.7958 35.2333L13.9708 34.8541L14.3208 33.8333L14.3792 33.5416V33.3375L14.2625 33.1041L14 32.8125L13.7083 32.5208L13.3875 32.2583L12.8333 31.85L11.8417 31.15L11.1417 30.625L10.7333 30.275L10.4417 30.0125L10.15 29.7208L9.88752 29.4L9.62502 28.9916L9.36252 28.4375L9.27502 28.1166L9.24585 27.8833V27.6208L9.36252 27.0375L9.47918 26.7166L9.71252 26.3083L9.97502 25.9583L10.2375 25.6375L10.7042 25.1708L11.0833 24.8791L11.5792 24.5291L12.0458 24.1791L12.4542 23.8875L12.9208 23.5666L13.475 23.1583L13.7958 22.8666L14.0292 22.6625L14.2625 22.4L14.3792 22.1958L14.3208 21.7291L14.0583 20.9416L13.6792 20.0083L13.1542 18.8125L12.775 17.9083L12.5125 17.1208L12.3667 16.4791V15.8375L12.5417 15.2541L12.6875 14.9041L12.9792 14.4666L13.1833 14.2625L13.5042 14.0291L13.9125 13.7958L14.4667 13.5916L15.1084 13.4458L16.1875 13.2708L17.7042 13.125L18.7834 13.0083L19.3667 12.8916L19.775 12.7166L20.0084 12.5125L20.125 12.075L20.2417 11.4625L20.475 9.68328L20.5917 8.39995L20.7084 7.69995L21.0292 6.73745L21.2625 6.29995L21.4959 5.97912L21.6417 5.80412L21.9334 5.57078L22.3417 5.33745L22.7209 5.19162L22.8667 5.16245H23.7709L24.2959 5.24995L25.025 5.45412L25.7542 5.74578L26.5709 6.12495L27.0667 6.35828L28.1167 6.82495L29.0209 7.11662L29.3417 7.14578L29.6334 6.99995L29.925 6.76662L30.3042 6.38745L30.625 5.94995L30.7709 5.77495L30.8875 5.57078L31.1792 5.16245L31.5292 4.66662L31.8209 4.25828L32.2292 3.70412L32.6375 3.20828L32.725 3.12078H32.7834L32.8417 3.00412H32.9V2.94578L33.2792 2.65412L33.7167 2.36245L34.1834 2.12912L34.475 2.04162L34.6792 2.01245ZM34.9125 4.08328L34.6209 4.22912L34.3584 4.46245L34.2125 4.60828V4.66662L34.0959 4.72495L33.7167 5.19162L33.425 5.59995L33.0459 6.15412L32.8125 6.47495L32.4042 7.02912L31.9959 7.55412L31.675 7.93328L31.3542 8.28328L31.0917 8.51662L30.6834 8.77912L30.2167 9.01245L29.925 9.12912L29.4584 9.18745H28.9625L28.4375 9.09995L27.7084 8.89578L26.8917 8.57495L26.1334 8.22495L25.2 7.81662L24.325 7.46662L23.7125 7.26245L23.4209 7.17495H23.2167L23.0709 7.29162L22.8667 7.69995L22.75 8.13745L22.6334 9.07078L22.5167 10.1208L22.2834 11.9583L22.1959 12.4541L22.0209 12.9791L21.7875 13.475L21.525 13.8833L21.3792 14.0583V14.1166H21.3209L21.175 14.2625L20.8834 14.4666L20.3292 14.7291L19.8042 14.875L19.0459 15.0208L17.7917 15.1958L15.8084 15.4291L15.225 15.5458L14.7292 15.6916L14.4375 15.8375L14.4083 15.8666V16.2166L14.5833 16.8291L14.9042 17.6458L15.3125 18.5208L15.7792 19.5416L16.1584 20.5333L16.3334 21.2041L16.4209 21.6708L16.45 22.1666L16.3625 22.7208L16.2459 23.0708L16.0417 23.4208L15.75 23.8291L15.4 24.2375L15.1375 24.5L14.7292 24.8208L14.35 25.1125L14.0583 25.3166L13.6208 25.6375L13.3875 25.8125L13.0958 26.0166L12.6875 26.3083L12.3083 26.6L11.9875 26.8625L11.6083 27.2416L11.3167 27.6208V27.7958L11.4917 28.0583L11.7542 28.3791L12.1333 28.7291L12.4542 28.9916L12.8917 29.3125L13.4458 29.7208L13.825 29.9833L14.35 30.3625L14.875 30.7708L15.1084 30.975L15.5459 31.3833L15.8375 31.7041L16.0709 32.0833L16.2459 32.4333L16.3917 32.9291L16.45 33.3083L16.4209 33.8625L16.275 34.5625L16.0417 35.2625L15.6042 36.3125L15.3417 36.8958L14.875 37.9458L14.5833 38.6458L14.4375 39.1125V39.4625L14.5542 39.6375L14.9625 39.8416L15.4875 39.9875L16.3042 40.1041L18.2584 40.2791L19.0167 40.3958L19.8042 40.5708L20.5042 40.8041L20.9417 41.0375L21.35 41.3875L21.5834 41.65L21.8167 42.0583L22.05 42.6708L22.225 43.2833L22.3417 44.0125L22.6042 46.1708L22.7209 47.2208L22.8375 47.775L22.9542 48.0666L23.1292 48.2125L23.2167 48.2416H23.5959L24.2959 48.0375L25.1125 47.7166L26.0459 47.2791L26.8917 46.9L27.65 46.6083L28.2625 46.4333L29.0209 46.3166H29.5459L29.9834 46.4041L30.3334 46.5208L30.8292 46.7833L31.1792 47.0458L31.4125 47.25L31.4417 47.3083H31.5V47.3666H31.5584V47.425H31.6167L31.675 47.5416L31.9959 47.8916L32.2584 48.2416L32.6084 48.7375L32.8417 49.0583L33.1334 49.4666L33.5125 49.9916L33.8334 50.4L34.2125 50.8666L34.3584 51.0125H34.4167V51.0708L34.7084 51.275L34.8834 51.3625L35.1459 51.3333L35.3209 51.2458L35.6125 50.9833L35.9917 50.6041L36.2834 50.225L36.575 49.8166L36.9542 49.2916L37.1875 48.9708L37.4792 48.5625L37.8875 48.0083L38.2375 47.6L38.3834 47.4541L38.4417 47.3375H38.5L38.6459 47.1916L38.9667 46.9L39.375 46.6375L39.8709 46.4041L40.1917 46.3166H41.0667L41.7375 46.4333L42.3209 46.6083L43.1084 46.9291L43.8084 47.25L44.3042 47.4833L45.1792 47.8625L45.8792 48.125L46.4042 48.3L46.6375 48.2708L46.9 48.0958L47.0167 47.95L47.1334 47.6L47.25 46.9291L47.3667 45.85L47.4834 44.8875L47.6584 43.575L47.775 42.9625L47.9209 42.525L48.1834 41.9708L48.475 41.5333L48.7667 41.2125L49.2042 40.9208L49.6417 40.7166L50.1959 40.5416L51.0125 40.3666L51.9167 40.25L53.6084 40.1041L54.25 40.0166L54.8625 39.8708L55.3584 39.6958L55.5042 39.5791L55.5334 39.375L55.4459 38.9375L55.1542 38.1208L54.7167 37.1L54.3084 36.1958L53.9 35.2041L53.6667 34.5041L53.55 33.9208L53.4917 33.425L53.5209 33.1625L53.6667 32.6083L53.8709 32.1416L54.2209 31.6166L54.6 31.1791L54.8334 30.975V30.9166L54.95 30.8583L55.3875 30.5083L55.9417 30.1291L56.4959 29.7208L56.9625 29.3708L57.3709 29.0791L57.6625 28.8458L57.925 28.6416V28.5833L58.0417 28.525L58.4209 28.1458L58.6542 27.825L58.7125 27.7375L58.5959 27.5333L58.2459 27.125L57.925 26.8333L57.5459 26.5416L57.225 26.3083L56.8459 26.0166L56.3209 25.6375L56 25.4041L55.5625 25.0833L55.2417 24.8208L54.8334 24.4708L54.3667 24.0041L53.9875 23.5083L53.6959 22.9833L53.5792 22.6041L53.5209 22.2541V21.875L53.6375 21.175L53.8709 20.3875L54.2209 19.4833L54.7459 18.3458L55.1542 17.3833L55.4167 16.7125L55.5334 16.2166V15.8958L55.3875 15.7791L55.0375 15.6333L54.5709 15.5166L53.6959 15.3708L51.5084 15.1666L50.7209 15.05L50.1084 14.9041L49.7584 14.7875L49.175 14.525L48.8542 14.3208L48.5625 14.0583L48.3 13.7083L48.0959 13.3875L47.8334 12.6583L47.6875 12.0458L47.5709 11.2583L47.3959 9.77078L47.25 8.42912L47.1042 7.67078L46.9584 7.32078L46.8417 7.17495L46.6084 7.14578L46.1709 7.26245L45.3834 7.52495L44.275 8.02078L43.575 8.34162L42.7 8.72078L41.6209 9.07078L41.2125 9.15828L40.9792 9.18745H40.2792L39.9 9.09995L39.55 8.95412L39.2292 8.77912L38.9667 8.57495L38.675 8.31245L38.1792 7.81662L37.9167 7.49578L37.5667 7.05828L37.1875 6.53328L36.8959 6.12495L36.5459 5.62912L35.9625 4.89995L35.6709 4.54995H35.6125L35.5542 4.43328L35.2625 4.17078L35.0875 4.08328H34.9125ZM19.9792 43.05L19.8334 43.3125L19.7459 43.4875L19.6292 43.8666L19.1917 44.9458L18.8125 45.85L18.2292 47.25L17.7334 48.4166L17.4125 49.2041L17.15 49.8166L16.8292 50.575L16.4792 51.4208L16.1292 52.2375L15.75 53.1416L15.2834 54.2208L14.7583 55.475L14.4958 56.0875L14.0292 57.1958L13.7083 57.9833L13.4167 58.6833L12.8917 59.9666L12.4542 60.9875L12.075 61.775L11.9292 62.1541L12.25 62.125L12.775 61.9791L13.3583 61.8041L14.9333 61.425L16.1875 61.1041L16.7125 60.9875H17.2084L17.6167 61.1041L18.025 61.3083L18.3167 61.5708L18.5792 61.8625L18.9292 62.3583L19.4834 63.2041L20.2417 64.3416L20.5917 64.8958L21.0292 65.625L21.2042 65.8291H21.2625L21.4084 65.5083L21.6125 64.9541L21.9334 64.225L22.225 63.4958L22.5167 62.825L22.8959 61.95L23.1875 61.2791L23.5084 60.5208L23.8 59.85L24.0334 59.2666L24.6167 57.9541L24.9375 57.1958L25.2 56.5833L25.4917 55.8833L25.8417 55.0666L26.1334 54.3958L26.775 52.8791L27.825 50.4291L28.1167 49.7291L28.4084 49.1166L28.5834 48.65V48.5041L28.4959 48.475L28.0292 48.65L27.475 48.9125L26.95 49.1458L25.7834 49.6708L25.0542 49.9333L24.4125 50.1375L24.0334 50.225L23.3917 50.2833H23.1292L22.6334 50.225L22.2834 50.1083L21.9917 49.9333L21.7 49.6708L21.4375 49.3791L21.2042 49L21 48.5916L20.7667 47.8333L20.6209 47.1041L20.5334 46.375L20.4167 45.2666L20.1542 43.3708L20.0375 43.05H19.9792ZM49.9334 43.1083L49.8459 43.225L49.7 43.9541L49.4667 45.675L49.2917 47.3666L49.1459 48.0083L48.8834 48.7375L48.6209 49.2041L48.3292 49.5833L48.2709 49.7L48.1542 49.7583L47.8625 49.9625L47.4834 50.1375L47.1917 50.225L46.9 50.2541H46.1417L45.4709 50.1375L44.8292 49.9333L43.8959 49.5541L43.0792 49.2041L42.4084 48.8833L41.65 48.5333L41.4167 48.475L41.3875 48.5916L41.5625 49.0583L41.8834 49.7583L42.4084 51.0125L42.7292 51.7708L43.1084 52.6458L43.6042 53.8416L44.1292 55.0958L44.5375 56.0583L44.8584 56.8166L45.325 57.925L45.6459 58.6541L46.025 59.5583L46.55 60.7833L46.9292 61.6583L47.775 63.7L48.0959 64.4875L48.3875 65.1583L48.5334 65.5666L48.6792 65.8L48.7959 65.7708L49 65.5083L49.3792 64.8375L49.5834 64.5458L49.7875 64.225L50.3125 63.4375L50.5167 63.1458L50.8959 62.5916L51.275 62.0083L51.5084 61.7166L51.6542 61.5708L51.9167 61.3375L52.15 61.1916L52.7042 60.9583H52.9959L53.5792 61.075L55.475 61.5416L56.7875 61.8916L57.225 62.0375L57.8084 62.1833H57.8959L57.8375 61.8916L57.6625 61.425L57.4 60.8125L56.9334 59.675L56.4084 58.3916L55.9709 57.3416L55.0375 55.125L54.6 54.1041L54.075 52.85L53.6084 51.7416L53.1125 50.5458L52.5875 49.2916L52.0334 47.9791L51.5375 46.7833L51.2167 45.9958L50.7209 44.8L50.4584 44.2166L50.1375 43.3708L49.9625 43.1083H49.9334Z" fill="white"/>
<path d="M34.1541 12.5125H35.8166L36.8082 12.6L37.9166 12.7458L38.8207 12.95L39.7832 13.2416L40.5999 13.5333L41.4749 13.9125L42.4374 14.4083L43.0499 14.7875L43.6041 15.1666L44.4207 15.7791L44.8874 16.1583L45.2666 16.5083L45.6166 16.8291L46.4332 17.6458L46.9582 18.2875L47.2207 18.6375L47.5999 19.1625L47.9207 19.6583L48.3291 20.3583L48.7374 21.1458L49.1166 22.0208L49.3791 22.7208L49.6707 23.625L49.8457 24.3541L50.0791 25.5791L50.1666 26.3083L50.2249 27.1833V28.4958L50.1374 29.5458L49.9916 30.3916L49.8166 31.2958L49.5541 32.2291L49.3207 32.9875L48.7957 34.2125L48.5624 34.6791L48.2999 35.175L47.9207 35.8166L47.5999 36.2833L47.3957 36.6041L47.1041 37.0125L46.8707 37.3041L46.6666 37.5666H46.6082L46.5499 37.6833L46.0832 38.1791L45.2957 38.9666L45.0624 39.1708L44.6541 39.5208L44.3041 39.8125L43.7499 40.2208L43.2249 40.5416L42.6707 40.8916L41.9124 41.3L41.0082 41.7375L40.3374 42L39.6374 42.2625L38.7916 42.4958L37.8874 42.7L37.1874 42.8166L36.2832 42.9041L35.3499 42.9625H34.3874L33.1041 42.875L32.2291 42.7583L31.4999 42.6125L30.6249 42.3791L29.6041 42.0291L28.7582 41.6791L28.2916 41.475L27.6499 41.125L27.1832 40.8625L26.6874 40.5416L26.3374 40.3083L25.9291 40.0166L25.4916 39.6666L25.1707 39.4041L24.7332 39.025L24.4707 38.7625L24.2374 38.5583L23.9166 38.2375L23.7124 38.0041L23.5082 37.8L23.2457 37.4791L22.9249 37.1L22.5457 36.5458L22.3416 36.2541L22.0499 35.8166L21.6999 35.2041L21.4082 34.6791L21.0874 34.0375L20.7082 33.1041L20.5041 32.5208L20.2416 31.6458L20.0082 30.7125L19.8332 29.6916L19.7457 28.7583L19.7166 28.2625V27.125L19.8332 25.8125L19.9791 24.9958L20.1832 24.0041L20.3874 23.3041L20.6791 22.4291L20.8249 22.05L21.0291 21.6125L21.3791 20.8833L21.6124 20.4166L21.9332 19.8625L22.1374 19.5416L22.7207 18.6666L23.1291 18.1416L23.4791 17.7333L23.7707 17.4125L23.9749 17.1791L24.4707 16.6833L24.7041 16.4791L24.9957 16.2166L25.3166 15.9541L25.5499 15.75L25.8124 15.5458L26.1916 15.2541L26.7166 14.9041L27.4457 14.4666L28.2041 14.0583L29.0207 13.6791L29.9832 13.3L30.9457 13.0083L31.7916 12.8041L32.4624 12.6875L33.7457 12.5416L34.1541 12.5125ZM34.8249 14.5541L33.7749 14.6125L32.9874 14.7L32.1416 14.8458L31.3249 15.05L30.1291 15.4583L29.6041 15.6916L28.8749 16.0416L28.3207 16.3625L27.8832 16.625L27.4166 16.9458L27.0374 17.2375L26.6291 17.5583L26.2207 17.9083L25.7541 18.3458L25.1999 18.9L24.9374 19.2208L24.6457 19.5708L24.0624 20.3875L23.7999 20.7666L23.4499 21.3791L23.0999 22.05L22.7499 22.8375L22.4582 23.625L22.2541 24.3541L21.9916 25.4916L21.9041 25.9875L21.8457 26.5416L21.8166 27.0083V28.3791L21.8749 29.225L21.9624 29.8958L22.1374 30.6833L22.3999 31.675L22.6916 32.4916L22.9249 33.075L23.2457 33.775L23.5957 34.4166L24.0041 35.0583L24.3541 35.525L24.8207 36.1083L25.1707 36.5166L25.3749 36.75H25.4332L25.4916 36.8666L26.0457 37.4208L26.2791 37.625L26.5999 37.9166L26.9791 38.2083L27.4457 38.5583L27.9707 38.8791L28.2041 39.025L28.9332 39.4333L29.8666 39.8708L30.4499 40.1041L31.1791 40.3666L32.2291 40.6291L33.3374 40.8041L34.1249 40.8916L34.5916 40.9208H35.4374L36.2249 40.8625L37.2457 40.7166L38.0916 40.5416L38.9957 40.2791L39.8999 39.9583L40.4832 39.6958L40.9499 39.4625L41.4457 39.2L41.8832 38.9375L42.4957 38.5583L43.1082 38.0916L43.4582 37.8L43.6916 37.625V37.5666L43.8082 37.5083L44.3041 37.0416L44.7416 36.575L45.0041 36.2541L45.2666 35.9625L45.6457 35.4666L45.9666 35.0291L46.2582 34.5916L46.6666 33.8916L47.0457 33.075L47.4249 32.1125L47.5707 31.675L47.7749 30.8583L47.9791 29.8958L48.0666 29.2833L48.1249 28.6125V27.0083L48.0374 25.9875L47.9207 25.2291L47.7166 24.3541L47.4541 23.45L47.0749 22.4875L46.8416 21.9625L46.4916 21.3208L46.1416 20.7375L45.8499 20.3L45.5291 19.8333L45.2082 19.425L44.8874 19.0458L44.5374 18.6666L43.9541 18.0833L43.7207 17.8791L43.2249 17.4708L42.7291 17.0916L42.1749 16.7125L41.4457 16.275L40.8041 15.925L39.9582 15.5458L39.1416 15.225L38.2666 14.9625L37.5082 14.7875L36.6916 14.6708L35.6999 14.5833L34.8249 14.5541Z" fill="white"/>
<path d="M34.6501 19.3083H35.3209L35.7001 19.425L35.9918 19.5708L36.2834 19.8333L36.5459 20.2417L36.7793 20.7958L37.1584 21.9625L37.5084 23.0125L37.7418 23.7417L37.8876 24.2375L37.9168 24.3542L38.0334 24.3833L40.1334 24.3542H41.0376L41.9126 24.3833L42.3793 24.4417L42.7293 24.5583L43.0209 24.7042L43.3709 25.025L43.5751 25.3458L43.7209 25.6958L43.8084 26.25L43.7501 26.6583L43.5751 26.9792L43.3418 27.2708L43.1084 27.5333L42.8751 27.7375L42.5251 28L41.9709 28.4083L41.3876 28.8167L40.8334 29.225L40.3376 29.6042L39.8126 29.8958L39.7834 29.925L39.8126 30.1583L40.1626 31.2083L40.5709 32.4625L40.9501 33.5708L41.0668 34.0667L41.0959 34.5625L41.0376 34.9125L40.9209 35.2042L40.6876 35.525L40.6001 35.6417H40.5418V35.7H40.4834L40.4251 35.8167L40.0168 36.05L39.4918 36.2542H39.3168L39.2001 36.225L39.0251 36.2542L38.9084 36.1667L38.6168 36.05L38.0918 35.7292L37.5959 35.3792L37.2168 35.1167L36.7209 34.7667L35.7876 34.0667L35.1459 33.6L35.0001 33.5417L34.8251 33.6L34.5043 33.8042L34.2126 34.0375L33.8918 34.2708L33.6293 34.475L32.6084 35.175L32.1126 35.5542L31.7918 35.7583L31.2959 36.05L30.8876 36.225L30.7709 36.2542H30.5668L30.1001 36.1083L29.6918 35.875L29.4001 35.6125L29.1084 35.3208L28.9043 34.9125L28.8751 34.7667V34.4458L28.9626 33.8625L29.1668 33.1625L29.4876 32.2L29.8668 30.975L30.1584 30.1875V29.9833L30.0126 29.8667L29.4584 29.4875L28.9626 29.1083L28.4668 28.7583L28.0293 28.4375L27.4751 28.0292L27.0668 27.7083L26.7751 27.4458L26.5418 27.1833L26.3668 26.9208L26.1918 26.4542L26.1626 26.0167L26.2793 25.55L26.4834 25.1417L26.8043 24.7917L27.1251 24.5875L27.3584 24.4708L27.6209 24.4125L27.8834 24.3833L29.0501 24.3542H31.9084L32.0834 24.325L32.1709 24.0333L32.3168 23.45L32.7543 21.9917L32.9584 21.4083L33.2501 20.6208L33.4251 20.2125L33.6293 19.8917L33.8043 19.6875L34.1834 19.4542L34.5043 19.3375L34.6501 19.3083ZM35.0001 22.225L34.8834 22.3125L34.5334 23.3625L34.1834 24.5L33.9209 25.2292L33.6876 25.6958L33.4543 25.9875L33.2501 26.1625L32.9876 26.2792L32.6084 26.3958L32.0251 26.4542H28.9626L29.1376 26.6583L29.5751 27.0083L30.1001 27.3583L30.4209 27.5917L30.9168 27.9417L31.5293 28.4083L31.7626 28.6125L31.9959 28.875L32.1709 29.1667L32.2876 29.5167V30.1292L32.0834 30.9167L31.7043 32.0833L31.3834 32.9583L31.2668 33.3958V33.5125L31.4126 33.4833L31.6751 33.3083L32.1418 32.9292L32.5209 32.6375L33.0459 32.2583L33.5126 31.9667L33.9209 31.675L34.2709 31.4708L34.4751 31.3833L34.8834 31.325L35.3501 31.3833L35.7876 31.5583L36.2251 31.7917L36.6334 32.0833L37.2751 32.55L37.7709 32.9L38.1501 33.2208L38.4709 33.4833L38.5876 33.5708L38.6751 33.5417L38.5876 33.1042L38.2668 32.1125L38.0626 31.4417L37.7709 30.5667L37.6543 29.9833L37.6834 29.5167L37.8293 29.1375L38.0334 28.8167L38.2668 28.5542L38.3251 28.525V28.4667L38.4418 28.4083L38.8209 28.1167L39.4334 27.65L39.8126 27.3875L40.3668 26.9792L40.6584 26.7458L40.9793 26.4542V26.425H40.5418L40.0168 26.4542H37.5959L37.1584 26.3667L36.6918 26.1333L36.4584 25.9292L36.2543 25.6375L36.0209 25.2L35.6709 24.15L35.4668 23.5083L35.1459 22.4583L35.0293 22.225H35.0001Z" fill="white"/>
</svg>
