<svg width="13" height="13" viewBox="0 0 13 13" fill="none" xmlns="http://www.w3.org/2000/svg">
<path d="M6.0967 0.514017C4.60051 0.634723 3.28679 1.23825 2.25096 2.27969C0.990571 3.54569 0.364586 5.26645 0.524592 7.0237C0.676175 8.6827 1.45936 10.1424 2.75624 11.1923C3.12678 11.4954 3.37661 11.6498 3.87908 11.894C4.76613 12.3235 5.49598 12.4919 6.48969 12.4919C7.67991 12.4919 8.68766 12.2084 9.68699 11.5909C10.9614 10.8021 11.9495 9.45185 12.3116 8.00619C12.5306 7.12195 12.5587 6.30508 12.3958 5.404C11.9467 2.90848 9.90314 0.940698 7.37113 0.57016C7.06796 0.525246 6.35215 0.494368 6.0967 0.514017ZM7.41043 1.81371C8.99644 2.13933 10.3242 3.23691 10.9249 4.72468C11.1411 5.26364 11.2393 5.74085 11.2674 6.37806C11.2842 6.83001 11.2421 7.22862 11.1327 7.66372C10.6807 9.44904 9.24908 10.8077 7.41604 11.1923C7.05112 11.268 6.36618 11.2961 5.97038 11.2512C4.7942 11.1137 3.71347 10.5494 2.93028 9.66238C2.27903 8.92692 1.872 8.00899 1.75691 7.03212C1.712 6.6307 1.74007 5.92051 1.81586 5.564C2.25377 3.5092 3.89873 2.01021 5.99845 1.74914C6.24828 1.71827 7.14094 1.76037 7.41043 1.81371Z" fill="url(#paint0_linear_404_2624)"/>
<path d="M5.88574 4.10448V4.70801H6.50331H7.12087V4.10448V3.50095H6.50331H5.88574V4.10448Z" fill="url(#paint1_linear_404_2624)"/>
<path d="M5.88574 7.69747V9.50806H6.50331H7.12087V7.69747V5.88689H6.50331H5.88574V7.69747Z" fill="url(#paint2_linear_404_2624)"/>
<defs>
<linearGradient id="paint0_linear_404_2624" x1="0.5" y1="6.49996" x2="12.5" y2="6.49996" gradientUnits="userSpaceOnUse">
<stop stop-color="#0AC2D4"/>
<stop offset="1" stop-color="#0AD4BC"/>
</linearGradient>
<linearGradient id="paint1_linear_404_2624" x1="5.88574" y1="4.10448" x2="7.12087" y2="4.10448" gradientUnits="userSpaceOnUse">
<stop stop-color="#0AC2D4"/>
<stop offset="1" stop-color="#0AD4BC"/>
</linearGradient>
<linearGradient id="paint2_linear_404_2624" x1="5.88574" y1="7.69747" x2="7.12087" y2="7.69747" gradientUnits="userSpaceOnUse">
<stop stop-color="#0AC2D4"/>
<stop offset="1" stop-color="#0AD4BC"/>
</linearGradient>
</defs>
</svg>
