<svg width="50" height="50" viewBox="0 0 50 50" fill="none" xmlns="http://www.w3.org/2000/svg">
<rect width="50" height="50" rx="25" fill="#41506B"/>
<path d="M20.0419 8.53281C19.9093 8.59247 19.79 8.71179 19.7369 8.84436C19.6441 9.05649 19.3392 10.0773 18.0068 14.5981C17.6555 15.7847 16.9263 18.2705 16.3762 20.1332C15.826 21.9892 15.236 24.0044 15.0504 24.601C14.8714 25.1976 14.7256 25.7743 14.7256 25.8737C14.7256 25.993 14.7985 26.1455 14.9178 26.2781L15.1101 26.4968L19.8894 26.5167C22.521 26.5233 24.6688 26.5498 24.6688 26.5631C24.6688 26.583 24.4102 27.8292 24.0987 29.3339C23.058 34.3387 21.7521 40.815 21.7521 40.9542C21.7521 41.1597 21.9841 41.4248 22.2426 41.511C22.4216 41.5707 22.521 41.564 22.6934 41.4911C22.932 41.3917 22.8127 41.5839 25.7294 36.5726C26.326 35.5517 27.3799 33.7288 28.0826 32.529C29.5807 29.957 31.271 27.047 32.9547 24.1436C33.6242 22.9968 34.4064 21.6512 34.6981 21.1606C35.3345 20.0802 35.4008 19.815 35.0892 19.5034L34.8903 19.3046H30.3761C27.897 19.3046 25.8553 19.2847 25.8421 19.2516C25.8222 19.225 25.9813 18.7875 26.2 18.2771C26.4121 17.7667 26.5911 17.2961 26.5911 17.2298C26.5977 16.8851 26.2 16.5205 25.8354 16.5205C25.4775 16.5205 25.2985 16.8055 24.6688 18.3699C24.3373 19.1853 24.0722 19.9078 24.0722 19.9807C24.0722 20.1531 24.1915 20.3718 24.3638 20.511C24.4898 20.6171 24.8345 20.6303 28.9377 20.6303C32.915 20.6303 33.3657 20.6436 33.3259 20.7364C33.3061 20.7894 32.8487 21.5849 32.3184 22.5063C31.7814 23.4277 30.8667 24.9987 30.2833 25.9997C29.7 27.0006 28.7521 28.6247 28.182 29.6123C27.6119 30.5934 26.6176 32.297 25.9813 33.3907C25.3449 34.4845 24.6688 35.6578 24.4699 35.9959C24.0921 36.6587 23.9529 36.8178 24.0324 36.4996C24.0589 36.3936 24.5097 34.2061 25.0333 31.6341C25.557 29.0621 26.0343 26.7421 26.0873 26.4769C26.147 26.2118 26.1934 25.9201 26.1934 25.8273C26.1934 25.582 26.0277 25.3103 25.8288 25.2175C25.7028 25.1578 24.4699 25.1379 20.9898 25.1379H16.3231L16.3828 24.9523C16.4491 24.7534 17.8279 20.0934 18.789 16.8188C19.1337 15.6521 19.7436 13.6038 20.1347 12.2582L20.8572 9.82542H24.4832C26.485 9.82542 28.1157 9.84531 28.1157 9.87845C28.1157 9.90497 27.9831 10.2563 27.8174 10.654C27.4926 11.4561 27.4727 11.5357 27.6119 11.8074C27.7975 12.1588 28.3742 12.2648 28.6725 11.993C28.878 11.8074 29.8392 9.44096 29.8392 9.12277C29.8392 8.97031 29.7795 8.83111 29.647 8.68528L29.4547 8.46653L24.8544 8.45327C20.9765 8.44001 20.2275 8.45327 20.0419 8.53281Z" fill="url(#paint0_linear_388_209)"/>
<path d="M26.7104 13.7765C26.3326 13.9753 26.2729 14.4659 26.5845 14.8105C26.7436 14.9895 26.8231 15.0293 27.0551 15.0293C27.2871 15.0293 27.3667 14.9895 27.5258 14.8105C28.0495 14.2206 27.4065 13.3986 26.7104 13.7765Z" fill="url(#paint1_linear_388_209)"/>
<path d="M10.0926 16.0171C9.77446 16.1894 9.67503 16.5739 9.85401 16.9186C9.99321 17.1904 12.6315 18.7084 12.9695 18.7084C13.5462 18.7084 13.8246 17.9858 13.4137 17.5749C13.3142 17.4754 12.658 17.0644 11.9487 16.6601C10.6163 15.8978 10.4241 15.8315 10.0926 16.0171Z" fill="url(#paint2_linear_388_209)"/>
<path d="M38.0516 16.6601C37.3423 17.0644 36.6861 17.4688 36.5866 17.5616C36.1491 17.9726 36.4474 18.7084 37.0507 18.7084C37.3688 18.7084 40.0137 17.1771 40.1463 16.9186C40.3982 16.4347 40.08 15.9243 39.5298 15.9243C39.4105 15.9243 38.8736 16.1894 38.0516 16.6601Z" fill="url(#paint3_linear_388_209)"/>
<path d="M7.81155 24.4156C7.67235 24.4952 7.5 24.82 7.5 25.0056C7.5 25.2243 7.67235 25.5027 7.86458 25.5889C7.9839 25.6419 8.54735 25.6685 9.69413 25.6685H11.358L11.5502 25.4762C11.7026 25.3238 11.7424 25.2243 11.7424 25.0056C11.7424 24.7868 11.7026 24.6874 11.5502 24.5349L11.358 24.3427H9.6411C8.60701 24.3427 7.88447 24.3758 7.81155 24.4156Z" fill="url(#paint4_linear_388_209)"/>
<path d="M38.45 24.5349C38.2976 24.6874 38.2578 24.7868 38.2578 25.0056C38.2578 25.2243 38.2976 25.3238 38.45 25.4762L38.6423 25.6685H40.3127C41.6252 25.6685 42.0163 25.6486 42.1622 25.5757C42.3478 25.4762 42.5002 25.2243 42.5002 24.999C42.5002 24.8133 42.3213 24.4885 42.1754 24.409C42.0959 24.3692 41.3866 24.3427 40.3459 24.3427H38.6423L38.45 24.5349Z" fill="url(#paint5_linear_388_209)"/>
<path d="M11.378 32.0648C10.6489 32.4824 9.98598 32.9066 9.90643 32.9994C9.6678 33.2579 9.70094 33.5828 9.98598 33.8678C10.1915 34.0733 10.2511 34.0998 10.4765 34.0667C10.8013 34.0269 13.307 32.5884 13.4926 32.3365C13.6981 32.0714 13.6583 31.7134 13.4064 31.4881C13.0352 31.1566 12.8695 31.203 11.378 32.0648Z" fill="url(#paint6_linear_388_209)"/>
<path d="M36.6136 31.4683C36.2424 31.7798 36.3153 32.2902 36.786 32.5885C37.7869 33.2183 39.3049 34.0402 39.5237 34.0667C39.7491 34.0999 39.8087 34.0734 40.0208 33.8612C40.2396 33.6425 40.2595 33.5961 40.2263 33.3442C40.2064 33.1984 40.1335 33.0194 40.0672 32.9531C40.001 32.8868 39.3513 32.4891 38.6288 32.0648C37.1572 31.2164 36.9716 31.1633 36.6136 31.4683Z" fill="url(#paint7_linear_388_209)"/>
<defs>
<linearGradient id="paint0_linear_388_209" x1="14.7256" y1="25" x2="35.2702" y2="25" gradientUnits="userSpaceOnUse">
<stop stop-color="#0AC2D4"/>
<stop offset="1" stop-color="#0AD4BC"/>
</linearGradient>
<linearGradient id="paint1_linear_388_209" x1="26.3843" y1="14.355" x2="27.7173" y2="14.355" gradientUnits="userSpaceOnUse">
<stop stop-color="#0AC2D4"/>
<stop offset="1" stop-color="#0AD4BC"/>
</linearGradient>
<linearGradient id="paint2_linear_388_209" x1="9.76562" y1="17.3192" x2="13.6094" y2="17.3192" gradientUnits="userSpaceOnUse">
<stop stop-color="#0AC2D4"/>
<stop offset="1" stop-color="#0AD4BC"/>
</linearGradient>
<linearGradient id="paint3_linear_388_209" x1="36.3784" y1="17.3163" x2="40.2338" y2="17.3163" gradientUnits="userSpaceOnUse">
<stop stop-color="#0AC2D4"/>
<stop offset="1" stop-color="#0AD4BC"/>
</linearGradient>
<linearGradient id="paint4_linear_388_209" x1="7.5" y1="25.0056" x2="11.7424" y2="25.0056" gradientUnits="userSpaceOnUse">
<stop stop-color="#0AC2D4"/>
<stop offset="1" stop-color="#0AD4BC"/>
</linearGradient>
<linearGradient id="paint5_linear_388_209" x1="38.2578" y1="25.0056" x2="42.5002" y2="25.0056" gradientUnits="userSpaceOnUse">
<stop stop-color="#0AC2D4"/>
<stop offset="1" stop-color="#0AD4BC"/>
</linearGradient>
<linearGradient id="paint6_linear_388_209" x1="9.74756" y1="32.688" x2="13.6243" y2="32.688" gradientUnits="userSpaceOnUse">
<stop stop-color="#0AC2D4"/>
<stop offset="1" stop-color="#0AD4BC"/>
</linearGradient>
<linearGradient id="paint7_linear_388_209" x1="36.3774" y1="32.6885" x2="40.239" y2="32.6885" gradientUnits="userSpaceOnUse">
<stop stop-color="#0AC2D4"/>
<stop offset="1" stop-color="#0AD4BC"/>
</linearGradient>
</defs>
</svg>
