<svg width="25" height="25" viewBox="0 0 25 25" fill="none" xmlns="http://www.w3.org/2000/svg">
<g clip-path="url(#clip0_686_423)">
<path d="M17.2549 0.0781231C16.4004 0.219725 15.4336 0.615232 14.6475 1.13769C14.1299 1.47949 9.64262 5.95215 9.2227 6.54297C8.71 7.25586 8.29008 8.23242 8.09965 9.14551C7.95805 9.80469 7.94828 10.9961 8.07524 11.6455C8.46586 13.623 9.65239 15.2637 11.3809 16.2109L11.7373 16.4111L11.962 16.1865C12.6748 15.4834 12.8506 14.4092 12.4014 13.5254C12.3526 13.4277 12.1524 13.1641 11.9522 12.9297C11.5225 12.4219 11.3077 12.0801 11.1563 11.6357C10.7754 10.542 10.917 9.39453 11.5469 8.41797C11.7666 8.08105 15.7364 4.06738 16.1856 3.72558C16.8643 3.21289 17.5723 2.97363 18.4073 2.97363C19.794 2.97363 20.9854 3.70117 21.6299 4.94141C22.1475 5.93262 22.1621 7.19238 21.6739 8.15918C21.3955 8.71582 21.2442 8.88672 19.6426 10.5029L18.0655 12.0898L18.1827 12.5537C18.4121 13.4229 18.4805 14.4092 18.3926 15.3955L18.3536 15.8301L18.5147 15.7373C18.6026 15.6885 19.7598 14.5752 21.083 13.2568C23.6465 10.708 23.8711 10.4492 24.3155 9.57031C24.7842 8.63281 24.9991 7.70508 24.9991 6.5918C24.9991 5.19043 24.6377 3.98926 23.8614 2.83203C23.5489 2.36328 22.6358 1.45019 22.167 1.13769C21.3663 0.600584 20.4141 0.219725 19.5205 0.0732403C18.9639 -0.0146503 17.7969 -0.0146503 17.2549 0.0781231Z" fill="url(#paint0_linear_686_423)"/>
<path d="M9.0625 0.532219C8.85742 0.668937 8.73535 0.888664 8.73047 1.12792C8.73047 1.35741 9.08203 2.73925 9.2041 2.98339C9.44336 3.44237 10.2148 3.43749 10.498 2.96874C10.6396 2.73437 10.6201 2.50976 10.3809 1.63085C10.1611 0.805656 10.1025 0.678703 9.87793 0.532219C9.6875 0.405266 9.25293 0.410148 9.0625 0.532219Z" fill="url(#paint1_linear_686_423)"/>
<path d="M3.80367 3.57911C3.50094 3.77931 3.37399 4.22853 3.53512 4.53126C3.64254 4.72657 4.83883 5.89357 4.99508 5.95704C5.20016 6.03028 5.36617 6.01564 5.59078 5.90821C5.93258 5.7422 6.09371 5.31739 5.95211 4.9463C5.89352 4.79005 4.77047 3.63771 4.58004 3.53517C4.37496 3.42775 3.99899 3.44728 3.80367 3.57911Z" fill="url(#paint2_linear_686_423)"/>
<path d="M12.998 8.85254C12.3242 9.57031 12.168 10.5713 12.5977 11.4258C12.6758 11.5723 12.876 11.8506 13.0469 12.0459C13.7842 12.8857 14.0967 13.7256 14.0479 14.7461C14.0088 15.5566 13.7549 16.2158 13.2324 16.8701C12.9004 17.2852 8.95508 21.1914 8.69141 21.3721C8.01758 21.8262 7.36816 22.0264 6.5918 22.0264C5.20508 22.0264 4.01367 21.2988 3.36914 20.0586C2.85156 19.0674 2.83691 17.8076 3.3252 16.8408C3.60352 16.2842 3.75488 16.1133 5.36133 14.4922L6.94336 12.9004L6.82129 12.417C6.75293 12.1533 6.66992 11.7529 6.64063 11.5283C6.58203 11.0791 6.57227 10.0244 6.62109 9.50684L6.65527 9.16504L6.48926 9.25781C6.39648 9.30664 5.23926 10.4248 3.91602 11.7432C1.37207 14.2725 1.12793 14.5508 0.698242 15.4004C0.219727 16.3525 0 17.2949 0 18.4082C0 19.2041 0.0927734 19.8291 0.317383 20.4883C0.664063 21.5332 1.20605 22.3926 1.99219 23.1543C3.26172 24.3848 4.79492 25 6.5918 25C7.70508 25 8.63281 24.7852 9.57031 24.3164C10.4199 23.8916 10.6836 23.6572 13.1494 21.2012C15.5127 18.8428 15.8105 18.501 16.2012 17.7734C16.7188 16.8164 16.9775 15.8838 17.0264 14.8193C17.0752 13.6865 16.8652 12.6709 16.3623 11.6455C15.7568 10.4199 14.873 9.47754 13.6963 8.81836C13.4766 8.69629 13.2861 8.59375 13.2715 8.59375C13.2568 8.59375 13.1348 8.71094 12.998 8.85254Z" fill="url(#paint3_linear_686_423)"/>
<path d="M0.830078 8.80371C0.576172 8.93555 0.439453 9.16992 0.439453 9.47266C0.439453 9.72168 0.561523 9.96094 0.751953 10.0879C0.966797 10.2246 2.43652 10.6006 2.68066 10.5811C3.07617 10.5371 3.33984 10.2441 3.33984 9.83887C3.33984 9.55566 3.25684 9.38965 3.02246 9.21875C2.90527 9.13086 1.33789 8.69141 1.14258 8.69141C1.08887 8.69141 0.947266 8.74023 0.830078 8.80371Z" fill="url(#paint4_linear_686_423)"/>
<path d="M22.041 14.4971C21.7725 14.6582 21.6797 14.8242 21.6797 15.1318C21.6797 15.4541 21.7969 15.6787 22.0166 15.7959C22.2656 15.9229 23.5938 16.2598 23.8525 16.2598C24.292 16.2598 24.5605 15.9814 24.5605 15.5273C24.5605 15.2441 24.4678 15.0488 24.2725 14.9121C24.126 14.8047 22.627 14.4043 22.3877 14.4043C22.2803 14.4043 22.124 14.4482 22.041 14.4971Z" fill="url(#paint5_linear_686_423)"/>
<path d="M19.3701 19.1016C19.0674 19.2773 18.9258 19.6777 19.043 20.0049C19.1064 20.1611 20.2734 21.3574 20.4687 21.4648C20.7715 21.626 21.2207 21.499 21.4209 21.1963C21.5527 21.001 21.5723 20.625 21.4648 20.4199C21.3623 20.2295 20.21 19.1065 20.0537 19.0479C19.8389 18.9648 19.5703 18.9893 19.3701 19.1016Z" fill="url(#paint6_linear_686_423)"/>
<path d="M14.9219 21.6797C14.6387 21.7676 14.4043 22.0947 14.4043 22.3975C14.4043 22.5977 14.8193 24.1016 14.9121 24.2481C15.1123 24.5459 15.5762 24.6533 15.918 24.4678C16.0938 24.375 16.3086 24.0381 16.3086 23.8574C16.3086 23.6621 15.8691 22.0947 15.7812 21.9775C15.5811 21.7041 15.2295 21.582 14.9219 21.6797Z" fill="url(#paint7_linear_686_423)"/>
</g>
<defs>
<linearGradient id="paint0_linear_686_423" x1="7.98633" y1="8.20953" x2="24.9991" y2="8.20953" gradientUnits="userSpaceOnUse">
<stop stop-color="#0AC2D4"/>
<stop offset="1" stop-color="#0AD4BC"/>
</linearGradient>
<linearGradient id="paint1_linear_686_423" x1="8.73047" y1="1.88142" x2="10.5869" y2="1.88142" gradientUnits="userSpaceOnUse">
<stop stop-color="#0AC2D4"/>
<stop offset="1" stop-color="#0AD4BC"/>
</linearGradient>
<linearGradient id="paint2_linear_686_423" x1="3.46484" y1="4.73416" x2="6.00347" y2="4.73416" gradientUnits="userSpaceOnUse">
<stop stop-color="#0AC2D4"/>
<stop offset="1" stop-color="#0AD4BC"/>
</linearGradient>
<linearGradient id="paint3_linear_686_423" x1="0" y1="16.7969" x2="17.0332" y2="16.7969" gradientUnits="userSpaceOnUse">
<stop stop-color="#0AC2D4"/>
<stop offset="1" stop-color="#0AD4BC"/>
</linearGradient>
<linearGradient id="paint4_linear_686_423" x1="0.439453" y1="9.6366" x2="3.33984" y2="9.6366" gradientUnits="userSpaceOnUse">
<stop stop-color="#0AC2D4"/>
<stop offset="1" stop-color="#0AD4BC"/>
</linearGradient>
<linearGradient id="paint5_linear_686_423" x1="21.6797" y1="15.332" x2="24.5605" y2="15.332" gradientUnits="userSpaceOnUse">
<stop stop-color="#0AC2D4"/>
<stop offset="1" stop-color="#0AD4BC"/>
</linearGradient>
<linearGradient id="paint6_linear_686_423" x1="19.002" y1="20.2668" x2="21.5342" y2="20.2668" gradientUnits="userSpaceOnUse">
<stop stop-color="#0AC2D4"/>
<stop offset="1" stop-color="#0AD4BC"/>
</linearGradient>
<linearGradient id="paint7_linear_686_423" x1="14.4043" y1="23.1029" x2="16.3086" y2="23.1029" gradientUnits="userSpaceOnUse">
<stop stop-color="#0AC2D4"/>
<stop offset="1" stop-color="#0AD4BC"/>
</linearGradient>
<clipPath id="clip0_686_423">
<rect width="25" height="25" fill="white"/>
</clipPath>
</defs>
</svg>
