<svg width="35" height="35" viewBox="0 0 35 35" fill="none" xmlns="http://www.w3.org/2000/svg">
<g clip-path="url(#clip0_556_307)">
<path d="M5.00208 4.91504H5.30833L5.6 4.94421L5.87708 5.03171L6.11042 5.14837L6.31458 5.27962L6.46042 5.39629L6.60625 5.54212L6.72292 5.64421L9.04167 7.96296L9.12917 8.06504L9.21667 8.13796L9.30417 8.24004L9.39167 8.31296V8.34212L9.45 8.37129L9.74167 8.66296L9.82917 8.76504L9.94583 8.86712L11.725 10.6463L11.8271 10.763L12.0167 10.9525L12.1479 11.113L12.3083 11.3171L12.425 11.5213L12.5125 11.7546L12.5708 11.988L12.5854 12.0755V12.615L12.5271 12.8921L12.4104 13.1546L12.2938 13.3734L12.1771 13.5338L12.0021 13.738L11.8854 13.8546L11.7833 13.9713L11.725 14.0296H11.6958V14.0588L11.025 14.7296H10.9958V14.7588L10.5583 15.1963H10.5292V15.2255L10.0917 15.663H10.0625V15.6921L9.94583 15.7942L9.75625 15.9838L9.74167 16.013H9.7125L9.68333 16.0713L9.56667 16.2025L9.43542 16.4213L9.34792 16.6255L9.30417 16.8442L9.28958 16.9317V17.165L9.34792 17.413L9.42083 17.588L9.5375 17.8067L9.74167 18.1275L9.8875 18.3317L10.0042 18.5067L10.1792 18.7546L10.3833 19.0317L10.5729 19.2942L10.6896 19.4838L10.7917 19.7025L10.8208 19.8338V19.9505L10.7771 20.0963L10.675 20.2421L10.5729 20.3588L10.3833 20.49L10.2813 20.5192L10.0333 20.5338L9.84375 20.4755L9.7125 20.388L9.5375 20.213L9.34792 19.965L9.20208 19.7755L9.02708 19.5275L8.82292 19.2359L8.58958 18.9005L8.44375 18.6671L8.32708 18.4775L8.1375 18.113L8.00625 17.7775L7.94792 17.588L7.90417 17.3109V16.8005L7.94792 16.4942L8.03542 16.188L8.18125 15.838L8.29792 15.6192L8.44375 15.4005L8.60417 15.1963L8.77917 15.0067L8.91042 14.8609H8.93958L8.96875 14.8025L10.7917 12.9796H10.8208L10.85 12.9213L11.0396 12.7317L11.1708 12.5275L11.2 12.3525L11.1708 12.163L11.0688 11.9734L10.8792 11.7546L6.15417 7.02962V7.00046L6.09583 6.97129L5.78958 6.66504L5.67292 6.56296L5.52708 6.43171L5.38125 6.34421L5.22083 6.28587H5.06042L4.88542 6.37337L4.65208 6.56296L3.25208 7.96296L3.15 8.07962L3.04792 8.18171L2.8875 8.38587L2.77083 8.51712L2.66875 8.64837L2.50833 8.88171L2.39167 9.07129L2.21667 9.37754L2.08542 9.62546L1.93958 9.96087L1.82292 10.2525L1.72083 10.5296L1.61875 10.8505L1.4875 11.4484L1.41458 11.8859L1.38542 12.2359L1.37083 12.7171L1.38542 13.0817L1.42917 13.5046L1.50208 13.8984L1.60417 14.3359L1.70625 14.6859L1.8375 15.0505L1.96875 15.3567L2.14375 15.7213L2.43542 16.3046L2.58125 16.5817L2.82917 17.0484L3.12083 17.5734L3.31042 17.8942L3.55833 18.3025L3.675 18.4921L3.7625 18.6525L3.98125 19.0025L4.15625 19.2796L4.36042 19.6005L4.50625 19.8192L4.92917 20.4463L5.08958 20.6796L5.26458 20.9275L5.45417 21.19L5.62917 21.438L5.83333 21.7005L5.96458 21.8755L6.15417 22.1234L6.28542 22.2984L6.46042 22.5171L6.5625 22.6484L6.69375 22.8088L6.81042 22.9546L7.33542 23.5963L7.51042 23.8005L7.64167 23.9463L7.74375 24.063L7.9625 24.2963L8.12292 24.4713L8.25417 24.6317L8.4 24.7775L8.50208 24.8942L8.72083 25.1275V25.1567H8.75L8.85208 25.2734L8.925 25.3463V25.3755H8.95417V25.4046H8.98333L9.08542 25.5213L9.87292 26.3088L9.98958 26.4109L10.1208 26.5421L10.2375 26.6442L10.4708 26.863L10.5 26.8775V26.9067L10.5583 26.9359L10.7771 27.14L10.9375 27.2713L11.0979 27.4317L11.2146 27.5338L11.3167 27.6359L11.4625 27.7525L11.6521 27.913L11.8125 28.0442L12.0167 28.2192L12.1771 28.3505L12.5854 28.6713L12.8479 28.8755L13.0813 29.065L13.3146 29.24L13.5917 29.4442L13.825 29.6192L14.0875 29.8088L14.3792 30.013L14.7 30.2317L15.3125 30.64L15.5896 30.815L15.8229 30.9609L16.3771 31.3109L16.7417 31.515L16.9896 31.6609L17.3542 31.8796L17.5875 32.0109L17.9229 32.2005L18.2583 32.3755L18.5792 32.5505L18.8125 32.6671L19.4688 32.988L19.9063 33.163L20.1396 33.2505L20.475 33.3525L20.8396 33.44L21.2333 33.513L21.7292 33.5713L22.1958 33.6005H22.4146L22.8958 33.5713L23.3479 33.513L23.8438 33.4109L24.2083 33.3088L24.675 33.1484L25.1854 32.9296L25.6375 32.6963L25.9729 32.4921L26.2063 32.3317L26.4833 32.1275L26.6438 31.9963L26.8479 31.8213L27.0083 31.6609L27.125 31.5588L27.5042 31.1796L27.5771 31.1213L27.6792 31.0046H27.7083V30.9755L27.825 30.8734L27.9563 30.7275L28.0438 30.6546L28.1458 30.538L28.2917 30.4067L28.3938 30.29L28.5104 30.1734L28.6417 29.9838L28.6708 29.8817L28.6563 29.7213L28.5833 29.5463L28.4667 29.3713L28.3063 29.1817L23.2896 24.165L23.1729 24.063L22.9833 23.888L22.7792 23.7713L22.6625 23.7275L22.5021 23.7421L22.3708 23.7859L22.2104 23.9025L22.0208 24.0775L19.8479 26.2505L19.7313 26.3525L19.5271 26.513L19.2792 26.6734L19.0458 26.79L18.6813 26.9213L18.4042 26.9942L18.0688 27.038H17.675L17.4125 27.0088L17.1208 26.9359L16.7708 26.79L16.4792 26.6442L16.1583 26.44L15.8375 26.2213L15.6333 26.0755L15.3854 25.9005L15.1083 25.6963L14.6417 25.3463L14.4083 25.1567L14.2042 24.9963L14.0583 24.865L13.9417 24.763L13.825 24.6463L13.7229 24.4859L13.6938 24.413L13.6792 24.2671L13.7229 24.063L13.825 23.8588L13.9125 23.7567L14.1167 23.6255L14.2333 23.5817H14.4667L14.6417 23.64L14.8896 23.7859L15.1958 24.0192L15.4 24.1796L15.5896 24.3255L15.8667 24.5296L16.0708 24.6755L16.5667 25.0255L16.7854 25.1713L16.9896 25.3171L17.3396 25.5213L17.4563 25.5796L17.7625 25.6525H18.0396L18.2729 25.6088L18.4625 25.5359L18.6958 25.4046L18.8417 25.288L19.0313 25.113L20.4313 23.713L20.5333 23.5963L20.9854 23.1442H21.0146L21.0292 23.1005L21.1458 22.9984L21.3208 22.838L21.5542 22.663L21.7583 22.5463L21.9188 22.4734L22.225 22.3859L22.5021 22.3421H22.6625L22.925 22.3713L23.2167 22.4442L23.4354 22.5317L23.625 22.6338L23.8292 22.7796L24.0042 22.94L24.2229 23.1442L26.3375 25.2588V25.288H26.3667L26.4542 25.39L26.5417 25.463L26.6438 25.5796L26.9208 25.8567L27.0083 25.9296L27.0958 26.0317L27.1833 26.1046L27.2708 26.2067L27.3438 26.2796L27.4167 26.338L27.5042 26.44L27.6208 26.5421L29.1958 28.1171V28.1463H29.225L29.3271 28.263L29.4292 28.365V28.3942H29.4583L29.5896 28.5546L29.7646 28.788L29.8958 29.0213L29.9979 29.2984L30.0417 29.5171V30.0567L30.0125 30.2317L29.9104 30.5088L29.7792 30.7567L29.6042 30.99L29.4292 31.1942L29.2979 31.34L29.2104 31.4421L29.0938 31.5442L28.9188 31.7338H28.8896V31.763H28.8604V31.7921L28.1313 32.5213H28.1021V32.5505L27.9854 32.6525L27.8542 32.7838L27.7375 32.8859L27.5917 33.0171L27.3875 33.1775L27.1688 33.3525L26.9208 33.5275L26.6 33.7317L26.2354 33.9505L25.8271 34.1692L25.5354 34.3005L25.1417 34.4609L24.4708 34.6796L23.9896 34.8109L23.1292 35.0005H21.2771V34.9713L20.9125 34.8838L19.8917 34.6213L19.4104 34.4609L19.0458 34.315L18.6813 34.1546L18.0979 33.863L17.8208 33.7171L17.3542 33.4692L16.975 33.265L16.3042 32.8859L16.0271 32.7255L15.6625 32.5067L15.3271 32.3025L15.0938 32.1567L14.8167 31.9817L14.2479 31.6025L13.825 31.3109L13.5479 31.1213L13.3 30.9463L13.0375 30.7567L12.7604 30.5525L12.5563 30.4067L12.3083 30.2171L12.075 30.0421L11.8563 29.8671L11.725 29.765L11.5354 29.6046L11.3313 29.4442L11.1417 29.2838L10.8938 29.0796L10.4854 28.7296L10.325 28.5984L10.1354 28.4234L10.0188 28.3213L9.87292 28.19L9.75625 28.088L9.61042 27.9567L9.39167 27.738L9.275 27.6359L9.07083 27.4317L8.98333 27.3588L7.81667 26.1921L7.72917 26.09L7.42292 25.7838L7.32083 25.6671L7.0875 25.4192L6.69375 24.9817L6.51875 24.7775L6.35833 24.588L6.22708 24.4275L6.05208 24.2234L5.92083 24.063L5.73125 23.8442L5.61458 23.6984L5.425 23.465L5.23542 23.2171L5.03125 22.9546L4.88542 22.765L4.53542 22.2984L4.38958 22.0942L4.2 21.8317L4.025 21.5838L3.79167 21.2484L3.39792 20.665L3.25208 20.4463L3.03333 20.1109L2.82917 19.79L2.61042 19.44L2.30417 18.9296L2.14375 18.6525L1.95417 18.3171L1.75 17.9525L1.56042 17.6025L1.38542 17.2817L1.18125 16.9025L1.03542 16.6255L0.91875 16.3921L0.685417 15.9109L0.510417 15.4734L0.379167 15.0942L0.277083 14.788L0.102083 14.0588L0.0291667 13.738L0 13.6942V11.463L0.0291667 11.4192L0.175 10.865L0.35 10.238L0.525 9.71296L0.714583 9.27546L0.91875 8.85254L1.07917 8.57546L1.3125 8.19629L1.44375 8.00671L1.63333 7.72962L1.75 7.58379L1.89583 7.39421L2.05625 7.20462L2.26042 6.98587L2.40625 6.84004L2.42083 6.81087H2.45V6.78171H2.47917V6.75254L2.58125 6.66504L2.59583 6.63587H2.625L2.65417 6.57754L3.68958 5.54212L3.80625 5.44004L3.96667 5.30879L4.22917 5.13379L4.47708 5.01712L4.66667 4.95879L5.00208 4.91504Z" fill="white"/>
<path d="M19.5854 0H21.4375L21.6417 0.04375L21.6708 0.0729167L22.2396 0.160417L23.0125 0.30625L23.625 0.452083L24.2083 0.597917L24.9667 0.845833L25.2 0.933333L25.5063 1.05L25.9438 1.23958L26.3229 1.41458L26.8042 1.64792L27.0813 1.79375L27.5042 2.02708L27.8104 2.21667L28.1604 2.43542L28.4521 2.63958L28.6854 2.8L28.9042 2.96042L29.1375 3.13542L29.2979 3.26667L29.4875 3.42708L29.6188 3.52917L29.8229 3.70417L29.9396 3.80625L30.1292 3.98125L30.2458 4.08333L30.4938 4.33125L30.6104 4.43333L30.7125 4.53542V4.56458L30.7708 4.59375L30.9313 4.76875L31.0333 4.87083L31.1354 4.9875L31.2958 5.1625L31.4271 5.32292L31.5583 5.46875L31.7479 5.71667L31.8938 5.90625L32.0979 6.18333L32.2583 6.40208L32.3896 6.59167L32.5354 6.81042L32.6958 7.05833L32.8708 7.35L33.075 7.7L33.2938 8.10833L33.5854 8.69167L33.775 9.12917L33.9354 9.50833L34.0958 9.93125L34.2708 10.4417L34.4458 11.0396L34.6792 11.9729L34.8104 12.6438L34.9271 13.3146L34.9708 13.5771L35 13.5625V15.3417L34.7813 15.5458L34.6792 15.6333L34.475 15.7354L34.4021 15.75H34.2708L34.0667 15.7063L33.8917 15.6188L33.775 15.5021L33.6438 15.2979L33.6146 15.0938L33.5563 13.9854L33.5125 13.5333L33.3958 12.7458L33.2792 12.1479L33.1479 11.5938L33.0313 11.1563L32.7833 10.3979L32.55 9.8L32.3604 9.3625L32.1854 8.99792L32.025 8.67708L31.85 8.35625L31.5875 7.91875L31.3542 7.53958L31.1063 7.175L30.9604 6.97083L30.8438 6.81042L30.6542 6.5625L30.4792 6.35833L30.3479 6.19792L30.2021 6.0375L30.1 5.92083L29.925 5.73125L29.7938 5.58542L29.6625 5.45417V5.425H29.6333L29.575 5.36667V5.3375H29.5458V5.30833L29.4875 5.27917L29.2833 5.075L29.1667 4.97292L28.9479 4.76875L28.4667 4.375L28.2188 4.18542L28.0292 4.03958L27.5917 3.73333L27.3 3.54375L27.0229 3.36875L26.8333 3.25208L26.4542 3.03333L26.0604 2.82917L25.8125 2.69792L25.5208 2.56667L25.2146 2.43542L24.7771 2.26042L24.2813 2.08542L23.8146 1.93958L23.2167 1.77917L22.7063 1.6625L22.225 1.575L21.3063 1.44375L20.8104 1.4L19.8917 1.35625L19.6729 1.32708L19.4979 1.23958L19.3813 1.12292L19.2646 0.889583L19.2208 0.772917L19.2063 0.714583V0.583333L19.25 0.466667L19.4104 0.21875L19.5563 0.0875L19.5854 0Z" fill="#0AC2D4"/>
<path d="M19.8042 4.09766L20.4312 4.11224L20.8833 4.14141L21.4083 4.19974L21.9771 4.28724L22.4729 4.38932L23.0271 4.53516L23.4792 4.68099L23.9312 4.84141L24.3979 5.04557L24.6896 5.17682L24.9667 5.32266L25.2583 5.48307L25.6521 5.71641L26.1771 6.06641L26.4396 6.25599L26.8187 6.54766L27.0083 6.70807L27.125 6.81016L27.2708 6.94141L27.3875 7.04349L27.5771 7.21849L27.9125 7.55391L28.0146 7.67057L28.175 7.84557L28.3208 8.00599L28.6417 8.41432L28.8312 8.67682L29.0208 8.95391L29.1667 9.17266L29.2833 9.36224L29.4583 9.65391L29.6333 9.97474L29.8083 10.3102L29.9396 10.6018L30.1 10.981L30.2604 11.4185L30.45 12.0018L30.6396 12.7602L30.7417 13.2706L30.8146 13.8247L30.8583 14.2768L30.8875 14.6997V15.1372L30.8146 15.356L30.7125 15.5164L30.5812 15.6331L30.4354 15.7206L30.3042 15.7643H30.1437L29.9542 15.7206L29.7792 15.6039L29.6771 15.5018L29.575 15.3414L29.5167 15.1518L29.4875 14.9185L29.4437 14.1164L29.3708 13.5768L29.2687 13.0518L29.1667 12.6143L29.05 12.206L28.8312 11.5789L28.6271 11.0977L28.3646 10.5581L28.175 10.2227L27.9271 9.79974L27.7375 9.52266L27.6062 9.34766L27.4458 9.14349L27.1833 8.83724V8.80807H27.1542L27.0229 8.64766L26.9792 8.60391V8.57474H26.95L26.8479 8.45807L26.7167 8.31224L26.4979 8.09349L26.3812 7.99141L26.2354 7.86016L26.075 7.72891L25.9292 7.59766L25.4625 7.24766L25.0833 6.99974L24.7917 6.82474L24.4854 6.64974L24.1354 6.46016L23.625 6.22682L23.1146 6.03724L22.6333 5.87682L22.1229 5.74557L21.525 5.61432L21.1167 5.55599L20.4312 5.49766L19.9792 5.46849L19.7312 5.43932L19.5708 5.38099L19.4396 5.27891L19.3083 5.13307L19.2208 4.95807L19.1917 4.87057V4.75391L19.2646 4.53516L19.3667 4.37474L19.4833 4.24349L19.6292 4.15599L19.8042 4.09766Z" fill="#0AC2D4"/>
<path d="M19.7896 8.20996H20.1542L20.8104 8.26829L21.2917 8.34121L21.7146 8.44329L22.1375 8.57454L22.4875 8.70579L22.7937 8.83704L23.2021 9.04121L23.5521 9.24538L23.8146 9.42038L24.0333 9.58079L24.2375 9.74121L24.4417 9.91621L24.6604 10.1204L24.9083 10.3683L25.0104 10.485L25.1708 10.66L25.3021 10.8204L25.4625 11.0245L25.6229 11.2579L25.7979 11.535L25.9729 11.8412L26.1479 12.2058L26.2937 12.5558L26.4833 13.0954L26.5854 13.4891L26.6875 13.9704L26.7604 14.4954L26.775 14.6558V15.1516L26.7167 15.312L26.6437 15.4433L26.4833 15.6183L26.3521 15.7058L26.2208 15.7495H25.9437L25.7979 15.7058L25.6667 15.6037L25.5937 15.5308L25.4771 15.385L25.4333 15.2829L25.3896 14.8308L25.3458 14.4079L25.2875 14.0725L25.1562 13.5475L25.025 13.1537L24.85 12.7308L24.675 12.3808L24.4562 12.0162L24.3104 11.812L24.1792 11.637L23.9896 11.4037L23.7562 11.1558L23.6979 11.112V11.0829L23.6396 11.0537L23.45 10.8787L23.2021 10.6891L22.8958 10.485L22.6042 10.31L22.3417 10.1641L21.9625 9.98913L21.5396 9.82871L21.2042 9.74121L20.65 9.63913L20.2562 9.59538L19.7604 9.55163L19.5708 9.49329L19.4542 9.40579L19.3375 9.27454L19.2208 9.04121L19.1917 8.89538L19.2354 8.70579L19.3083 8.55996L19.3958 8.44329H19.425V8.41413H19.4542V8.38496L19.6437 8.26829L19.7458 8.22454L19.7896 8.20996Z" fill="#0AC2D4"/>
<path d="M19.8042 12.3232H20.0958L20.3729 12.367L20.7083 12.4399L21 12.542L21.2333 12.6587L21.4667 12.7899L21.7292 12.9941L21.9771 13.242L22.1375 13.4462L22.2833 13.6795L22.4 13.9128L22.5167 14.1899L22.6188 14.5545L22.6625 14.817V15.1378L22.6188 15.2982L22.5313 15.4441L22.4 15.5899L22.2542 15.692L22.1375 15.7503H21.8896L21.7146 15.7066L21.5542 15.6191L21.4521 15.517L21.3208 15.3128L21.2771 15.1232L21.2188 14.7295L21.175 14.5545L21.0729 14.3503L20.9708 14.2045L20.8688 14.0878V14.0587L20.8104 14.0295L20.6354 13.8982L20.3875 13.7816L20.1104 13.7232H19.9646L19.7313 13.6795L19.5708 13.6066L19.4396 13.5191L19.3667 13.4462L19.2938 13.3295L19.2354 13.1691L19.2063 13.0232L19.2646 12.7899L19.3667 12.6003L19.425 12.5274L19.6292 12.3816L19.7458 12.3378L19.8042 12.3232Z" fill="#0AC2D4"/>
<path d="M11.9875 21.4961H12.1917L12.3375 21.5398L12.5125 21.6273L12.6875 21.7878L12.775 21.919L12.8187 22.0794V22.269L12.7604 22.444L12.6583 22.6044L12.4833 22.7794L12.3083 22.8523L12.2354 22.8669H12.0458L11.8708 22.8232L11.7104 22.7211L11.5937 22.6044L11.4625 22.4003L11.4187 22.2398V22.1232L11.4625 21.9482L11.5646 21.7732L11.6521 21.6711L11.8562 21.5398L11.9875 21.4961Z" fill="white"/>
<path d="M21.8021 0H22.0937V0.0145833L21.9917 0.0291667H21.8021V0Z" fill="white"/>
<path d="M23.1729 34.9854H23.2458V34.9999H23.1729V34.9854Z" fill="white"/>
<path d="M0 11.375H0.0145833V11.4479H0V11.375Z" fill="white"/>
</g>
<defs>
<clipPath id="clip0_556_307">
<rect width="35" height="35" fill="white"/>
</clipPath>
</defs>
</svg>
