<svg width="70" height="70" viewBox="0 0 70 70" fill="none" xmlns="http://www.w3.org/2000/svg">
<g clip-path="url(#clip0_529_513)">
<path d="M10.0042 9.8291H10.6167L11.2 9.88743L11.7542 10.0624L12.2208 10.2958L12.6292 10.5583L12.9208 10.7916L13.2125 11.0833L13.4458 11.2874L18.0833 15.9249L18.2583 16.1291L18.4333 16.2749L18.6083 16.4791L18.7833 16.6249V16.6833L18.9 16.7416L19.4833 17.3249L19.6583 17.5291L19.8917 17.7333L23.45 21.2916L23.6542 21.5249L24.0333 21.9041L24.2958 22.2249L24.6167 22.6333L24.85 23.0416L25.025 23.5083L25.1417 23.9749L25.1708 24.1499V25.2291L25.0542 25.7833L24.8208 26.3083L24.5875 26.7458L24.3542 27.0666L24.0042 27.4749L23.7708 27.7083L23.5667 27.9416L23.45 28.0583H23.3917V28.1166L22.05 29.4583H21.9917V29.5166L21.1167 30.3916H21.0583V30.4499L20.1833 31.3249H20.125V31.3833L19.8917 31.5874L19.5125 31.9666L19.4833 32.0249H19.425L19.3667 32.1416L19.1333 32.4041L18.8708 32.8416L18.6958 33.2499L18.6083 33.6874L18.5792 33.8624V34.3291L18.6958 34.8249L18.8417 35.1749L19.075 35.6124L19.4833 36.2541L19.775 36.6624L20.0083 37.0124L20.3583 37.5083L20.7667 38.0624L21.1458 38.5874L21.3792 38.9666L21.5833 39.4041L21.6417 39.6666V39.8999L21.5542 40.1916L21.35 40.4833L21.1458 40.7166L20.7667 40.9791L20.5625 41.0374L20.0667 41.0666L19.6875 40.9499L19.425 40.7749L19.075 40.4249L18.6958 39.9291L18.4042 39.5499L18.0542 39.0541L17.6458 38.4708L17.1792 37.7999L16.8875 37.3333L16.6542 36.9541L16.275 36.2249L16.0125 35.5541L15.8958 35.1749L15.8083 34.6208V33.5999L15.8958 32.9874L16.0708 32.3749L16.3625 31.6749L16.5958 31.2374L16.8875 30.7999L17.2083 30.3916L17.5583 30.0124L17.8208 29.7208H17.8792L17.9375 29.6041L21.5833 25.9583H21.6417L21.7 25.8416L22.0792 25.4624L22.3417 25.0541L22.4 24.7041L22.3417 24.3249L22.1375 23.9458L21.7583 23.5083L12.3083 14.0583V13.9999L12.1917 13.9416L11.5792 13.3291L11.3458 13.1249L11.0542 12.8624L10.7625 12.6874L10.4417 12.5708H10.1208L9.77083 12.7458L9.30417 13.1249L6.50417 15.9249L6.3 16.1583L6.09583 16.3624L5.775 16.7708L5.54167 17.0333L5.3375 17.2958L5.01667 17.7624L4.78333 18.1416L4.43333 18.7541L4.17083 19.2499L3.87917 19.9208L3.64583 20.5041L3.44166 21.0583L3.2375 21.6999L2.975 22.8958L2.82916 23.7708L2.77083 24.4708L2.74166 25.4333L2.77083 26.1624L2.85833 27.0083L3.00416 27.7958L3.20833 28.6708L3.4125 29.3708L3.675 30.0999L3.9375 30.7124L4.2875 31.4416L4.87083 32.6083L5.1625 33.1624L5.65833 34.0958L6.24167 35.1458L6.62083 35.7874L7.11667 36.6041L7.35 36.9833L7.525 37.3041L7.9625 38.0041L8.3125 38.5583L8.72083 39.1999L9.0125 39.6374L9.85833 40.8916L10.1792 41.3583L10.5292 41.8541L10.9083 42.3791L11.2583 42.8749L11.6667 43.3999L11.9292 43.7499L12.3083 44.2458L12.5708 44.5958L12.9208 45.0333L13.125 45.2958L13.3875 45.6166L13.6208 45.9083L14.6708 47.1916L15.0208 47.5999L15.2833 47.8916L15.4875 48.1249L15.925 48.5916L16.2458 48.9416L16.5083 49.2624L16.8 49.5541L17.0042 49.7874L17.4417 50.2541V50.3124H17.5L17.7042 50.5458L17.85 50.6916V50.7499H17.9083V50.8083H17.9667L18.1708 51.0416L19.7458 52.6166L19.9792 52.8208L20.2417 53.0833L20.475 53.2874L20.9417 53.7249L21 53.7541V53.8124L21.1167 53.8708L21.5542 54.2791L21.875 54.5416L22.1958 54.8624L22.4292 55.0666L22.6333 55.2708L22.925 55.5041L23.3042 55.8249L23.625 56.0874L24.0333 56.4374L24.3542 56.6999L25.1708 57.3416L25.6958 57.7499L26.1625 58.1291L26.6292 58.4791L27.1833 58.8874L27.65 59.2374L28.175 59.6166L28.7583 60.0249L29.4 60.4624L30.625 61.2791L31.1792 61.6291L31.6458 61.9208L32.7542 62.6208L33.4833 63.0291L33.9792 63.3208L34.7083 63.7583L35.175 64.0208L35.8458 64.3999L36.5167 64.7499L37.1583 65.0999L37.625 65.3333L38.9375 65.9749L39.8125 66.3249L40.2792 66.4999L40.95 66.7041L41.6792 66.8791L42.4667 67.0249L43.4583 67.1416L44.3917 67.1999H44.8292L45.7917 67.1416L46.6958 67.0249L47.6875 66.8208L48.4167 66.6166L49.35 66.2958L50.3708 65.8583L51.275 65.3916L51.9458 64.9833L52.4125 64.6624L52.9667 64.2541L53.2875 63.9916L53.6958 63.6416L54.0167 63.3208L54.25 63.1166L55.0083 62.3583L55.1542 62.2416L55.3583 62.0083H55.4167V61.9499L55.65 61.7458L55.9125 61.4541L56.0875 61.3083L56.2917 61.0749L56.5833 60.8124L56.7875 60.5791L57.0208 60.3458L57.2833 59.9666L57.3417 59.7624L57.3125 59.4416L57.1667 59.0916L56.9333 58.7416L56.6125 58.3624L46.5792 48.3291L46.3458 48.1249L45.9667 47.7749L45.5583 47.5416L45.325 47.4541L45.0042 47.4833L44.7417 47.5708L44.4208 47.8041L44.0417 48.1541L39.6958 52.4999L39.4625 52.7041L39.0542 53.0249L38.5583 53.3458L38.0917 53.5791L37.3625 53.8416L36.8083 53.9874L36.1375 54.0749H35.35L34.825 54.0166L34.2417 53.8708L33.5417 53.5791L32.9583 53.2874L32.3167 52.8791L31.675 52.4416L31.2667 52.1499L30.7708 51.7999L30.2167 51.3916L29.2833 50.6916L28.8167 50.3124L28.4083 49.9916L28.1167 49.7291L27.8833 49.5249L27.65 49.2916L27.4458 48.9708L27.3875 48.8249L27.3583 48.5333L27.4458 48.1249L27.65 47.7166L27.825 47.5124L28.2333 47.2499L28.4667 47.1624H28.9333L29.2833 47.2791L29.7792 47.5708L30.3917 48.0374L30.8 48.3583L31.1792 48.6499L31.7333 49.0583L32.1417 49.3499L33.1333 50.0499L33.5708 50.3416L33.9792 50.6333L34.6792 51.0416L34.9125 51.1583L35.525 51.3041H36.0792L36.5458 51.2166L36.925 51.0708L37.3917 50.8083L37.6833 50.5749L38.0625 50.2249L40.8625 47.4249L41.0667 47.1916L41.9708 46.2874H42.0292L42.0583 46.1999L42.2917 45.9958L42.6417 45.6749L43.1083 45.3249L43.5167 45.0916L43.8375 44.9458L44.45 44.7708L45.0042 44.6833H45.325L45.85 44.7416L46.4333 44.8874L46.8708 45.0624L47.25 45.2666L47.6583 45.5583L48.0083 45.8791L48.4458 46.2874L52.675 50.5166V50.5749H52.7333L52.9083 50.7791L53.0833 50.9249L53.2875 51.1583L53.8417 51.7124L54.0167 51.8583L54.1917 52.0624L54.3667 52.2083L54.5417 52.4124L54.6875 52.5583L54.8333 52.6749L55.0083 52.8791L55.2417 53.0833L58.3917 56.2333V56.2916H58.45L58.6542 56.5249L58.8583 56.7291V56.7874H58.9167L59.1792 57.1083L59.5292 57.5749L59.7917 58.0416L59.9958 58.5958L60.0833 59.0333V60.1124L60.025 60.4624L59.8208 61.0166L59.5583 61.5124L59.2083 61.9791L58.8583 62.3874L58.5958 62.6791L58.4208 62.8833L58.1875 63.0874L57.8375 63.4666H57.7792V63.5249H57.7208V63.5833L56.2625 65.0416H56.2042V65.0999L55.9708 65.3041L55.7083 65.5666L55.475 65.7708L55.1833 66.0333L54.775 66.3541L54.3375 66.7041L53.8417 67.0541L53.2 67.4624L52.4708 67.8999L51.6542 68.3374L51.0708 68.5999L50.2833 68.9208L48.9417 69.3583L47.9792 69.6208L46.2583 69.9999H42.5542V69.9416L41.825 69.7666L39.7833 69.2416L38.8208 68.9208L38.0917 68.6291L37.3625 68.3083L36.1958 67.7249L35.6417 67.4333L34.7083 66.9374L33.95 66.5291L32.6083 65.7708L32.0542 65.4499L31.325 65.0124L30.6542 64.6041L30.1875 64.3124L29.6333 63.9624L28.4958 63.2041L27.65 62.6208L27.0958 62.2416L26.6 61.8916L26.075 61.5124L25.5208 61.1041L25.1125 60.8124L24.6167 60.4333L24.15 60.0833L23.7125 59.7333L23.45 59.5291L23.0708 59.2083L22.6625 58.8874L22.2833 58.5666L21.7875 58.1583L20.9708 57.4583L20.65 57.1958L20.2708 56.8458L20.0375 56.6416L19.7458 56.3791L19.5125 56.1749L19.2208 55.9124L18.7833 55.4749L18.55 55.2708L18.1417 54.8624L17.9667 54.7166L15.6333 52.3833L15.4583 52.1791L14.8458 51.5666L14.6417 51.3333L14.175 50.8374L13.3875 49.9624L13.0375 49.5541L12.7167 49.1749L12.4542 48.8541L12.1042 48.4458L11.8417 48.1249L11.4625 47.6874L11.2292 47.3958L10.85 46.9291L10.4708 46.4333L10.0625 45.9083L9.77083 45.5291L9.07083 44.5958L8.77917 44.1874L8.4 43.6624L8.05 43.1666L7.58333 42.4958L6.79583 41.3291L6.50417 40.8916L6.06667 40.2208L5.65833 39.5791L5.22083 38.8791L4.60833 37.8583L4.2875 37.3041L3.90833 36.6333L3.5 35.9041L3.12083 35.2041L2.77083 34.5624L2.3625 33.8041L2.07083 33.2499L1.8375 32.7833L1.37083 31.8208L1.02083 30.9458L0.758331 30.1874L0.554165 29.5749L0.204165 28.1166L0.0583314 27.4749L-1.90735e-06 27.3874V22.9249L0.0583314 22.8374L0.349998 21.7291L0.699998 20.4749L1.05 19.4249L1.42916 18.5499L1.8375 17.7041L2.15833 17.1499L2.625 16.3916L2.8875 16.0124L3.26666 15.4583L3.5 15.1666L3.79167 14.7874L4.1125 14.4083L4.52083 13.9708L4.8125 13.6791L4.84167 13.6208H4.9V13.5624H4.95833V13.5041L5.1625 13.3291L5.19167 13.2708H5.25L5.30833 13.1541L7.37917 11.0833L7.6125 10.8791L7.93333 10.6166L8.45833 10.2666L8.95417 10.0333L9.33333 9.9166L10.0042 9.8291Z" fill="#263849"/>
<path d="M39.1708 0H42.875L43.2833 0.0875L43.3417 0.145833L44.4792 0.320833L46.025 0.6125L47.25 0.904167L48.4167 1.19583L49.9333 1.69167L50.4 1.86667L51.0125 2.1L51.8875 2.47917L52.6458 2.82917L53.6083 3.29583L54.1625 3.5875L55.0083 4.05417L55.6208 4.43333L56.3208 4.87083L56.9042 5.27917L57.3708 5.6L57.8083 5.92083L58.275 6.27083L58.5958 6.53333L58.975 6.85417L59.2375 7.05833L59.6458 7.40833L59.8792 7.6125L60.2583 7.9625L60.4917 8.16667L60.9875 8.6625L61.2208 8.86667L61.425 9.07083V9.12917L61.5417 9.1875L61.8625 9.5375L62.0667 9.74167L62.2708 9.975L62.5917 10.325L62.8542 10.6458L63.1167 10.9375L63.4958 11.4333L63.7875 11.8125L64.1958 12.3667L64.5167 12.8042L64.7792 13.1833L65.0708 13.6208L65.3917 14.1167L65.7417 14.7L66.15 15.4L66.5875 16.2167L67.1708 17.3833L67.55 18.2583L67.8708 19.0167L68.1917 19.8625L68.5417 20.8833L68.8917 22.0792L69.3583 23.9458L69.6208 25.2875L69.8542 26.6292L69.9417 27.1542L70 27.125V30.6833L69.5625 31.0917L69.3583 31.2667L68.95 31.4708L68.8042 31.5H68.5417L68.1333 31.4125L67.7833 31.2375L67.55 31.0042L67.2875 30.5958L67.2292 30.1875L67.1125 27.9708L67.025 27.0667L66.7917 25.4917L66.5583 24.2958L66.2958 23.1875L66.0625 22.3125L65.5667 20.7958L65.1 19.6L64.7208 18.725L64.3708 17.9958L64.05 17.3542L63.7 16.7125L63.175 15.8375L62.7083 15.0792L62.2125 14.35L61.9208 13.9417L61.6875 13.6208L61.3083 13.125L60.9583 12.7167L60.6958 12.3958L60.4042 12.075L60.2 11.8417L59.85 11.4625L59.5875 11.1708L59.325 10.9083V10.85H59.2667L59.15 10.7333V10.675H59.0917V10.6167L58.975 10.5583L58.5667 10.15L58.3333 9.94583L57.8958 9.5375L56.9333 8.75L56.4375 8.37083L56.0583 8.07917L55.1833 7.46667L54.6 7.0875L54.0458 6.7375L53.6667 6.50417L52.9083 6.06667L52.1208 5.65833L51.625 5.39583L51.0417 5.13333L50.4292 4.87083L49.5542 4.52083L48.5625 4.17083L47.6292 3.87917L46.4333 3.55833L45.4125 3.325L44.45 3.15L42.6125 2.8875L41.6208 2.8L39.7833 2.7125L39.3458 2.65417L38.9958 2.47917L38.7625 2.24583L38.5292 1.77917L38.4417 1.54583L38.4125 1.42917V1.16667L38.5 0.933333L38.8208 0.4375L39.1125 0.175L39.1708 0Z" fill="#0AC2D4"/>
<path d="M39.6083 8.1958L40.8625 8.22497L41.7667 8.2833L42.8167 8.39997L43.9542 8.57497L44.9458 8.77913L46.0542 9.0708L46.9583 9.36247L47.8625 9.6833L48.7958 10.0916L49.3792 10.3541L49.9333 10.6458L50.5167 10.9666L51.3042 11.4333L52.3542 12.1333L52.8792 12.5125L53.6375 13.0958L54.0167 13.4166L54.25 13.6208L54.5417 13.8833L54.775 14.0875L55.1542 14.4375L55.825 15.1083L56.0292 15.3416L56.35 15.6916L56.6417 16.0125L57.2833 16.8291L57.6625 17.3541L58.0417 17.9083L58.3333 18.3458L58.5667 18.725L58.9167 19.3083L59.2667 19.95L59.6167 20.6208L59.8792 21.2041L60.2 21.9625L60.5208 22.8375L60.9 24.0041L61.2792 25.5208L61.4833 26.5416L61.6292 27.65L61.7167 28.5541L61.775 29.4V30.275L61.6292 30.7125L61.425 31.0333L61.1625 31.2666L60.8708 31.4416L60.6083 31.5291H60.2875L59.9083 31.4416L59.5583 31.2083L59.3542 31.0041L59.15 30.6833L59.0333 30.3041L58.975 29.8375L58.8875 28.2333L58.7417 27.1541L58.5375 26.1041L58.3333 25.2291L58.1 24.4125L57.6625 23.1583L57.2542 22.1958L56.7292 21.1166L56.35 20.4458L55.8542 19.6L55.475 19.0458L55.2125 18.6958L54.8917 18.2875L54.3667 17.675V17.6166H54.3083L54.0458 17.2958L53.9583 17.2083V17.15H53.9L53.6958 16.9166L53.4333 16.625L52.9958 16.1875L52.7625 15.9833L52.4708 15.7208L52.15 15.4583L51.8583 15.1958L50.925 14.4958L50.1667 14L49.5833 13.65L48.9708 13.3L48.2708 12.9208L47.25 12.4541L46.2292 12.075L45.2667 11.7541L44.2458 11.4916L43.05 11.2291L42.2333 11.1125L40.8625 10.9958L39.9583 10.9375L39.4625 10.8791L39.1417 10.7625L38.8792 10.5583L38.6167 10.2666L38.4417 9.91663L38.3833 9.74163V9.5083L38.5292 9.0708L38.7333 8.74997L38.9667 8.48747L39.2583 8.31247L39.6083 8.1958Z" fill="#0AC2D4"/>
<path d="M39.5792 16.4209H40.3083L41.6208 16.5376L42.5833 16.6834L43.4292 16.8876L44.275 17.1501L44.975 17.4126L45.5875 17.6751L46.4042 18.0834L47.1042 18.4917L47.6292 18.8417L48.0667 19.1626L48.475 19.4834L48.8833 19.8334L49.3208 20.2417L49.8167 20.7376L50.0208 20.9709L50.3417 21.3209L50.6042 21.6417L50.925 22.0501L51.2458 22.5167L51.5958 23.0709L51.9458 23.6834L52.2958 24.4126L52.5875 25.1126L52.9667 26.1917L53.1708 26.9792L53.375 27.9417L53.5208 28.9917L53.55 29.3126V30.3042L53.4333 30.6251L53.2875 30.8876L52.9667 31.2376L52.7042 31.4126L52.4417 31.5001H51.8875L51.5958 31.4126L51.3333 31.2084L51.1875 31.0626L50.9542 30.7709L50.8667 30.5667L50.7792 29.6626L50.6917 28.8167L50.575 28.1459L50.3125 27.0959L50.05 26.3084L49.7 25.4626L49.35 24.7626L48.9125 24.0334L48.6208 23.6251L48.3583 23.2751L47.9792 22.8084L47.5125 22.3126L47.3958 22.2251V22.1667L47.2792 22.1084L46.9 21.7584L46.4042 21.3792L45.7917 20.9709L45.2083 20.6209L44.6833 20.3292L43.925 19.9792L43.0792 19.6584L42.4083 19.4834L41.3 19.2792L40.5125 19.1917L39.5208 19.1042L39.1417 18.9876L38.9083 18.8126L38.675 18.5501L38.4417 18.0834L38.3833 17.7917L38.4708 17.4126L38.6167 17.1209L38.7917 16.8876H38.85V16.8292H38.9083V16.7709L39.2875 16.5376L39.4917 16.4501L39.5792 16.4209Z" fill="#0AC2D4"/>
<path d="M39.6083 24.646H40.1917L40.7458 24.7335L41.4167 24.8793L42 25.0835L42.4667 25.3168L42.9333 25.5793L43.4583 25.9877L43.9542 26.4835L44.275 26.8918L44.5667 27.3585L44.8 27.8252L45.0333 28.3793L45.2375 29.1085L45.325 29.6335V30.2752L45.2375 30.596L45.0625 30.8877L44.8 31.1793L44.5083 31.3835L44.275 31.5002H43.7792L43.4292 31.4127L43.1083 31.2377L42.9042 31.0335L42.6417 30.6252L42.5542 30.246L42.4375 29.4585L42.35 29.1085L42.1458 28.7002L41.9417 28.4085L41.7375 28.1752V28.1168L41.6208 28.0585L41.2708 27.796L40.775 27.5627L40.2208 27.446H39.9292L39.4625 27.3585L39.1417 27.2127L38.8792 27.0377L38.7333 26.8918L38.5875 26.6585L38.4708 26.3377L38.4125 26.046L38.5292 25.5793L38.7333 25.2002L38.85 25.0543L39.2583 24.7627L39.4917 24.6752L39.6083 24.646Z" fill="#0AC2D4"/>
<path d="M23.975 42.9917H24.3833L24.675 43.0792L25.025 43.2542L25.375 43.575L25.55 43.8375L25.6375 44.1584V44.5375L25.5208 44.8875L25.3167 45.2084L24.9667 45.5584L24.6167 45.7042L24.4708 45.7334H24.0917L23.7417 45.6459L23.4208 45.4417L23.1875 45.2084L22.925 44.8L22.8375 44.4792V44.2459L22.925 43.8959L23.1292 43.5459L23.3042 43.3417L23.7125 43.0792L23.975 42.9917Z" fill="#263849"/>
<path d="M43.6042 0H44.1875V0.0291667L43.9833 0.0583333H43.6042V0Z" fill="#263849"/>
<path d="M46.3458 69.9707H46.4917V69.9999H46.3458V69.9707Z" fill="#263849"/>
<path d="M-1.90735e-06 22.75H0.0291648V22.8958H-1.90735e-06V22.75Z" fill="#263849"/>
</g>
<defs>
<clipPath id="clip0_529_513">
<rect width="70" height="70" fill="white"/>
</clipPath>
</defs>
</svg>
