<svg width="50" height="50" viewBox="0 0 50 50" fill="none" xmlns="http://www.w3.org/2000/svg">
<rect width="50" height="50" rx="25" fill="url(#paint0_linear_391_391)"/>
<path d="M37.5595 10.5873C35.56 10.6153 34.4958 10.6937 32.9948 10.929C28.7214 11.5955 24.644 13.3653 21.0427 16.1154C19.9786 16.9219 18.0407 18.7813 17.1445 19.8343L16.3996 20.7136L15.7611 20.848C14.4618 21.1169 12.8711 21.789 11.7398 22.5507C11.0173 23.038 9.1858 24.8919 8.72093 25.6144C8.00402 26.7345 7.68477 27.4794 7.03507 29.5405L6.5646 31.0415L8.02641 29.6469C9.24179 28.4988 9.58904 28.1963 10.0707 27.9163C10.7988 27.4794 11.7061 27.0761 12.367 26.8969L12.8711 26.7625L12.5127 27.7146C12.3054 28.2355 12.0534 29.0028 11.9358 29.4117L11.7341 30.1622L15.7779 34.2059L19.8272 38.2553L20.6562 38.0201C21.1098 37.8912 21.8771 37.628 22.3532 37.4432L23.2269 37.1071L23.0869 37.6168C22.9021 38.2833 22.4988 39.1906 22.0507 39.9523C21.7371 40.4676 21.5355 40.7028 20.6897 41.5486C20.1409 42.0862 19.4352 42.7471 19.1327 43.016C18.7631 43.3296 18.6062 43.4976 18.679 43.492C18.7463 43.492 19.6144 43.2288 20.6169 42.8983C23.5125 41.963 24.7391 41.2293 26.3466 39.5098C27.8308 37.9136 28.6653 36.3174 29.119 34.2283L29.2534 33.5898L30.3119 32.6768C34.0869 29.3948 36.8705 25.0765 38.2987 20.2767C38.6796 19.0333 39.0717 17.073 39.2173 15.7512C39.3405 14.6759 39.4077 10.7329 39.3069 10.6321C39.2733 10.5985 38.4836 10.5817 37.5595 10.5873ZM37.9459 13.2813C37.9347 13.931 37.8731 14.9671 37.8059 15.572C37.6939 16.5689 37.369 18.4284 37.2122 18.9213L37.1506 19.1173L34.003 15.9697L30.8609 12.8276L31.2866 12.7156C31.9419 12.542 33.3813 12.29 34.4678 12.1667C35.476 12.0547 37.8507 11.9763 37.9291 12.0547C37.9515 12.0771 37.9627 12.626 37.9459 13.2813ZM36.3441 21.6041C35.3583 24.214 33.8909 26.712 32.0314 28.9411C31.1353 30.0165 29.1414 31.8983 28.0492 32.6993C25.8257 34.3403 23.7142 35.4549 21.2666 36.3118L20.2081 36.6759L16.7636 33.2314L13.3136 29.7813L13.4312 29.3613C13.9297 27.6082 15.201 24.9478 16.4388 23.0716C18.1415 20.5064 20.5834 18.042 23.1486 16.317C24.9521 15.096 27.0916 14.0206 28.811 13.4549L29.3039 13.2869L32.9948 17.0002L36.6801 20.7191L36.3441 21.6041ZM13.7616 24.8414L13.6048 25.1775L12.9327 25.3007C12.2158 25.4351 11.1517 25.7712 10.5412 26.0568C10.0035 26.3032 9.9587 26.292 10.2275 25.9448C11.4205 24.4046 12.7591 23.3796 14.4786 22.7019L15.1619 22.4219L14.5402 23.4692C14.1985 24.0349 13.8513 24.6622 13.7616 24.8414ZM26.8842 36.3846C26.4586 37.2135 25.8929 38.0032 25.2096 38.6977C24.5543 39.3642 23.8318 39.9635 23.7646 39.8963C23.7422 39.8739 23.815 39.6779 23.9158 39.4538C24.2015 38.8546 24.4871 37.9752 24.6607 37.1295L24.8176 36.3678L25.6409 35.9253C26.0889 35.6789 26.7106 35.326 27.0131 35.1356L27.5563 34.7828L27.3547 35.3092C27.2427 35.6005 27.0299 36.0821 26.8842 36.3846Z" fill="url(#paint1_linear_391_391)"/>
<path d="M28.8789 19.4249C28.1564 19.0048 27.4619 18.8256 26.5602 18.82C25.5913 18.8144 24.9248 18.9992 24.1014 19.4865C21.9563 20.7579 21.2338 23.6535 22.5276 25.8322C22.662 26.0562 22.9924 26.4651 23.2557 26.7283C24.1854 27.6581 25.1767 28.0669 26.5097 28.0781C29.1477 28.0949 31.1696 26.073 31.1584 23.4294C31.1584 22.5109 30.9736 21.7996 30.5367 21.0715C30.2287 20.5506 29.3942 19.7273 28.8789 19.4249ZM29.4726 22.0684C29.8366 22.8806 29.859 23.7767 29.5342 24.6728C29.383 25.1041 29.2933 25.2273 28.8005 25.7202C28.3076 26.213 28.1844 26.3027 27.7531 26.4539C26.6946 26.8403 25.664 26.7395 24.7455 26.157C24.3086 25.877 24.1798 25.7594 23.9278 25.3953C23.2781 24.4656 23.1269 23.4295 23.4853 22.3877C23.6926 21.7772 23.7206 21.7268 24.2639 21.1835C24.8071 20.6403 24.8575 20.6123 25.468 20.405C26.4426 20.069 27.5291 20.2034 28.3524 20.7355C28.7557 21.0043 29.2766 21.6148 29.4726 22.0684Z" fill="url(#paint2_linear_391_391)"/>
<path d="M13.2017 35.797L11.5495 37.4828L12.0256 37.9589L12.5016 38.435L14.1875 36.7827L15.8621 35.1305L15.358 34.6264L14.854 34.1223L13.2017 35.797Z" fill="url(#paint3_linear_391_391)"/>
<path d="M9.44912 34.8216L7.79688 36.4739L8.30094 36.9779L8.80501 37.482L10.4573 35.8298L12.1095 34.1775L11.6054 33.6735L11.1014 33.1694L9.44912 34.8216Z" fill="url(#paint4_linear_391_391)"/>
<path d="M14.1552 39.5262L12.5029 41.1785L12.979 41.6545L13.4551 42.1306L15.1073 40.4784L16.7595 38.8261L16.2835 38.35L15.8074 37.874L14.1552 39.5262Z" fill="url(#paint5_linear_391_391)"/>
<defs>
<linearGradient id="paint0_linear_391_391" x1="0" y1="25" x2="50" y2="25" gradientUnits="userSpaceOnUse">
<stop stop-color="#0AC2D4"/>
<stop offset="1" stop-color="#0AD4BC"/>
</linearGradient>
<linearGradient id="paint1_linear_391_391" x1="20.8261" y1="18.9009" x2="30.875" y2="28.9498" gradientUnits="userSpaceOnUse">
<stop stop-color="#263849"/>
<stop offset="1" stop-color="#41506B"/>
</linearGradient>
<linearGradient id="paint2_linear_391_391" x1="24.3969" y1="21.3235" x2="28.5705" y2="25.4971" gradientUnits="userSpaceOnUse">
<stop stop-color="#263849"/>
<stop offset="1" stop-color="#41506B"/>
</linearGradient>
<linearGradient id="paint3_linear_391_391" x1="13.3656" y1="35.9664" x2="14.0038" y2="36.6047" gradientUnits="userSpaceOnUse">
<stop stop-color="#263849"/>
<stop offset="1" stop-color="#41506B"/>
</linearGradient>
<linearGradient id="paint4_linear_391_391" x1="9.62696" y1="34.9995" x2="10.2652" y2="35.6377" gradientUnits="userSpaceOnUse">
<stop stop-color="#263849"/>
<stop offset="1" stop-color="#41506B"/>
</linearGradient>
<linearGradient id="paint5_linear_391_391" x1="14.3231" y1="39.6942" x2="14.9259" y2="40.297" gradientUnits="userSpaceOnUse">
<stop stop-color="#263849"/>
<stop offset="1" stop-color="#41506B"/>
</linearGradient>
</defs>
</svg>
