<svg width="50" height="50" viewBox="0 0 50 50" fill="none" xmlns="http://www.w3.org/2000/svg">
<path d="M25.7324 4.64843C22.6758 4.98046 19.4434 6.36718 17.2559 8.29101L16.6895 8.78906H13.1934C9.80469 8.78906 9.6875 8.79882 9.43359 8.99413C9.07227 9.27734 9.07227 9.86327 9.43359 10.1465C9.6875 10.3418 9.81445 10.3516 12.4609 10.3516H15.2246L14.7168 11.0742L14.209 11.8066H7.89062L1.5625 11.8164V11.084V10.3516H4.17969C6.98242 10.3418 7.03125 10.3418 7.2168 9.83398C7.33398 9.53124 7.2168 9.12109 6.95312 8.92577C6.82617 8.82812 6.11328 8.79882 3.87695 8.78906C0.673828 8.78906 0.488281 8.81835 0.166016 9.36523C0.00976562 9.6289 0 10.6348 0 23.7305C0 36.8262 0.00976562 37.832 0.166016 38.0957C0.507812 38.6816 0.458984 38.6719 6.19141 38.6719H11.4355L11.6699 38.4277C11.9922 38.1152 11.9922 37.666 11.6699 37.3535L11.4355 37.1094H6.44531H1.45508L1.50391 31.1719C1.5332 27.9102 1.55273 22.5781 1.5625 19.3066V13.3789H7.42188C10.6445 13.3789 13.2812 13.4082 13.2812 13.4375C13.2812 13.4766 13.1348 13.8769 12.9492 14.3457C12.7637 14.8047 12.5293 15.459 12.4414 15.791L12.2754 16.4062H8.4375C4.60938 16.4062 4.59961 16.4062 4.39453 16.6211C4.20898 16.8262 4.19922 16.9434 4.19922 20.0684V23.3105L4.42383 23.5156C4.64844 23.7305 4.6875 23.7305 8.47656 23.7305C11.4648 23.7305 12.3145 23.7598 12.3438 23.8477C12.3633 23.916 12.5 24.3262 12.6367 24.7656C12.7734 25.2051 12.8906 25.5859 12.8906 25.625C12.8906 25.6543 11.0352 25.6836 8.75977 25.6836C4.73633 25.6836 4.61914 25.6934 4.41406 25.8789C4.0918 26.1816 4.12109 26.7773 4.45312 27.041C4.70703 27.2461 4.80469 27.2461 9.17969 27.2461H13.6523L13.916 27.7051C14.0625 27.9687 14.3359 28.3789 14.5117 28.6426L14.8438 29.1016H9.73633C4.72656 29.1016 4.61914 29.1016 4.41406 29.2969C4.0918 29.5996 4.12109 30.1953 4.45312 30.459C4.70703 30.6641 4.79492 30.6641 10.4395 30.6641H16.1523L16.6992 31.1914C17.6367 32.1191 19.0332 33.0859 20.3613 33.7402C22.7148 34.8926 24.1504 35.2441 26.8066 35.3223C28.4082 35.3711 28.8281 35.3418 29.8633 35.166C31.2598 34.9316 32.8418 34.4238 34.0234 33.8477L34.8633 33.4375L35.6152 34.209C36.0352 34.6289 36.4941 35.0391 36.6406 35.1172C36.9629 35.2832 37.5977 35.293 37.9395 35.1367C38.1836 35.0293 38.2422 35.0684 39.2383 36.0645L40.2832 37.1094H27.2656H14.248L14.0137 37.3535C13.6914 37.666 13.6914 38.1152 14.0137 38.4277C14.248 38.6719 14.2773 38.6719 15.9668 38.6719C17.5586 38.6719 17.6855 38.6816 17.6367 38.8379C17.6172 38.9355 17.4707 39.4336 17.334 39.9512L17.0703 40.8984L16.0254 40.9375C15.166 40.9668 14.9023 41.0156 14.4336 41.2305C13.3008 41.7578 12.5977 42.8223 12.5195 44.1602C12.4805 44.8633 12.4902 44.9219 12.7246 45.1562L12.9785 45.4102H23.0469H33.1152L33.3691 45.1562C33.6035 44.9219 33.6133 44.8633 33.5742 44.1602C33.4961 42.8223 32.793 41.7578 31.6406 41.2305C31.2012 41.0254 30.9082 40.9668 30.0684 40.9375L29.0234 40.8984L28.7598 39.9512C28.623 39.4336 28.4766 38.9355 28.457 38.8379C28.4082 38.6816 28.7695 38.6719 35.1172 38.6719H41.8359L43.6523 40.4785C45.7812 42.5879 45.9961 42.7246 47.2168 42.7246C47.8711 42.7246 48.0762 42.6758 48.4961 42.4609C49.4922 41.9336 49.9902 41.0937 50 39.9414C50 38.7695 49.7949 38.4473 47.8516 36.4746L46.1914 34.8047L46.1719 22.2656C46.1426 10.0098 46.1426 9.70702 45.9473 9.40429C45.5859 8.79882 45.5176 8.78906 41.5137 8.78906H37.8809L37.2656 8.26171C35.2441 6.55273 32.8809 5.41991 30.1855 4.87304C29.2676 4.68749 26.6211 4.55077 25.7324 4.64843ZM28.9062 6.24999C34.834 6.97265 39.6191 11.3769 40.8105 17.1875C41.0254 18.2324 41.1914 18.457 41.7188 18.457C42.1777 18.457 42.4805 18.1836 42.4805 17.7734C42.4805 17.0605 41.9043 14.9805 41.3672 13.7402L41.2109 13.3789H42.9199H44.6289V23.3105V33.252L43.4766 32.0996L42.3145 30.9375L42.4609 30.5371C42.7246 29.8047 42.5879 29.4727 41.582 28.457L40.7129 27.5586L41.1133 26.7578C41.875 25.2344 42.5391 22.8516 42.5977 21.3867C42.6172 20.8301 42.5977 20.7617 42.3535 20.5469C42.0117 20.2539 41.6895 20.2539 41.3574 20.5273C41.1426 20.7227 41.0938 20.8789 41.0059 21.6309C40.3418 27.168 36.2207 31.9043 30.8105 33.3496C29.541 33.6816 28.6523 33.7988 27.2168 33.7988C23.5156 33.7891 20.1855 32.4023 17.5293 29.7363C15.4395 27.6465 14.1211 25.1172 13.6328 22.2754C13.4375 21.1035 13.4277 18.8574 13.623 17.7637C13.9746 15.7324 14.8438 13.6328 16.0254 11.9726C18.9453 7.88085 23.9648 5.65429 28.9062 6.24999ZM44.6289 11.084V11.8164H42.4902H40.3516L39.9219 11.2012C39.6875 10.8691 39.4629 10.5371 39.4238 10.4687C39.3555 10.3809 39.8926 10.3516 41.9824 10.3516H44.6289V11.084ZM11.9629 20.0684V22.2656H8.86719H5.76172V20.0684V17.8711H8.86719H11.9629V20.0684ZM40.4102 29.5215L40.918 30.0293L39.1113 31.8359L37.3047 33.6426L36.7676 33.1055L36.2207 32.5684L36.543 32.3242C37.4023 31.6602 38.4082 30.7031 39.0625 29.9023C39.4629 29.4141 39.8145 29.0039 39.8438 29.0039C39.873 29.0039 40.127 29.2383 40.4102 29.5215ZM48.1543 39.1016C48.8086 39.9805 48.2227 41.2109 47.1387 41.2109C46.6895 41.2109 45.9961 40.5957 42.6758 37.2656L39.3066 33.8867L40.2344 32.959L41.1621 32.0312L44.5117 35.3711C46.3574 37.2168 47.998 38.8965 48.1543 39.1016ZM27.0703 39.7461C27.2168 40.3125 27.3438 40.8008 27.3438 40.8398C27.3438 40.8887 25.4102 40.918 23.0469 40.918C20.6836 40.918 18.75 40.8887 18.75 40.8398C18.75 40.7715 19.209 39.043 19.2871 38.7891C19.3262 38.6914 20.127 38.6719 23.0566 38.6914L26.7871 38.7207L27.0703 39.7461ZM30.7715 42.5781C31.1523 42.6855 31.9336 43.4375 31.9336 43.7012C31.9336 43.8281 30.9375 43.8477 23.0469 43.8477C15.2246 43.8477 14.1602 43.8281 14.1602 43.7012C14.1602 43.4863 14.8438 42.7637 15.1855 42.6172C15.5566 42.4512 30.1953 42.4219 30.7715 42.5781Z" fill="url(#paint0_linear_538_781)"/>
<path d="M25.8789 7.58789C23.2031 7.87109 20.6054 9.11133 18.5937 11.0547C16.6992 12.8906 15.4785 15.166 14.9902 17.7734C14.8144 18.7305 14.7851 20.9277 14.9316 21.875C15.2929 24.1406 16.1816 26.1133 17.6465 27.9297C18.3691 28.8281 19.8047 30.127 20.1855 30.2246C20.6933 30.3516 21.289 29.7852 21.1621 29.2773C21.123 29.1309 20.7715 28.75 20.2832 28.3496C17.7929 26.25 16.4062 23.2812 16.3965 20.0195C16.3965 17.1289 17.3828 14.6289 19.375 12.5195C21.5918 10.1758 24.6387 8.94531 27.8222 9.11133C31.7578 9.31641 35.2539 11.6211 37.0508 15.2051C39.0722 19.248 38.3203 24.1699 35.166 27.4707C32.3535 30.4199 28.3398 31.5527 24.4433 30.5176C23.3301 30.2246 23.1054 30.2148 22.8515 30.4688C22.5879 30.7324 22.5879 31.3477 22.8418 31.582C23.0762 31.7969 24.0234 32.0898 25.0976 32.2754C26.1816 32.4707 28.3203 32.4707 29.4433 32.2754C33.8086 31.5234 37.4902 28.418 39.0137 24.2188C39.8535 21.875 39.9609 19.1699 39.3066 16.7188C38.2031 12.6074 34.9121 9.24805 30.8008 8.01758C29.4238 7.60742 27.3535 7.43164 25.8789 7.58789Z" fill="url(#paint1_linear_538_781)"/>
<path d="M19.3555 16.8457C18.75 17.1582 18.3691 17.666 18.291 18.252C18.1543 19.2969 18.623 19.9414 19.8535 20.4102C21.0351 20.8691 21.2793 20.9961 21.3379 21.2012C21.4648 21.6016 20.9082 21.9238 20.2832 21.8262C20.0781 21.7871 19.7168 21.6113 19.4726 21.4258C18.9453 21.0254 18.5449 20.9961 18.2129 21.3379C17.6758 21.8652 18.0273 22.5293 19.1211 23.0664C19.6875 23.3496 19.8633 23.3887 20.5566 23.3887C21.1719 23.3887 21.4258 23.3398 21.7285 23.1738C22.8223 22.5879 23.2422 21.4551 22.7441 20.4395C22.4805 19.8926 22.0801 19.5898 21.0742 19.1992C19.7559 18.6816 19.6777 18.6133 19.9805 18.3203C20.2148 18.0762 20.8789 18.125 21.3379 18.4082C22.0996 18.877 22.7539 18.6328 22.7539 17.8906C22.7539 17.207 21.8945 16.6895 20.6543 16.6309C19.9512 16.5918 19.8144 16.6113 19.3555 16.8457Z" fill="url(#paint2_linear_538_781)"/>
<path d="M24.8535 16.8457L24.6094 17.0801V19.9609V22.8418L24.8438 23.1152L25.0781 23.3887H26.5137H27.9492L28.1836 23.1152C28.4668 22.7832 28.4863 22.4707 28.2129 22.1289C28.0273 21.8848 27.9688 21.875 27.0898 21.875H26.1719V21.3477V20.8203L27.0117 20.791C27.7539 20.752 27.8711 20.7227 28.0371 20.5176C28.291 20.2051 28.2812 19.7168 27.998 19.4531C27.8027 19.2676 27.6562 19.2383 26.9727 19.2383H26.1719V18.7109V18.1836L27.0996 18.1445C28.1348 18.1152 28.291 18.0273 28.3887 17.4609C28.4277 17.168 28.3984 17.0605 28.1934 16.8555C27.9395 16.6016 27.9102 16.6016 26.5137 16.6016C25.127 16.6016 25.0781 16.6113 24.8535 16.8457Z" fill="url(#paint3_linear_538_781)"/>
<path d="M32.2656 16.7384C31.3379 17.0314 30.4297 17.9299 30.1172 18.8674C29.873 19.5998 29.9609 20.8888 30.3027 21.5431C31.0254 22.9591 32.7441 23.7209 34.2383 23.3009C35.8789 22.8224 36.9629 21.2697 36.7773 19.6291C36.6406 18.4279 35.7129 17.217 34.6094 16.8068C33.9941 16.5724 32.9004 16.5431 32.2656 16.7384ZM34.4434 18.5256C35.2246 19.1506 35.4297 20.049 34.9707 20.8693C34.3652 21.9435 33.0859 22.1681 32.168 21.3674C31.709 20.9572 31.543 20.6154 31.543 20.0197C31.543 18.8771 32.3242 18.1349 33.4668 18.1935C33.9746 18.2131 34.1406 18.2716 34.4434 18.5256Z" fill="url(#paint4_linear_538_781)"/>
<path d="M4.54102 32.6367C4.26758 32.793 4.19922 32.9102 4.19922 33.3008C4.19922 34.0723 4.22852 34.082 8.20312 34.082H11.6309L11.8652 33.8379C12.1875 33.5254 12.1875 33.0762 11.8652 32.7637L11.6309 32.5195H8.18359C5.80078 32.5293 4.67773 32.5586 4.54102 32.6367Z" fill="url(#paint5_linear_538_781)"/>
<defs>
<linearGradient id="paint0_linear_538_781" x1="0" y1="25.0131" x2="50" y2="25.0131" gradientUnits="userSpaceOnUse">
<stop stop-color="#0AC2D4"/>
<stop offset="1" stop-color="#0AD4BC"/>
</linearGradient>
<linearGradient id="paint1_linear_538_781" x1="14.8378" y1="19.9766" x2="39.7305" y2="19.9766" gradientUnits="userSpaceOnUse">
<stop stop-color="#0AC2D4"/>
<stop offset="1" stop-color="#0AD4BC"/>
</linearGradient>
<linearGradient id="paint2_linear_538_781" x1="17.9652" y1="20.0018" x2="22.952" y2="20.0018" gradientUnits="userSpaceOnUse">
<stop stop-color="#0AC2D4"/>
<stop offset="1" stop-color="#0AD4BC"/>
</linearGradient>
<linearGradient id="paint3_linear_538_781" x1="24.6094" y1="19.9951" x2="28.4074" y2="19.9951" gradientUnits="userSpaceOnUse">
<stop stop-color="#0AC2D4"/>
<stop offset="1" stop-color="#0AD4BC"/>
</linearGradient>
<linearGradient id="paint4_linear_538_781" x1="29.9784" y1="20.0127" x2="36.798" y2="20.0127" gradientUnits="userSpaceOnUse">
<stop stop-color="#0AC2D4"/>
<stop offset="1" stop-color="#0AD4BC"/>
</linearGradient>
<linearGradient id="paint5_linear_538_781" x1="4.19922" y1="33.3008" x2="12.1069" y2="33.3008" gradientUnits="userSpaceOnUse">
<stop stop-color="#0AC2D4"/>
<stop offset="1" stop-color="#0AD4BC"/>
</linearGradient>
</defs>
</svg>
