<svg width="50" height="50" viewBox="0 0 50 50" fill="none" xmlns="http://www.w3.org/2000/svg">
<path d="M2.88088 9.56054C2.66603 9.6582 2.35353 9.89258 2.17775 10.0684C1.52345 10.7617 1.56252 9.93164 1.56252 22.6562C1.56252 35.3809 1.52345 34.5508 2.17775 35.2441C2.86135 35.957 2.59767 35.9375 9.05275 35.9375H14.834L14.6875 36.4551C14.4629 37.1875 14.1016 37.8125 13.5059 38.4766L12.9688 39.0625H12.1192C11.2012 39.0625 11.0254 39.1406 10.9082 39.6289C10.8399 39.9316 11.0059 40.4102 11.2305 40.5273C11.3477 40.5859 13.3496 40.625 16.4453 40.625C21.3574 40.625 21.4942 40.6152 21.6797 40.4297C21.9434 40.166 21.9434 39.5215 21.6797 39.2578C21.4942 39.0723 21.3574 39.0625 18.3594 39.0625H15.2246L15.5371 38.6133C15.9375 38.0371 16.2891 37.1387 16.3867 36.4941L16.4551 35.9863L19.0039 35.957C21.4356 35.9375 21.5625 35.9277 21.7383 35.7324C21.9824 35.4687 21.9824 34.8437 21.7383 34.5801C21.5528 34.375 21.543 34.375 12.7539 34.375C4.57033 34.375 3.93556 34.3652 3.6133 34.1992C3.41799 34.1016 3.25197 33.9355 3.21291 33.7891C3.17385 33.6523 3.14455 32.6758 3.13478 31.6113L3.12502 29.6875H12.334C21.543 29.6875 21.5528 29.6875 21.7383 29.4824C21.9824 29.2187 21.9824 28.5937 21.7383 28.3301C21.5528 28.125 21.543 28.125 12.334 28.125H3.12502L3.14455 19.7754L3.17385 11.4355L3.39845 11.2109L3.62306 10.9863H18.7403C33.3692 10.9863 33.877 10.9961 34.0723 11.1719C34.1797 11.2695 34.2969 11.5332 34.336 11.7773C34.4141 12.3145 34.6485 12.5293 35.1563 12.5293C35.7422 12.5293 35.9375 12.3047 35.9375 11.6309C35.9375 10.9766 35.7031 10.4199 35.2442 9.99023C34.541 9.32617 35.8008 9.375 18.7305 9.375C3.87697 9.375 3.25197 9.38476 2.88088 9.56054Z" fill="url(#paint0_linear_538_789)"/>
<path d="M25.3223 14.0625C24.7559 14.1796 24.4043 14.3847 24.0039 14.8242C23.3496 15.5468 23.3887 14.8242 23.3887 27.3437C23.3887 39.873 23.3496 39.1406 24.0137 39.873C24.707 40.6445 24.4922 40.625 30.3516 40.625C35.4199 40.625 35.5469 40.625 35.7422 40.4296C35.8692 40.3027 35.9375 40.1074 35.9375 39.8437C35.9375 39.58 35.8692 39.3847 35.7422 39.2578C35.5567 39.0722 35.4199 39.0625 30.6934 39.0625C26.2598 39.0625 25.8008 39.0429 25.4883 38.8867C25.293 38.789 25.127 38.623 25.0879 38.4765C25.0488 38.3398 25.0195 37.3632 25.0098 36.2988L25 34.375H30.2735C35.4199 34.375 35.5469 34.375 35.7422 34.1796C35.8692 34.0527 35.9375 33.8574 35.9375 33.5937C35.9375 33.33 35.8692 33.1347 35.7422 33.0078C35.5469 32.8125 35.4199 32.8125 30.2735 32.8125H25V25.7812V18.75H32.8125H40.625V20.1171C40.625 21.3574 40.6445 21.5039 40.8203 21.6796C41.0742 21.9335 41.6895 21.9433 42.002 21.6894L42.2363 21.5039V18.7304C42.2363 16.6406 42.207 15.8789 42.0996 15.5859C41.9238 15.0683 41.3477 14.4628 40.8203 14.2187C40.3906 14.0136 40.2637 14.0136 33.0567 13.9941C29.0332 13.9941 25.5469 14.0234 25.3223 14.0625ZM40.332 15.8789C40.4688 16.0156 40.5567 16.2597 40.5957 16.6308L40.6543 17.1875H32.8125H24.9707L25.0293 16.6406C25.0879 16.0644 25.2735 15.7617 25.625 15.6933C25.7324 15.664 29.0528 15.6543 32.9785 15.664C40.0879 15.6738 40.1367 15.6738 40.332 15.8789Z" fill="url(#paint1_linear_538_789)"/>
<path d="M5.07813 15.6547C4.75586 15.8109 4.59961 16.2992 4.59961 17.139C4.58984 17.9691 4.72656 18.516 4.98047 18.6527C5.29297 18.8187 5.83984 18.7699 6.05469 18.5551C6.23047 18.3793 6.25 18.2328 6.25 17.2465C6.25 16.6312 6.2207 16.0551 6.19141 15.9672C6.12305 15.8012 5.66406 15.5277 5.44922 15.5277C5.38086 15.5277 5.21484 15.5863 5.07813 15.6547Z" fill="url(#paint2_linear_538_789)"/>
<path d="M5.05859 20.3617C4.6582 20.5863 4.58984 21.016 4.58984 23.4379C4.58984 25.723 4.66797 26.2992 4.98047 26.4652C5.29297 26.6312 5.83984 26.5824 6.05469 26.3676C6.24023 26.182 6.25 26.0453 6.25 23.4965C6.25 22.0219 6.2207 20.7426 6.19141 20.6547C6.12305 20.4887 5.6543 20.2152 5.44922 20.2152C5.38086 20.225 5.20508 20.2836 5.05859 20.3617Z" fill="url(#paint3_linear_538_789)"/>
<path d="M26.9336 20.3711C26.5625 20.5664 26.4258 21.123 26.4941 22.207C26.5527 23.2227 26.6992 23.4375 27.3535 23.4375C28.0176 23.4375 28.125 23.2324 28.125 21.9336C28.125 21.3184 28.0957 20.7422 28.0664 20.6543C27.998 20.4883 27.5293 20.2148 27.3242 20.2148C27.2558 20.2246 27.0801 20.2832 26.9336 20.3711Z" fill="url(#paint4_linear_538_789)"/>
<path d="M38.8184 23.623C38.6035 23.7207 38.291 23.9551 38.1153 24.1309C37.4707 24.8047 37.5 24.4824 37.5 32.0508C37.5 39.7168 37.4707 39.3164 38.1934 40.0098C38.8379 40.625 38.8672 40.625 42.9883 40.625C47.1582 40.625 47.168 40.6152 47.8223 39.9316C48.4668 39.2578 48.4375 39.5703 48.4375 32.0312C48.4375 24.4922 48.4668 24.8047 47.8223 24.1309C47.168 23.4473 47.1582 23.4375 42.9688 23.4375C39.5117 23.4375 39.1797 23.457 38.8184 23.623ZM46.5918 25.2832C46.7188 25.4395 46.7774 25.6641 46.7774 26.0352V26.5625H42.9688H39.1602V25.9961C39.1602 25.3906 39.2871 25.1758 39.6973 25.0684C39.8047 25.0391 41.3574 25.0293 43.1446 25.0293L46.4063 25.0488L46.5918 25.2832ZM46.7774 31.9824V35.8398H42.9688H39.1602V31.9824V28.125H42.9688H46.7774V31.9824ZM46.7774 37.998C46.7774 38.2715 46.7383 38.5742 46.6797 38.6719C46.4942 39.0137 46.0645 39.0625 42.9297 39.0625C39.209 39.0625 39.2285 39.0625 39.1797 38.1055L39.1504 37.5H42.9688H46.7774V37.998Z" fill="url(#paint5_linear_538_789)"/>
<path d="M26.9922 25.0394C26.5137 25.2445 26.4648 25.5473 26.4648 28.0668C26.4648 30.4105 26.543 30.9867 26.8555 31.1527C27.168 31.3187 27.7148 31.2699 27.9297 31.0551C28.1152 30.8695 28.125 30.7328 28.125 28.1254C28.125 25.518 28.1152 25.3812 27.9297 25.1957C27.8223 25.0883 27.6953 25.0004 27.6465 25.0004C27.5977 25.0004 27.5 24.9808 27.4219 24.9515C27.3535 24.932 27.1582 24.9711 26.9922 25.0394Z" fill="url(#paint6_linear_538_789)"/>
<path d="M17.2949 31.5039C17.1777 31.6504 17.0898 31.8848 17.0898 32.0312C17.0898 32.1777 17.1777 32.4121 17.2949 32.5586C17.4902 32.8125 17.5098 32.8125 18.7109 32.8125C20.127 32.8125 20.3125 32.7246 20.3125 32.0312C20.3125 31.3379 20.127 31.25 18.7109 31.25C17.5098 31.25 17.4902 31.25 17.2949 31.5039Z" fill="url(#paint7_linear_538_789)"/>
<path d="M31.7871 35.9375C31.3965 36.0645 31.25 36.2891 31.25 36.7383C31.25 37.3926 31.4551 37.5 32.7734 37.5C33.3887 37.5 33.9844 37.4609 34.082 37.4023C34.3066 37.2852 34.4629 36.8262 34.4043 36.4941C34.3066 36.0156 34.0625 35.8984 33.0273 35.8691C32.5098 35.8594 31.9531 35.8887 31.7871 35.9375Z" fill="url(#paint8_linear_538_789)"/>
<defs>
<linearGradient id="paint0_linear_538_789" x1="1.56207" y1="24.9996" x2="35.9375" y2="24.9996" gradientUnits="userSpaceOnUse">
<stop stop-color="#0AC2D4"/>
<stop offset="1" stop-color="#0AD4BC"/>
</linearGradient>
<linearGradient id="paint1_linear_538_789" x1="23.3882" y1="27.3095" x2="42.2363" y2="27.3095" gradientUnits="userSpaceOnUse">
<stop stop-color="#0AC2D4"/>
<stop offset="1" stop-color="#0AD4BC"/>
</linearGradient>
<linearGradient id="paint2_linear_538_789" x1="4.59912" y1="17.1398" x2="6.25" y2="17.1398" gradientUnits="userSpaceOnUse">
<stop stop-color="#0AC2D4"/>
<stop offset="1" stop-color="#0AD4BC"/>
</linearGradient>
<linearGradient id="paint3_linear_538_789" x1="4.58984" y1="23.3898" x2="6.25" y2="23.3898" gradientUnits="userSpaceOnUse">
<stop stop-color="#0AC2D4"/>
<stop offset="1" stop-color="#0AD4BC"/>
</linearGradient>
<linearGradient id="paint4_linear_538_789" x1="26.4772" y1="21.8262" x2="28.125" y2="21.8262" gradientUnits="userSpaceOnUse">
<stop stop-color="#0AC2D4"/>
<stop offset="1" stop-color="#0AD4BC"/>
</linearGradient>
<linearGradient id="paint5_linear_538_789" x1="37.4998" y1="32.0312" x2="48.4377" y2="32.0312" gradientUnits="userSpaceOnUse">
<stop stop-color="#0AC2D4"/>
<stop offset="1" stop-color="#0AD4BC"/>
</linearGradient>
<linearGradient id="paint6_linear_538_789" x1="26.4648" y1="28.0992" x2="28.125" y2="28.0992" gradientUnits="userSpaceOnUse">
<stop stop-color="#0AC2D4"/>
<stop offset="1" stop-color="#0AD4BC"/>
</linearGradient>
<linearGradient id="paint7_linear_538_789" x1="17.0898" y1="32.0312" x2="20.3125" y2="32.0312" gradientUnits="userSpaceOnUse">
<stop stop-color="#0AC2D4"/>
<stop offset="1" stop-color="#0AD4BC"/>
</linearGradient>
<linearGradient id="paint8_linear_538_789" x1="31.25" y1="36.6836" x2="34.4167" y2="36.6836" gradientUnits="userSpaceOnUse">
<stop stop-color="#0AC2D4"/>
<stop offset="1" stop-color="#0AD4BC"/>
</linearGradient>
</defs>
</svg>
