<svg width="100" height="100" viewBox="0 0 100 100" fill="none" xmlns="http://www.w3.org/2000/svg">
<path d="M5.76172 19.1211C5.33204 19.3164 4.70704 19.7851 4.35547 20.1367C3.04688 21.5234 3.125 19.8633 3.125 45.3125C3.125 70.7617 3.04688 69.1016 4.35547 70.4883C5.72266 71.9141 5.19532 71.875 18.1055 71.875H29.668L29.375 72.9102C28.9258 74.375 28.2031 75.625 27.0117 76.9531L25.9375 78.125H24.2383C22.4023 78.125 22.0508 78.2812 21.8164 79.2578C21.6797 79.8633 22.0117 80.8203 22.4609 81.0547C22.6953 81.1719 26.6992 81.25 32.8906 81.25C42.7148 81.25 42.9883 81.2305 43.3594 80.8594C43.8867 80.332 43.8867 79.043 43.3594 78.5156C42.9883 78.1445 42.7148 78.125 36.7188 78.125H30.4492L31.0742 77.2266C31.875 76.0742 32.5781 74.2773 32.7734 72.9883L32.9102 71.9727L38.0078 71.9141C42.8711 71.875 43.125 71.8555 43.4766 71.4648C43.9648 70.9375 43.9648 69.6875 43.4766 69.1602C43.1055 68.75 43.0859 68.75 25.5078 68.75C9.14063 68.75 7.8711 68.7305 7.22657 68.3984C6.83594 68.2031 6.50391 67.8711 6.42579 67.5781C6.34766 67.3047 6.28907 65.3516 6.26954 63.2227L6.25 59.375H24.668C43.0859 59.375 43.1055 59.375 43.4766 58.9648C43.9648 58.4375 43.9648 57.1875 43.4766 56.6602C43.1055 56.25 43.0859 56.25 24.668 56.25H6.25L6.28907 39.5508L6.34766 22.8711L6.79688 22.4219L7.2461 21.9727H37.4805C66.7383 21.9727 67.7539 21.9922 68.1445 22.3437C68.3594 22.5391 68.5938 23.0664 68.6719 23.5547C68.8281 24.6289 69.2969 25.0586 70.3125 25.0586C71.4844 25.0586 71.875 24.6094 71.875 23.2617C71.875 21.9531 71.4062 20.8398 70.4883 19.9805C69.082 18.6523 71.6016 18.75 37.4609 18.75C7.75391 18.75 6.50391 18.7695 5.76172 19.1211Z" fill="#263849"/>
<path d="M50.6445 28.125C49.5117 28.3594 48.8086 28.7696 48.0078 29.6485C46.6992 31.0938 46.7773 29.6485 46.7773 54.6875C46.7773 79.7461 46.6992 78.2813 48.0273 79.7461C49.4141 81.2891 48.9844 81.25 60.7031 81.25C70.8398 81.25 71.0938 81.25 71.4844 80.8594C71.7383 80.6055 71.875 80.2149 71.875 79.6875C71.875 79.1602 71.7383 78.7696 71.4844 78.5157C71.1133 78.1446 70.8398 78.125 61.3867 78.125C52.5195 78.125 51.6016 78.086 50.9766 77.7735C50.5859 77.5782 50.2539 77.2461 50.1758 76.9532C50.0977 76.6797 50.0391 74.7266 50.0195 72.5977L50 68.75H60.5469C70.8398 68.75 71.0938 68.75 71.4844 68.3594C71.7383 68.1055 71.875 67.7149 71.875 67.1875C71.875 66.6602 71.7383 66.2696 71.4844 66.0157C71.0938 65.625 70.8398 65.625 60.5469 65.625H50V51.5625V37.5H65.625H81.25V40.2344C81.25 42.7149 81.2891 43.0078 81.6406 43.3594C82.1484 43.8672 83.3789 43.8867 84.0039 43.3789L84.4727 43.0078V37.461C84.4727 33.2813 84.4141 31.7578 84.1992 31.1719C83.8477 30.1367 82.6953 28.9258 81.6406 28.4375C80.7813 28.0274 80.5273 28.0274 66.1133 27.9883C58.0664 27.9883 51.0938 28.0469 50.6445 28.125ZM80.6641 31.7578C80.9375 32.0313 81.1133 32.5196 81.1914 33.2617L81.3086 34.375H65.625H49.9414L50.0586 33.2813C50.1758 32.1289 50.5469 31.5235 51.25 31.3867C51.4648 31.3282 58.1055 31.3086 65.957 31.3282C80.1758 31.3477 80.2734 31.3477 80.6641 31.7578Z" fill="#263849"/>
<path d="M10.1563 31.3086C9.51172 31.6211 9.19922 32.5977 9.19922 34.2774C9.17969 35.9375 9.45313 37.0313 9.96094 37.3047C10.5859 37.6367 11.6797 37.5391 12.1094 37.1094C12.4609 36.7578 12.5 36.4649 12.5 34.4922C12.5 33.2617 12.4414 32.1094 12.3828 31.9336C12.2461 31.6016 11.3281 31.0547 10.8984 31.0547C10.7617 31.0547 10.4297 31.1719 10.1563 31.3086Z" fill="#263849"/>
<path d="M10.1172 40.7227C9.31641 41.1719 9.17969 42.0313 9.17969 46.875C9.17969 51.4453 9.33594 52.5977 9.96094 52.9297C10.5859 53.2617 11.6797 53.1641 12.1094 52.7344C12.4805 52.3633 12.5 52.0899 12.5 46.9922C12.5 44.043 12.4414 41.4844 12.3828 41.3086C12.2461 40.9766 11.3086 40.4297 10.8984 40.4297C10.7617 40.4492 10.4102 40.5664 10.1172 40.7227Z" fill="#263849"/>
<path d="M53.8672 40.7422C53.125 41.1328 52.8516 42.2461 52.9883 44.4141C53.1055 46.4453 53.3984 46.875 54.707 46.875C56.0352 46.875 56.25 46.4648 56.25 43.8672C56.25 42.6367 56.1914 41.4844 56.1328 41.3086C55.9961 40.9766 55.0586 40.4297 54.6484 40.4297C54.5117 40.4492 54.1602 40.5664 53.8672 40.7422Z" fill="#263849"/>
<path d="M77.6367 47.2461C77.207 47.4414 76.582 47.9102 76.2305 48.2617C74.9414 49.6094 75 48.9648 75 64.1016C75 79.4336 74.9414 78.6328 76.3867 80.0195C77.6758 81.25 77.7344 81.25 85.9766 81.25C94.3164 81.25 94.336 81.2305 95.6445 79.8633C96.9336 78.5156 96.875 79.1406 96.875 64.0625C96.875 48.9844 96.9336 49.6094 95.6445 48.2617C94.336 46.8945 94.3164 46.875 85.9375 46.875C79.0234 46.875 78.3594 46.9141 77.6367 47.2461ZM93.1836 50.5664C93.4375 50.8789 93.5547 51.3281 93.5547 52.0703V53.125H85.9375H78.3203V51.9922C78.3203 50.7812 78.5742 50.3516 79.3945 50.1367C79.6094 50.0781 82.7149 50.0586 86.2891 50.0586L92.8125 50.0977L93.1836 50.5664ZM93.5547 63.9648V71.6797H85.9375H78.3203V63.9648V56.25H85.9375H93.5547V63.9648ZM93.5547 75.9961C93.5547 76.543 93.4766 77.1484 93.3594 77.3438C92.9883 78.0273 92.1289 78.125 85.8594 78.125C78.418 78.125 78.457 78.125 78.3594 76.2109L78.3008 75H85.9375H93.5547V75.9961Z" fill="#263849"/>
<path d="M53.9844 50.0781C53.0273 50.4883 52.9297 51.0938 52.9297 56.1328C52.9297 60.8203 53.0859 61.9727 53.7109 62.3047C54.3359 62.6367 55.4297 62.5391 55.8594 62.1094C56.2305 61.7383 56.25 61.4649 56.25 56.25C56.25 51.0352 56.2305 50.7617 55.8594 50.3906C55.6445 50.1758 55.3906 50 55.293 50C55.1953 50 55 49.961 54.8438 49.9024C54.707 49.8633 54.3164 49.9414 53.9844 50.0781Z" fill="#263849"/>
<path d="M34.5898 63.0078C34.3555 63.3008 34.1797 63.7695 34.1797 64.0625C34.1797 64.3555 34.3555 64.8242 34.5898 65.1172C34.9805 65.625 35.0195 65.625 37.4219 65.625C40.2539 65.625 40.625 65.4492 40.625 64.0625C40.625 62.6758 40.2539 62.5 37.4219 62.5C35.0195 62.5 34.9805 62.5 34.5898 63.0078Z" fill="#263849"/>
<path d="M63.5742 71.875C62.793 72.1289 62.5 72.5781 62.5 73.4766C62.5 74.7852 62.9102 75 65.5469 75C66.7773 75 67.9688 74.9219 68.1641 74.8047C68.6133 74.5703 68.9258 73.6523 68.8086 72.9883C68.6133 72.0312 68.125 71.7969 66.0547 71.7383C65.0195 71.7188 63.9063 71.7773 63.5742 71.875Z" fill="#263849"/>
</svg>
