<svg width="105" height="17" viewBox="0 0 105 17" fill="none" xmlns="http://www.w3.org/2000/svg">
<path d="M8.2709 0.737164C7.98535 0.816852 7.99531 0.80025 6.87969 3.05474C6.30527 4.21353 5.83379 5.16646 5.82715 5.1731C5.82383 5.17642 4.79121 5.32916 3.53281 5.51177C2.27441 5.69439 1.20195 5.86373 1.14551 5.88365C1.09238 5.90689 0.986132 5.98658 0.909764 6.06294C0.674022 6.29869 0.637499 6.6606 0.823436 6.93619C0.873241 7.00591 1.65019 7.78619 2.55 8.66607C4.0375 10.1204 4.18691 10.2764 4.17031 10.3561C4.16035 10.4026 3.98437 11.4053 3.78183 12.584C3.38008 14.9215 3.37012 15.0311 3.51953 15.2536C3.69219 15.5092 3.99101 15.6354 4.26992 15.5723C4.35293 15.5524 5.29258 15.0776 6.38164 14.5032C7.46074 13.9354 8.38379 13.4573 8.43359 13.4374C8.5166 13.4042 8.70254 13.4971 10.5818 14.4866C12.6338 15.569 12.6371 15.5723 12.8396 15.5723C13.0887 15.5723 13.1982 15.5358 13.3443 15.3963C13.4871 15.2602 13.5801 15.061 13.5801 14.8883C13.5801 14.812 13.4074 13.7461 13.1949 12.5176C12.9857 11.2924 12.8164 10.2764 12.823 10.2598C12.8297 10.2465 13.5734 9.51275 14.4766 8.62955C15.3797 7.74634 16.1533 6.97271 16.1965 6.9063C16.2629 6.80669 16.2729 6.75357 16.2629 6.53443C16.2529 6.31529 16.2396 6.26216 16.1533 6.13931C15.9674 5.87369 15.9939 5.88033 13.4738 5.51509C12.2187 5.33248 11.1795 5.17642 11.1662 5.16978C11.1529 5.15982 10.6914 4.23677 10.1436 3.11783C9.31016 1.41119 9.12422 1.05591 8.99805 0.926422C8.79551 0.713922 8.55976 0.654156 8.2709 0.737164Z" fill="url(#paint0_linear_504_214)"/>
<path d="M30.2709 0.737164C29.9854 0.816852 29.9953 0.80025 28.8797 3.05474C28.3053 4.21353 27.8338 5.16646 27.8271 5.1731C27.8238 5.17642 26.7912 5.32916 25.5328 5.51177C24.2744 5.69439 23.202 5.86373 23.1455 5.88365C23.0924 5.90689 22.9861 5.98658 22.9098 6.06294C22.674 6.29869 22.6375 6.6606 22.8234 6.93619C22.8732 7.00591 23.6502 7.78619 24.55 8.66607C26.0375 10.1204 26.1869 10.2764 26.1703 10.3561C26.1604 10.4026 25.9844 11.4053 25.7818 12.584C25.3801 14.9215 25.3701 15.0311 25.5195 15.2536C25.6922 15.5092 25.991 15.6354 26.2699 15.5723C26.3529 15.5524 27.2926 15.0776 28.3816 14.5032C29.4607 13.9354 30.3838 13.4573 30.4336 13.4374C30.5166 13.4042 30.7025 13.4971 32.5818 14.4866C34.6338 15.569 34.6371 15.5723 34.8396 15.5723C35.0887 15.5723 35.1982 15.5358 35.3443 15.3963C35.4871 15.2602 35.5801 15.061 35.5801 14.8883C35.5801 14.812 35.4074 13.7461 35.1949 12.5176C34.9857 11.2924 34.8164 10.2764 34.823 10.2598C34.8297 10.2465 35.5734 9.51275 36.4766 8.62955C37.3797 7.74634 38.1533 6.97271 38.1965 6.9063C38.2629 6.80669 38.2729 6.75357 38.2629 6.53443C38.2529 6.31529 38.2396 6.26216 38.1533 6.13931C37.9674 5.87369 37.9939 5.88033 35.4738 5.51509C34.2187 5.33248 33.1795 5.17642 33.1662 5.16978C33.1529 5.15982 32.6914 4.23677 32.1436 3.11783C31.3102 1.41119 31.1242 1.05591 30.998 0.926422C30.7955 0.713922 30.5598 0.654156 30.2709 0.737164Z" fill="url(#paint1_linear_504_214)"/>
<path d="M52.2709 0.737164C51.9854 0.816852 51.9953 0.80025 50.8797 3.05474C50.3053 4.21353 49.8338 5.16646 49.8271 5.1731C49.8238 5.17642 48.7912 5.32916 47.5328 5.51177C46.2744 5.69439 45.202 5.86373 45.1455 5.88365C45.0924 5.90689 44.9861 5.98658 44.9098 6.06294C44.674 6.29869 44.6375 6.6606 44.8234 6.93619C44.8732 7.00591 45.6502 7.78619 46.55 8.66607C48.0375 10.1204 48.1869 10.2764 48.1703 10.3561C48.1604 10.4026 47.9844 11.4053 47.7818 12.584C47.3801 14.9215 47.3701 15.0311 47.5195 15.2536C47.6922 15.5092 47.991 15.6354 48.2699 15.5723C48.3529 15.5524 49.2926 15.0776 50.3816 14.5032C51.4607 13.9354 52.3838 13.4573 52.4336 13.4374C52.5166 13.4042 52.7025 13.4971 54.5818 14.4866C56.6338 15.569 56.6371 15.5723 56.8396 15.5723C57.0887 15.5723 57.1982 15.5358 57.3443 15.3963C57.4871 15.2602 57.5801 15.061 57.5801 14.8883C57.5801 14.812 57.4074 13.7461 57.1949 12.5176C56.9857 11.2924 56.8164 10.2764 56.823 10.2598C56.8297 10.2465 57.5734 9.51275 58.4766 8.62955C59.3797 7.74634 60.1533 6.97271 60.1965 6.9063C60.2629 6.80669 60.2729 6.75357 60.2629 6.53443C60.2529 6.31529 60.2396 6.26216 60.1533 6.13931C59.9674 5.87369 59.9939 5.88033 57.4738 5.51509C56.2187 5.33248 55.1795 5.17642 55.1662 5.16978C55.1529 5.15982 54.6914 4.23677 54.1436 3.11783C53.3102 1.41119 53.1242 1.05591 52.998 0.926422C52.7955 0.713922 52.5598 0.654156 52.2709 0.737164Z" fill="url(#paint2_linear_504_214)"/>
<path d="M74.2709 0.737164C73.9854 0.816852 73.9953 0.80025 72.8797 3.05474C72.3053 4.21353 71.8338 5.16646 71.8271 5.1731C71.8238 5.17642 70.7912 5.32916 69.5328 5.51177C68.2744 5.69439 67.202 5.86373 67.1455 5.88365C67.0924 5.90689 66.9861 5.98658 66.9098 6.06294C66.674 6.29869 66.6375 6.6606 66.8234 6.93619C66.8732 7.00591 67.6502 7.78619 68.55 8.66607C70.0375 10.1204 70.1869 10.2764 70.1703 10.3561C70.1604 10.4026 69.9844 11.4053 69.7818 12.584C69.3801 14.9215 69.3701 15.0311 69.5195 15.2536C69.6922 15.5092 69.991 15.6354 70.2699 15.5723C70.3529 15.5524 71.2926 15.0776 72.3816 14.5032C73.4607 13.9354 74.3838 13.4573 74.4336 13.4374C74.5166 13.4042 74.7025 13.4971 76.5818 14.4866C78.6338 15.569 78.6371 15.5723 78.8396 15.5723C79.0887 15.5723 79.1982 15.5358 79.3443 15.3963C79.4871 15.2602 79.5801 15.061 79.5801 14.8883C79.5801 14.812 79.4074 13.7461 79.1949 12.5176C78.9857 11.2924 78.8164 10.2764 78.823 10.2598C78.8297 10.2465 79.5734 9.51275 80.4766 8.62955C81.3797 7.74634 82.1533 6.97271 82.1965 6.9063C82.2629 6.80669 82.2729 6.75357 82.2629 6.53443C82.2529 6.31529 82.2396 6.26216 82.1533 6.13931C81.9674 5.87369 81.9939 5.88033 79.4738 5.51509C78.2187 5.33248 77.1795 5.17642 77.1662 5.16978C77.1529 5.15982 76.6914 4.23677 76.1436 3.11783C75.3102 1.41119 75.1242 1.05591 74.998 0.926422C74.7955 0.713922 74.5598 0.654156 74.2709 0.737164Z" fill="url(#paint3_linear_504_214)"/>
<path d="M96.2709 0.737164C95.9854 0.816852 95.9953 0.80025 94.8797 3.05474C94.3053 4.21353 93.8338 5.16646 93.8271 5.1731C93.8238 5.17642 92.7912 5.32916 91.5328 5.51177C90.2744 5.69439 89.202 5.86373 89.1455 5.88365C89.0924 5.90689 88.9861 5.98658 88.9098 6.06294C88.674 6.29869 88.6375 6.6606 88.8234 6.93619C88.8732 7.00591 89.6502 7.78619 90.55 8.66607C92.0375 10.1204 92.1869 10.2764 92.1703 10.3561C92.1604 10.4026 91.9844 11.4053 91.7818 12.584C91.3801 14.9215 91.3701 15.0311 91.5195 15.2536C91.6922 15.5092 91.991 15.6354 92.2699 15.5723C92.3529 15.5524 93.2926 15.0776 94.3816 14.5032C95.4607 13.9354 96.3838 13.4573 96.4336 13.4374C96.5166 13.4042 96.7025 13.4971 98.5818 14.4866C100.634 15.569 100.637 15.5723 100.84 15.5723C101.089 15.5723 101.198 15.5358 101.344 15.3963C101.487 15.2602 101.58 15.061 101.58 14.8883C101.58 14.812 101.407 13.7461 101.195 12.5176C100.986 11.2924 100.816 10.2764 100.823 10.2598C100.83 10.2465 101.573 9.51275 102.477 8.62955C103.38 7.74634 104.153 6.97271 104.196 6.9063C104.263 6.80669 104.273 6.75357 104.263 6.53443C104.253 6.31529 104.24 6.26216 104.153 6.13931C103.967 5.87369 103.994 5.88033 101.474 5.51509C100.219 5.33248 99.1795 5.17642 99.1662 5.16978C99.1529 5.15982 98.6914 4.23677 98.1436 3.11783C97.3102 1.41119 97.1242 1.05591 96.998 0.926422C96.7955 0.713922 96.5598 0.654156 96.2709 0.737164Z" fill="url(#paint4_linear_504_214)"/>
<defs>
<linearGradient id="paint0_linear_504_214" x1="0.705124" y1="8.14479" x2="16.2662" y2="8.14479" gradientUnits="userSpaceOnUse">
<stop stop-color="#0AC2D4"/>
<stop offset="1" stop-color="#0AD4BC"/>
</linearGradient>
<linearGradient id="paint1_linear_504_214" x1="22.7051" y1="8.14479" x2="38.2662" y2="8.14479" gradientUnits="userSpaceOnUse">
<stop stop-color="#0AC2D4"/>
<stop offset="1" stop-color="#0AD4BC"/>
</linearGradient>
<linearGradient id="paint2_linear_504_214" x1="44.7051" y1="8.14479" x2="60.2662" y2="8.14479" gradientUnits="userSpaceOnUse">
<stop stop-color="#0AC2D4"/>
<stop offset="1" stop-color="#0AD4BC"/>
</linearGradient>
<linearGradient id="paint3_linear_504_214" x1="66.7051" y1="8.14479" x2="82.2662" y2="8.14479" gradientUnits="userSpaceOnUse">
<stop stop-color="#0AC2D4"/>
<stop offset="1" stop-color="#0AD4BC"/>
</linearGradient>
<linearGradient id="paint4_linear_504_214" x1="88.7051" y1="8.14479" x2="104.266" y2="8.14479" gradientUnits="userSpaceOnUse">
<stop stop-color="#0AC2D4"/>
<stop offset="1" stop-color="#0AD4BC"/>
</linearGradient>
</defs>
</svg>
