<svg width="291" height="306" viewBox="0 0 291 306" fill="none" xmlns="http://www.w3.org/2000/svg">
<path d="M200.153 59.4141C199.067 58.9241 197.926 58.9695 196.985 59.5578C196.345 59.9583 196.062 59.996 195.689 59.7559C195.091 59.3783 188.691 57.4241 181.992 55.5725C150.54 46.9043 120.093 45.9867 91.0583 52.8447C67.8997 58.282 55.0498 65.5122 45.1067 78.6358C32.8604 94.8427 29.4248 115.032 35.4142 135.869C37.1677 142.01 39.5566 147.699 43.7903 155.936C44.7692 157.857 45.8659 160.234 46.2565 161.215C47.6739 164.949 49.409 168.346 52.6434 173.785C58.7142 183.935 65.7379 193.295 74.7684 203.237C84.4271 213.872 94.5957 222.963 115.052 239.289C117.958 241.619 121.422 244.353 122.753 245.413L125.153 247.336L124.888 248.114C124.631 248.86 123.118 251.783 116.702 264.092C111.932 273.201 110.439 277.002 110.828 278.958C111.234 280.987 112.823 281.97 115.435 281.784C117.627 281.638 132.009 277.57 162.489 268.527C170.047 266.278 178.08 263.898 180.339 263.237C187.764 261.042 199.867 257.425 203.442 256.331C206.739 255.326 207.157 255.149 210.449 253.201L213.921 251.141L214.906 249.466C215.444 248.546 216.051 247.024 216.301 246.088C216.681 244.515 216.771 244.347 217.534 244.009C218.529 243.553 218.662 243.053 218.043 241.797C217.618 240.894 214.529 231.996 209.846 218.277C207.607 211.715 205.371 205.291 199.432 188.319C193.675 171.904 191.771 166.635 191.449 166.253C191.076 165.79 190.39 165.94 189.084 166.701C188.592 166.982 187.271 167.585 186.158 168.031C183.381 169.155 178.958 171.921 177.118 173.741C174.739 176.036 173.764 177.37 169.955 183.566L166.257 189.582L164.934 189.38C153.917 187.612 131.385 182.969 121.752 180.476C107.762 176.893 98.4039 173.726 87.0158 168.739C72.3547 162.346 61.0487 155.888 55.5401 150.731C50.8023 146.316 47.6353 140.363 47.3183 135.272C47.1269 131.939 48.8241 127.175 51.3674 123.941C53.4631 121.238 54.5336 120.235 57.3801 118.287C61.1621 115.699 64.917 114.046 69.9379 112.771C84.4204 109.086 103.138 109.767 123.343 114.696C134.657 117.475 145.249 121.234 154.691 125.824C158.107 127.502 165.351 131.74 167.171 133.135C168.977 134.511 169.685 134.263 171.368 131.568C171.986 130.597 173.359 128.207 174.411 126.24C175.484 124.261 177.644 120.237 179.242 117.316C180.827 114.376 182.91 110.317 183.892 108.283C186.257 103.296 190.213 96.0885 194.576 88.8214C199.037 81.354 201.285 77.9155 203.353 75.4804C204.514 74.0864 204.966 73.3857 205.009 72.8303C205.131 71.3341 203.622 71.6374 202.202 73.4167C201.822 73.8772 201.497 74.2476 201.464 74.2401C201.399 74.2251 201.313 72.4413 201.252 70.2521C201.106 65.1657 200.973 64.3301 200.134 62.9894C199.508 61.9888 199.483 61.5034 200.084 61.796C200.484 61.991 200.894 61.623 201.059 60.9074C201.246 60.0942 201.096 59.8541 200.153 59.4141ZM198.311 66.6629C198.402 67.3859 198.52 70.0679 198.609 72.6574L198.781 77.3385L197.628 78.9226C197.013 79.8085 195.09 82.8766 193.349 85.7469C191.629 88.6047 190.171 90.9921 190.136 91.0697C190.089 91.1272 189.738 89.8989 189.357 88.3553C188.896 86.4165 188.418 85.0731 187.907 84.1676L187.133 82.8418L188.964 79.1358C189.979 77.1089 190.854 75.3922 190.934 75.3422C191.101 75.2095 191.733 78.044 192.039 80.3582C192.3 82.1995 192.515 82.6773 193.101 82.8122C193.556 82.9171 194.241 82.5441 194.471 82.0662C194.751 81.4456 193.563 75.006 192.957 73.9929L192.377 73.0199L194.589 68.5456C197.554 62.5149 197.179 63.0279 197.725 64.3012C197.991 64.8591 198.254 65.9473 198.311 66.6629ZM193.899 62.7689C193.742 63.0066 192.334 65.9194 190.764 69.24C186.324 78.6989 179.101 93.7681 177.991 95.9102C177.448 97.0012 176.578 98.7704 176.068 99.8689C175.141 101.813 175.113 101.858 174.495 101.716C173.812 101.559 165.095 101.331 159.804 101.328C150.249 101.319 143.546 101.642 133.236 102.606L125.132 103.359L121.389 102.583C112.322 100.682 98.2802 99.3308 90.4142 99.5737C89.2608 99.5991 88.3051 99.5845 88.3201 99.5194C88.345 99.3368 99.0801 97.0487 103.773 96.2289C111.514 94.8952 115.932 94.3032 123.123 93.6477C138.934 92.221 150.776 92.1918 164.727 93.488C167.307 93.7397 170.012 93.969 170.75 94.0363C171.573 94.106 171.993 94.0659 171.828 93.8908C171.42 93.5056 163.574 92.6227 156.748 92.2148C151.309 91.8864 147.676 91.8201 141.779 91.9173C123.582 92.2464 107.438 94.2987 89.3105 98.5658C86.5736 99.2198 82.3256 100.039 79.8913 100.421C73.7069 101.393 69.7716 102.268 65.1511 103.738C60.3328 105.249 57.9063 106.265 53.9215 108.396C43.1176 114.179 37.1386 123.181 38.3276 131.847C39.045 137.133 42.5121 142.676 48.8141 148.701C55.0085 154.599 62.8889 159.72 75.3107 165.87C92.8899 174.614 106.647 179.428 128.258 184.424C143.266 187.899 151.633 189.57 171.397 192.993C173.164 193.28 174.75 193.457 174.93 193.344C175.23 193.157 177.988 188.842 185.955 176.12C187.968 172.884 189.744 170.159 189.904 170.059C190.044 169.971 190.239 170.016 190.327 170.156C190.602 170.596 195.814 185.293 198.854 194.249C201.612 202.352 209.891 226.183 212.423 233.257C215.541 242.025 215.624 242.336 215.024 242.489C214.806 242.541 212.672 243.18 210.268 243.876C204.144 245.702 176.72 253.668 172.455 254.861C170.514 255.407 164.815 257.022 159.821 258.475C147.683 261.947 129.939 267.005 127.489 267.674C125.133 268.313 125.043 268.926 128.228 262.089L130.451 257.275L132.68 256.743C133.893 256.458 141.023 254.726 148.523 252.875C156.036 251.043 164.299 249.076 166.916 248.498C169.513 247.931 171.682 247.438 171.742 247.4C171.802 247.362 171.739 247.262 171.624 247.167C171.496 247.052 169.628 247.358 167.486 247.807C164.264 248.486 142.881 253.647 133.15 256.115L130.736 256.707L133.061 252.19C134.351 249.712 135.876 246.81 136.476 245.766C137.586 243.847 137.636 243.259 136.756 243.141C136.273 243.082 133.728 241.416 133.78 241.188C133.782 241.103 134.643 241.011 135.679 240.975C142.176 240.725 195.211 235.783 195.871 235.37C196.111 235.219 196.154 235.109 195.979 235.052C195.796 235.027 186.912 235.823 176.214 236.835C155.238 238.819 135.489 240.537 133.695 240.518C132.614 240.526 132.421 240.396 128.159 237.187C122.513 232.924 114.51 226.626 114.54 226.496C114.582 226.386 128.233 225.421 135.153 225.045C145.701 224.461 156.719 224.14 185.296 223.582C194.451 223.396 202.049 223.126 202.184 222.985C202.359 222.82 201.511 222.71 200.078 222.688C194.756 222.593 159.511 223.396 145.736 223.938C136.957 224.279 116.078 225.618 114.372 225.961C113.872 226.051 113.204 225.606 109.755 222.808C96.7461 212.292 81.8123 198.831 72.9998 189.727C60.5831 176.864 51.3117 164.846 45.5961 154.194C39.4472 142.673 36.141 132.268 35.1639 121.27C33.3906 101.388 42.2704 81.1338 58.0384 69.0439C70.082 59.8125 94.4659 52.7735 120.12 51.1482C133.263 50.3054 146.04 50.9715 160.237 53.2833C169.122 54.7138 193.316 60.9902 193.966 62.0308C194.079 62.2109 194.037 62.5437 193.899 62.7689ZM187.193 89.3469C187.582 90.8579 188.033 92.469 188.17 92.9118C188.378 93.6448 188.256 94.0276 186.788 96.7553C185.888 98.4319 185.058 99.7307 184.975 99.6431C184.86 99.5481 184.439 98.2522 184.063 96.7612C183.675 95.2502 183.157 93.7092 182.906 93.3089C182.493 92.6486 182.518 92.4659 183.116 91.2848C183.451 90.5741 184.233 88.8875 184.816 87.5488L185.908 85.1115L186.181 85.8595C186.327 86.2698 186.785 87.8483 187.193 89.3469ZM182.215 98.6133C182.616 100.144 183.122 101.665 183.31 101.966C183.635 102.486 183.548 102.791 182.558 104.635C181.192 107.215 181.172 107.228 181.065 106.655C181.007 106.385 180.681 105.196 180.303 104.013C179.724 102.064 179.582 101.792 179.009 101.454L178.378 101.069L179.731 98.2464C180.471 96.6699 181.131 95.3662 181.191 95.3286C181.271 95.2785 181.366 95.3861 181.393 95.5637C181.429 95.7088 181.794 97.0948 182.215 98.6133ZM178.244 105.217C178.472 105.938 178.828 107.441 179.031 108.567L179.385 110.601L178.105 113.406C177.412 114.925 176.78 116.184 176.715 116.169C176.669 116.141 176.539 115.443 176.466 114.57C176.373 113.71 176.068 112.509 175.777 111.911C175.334 110.935 175.194 110.8 174.651 110.778L174.023 110.753L174.37 109.84C174.668 109.069 176.78 104.435 177.266 103.519C177.461 103.118 177.736 103.559 178.244 105.217ZM172.808 106.808C171.246 110.096 169.913 113.129 167.218 119.77C166.901 120.553 166.601 121.186 166.556 121.159C166.433 121.096 165.868 120.726 162.474 118.506C157.289 115.067 149.777 111.247 143.997 109.127C142.7 108.657 141.64 108.207 141.634 108.155C141.692 107.98 156.408 107.739 160.564 107.841C164.497 107.942 165.035 107.912 164.81 107.551C164.534 107.111 156.613 106.999 146.12 107.27L139.533 107.465L136.49 106.473C134.816 105.933 132.056 105.126 130.38 104.671C128.696 104.249 127.429 103.872 127.555 103.849C127.7 103.814 129.756 103.586 132.14 103.347C142.828 102.23 153.927 101.858 168.701 102.111C173.375 102.194 174.806 102.301 174.718 102.607C174.673 102.802 173.806 104.708 172.808 106.808ZM173.889 113.565C174.443 115.474 174.48 115.979 174.206 117.543C174.048 118.449 174.088 118.869 174.369 119.139C174.719 119.477 174.604 119.827 173.274 122.33C172.469 123.891 171.534 125.646 171.229 126.226L170.686 127.317L170.401 126.549C170.243 126.119 169.805 125.196 169.459 124.465L168.771 123.142L171.076 117.524C172.351 114.444 173.393 111.927 173.418 111.967C173.431 111.987 173.658 112.707 173.889 113.565ZM167.769 127.861C167.955 128.914 168.115 129.928 168.123 130.118C168.135 130.36 167.069 129.858 164.867 128.563C163.07 127.515 160.726 126.17 159.622 125.607L157.643 124.535L158.783 123.821C160.324 122.857 160.637 122.467 160.554 121.711C160.434 120.896 159.79 120.491 158.997 120.736C158.369 120.934 156.196 122.488 155.721 123.064C155.456 123.397 154.82 123.182 151.272 121.559C149.01 120.524 147.163 119.619 147.185 119.522C147.208 119.424 148.143 118.783 149.264 118.082C151.065 116.956 151.32 116.741 151.415 116.18C151.515 115.672 151.43 115.447 150.994 115.107L150.476 114.679L147.657 116.359C145.984 117.378 144.808 118.169 144.735 118.409C144.643 118.662 144.278 118.612 143.339 118.225C142.654 117.93 141.26 117.437 140.254 117.12C139.248 116.802 138.38 116.483 138.342 116.423C138.305 116.362 139.4 115.622 140.781 114.758C143.102 113.306 143.27 113.173 143.22 112.648C143.177 111.867 142.449 111.237 141.833 111.455C141.568 111.565 139.897 112.499 138.151 113.535L134.939 115.433L133.486 114.978C132.687 114.726 130.933 114.236 129.567 113.921C128.208 113.574 127.125 113.221 127.147 113.124C127.17 113.026 128.616 112.178 130.364 111.279C133.204 109.809 133.551 109.564 133.804 108.988C133.971 108.633 134.144 108.33 134.204 108.293C134.544 108.08 144.838 111.942 149.085 113.879C156.149 117.117 165.613 123.168 167.005 125.304C167.243 125.685 167.576 126.84 167.769 127.861ZM183.4 174.127L181.79 176.581L180.049 177.225C179.095 177.571 177.885 177.994 177.389 178.137C176.213 178.482 176.346 178.205 178.264 176.197C179.857 174.561 185.208 170.741 185.085 171.346C185.06 171.529 184.29 172.79 183.4 174.127ZM176.198 185.313C175.836 185.178 175.02 185.298 174.159 185.614C171.468 186.518 171.455 186.498 172.838 183.768C173.538 182.439 174.2 181.273 174.34 181.185C174.481 181.098 174.876 181.017 175.216 181.027C175.556 181.037 176.677 180.782 177.708 180.471C178.726 180.14 179.737 179.842 179.934 179.802C180.152 179.75 179.554 180.931 178.549 182.617C176.789 185.5 176.769 185.513 176.198 185.313ZM128.457 109.521C125.681 111.09 125.133 111.461 124.895 111.971C124.623 112.559 124.525 112.537 120.342 111.59C117.98 111.063 116.095 110.543 116.118 110.446C116.14 110.348 117.819 109.159 119.855 107.83L123.559 105.429L127.603 106.464C129.82 107.026 131.672 107.538 131.697 107.578C131.722 107.618 130.268 108.499 128.457 109.521ZM212.534 248.834C211.434 250.636 209.462 251.758 204.667 253.393C202.656 254.094 200.719 254.693 200.364 254.748L199.726 254.841L200.189 254.468C200.444 254.253 201.474 253.051 202.5 251.798C203.517 250.576 204.473 249.478 204.593 249.403C204.713 249.327 204.9 248.96 205.003 248.589L205.193 247.914L208.775 246.787C210.764 246.183 212.753 245.579 213.188 245.474L214.026 245.256L213.651 246.437C213.456 247.06 212.946 248.159 212.534 248.834ZM174.641 189.321C174.274 190.025 173.828 190.693 173.668 190.793C173.388 190.968 169.177 190.066 169.25 189.826C169.265 189.761 169.467 189.328 169.71 188.87L170.12 188.057L171.133 188.342C172.029 188.617 172.449 188.577 174.931 187.915C175.419 187.805 175.381 187.968 174.641 189.321ZM113.816 109.436C113.458 110.244 113.839 110.229 108.799 109.427C105.827 108.948 105.814 108.928 106.242 108.41C106.512 108.13 108.178 106.921 109.962 105.722L113.241 103.531L116.121 104.041C117.697 104.335 119.281 104.598 119.621 104.607C120.177 104.65 119.949 104.82 117.19 106.685C114.719 108.342 114.101 108.868 113.816 109.436ZM200.062 250.928C199.342 251.824 198.222 252.97 197.584 253.508C196.523 254.394 196.246 254.93 196.434 255.675C196.479 255.925 186.392 259.116 186.254 258.896C186.204 258.816 186.562 258.453 187.065 258.055C191.014 254.889 193.375 252.744 193.67 252.058C193.833 251.651 194.08 251.245 194.22 251.158C194.621 250.907 201.263 249.063 201.338 249.184C201.375 249.244 200.815 250.039 200.062 250.928ZM105.075 106.189C104.49 106.722 103.832 107.495 103.58 107.848L103.147 108.536L98.7737 108.265C95.2234 108.064 94.4478 107.936 94.6929 107.616C94.8429 107.411 96.0835 106.412 97.3967 105.396C98.7098 104.38 99.9929 103.271 100.193 102.923C100.433 102.55 100.716 102.29 100.918 102.302C101.121 102.315 103.035 102.482 105.172 102.648L109.065 102.997L107.599 104.081C106.776 104.679 105.648 105.636 105.075 106.189ZM96.0024 103.345C93.6512 105.149 91.7328 106.934 91.5779 107.532C91.418 108.077 91.3454 108.095 90.187 108.068C88.6958 107.998 85.661 108.087 82.7538 108.291C81.5529 108.374 80.6222 108.399 80.6822 108.361C80.7423 108.324 81.7953 107.47 83.0359 106.472C85.5046 104.454 86.0523 103.861 86.3447 102.815L86.5096 102.1L87.6704 102.042C88.2934 102.014 90.37 101.996 92.3015 102.012C94.2205 102.009 96.132 102.039 96.5448 102.031C96.9777 102.011 97.343 102.061 97.3805 102.121C97.4181 102.181 96.7928 102.739 96.0024 103.345ZM186.904 255.038C183.752 257.789 183.214 258.487 183.69 259.247C183.978 259.708 183.925 259.713 178.272 261.356C175.147 262.28 172.458 263.099 172.318 263.187C172.178 263.275 172.007 263.27 171.945 263.17C171.895 263.09 172.548 262.486 173.431 261.851C174.294 261.227 176.295 259.753 177.86 258.607C180.577 256.629 180.732 256.476 180.859 255.701C180.992 254.978 181.087 254.863 181.872 254.65C182.335 254.499 184.356 253.903 186.338 253.332C188.306 252.741 189.897 252.302 189.903 252.355C189.875 252.4 188.537 253.599 186.904 255.038ZM81.344 104.746C78.2049 107.294 77.9623 107.529 77.8049 108.212C77.6775 108.765 77.5249 108.833 73.7397 109.502C71.5932 109.898 69.8645 110.117 69.9395 110.014C69.982 109.904 70.7723 109.075 71.6502 108.164C73.3509 106.433 74.2111 105.226 74.3059 104.443C74.3533 104.163 74.4658 103.898 74.5659 103.835C74.806 103.685 80.2699 102.717 82.354 102.444C83.1821 102.343 83.8426 102.376 83.7926 102.518C83.7751 102.668 82.6721 103.665 81.344 104.746ZM171.243 260.49C170.063 261.451 169.758 261.809 169.683 262.357C169.645 262.743 169.751 263.178 169.916 263.353C170.101 263.516 170.141 263.713 170.021 263.788C169.801 263.926 159.944 266.862 159.286 266.967C158.693 267.087 160.904 265.148 164.689 262.251C166.625 260.762 168.283 259.363 168.436 259.073C168.658 258.627 169.209 258.394 172.526 257.377C174.64 256.751 176.548 256.198 176.746 256.158C176.956 256.137 176.131 256.821 174.933 257.709C173.722 258.578 172.061 259.84 171.243 260.49ZM69.1354 107.26C67.4147 109.004 66.7694 109.797 66.6145 110.395L66.3871 111.234L63.9506 112.145C62.5997 112.656 60.656 113.51 59.6054 114.056L57.7293 115.062L58.5144 113.736C59.5246 112.102 60.1194 110.115 59.9964 108.939L59.891 108.058L62.4727 107.112C63.9086 106.603 66.5003 105.762 68.2765 105.263C70.0527 104.765 71.5787 104.311 71.6588 104.261C72.2516 103.918 71.0712 105.325 69.1354 107.26ZM157.599 264.848C155.668 266.613 155.258 267.204 155.571 267.704C155.671 267.864 155.686 268.022 155.626 268.059C155.566 268.097 152.329 269.064 148.419 270.201C117.105 279.291 116.663 279.429 114.716 279.255C113.605 279.17 113.332 278.867 113.317 277.596L113.304 276.686L114.212 276.758C115.088 276.823 115.281 276.73 119.668 274.041C123.635 271.616 124.493 271.162 126.272 270.579C127.395 270.238 128.338 270.01 128.388 270.09C128.439 270.17 126.9 271.272 124.984 272.526C123.061 273.813 121.362 275.014 121.225 275.239C120.807 275.862 121.233 276.765 122.048 276.868C122.681 276.945 123.014 276.765 126.281 274.555C130.428 271.793 131.444 270.88 131.518 269.887L131.578 269.181L136.169 267.841L140.747 266.481L136.524 269.122C131.854 272.071 131.787 272.141 132.67 273.286L133.143 273.909L138.644 270.552C144.332 267.05 144.875 266.627 144.412 265.886C144.274 265.666 144.222 265.449 144.322 265.386C144.414 265.356 145.888 264.908 147.631 264.402C151.336 263.337 151.324 263.317 146.626 266.756C144.881 268.015 143.405 269.217 143.347 269.392C143.282 269.6 143.388 270.035 143.575 270.335C144.139 271.236 144.847 270.988 147.941 268.857C149.371 267.851 151.42 266.319 152.481 265.433C153.541 264.547 154.514 263.744 154.654 263.656C154.774 263.581 154.962 263.213 155.044 262.855L155.202 262.172L159.587 260.905L163.992 259.625L161.741 261.367C160.528 262.321 158.655 263.91 157.599 264.848ZM56.4148 112.516C55.8797 113.352 55.1871 114.425 54.887 114.836C54.4419 115.504 54.4019 115.751 54.6898 116.212C55.0528 116.792 55.0328 116.804 53.482 118.109C50.1454 120.919 47.2821 125.021 45.8675 129.08C45.1251 131.187 44.9876 131.412 44.6748 131.134C43.9265 130.517 43.5306 129.038 43.7804 127.88C44.0402 126.603 43.8148 126.021 43.0542 126.051C42.096 126.121 41.5558 126.682 41.3735 127.77C41.029 129.935 42.0932 132.304 44.0827 133.704C44.7559 134.202 44.806 134.282 44.8464 135.37C44.8795 137.159 45.283 139.05 46.0669 141.149L46.7781 143.043L45.5942 141.64C39.1715 134.131 38.9835 125.952 45.0881 118.487C45.6859 117.751 46.2486 117.093 46.3486 117.03C46.5487 116.905 47.0546 118.203 47.1149 119.057C47.1953 119.897 46.828 121.268 46.2704 122.202C46.0228 122.607 45.8204 123.263 45.803 123.636C45.7907 124.284 45.8408 124.364 46.4288 124.636C47.2947 125.041 47.6698 124.751 48.5399 122.982C49.7375 120.534 49.8117 118.205 48.7202 116.326L48.0968 115.241L48.9097 114.537C49.9702 113.651 55.8485 109.919 56.9617 109.473L57.7972 109.118L57.5999 110.048C57.5 110.556 56.97 111.667 56.4148 112.516ZM134.017 245.217C133.672 245.822 133.592 245.872 133.209 245.75C132.891 245.642 132.341 245.875 131.327 246.481C130.535 246.949 129.376 247.59 128.738 247.905L127.57 248.441L128.038 247.453C128.283 246.91 128.425 246.292 128.327 246.047C128.242 245.822 127.652 245.411 126.991 245.156C125.975 244.734 123.838 243.231 123.513 242.711C123.375 242.491 126.024 242.587 128.609 242.892C129.66 243.014 130.786 243.033 131.084 242.931C131.454 242.811 132.057 243.018 132.933 243.528C133.641 243.948 134.251 244.346 134.322 244.413C134.372 244.493 134.237 244.856 134.017 245.217ZM127.9 240.467C125.198 240.153 121.645 240.037 121.245 240.287C121.005 240.437 120.67 240.48 120.494 240.423C119.939 240.158 115.737 236.911 115.787 236.769C115.789 236.684 116.28 236.711 116.84 236.806C117.393 236.933 118.842 237.113 120.043 237.253C121.975 237.492 122.29 237.462 122.828 236.987L123.445 236.461L126.086 238.457C127.56 239.567 128.763 240.512 128.808 240.54C128.853 240.567 128.428 240.555 127.9 240.467ZM130.171 252.243C129.339 253.85 128.648 255.284 128.618 255.414C128.561 255.589 124.676 256.989 123.125 257.402C123 257.425 123.497 256.306 124.225 254.932L125.53 252.39L127.256 251.589C128.199 251.138 129.625 250.302 130.395 249.709C131.326 249.015 131.791 248.78 131.746 248.975C131.709 249.138 130.991 250.617 130.171 252.243ZM117.678 234.584C115.726 234.357 113.862 234.27 113.544 234.385C113.022 234.573 112.641 234.366 110.209 232.435L107.468 230.279L109.95 230.731C113.989 231.49 114.852 231.535 115.377 231.04C115.835 230.614 115.925 230.669 118.365 232.567C119.741 233.655 120.938 234.633 121.025 234.773C121.133 234.901 119.609 234.824 117.678 234.584ZM109.719 228.314C107.778 227.97 105.916 227.798 105.578 227.926C105.136 228.063 104.79 228.001 104.362 227.628C102.988 226.455 98.7238 222.664 98.6487 222.544C98.5235 222.344 104.756 223.985 106.195 224.505C106.888 224.768 107.599 224.88 107.799 224.755C108.059 224.592 108.562 224.862 109.758 225.84C110.642 226.54 111.781 227.471 112.331 227.906C112.869 228.321 113.29 228.726 113.275 228.791C113.26 228.856 111.648 228.639 109.719 228.314ZM101.057 220.564C99.406 220.149 97.4968 219.589 96.7962 219.359C96.0955 219.13 95.2748 218.975 95.0121 219C94.6769 219.042 94.0012 218.63 93.0052 217.75C89.3837 214.586 87.9096 213.253 87.9897 213.203C88.0497 213.165 89.5535 213.477 91.375 213.897C94.0623 214.499 94.7154 214.564 95.0455 214.246C95.3906 213.863 95.5959 214.013 98.7467 216.692C100.594 218.265 102.441 219.838 102.876 220.178C104.258 221.318 104.06 221.358 101.057 220.564ZM123.85 262.433C120.69 263.658 119.867 264.479 120.581 265.62C120.944 266.2 121.086 266.25 121.669 266.024C122.047 265.872 122.662 265.654 123.02 265.514L123.716 265.246L122.938 267.207C122.266 268.937 122.088 269.187 121.378 269.52C120.807 269.765 120.557 270.033 120.515 270.366C120.458 270.764 119.975 271.149 117.674 272.588C116.153 273.54 114.822 274.261 114.679 274.211C114.331 274.011 114.714 273.243 119.882 263.301C121.45 260.288 121.58 260.095 122.195 260.1C122.555 260.097 123.571 259.852 124.457 259.576C127.169 258.659 127.046 258.597 126.231 260.276L125.506 261.787L123.85 262.433ZM90.7161 211.33C89.44 211.071 87.591 210.696 86.6076 210.504C84.9988 210.202 84.676 210.042 83.5022 208.966C81.8304 207.45 78.1937 203.684 78.2112 203.534C78.2262 203.469 79.6224 203.876 81.2964 204.416C83.5409 205.156 84.4842 205.373 84.9095 205.163C85.4473 204.91 85.62 205.052 89.1313 208.173C91.1285 209.987 92.8453 211.53 92.9079 211.63C92.9905 211.717 91.9922 211.59 90.7161 211.33ZM81.1704 201.989C80.2696 201.662 78.7157 201.047 77.7523 200.619C76.7689 200.204 75.743 199.899 75.4278 199.929C75.02 199.99 74.6921 199.777 74.0789 199.019C73.6359 198.489 72.7173 197.421 72.039 196.648L70.8025 195.25L72.6116 195.65C73.6074 195.862 74.6533 195.932 74.9584 195.796C75.4563 195.568 75.6865 195.759 79.0202 198.907C80.9774 200.746 82.6342 202.326 82.6968 202.426C82.7794 202.514 82.0838 202.336 81.1704 201.989ZM71.9076 193.055C71.2195 192.845 70.076 192.531 69.3754 192.301L68.0893 191.936L65.8865 189.082C61.9116 183.884 59.4785 180.395 56.3819 175.4C53.7934 171.172 53.5255 170.699 54.6369 172.12C59.2375 178.096 64.4137 184.101 70.015 189.896C73.454 193.48 73.454 193.48 71.9076 193.055Z" fill="url(#paint0_linear_677_153)"/>
<path d="M167.787 70.8312C146.985 68.1965 119.812 68.6839 96.4425 72.1372C89.6676 73.1454 74.677 76.0629 71.1371 77.0799C70.6943 77.2177 69.0307 77.6736 67.4596 78.0995C60.8926 79.8407 53.1951 82.623 49.4979 84.5458C46.8839 85.9303 47.642 85.9851 50.5112 84.608C60.9301 79.678 80.8113 74.7873 101.652 72.0528C122.144 69.3411 145.414 69.0677 166.184 71.2496C168.808 71.5289 171.133 71.7733 171.336 71.7857C171.571 71.8057 171.638 71.7356 171.526 71.5555C171.425 71.3954 169.752 71.0782 167.787 70.8312Z" fill="url(#paint1_linear_677_153)"/>
<path d="M167.589 81.3708C159.452 80.3353 146.252 79.5718 136.467 79.5953C110.256 79.6195 83.8423 84.1698 61.603 92.4565C54.9687 94.9358 48.5799 98.208 49.0055 98.8884C49.2308 99.2486 51.4525 99.1953 51.4498 98.835C51.4548 98.6649 51.0644 98.575 50.5791 98.6001L49.6934 98.653L50.3562 98.1549C51.877 96.9809 58.191 94.2566 64.5101 92.0302C88.2506 83.6954 116.396 79.5098 143.375 80.3134C149.787 80.5063 154.651 80.8049 162.66 81.5026C166.606 81.8465 169.853 82.098 169.913 82.0605C170.254 81.8477 169.468 81.6153 167.589 81.3708Z" fill="url(#paint2_linear_677_153)"/>
<path d="M196.431 212.719C188.76 213.229 177.279 213.256 155.477 212.806C152.152 212.742 144.493 212.604 138.439 212.494C132.416 212.391 123.167 212.247 117.91 212.166C104.675 211.925 98.7276 211.942 98.6676 212.203C98.6452 212.3 98.6877 212.413 98.7528 212.428C98.8704 212.438 103.609 212.536 127.593 212.958C136.567 213.108 149.05 213.346 155.34 213.476C172.456 213.823 179.664 213.908 185.751 213.803C191.308 213.696 198.701 213.276 199.061 213.051C199.641 212.688 198.76 212.57 196.431 212.719Z" fill="url(#paint3_linear_677_153)"/>
<path d="M135.778 188.742C134.58 188.74 131.28 188.493 128.412 188.226C105.859 186.13 82.5504 184.562 75.5925 184.655C72.4676 184.688 73.451 185.103 76.8737 185.189C88.0175 185.513 106.853 186.873 125.373 188.708C133.059 189.468 137.19 189.752 138.033 189.586C138.283 189.541 138.333 189.399 138.183 189.159C138.02 188.898 137.192 188.776 135.778 188.742Z" fill="url(#paint4_linear_677_153)"/>
<path d="M115.394 183.533C115.192 183.521 112.547 183.254 109.542 182.99C106.525 182.706 102.699 182.287 101.035 182.075C99.3714 181.862 94.9603 181.309 91.2147 180.839C82.1448 179.692 76.0597 178.821 69.5943 177.742C66.6419 177.25 64.2274 176.951 64.2299 177.089C64.2476 177.606 75.5096 179.499 89.5761 181.335C108.915 183.856 116.373 184.564 115.897 183.803C115.822 183.683 115.59 183.578 115.394 183.533Z" fill="url(#paint5_linear_677_153)"/>
<defs>
<linearGradient id="paint0_linear_677_153" x1="81.7439" y1="51.1299" x2="208.837" y2="254.32" gradientUnits="userSpaceOnUse">
<stop stop-color="#0AC2D4"/>
<stop offset="1" stop-color="#0AD4BC"/>
</linearGradient>
<linearGradient id="paint1_linear_677_153" x1="95.4348" y1="55.7481" x2="124.037" y2="101.476" gradientUnits="userSpaceOnUse">
<stop stop-color="#0AC2D4"/>
<stop offset="1" stop-color="#0AD4BC"/>
</linearGradient>
<linearGradient id="paint2_linear_677_153" x1="96.107" y1="69.0065" x2="122.731" y2="111.572" gradientUnits="userSpaceOnUse">
<stop stop-color="#0AC2D4"/>
<stop offset="1" stop-color="#0AD4BC"/>
</linearGradient>
<linearGradient id="paint3_linear_677_153" x1="134.632" y1="189.698" x2="163.249" y2="235.45" gradientUnits="userSpaceOnUse">
<stop stop-color="#0AC2D4"/>
<stop offset="1" stop-color="#0AD4BC"/>
</linearGradient>
<linearGradient id="paint4_linear_677_153" x1="95.8985" y1="170.944" x2="116.148" y2="203.317" gradientUnits="userSpaceOnUse">
<stop stop-color="#0AC2D4"/>
<stop offset="1" stop-color="#0AD4BC"/>
</linearGradient>
<linearGradient id="paint5_linear_677_153" x1="81.2836" y1="166.414" x2="98.8935" y2="194.568" gradientUnits="userSpaceOnUse">
<stop stop-color="#0AC2D4"/>
<stop offset="1" stop-color="#0AD4BC"/>
</linearGradient>
</defs>
</svg>
