<svg width="334" height="352" viewBox="0 0 334 352" fill="none" xmlns="http://www.w3.org/2000/svg">
<path d="M231.384 0.649403C231.181 0.730051 220.84 0.868824 208.471 0.962446C196.101 1.05607 185.435 1.1941 184.746 1.3142C184.097 1.39384 182.028 1.59192 180.203 1.70945C173.389 2.2212 159.634 5.39378 155.533 7.49329C148.062 11.2479 141.071 18.1262 138.055 24.7702C135.447 30.523 133.686 38.062 133.1 46.1715L132.847 50.1858L128.579 54.4748C124.84 58.1973 118.619 65.3207 115.447 69.4906L114.43 70.8266L111.673 70.4553L108.956 70.1247L111.721 66.8867C113.267 65.1058 117.413 60.5326 120.991 56.7692C128.308 48.9589 130.748 46.1256 130.384 45.7598C129.979 45.3939 116.687 58.9494 113.068 63.4427C112.295 64.4548 110.628 66.3976 109.408 67.7736L107.253 70.3237L104.617 70.3177C103.157 70.3144 102.062 70.1497 102.144 69.9471C102.389 69.2177 116.74 53.6775 123.243 47.0008C126.983 43.1972 130.317 39.5143 130.683 38.7852C131.335 37.5295 131.335 37.5295 130.563 38.0144C128.939 38.984 113.899 54.4821 109.995 59.137C99.8698 71.2396 101.049 70.0257 99.0207 70.1428C98.0067 70.181 90.95 70.3273 83.285 70.4721C75.6605 70.617 69.0903 70.8049 68.6846 70.8851C68.279 70.9247 66.5754 71.0425 64.8315 71.0791C63.1282 71.1158 60.5324 71.2721 59.072 71.4716C57.6117 71.6305 55.3401 71.8687 54.0016 71.9873C50.2294 72.2626 41.3446 73.8241 38.1793 74.7091C30.875 76.7608 26.2879 78.7376 21.0894 82.0917C16.7438 84.8801 14.8743 86.6603 11.8233 90.7899C7.87749 96.134 6.5737 98.8076 4.69379 105.17C1.75177 114.937 0.513089 124.667 0.483762 137.604C0.45802 148.959 1.29485 155.49 3.79135 163.363C8.54259 178.42 17.5676 186.591 34.1043 190.725C37.3873 191.543 43.549 192.652 44.8467 192.655C44.9684 192.656 42.4475 195.529 39.2764 199.01C23.6648 216.169 14.4775 225.881 0.657625 239.8C28.4451 212.854 52.765 188.131 37.6908 200.751C37.3245 201.358 43.7431 196.465 43.4995 196.586C43.2558 196.748 9.8573 231.622 9.61288 232.108C9.16486 232.958 79.3923 159.72 26.1405 215.323C76.6325 160.647 29.2753 209.975 31.0641 207.992C32.8531 205.968 13.4996 227.947 19.556 221.837C29.1894 212.086 19.514 222.486 26.1405 215.323C27.2788 214.109 30.9375 210.184 34.2711 206.582C37.6046 203.021 41.7513 198.529 43.4995 196.586L46.7113 193.065L49.55 193.071L52.4293 193.078L48.1614 197.408C40.113 205.662 34.3792 212.544 35.3112 212.87C35.7975 213.033 36.7325 212.062 41.4896 206.639C43.0347 204.858 46.0431 201.58 48.1975 199.354C50.3519 197.129 52.4659 194.822 52.9134 194.215C53.6456 193.243 54.0108 193.122 56.8904 193.007C58.5939 192.93 60.0133 192.933 60.013 193.055C60.0128 193.136 57.9396 195.321 55.4599 197.911C45.9481 207.703 37.653 217.458 37.6498 218.837C37.6477 219.77 38.176 219.284 41.9982 214.832C46.4708 209.692 48.8289 207.061 56.3899 199.129L62.4062 192.817L64.8806 192.538C66.2598 192.379 67.6797 192.139 68.045 192.018C68.4103 191.898 65.8083 194.771 62.2313 198.413C52.8416 208.003 42.1085 219.861 42.1066 220.672C42.1045 221.605 43.2419 220.756 46.1283 217.68C47.8762 215.859 50.1529 213.35 51.2506 212.136C55.0726 207.764 68.6489 193.966 68.9324 194.129C69.0944 194.211 69.0512 195.387 68.8859 196.765L68.5154 199.198L63.4346 204.296C56.7686 210.972 46.8481 222.143 47.1713 222.67C47.333 222.914 47.2111 223.036 46.9678 222.994C46.3599 222.831 45.4647 224.167 45.9099 224.574C46.2336 224.899 47.4936 223.644 57.1286 213.163C63.7959 205.919 67.3727 202.358 67.6154 202.643C67.6963 202.724 67.2878 204.021 66.7166 205.56C65.5746 208.437 61.8717 213.944 58.7414 217.303C52.928 223.535 53.2941 223.049 53.7784 224.105C54.0204 224.673 54.4655 225.12 54.7494 225.121C55.966 225.124 66.2765 220.808 68.7538 219.232C69.9316 218.504 70.784 218.141 70.6617 218.425C70.5394 218.709 63.8735 225.344 55.8259 233.234C41.8851 246.829 39.6493 249.176 40.0943 249.663C40.3776 249.907 58.9101 232.308 69.2749 221.95C73.8679 217.378 79.4762 212.119 81.7515 210.258C85.7332 206.982 89.3508 203.3 91.8323 199.899C92.4833 198.968 93.134 198.158 93.2965 198.037C93.4184 197.916 93.7031 197.551 93.9067 197.187C94.1103 196.822 95.7769 195.123 97.6058 193.383C100.898 190.309 100.979 190.268 102.6 190.556L104.262 190.843L97.5963 197.56C91.174 204.075 81.7835 214.03 77.5958 218.725C74.4245 222.286 63.5292 234.103 57.4721 240.538C48.366 250.25 46.7399 251.99 45.3162 253.893L43.8927 255.715L45.2743 254.501C48.8501 251.386 61.9795 237.912 71.8989 227.228C83.8917 214.278 91.1683 206.589 98.7697 198.739L106.168 191.172L108.033 191.257C109.047 191.26 109.898 191.424 109.898 191.505C109.898 191.627 107.011 194.662 103.475 198.222C96.4839 205.263 91.1989 210.969 84.8558 218.336C77.0489 227.402 61.3956 245.048 53.3052 253.951C50.2155 257.31 49.1579 258.727 49.4005 259.012C49.967 259.581 59.7642 249.14 77.3286 229.227C91.0306 213.686 97.6167 206.442 105.299 198.592C111.884 191.874 112.169 191.632 113.547 191.757C114.317 191.88 115.209 191.963 115.534 191.964C115.858 192.005 114.394 193.786 112.281 195.931C103.866 204.631 90.1243 219.888 80.0806 231.748C75.5669 237.131 68.2477 245.712 63.8562 250.853C59.4242 255.993 55.8051 260.324 55.8047 260.486C55.8043 260.689 55.9662 260.811 56.169 260.812C56.7773 260.813 62.916 254.176 70.0318 245.838C83.6535 229.931 86.9877 226.046 93.1676 219.125C100.486 210.868 110.812 199.658 115.162 195.126C117.966 192.253 118.373 191.97 120.198 191.731L122.186 191.492L121.575 192.383C121.209 192.869 117.916 196.511 114.257 200.437C108.282 206.831 103.769 211.89 98.0755 218.73C97.059 219.904 95.6764 221.564 94.9852 222.333C94.294 223.142 92.1387 225.773 90.1865 228.243C88.2344 230.672 85.2249 234.436 83.5168 236.541C78.2709 242.937 77.6605 243.828 78.2688 243.829C79.0393 243.831 82.3323 240.269 87.2939 234.076C89.5306 231.323 91.9707 228.328 92.7432 227.437C93.5564 226.507 95.3455 224.442 96.7281 222.783C104.007 214.04 107.707 209.79 113.683 203.355C117.301 199.47 121.163 195.221 122.261 193.926C124.172 191.7 124.335 191.619 126.2 191.623L128.187 191.628L121.764 198.588C105.909 215.707 98.5498 224.206 99.0353 224.694C99.1972 224.857 102.815 221.174 108.466 215.104C110.01 213.445 112.734 210.531 114.523 208.629C116.311 206.727 119.97 202.802 122.694 199.929C131.19 190.823 130.621 191.309 132.528 191.11C133.502 190.991 134.231 191.073 134.15 191.236C134.068 191.438 132.645 193.016 130.979 194.757C129.312 196.497 125.897 200.179 123.457 202.972C121.018 205.765 116.993 210.135 114.514 212.685C110.489 216.853 107.765 219.928 97.1122 232.233C95.3639 234.216 90.7701 239.153 86.9083 243.2C75.9327 254.652 67.4349 264.365 67.839 265.015C68.1217 265.502 69.0565 264.612 74.5859 258.42C79.424 253.037 81.4159 250.933 90.1557 241.828C95.1555 236.689 96.6192 235.03 104.344 226.247C107.272 222.928 111.663 218.031 114.102 215.401C116.582 212.77 120.728 208.238 123.371 205.324C126.014 202.41 129.347 198.768 130.77 197.23L133.413 194.478L133.407 196.871C133.404 198.209 133.279 199.547 133.157 199.912C133.034 200.236 131.897 201.288 130.678 202.258C126.737 205.25 115.027 218.566 104.738 231.682C98.1486 240.143 95.9932 242.815 94.1223 245.203C93.1055 246.499 92.3322 247.754 92.4127 247.998C92.6948 248.769 95.1343 246.017 103.756 235.289C112.54 224.4 124.13 210.598 125.674 209.263C126.161 208.818 128.031 206.875 129.779 204.933L132.991 201.371L132.986 203.602L132.981 205.832L128.591 210.567C115.215 225.136 96.264 248.615 97.5607 249.064C98.1685 249.268 98.9816 248.377 103.618 242.467C105.896 239.552 108.987 235.707 110.491 233.885C112.036 232.064 114.436 229.149 115.9 227.409C118.706 224.009 128.017 213.364 131.066 210.086L132.936 208.063L132.97 210.78L132.964 213.497L126.907 220.012C123.573 223.574 120.117 227.337 119.263 228.39C118.409 229.483 117.637 230.414 117.474 230.535C116.214 231.668 105.842 245.514 105.434 246.648C105.189 247.256 105.229 247.297 105.961 246.731C106.976 245.922 106.61 246.408 113.89 237.381C117.428 233.049 122.673 226.897 125.641 223.659C128.609 220.422 131.536 217.144 132.106 216.293L133.245 214.836L133.847 217.352L134.409 219.908L133.028 221.04C128.03 225.206 103.714 253.904 104.32 254.919C104.684 255.447 105.7 254.435 109.685 249.618C114.484 243.749 120.176 237.152 124.607 232.376C129.323 227.237 131.153 225.172 133.105 222.703L134.691 220.76L135.498 222.83L136.263 224.941L134.068 227.247C127.808 233.924 123.091 239.307 117.561 246.067C111.786 253.192 110.402 255.257 110.847 255.704C111.131 255.989 112.919 254.127 116.213 250.12C121.906 243.198 126.013 238.381 132.396 231.258L136.95 226.159L138 228.027L139.01 229.894L135.636 233.374C129.254 239.93 115.428 256.485 115.426 257.58C115.424 258.432 117.05 256.773 123.759 249.001C130.752 240.906 139.493 231.193 139.818 231.194C139.94 231.194 140.668 231.885 141.437 232.739L142.771 234.283L137.488 239.462C131.432 245.409 127.203 250.064 119.437 259.333C116.55 262.733 116.427 262.976 117.319 262.978C117.806 262.979 120.082 260.632 123.335 256.827C126.263 253.427 130.898 248.288 133.703 245.374C136.507 242.501 139.841 238.94 141.142 237.564L143.459 235.014L144.795 236.112C145.483 236.722 146.09 237.332 146.09 237.494C146.089 237.656 144.26 239.68 142.064 241.987C137.715 246.519 125.315 260.157 123.892 261.938C123.444 262.505 123.2 262.991 123.403 262.992C123.93 262.952 125.23 261.779 128.604 258.137C130.393 256.235 134.946 251.46 138.727 247.494C142.507 243.529 146.003 239.765 146.491 239.117L147.346 237.943L149.128 238.758C150.1 239.206 150.992 239.655 151.073 239.736C151.194 239.817 148.632 242.772 145.421 246.293C133.915 258.838 126.799 267.379 126.145 269.527C125.737 270.743 126.345 271.028 127.118 269.975C130.413 265.4 136.96 257.629 144.034 249.94C152.165 241.036 152.53 240.672 153.746 240.918C154.435 241.082 155.165 241.367 155.367 241.571C155.691 241.896 150.568 247.846 146.666 251.689C142.56 255.776 132.881 268.042 133.407 268.57C133.65 268.814 135.357 267.034 139.098 262.419C141.132 259.95 148.165 252.22 155.198 244.693C157.352 242.427 157.515 242.346 158.934 242.593L160.393 242.88L156.936 247.171C149.697 256.238 140.343 267.978 139.936 268.504C139.285 269.435 140.055 269.721 140.99 268.871C141.762 268.184 160.184 245.718 161.445 243.977C161.852 243.37 162.217 243.37 164.487 243.781L167.081 244.274L164.683 246.864C158.3 253.784 151.631 261.717 150.694 263.419L150.206 264.391L151.465 263.501C152.155 263.016 153.781 261.398 155.042 259.941C156.343 258.443 159.392 255.044 161.791 252.372C164.23 249.661 166.71 246.787 167.28 245.937C168.216 244.641 168.541 244.439 169.554 244.644C170.203 244.767 171.135 244.851 171.703 244.852C172.514 244.854 172.066 245.502 168.367 249.589C164.016 254.446 159.339 260.518 159.744 260.884C159.825 261.006 161.206 259.671 162.711 257.93C164.256 256.231 166.695 253.519 168.159 251.941C169.622 250.403 171.533 248.218 172.428 247.165L174.054 245.222L176.811 245.512L179.528 245.802L174.487 250.901C166.968 258.467 164.446 261.584 165.175 262.316C165.418 262.56 166.027 262.074 166.922 260.982C167.694 260.01 170.865 256.651 173.995 253.495C177.084 250.298 179.889 247.344 180.215 246.899C180.703 246.211 181.23 246.09 183.501 246.095L186.218 246.142L185.162 247.032C183.09 248.771 174.187 258.403 171.137 262.127C169.428 264.272 168.126 266.256 168.207 266.621C168.287 267.108 169.75 265.692 172.758 262.252C175.239 259.5 179.588 254.806 182.515 251.852L187.799 246.511L189.989 246.516L192.179 246.52L184.618 254.249C176.773 262.261 174.74 264.568 175.185 265.015C175.509 265.34 178.72 262.306 187.012 253.768L193.922 246.646L196.072 246.57L198.221 246.534L193.181 251.673C184.076 261.061 178.871 266.97 179.438 267.336C179.803 267.581 193.745 253.459 197.527 248.966C199.397 246.78 199.478 246.74 202.034 246.543C203.494 246.424 204.67 246.387 204.67 246.427C204.67 246.508 201.295 250.11 195.929 255.856C192.718 259.215 188.286 264.274 187.838 265.044C187.675 265.327 187.715 265.571 187.959 265.571C188.648 265.573 202.632 251.046 205.235 247.645C206.17 246.471 206.658 246.148 207.671 246.191C210.672 246.238 210.631 246.522 207.012 250.65C197.254 261.821 194.692 265.019 195.218 265.344C195.866 265.751 197.696 263.809 208.877 250.898L211.236 248.186L212.408 249.648C213.055 250.461 213.581 251.233 213.581 251.314C213.58 251.435 212.076 253.176 210.206 255.24C205.083 260.784 199.35 267.584 199.349 268.03C199.347 268.841 200.402 268.398 201.581 267.103C205.484 262.732 211.543 255.851 212.722 254.353C213.495 253.422 214.267 252.654 214.389 252.654C214.551 252.654 215.158 253.264 215.724 254.036L216.775 255.376L213.889 258.574C210.921 261.892 204.577 269.502 204.048 270.353C203.885 270.677 204.006 270.88 204.371 270.881C204.898 270.882 215.225 259.591 216.852 257.242L217.503 256.311L219.406 257.816L221.268 259.361L220.333 260.17C218.626 261.626 209.601 271.501 209.112 272.392C208.868 272.878 208.786 273.364 208.988 273.486C209.434 273.771 211.75 271.587 215.369 267.458C217.117 265.435 219.353 262.925 220.329 261.873L222.118 259.931L223.494 261.069C224.223 261.679 224.87 262.37 224.87 262.573C224.91 262.776 223.039 264.88 220.723 267.227C216.211 271.881 211.901 276.697 211.9 277.143C211.9 277.265 212.143 277.387 212.427 277.387C213.319 277.389 224.701 265.411 225.313 263.831L225.68 262.859L229.244 265.097C236.047 269.411 240.787 271.45 245.571 272.15C250.152 272.769 250.763 271.716 248.136 267.857C247.085 266.314 245.306 263.674 244.094 261.927C242.922 260.181 241.952 258.353 241.954 257.826C241.955 257.218 243.622 255.194 247.159 251.593L252.321 246.251L255.565 246.259L258.81 246.266L252.022 253.023C245.925 259.092 244.38 260.833 244.988 260.834C245.394 260.835 252.424 254.362 256.489 250.235C260.676 245.986 260.716 245.986 262.988 245.748C264.245 245.589 265.949 245.39 266.72 245.23C268.059 244.989 267.774 245.354 262.409 250.776C256.393 256.845 251.514 262.431 251.878 262.796C251.999 262.918 256.145 258.913 261.144 253.936L270.168 244.832L274.429 243.503C278.731 242.134 282.953 240.278 284.294 239.105C284.66 238.782 285.066 238.58 285.146 238.661C285.268 238.742 284.211 239.794 282.83 240.967C279.985 243.354 279.945 243.353 270.517 252.051C262.308 259.616 254.096 268.398 254.093 269.655C254.093 269.777 256.978 266.985 260.515 263.424C267.465 256.384 270.96 253.107 278.071 246.918C280.631 244.693 283.923 241.781 285.386 240.446C286.849 239.111 289.124 237.088 290.465 235.956C308.262 220.829 324.964 205.862 326.266 203.918C326.836 203.068 326.836 202.987 326.308 203.31C325.618 203.674 317.166 210.914 310.786 216.577C308.511 218.559 305.057 221.592 303.025 223.291C301.034 224.949 297.865 227.7 295.955 229.358L292.542 232.351L294.657 229.639C296.568 227.251 299.907 221.216 300.602 218.946C300.888 217.974 308.853 210.449 315.923 204.463C321.246 199.892 323.969 197.424 328.196 193.338C330.797 190.749 332.952 188.523 332.952 188.361C332.953 187.793 329.216 190.664 325.436 194.143C323.445 195.963 319.666 199.28 317.106 201.545C311.783 206.157 308.735 208.907 304.752 212.67C302.111 215.178 301.948 215.259 302.194 214.124C302.85 211.124 304.124 203.625 304.126 202.773C304.127 202.205 304.656 201.396 305.469 200.749C306.972 199.454 310.426 196.461 315.912 191.648C318.065 189.746 320.991 187.239 322.454 186.025C325.704 183.275 333.102 175.83 332.819 175.586C332.738 175.464 332.047 175.909 331.275 176.596C327.578 179.832 322.539 184.201 317.866 188.124C315.063 190.51 310.959 194.11 308.764 196.092C306.57 198.115 304.701 199.733 304.579 199.733C304.417 199.732 304.422 197.502 304.509 194.785L304.642 189.797L308.989 186.279C315.287 181.183 322.236 174.832 323.863 172.727C326.669 169.083 325.208 169.769 320.453 174.301C317.811 176.85 313.097 181.057 310.009 183.645L304.362 188.296L304.168 184.362L303.974 180.468L305.396 179.255C313.401 172.419 324.902 161.536 324.904 160.806C324.906 159.955 323.931 160.723 317.753 166.427C314.218 169.704 309.666 173.79 307.635 175.488L303.978 178.603L303.339 174.262C302.46 168.542 301.495 164.809 300.123 161.642C298.469 157.908 294.75 152.506 292.645 150.757C291.674 149.903 290.865 149.131 290.865 148.969C290.865 148.806 294.644 145.814 299.316 142.296C303.947 138.779 309.269 134.614 311.178 132.996C315.038 129.801 321.501 123.165 321.137 122.799C321.016 122.677 320.407 123.04 319.797 123.566C319.188 124.133 317.603 125.548 316.221 126.762C311.548 130.969 306.916 134.689 300.214 139.703C296.517 142.412 292.617 145.444 291.479 146.415L289.448 148.114L287.625 147.096C286.612 146.526 285.398 145.712 284.871 145.346L283.981 144.614L286.418 142.835C298.929 133.86 308.233 126.379 313.192 121.321C316.322 118.124 314.819 118.932 309.781 123.138C305.19 126.98 297.228 133.045 289.104 138.907C287.113 140.322 284.879 142.02 284.107 142.667L282.725 143.84L279.686 143.063C278.024 142.654 276.727 142.205 276.768 142.002C276.85 141.84 279.166 139.696 281.97 137.188C288.228 131.605 293.755 126.305 293.756 125.859C293.757 125.657 293.595 125.494 293.392 125.494C292.905 125.492 281 135.847 277.91 139.003C276.488 140.46 275.025 141.673 274.701 141.673C274.052 141.671 268.864 140.443 268.621 140.199C268.54 140.158 269.19 139.47 270.044 138.742C273.091 136.154 278.537 130.935 280.367 128.83C282.156 126.847 282.277 126.766 285.239 126.286C297.856 124.368 304.065 122.273 311.294 117.545C316.94 113.867 320.356 109.739 323.006 103.418C324.841 98.9614 326.645 90.368 327.558 81.3671C328.303 74.3935 328.359 50.0207 327.682 44.4633C326.845 37.7699 326.043 33.7938 324.835 30.1818C318.833 12.2839 305.227 3.2906 281.466 1.53347C279.804 1.40803 276.52 1.15726 274.168 0.989717C269.789 0.695912 232.115 0.367182 231.384 0.649403ZM274.364 3.95061C275.499 4.07485 277.932 4.24258 279.838 4.40911C290.461 5.12262 302.58 8.27274 306.952 11.4459C307.033 11.4866 306.586 11.9722 305.936 12.4574C302.239 15.3284 299.962 18.0403 301.26 18.0433C301.584 18.044 304.063 15.9408 307.314 12.8661C307.599 12.6234 308.045 12.3811 308.248 12.3815C308.856 12.3829 312.216 14.986 312.256 15.4727C312.255 15.7161 311.565 16.2822 310.752 16.7671C309.9 17.2112 308.478 18.3435 307.624 19.2338C306.283 20.6096 306.12 20.8931 306.687 21.1377C307.173 21.301 308.026 20.8568 309.245 19.8457C313.592 16.2057 313.39 16.2458 315.654 19.0492C316.867 20.5524 316.908 20.5931 316.096 21.159C313.293 23.0992 310.204 25.9716 310.203 26.6204C310.2 27.6748 310.606 27.5946 312.232 26.0573C315.849 22.74 317.189 21.7292 317.554 21.9328C317.756 22.0955 318.362 23.0702 318.927 24.1664L319.896 26.1152L317.092 28.6232C314.004 31.3333 312.987 32.6693 314.001 32.6716C314.326 32.6723 315.91 31.5809 317.535 30.2464C319.12 28.9117 320.541 27.901 320.703 27.9825C320.825 28.0639 321.389 29.444 321.953 31.0674L322.961 33.9896L321.539 35.1625C320.767 35.8096 319.264 36.9011 318.208 37.5882C316.299 38.8004 315.647 39.975 316.823 39.9777C317.148 39.9784 318.65 39.0491 320.113 37.9575C321.616 36.8254 322.956 36.0173 323.159 36.1394C323.32 36.2615 323.602 37.2759 323.762 38.4118L324.041 40.4807L320.545 44.001C317.212 47.3189 316.643 48.1692 317.371 48.6575C317.695 48.861 318.183 48.4971 322.084 44.9372C324.36 42.8336 324.765 43.0373 324.757 46.4438C324.752 48.5931 324.712 48.7147 322.151 51.3043C319.671 53.8942 317.392 57.4172 318.244 57.4191C318.447 57.4196 319.259 56.732 320.032 55.8821C320.763 55.0727 322.146 53.5754 323.04 52.5635C323.935 51.5517 324.788 50.8642 324.909 50.9456C325.031 51.0675 325.148 53.055 325.183 55.3261L325.214 59.4626L321.719 63.1046C318.588 66.4229 317.571 67.9617 318.544 67.9639C318.747 67.9643 320.291 66.5484 321.999 64.8085L325.128 61.6929L325.122 64.5317L325.115 67.3704L320.564 71.6994C317.109 74.9359 316.093 76.1097 316.416 76.4754C316.78 76.8412 317.552 76.3563 319.665 74.5361C321.209 73.2014 322.916 71.6642 323.444 71.0571C324.013 70.4906 324.582 70.0053 324.785 70.0057C324.947 70.0061 325.107 71.1014 325.104 72.4397L325.098 74.9134L320.14 79.7281C316.238 83.4503 315.262 84.6241 315.626 85.0305C315.99 85.3963 316.721 84.9519 318.875 82.929C320.379 81.5131 322.33 79.7331 323.224 78.9241L324.768 77.5082L324.478 80.3463C324.312 81.8869 324.065 83.4275 323.862 83.792C323.658 84.1565 322.439 85.3703 321.138 86.5029C316.181 90.8715 314.108 92.9756 314.106 93.6245C314.104 94.6789 315.037 94.4377 316.379 93.0619C317.029 92.3739 318.98 90.5534 320.687 88.9757L323.856 86.1441L323.607 88.6984L323.358 91.2933L319.334 95.1368C317.14 97.2812 315.31 99.2237 315.31 99.5075C315.307 100.521 316.404 99.9156 319.167 97.3669C320.752 95.9511 322.133 94.7782 322.255 94.7379C322.62 94.7387 321.556 99.1973 320.576 101.831C319.352 105.073 316.423 109.446 313.781 111.995C310.001 115.555 302.246 119.552 295.835 121.241C293.684 121.804 293.644 121.763 294.416 121.075C294.822 120.671 297.017 118.648 299.252 116.544C303.275 112.863 305.431 110.272 304.986 109.785C304.702 109.541 304.743 109.541 297.672 115.973C295.03 118.4 292.673 120.788 292.469 121.274C292.021 122.246 289.87 122.768 284.638 123.243L281.798 123.521L282.814 122.55C283.383 121.983 286.715 119.03 290.25 115.997C293.745 112.963 296.631 110.212 296.631 109.847C296.632 109.36 296.47 109.36 295.821 109.683C294.318 110.491 283.551 119.672 281.152 122.221C280.177 123.233 279.771 123.354 276.77 123.469C274.945 123.546 273.525 123.502 273.566 123.38C273.729 123.056 278.037 119.173 283.522 114.4C287.911 110.598 292.991 105.459 292.993 104.81C292.995 103.918 292.061 104.524 289.257 107.154C287.631 108.651 284.299 111.685 281.82 113.869C279.382 116.053 275.928 119.087 274.221 120.624L271.092 123.456L266.145 123.323L261.198 123.19L265.626 119.55C271.233 114.94 274.322 112.067 276.802 109.113C278.713 106.887 279.161 105.995 278.513 105.994C278.31 105.993 276.4 107.692 274.246 109.796C272.092 111.9 267.662 115.824 264.412 118.534L258.52 123.427L254.79 123.297L251.059 123.167L255.487 119.689C259.712 116.374 268.652 108.526 268.653 108.161C268.654 107.878 266.989 108.807 265.405 109.979C262.277 112.283 250.495 121.706 250.007 122.313C249.6 122.799 248.707 122.959 246.477 122.954C244.814 122.95 243.476 122.785 243.477 122.623C243.477 122.42 244.534 121.408 245.794 120.276C250.141 116.555 255.75 111.052 256.321 109.918C257.502 107.609 257.177 107.892 245.189 118.774C240.84 122.738 241.936 122.579 232.491 120.895C227.707 120.032 226.734 119.989 225.273 120.392C222.27 121.317 220.639 125.166 220.136 132.424C219.715 139.074 221.155 147.878 223.136 150.559C224.228 152.062 223.539 152.02 220.419 150.472C215.397 147.946 210.421 142.257 204.442 132.267C200.402 125.445 197.613 121.545 196.276 120.853C195.466 120.405 193.479 120.36 185.813 120.667C180.622 120.858 176.283 120.929 176.161 120.848C176.04 120.767 176.324 120.443 176.771 120.119C178.234 119.028 184.696 112.594 184.697 112.189C184.699 111.499 184.049 111.944 179.62 115.705C177.223 117.687 174.866 119.669 174.338 120.114C173.485 120.801 173.16 120.801 169.917 120.347C168.012 120.059 166.431 119.69 166.431 119.528C166.432 119.325 168.261 117.505 170.496 115.441C172.731 113.378 174.56 111.557 174.56 111.355C174.563 110.26 171.435 112.483 166.761 116.933C165.502 118.147 164.121 119.117 163.674 119.116C162.985 119.115 161.526 118.665 158.771 117.645C158.365 117.523 159.219 116.47 161.495 114.407C164.421 111.737 165.154 110.603 164.059 110.601C163.897 110.601 162.231 111.976 160.402 113.634C158.533 115.293 156.705 116.667 156.34 116.666C154.839 116.663 149.089 112.757 145.933 109.586C139.864 103.49 136.879 96.3048 135.487 84.5816C134.93 79.8355 134.879 66.1687 135.382 59.0323C135.55 56.4778 135.722 52.1795 135.769 49.503C136.089 33.4849 140.698 22.0591 149.839 14.5773C153.252 11.7868 158.287 9.2028 162.669 7.99612L165.672 7.19184L161.608 10.9136C155.228 16.7389 147.586 24.3863 147.585 24.9135C147.583 25.8057 148.152 25.442 151.078 22.6504C168.31 6.4273 168.106 6.62962 171.595 6.02922C173.056 5.78921 174.476 5.58966 174.719 5.59021C174.962 5.59076 173.662 7.00719 171.833 8.70631C164.924 15.1387 158.542 21.5724 158.297 22.3018C158.175 22.707 158.174 23.1531 158.255 23.275C158.376 23.3969 160.367 21.6576 162.684 19.4729C174.795 7.8614 177.762 5.19156 178.573 5.03119C179.06 4.91063 180.642 4.752 182.102 4.63365L184.739 4.43685L181.894 6.90419C177.546 10.747 174.376 13.9435 174.375 14.4302C174.372 15.5657 175.834 14.7174 178.963 11.764C180.792 10.0244 183.393 7.67811 184.734 6.58619C187.09 4.60439 187.293 4.52375 190.214 4.28705L193.256 4.05062L189.395 7.65116C186.591 10.2808 185.656 11.3737 185.979 11.6988C186.465 12.1866 188.13 10.9737 192.763 6.60439L195.486 3.97457L211.627 3.76783C220.468 3.66621 227.809 3.48009 227.931 3.39925C228.175 3.15648 271.445 3.70067 274.364 3.95061ZM132.714 55.1736C132.465 57.7685 132.22 58.7412 131.733 58.9835C131.367 59.1854 128.806 62.0184 126 65.2563L120.918 71.1657L118.606 71.1605C117.308 71.1575 116.254 71.0335 116.254 70.9118C116.255 70.5874 121.785 64.1113 127.518 57.6762C130.282 54.6409 132.519 51.9289 132.52 51.645C132.52 51.4017 132.642 51.2803 132.763 51.4428C132.885 51.5647 132.881 53.2274 132.714 55.1736ZM132.371 63.3648L132.122 66.1219L129.114 69.1566L126.106 72.2319L124.16 71.7814C122.336 71.4122 122.255 71.331 122.946 70.7648C123.352 70.4413 125.588 68.0131 127.906 65.4229C130.223 62.7921 132.256 60.6474 132.378 60.6476C132.499 60.6479 132.497 61.8645 132.371 63.3648ZM132.072 70.3799C132.066 72.7726 132.026 72.813 130.971 72.8107C130.322 72.8092 129.43 72.6855 128.944 72.5627C128.052 72.3174 128.093 72.1958 129.963 70.1318C131.02 68.9581 131.915 67.9869 131.996 67.9871C132.037 67.9466 132.075 69.0416 132.072 70.3799ZM108.341 73.3271C113.937 73.5831 118.883 73.9593 120.221 74.2462C120.991 74.4102 121.072 74.5726 120.706 75.2206C120.176 76.1927 120.419 76.2338 121.8 75.3448C122.816 74.6577 124.438 74.5802 126.951 75.0726C128.086 75.3185 128.086 75.3185 124.591 78.8387C122.68 80.7404 121.095 82.4807 121.094 82.6429C121.092 83.6567 122.92 82.4442 126.334 79.1671C128.488 77.1443 130.641 75.2026 131.169 74.9199C132.022 74.4758 132.062 74.5164 132.06 75.6114C132.058 76.6252 131.326 77.4752 127.79 80.752C124.092 84.1907 122.831 85.7695 123.764 85.7716C123.926 85.772 125.917 84.1138 128.233 82.0913L132.459 78.451L132.455 80.3976C132.45 82.3442 132.45 82.3442 128.508 86.0662C125.46 88.8981 124.728 89.7886 125.377 89.8307C125.863 89.8318 127.569 88.6596 129.438 87.0011L132.649 84.2101L132.969 86.1169C133.289 87.8614 133.208 88.064 132.192 88.7917C129.917 90.4493 124.999 95.3857 125.16 95.8322C125.362 96.4815 127.23 95.1474 130.685 91.8298C132.107 90.4542 133.367 89.4027 133.448 89.5245C133.529 89.6058 133.729 90.7012 133.888 91.9182L134.127 94.1087L130.834 97.6294C127.907 100.745 126.849 102.406 127.903 102.408C128.065 102.408 129.691 100.912 131.479 99.0503L134.731 95.6511L135.254 97.68L135.736 99.6682L132.647 102.784C130.94 104.483 129.557 106.102 129.557 106.386C129.554 107.481 130.691 106.754 133.496 103.881L136.423 100.846L137.231 102.267C137.716 103.039 138.079 103.81 138.079 103.932C138.078 104.053 136.981 105.267 135.68 106.643C132.631 109.759 131.411 111.297 131.735 111.663C131.897 111.785 133.522 110.41 135.392 108.549L138.765 105.231L139.735 106.693L140.705 108.155L136.478 112.404C133.226 115.641 132.372 116.774 132.736 117.14C133.1 117.506 134.157 116.657 137.368 113.501L141.513 109.455L142.565 110.674L143.616 111.933L140.852 114.766C137.438 118.327 135.608 120.634 135.606 121.324C135.603 122.662 136.497 122.056 138.693 119.344C139.994 117.765 141.864 115.579 142.881 114.527L144.669 112.585L146.126 113.926L147.624 115.227L143.641 119.071C140.024 122.55 138.844 124.332 140.101 124.335C140.385 124.336 142.335 122.475 144.53 120.208L148.433 116.081L150.296 117.18L152.159 118.279L149.517 120.788C146.55 123.66 145.208 125.36 145.409 126.01C145.49 126.253 147.318 124.797 149.472 122.734L153.414 119.053L155.076 119.543C155.968 119.829 156.697 120.074 156.697 120.114C156.697 120.155 154.705 122.219 152.226 124.687C149.462 127.479 147.754 129.503 147.753 130.03C147.752 130.476 147.913 130.841 148.116 130.842C148.318 130.842 150.554 128.576 153.115 125.784C158.116 120.28 157.913 120.401 161.154 121.625C162.167 121.992 162.167 122.033 159.688 124.379C156.315 127.535 152.615 131.582 152.614 132.069C152.612 133.245 154.196 131.991 158.627 127.378L163.505 122.279L165.086 122.526L166.667 122.814L162.236 127.346C157.196 132.525 156.342 133.537 156.949 134.147C157.232 134.431 159.102 132.651 162.598 128.887C167.924 123.1 168.817 122.535 170.437 123.552C170.923 123.878 170.109 124.89 166.736 128.329C161.614 133.508 160.597 134.723 160.798 135.575C160.879 135.98 162.951 134.16 166.894 130.154L172.869 124.085L175.546 123.888L178.263 123.732L171.638 130.327C167.98 133.969 165.134 137.045 165.296 137.207C165.741 137.654 167.204 136.481 173.91 129.967C177.487 126.528 180.575 123.818 180.737 123.981C180.898 124.184 181.017 125.401 180.933 126.699C180.807 128.807 180.684 129.091 179.914 129.211C178.859 129.37 170.851 137.504 170.849 138.436C170.847 139.247 170.441 139.571 176.863 133.462C179.098 131.358 180.967 129.902 181.169 130.106C181.371 130.309 181.525 134.162 181.514 138.704C181.497 146.125 181.413 147.463 180.389 152.206C178.339 162.056 175.811 167.89 171.053 173.759C163.936 182.584 153.383 186.413 130.993 188.39C124.909 188.903 109.337 188.543 104.634 187.762C96.9726 186.488 96.323 186.77 93.0651 192.765C88.952 200.339 82.2453 207.096 72.3354 213.603C67.5022 216.796 60.5587 220.673 59.707 220.671C59.5854 220.671 60.3988 219.618 61.5778 218.364C66.3343 213.184 69.9178 206.663 71.3915 200.623C72.0469 197.746 72.1715 196.448 71.9354 193.244C71.739 190.445 71.4981 189.35 71.093 189.187C70.7688 189.064 68.538 189.221 66.1851 189.54C63.7917 189.859 61.7635 190.098 61.7231 190.017C61.6421 189.976 65.0551 187.145 69.3209 183.748C73.5868 180.351 77.0811 177.439 77.0815 177.237C77.0844 175.98 73.3883 178.485 64.6122 185.725C62.0932 187.787 59.9396 189.648 59.8174 189.891C59.6547 190.093 57.9511 190.252 55.964 190.247L52.3547 190.239L56.5001 186.315C58.7759 184.17 62.5553 180.691 64.9122 178.588C67.2692 176.444 69.1389 174.583 69.0583 174.38C69.0181 174.217 69.1806 174.096 69.4238 174.137C69.667 174.219 69.9919 174.017 70.0736 173.733C70.6857 172.072 67.0703 174.74 59.9587 181.213C57.0735 183.802 53.8221 186.917 52.765 188.131L50.8134 190.317L47.2859 190.025C45.3802 189.858 43.7992 189.611 43.8401 189.449C43.8404 189.328 45.1409 188.114 46.7255 186.779C50.5856 183.503 58.5509 176.1 58.9579 175.452C59.1209 175.128 59.0811 174.803 58.8786 174.681C58.6761 174.559 54.8163 177.713 50.3057 181.718C45.7952 185.723 41.8946 188.999 41.6106 189.039C39.7853 189.197 35.6912 188.376 35.6924 187.849C35.6928 187.687 37.603 185.826 39.9598 183.763C44.9987 179.273 50.7301 173.405 50.7316 172.757C50.7332 172.027 49.2298 173.321 38.9478 182.949L33.8678 187.683L31.1122 186.784L28.3566 185.886L33.8837 180.708C36.8911 177.876 39.3707 175.286 39.3715 174.961C39.3728 174.353 38.7245 174.149 38.4799 174.675C38.4389 174.878 35.8379 177.346 32.7493 180.218L27.141 185.437L25.1154 184.5L23.0899 183.522L25.2849 181.296C29.5124 176.926 30.733 175.185 29.638 175.183C29.2325 175.182 26.5497 177.933 23.2564 181.657L21.9961 183.033L19.6474 181.486C13.7355 177.539 9.24837 171.203 6.59029 163.045C5.01982 158.135 4.29831 154.402 3.50461 146.735C3.14716 143.409 3.21861 129.783 3.59233 125.932C3.92521 122.201 5.32408 113.364 5.89662 111.256C6.10141 110.364 6.46961 108.946 6.67422 108.135C9.04712 98.9755 15.1513 89.6619 21.7313 85.1348C26.321 82.0225 33.3032 78.9562 39.3492 77.4289C43.6504 76.3437 53.1029 74.824 57.4429 74.5095C59.3492 74.3921 62.3508 74.1556 64.1354 74.038C65.92 73.9204 68.0292 73.7629 68.7999 73.6836C69.5706 73.6042 76.7897 73.4178 84.8197 73.2738C92.8497 73.1298 99.4603 72.9825 99.5415 72.9422C99.5822 72.9017 100.515 72.9038 101.569 72.9873C102.623 73.0303 105.665 73.1994 108.341 73.3271ZM230.822 123.527C230.943 123.649 229.276 125.429 227.122 127.533C224.034 130.487 223.18 131.134 223.182 130.444C223.227 128.457 224.002 126.431 225.466 124.691C226.93 122.869 227.011 122.829 228.795 123.076C229.809 123.2 230.741 123.405 230.822 123.527ZM191.566 123.438C191.566 123.519 190.59 124.49 189.452 125.542C188.274 126.593 186.608 128.131 185.754 128.94L184.25 130.437L183.888 129.138C183.607 128.002 183.729 127.678 185.437 125.817C186.453 124.683 187.672 123.632 188.118 123.552C189.214 123.27 191.566 123.194 191.566 123.438ZM195.296 123.811C195.944 124.299 195.618 124.664 191.961 127.859C189.726 129.801 187.207 132.188 186.393 133.2C185.539 134.171 184.727 134.98 184.564 134.98C184.402 134.979 184.241 134.452 184.243 133.762C184.245 132.83 184.733 132.141 186.399 130.645C187.537 129.593 189.813 127.489 191.357 125.992C192.942 124.495 194.283 123.241 194.405 123.241C194.527 123.282 194.932 123.526 195.296 123.811ZM184.669 124.639C183.653 125.731 183.044 125.649 183.047 124.392C183.049 123.783 183.333 123.622 184.347 123.624L185.604 123.627L184.669 124.639ZM235.93 124.39C236.943 124.554 237.794 124.8 237.794 124.962C237.794 125.124 235.843 126.864 233.446 128.886C227.311 133.941 223.978 137.097 223.977 137.746C223.976 138.07 223.691 138.313 223.367 138.312C222.921 138.311 222.76 137.824 222.763 136.364L222.767 134.418L227.929 129.279C230.775 126.447 233.335 124.141 233.578 124.141C233.821 124.142 234.876 124.266 235.93 124.39ZM243.348 125.704L245.01 125.992L238.143 131.938L231.276 137.924L228.762 137.919L226.207 137.913L227.507 136.659C231.287 132.855 240.145 125.454 240.834 125.455C241.28 125.456 242.416 125.581 243.348 125.704ZM197.682 126.574C198.127 127.386 197.964 127.629 196.176 129.085C195.079 129.975 192.194 132.645 189.755 134.992C185.488 139.037 185.285 139.199 185.044 138.225C184.802 137.332 185.412 136.563 190.655 131.425C193.907 128.269 196.711 125.68 196.873 125.68C197.076 125.681 197.44 126.087 197.682 126.574ZM250.925 128.763C249.38 130.179 246.495 132.809 244.463 134.629L240.806 137.905L237.481 137.938C235.493 137.934 234.115 137.769 234.116 137.525C234.116 137.282 234.238 137.12 234.441 137.121C234.603 137.121 237.488 134.694 240.82 131.701L246.916 126.24L250.322 126.248L253.688 126.215L250.925 128.763ZM255.581 132.261L249.728 137.926L246.484 137.918L243.28 137.952L249.132 132.287L255.025 126.664L258.229 126.63L261.474 126.638L255.581 132.261ZM268.972 128.236C267.997 129.045 265.803 130.987 264.137 132.565C257.35 138.916 257.837 138.634 254.431 138.464L251.471 138.295L257.283 132.468L263.136 126.642L266.948 126.691L270.76 126.74L268.972 128.236ZM280.777 126.844C280.777 126.965 269.764 136.998 267.691 138.737C266.473 139.748 265.499 139.867 261.729 139.332L259.54 139.002L264.823 133.945C267.709 131.153 270.351 128.523 270.676 128.037C270.961 127.592 271.53 127.107 271.855 126.945C272.504 126.703 280.777 126.6 280.777 126.844ZM199.46 129.742C199.782 130.391 200.065 131 200.065 131.122C200.064 131.243 198.358 132.618 196.327 134.155C194.255 135.732 191.858 137.551 191.046 138.239C189.989 139.129 189.177 139.451 188.448 139.368C187.434 139.244 187.8 138.84 192.676 134.39C195.643 131.72 198.122 129.333 198.204 129.049C198.53 128.279 198.773 128.402 199.46 129.742ZM199.566 136.555C197.534 138.537 196.681 139.103 195.342 139.303C192.015 139.782 191.976 139.417 194.982 137.031C196.485 135.818 198.436 134.16 199.208 133.391L200.671 131.975L201.399 133.031L202.086 134.127L199.566 136.555ZM203.943 137.579C204.064 137.984 204.104 138.39 204.022 138.43C203.982 138.511 202.643 138.671 201.142 138.829L198.343 139.107L200.335 137.084L202.286 135.101L202.974 135.995C203.378 136.442 203.782 137.173 203.943 137.579ZM251.099 141.214C254.302 141.464 257.425 141.715 257.992 141.797C258.56 141.92 261.154 142.291 263.708 142.662C287.141 146.04 297.058 154.295 300.178 173.079C301.138 179.002 301.689 186.384 301.713 193.643C301.675 210.595 297.836 222.468 289.584 231.006C283.853 236.914 276.342 240.588 266.564 242.35C262.345 243.07 260.114 243.187 250.99 243.207L240.324 243.183L239.596 242.208C238.707 241.03 237.53 241.189 236.838 242.566C235.901 244.43 236.217 248.242 237.705 253.558C239.315 259.159 240.606 261.797 243.76 266.022C244.973 267.647 245.74 268.947 245.457 268.946C245.173 268.945 243.187 268.292 240.958 267.516C233.786 265.026 224.229 258.922 219.415 253.801C218.322 252.622 216.503 250.185 215.412 248.398C214.321 246.611 213.19 244.824 212.866 244.459C212.138 243.605 209.463 243.153 205.367 243.184L202.244 243.218L203.911 241.356C206.066 238.928 206.554 238.037 205.743 238.035C205.419 238.034 204.078 239.207 202.777 240.664L200.419 243.295L196.323 243.286L192.186 243.276L195.397 240.201C197.145 238.502 198.487 236.923 198.365 236.761C198.042 236.193 196.864 237.001 193.45 240.197L190.24 243.191L186.185 242.857C183.996 242.649 181.806 242.482 181.401 242.441C180.793 242.439 181.281 241.751 183.313 239.647C185.955 236.936 186.525 235.964 185.593 235.962C185.349 235.961 183.683 237.377 181.936 239.076L178.725 242.191L174.589 241.695C172.319 241.406 170.414 241.118 170.333 241.037C170.252 240.955 171.228 239.822 172.528 238.527C175.658 235.371 178.098 232.335 177.775 232.01C177.653 231.848 175.744 233.465 173.589 235.569C171.435 237.673 169.322 239.696 168.875 240.101C168.428 240.586 167.778 240.788 167.251 240.665C166.765 240.542 165.509 240.296 164.454 240.172C163.36 240.007 162.509 239.802 162.509 239.681C162.509 239.559 163.485 238.345 164.664 237.009C166.86 234.459 168.081 232.434 167.717 232.068C167.596 231.946 166.051 233.484 164.303 235.467C162.27 237.734 160.766 239.109 160.239 239.108C159.104 239.146 155.213 237.961 155.214 237.555C155.214 237.393 155.662 236.826 156.19 236.341C157.572 235.046 159.81 231.848 159.323 231.847C159.12 231.846 157.739 233.06 156.275 234.516L153.593 237.187L150.635 235.801C146.341 233.723 143.751 231.446 141.205 227.547C136.679 220.602 135.675 215.936 135.787 202.554C135.799 197.282 136.012 192.497 136.217 191.93C136.624 190.876 137.03 190.715 140.884 190.237L142.872 189.958L140.392 192.71C137.709 195.583 136.975 197.203 139.006 195.789C139.615 195.344 140.469 194.575 140.916 194.09C141.363 193.604 142.745 192.309 143.964 191.258C145.752 189.761 146.604 189.277 148.227 189.037L150.255 188.758L146.272 192.804C142.776 196.405 141.596 198.147 142.65 198.149C142.813 198.149 145.251 195.843 148.056 193.051C152.608 188.398 153.299 187.832 155.45 187.228C156.708 186.826 157.763 186.585 157.763 186.666C157.762 186.788 155.77 188.892 153.291 191.36C150.852 193.828 148.819 196.095 148.819 196.419C148.816 197.595 151.213 195.695 156.01 190.717C159.871 186.671 161.578 185.255 164.38 183.599C168.522 181.175 173.724 176.199 176.857 171.745C177.996 170.125 180.314 167.292 182.062 165.43C185.111 162.112 186.616 160.087 186.618 159.317C186.619 159.073 185.237 160.368 183.489 162.148C181.782 163.929 180.319 165.305 180.197 165.183C180.076 165.101 180.198 164.777 180.401 164.494C180.645 164.21 181.175 162.954 181.543 161.739C182.197 159.712 182.929 158.781 189.026 152.59C198.497 142.919 200.122 141.504 201.704 141.507L203.002 141.51L199.709 144.909C196.66 148.066 195.562 149.726 196.128 150.335C196.29 150.457 198.566 148.394 201.248 145.764C205.516 141.597 206.206 141.071 206.773 141.559C207.34 142.007 207.136 142.331 204.82 144.394C201.488 147.387 199.78 149.533 200.346 150.102C200.629 150.386 201.848 149.375 204.287 146.826L207.824 143.143L208.673 144.2L209.482 145.256L206.352 148.371C203.669 151.042 202.53 152.864 203.544 152.867C203.706 152.867 205.372 151.37 207.201 149.549L210.575 146.191L211.667 147.329L212.8 148.467L210.077 151.138C207.435 153.646 206.865 154.496 207.676 154.498C208.123 154.499 210.073 152.962 212.267 150.94L213.73 149.564L215.633 151.028C219.641 154.079 224.909 155.835 226.696 154.703C227.955 153.895 227.835 152.962 226.098 149.998C224.927 147.967 223.154 142.894 223.157 141.515C223.158 141.069 225.713 140.953 236.136 140.855C241.164 140.826 247.896 140.963 251.099 141.214ZM186.251 142.324C186.251 142.446 185.885 142.891 185.438 143.295C184.625 144.023 184.625 143.983 184.627 142.969C184.629 142.158 184.832 141.956 185.441 141.998C185.887 142.039 186.251 142.162 186.251 142.324ZM188.759 145.209C186.93 147.07 185.182 148.932 184.816 149.377C184.165 150.187 184.165 150.146 184.37 149.173C184.493 148.606 184.616 147.754 184.618 147.227C184.619 146.659 185.433 145.404 186.693 144.069C188.563 142.126 188.969 141.884 190.429 141.887L192.051 141.891L188.759 145.209ZM190.332 149.106C186.389 153.03 183.137 156.227 183.056 156.227C182.975 156.186 183.139 155.335 183.425 154.362C183.834 153.025 185.095 151.405 189.078 147.278C193.997 142.098 194.2 141.896 195.823 141.899L197.485 141.903L190.332 149.106ZM243.279 245.785C243.846 245.989 243.602 246.394 241.894 248.174C240.756 249.348 239.781 250.238 239.66 250.116C239.538 250.034 239.379 248.817 239.26 247.438L239.022 244.923L240.806 245.211C241.779 245.376 242.914 245.622 243.279 245.785ZM248.631 246.243L250.74 246.248L246.228 250.78C243.708 253.288 241.513 255.392 241.31 255.473C241.107 255.553 240.744 254.741 240.463 253.646C239.9 251.455 239.818 251.657 243.355 247.934C244.534 246.72 245.63 245.912 245.955 246.034C246.279 246.156 247.455 246.24 248.631 246.243Z" fill="#0AD4BC"/>
<path d="M255.357 34.3224C255.316 34.4034 249.232 34.5924 241.851 34.7379C234.511 34.8429 228.346 35.0723 228.184 35.153C228.021 35.2743 223.154 35.4255 217.436 35.4936C211.677 35.6022 205.513 35.7505 203.728 35.8681C201.943 35.9452 197.563 36.138 193.994 36.2516C190.425 36.3651 187.14 36.5605 186.694 36.6406C186.247 36.7207 182.678 36.9153 178.785 37.0282C171.241 37.2949 169.983 37.6571 170.912 39.1597C171.559 40.1344 178.007 40.1491 204.532 39.1142C207.209 38.9986 211.67 38.8465 214.468 38.7312C227.284 38.3142 233.449 38.0848 234.95 37.926C235.842 37.8469 248.982 37.674 264.15 37.5867C281.466 37.4637 291.93 37.2441 292.255 37.0015C292.499 36.7588 292.743 36.3538 292.744 36.0293C292.745 35.4616 292.137 35.2169 289.908 34.8468C288.489 34.6003 255.641 34.1203 255.357 34.3224Z" fill="#0AD4BC"/>
<path d="M231.782 57.7908C231.741 57.8718 226.388 58.0219 219.899 58.1694C213.451 58.2765 206.313 58.4631 204.082 58.5797C201.851 58.6557 196.66 58.8467 192.523 58.959C182.749 59.2207 175.084 59.5683 172.041 59.8859C169.77 60.124 169.607 60.2048 169.605 61.1375L169.603 62.1514L180.35 62.0541C186.271 62.0269 192.841 61.8796 194.95 61.8033C199.858 61.5711 249.942 61.2791 272.288 61.3297C288.144 61.3657 289.483 61.3282 290.295 60.6406C291.392 59.7509 291.111 58.7364 289.611 58.1247C288.639 57.7981 232.229 57.4674 231.782 57.7908Z" fill="#0AD4BC"/>
<path d="M183.554 79.6613C177.187 79.9307 171.711 80.2427 171.387 80.3231C169.723 80.6843 168.952 81.1287 168.95 81.6153C168.948 82.7508 170.529 83.1194 173.774 82.8429C175.477 82.6845 194.497 82.5654 216.072 82.5738C250.867 82.6121 255.369 82.5412 255.938 82.0153C257.117 80.8419 255.902 80.0686 252.496 79.8176C244.873 79.2731 194.789 79.119 183.554 79.6613Z" fill="#0AD4BC"/>
<path d="M295.295 91.0671C293.833 92.2398 292.936 94.1033 292.932 96.0093C292.966 98.6454 294.951 99.9476 297.467 99.0206C299.009 98.4563 299.743 96.998 300.114 94.0384C300.363 91.7274 300.323 91.484 299.473 90.8738C298.177 89.9786 296.595 90.0562 295.295 91.0671Z" fill="#0AD4BC"/>
<path d="M278.586 91.7186C274.848 94.9138 275.81 99.742 280.15 99.4274C282.543 99.2706 283.479 97.8127 283.487 94.3657C283.492 92.2569 283.331 91.6076 282.683 91.1601C281.509 90.3058 279.967 90.5051 278.586 91.7186Z" fill="#0AD4BC"/>
<path d="M80.0448 104.489C79.9635 104.57 76.5161 104.724 72.3792 104.877C57.4137 105.37 40.7022 106.792 39.2402 107.722C38.2655 108.328 38.0201 109.26 38.668 109.667C38.8704 109.83 41.2227 109.754 43.8592 109.516C50.8763 108.965 53.6749 108.809 59.7992 108.539C62.8004 108.424 66.7346 108.23 68.5193 108.112C70.3038 108.035 81.4566 107.858 93.258 107.763C110.737 107.6 114.874 107.447 115.362 107.002C117.394 105.06 111.718 104.439 92.0084 104.394C85.4793 104.379 80.1261 104.408 80.0448 104.489Z" fill="#0AD4BC"/>
<path d="M60.5667 127.886C51.2385 128.23 37.1639 129.252 36.5954 129.575C36.0674 129.939 36.1455 131.278 36.7532 131.522C36.9964 131.604 37.8885 131.647 38.6591 131.608C47.3796 130.979 88.5019 130.747 117.538 131.178C124.918 131.276 131.326 131.209 131.853 131.048C132.503 130.847 132.747 130.483 132.667 129.874C132.507 128.779 131.372 128.533 124.439 128.152C116.491 127.729 70.0166 127.502 60.5667 127.886Z" fill="#0AD4BC"/>
<path d="M177.827 137.276C175.186 139.784 174.087 141.363 175.427 140.798C176.401 140.395 181.116 135.499 180.955 135.012C180.875 134.768 179.453 135.779 177.827 137.276Z" fill="#0AD4BC"/>
<path d="M91.3062 145.919C91.1843 146 86.4798 146.111 80.8022 146.139C70.0957 146.236 55.3327 146.811 43.2052 147.635C35.8232 148.146 34.5246 148.548 35.8598 149.89C36.3858 150.418 38.089 150.463 50.4183 150.085C58.0835 149.859 65.6677 149.592 67.2089 149.515C68.7907 149.437 77.1855 149.375 85.8641 149.354C102.735 149.352 108.088 149.08 109.064 148.109C109.999 147.138 108.744 146.162 106.432 146.116C95.4024 145.807 91.4282 145.758 91.3062 145.919Z" fill="#0AD4BC"/>
<path d="M142.314 150.132C141.055 150.819 140.403 152.115 140.399 153.981C140.395 155.643 140.961 156.577 142.338 157.148C144.931 158.208 147.167 155.821 146.769 152.373C146.451 149.614 144.79 148.8 142.314 150.132Z" fill="#0AD4BC"/>
<path d="M125.726 150.662C123.369 152.481 122.833 156.495 124.819 156.986C126.359 157.395 128.268 156.386 128.879 154.887C129.736 152.861 129.618 151.238 128.565 150.506C127.391 149.652 126.945 149.691 125.726 150.662Z" fill="#0AD4BC"/>
<path d="M145.728 164.698C142.313 168.219 136.55 170.071 130.387 169.611C125.927 169.276 123.05 168.013 120.421 165.168C118.641 163.258 118.398 163.136 117.464 163.539C115.556 164.427 116.28 167.308 119.072 169.829C120.367 171.008 124.702 172.923 127.701 173.62C130.579 174.316 134.716 174.203 138.287 173.319C144.089 171.913 150.63 166.656 149.947 163.897C149.545 162.233 147.801 162.553 145.728 164.698Z" fill="#0AD4BC"/>
<path d="M234.332 167.372C234.291 167.413 228.492 167.521 221.475 167.668C214.459 167.814 207.889 168.002 206.875 168.081C205.861 168.159 203.062 168.315 200.588 168.472C195.965 168.705 194.706 169.189 194.703 170.73C194.701 171.419 195.997 172.476 196.362 172.153C196.444 172.072 200.378 171.878 205.042 171.767C236.96 170.907 246.004 170.724 258.778 170.915L273.174 171.07L273.298 170.178C273.504 168.84 272.247 168.513 265.557 168.011C261.137 167.676 234.657 167.13 234.332 167.372Z" fill="#0AD4BC"/>
<path d="M177.257 174.219C174.331 176.686 172.706 178.142 164.334 185.991C158.401 191.533 157.384 192.707 158.032 193.357C158.355 193.683 161.972 190.406 175.303 177.662C178.635 174.506 180.424 172.442 180.06 172.117C179.979 172.035 178.72 173.006 177.257 174.219Z" fill="#0AD4BC"/>
<path d="M169.764 187.828C165.415 192.279 164.561 193.575 167.119 191.796C169.11 190.463 173.987 185.526 173.989 184.877C173.991 183.782 173.098 184.429 169.764 187.828Z" fill="#0AD4BC"/>
<path d="M235.221 186.72C235.099 186.842 230.354 187.034 224.676 187.142C204.033 187.623 197.666 187.77 196.489 187.93C195.84 188.01 192.555 188.164 189.188 188.319C184.524 188.511 182.942 188.751 182.373 189.236C181.764 189.803 181.723 189.965 182.249 190.453C182.694 190.9 184.6 191.026 192.467 190.962C197.821 190.934 203.904 190.867 206.013 190.831C208.122 190.755 223.37 190.586 239.876 190.462C271.144 190.208 272.117 190.129 272.121 188.507C272.124 187.007 270.786 186.882 252.862 186.72C243.251 186.617 235.302 186.639 235.221 186.72Z" fill="#0AD4BC"/>
<path d="M257.806 206.035C256.589 206.275 254.22 213.732 254.211 217.463C254.209 218.679 254.209 218.679 251.978 218.674C245.246 218.659 241.874 221.328 243.853 225.144C245.145 227.662 249.764 229.619 254.913 229.874C258.117 230.003 258.279 230.084 259.452 231.425C262.566 235.001 271.123 235.061 275.754 231.584C279.248 228.956 281.245 224.58 280.156 221.942C279.793 221.089 279.226 220.642 277.97 220.274C277.078 220.029 276.268 219.784 276.187 219.743C276.146 219.702 276.635 218.608 277.287 217.272C279.446 213.018 280.024 208.478 278.567 207.177C277.394 206.079 276.095 206.644 272.884 209.637C268.292 213.966 266.418 217.49 268.404 218.022C269.053 218.186 269.743 217.579 271.614 215.353C272.915 213.733 274.582 211.872 275.314 211.225L276.614 210.011L276.287 211.227C275.836 213.213 274.532 216.333 273.229 218.601C272.577 219.775 272.047 221.193 272.046 221.761C272.043 222.735 272.165 222.775 274.436 222.78C277.477 222.787 277.922 223.275 276.944 225.463C276.047 227.448 273.203 229.915 271.255 230.479C266.71 231.766 260.71 230.901 260.999 228.955C261.163 227.941 260.839 227.819 256.217 227.2C251.19 226.499 246.53 224.664 246.371 223.325C246.252 222.352 248.727 221.789 252.782 221.88C256.148 221.928 257.04 221.808 257.488 221.282C257.894 220.756 257.895 220.472 257.491 219.822C256.925 218.888 257.261 214.104 258.077 211.794C258.689 210.173 258.649 210.092 259.57 215.244C259.97 217.395 260.253 218.125 260.82 218.208C262.725 218.577 263.176 216.429 262.132 211.884C261.048 207.34 259.794 205.593 257.806 206.035Z" fill="#0AD4BC"/>
<path d="M192.957 207.753C192.875 207.834 188.86 207.987 184.074 208.138C175.111 208.361 164.282 209.026 163.713 209.39C163.551 209.511 163.388 210.038 163.386 210.565C163.385 211.214 163.668 211.58 164.397 211.744C164.965 211.907 165.573 211.949 165.736 211.828C166.142 211.585 189.137 211.232 213.794 211.085C227.461 210.994 235.045 210.809 235.573 210.526C236.019 210.284 236.385 209.838 236.386 209.473C236.389 208.014 234.646 207.888 213.639 207.759C202.365 207.653 193.038 207.672 192.957 207.753Z" fill="#0AD4BC"/>
<path d="M111.122 27.0609C104.458 33.2912 99.905 37.904 94.4572 43.8936C82.9921 56.6421 77.0953 63.8879 77.5803 64.619C77.7418 64.9438 77.7011 64.9843 77.4176 64.8214C77.1747 64.6586 76.6466 65.063 76.2396 65.6704C75.8327 66.2778 75.3446 66.9255 75.1415 67.0873C74.8978 67.2489 74.8567 67.4922 75.0185 67.6548C75.3422 67.9799 78.959 64.6627 78.9604 64.0544C78.9608 63.8922 78.7581 63.8512 78.4739 64.0127C78.1896 64.1743 78.1492 64.1337 78.3121 63.8096C78.4749 63.5666 78.759 63.4456 78.9615 63.5677C79.164 63.6899 80.8308 61.9093 82.6608 59.6424C88.8829 51.9918 99.8197 39.7693 106.526 33.0525C110.144 29.4109 113.111 26.2949 113.112 26.0922C113.113 25.4433 112.545 25.7259 111.122 27.0609Z" fill="#0AD4BC"/>
<path d="M121.054 28.8265C113.943 34.9746 98.8226 50.3103 89.8371 60.469C87.6417 62.8972 85.0375 66.744 85.0359 67.4739C85.0347 68.0011 86.4979 66.5445 89.9135 62.578C95.2401 56.3853 102.638 48.6562 113.572 37.8937C119.994 31.5412 125.278 26.2406 125.278 26.0379C125.28 25.3485 124.346 25.9141 121.054 28.8265Z" fill="#0AD4BC"/>
<path d="M125.627 33.3387C119.693 38.9217 96.968 63.3243 94.405 66.8872C92.9812 68.8711 93.751 69.1568 95.4586 67.2546C99.687 62.5194 104.972 56.8943 114.403 46.8583C120.216 40.7479 125.42 35.0821 125.989 34.3129C126.559 33.5031 127.494 32.3697 128.063 31.7221C129.893 29.7391 128.593 30.5878 125.627 33.3387Z" fill="#0AD4BC"/>
<path d="M86.432 41.9689C81.88 46.3384 75.0511 53.3387 73.3837 55.4032C71.8384 57.2652 70.9822 59.2909 71.7121 59.2926C71.9149 59.2931 72.0775 59.1312 72.0779 58.969C72.0782 58.8068 75.8187 54.6382 80.4528 49.7822C88.2174 41.4863 89.9658 39.4625 89.317 39.461C89.1953 39.4608 87.895 40.5933 86.432 41.9689Z" fill="#0AD4BC"/>
<path d="M312.178 139.406C302.712 147.09 297.509 152.39 299.903 151.787C300.227 151.707 302.381 149.928 304.697 147.783C307.014 145.639 310.915 142.161 313.353 140.098C317.497 136.538 319.449 134.475 318.637 134.473C318.435 134.472 315.51 136.696 312.178 139.406Z" fill="#0AD4BC"/>
<path d="M311.542 151.692C308.698 153.753 304.552 158.164 304.712 158.935C304.792 159.382 306.214 158.29 309.506 155.215C314.058 150.927 315.157 149.023 311.542 151.692Z" fill="#0AD4BC"/>
<path d="M310.927 226.025C296.054 239.375 293.25 241.883 291.462 243.338C290.691 243.986 287.562 246.696 284.555 249.365C281.548 252.035 277.037 255.999 274.599 258.102C269.723 262.35 263.423 268.743 263.421 269.473C263.42 269.716 264.558 268.867 265.98 267.532C269.679 264.053 271.467 262.475 278.049 256.853C281.3 254.062 284.144 251.635 284.388 251.393C284.632 251.19 285.973 249.977 287.395 248.763C300.926 237.115 310.15 228.862 316.856 222.389C321.937 217.493 323.482 215.753 323.077 215.387C322.996 215.306 317.51 220.079 310.927 226.025Z" fill="#0AD4BC"/>
<path d="M310.942 237.503C307.854 240.092 301.271 245.795 290.828 255.058C288.837 256.838 284.977 260.195 282.295 262.5C275.509 268.406 271.932 271.926 272.215 272.373C272.336 272.616 272.295 272.657 272.052 272.535C271.566 272.209 269.656 274.151 270.02 274.558C270.182 274.68 270.71 274.438 271.238 273.993C273.839 271.647 284.322 262.505 289.645 257.894C292.977 255.022 297.813 250.734 300.373 248.388C302.933 246.042 306.957 242.401 309.313 240.298C313.58 236.495 315.369 234.634 314.72 234.632C314.558 234.632 312.852 235.926 310.942 237.503Z" fill="#0AD4BC"/>
<path d="M308.644 249.34C302.385 255.328 297.387 259.899 292.429 264.146C291.373 265.036 284.993 270.618 283.327 272.155C283.002 272.438 282.839 272.762 282.96 272.924C283.325 273.25 285.356 271.835 285.073 271.429C284.951 271.226 285.114 271.186 285.397 271.267C286.127 271.553 289.459 268.722 289.135 268.153C288.974 267.909 289.055 267.828 289.298 267.991C289.906 268.358 299.698 259.863 307.908 251.893C314.208 245.784 317.176 242.343 316.243 242.341C316.041 242.341 312.627 245.496 308.644 249.34Z" fill="#0AD4BC"/>
<path d="M225.909 269.429C221.071 274.447 218.672 277.442 219.077 277.849C219.481 278.255 220.782 276.92 227.125 269.756C229.727 266.802 229.971 266.478 229.322 266.476C229.038 266.476 227.494 267.811 225.909 269.429Z" fill="#0AD4BC"/>
<path d="M294.723 272.018C289.561 277.157 288.381 278.736 290.655 277.524C291.751 276.959 300.245 268.787 300.775 267.774C301.019 267.328 300.979 267.004 300.696 266.841C300.453 266.678 297.812 268.984 294.723 272.018Z" fill="#0AD4BC"/>
<path d="M230.278 273.94C225.565 277.904 223.817 279.765 224.303 280.253C224.545 280.497 226.048 279.365 228.365 277.221C231.697 274.146 234.584 270.949 234.057 270.948C233.935 270.947 232.229 272.282 230.278 273.94Z" fill="#0AD4BC"/>
<path d="M39.9537 276.064C38.8975 276.832 36.8606 280.924 33.8833 288.338L31.681 293.808L26.5715 293.675C21.0971 293.5 15.7021 294.096 13.875 295.025C11.8044 296.075 11.5162 297.98 13.0938 299.768C13.4577 300.215 15.7248 301.964 18.1946 303.713C20.6239 305.463 23.1744 307.415 23.8217 308.106L24.9543 309.366L21.8512 318.645C20.1364 323.711 18.7475 328.169 18.7467 328.534C18.745 329.263 19.9994 330.483 20.8105 330.485C21.581 330.487 27.4689 327.134 33.6828 323.133C36.4039 321.355 38.7997 319.982 38.9618 320.063C39.1238 320.144 41.4319 321.65 44.1045 323.441C48.9231 326.655 54.2701 329.344 55.8923 329.348C58.2444 329.353 58.7353 327.489 57.3245 323.673C56.6396 321.685 56.1973 320.021 54.3108 311.379L53.789 309.025L59.4361 304.577C66.9927 298.592 68.3358 296.446 65.4195 294.858C64.3663 294.328 54.4324 293.535 50.8227 293.73L48.1458 293.845L47.4228 290.802C46.6192 287.475 45.4517 283.701 43.7184 279.074C42.4688 275.745 41.4972 274.973 39.9537 276.064ZM44.4245 289.579C45.3104 292.379 46.3182 295.058 46.7227 295.505C47.3697 296.317 47.8967 296.4 55.4797 296.66C59.9404 296.792 63.6709 297.003 63.7921 297.166C63.9135 297.288 63.6287 297.693 63.1413 298.056C62.6943 298.42 60.5409 300.2 58.3876 301.979C56.1936 303.759 53.7153 305.74 52.8217 306.387C51.1969 307.519 51.1562 307.6 51.314 309.547C51.4332 310.642 51.3499 311.615 51.1874 311.737C50.9843 311.858 49.1957 313.719 47.2036 315.905L43.5853 319.911L42.2083 319.097C41.4793 318.649 40.7909 318.202 40.71 318.12C40.629 318.08 43.1096 315.044 46.2406 311.401C53.6003 302.82 56.3253 299.339 55.6764 299.337C55.3925 299.337 54.2143 300.307 53.0762 301.44C50.8404 303.787 43.4398 312.53 41.1212 315.607C40.1042 316.983 39.4135 317.55 38.6836 317.548C38.1564 317.547 36.4919 318.314 35.0299 319.243C27.8416 323.728 27.8416 323.728 34.1827 317.295C42.1497 309.161 48.4109 302.16 48.4126 301.389C48.4141 300.74 45.3657 303.734 32.1139 317.533C27.927 321.863 23.9844 325.747 23.2942 326.111L22.0759 326.838L23.0965 323.88C23.995 321.083 24.4017 320.557 29.605 315.094C42.0444 301.942 45.7444 297.693 44.7711 297.69C44.0817 297.689 28.9602 313.308 25.9912 317.114C24.6897 318.773 24.6088 318.652 25.5064 316.261C25.8736 315.289 26.4866 313.222 26.8958 311.641C27.4279 309.452 27.7946 308.683 28.6474 308.198C29.7032 307.592 39.8245 297.274 40.4758 296.18C41.4531 294.439 37.5527 297.593 32.6346 302.489L27.1882 307.87L25.7316 306.407L24.275 304.903L28.6642 300.777C33.5005 296.205 33.7039 295.921 36.4774 288.952C37.5378 286.278 39.0461 282.835 39.8608 281.255L41.3271 278.46L42.0503 281.463C42.452 283.126 43.5387 286.779 44.4245 289.579ZM30.0899 297.982C24.9288 302.715 23.791 303.726 23.4261 303.725C22.8178 303.683 20.5919 301.691 21.1596 301.692C21.4841 301.693 22.9467 300.52 24.4505 299.064C26.8484 296.758 27.4169 296.434 28.7958 296.397C29.6474 296.399 30.7427 296.239 31.1893 296.037C32.7725 295.352 32.6095 295.676 30.0899 297.982ZM25.3077 296.592C25.3071 296.876 20.8367 301.043 20.4308 301.204C20.2278 301.285 19.0533 300.593 17.7983 299.657C16.1789 298.437 15.6125 297.827 15.9377 297.503C16.1409 297.301 18.0477 296.981 20.1163 296.823C22.1849 296.666 24.2129 296.508 24.6185 296.509C24.9836 296.469 25.3079 296.511 25.3077 296.592ZM52.2341 315.105C52.5126 317.498 52.4719 317.579 50.7222 320.171C49.7861 321.629 48.8506 322.843 48.6884 322.843C48.2829 322.842 44.3141 320.4 44.3147 320.156C44.3149 320.035 44.4772 320.035 44.6797 320.157C45.0035 320.401 50.6958 313.925 51.1038 312.831C51.5116 311.818 51.9557 312.712 52.2341 315.105ZM55.0887 326.02C54.9668 326.142 52.374 324.96 50.9159 324.146L49.9844 323.616L51.4493 321.43L52.9548 319.203L54.0421 322.571C54.6869 324.397 55.1295 325.939 55.0887 326.02Z" fill="#0AD4BC"/>
<path d="M90.5119 281.45C89.8613 282.219 86.5977 290.728 85.5345 294.618C84.8804 296.928 84.8397 296.969 83.3798 296.966C81.4331 297.002 77.8232 297.277 73.5638 297.795C67.2763 298.551 66.746 299.888 71.2384 303.913C72.8166 305.417 75.3261 307.532 76.7834 308.711C78.2407 309.891 79.3736 311.029 79.3324 311.312C79.2508 311.556 78.1889 314.838 76.9638 318.566C75.7387 322.335 74.7165 326.023 74.7148 326.753C74.7107 328.578 75.6819 329.513 77.3046 329.233C79.0897 328.912 85.3423 325.723 89.2413 323.136L92.5312 320.954L95.6086 323.029C104.112 328.604 107.353 330.193 109.382 329.711C109.909 329.591 110.397 329.146 110.479 328.74C110.765 327.768 109.238 321.681 107.626 317.095C106.941 315.065 106.256 313.158 106.135 312.833C106.015 312.387 106.95 311.375 109.103 309.717C110.85 308.342 113.613 305.915 115.239 304.337C117.962 301.667 118.206 301.303 118.087 299.924C117.93 297.814 116.673 297.487 108.117 297.468L101.101 297.411L100.092 295.057C97.8731 290.104 97.3485 288.968 95.4111 284.908C93.5946 281.173 93.2711 280.766 92.2573 280.764C91.649 280.763 90.8777 281.085 90.5119 281.45ZM95.3975 290.91C96.9297 294.806 98.3003 298.459 98.3395 299.027C98.4997 299.92 98.7022 300.042 100.041 300.004L101.582 299.967L100.403 301.222C97.5978 304.216 84.4603 321.219 83.9707 322.516C83.8483 322.84 82.4267 323.81 80.8432 324.658C78.2446 326.031 77.9606 326.112 77.9622 325.382C77.9654 324.003 79.5128 321.167 81.2204 319.265C83.0905 317.242 92.0364 306.637 95.3713 302.467C96.5507 301.01 97.4866 299.593 97.3656 299.309C97.285 299.065 96.0654 300.401 94.6417 302.304C93.1775 304.166 89.3143 308.861 86.0208 312.666C82.6866 316.511 80.0025 319.83 80.002 320.074C80.0015 320.276 79.8388 320.479 79.6361 320.478C79.4333 320.478 79.5978 319.464 80.0467 318.249C80.455 317.033 80.823 315.696 80.8239 315.29C80.8248 314.885 81.1524 313.507 81.6013 312.25L82.3365 309.94L77.1555 305.589C74.3222 303.15 71.9748 301.076 71.9751 300.955C71.9353 300.589 75.6267 300.152 81.3861 299.84C83.9819 299.684 86.3348 299.365 86.538 299.163C86.7819 298.92 88.0468 295.516 89.3942 291.504C91.8028 284.453 92.2108 283.4 92.4534 283.684C92.5344 283.766 93.8247 287.013 95.3975 290.91ZM106.526 301.236C106.12 301.762 103.558 304.919 100.833 308.32C95.8715 314.392 94.7729 315.971 95.1372 316.296C95.2989 316.499 96.3153 315.406 100.097 310.995C101.235 309.659 102.78 307.878 103.594 306.947C104.366 306.057 105.911 304.195 106.969 302.778L108.921 300.227L111.719 300.396C113.26 300.48 114.639 300.646 114.719 300.768C114.922 300.971 111.305 304.288 106.104 308.737C104.357 310.193 103.543 311.165 103.542 311.773C103.541 312.3 104.345 315.343 105.311 318.549C107.323 325.367 107.645 326.625 107.361 326.624C106.874 326.623 103.513 324.791 98.4098 321.697C95.494 319.906 92.6584 318.48 92.1312 318.479C91.604 318.478 89.8989 319.285 88.3961 320.295C86.8934 321.265 85.4314 322.195 85.1877 322.356C84.7815 322.639 92.3059 312.964 95.6405 308.957C96.5758 307.823 98.4467 305.435 99.8703 303.573L102.392 300.253L104.825 300.258L107.299 300.264L106.526 301.236Z" fill="#0AD4BC"/>
<path d="M203.252 281.706C202.926 282.111 202.275 283.245 201.827 284.258C201.378 285.27 200.4 287.458 199.626 289.119C198.811 290.821 197.791 293.292 197.261 294.67L196.363 297.141L189.185 297.287C181.439 297.391 180.181 297.713 179.69 299.659C179.322 300.955 181.507 302.948 190.131 309.091C190.9 309.66 190.86 309.822 188.937 316.915C186.075 327.25 185.993 327.817 186.64 328.63C187.085 329.158 187.571 329.24 188.788 329.081C190.736 328.761 192.644 327.67 199.102 323.305C201.864 321.446 204.178 320.153 204.3 320.356C204.825 321.209 215.516 328.006 217.704 328.903C219.648 329.719 220.054 329.76 220.947 329.316C221.475 329.033 221.922 328.466 221.923 328.102C221.925 327.412 220.315 321.731 218.302 315.522C217.698 313.614 217.296 311.951 217.377 311.788C217.459 311.626 219.287 310.333 221.48 308.918C226.191 305.766 228.833 303.46 228.916 302.366C229.042 300.622 228.84 300.135 227.625 299.524C226.207 298.75 218.91 297.679 215.057 297.67C212.867 297.665 212.3 297.543 212.058 296.934C211.897 296.568 211.05 294.133 210.164 291.576C209.278 289.019 207.947 285.569 207.221 283.945C206.091 281.51 205.686 281.022 204.875 281.02C204.348 281.019 203.618 281.342 203.252 281.706ZM206.964 290.15C207.93 293.031 209.139 296.359 209.623 297.496C210.713 299.972 210.267 299.809 218.944 300.721C222.309 301.093 225.349 301.465 225.755 301.588C226.525 301.833 225.184 302.925 217.71 308.139C215.882 309.433 214.663 310.566 214.662 311.012C214.66 311.945 218.159 324.686 218.684 325.701C219.33 326.838 218.722 326.675 215.604 324.681C206.898 319.186 204.103 317.517 203.454 317.516C203.049 317.515 200.612 318.929 198.013 320.666C192.489 324.425 189.484 326.203 189.485 325.716C189.486 325.554 189.854 324.217 190.303 322.758C190.752 321.299 191.49 318.097 191.941 315.665C192.434 313.192 192.966 310.882 193.21 310.517C194.025 308.978 193.539 308.328 188.155 304.301C185.159 302.064 182.771 300.193 182.852 300.112C182.893 300.071 186.218 300.038 190.273 300.007C198.587 300.026 198.141 300.187 199.366 296.499C199.814 295.243 201.16 292.124 202.382 289.653C203.604 287.141 204.583 284.872 204.583 284.588C204.586 283.412 205.352 285.239 206.964 290.15Z" fill="#0AD4BC"/>
<path d="M257.634 282.032C257.349 282.559 256.819 283.774 256.452 284.787C256.085 285.8 254.739 288.961 253.516 291.878C250.866 298.036 251.475 297.632 243.932 297.696C235.375 297.757 232.94 298.401 232.935 300.591C232.933 301.807 233.903 302.864 242.361 310.751L244.709 312.946L242.259 320.037C239.688 327.331 239.482 328.466 240.169 329.806C241.098 331.552 244.426 330.221 252.427 324.846C255.108 323.108 257.504 321.572 257.788 321.451C258.072 321.33 261.353 323.284 264.997 325.766C270.504 329.55 272.002 330.365 273.543 330.53C275.246 330.737 275.449 330.656 275.816 329.765C276.224 328.671 275.904 326.521 274.737 322.544C274.294 321.083 273.611 318.486 273.209 316.701L272.487 313.495L274.519 311.635C275.656 310.623 278.257 308.277 280.289 306.416C284.394 302.694 285.045 301.52 283.71 300.138C282.941 299.366 282.09 299.242 274.913 298.861L266.965 298.397L264.428 290.564C263.018 286.262 261.567 282.406 261.163 281.959C260.151 280.821 258.286 280.898 257.634 282.032ZM260.704 287.392L261.349 289.381L259.559 291.851C258.542 293.227 256.671 295.616 255.369 297.194C246.26 308.326 245.08 309.905 245.81 309.907C246.419 309.908 257.765 295.943 260.044 292.379C261.346 290.314 261.468 290.314 262.354 292.912L262.959 294.616L260.154 297.692C255.356 303.034 249.134 310.806 249.376 311.213C249.497 311.375 249.416 311.497 249.213 311.456C249.011 311.374 248.442 311.778 247.995 312.345C247.263 313.195 247.141 313.235 247.102 312.627C247.103 312.221 246.295 311.003 245.283 309.946L243.422 307.955L246.147 304.392C248.14 301.801 249.156 300.79 249.805 300.791C251.833 300.715 253.542 298.447 256.232 292.168C257.659 288.886 258.923 285.847 259.086 285.442C259.454 284.429 259.899 284.957 260.704 287.392ZM263.965 297.984L264.609 300.216L261.762 303.576C255.053 311.388 247.327 320.779 246.188 322.398C244.967 324.18 244.761 325.761 245.98 324.304C246.306 323.858 250.169 319.325 254.479 314.225C258.789 309.166 263.059 304.066 263.954 302.891C265.011 301.556 265.824 300.868 266.31 300.95C266.675 301.032 266.999 301.276 266.999 301.479C266.998 301.682 267.647 301.845 268.417 301.847C270.161 301.851 270.201 302.176 268.575 303.713C266.787 305.372 256.744 316.785 255.808 318.202C255.035 319.377 255.035 319.377 255.807 318.932C257.187 318.206 262.188 312.742 268.776 304.768C270.972 302.056 271.256 301.854 272.716 301.857C273.608 301.859 274.297 301.982 274.297 302.104C274.297 302.226 273.483 303.238 272.508 304.33C269.255 307.892 264.862 313.924 265.144 314.412C265.266 314.655 265.225 314.777 265.022 314.736C264.657 314.613 261.281 318.945 261.28 319.472C261.28 319.594 261.523 319.675 261.807 319.676C262.091 319.677 263.107 318.584 264.043 317.288C266.321 314.049 275.065 302.998 275.756 302.432C276.244 302.068 277.014 302.029 279.974 302.238C280.704 302.281 278.306 304.789 274.527 307.863C270.017 311.543 269.814 311.786 270.054 313.084C270.215 313.977 269.97 314.585 268.994 315.84C268.262 316.73 267.163 318.512 266.511 319.768C264.8 323.089 265.896 322.767 268.175 319.285C269.192 317.746 270.128 316.451 270.331 316.451C270.493 316.451 270.613 317.141 270.611 317.952C270.609 318.804 270.809 320.183 271.05 321.035C271.412 322.334 271.33 322.699 270.598 323.751C269.662 325.047 269.784 325.209 271.002 324.563C271.692 324.2 271.894 324.363 272.419 325.621C272.741 326.433 273.024 327.163 273.023 327.244C273.023 327.407 266.463 323.296 266.139 322.93C266.018 322.808 265.572 322.523 265.127 322.238C264.681 321.954 263.102 321.017 261.603 320.122C260.145 319.186 258.606 318.452 258.241 318.451C257.43 318.449 254.831 319.903 251.013 322.45C248.17 324.309 243.135 327.339 242.81 327.338C242.729 327.338 243.097 326.082 243.668 324.501C244.199 322.961 245.098 320.125 245.67 318.179C246.365 315.748 246.976 314.451 247.667 313.926C248.886 312.955 261.206 298.424 262.102 296.885C262.468 296.237 262.875 295.752 263.037 295.752C263.2 295.752 263.603 296.767 263.965 297.984ZM241.447 302.597L239.699 304.661L237.959 302.954C236.988 301.979 236.341 301.126 236.544 301.004C236.747 300.843 238.329 300.725 240.032 300.647L243.155 300.533L241.447 302.597ZM245.419 303.701C244.036 305.442 242.857 306.94 242.775 307.021C242.694 307.142 242.249 306.817 241.763 306.329L240.873 305.435L241.768 304.342C242.256 303.694 243.069 302.601 243.598 301.913C244.371 300.779 244.737 300.577 246.237 300.58L247.94 300.584L245.419 303.701Z" fill="#0AD4BC"/>
<path d="M149.273 282.597C148.54 283.731 145.565 290.01 143.405 294.872L141.815 298.518L135.367 298.341C126.892 298.16 124.66 298.763 124.654 301.277C124.652 302.169 127.081 304.405 131.575 307.66C133.721 309.206 135.704 310.711 135.906 310.995C136.23 311.361 136.066 312.253 135.413 314.157C133.944 318.169 131.447 328.302 131.565 329.681C131.644 330.614 131.968 331.02 132.778 331.306C134.642 331.959 137.85 330.101 148.087 322.378C148.656 321.933 149.628 322.381 154.205 325.19C162.547 330.238 164.249 330.809 165.713 329.231C166.363 328.502 166.364 328.178 165.362 323.066C164.801 320.064 164.119 316.696 163.838 315.56L163.315 313.491L166.362 311.064C173.431 305.443 175.586 303.015 175.023 301.27C174.66 300.174 171.822 299.681 164.077 299.42L159.495 299.247L156.43 291.576C154.736 287.395 153.002 283.457 152.597 282.807C151.627 281.426 150.086 281.342 149.273 282.597ZM150.109 289.29C149.214 290.464 148.441 291.436 148.36 291.436C148.279 291.436 148.606 290.463 149.055 289.288C149.544 288.154 150.115 286.654 150.36 286.006L150.768 284.831L151.252 286.008C151.655 287.063 151.573 287.347 150.109 289.29ZM152.865 290.108C154.477 294.694 156.815 300.661 157.3 301.392C157.745 302.123 157.297 302.771 152.743 308.073C149.937 311.311 145.465 316.37 142.782 319.284C140.058 322.238 137.415 325.193 136.887 325.84C136.317 326.528 135.423 327.337 134.855 327.701C133.88 328.348 133.88 328.348 134.287 327.538C134.532 327.092 135.185 325.106 135.717 323.12C136.535 320.081 136.983 319.19 138.284 317.895C143.771 312.432 155.075 298.994 155.078 297.94C155.079 297.453 148.899 304.414 141.661 313.036C139.302 315.829 137.351 317.974 137.27 317.771C137.189 317.568 137.557 316.149 138.007 314.569C138.497 313.029 138.785 311.367 138.624 310.88C138.503 310.433 138.545 310.068 138.747 310.069C138.95 310.069 140.373 308.572 141.918 306.71C143.423 304.889 145.984 301.934 147.57 300.153C151.555 295.661 153.629 293.07 153.386 292.826C153.103 292.582 147.737 298.248 143.101 303.793C137.977 309.864 138.262 309.662 136.724 308.158L135.47 306.898L137.868 304.227C139.983 301.88 140.429 301.556 141.727 301.559C143.471 301.563 143.999 301.037 145.792 297.31C147.096 294.596 151.369 288.239 151.936 288.2C152.058 288.2 152.502 289.053 152.865 290.108ZM132.155 302.349L131.016 303.522L129.883 302.627C129.276 302.139 128.75 301.652 128.75 301.53C128.71 301.408 129.724 301.289 130.981 301.251L133.252 301.216L132.155 302.349ZM136.816 303.454C135.84 304.547 134.945 305.559 134.742 305.761C134.58 305.923 133.891 305.678 133.203 305.149L131.948 304.214L133.248 302.878C134.386 301.705 134.833 301.544 136.536 301.548L138.564 301.552L136.816 303.454ZM162.366 302.863C162.366 302.985 160.251 305.616 157.689 308.733C151.671 315.938 149.637 318.61 149.92 318.894C150.365 319.342 155.976 313.068 160.898 306.55L164.07 302.421L166.463 302.426C168.937 302.432 169.342 302.757 168.163 303.688C167.798 304.011 166.659 305.387 165.642 306.723C161.168 312.634 156.612 318.545 155.352 319.961L154.01 321.54L151.782 320.48C148.622 318.973 147.811 319.092 144.805 321.397C140.173 325.037 138.386 326.29 138.387 325.965C138.387 325.803 139.119 324.913 140.054 324.063C141.842 322.323 152.657 310.019 156.399 305.445C158.676 302.693 158.798 302.571 160.542 302.616C161.556 302.618 162.366 302.742 162.366 302.863ZM170.881 303.45C170.596 303.815 169.418 304.866 168.28 305.797L166.208 307.495L167.632 305.755C168.404 304.783 169.218 303.73 169.462 303.407C169.665 303.083 170.193 302.84 170.639 302.841C171.247 302.843 171.288 302.924 170.881 303.45ZM161.025 321.84C160.497 322.487 159.887 323.297 159.683 323.702C159.276 324.35 159.154 324.35 157.331 323.453C156.278 322.924 155.428 322.354 155.428 322.151C155.429 321.948 156.649 320.248 158.194 318.345L160.919 314.905L161.44 317.785C161.961 320.625 161.92 320.747 161.025 321.84ZM163.327 326.022C163.69 326.915 163.407 326.914 161.989 326.14C159.68 324.878 159.68 324.919 160.941 323.299L162.08 321.761L162.563 323.546C162.804 324.52 163.166 325.656 163.327 326.022Z" fill="#0AD4BC"/>
<path d="M142.826 335.586C136.534 338.208 120.861 346.73 116.839 349.762C115.336 350.894 116.106 351.139 117.893 350.129C127.76 344.555 136.53 339.83 144.244 335.914C145.016 335.551 145.666 335.025 145.666 334.822C145.667 334.579 145.627 334.417 145.586 334.457C145.505 334.457 144.287 334.981 142.826 335.586Z" fill="#0AD4BC"/>
<path d="M195.339 337.288C189.777 340.155 178.894 346.537 178.893 346.943C178.893 347.065 179.217 347.025 179.583 346.904C179.989 346.743 180.151 346.784 179.948 346.945C179.785 347.107 179.217 347.268 178.771 347.267C178.284 347.266 177.919 347.468 177.959 347.711C177.999 347.995 177.755 348.157 177.349 348.116C176.984 348.115 176.619 348.398 176.537 348.803C176.373 349.573 178.2 348.685 183.723 345.372C185.103 344.524 186.362 343.837 186.443 343.837C186.524 343.838 189.286 342.181 192.575 340.12C195.865 338.1 199.073 336.201 199.722 335.878C200.331 335.555 200.819 335.11 200.82 334.908C200.821 334.421 201.308 334.219 195.339 337.288Z" fill="#0AD4BC"/>
<path d="M226.571 335.046C224.948 335.488 208.83 343.522 206.352 345.098C205.174 345.825 204.524 346.513 204.686 346.798C204.847 347.082 204.807 347.122 204.523 346.959C204.28 346.797 203.347 347.159 202.453 347.685C198.676 350.069 201.191 349.75 205.374 347.326C208.379 345.549 208.013 345.791 215.606 341.712C218.976 339.895 222.955 337.795 224.539 337.028C228.517 335.05 229.33 334.241 226.571 335.046Z" fill="#0AD4BC"/>
<path d="M148.823 337.79C141.637 341.424 129.698 348.21 127.789 349.787C126.123 351.162 126.405 351.893 128.111 350.639C128.802 350.154 129.451 349.791 129.573 349.791C129.695 349.791 131.928 348.539 134.567 347.045C137.207 345.51 140.658 343.571 142.201 342.723C143.785 341.875 145.693 340.825 146.465 340.38C149.348 338.805 155.399 335.169 155.399 335.007C155.4 334.561 154.182 335.085 148.823 337.79Z" fill="#0AD4BC"/>
<path d="M115.651 337.107C107.735 340.698 95.4719 347.645 95.6323 348.457C95.7129 348.7 95.5099 348.781 95.1857 348.659C94.5374 348.414 93.5617 349.507 93.844 350.197C94.0055 350.521 94.168 350.36 94.3721 349.792C94.5355 349.265 94.7794 349.023 94.9006 349.226C95.0622 349.469 97.5387 348.299 100.828 346.441C106.228 343.371 108.177 342.28 116.582 337.798C118.531 336.789 120.115 335.738 120.116 335.535C120.117 335.048 120.563 334.928 115.651 337.107Z" fill="#0AD4BC"/>
<path d="M158.433 338.339C148.283 343.467 139.024 348.839 139.388 349.449C139.509 349.652 139.347 349.692 139.023 349.569C138.698 349.447 138.211 349.649 137.927 350.013C137.52 350.499 137.52 350.62 137.925 350.621C138.412 350.622 156.887 340.607 159.445 338.95C160.014 338.586 161.313 337.859 162.41 337.294C164.115 336.406 164.847 335.637 164.035 335.676C163.833 335.675 161.356 336.886 158.433 338.339Z" fill="#0AD4BC"/>
<path d="M174.251 337.119C171.329 338.369 154.032 347.495 151.839 348.95C151.311 349.274 150.986 349.678 151.107 349.841C151.228 350.044 151.065 350.287 150.822 350.367C150.456 350.529 150.416 350.61 150.781 350.611C151.024 350.652 152.242 350.127 153.419 349.481C160.687 345.604 172.543 339.305 174.249 338.417C178.877 335.994 178.879 335.142 174.251 337.119Z" fill="#0AD4BC"/>
<path d="M207.708 337.315C202.512 339.858 191.873 346.039 189.801 347.656C189.232 348.142 188.338 348.748 187.891 349.071C186.47 350.082 187.402 350.409 188.945 349.479C189.798 348.995 192.721 347.298 195.523 345.682C203.645 340.996 210.914 336.552 211.158 336.147C211.565 335.499 210.875 335.741 207.708 337.315Z" fill="#0AD4BC"/>
<path d="M95.3761 336.331C94.3609 336.896 82.0579 343.6 77.7944 345.943C74.1401 347.922 72.9617 348.933 73.5687 349.502C73.8923 349.868 75.5168 348.858 75.2744 348.452C75.1532 348.248 75.2755 347.965 75.5192 347.803C75.844 347.642 75.8844 347.682 75.7216 347.966C75.3145 348.654 75.6796 348.574 78.0344 347.403C80.2674 346.273 93.0183 338.799 95.2928 337.304C96.5519 336.415 96.6347 335.685 95.3761 336.331Z" fill="#0AD4BC"/>
<path d="M186.622 336.619C179.477 339.726 164.047 348.41 162.664 350.069C161.566 351.365 163.353 350.558 171.514 345.994C181.26 340.541 181.422 340.42 181.018 339.973C180.856 339.769 180.937 339.77 181.22 339.932C181.706 340.217 187.593 337.27 188.082 336.501C188.367 336.015 187.921 336.054 186.622 336.619Z" fill="#0AD4BC"/>
<path d="M57.2129 337.055C56.1982 337.458 53.5591 338.831 51.3257 340.124C49.1328 341.416 46.2092 343.072 44.8691 343.84C43.5291 344.607 40.9303 346.102 39.103 347.152C35.3266 349.293 34.4329 349.94 34.7158 350.387C34.9582 350.793 41.1705 347.481 49.5358 342.553C52.9875 340.492 56.6829 338.311 57.7792 337.705C60.6217 336.089 60.379 335.805 57.2129 337.055Z" fill="#0AD4BC"/>
<path d="M79.0677 338.89C69.8929 343.127 60.1884 348.458 59.4556 349.673C59.293 349.875 59.2922 350.2 59.4135 350.362C59.8182 350.728 61.9302 349.354 61.7691 348.827C61.7292 348.543 61.8511 348.462 62.0535 348.625C62.58 348.91 82.556 338.573 84.7904 336.834C84.8717 336.753 84.872 336.632 84.7912 336.51C84.6697 336.428 82.1124 337.477 79.0677 338.89Z" fill="#0AD4BC"/>
<path d="M127.371 337.053C122.786 338.422 104.311 348.518 104.268 349.613C104.266 350.222 104.915 350.304 105.281 349.778C105.403 349.535 107.028 348.606 108.855 347.677C110.682 346.748 113.483 345.335 115.026 344.487C116.61 343.68 120.467 341.661 123.674 340.046C126.841 338.431 129.44 336.936 129.44 336.734C129.441 336.571 129.401 336.409 129.36 336.449C129.279 336.449 128.386 336.731 127.371 337.053Z" fill="#0AD4BC"/>
<path d="M229.803 340.245C222.495 343.879 214.455 348.403 213.926 349.212C213.763 349.537 213.885 349.537 214.413 349.254C214.859 349.052 215.387 348.972 215.671 349.054C215.914 349.136 218.309 348.006 220.948 346.471C223.588 344.976 228.704 342.271 232.317 340.494C235.93 338.718 238.894 337.143 238.895 336.941C239.019 336.049 236.34 337.016 229.803 340.245Z" fill="#0AD4BC"/>
<path d="M249.478 337.491C239.736 341.727 222.112 351.947 226.657 350.741C227.509 350.5 248.989 338.788 250.289 337.817C251.589 336.888 251.224 336.724 249.478 337.491Z" fill="#0AD4BC"/>
<path d="M29.2652 339.791C18.4664 344.836 16.1521 346.047 15.9479 346.655C15.7847 347.101 16.0279 347.142 16.9206 346.941C18.5436 346.539 29.7489 341.09 33.1601 339.029C36.3683 337.09 36.3683 337.09 36.1255 336.846C36.0041 336.724 32.919 338.055 29.2652 339.791Z" fill="#0AD4BC"/>
<path d="M44.0307 338.08C27.0589 347.004 27.2213 346.924 27.2198 347.572C27.2181 348.302 28.4358 347.859 32.5367 345.678C37.8152 342.811 44.3935 339.014 44.6782 338.65C44.8003 338.488 45.2875 338.245 45.7745 338.084C46.2209 337.923 46.749 337.559 46.8714 337.235C47.1571 336.425 47.2382 336.425 44.0307 338.08Z" fill="#0AD4BC"/>
<path d="M69.2158 337.652C68.1197 338.136 66.0898 339.104 64.7502 339.71C58.823 342.494 46.7222 349.442 46.6801 350.091C46.6788 350.699 47.6527 350.418 50.089 349.044C51.4695 348.318 53.7434 347.066 55.2052 346.258C62.9604 342.098 70.9189 337.736 71.6499 337.252C72.9498 336.322 71.4893 336.562 69.2158 337.652Z" fill="#0AD4BC"/>
<path d="M105.107 337.042C102.388 338.009 90.572 344.389 86.3482 347.137C84.4799 348.39 83.3821 349.605 83.7462 350.011C83.9081 350.174 84.3954 349.85 84.8427 349.324C85.2495 348.798 85.6152 348.474 85.6148 348.636C85.6145 348.758 86.5889 348.274 87.7666 347.587C90.3656 346.011 97.3497 342.093 101.451 339.872C105.836 337.489 107.014 336.762 106.324 336.801C106 336.8 105.432 336.921 105.107 337.042Z" fill="#0AD4BC"/>
<path d="M261.845 338.574C261.195 338.897 258.881 339.905 256.771 340.793C251.615 342.971 243.535 347.414 243.696 348.022C243.736 348.266 243.614 348.387 243.411 348.265C243.209 348.102 242.925 348.183 242.762 348.426C242.274 349.195 243.734 348.833 246.292 347.501C247.714 346.734 251.774 344.634 255.347 342.817C261.477 339.708 264.401 337.971 263.468 337.929C263.266 337.928 262.535 338.21 261.845 338.574Z" fill="#0AD4BC"/>
<path d="M280.703 338.373C280.703 338.495 280.378 338.616 280.013 338.656C278.107 338.733 258.783 347.692 258.781 348.462C258.78 348.949 259.875 348.992 260.16 348.506C260.282 348.303 260.85 348.021 261.418 347.9C262.676 347.579 282 338.822 282.528 338.337C282.732 338.094 282.488 338.013 281.799 338.052C281.19 338.091 280.703 338.252 280.703 338.373Z" fill="#0AD4BC"/>
<path d="M19.9403 338.674C13.4047 341.498 6.13647 345.496 6.13464 346.307C6.13316 346.956 5.68661 347.158 14.2542 342.432C16.3657 341.261 19.0455 339.807 20.1418 339.242C22.1311 338.273 21.9699 337.827 19.9403 338.674Z" fill="#0AD4BC"/>
<path d="M286.983 341.186C282.721 342.758 274.642 346.43 273.505 347.36C272.448 348.209 273.462 348.374 275.288 347.688C280.646 345.632 289.213 341.434 289.214 340.826C289.215 340.339 289.418 340.299 286.983 341.186Z" fill="#0AD4BC"/>
<path d="M214.859 349.416C214.696 349.578 214.209 349.698 213.723 349.738C213.236 349.737 212.749 349.979 212.667 350.222C212.463 350.87 214.41 350.429 215.02 349.741C215.468 349.174 215.347 348.93 214.859 349.416Z" fill="#0AD4BC"/>
</svg>
