<svg width="318" height="335" viewBox="0 0 318 335" fill="none" xmlns="http://www.w3.org/2000/svg">
<path d="M138.776 124.062C138.555 124.151 121.914 119.458 91.8981 110.853C88.0315 109.738 85.9181 109.263 85.5472 109.463C85.0373 109.739 82.1396 114.629 80.1222 118.654C79.5564 119.768 78.663 121.329 78.111 122.136C77.5591 122.944 76.1068 125.465 74.8719 127.78C73.6013 130.084 71.7399 133.455 70.6898 135.28C69.6398 137.106 68.1342 139.806 67.3442 141.281C66.5541 142.756 64.2899 146.435 62.3602 149.514C60.4412 152.558 57.7359 157.194 56.3801 159.784C55.0243 162.373 53.5469 164.848 53.0658 165.288C52.2533 166.056 52.1931 166.388 51.9308 170.004C51.7521 172.167 51.7775 174.818 51.9076 175.946C52.29 178.704 54.5464 184.043 56.6889 187.288L58.4594 189.954L50.1321 217.603C41.6982 245.609 40.2644 250.936 39.4669 256.997C38.9979 260.784 39.0087 265.57 39.5684 267.603C40.0243 269.333 42.3911 272.217 44.8276 273.955C48.7717 276.765 50.8569 277.465 92.741 290.078C151.135 307.695 157.775 309.677 173.61 314.207C186.338 317.81 188.287 318.314 191.049 318.438C192.773 318.525 194.6 318.526 195.139 318.414C197.54 317.925 200.236 316.708 201.18 315.629C201.751 315.021 202.631 314.156 203.137 313.763C204.516 312.658 206.548 308.715 208.499 303.348C210.731 297.171 224.442 251.61 224.639 249.647C224.731 248.818 225.32 246.584 225.956 244.713L227.096 241.281L229.016 240.843C231.705 240.168 237.774 236.769 240.03 234.681C241.965 232.887 245.976 227.396 246.423 225.896C246.587 225.478 247.099 224.542 247.608 223.878C248.399 222.792 248.495 222.47 248.272 221.393C248.167 220.701 248.23 219.32 248.421 218.288C248.648 217.267 248.73 215.036 248.606 213.366C248.447 211.686 248.535 208.913 248.74 207.185C248.944 205.458 249.164 201.985 249.296 199.458C249.392 196.92 249.771 192.912 250.121 190.567C250.506 188.232 250.873 185.309 250.95 184.01C251.016 182.746 251.211 180.005 251.369 177.914C251.526 175.822 251.726 173.199 251.749 172.078C251.797 171.004 252.055 168.709 252.33 167.003C253.019 162.348 252.966 159.921 252.144 159.287C250.054 157.692 231.477 151.799 193.149 140.557C151.894 128.443 150.573 128.048 144.289 125.784C141.403 124.768 138.926 123.951 138.776 124.062ZM120.476 127.273C119.677 129.561 118.386 132.715 117.6 134.307C116.813 135.9 115.334 139.425 114.314 142.192C113.294 144.959 112.256 147.527 112.056 147.934C111.822 148.331 111.078 150.17 110.417 151.994C109.149 155.465 106.801 160.986 106.516 161.289C106.413 161.375 105.776 162.857 105.101 164.6C104.436 166.307 103.682 168.181 103.43 168.767C103.188 169.317 102.531 171.259 101.952 173.07L100.911 176.297L97.955 175.649C96.3163 175.276 88.2298 173.058 79.9503 170.704C65.6513 166.632 60.2318 165.249 58.7686 165.201C58.144 165.209 58.176 165.102 58.9528 164.323C59.4089 163.837 60.5836 161.854 61.5479 159.926C64.3197 154.415 64.8397 153.715 66.5981 153.034C67.4613 152.747 69.7785 151.106 71.7888 149.45C76.5793 145.514 84.643 139.599 96.0406 131.763C108.579 123.101 109.777 122.214 110.118 121.071C110.214 120.75 110.345 120.439 110.417 120.461C110.463 120.436 112.719 120.953 115.393 121.634C118.078 122.28 120.655 122.893 121.13 122.996C121.937 123.159 121.937 123.159 120.476 127.273ZM143.867 130.325C143.917 130.417 142.78 131.361 141.304 132.398C137.707 134.941 129.012 141.017 125.297 143.564C123.636 144.701 121.034 146.647 119.529 147.909C117.922 149.256 116.824 149.94 116.848 149.597C116.873 149.254 117.652 147.426 118.58 145.487C119.473 143.537 120.437 141.219 120.714 140.291C121.214 138.613 122.422 137.301 123.279 137.557C124.279 137.855 135.908 129.894 136.523 128.483C136.676 128.101 136.844 127.801 136.854 127.766C136.993 127.69 143.792 130.186 143.867 130.325ZM179.089 141.028C178.743 141.275 177.71 142.133 176.754 142.859C174.615 144.554 168.797 148.417 167.809 148.861C167.146 149.129 167.096 149.037 167.433 147.776C167.667 146.991 168.259 144.485 168.788 142.193C169.28 139.89 169.795 137.905 169.898 137.819C170.002 137.733 172.247 138.287 174.879 139.111C179.259 140.457 179.642 140.61 179.089 141.028ZM205.634 148.365C206.162 148.678 206.195 148.96 205.832 149.785C205.59 150.335 205.134 153.037 204.856 155.793C204.037 164.141 203.653 167.254 203.365 168.218C203.227 168.682 202.951 170.777 202.733 172.812C202.515 174.846 202.049 177.973 201.623 179.79C201.244 181.582 200.727 184.228 200.49 185.673C200.299 187.094 199.68 190.603 199.145 193.437C198.646 196.283 198.077 199.495 197.946 200.584C197.78 201.662 197.479 202.933 197.233 203.365C196.845 204.144 196.645 204.162 194.411 203.573C186.863 201.632 155.362 192.272 155.044 191.905C154.837 191.687 156.026 187.571 158.704 179.116L162.683 166.694L169.817 161.941C173.717 159.294 179.004 155.778 181.542 154.047C188.063 149.655 189.816 147.689 187.745 147.071C187.21 146.912 186.225 147.473 184.35 148.936C182.889 150.055 179.891 152.154 177.662 153.628C175.445 155.066 171.292 157.909 168.407 159.887L163.17 163.496L164.8 158.033L166.466 152.581L169.614 150.76C173.608 148.452 175.337 147.218 179.119 144.186L182.152 141.709L192.452 144.588C198.125 146.164 203.263 147.58 203.855 147.679C204.473 147.824 205.237 148.13 205.634 148.365ZM215.116 155.549C212.642 157.066 210.563 158.429 210.51 158.607C210.467 158.75 210.282 158.85 210.103 158.797C209.925 158.744 209.983 157.245 210.28 155.467C210.542 153.679 210.774 151.726 210.755 151.137L210.793 150.099L213.003 150.642C214.238 150.932 216.227 151.565 217.43 151.963L219.637 152.776L215.116 155.549ZM108.064 120.264C102.118 124.167 79.0272 140.568 73.0421 145.12C68.3581 148.699 67.6414 149.146 68.3895 148.203C69.1588 147.188 71.0666 143.791 72.5859 140.784C74.1479 137.634 75.2487 136.291 76.4902 136.039C76.9469 135.942 79.3036 134.429 81.7455 132.63C84.1767 130.867 89.2854 127.298 93.0573 124.691C96.8648 122.094 100.483 119.48 101.135 118.858L102.336 117.7L105.657 118.69L108.977 119.681L108.064 120.264ZM133.906 127.352C133.831 127.602 128.102 131.686 125.4 133.446L123.435 134.688L124.715 131.181C125.444 129.26 126.179 127.186 126.371 126.543C126.712 125.4 126.712 125.4 128.815 125.911C129.943 126.17 131.571 126.578 132.449 126.762C133.281 126.972 133.938 127.245 133.906 127.352ZM247.269 161.682C247.362 162.021 247.258 163.545 247.035 165.073C246.812 166.6 246.671 169.552 246.677 171.615C246.684 173.678 246.581 176.369 246.444 177.611C246.27 178.842 246.144 180.438 246.131 181.133C246.129 182.183 246.019 182.422 245.455 182.487C243.774 182.647 229.445 191.708 223.753 196.191C222.533 197.15 220.437 198.702 219.065 199.653C217.739 200.579 215.247 202.285 213.575 203.458C210.484 205.608 209.444 207.008 210.433 207.731C211.534 208.604 210.552 208.506 207.018 207.451C204.947 206.833 203.301 206.225 203.354 206.047C204.096 203.43 204.142 203.405 205.869 202.831C206.778 202.519 208.747 201.396 210.187 200.348C211.638 199.264 213.563 197.895 214.45 197.265C215.327 196.672 216.996 195.381 218.168 194.448C219.305 193.504 222.884 190.761 226.096 188.337C229.308 185.912 232.277 183.649 232.702 183.27C233.126 182.891 235.999 180.949 239.047 178.942C245.119 174.883 246.039 174.146 245.962 173.229C245.897 172.276 245.236 172.274 243.179 173.176C240.318 174.422 225.342 185.001 216.291 192.138C212.117 195.442 205.486 200.073 204.84 200.153C204.559 200.185 204.5 199.079 204.75 196.937L205.07 193.65L206.243 193.106C207.534 192.558 216.878 185.742 220.392 182.824C222.449 181.144 227.383 177.639 229.419 176.419C230.98 175.485 241.316 168.343 242.257 167.535C243.254 166.666 243.587 164.899 242.802 164.665C241.838 164.377 225.178 175.776 211.293 186.214C206.021 190.201 205.686 190.412 205.51 189.699C205.442 189.406 205.479 188.368 205.639 187.443C205.762 186.508 205.978 185.133 206.073 184.423C206.246 183.192 206.578 182.863 209.993 180.538C212.046 179.129 215.833 176.604 218.396 174.919C220.995 173.245 225.106 170.544 227.577 168.91C230.047 167.275 233.502 165.079 235.249 164.045C238.28 162.227 239.549 160.973 239.49 159.866C239.482 159.631 239.225 159.321 238.939 159.236C238.332 159.055 232.663 162.418 223.982 168.187C220.402 170.541 216.06 173.366 214.338 174.447C209.414 177.527 208.651 177.999 207.902 178.553C207.293 179.032 207.264 178.868 207.572 177.055C207.748 175.941 207.975 174.531 208.095 173.867C208.254 172.943 208.447 172.689 209.035 172.67C209.778 172.659 217.968 167.754 223.137 164.241C224.592 163.276 226.753 161.898 227.968 161.211C230.596 159.701 231.512 158.847 231.45 158.012C231.37 156.977 230.178 156.933 228.37 157.91C227.433 158.446 223.896 160.657 220.512 162.875C217.139 165.057 213.096 167.661 211.535 168.595L208.643 170.337L208.876 168.773C209.003 167.956 209.265 166.168 209.459 164.865L209.795 162.438L211.67 160.975C214.603 158.701 221.955 154.129 222.919 154.028C223.354 154.002 229.027 155.578 235.443 157.531C244.99 160.458 247.136 161.215 247.269 161.682ZM155.558 135.057C155.113 135.507 153.384 136.741 151.672 137.786C150.007 138.805 146.449 141.088 143.839 142.797C141.219 144.543 137.557 146.911 135.696 148.066C131.257 150.825 125.785 154.441 122.13 157.044C120.505 158.192 117.528 160.22 115.542 161.533C113.546 162.881 111.503 164.255 111.007 164.612L110.098 165.313L110.845 163.592C111.286 162.635 112.235 160.235 113.011 158.289C114.326 154.793 114.45 154.636 116.037 153.749C116.939 153.201 120.305 150.784 123.527 148.324C130.56 142.996 134.236 140.321 137.48 138.178C144.004 133.904 144.144 133.829 145.607 131.66C145.945 131.178 146.538 131.277 151.179 132.662L156.392 134.217L155.558 135.057ZM165.052 138.162C164.989 138.765 164.518 140.996 164.007 143.099C163.496 145.202 162.457 149.597 161.702 152.91C160.911 156.212 158.196 166.094 155.6 174.924L150.91 190.904L147.696 189.946C145.936 189.459 142.223 188.352 139.463 187.567C136.714 186.747 134.001 185.937 133.476 185.742C132.522 185.418 132.626 185.332 136.957 182.153C139.424 180.401 143.727 177.447 146.569 175.612C155.485 169.835 157.157 168.273 155.193 167.687C154.622 167.516 153.449 168.061 151.277 169.474C149.545 170.59 146.275 172.686 143.929 174.163C140.51 176.37 135.119 179.972 129.454 183.842C128.82 184.275 128.027 184.194 124.822 183.471C120.713 182.517 120.312 182.164 122.113 181.34C122.623 181.065 125.593 179.19 128.699 177.123C131.804 175.056 135.223 172.849 136.31 172.201C137.362 171.543 139.648 170.008 141.402 168.821C143.109 167.659 146.978 165.119 149.994 163.219C158.28 157.993 161.063 155.441 159.135 154.866C158.35 154.631 157.711 154.946 153.476 157.804C151.825 158.906 148.984 160.741 147.133 161.86C143.596 164.071 141.807 165.248 136.095 169.143C134.145 170.466 130.751 172.72 128.519 174.076C126.276 175.467 123.064 177.503 121.378 178.594C119.691 179.685 118.083 180.643 117.826 180.722C116.949 180.927 110.237 179.313 110.354 178.921C110.557 178.242 124.874 168.439 133.103 163.273C135.207 161.957 137.574 160.408 138.333 159.818C139.128 159.239 141.923 157.429 144.537 155.837C156.471 148.549 163.407 143.154 162.681 141.809C162.23 140.975 160.96 141.451 158.151 143.568C154.201 146.511 149.103 150.045 145.046 152.567C143.046 153.798 138.853 156.513 135.712 158.569C132.535 160.615 129.751 162.39 129.437 162.529C128.938 162.769 124.791 165.459 117.967 169.955C113.66 172.792 108.873 176.457 108.057 177.497C107.594 178.136 107.209 178.254 106.352 177.999C105.067 177.615 105.078 177.579 107.435 172.023C108.893 168.57 109.086 168.316 109.8 168.529C110.335 168.689 111.252 168.224 112.77 167.044C116.21 164.376 127.583 156.494 132.332 153.478C133.58 152.684 137.737 149.958 141.512 147.469C145.334 144.954 150.001 141.953 151.934 140.819C153.841 139.638 155.435 138.598 155.478 138.455C155.51 138.348 156.105 137.786 156.818 137.221C157.531 136.657 158.19 135.881 158.307 135.488C158.488 134.881 158.795 134.895 161.833 135.918L165.204 137.002L165.052 138.162ZM89.268 115.628C88.7048 116.082 87.71 116.68 87.0716 116.995C85.934 117.549 85.8877 117.574 86.1007 116.86C86.2179 116.468 86.6414 115.7 87.0474 115.121C87.6564 114.253 87.9489 114.185 89.02 114.504L90.2339 114.866L89.268 115.628ZM97.4447 118.457C96.6497 119.036 93.295 121.418 89.9617 123.728C86.5927 126.028 82.3967 129.014 80.5894 130.38C78.7927 131.71 77.2918 132.701 77.231 132.644C77.0412 132.237 81.9463 123.747 83.3214 122.136C83.8452 121.553 85.3568 120.527 86.6441 119.861C87.9671 119.206 89.8853 117.99 90.8726 117.157L92.7332 115.612L95.8037 116.528L98.8385 117.434L97.4447 118.457ZM245.949 185.784C245.842 186.141 245.783 187.251 245.838 188.239C245.92 190.441 245.465 191.316 243.764 192.325C239.631 194.708 228.776 202.162 223.621 206.145C220.595 208.469 219.921 209.162 219.83 209.991L219.746 211.054L215.783 209.872C212.141 208.785 211.902 208.675 212.404 208.164C212.896 207.688 217.466 204.231 224.193 199.278C225.829 198.094 228.513 196.134 230.16 194.915C233.639 192.376 239.515 188.452 242.581 186.645C243.762 185.948 244.917 185.204 245.145 184.961C245.694 184.425 246.205 184.927 245.949 185.784ZM245.029 198.379C244.85 200.153 244.632 202.188 244.536 202.898C244.441 203.608 244.337 205.522 244.272 207.174C244.181 208.78 243.981 210.625 243.778 211.304C243.622 211.957 243.575 213.809 243.684 215.397C243.84 216.96 243.824 218.316 243.66 218.345C243.532 218.385 240.508 217.443 236.969 216.271L230.524 214.154L232.642 212.53C233.804 211.633 236.72 209.548 239.084 207.881C243.397 204.891 244.306 203.801 242.806 203.354C241.985 203.109 236.476 206.326 230.737 210.445L227.082 213.049L224.301 212.336C222.78 211.96 221.552 211.515 221.595 211.373C221.669 211.123 226.385 207.436 229.177 205.509C230.261 204.743 232.31 203.216 233.782 202.061C235.244 200.942 237.551 199.336 238.845 198.517C240.175 197.709 242.104 196.457 243.13 195.752C244.193 195.058 245.099 194.629 245.199 194.814C245.299 194.999 245.209 196.605 245.029 198.379ZM181.795 205.719C180.789 206.352 178.611 207.918 176.978 209.22C175.31 210.51 172.48 212.699 170.626 214.09C168.783 215.445 166.552 217.19 165.632 217.927C164.737 218.709 163.8 219.246 163.55 219.172C163.014 219.012 160.516 216.828 160.059 216.147C159.687 215.569 161.097 213.968 163.005 212.788C163.618 212.426 165.878 210.846 168.021 209.269C170.163 207.692 172.894 205.707 174.081 204.856C177.065 202.674 177.229 202.646 180.657 203.668L183.656 204.563L181.795 205.719ZM195.271 208.379C195.228 208.521 193.578 210.012 191.65 211.653C189.721 213.294 186.506 215.99 184.532 217.656C182.593 219.332 179.723 221.392 178.183 222.254L175.369 223.865L170.942 222.544C167.193 221.425 166.572 221.162 166.721 220.662C166.806 220.376 168.15 219.261 169.683 218.163C172.81 216.024 181.75 209.127 184.216 206.985C185.581 205.799 185.966 205.68 187.259 205.91C190.2 206.477 195.367 208.057 195.271 208.379ZM133.32 191.605C132.557 192.077 129.456 194.263 126.39 196.458C117.61 202.82 113.674 205.456 113.174 205.307C112.924 205.233 112.327 204.627 111.798 203.925C111.258 203.258 110.3 202.039 109.638 201.259L108.437 199.811L114.034 196.038C117.104 193.96 120.498 191.707 121.525 191.002C122.587 190.308 123.549 189.429 123.667 189.036C124.103 187.572 124.835 187.596 129.873 189.216L134.661 190.761L133.32 191.605ZM162.22 198.867C162.417 199.12 161.248 200.171 158.653 201.963C156.531 203.469 154.703 204.906 154.618 205.192C154.074 207.013 152.988 201.012 153.383 198.252L153.648 196.582L156.644 197.359C158.272 197.767 159.732 198.086 159.835 198C160.16 197.825 161.841 198.443 162.22 198.867ZM172.051 202.928C171.221 203.497 168.315 205.546 165.62 207.541C162.936 209.501 159.984 211.575 159.107 212.169L157.488 213.164L156.443 211.063C155.888 209.926 155.529 208.652 155.646 208.259C155.923 207.331 158.29 205.393 161.424 203.49C162.997 202.521 163.799 201.788 164.001 201.109C164.502 199.431 165.055 199.402 169.482 200.723L173.552 201.937L172.051 202.928ZM121.844 187.326C121.759 187.611 119.752 188.995 111.587 194.336L107.027 197.369L106.229 195.614C105.316 193.592 104.694 190.724 105.194 190.873C105.908 191.086 108.468 189.673 110.649 187.835C111.9 186.77 112.977 185.769 113.041 185.554C113.328 184.59 114.392 184.675 118.094 185.818C120.226 186.493 121.897 187.147 121.844 187.326ZM149.378 195.386C149.325 195.564 148.299 197.047 147.092 198.747C144.272 202.727 141.877 204.89 138.122 206.919C134.98 208.587 132.133 209.137 128.878 208.71L127.386 208.498L129.746 207.103C133.889 204.684 143.291 198.196 144.606 196.917C144.948 196.552 145.35 195.856 145.499 195.356C145.701 194.677 145.99 194.491 146.808 194.619C148.632 194.891 149.453 195.136 149.378 195.386ZM211.24 214.932C209.133 216.131 202.93 220.501 202.834 220.822C202.78 221.001 202.524 221.08 202.309 221.016C201.917 220.899 200.893 211.689 201.159 210.796C201.202 210.654 203.794 211.349 206.925 212.322L212.606 214.134L211.24 214.932ZM223.049 217.444L225.056 218.277L219.537 221.918C216.489 223.924 212.895 226.196 211.529 226.994C210.164 227.792 208.695 228.675 208.292 228.983C207.878 229.326 207.354 229.52 207.104 229.445C206.569 229.285 203.388 224.176 203.537 223.676C203.58 223.533 206.403 221.499 209.819 219.174L216.04 215.003L218.529 215.785C219.875 216.225 221.914 216.95 223.049 217.444ZM241.54 222.845L242.761 223.443L242.05 224.786C241.177 226.275 237.611 230.149 235.301 232.026C234.428 232.737 233.672 233.445 233.63 233.588C233.502 234.016 232.036 234.629 228.291 235.844C225.316 236.823 222.197 236.981 219.819 236.349C219.212 236.168 219.198 236.086 219.868 235.664C220.285 235.439 221.041 234.731 221.6 234.159C222.922 232.726 227.243 229.583 230.495 227.676C231.953 226.828 234.506 225.179 236.178 224.006C239.269 221.856 239.433 221.827 241.54 222.845ZM94.5137 179.754C94.7498 180.136 85.3492 187.013 82.8316 188.283C80.8702 189.253 78.6569 191.198 78.1626 192.334C77.4408 194.101 76.5951 194.199 72.7855 193.023C68.7973 191.795 64.9007 189.738 63.4708 188.145L62.4806 187.033L63.8494 185.964C64.6087 185.374 66.2556 184.154 67.4891 183.278C71.4784 180.463 75.8554 176.87 76.3573 175.97C76.8272 175.177 77.109 175.145 79.1724 175.527C80.4646 175.757 82.1533 176.222 82.9889 176.549L84.4922 177.114L79.8402 180.586C77.2485 182.496 73.8619 184.985 72.329 186.083C69.8407 187.907 69.5093 188.235 69.8456 188.802C70.5615 190.182 72.3054 189.42 77.9166 185.339C80.8897 183.194 84.3189 180.562 85.57 179.497L87.819 177.562L89.7432 178.02C91.5353 178.399 94.3026 179.419 94.5137 179.754ZM99.9901 181.077C99.9475 181.22 98.5404 182.939 96.8696 184.89C93.5956 188.695 91.4143 190.533 88.6862 191.858C86.8282 192.742 80.7739 194.007 80.5233 193.544C80.2622 193.116 82.8927 190.946 84.0841 190.601C84.6799 190.429 86.1025 189.57 87.2539 188.709C88.4411 187.857 89.974 186.76 90.68 186.348C91.3609 185.89 93.375 184.353 95.1679 182.905C97.7057 180.785 98.5044 180.323 99.2185 180.536C99.6826 180.675 100.043 180.899 99.9901 181.077ZM107.953 186.447C106.409 187.581 104.976 188.475 104.798 188.422C104.333 188.283 104.157 187.181 104.242 184.679L104.314 182.484L107.452 183.304C109.152 183.733 110.615 184.17 110.676 184.227C110.737 184.284 109.507 185.278 107.953 186.447ZM140.993 195.994C139.499 197.22 137.485 198.758 136.54 199.448C135.571 200.092 132.733 202.045 130.266 203.797C127.774 205.503 125.318 207.22 124.822 207.577C124.073 208.132 123.438 208.176 121.718 207.818C120.532 207.62 119.033 207.172 118.422 206.873L117.297 206.343L120.327 204.137C122.01 202.928 124.901 200.797 126.78 199.452C128.633 198.061 130.491 196.788 130.933 196.609C132.317 196.011 134.562 193.959 135.206 192.712L135.85 191.466L139.742 192.627L143.669 193.799L140.993 195.994ZM234.034 222.199C233.285 222.754 230.03 224.932 226.807 227.003C223.609 229.121 220.005 231.817 218.794 233.011L216.623 235.202L214.849 234.633C213.074 234.065 210.806 232.805 210.059 231.921C209.741 231.554 210.625 230.807 214.172 228.56C223.671 222.529 224.398 222.046 226.875 219.869L227.966 218.95L231.679 220.058L235.428 221.177L234.034 222.199ZM74.0066 174.336C73.8361 174.907 69.8512 178.228 64.8534 181.947C63.1388 183.263 61.6346 184.525 61.5707 184.739C61.2831 185.703 60.4181 184.823 59.0867 182.248C57.3294 178.886 56.9318 177.873 56.5105 175.375C56.0967 173.113 56.1559 169.787 56.6264 169.383C56.7761 169.272 58.7574 169.669 61.0067 170.34L65.159 171.54L64.2111 172.502C63.6981 173.048 62.4007 174.139 61.3062 174.94C59.2458 176.502 58.4238 178.085 59.4949 178.404C59.8163 178.5 60.323 178.496 60.5799 178.417C61.2683 178.195 65.307 175.084 66.6433 173.733C67.7515 172.625 67.962 172.571 69.8111 172.889C73.4987 173.562 74.1664 173.8 74.0066 174.336ZM190.47 217.172C188.816 218.934 185.362 221.519 183.7 222.268L182.666 222.737L183.7 221.879C188.301 217.925 191.808 215.161 191.919 215.311C191.959 215.439 191.325 216.261 190.47 217.172ZM197.087 224.706C196.791 225.046 195.222 226.133 193.568 227.117C190.33 229.106 183.775 233.877 183.615 234.412C183.562 234.591 183.705 235.022 183.916 235.358C184.474 236.224 185.726 235.937 187.673 234.495C188.514 233.891 190.81 232.321 192.806 230.972C194.803 229.624 196.821 228.204 197.28 227.836C197.74 227.468 198.211 227.064 198.35 226.989C198.489 226.913 199.329 227.747 200.166 228.852L201.749 230.841L199.639 232.311C198.462 233.127 196.89 234.096 196.077 234.476C194.429 235.306 193.988 236.263 194.928 236.893C195.796 237.502 197.765 236.768 200.114 235.019C203.037 232.781 202.955 232.795 205.502 234.683C211.733 239.341 212.069 239.519 215.782 240.627C217.746 241.213 220.063 241.788 220.962 241.901L222.608 242.12L220.498 248.411C219.346 251.878 218.294 254.752 218.155 254.827C218.016 254.903 218.056 255.42 218.228 256.016C218.505 256.915 217.784 259.46 211.199 280.747C203.741 304.962 202.476 308.55 200.374 311.033C198.771 312.888 197.566 313.539 194.765 314.065C192.749 314.435 191.65 314.34 187.734 313.522C179.748 311.878 61.9863 276.392 55.6299 273.717C49.095 270.99 45.9513 268.885 44.67 266.404C43.8145 264.71 43.8787 262.279 44.8026 262.049C45.1415 261.956 45.9828 261.352 46.6814 260.705C47.7363 259.775 59.0769 252 61.4944 250.544C61.8652 250.343 65.0451 248.026 68.5351 245.451C72.0714 242.852 76.3707 239.78 78.1605 238.603C79.9502 237.426 83.1338 235.226 85.255 233.721C88.6453 231.35 96.325 226.331 111.021 216.952C118.854 211.94 118.063 212.248 121.418 212.861C123.042 213.151 124.724 213.38 125.134 213.308C125.851 213.25 125.819 213.357 124.704 214.23C124.037 214.77 121.648 216.39 119.384 217.853C117.085 219.305 113.716 221.605 111.801 222.939C109.922 224.284 105.537 227.252 102.04 229.592C91.815 236.495 84.2926 241.638 80.0609 244.613C77.8934 246.144 75.0199 248.086 73.6686 248.966C72.328 249.81 68.2354 252.711 64.6064 255.361C60.9417 258 56.1894 261.287 53.9931 262.653C51.8074 263.984 49.9538 265.375 49.8472 265.732C49.5703 266.66 50.3319 267.626 51.2345 267.468C52.2192 267.295 57.9663 263.411 73.0174 252.582C77.3631 249.485 82.9209 245.583 85.3096 243.963C87.7339 242.353 90.5254 240.426 91.5058 239.746C92.5325 239.042 94.39 237.768 95.6485 236.939C107.403 229.209 111.824 226.251 115.86 223.411C117.139 222.51 119.688 220.743 121.546 219.47C123.439 218.207 125.938 216.348 127.189 215.282C129.256 213.566 129.699 213.387 132.899 212.826C138.996 211.807 143.864 209.176 147.394 204.903C148.099 204.102 148.752 203.48 148.894 203.523C149.037 203.566 149.249 204.679 149.326 205.985C149.465 208.126 149.416 208.422 148.781 208.855C148.4 209.091 147.626 209.599 147.084 209.982C146.506 210.354 144.774 211.47 143.144 212.5C140.613 214.078 131.618 219.987 119.945 227.702C118.191 228.889 114.808 231.107 112.415 232.609C110.048 234.158 107.645 235.696 107.092 236.115C106.586 236.508 104.59 237.857 102.696 239.119C98.2863 242.041 91.9654 246.416 89.766 248.053C88.1084 249.308 86.333 250.567 76.3687 257.509C73.7733 259.301 70.3867 261.79 68.8112 263.031C67.2356 264.271 64.5406 266.267 62.7866 267.454C59.5779 269.607 58.6839 270.779 59.6272 271.527C60.1345 271.912 62.5675 271.316 62.738 270.745C62.7806 270.602 63.7572 269.805 64.9337 268.989C66.0995 268.209 68.4381 266.496 70.1527 265.181C75.2752 261.304 89.5601 251.219 97.0863 246.194C99.5213 244.548 102.602 242.435 103.949 241.437C105.297 240.439 107.824 238.744 109.546 237.664C112.991 235.503 119.515 231.228 123.194 228.671C126.47 226.422 140.468 217.3 140.956 217.096C141.095 217.021 143.153 215.73 145.484 214.17C147.852 212.621 149.959 211.423 150.138 211.476C150.495 211.582 152.253 215.723 152.125 216.152C152.029 216.473 137.402 226.534 131.337 230.44C127.975 232.586 123.312 235.705 120.984 237.382C118.667 239.024 115.633 241.113 114.281 241.993C110.517 244.446 87.3936 260.565 82.1176 264.435C79.5367 266.309 75.8256 268.973 73.8648 270.332C70.1963 272.853 69.395 273.975 70.7592 274.615C71.7163 275.057 72.5827 274.499 85.9975 264.854C92.1862 260.401 98.8598 255.627 100.821 254.268C102.746 252.898 106.182 250.502 108.361 248.936C110.574 247.38 112.917 245.785 113.587 245.362C114.803 244.675 122.771 239.471 125.991 237.282C126.925 236.628 129.648 234.796 132.062 233.222C139.542 228.222 143.107 225.786 147.328 222.847C152.943 218.884 153.128 218.784 153.807 218.986C154.592 219.221 157.988 222.567 157.86 222.995C157.796 223.209 156.434 224.125 154.815 225.119C151.471 227.077 141.186 234.312 137.254 237.454C135.828 238.584 132.598 240.809 130.056 242.422C127.56 244.01 124.109 246.325 122.462 247.544C120.78 248.753 118.277 250.494 116.961 251.385C108.444 257.126 99.4283 263.495 90.9405 269.789C82.3136 276.158 81.9108 276.465 80.8947 277.134C78.9339 278.493 80.5323 280.564 82.5895 279.273C83.1101 278.962 85.723 276.981 88.3322 274.882C90.9771 272.794 95.5828 269.347 98.581 267.247C101.579 265.148 105.925 262.051 108.206 260.399C112.228 257.477 113.982 256.289 120.723 251.808C122.421 250.681 123.871 249.598 123.925 249.419C123.989 249.205 125.789 247.992 127.953 246.733C133.448 243.434 134.578 242.644 144.203 235.406C146.645 233.607 150.876 230.632 153.636 228.811C156.395 226.991 159.048 225.138 159.554 224.745C160.335 224.083 160.57 224.076 161.802 224.638C166.816 226.989 170.212 228.119 172.978 228.361C181.205 229.066 187.9 226.437 193.319 220.394L196.244 217.106L196.909 220.61C197.441 223.257 197.461 224.235 197.087 224.706ZM99.5889 189.589C99.6189 190.532 92.8814 195.52 86.5061 199.295C82.1918 201.896 78.6122 204.249 72.3521 208.68C70.3343 210.1 66.9189 212.425 64.7583 213.802C62.6334 215.19 59.3784 217.368 57.578 218.581L54.291 220.866L55.5054 216.796C56.6666 212.904 56.7875 212.629 58.1563 211.56C60.7868 209.39 66.4092 205.663 70.8199 203.13C73.2161 201.745 75.6085 200.242 76.1253 199.813C76.7204 199.252 77.7014 198.962 79.1609 198.892C81.8802 198.77 84.2919 198.245 88.0442 196.876C91.3078 195.712 94.135 193.794 97.1709 190.657C98.2328 189.574 99.195 188.694 99.3378 188.737C99.4806 188.779 99.5633 189.154 99.5889 189.589ZM101.391 196.97C102.276 199.217 102.424 200.156 101.853 199.985C101.674 199.932 100.587 200.58 99.3639 201.42C96.8256 203.151 94.0874 204.901 89.9904 207.294C83.3834 211.194 83.3264 211.255 68.6167 221.33C64.9482 223.851 60.9339 226.62 59.7005 227.496C56 230.124 50.7022 233.676 50.627 233.537C50.6019 233.491 51.1484 231.399 51.8584 228.889L53.165 224.379L54.837 223.206C55.7246 222.577 56.6944 221.933 56.9725 221.783C57.2757 221.679 58.8694 220.638 60.4844 219.526C63.5433 217.483 66.7056 215.355 77.312 208.216C80.5207 206.063 85.8223 202.629 89.1061 200.615C95.556 196.59 97.5525 195.242 99.0672 193.944C99.9869 193.208 100.069 193.193 100.256 193.871C100.328 194.281 100.844 195.679 101.391 196.97ZM104.216 202.751C104.656 203.621 105.529 204.737 106.136 205.307L107.276 206.308L105.187 207.707C104.057 208.497 100.385 210.901 97.0368 213.129C93.6997 215.322 90.1916 217.697 89.2469 218.387C88.3022 219.077 85.1255 221.123 82.1662 222.962C75.1851 227.333 72.383 229.297 59.1041 239.138C54.7728 242.317 50.5342 245.446 49.6572 246.04C48.7444 246.623 47.5216 247.463 46.9334 247.871L45.8139 248.626L47.5184 242.913L49.2479 237.247L51.109 236.092C53.5371 234.6 61.8407 229.184 64.1009 227.603C65.0456 226.913 67.2131 225.383 68.9315 224.184C70.6141 222.976 73.3022 221.134 74.9209 220.139C76.5503 219.109 79.2065 217.374 80.8214 216.262C82.4721 215.16 84.7718 213.708 85.952 213.01C87.1216 212.348 88.1377 211.679 88.191 211.501C88.2655 211.251 96.024 206.489 96.7588 206.242C97.622 205.955 102.181 202.533 102.573 201.872C103.178 200.886 103.275 200.954 104.216 202.751ZM63.809 194.7C64.6057 195.288 64.1997 195.866 62.4488 196.783L60.837 197.624L61.391 195.767C61.9662 193.839 62.4191 193.624 63.809 194.7ZM112.474 209.998C113.699 210.713 114.664 211.39 114.621 211.533C114.589 211.64 112.593 212.988 110.19 214.526C107.787 216.065 104.981 217.91 103.861 218.665C102.788 219.395 100.061 221.108 97.8288 222.464C95.5717 223.773 93.1899 225.24 92.509 225.698C91.828 226.156 89.4501 227.74 87.1861 229.203C84.9472 230.713 81.9809 232.705 80.6334 233.703C79.2859 234.7 76.933 236.331 75.375 237.383C73.8277 238.399 69.6424 241.349 66.0346 243.928C62.4376 246.47 56.9618 250.358 53.8351 252.497C50.7085 254.635 47.436 257.003 46.5163 257.739C45.6324 258.487 44.6984 259.141 44.4772 259.231C44.2667 259.284 44.2751 257.693 44.5183 255.705L44.934 252.096L46.784 250.587C47.807 249.765 49.5147 248.602 50.5915 247.991C51.6684 247.379 53.1017 246.484 53.7933 245.991C56.6844 243.86 58.6558 242.465 61.426 240.608C63.0196 239.568 65.9251 237.518 67.8251 236.102C77.5928 228.907 83.368 224.798 85.3827 223.65C86.6092 222.927 88.4811 221.736 89.4828 220.985C90.5308 220.209 94.2601 217.744 97.8076 215.498C101.355 213.251 105.291 210.615 106.557 209.632C108.41 208.241 109.038 207.962 109.556 208.311C109.917 208.535 111.203 209.307 112.474 209.998ZM70.5878 200.65C68.773 201.78 66.5053 203.125 65.5569 203.698C64.5727 204.259 62.5086 205.704 60.9186 206.863L58.0169 209.03L58.754 205.517L59.491 202.004L61.5157 200.431C62.6671 199.569 64.207 198.318 64.9982 197.621C66.4096 196.409 66.4917 196.395 68.0094 197.042C68.8806 197.38 70.498 197.823 71.6117 198C72.7254 198.177 73.7107 198.393 73.7608 198.486C73.8215 198.543 72.4026 199.519 70.5878 200.65Z" fill="#0AC2D4"/>
<path d="M113.853 125.491C113.322 125.838 112.099 126.679 111.072 127.383C110.046 128.088 106.666 130.423 103.55 132.526C100.459 134.676 96.4806 137.455 94.7053 138.714C92.9656 139.983 90.545 141.71 89.3115 142.587C78.5416 150.144 65.7619 159.745 63.8662 161.668C62.986 162.533 62.9339 163.489 63.7551 163.734C64.4692 163.947 66.7194 162.791 67.9667 161.608C69.271 160.364 79.9795 152.361 86.8849 147.462C89.8474 145.352 95.2305 141.514 98.7562 138.95C102.318 136.397 107.07 133.11 109.38 131.622C113.387 129.007 115.244 127.345 115.67 125.917C115.947 124.988 114.962 124.772 113.853 125.491Z" fill="#0AC2D4"/>
<path d="M110.106 137.01C108.979 137.529 102.095 142.357 99.6815 144.32C98.7512 145.092 95.6785 147.441 92.8551 149.476C90.0674 151.522 84.6918 155.595 80.8954 158.544C77.1098 161.459 73.3348 164.337 72.5504 164.881C71.1422 165.821 70.7832 166.764 71.5442 167.341C72.4016 167.986 73.7854 167.388 76.5694 165.224C78.227 163.969 81.9093 161.141 84.8217 158.938C87.734 156.736 91.9225 153.514 94.1433 151.805C96.3747 150.06 100.645 146.824 103.65 144.571C106.645 142.354 109.625 140.054 110.291 139.515C112.441 137.784 112.303 136.032 110.106 137.01Z" fill="#0AC2D4"/>
<path d="M103.704 152.208C100.62 154.204 94.1216 158.914 91.9615 160.68C90.6284 161.76 88.0549 163.869 86.2157 165.342C82.7188 168.07 81.9783 169.249 83.3425 169.89C84.2996 170.331 85.9609 169.193 93.0718 163.344C94.4156 162.229 97.0855 160.187 98.9962 158.735C105.673 153.69 107.063 152.16 105.42 151.67C105.099 151.574 104.328 151.811 103.704 152.208Z" fill="#0AC2D4"/>
<path d="M98.2973 166.42C97.5343 166.892 95.6913 168.247 94.2298 169.367L91.5241 171.398L92.1179 172.275C92.4398 172.76 92.9258 173.216 93.2114 173.301C94.0326 173.546 101.132 167.344 101.092 166.437C101.015 165.52 99.7056 165.479 98.2973 166.42Z" fill="#0AC2D4"/>
<path d="M184.369 159.167C182.326 160.152 165.755 171.382 162.814 173.81C159.77 176.323 160.676 178.11 163.874 175.992C174.659 168.906 185.026 161.657 185.728 160.739C186.112 160.232 186.24 159.803 186.04 159.432C185.664 158.737 185.439 158.709 184.369 159.167Z" fill="#0AC2D4"/>
<path d="M180.632 170.65C178.564 171.978 174.995 174.295 172.756 175.805C170.528 177.278 167.351 179.325 165.722 180.355C161.664 182.877 158.132 185.594 157.887 186.416C157.492 187.737 159.284 187.727 161.373 186.328C162.436 185.634 165.865 183.392 169.017 181.299C172.158 179.242 176.362 176.492 178.337 175.215C184.344 171.369 185.61 170.386 185.762 169.615C185.808 169.201 185.557 168.737 185.15 168.538C184.636 168.307 183.473 168.815 180.632 170.65Z" fill="#0AC2D4"/>
<path d="M181.312 178.668C180.217 179.469 177.422 181.279 175.097 182.685C168.633 186.628 167.25 187.615 166.973 188.543C166.771 189.222 166.896 189.453 167.61 189.666C168.288 189.869 169.818 189.042 174.877 185.769C183.552 180.153 184.011 179.785 184.224 178.682C184.493 177.129 183.454 177.091 181.312 178.668Z" fill="#0AC2D4"/>
<path d="M149.024 180.155C140.83 185.331 140.339 185.807 141.44 187.068C141.879 187.549 142.357 187.381 144.45 186.1C148.796 183.392 153.274 179.984 153.323 179.299C153.478 177.868 152.282 178.094 149.024 180.155Z" fill="#0AC2D4"/>
<path d="M186.354 243.473C182.474 242.665 179.255 243.027 174.304 244.893C167.642 247.416 165.806 248.618 162.229 252.916C158.663 257.179 157.581 259.111 156.211 263.835C154.329 270.272 154.307 274.776 156.128 280.141C157.311 283.604 158.266 285.095 161.733 288.851C165.469 292.882 167.923 294.43 172.21 295.437C177.958 296.763 178.725 296.798 182.068 296.279C186.125 295.584 191.592 292.9 193.862 290.505C197.557 286.592 200.768 281.173 202.416 275.91C203.659 272.004 204.273 272.421 192.016 268.803C183.804 266.352 181.452 265.767 180.942 266.043C180.571 266.243 179.931 267.607 179.145 269.978C177.437 275.184 177.376 275.127 184.542 277.304L190.065 278.991L189.247 281.08C188.497 283.072 188.337 283.219 186.041 284.4C183.07 285.885 179.459 286.13 175.817 285.043C170.497 283.456 168.031 281.165 166.354 276.232C165.171 272.768 164.949 269.864 165.643 266.494C166.769 260.764 172.229 255.628 178.312 254.527C184.103 253.494 188.991 255.224 192.32 259.445C193.081 260.411 193.911 261.28 194.196 261.366C195.018 261.611 202.374 257.546 202.629 256.689C203.098 255.118 198.544 249.793 194.142 246.691C191.609 244.885 190.081 244.274 186.354 243.473ZM188.725 249.079C189.718 249.531 190.239 249.998 190.154 250.284C190.037 250.676 189.291 250.57 186.97 249.878C184.685 249.196 183.967 248.865 184.074 248.508C184.383 247.473 185.497 247.65 188.725 249.079ZM196.698 254.024C197.02 254.509 196.543 255.456 196.043 255.307C195.865 255.253 195.514 254.604 195.266 253.87L194.811 252.528L195.594 253.034C196.015 253.315 196.501 253.771 196.698 254.024ZM177.44 248.59C177.386 248.768 177.155 248.893 176.94 248.829C176.726 248.765 175.171 249.157 173.48 249.741C171.8 250.29 170.398 250.688 170.348 250.595C170.148 250.224 174.994 248.054 175.683 248.221C176.051 248.292 176.476 248.302 176.661 248.202C177.114 247.987 177.557 248.197 177.44 248.59ZM165.37 258.286L163.913 259.912L164.582 258.323C164.966 257.427 165.603 256.334 166.013 255.873C166.672 255.097 166.718 255.072 166.791 255.871C166.82 256.425 166.35 257.218 165.37 258.286ZM194.145 274.959C196.323 275.609 196.588 275.766 196.321 276.269C196.143 276.605 195.783 276.77 195.508 276.649C193.679 275.87 190.893 274.261 190.703 273.854C190.539 273.494 190.656 273.49 191.032 273.797C191.357 274.01 192.753 274.544 194.145 274.959ZM161.025 268.421C160.79 269.206 160.603 270.745 160.612 271.758C160.604 273.739 160.366 274.407 160.1 273.083C159.863 271.923 160.373 266.826 160.768 266.283C161.381 265.533 161.525 266.743 161.025 268.421ZM165.756 284.88C166.293 285.429 167.468 286.44 168.397 287.106L170.062 288.303L168.863 288.412C168.192 288.445 167.528 288.325 167.367 288.082C167.16 287.865 166.323 286.76 165.451 285.644C164.614 284.539 163.87 283.384 163.848 283.066C163.808 282.549 163.879 282.57 164.276 283.194C164.548 283.586 165.22 284.331 165.756 284.88ZM184.106 291.405C182.512 292.057 178.09 292.02 176.312 291.334C174.808 290.769 174.844 290.78 177.831 290.932C179.52 291.008 181.618 291.012 182.51 290.89C184.729 290.619 185.479 290.842 184.106 291.405Z" fill="#0AC2D4"/>
<path d="M147.421 242.082C145.745 243.138 142.975 244.994 141.232 246.146C139.488 247.298 137.214 248.796 136.151 249.49C134.176 250.767 130.992 252.967 127.096 255.731C125.862 256.607 122.807 258.768 120.294 260.545C117.77 262.358 114.462 264.715 112.882 265.838C110.291 267.747 107.236 269.908 99.3248 275.44C97.7098 276.553 95.4709 278.062 94.337 278.735C93.1925 279.443 92.1588 280.301 92.0523 280.658C91.7221 281.765 92.7825 282.12 94.4839 281.5C96.6382 280.665 97.5866 280.093 102.527 276.435C104.877 274.686 108.484 272.108 110.549 270.663C112.613 269.218 114.941 267.541 115.711 266.915C116.516 266.3 118.06 265.166 119.133 264.437C120.181 263.661 122.003 262.377 123.108 261.54C124.248 260.714 126.302 259.305 127.653 258.425C129.04 257.556 132.388 255.327 135.087 253.45C137.785 251.572 142.021 248.714 144.445 247.105C149.454 243.739 151.636 241.901 151.538 241.056C151.454 239.903 150.437 240.183 147.421 242.082Z" fill="#0AC2D4"/>
<path d="M131.518 263.583C131.261 263.662 127.964 265.983 124.139 268.768C120.349 271.565 115.141 275.338 112.606 277.187C110.072 279.035 107.027 281.16 105.861 281.94C104.67 282.673 103.658 283.46 103.605 283.638C103.551 283.817 103.823 284.209 104.255 284.454C105.206 285.049 107.983 283.428 116.072 277.56C119.355 275.157 122.628 272.789 123.319 272.296C124.011 271.802 125.569 270.751 126.781 269.946C129.612 268.146 131.002 267.006 132.114 265.627C132.954 264.633 132.997 264.491 132.486 263.988C132.182 263.703 131.739 263.493 131.518 263.583Z" fill="#0AC2D4"/>
<path d="M131.35 274.964C129.981 275.644 121.136 281.831 118.851 283.755C117.069 285.167 116.435 286.378 117.257 286.623C117.756 286.772 129.536 279.089 132.074 276.968C133.154 276.085 133.446 275.628 133.267 275.186C132.923 274.383 132.616 274.37 131.35 274.964Z" fill="#0AC2D4"/>
<path d="M132.977 284.237C132.935 284.38 131.862 285.109 130.553 285.846C128.435 287.081 127.042 288.493 127.367 289.095C127.618 289.559 129.919 288.884 131.63 287.84C133.388 286.77 134.421 285.523 134.195 284.717C134.084 284.178 133.105 283.808 132.977 284.237Z" fill="#0AC2D4"/>
<path d="M91.8487 44.025C90.7191 44.4261 87.8606 47.4966 83.309 53.2474L79.946 57.4882L75.4835 56.0402C70.7105 54.4607 65.8067 53.5802 63.9567 53.9217C61.8608 54.3063 61.1109 55.9083 62.0337 57.8929C62.2377 58.3811 63.7776 60.5109 65.4959 62.694C67.1784 64.8664 68.9148 67.2491 69.3046 68.0258L69.9735 69.4295L64.8253 76.7892C61.9967 80.801 59.6132 84.3629 59.5174 84.6839C59.3258 85.326 60.1123 86.7261 60.8258 86.9389C61.5035 87.1411 67.5591 85.7237 74.0703 83.8207C76.9285 82.9643 79.395 82.3794 79.5164 82.4934C79.6378 82.6073 81.2772 84.5337 83.1632 86.8057C86.5671 90.8901 90.5732 94.6493 92 95.075C94.0689 95.6923 94.9866 94.1792 94.7385 90.4536C94.6536 88.5248 94.6976 86.9453 95.2881 78.8473L95.4416 76.64L101.571 74.1956C109.78 70.896 111.522 69.3567 109.368 67.1992C108.579 66.4588 100.042 63.1735 96.8144 62.4047L94.4282 61.8092L94.5844 58.9424C94.7437 55.8045 94.6991 52.1785 94.3785 47.6545C94.1455 44.3996 93.4916 43.4664 91.8487 44.025ZM92.2641 57.0847C92.3144 59.7801 92.5038 62.4004 92.7434 62.8992C93.1013 63.7829 93.5437 63.9926 100.15 66.1969C104.042 67.4746 107.271 68.6321 107.335 68.8067C107.41 68.9457 107.054 69.2279 106.53 69.4212C106.042 69.6252 103.683 70.6306 101.324 71.636C98.9298 72.6308 96.2324 73.7294 95.2773 74.066C93.5525 74.6391 93.4956 74.6998 93.1274 76.4545C92.947 77.4495 92.6203 78.2843 92.4456 78.3488C92.2354 78.4026 90.1763 79.5751 87.8537 80.9798L83.6254 83.564L82.6254 82.4887C82.1004 81.9048 81.6111 81.3314 81.5611 81.2388C81.5004 81.1819 84.4745 79.1558 88.179 76.765C96.8917 71.1292 100.197 68.7746 99.6261 68.6043C99.3765 68.5298 98.0866 69.0773 96.7898 69.7781C94.2106 71.2616 85.4197 77.0294 82.5776 79.1337C81.324 80.0804 80.5686 80.3989 79.9265 80.2073C79.4628 80.0689 77.7981 80.3103 76.2692 80.7476C68.7741 82.8232 68.7741 82.8232 76.031 78.8119C85.1616 73.7282 92.4961 69.1962 92.6983 68.5184C92.8686 67.9477 89.4058 69.7891 74.1479 78.4831C69.335 81.2036 64.8533 83.5956 64.1511 83.7357L62.8894 84.0585L64.5581 81.7206C66.0772 79.4935 66.5723 79.1362 72.5749 75.683C86.9491 67.3469 91.3126 64.57 90.4565 64.3146C89.8501 64.1336 72.4725 73.9432 68.8681 76.5193C67.2903 77.6412 67.2509 77.5129 68.6635 75.6425C69.24 74.8822 70.3179 73.2227 71.0896 71.938C72.1281 70.1501 72.6513 69.5682 73.5281 69.3636C74.6152 69.1053 86.2111 62.6594 87.0692 61.8666C88.383 60.5882 84.1284 62.3488 78.5245 65.3771L72.3291 68.6951L71.4281 67.0278L70.5378 65.3249L75.4758 62.8359C80.9232 60.0717 81.1761 59.8752 85.4323 54.4636C87.0622 52.3861 89.2866 49.7479 90.4151 48.5696L92.4336 46.4915L92.2881 49.3227C92.2084 50.8916 92.2137 54.3893 92.2641 57.0847ZM77.4586 60.7472C71.6832 63.5689 70.4184 64.1627 70.0974 64.0669C69.5729 63.8716 68.1326 61.5384 68.632 61.6874C68.9173 61.7725 70.5101 61.1212 72.2131 60.2309C74.9243 58.8256 75.5088 58.6893 76.7322 59.0154C77.4813 59.2389 78.487 59.3836 78.9326 59.3223C80.5047 59.131 80.2769 59.3738 77.4586 60.7472ZM73.6114 58.2785C73.5369 58.5282 68.5169 61.0315 68.1176 61.0678C67.918 61.0859 67.0645 60.1709 66.2035 59.0205C65.0959 57.5247 64.7562 56.8406 65.1267 56.6404C65.3583 56.5152 67.1199 56.7301 68.9817 57.1302C70.8435 57.5303 72.6696 57.9198 73.0263 58.0262C73.3579 58.0863 73.6327 58.2072 73.6114 58.2785ZM92.4897 81.5861C92.1115 83.7652 92.0545 83.8259 89.8395 85.6512C88.636 86.6905 87.4962 87.5158 87.3536 87.4733C86.9969 87.3668 84.1397 84.1836 84.2036 83.9696C84.2355 83.8626 84.3782 83.9051 84.5246 84.0654C84.7461 84.3645 91.4429 80.1473 92.0869 79.2906C92.7097 78.5053 92.868 79.4071 92.4897 81.5861ZM92.1594 91.9372C92.0204 92.0122 90.0461 90.2966 88.9749 89.2001L88.2928 88.4916L90.1517 86.9485L92.0568 85.3804L92.1366 88.6284C92.2284 90.4039 92.2163 91.8765 92.1594 91.9372Z" fill="#0AC2D4"/>
<path d="M142.483 34.5295C141.71 35.0369 136.622 41.6763 134.673 44.8239C133.495 46.6868 133.449 46.7119 132.165 46.3287C130.442 45.8535 127.193 45.156 123.309 44.5022C117.578 43.5303 116.763 44.569 119.669 49.2818C120.666 51.0167 122.324 53.5314 123.3 54.949C124.275 56.3666 124.976 57.6634 124.866 57.9024C124.731 58.0951 122.941 60.7077 120.892 63.6701C118.832 66.6682 116.972 69.6481 116.78 70.2902C116.301 71.8954 116.912 72.9712 118.414 73.1472C120.068 73.3302 126.402 72.1512 130.508 70.89L133.972 69.8259L136.14 72.454C142.173 79.5759 144.611 81.8184 146.523 81.9226C147.018 81.9539 147.563 81.6892 147.741 81.3538C148.246 80.5722 148.487 74.8172 148.263 70.3607C148.189 68.3963 148.083 66.5389 148.061 66.2216C148.071 65.7973 149.157 65.1503 151.484 64.2519C153.38 63.4967 156.444 62.0802 158.286 61.1148C161.378 59.4736 161.688 59.2164 161.943 57.9717C162.354 56.0743 161.333 55.459 153.807 53.2133L147.646 51.3364L147.372 49.0014C146.708 44.0643 146.543 42.9272 145.895 38.8492C145.269 35.0886 145.09 34.6468 144.198 34.3807C143.663 34.2211 142.9 34.3042 142.483 34.5295ZM144.32 44.1285C144.653 47.9573 144.908 51.5295 144.795 52.0395C144.704 52.8668 144.85 53.0271 146.038 53.3426L147.404 53.7114L146.039 54.5085C142.791 56.4137 126.799 67.9577 126.03 68.9714C125.838 69.2248 124.334 69.7084 122.72 70.0424C120.075 70.5741 119.804 70.5709 119.995 69.9288C120.357 68.716 122.458 66.6235 124.456 65.394C126.629 64.1001 137.265 57.0959 141.286 54.2946C142.704 53.3191 143.897 52.3154 143.864 52.0338C143.857 51.7985 142.436 52.6563 140.687 53.9603C138.913 55.218 134.29 58.3447 130.4 60.8356C126.464 63.3516 123.237 65.5741 123.173 65.7882C123.12 65.9665 122.924 66.1023 122.746 66.0491C122.567 65.9959 122.976 65.1467 123.688 64.1936C124.364 63.2299 125.036 62.1486 125.143 61.7919C125.249 61.4352 125.896 60.3075 126.618 59.3188L127.867 57.4772L124.44 52.2981C122.582 49.4129 121.056 46.9764 121.088 46.8694C121.148 46.5377 124.511 47.1139 129.661 48.3398C131.987 48.8783 134.141 49.2102 134.372 49.0851C134.65 48.9349 136.65 46.2685 138.881 43.0884C142.837 37.5096 143.471 36.6886 143.61 37.0022C143.66 37.0948 143.95 40.289 144.32 44.1285ZM151.426 56.1156C150.931 56.4729 147.853 58.5847 144.569 60.8679C138.621 64.92 137.243 66.0238 137.479 66.405C137.568 66.6259 138.747 65.9289 143.225 63.0306C144.575 62.1515 146.399 60.9864 147.357 60.3788C148.269 59.7963 150.114 58.5599 151.414 57.5881L153.796 55.8518L156.215 56.7288C157.549 57.2046 158.719 57.7091 158.759 57.8374C158.884 58.069 154.837 60.0468 149.1 62.6082C147.183 63.4347 146.214 64.0779 146.055 64.613C145.916 65.0767 145.831 67.9648 145.847 71.0382C145.842 77.563 145.798 78.7539 145.548 78.6794C145.12 78.5517 142.638 76.0632 138.953 72.0112C136.853 69.6754 134.728 67.6819 134.264 67.5436C133.801 67.4052 132.09 67.6716 130.504 68.1696C128.929 68.6319 127.4 69.0692 127.143 69.148C126.712 69.2913 135.855 62.735 139.833 60.0763C140.952 59.3223 143.22 57.7074 144.958 56.439L148.043 54.1739L150.183 54.8125L152.359 55.4617L151.426 56.1156Z" fill="#0AC2D4"/>
<path d="M240.446 68.6063C240.055 68.8778 239.186 69.7063 238.527 70.481C237.869 71.2557 236.438 72.9265 235.324 74.1867C234.164 75.472 232.623 77.3819 231.797 78.4563L230.363 80.398L224.007 78.6569C217.162 76.7311 215.971 76.6865 215.032 78.271C214.37 79.3167 215.775 81.6393 221.766 89.2924C222.295 89.9941 222.216 90.1261 218.677 95.8682C213.466 104.219 213.246 104.697 213.604 105.581C213.858 106.162 214.265 106.361 215.377 106.537C217.175 106.763 219.139 106.3 225.96 104.14C228.875 103.223 231.249 102.688 231.302 102.898C231.543 103.786 239.182 112.552 240.874 113.912C242.374 115.136 242.72 115.278 243.621 115.12C244.16 115.009 244.701 114.626 244.797 114.305C244.978 113.699 245.041 108.279 244.886 102.29C244.851 100.453 244.931 98.8845 245.045 98.7631C245.158 98.6417 247.104 97.9792 249.403 97.3055C254.371 95.7577 257.296 94.4163 257.655 93.4745C258.219 91.9726 258.169 91.4914 257.258 90.637C256.212 89.5868 250.068 86.7436 246.679 85.7325C244.753 85.1578 244.286 84.9018 244.231 84.3029C244.184 83.9393 244.074 81.5755 243.96 79.0941C243.846 76.6128 243.573 73.2295 243.357 71.6112C242.996 69.1729 242.767 68.6384 242.054 68.4256C241.59 68.2872 240.863 68.381 240.446 68.6063ZM241.514 77.0049C241.615 79.7929 241.812 83.0372 241.942 84.1637C242.256 86.6269 241.906 86.3672 249.306 89.4295C252.17 90.6339 254.75 91.7532 255.075 91.9666C255.689 92.3829 254.224 92.9947 246.288 95.6379C244.342 96.3004 242.974 96.9799 242.857 97.3723C242.612 98.1927 242.374 110.319 242.571 111.349C242.844 112.518 242.351 112.216 240.126 109.649C233.894 102.545 231.869 100.348 231.298 100.178C230.942 100.071 228.429 100.681 225.688 101.534C219.847 103.404 216.739 104.186 216.867 103.758C216.91 103.615 217.582 102.534 218.357 101.367C219.133 100.2 220.616 97.5732 221.647 95.55C222.724 93.5018 223.794 91.607 224.104 91.3498C225.222 90.2072 224.964 89.5087 221.274 84.5618C219.22 81.8124 217.605 79.5436 217.697 79.4935C217.743 79.4685 220.679 80.3056 224.257 81.3342C231.569 83.516 231.134 83.5416 233.173 80.6149C233.895 79.6262 235.892 77.2308 237.611 75.3742C239.341 73.4819 240.793 71.7398 240.868 71.4901C241.176 70.4556 241.375 72.263 241.514 77.0049Z" fill="#0AC2D4"/>
<path d="M282.025 105.857C281.637 106.246 280.854 107.178 280.267 107.974C279.68 108.77 277.673 111.201 275.836 113.45C271.9 118.18 272.542 117.983 265.886 116.075C258.338 113.9 256.027 113.832 255.453 115.759C255.133 116.829 255.713 118.012 261.103 127.156L262.597 129.7L258.594 135.303C254.432 141.053 253.955 141.999 254.21 143.357C254.573 145.136 257.849 144.831 266.292 142.184C269.104 141.352 271.613 140.625 271.894 140.592C272.176 140.56 274.555 143.134 277.116 146.268C280.977 151.033 282.084 152.14 283.397 152.687C284.842 153.312 285.041 153.294 285.597 152.605C286.241 151.749 286.519 149.773 286.528 145.969C286.519 144.567 286.594 142.104 286.705 140.428L286.904 137.418L289.177 136.309C290.442 135.716 293.342 134.328 295.615 133.219C300.197 131.012 301.076 130.148 300.261 128.584C299.786 127.704 299.068 127.374 292.851 125.169L285.976 122.691L285.783 115.136C285.663 110.982 285.39 107.21 285.15 106.711C284.556 105.447 282.894 105.028 282.025 105.857ZM283.331 111.374L283.381 113.292L281.162 115C279.908 115.947 277.64 117.562 276.083 118.612C265.166 126.038 263.717 127.12 264.359 127.312C264.894 127.471 278.518 118.134 281.452 115.591C283.136 114.113 283.243 114.145 283.347 116.662L283.435 118.32L280.164 120.296C274.55 123.749 267.049 128.969 267.157 129.39C267.221 129.564 267.118 129.65 266.95 129.561C266.793 129.437 266.188 129.644 265.646 130.027C264.781 130.584 264.663 130.588 264.787 130.042C264.893 129.685 264.499 128.402 263.884 127.209L262.765 124.972L266.091 122.546C268.52 120.784 269.678 120.159 270.249 120.329C272.054 120.79 274.148 119.239 278.152 114.413C280.262 111.896 282.166 109.55 282.416 109.236C283.003 108.44 283.257 109.021 283.331 111.374ZM283.443 121.546L283.428 123.678L280.048 125.894C272.108 131.022 262.862 137.276 261.437 138.405C259.899 139.655 259.305 140.993 260.759 140.028C261.161 139.721 265.742 136.737 270.864 133.37C275.975 130.04 281.062 126.663 282.155 125.862C283.434 124.962 284.328 124.568 284.735 124.768C285.035 124.935 285.256 125.234 285.203 125.412C285.15 125.591 285.678 125.903 286.356 126.106C287.889 126.563 287.84 126.859 286.009 127.789C284.003 128.783 272.191 136.214 270.998 137.217C270.012 138.049 270.012 138.049 270.806 137.859C272.211 137.579 278.035 134.073 285.91 128.77C288.55 126.955 288.853 126.851 290.137 127.234C290.921 127.468 291.496 127.756 291.464 127.863C291.432 127.97 290.453 128.649 289.309 129.357C285.519 131.644 280.081 135.81 280.203 136.312C280.246 136.558 280.178 136.654 280.011 136.566C279.721 136.363 275.622 139.296 275.484 139.76C275.452 139.867 275.644 140.002 275.894 140.077C276.144 140.151 277.323 139.454 278.484 138.557C281.333 136.3 291.908 128.85 292.663 128.531C293.187 128.338 293.875 128.505 296.426 129.46C297.057 129.687 294.293 131.271 290.167 132.992C285.239 135.057 284.997 135.217 284.87 136.423C284.779 137.25 284.405 137.721 283.219 138.572C282.343 139.165 280.911 140.447 280.011 141.382C277.64 143.86 278.688 143.862 281.601 141.391C282.897 140.301 284.058 139.405 284.236 139.458C284.379 139.501 284.305 140.139 284.092 140.852C283.869 141.601 283.685 142.867 283.676 143.68C283.656 144.918 283.489 145.217 282.57 145.953C281.409 146.85 281.474 147.024 282.714 146.773C283.416 146.633 283.552 146.829 283.686 148.073C283.758 148.871 283.817 149.588 283.795 149.659C283.753 149.802 279.049 144.475 278.859 144.069C278.784 143.93 278.466 143.563 278.149 143.197C277.831 142.83 276.684 141.594 275.599 140.416C274.559 139.212 273.395 138.166 273.074 138.07C272.361 137.857 269.695 138.46 265.671 139.707C262.685 140.603 257.464 141.958 257.178 141.873C257.107 141.852 257.758 140.842 258.672 139.6C259.54 138.382 261.07 136.12 262.08 134.556C263.325 132.597 264.201 131.615 264.946 131.333C266.271 130.796 280.9 121.215 282.089 120.094C282.581 119.619 283.065 119.297 283.208 119.34C283.351 119.382 283.441 120.38 283.443 121.546ZM262.422 119.742L260.345 121.103L259.258 119.147C258.658 118.036 258.311 117.116 258.521 117.063C258.742 116.973 260.165 117.281 261.684 117.657L264.463 118.369L262.422 119.742ZM265.63 121.748C263.96 122.92 262.532 123.931 262.439 123.981C262.336 124.067 262.028 123.664 261.728 123.108L261.177 122.089L262.25 121.36C262.848 120.917 263.849 120.167 264.493 119.699C265.469 118.903 265.843 118.82 267.163 119.214L268.661 119.661L265.63 121.748Z" fill="#0AC2D4"/>
<path d="M197.855 36.5128C196.914 37.32 192.661 42.072 189.493 45.7883L187.144 48.5836L181.515 46.7487C174.103 44.3816 171.981 44.3313 171.321 46.5429C171.087 47.3276 172.642 49.9281 175.75 53.9631C177.236 55.8826 178.59 57.724 178.694 58.0269C178.883 58.433 178.507 59.1752 177.436 60.6814C175.098 63.8297 170.261 72.0981 170.006 73.3428C169.833 74.1845 170.012 74.6263 170.651 75.0889C172.121 76.1492 175.429 75.3492 186.451 71.2181C187.067 70.9748 187.806 71.6226 191.103 75.2865C197.131 81.9021 198.48 82.8485 200.179 81.8405C200.942 81.3687 201.027 81.0833 201.476 76.3228C201.764 73.5342 202.041 70.3926 202.089 69.3193L202.169 67.3618L205.482 66.0198C213.168 62.9134 215.698 61.3373 215.656 59.6545C215.622 58.5956 213.253 57.4225 206.504 55.1757L202.516 53.8303L201.816 46.2798C201.414 42.1587 200.913 38.241 200.726 37.5638C200.232 36.0956 198.898 35.6198 197.855 36.5128ZM196.848 42.6219C195.754 43.4222 194.821 44.0761 194.75 44.0548C194.678 44.0335 195.219 43.2626 195.92 42.3452C196.646 41.4741 197.539 40.3033 197.924 39.7965L198.589 38.8684L198.708 40.0306C198.788 41.0645 198.643 41.2929 196.848 42.6219ZM199.06 44.059C199.284 48.5155 199.789 54.3764 200.025 55.1462C200.226 55.9053 199.663 56.3589 194.274 59.8398C190.961 61.959 185.707 65.2471 182.587 67.1129C179.42 69.0038 176.324 70.916 175.69 71.3483C175.01 71.8057 174.012 72.285 173.417 72.457C172.391 72.7723 172.391 72.7723 172.96 72.1653C173.291 71.8368 174.384 70.2593 175.369 68.6498C176.881 66.1873 177.507 65.5197 178.989 64.7188C185.241 61.3401 198.691 52.4562 198.968 51.5288C199.096 51.1008 191.843 55.6183 183.227 61.3217C180.424 63.1657 178.147 64.5453 178.129 64.3457C178.111 64.1461 178.805 62.9934 179.612 61.7193C180.445 60.4915 181.131 59.1036 181.116 58.6329C181.126 58.2086 181.257 57.8982 181.436 57.9515C181.614 58.0047 183.256 57.0574 185.101 55.821C186.9 54.6096 189.924 52.6761 191.784 51.5217C196.461 48.6053 198.961 46.8652 198.811 46.5873C198.625 46.2988 192.427 49.8878 186.902 53.5613C180.811 57.5709 181.114 57.467 180.152 55.7428L179.376 54.3071L182.183 52.5808C184.656 51.0653 185.133 50.897 186.275 51.2376C187.808 51.6952 188.41 51.3699 190.959 48.5565C192.814 46.5071 198.23 42.0244 198.74 42.1377C198.847 42.1697 199.016 43.0358 199.06 44.059ZM177.643 49.4393L176.336 50.1757L175.571 49.0929C175.164 48.5053 174.828 47.9388 174.86 47.8318C174.856 47.7142 175.78 47.8732 176.896 48.1675L178.905 48.7278L177.643 49.4393ZM181.458 51.6263C180.315 52.334 179.264 52.9916 179.032 53.1167C178.847 53.2168 178.305 52.8219 177.837 52.1772L176.976 51.0269L178.468 50.1903C179.776 49.4539 180.211 49.4283 181.709 49.8753L183.492 50.4074L181.458 51.6263ZM204.101 57.7607C204.069 57.8677 201.522 59.6328 198.456 61.7089C191.282 66.4831 188.796 68.3052 188.971 68.6294C189.246 69.1389 195.819 65.0787 201.848 60.6235L205.716 57.8153L207.821 58.4432C209.997 59.0925 210.268 59.4842 208.989 59.996C208.583 60.1856 207.222 61.1004 205.979 62.0114C200.502 66.0486 194.953 70.0645 193.474 70.983L191.882 72.0229L190.197 70.5101C187.808 68.3602 187.063 68.2543 183.817 69.5C178.792 71.497 176.893 72.1345 176.978 71.8491C177.021 71.7064 177.897 71.1133 178.941 70.609C180.968 69.5434 193.692 61.5307 198.176 58.4791C200.897 56.6495 201.036 56.5744 202.56 57.0677C203.451 57.3338 204.133 57.6536 204.101 57.7607ZM211.443 60.4951C211.097 60.7416 209.786 61.3604 208.543 61.8828L206.276 62.8382L207.982 61.6769C208.916 61.023 209.906 60.3084 210.205 60.0869C210.468 59.8548 210.996 59.7791 211.388 59.8962C211.923 60.0558 211.938 60.1378 211.443 60.4951ZM197.979 74.1139C197.345 74.5462 196.597 75.1 196.312 75.4035C195.785 75.8678 195.678 75.8359 194.307 74.5722C193.518 73.8317 192.918 73.1088 192.971 72.9305C193.024 72.7521 194.541 71.5733 196.397 70.3012L199.691 67.9823L199.4 70.6532C199.118 73.2885 199.051 73.3849 197.979 74.1139ZM198.916 78.3946C199.002 79.2751 198.753 79.2006 197.706 78.1504C196.003 76.4379 195.993 76.4736 197.524 75.3767L198.927 74.3192L198.887 76.0165C198.846 76.9364 198.869 78.031 198.916 78.3946Z" fill="#0AC2D4"/>
</svg>
