<svg width="258" height="186" viewBox="0 0 258 186" fill="none" xmlns="http://www.w3.org/2000/svg">
<path d="M198.398 6.56844C198.31 6.81344 192.19 10.0007 184.674 13.5077C177.243 16.9888 169.167 21.2124 166.822 22.9134C164.435 24.5178 162.347 25.9217 162.178 25.9737C161.077 26.312 163.142 28.7273 164.737 29.1089C165.786 29.3311 168.919 30.8737 171.67 32.6429L176.629 35.8029L175.458 37.7965C174.375 39.5451 169.786 49.342 162.655 64.9299L160.688 69.1286L154.378 66.1659C145.099 61.8275 137.89 59.6854 130.816 59.4622L124.542 59.3203L120.221 70.6684C117.798 76.968 111.33 90.7184 105.802 101.239C96.4061 118.721 95.4964 120.199 93.6628 119.019C88.8285 115.93 77.9992 116.098 67.4973 119.324C60.129 121.588 60.1732 121.465 50.6185 145.858C44.2757 162.185 42.0248 170.718 44.2268 170.042C44.7349 169.886 49.1275 171.695 54.1424 174.076L63.2957 178.344L69.563 176.418L75.8303 174.493L78.3684 166.415C79.8344 161.935 82.1478 154.689 83.5255 150.453L86.1003 142.691L90.0401 143.877C93.5601 144.974 100.655 148.894 102.308 150.783C102.64 151.117 106.701 150.087 111.322 148.34L119.589 145.256L121.497 139.55C122.518 136.514 126.242 128.072 129.777 120.777C133.354 113.579 137.788 102.958 139.737 97.3494L143.155 87.0409L155.435 93.2894L167.673 99.4413L175.042 97.1777L182.495 94.8881L185.162 86.6621C186.628 82.1816 188.248 78.525 188.668 78.6139C189.132 78.5803 189.268 77.9938 189.11 77.3889C188.665 76.3276 195.118 63.4531 198.311 58.9866C199.217 57.728 200.554 53.3961 200.937 50.6642C201.077 49.8587 201.751 49.8696 202.874 50.7227C205.12 52.429 212.138 53.4317 212.245 52.0918C212.296 51.5313 213.283 50.4657 214.432 49.7859C220.225 46.0458 220.715 44.4793 218.484 36.8865C218.087 35.4837 216.953 30.2769 215.941 25.3596C214.929 20.4422 213.262 14.4191 212.169 11.8141C210.347 7.47243 210.015 7.13854 206.072 6.17159C202.213 5.17862 198.84 5.34343 198.398 6.56844ZM202.021 9.04985C202.047 10.0223 203.467 18.1907 205.208 27.3501C209.075 47.7284 209.446 50.6641 208.345 51.0023C206.906 51.4447 197.859 45.8368 196.173 43.414C195.352 42.1413 194.443 41.1136 194.189 41.1916C194.019 41.2437 192.237 44.5143 190.233 48.3975C188.23 52.2807 186.447 55.5513 186.362 55.5774C185.854 55.7335 177.548 76.0393 173.397 87.3354C170.487 94.9825 169.227 97.2211 167.839 97.103C166.83 96.9773 159.474 93.5733 151.624 89.4496C130.534 78.6102 133.067 78.2676 127.465 93.1682C121.951 107.824 114.271 123.471 112.323 124.07C111.561 124.304 111.344 124.698 111.719 124.909C112.22 125.191 110.99 128.183 109.078 131.602C107.292 135.092 105.012 140.367 104.161 143.351L102.592 148.953L99.433 146.438C96.2298 144.045 89.6574 141.599 79.4213 139.079L73.8835 137.731L71.3053 143.206C69.1653 147.676 66.1188 158.415 62.5267 174.005C62.0735 175.887 62.4933 175.976 47.9054 169.239L44.8125 167.792L51.1813 149.933C58.482 129.283 61.0491 124.464 65.8473 122.228C70.2625 120.218 77.7408 121.406 87.2734 125.666L94.1292 128.788L95.3632 125.577C96.0262 123.739 96.9726 122.577 97.4734 122.859C97.9336 123.045 98.0662 122.677 97.7423 121.905C97.4184 121.133 100.781 114.11 105.171 106.117C114.95 88.4082 121.852 73.8707 123.904 67.1408C125.377 62.2223 125.462 62.1963 127.417 63.6652C128.54 64.5183 135.436 67.7369 142.675 70.6324C149.954 73.6243 156.354 76.342 156.81 76.7464C158.596 78.2673 159.892 76.3442 165.944 62.2858C169.491 54.3341 173.907 44.8083 175.822 41.1701L179.431 34.5063L171.998 30.6904L164.649 26.8486L167.849 24.4495C169.598 23.1497 176.992 19.3532 184.213 15.8277C191.475 12.3987 197.761 9.37837 198.063 8.95883C199.945 7.2915 201.882 7.35002 202.021 9.04985ZM208.008 8.7354L210.936 10.0146L208.233 10.4092C206.797 10.6325 206.119 10.8407 206.793 10.8515C208.561 10.9621 208.063 12.9665 206.031 13.591C204.845 13.9552 204.304 13.5769 204.197 12.4115C204.087 11.4651 203.814 10.1328 203.49 9.36096C202.681 7.43132 204.581 7.17437 208.008 8.7354ZM210.799 13.1064C211.325 14.3606 210.81 14.9547 207.871 16.8378C205.872 17.9967 205.198 17.9858 204.712 16.828C204.347 15.9597 205.08 14.9721 206.737 14.1363C208.096 13.501 209.499 12.7432 209.923 12.6131C210.221 12.4126 210.597 12.6239 210.799 13.1064ZM212.356 18.1831C212.094 18.6991 210.599 19.9208 209.027 20.7307C204.774 23.1265 204.019 20.4174 208.236 17.7061C211.259 15.797 213.192 16.0745 212.356 18.1831ZM213.232 21.1816C213.434 21.664 212.536 22.4847 211.181 22.901C209.826 23.3173 208.253 24.1271 207.612 24.6507C206.972 25.1743 206.298 25.1635 206.095 24.6811C205.69 23.7162 207.48 22.5129 211.428 20.7556C212.19 20.5214 212.989 20.6027 213.232 21.1816ZM214.1 24.6181C214.244 26.0989 208.411 29.7426 207.074 29.064C205.657 28.1924 208.452 24.8285 211.247 23.9698C213.195 23.3714 214.034 23.5492 214.1 24.6181ZM214.711 28.3516C214.49 28.9641 212.991 30.4049 211.371 31.5562L208.388 33.5618L211.828 31.9605C215.182 30.3854 215.182 30.3854 215.767 33.1465C216.467 36.635 216.857 35.9705 212.861 38.0693L209.463 39.767L208.557 36.015C207.413 31.4652 207.464 30.9047 210.016 29.4672C213.673 27.4725 215.153 27.1266 214.711 28.3516ZM130.864 61.626C130.216 62.5876 130.97 62.7914 133.548 62.3263L137.013 61.6975L134.005 62.7306C132.182 63.3995 130.285 63.4375 129.328 62.7513C127.955 61.7572 127.959 61.5382 129.652 61.0179C131.177 60.5495 131.512 60.6644 130.864 61.626ZM217.534 38.2676C217.737 38.75 216.75 39.8157 215.472 40.6439C214.109 41.4982 212.364 42.579 211.683 43.0062C210.828 43.7043 210.158 43.4745 209.753 42.5097C209.186 41.1589 210.379 40.3567 215.811 38.0346C216.533 37.7039 217.332 37.7852 217.534 38.2676ZM141.446 63.6032C141.601 64.4271 142.565 64.6754 143.751 64.3111C144.937 63.9469 146.284 63.9685 146.781 64.4694C147.363 64.9442 146.085 65.7724 143.545 66.553C140.326 67.5417 138.644 67.4051 135.926 66.1704L132.417 64.4164L136.773 63.4049C139.734 62.7132 141.207 62.8054 141.446 63.6032ZM197.568 48.1047C200.042 48.7606 200.042 48.7606 199.077 51.0176C198.33 52.8811 197.31 53.4124 193.848 53.8222L189.669 54.3437L190.645 51.4297C191.669 48.1742 193.835 47.1822 197.568 48.1047ZM217.799 42.5432C217.578 43.1557 215.913 44.4295 214.127 45.4139C209.41 47.8433 209.064 45.8801 213.66 43.1612C217.49 40.8954 218.587 40.7762 217.799 42.5432ZM150.961 66.4532C152.176 66.8423 151.365 67.418 148.232 68.3807C145.86 69.1092 143.371 69.3293 142.915 68.9249C141.711 67.8788 148.74 65.7193 150.961 66.4532ZM196.065 54.775C196.912 54.5149 197.497 54.7707 197.486 55.4276C197.435 55.9881 195.096 57.2511 192.217 58.1357C187.643 59.5407 187.139 59.4779 187.588 57.8149C187.865 56.4229 188.969 55.8657 191.333 55.5751C193.064 55.3702 195.218 55.0352 196.065 54.775ZM154.716 68.5671C155.931 68.9562 155.29 69.4799 152.411 70.3645C150.209 71.041 147.974 71.183 147.517 70.7787C146.313 69.7325 152.496 67.8332 154.716 68.5671ZM159.742 70.2907C160.324 70.7655 159.215 71.5417 156.844 72.2702C154.727 72.9207 152.576 73.0367 152.12 72.6324C151.538 72.1576 152.646 71.3814 155.018 70.6528C157.135 70.0024 159.245 69.7899 159.742 70.2907ZM195.6 59.8192C194.904 61.1223 192.651 62.3593 189.432 63.348C184.649 64.7085 184.354 64.6901 185.268 62.9935C185.964 61.6905 188.218 60.4535 191.436 59.4648C196.219 58.1042 196.514 58.1227 195.6 59.8192ZM192.256 65.7481C191.678 67.5596 190.441 68.4843 186.883 69.5771C182.31 70.9821 182.225 71.0081 182.94 68.6101C183.518 66.7986 184.756 65.8739 188.313 64.7811C192.886 63.3761 192.971 63.3501 192.256 65.7481ZM138.023 84.1519C142.75 86.0761 142.78 86.8295 138.277 86.5791C136.424 86.4946 134.362 86.3656 133.604 86.3808C132.551 86.3776 132.389 85.9916 132.75 84.5737C133.295 82.2277 133.42 82.2982 138.023 84.1519ZM137.923 87.5591C139.399 87.4323 140.784 87.7694 140.986 88.2518C141.229 88.8307 140.463 89.2839 139.285 89.2102C138.063 89.259 135.4 89.7501 133.368 90.3745C130.149 91.3632 129.73 91.2743 130.179 89.6114C130.452 88.4384 131.431 87.8107 132.948 87.7803C134.171 87.7315 136.446 87.686 137.923 87.5591ZM189.641 70.9083C189.59 71.4688 187.421 72.6797 184.88 73.4603C182 74.3449 180.229 74.4533 180.325 73.7704C180.336 73.1134 182.545 71.999 185.086 71.2184C187.966 70.3338 189.737 70.2253 189.641 70.9083ZM186.687 76.1726C185.984 77.9136 184.279 79.0909 181.653 79.8975C177.927 81.0423 177.842 81.0684 178.557 78.6704C179.135 76.8589 180.372 75.9342 183.591 74.9455L187.951 73.715L186.687 76.1726ZM138.589 90.5132C140.018 90.7279 140.054 91.0433 139.296 93.5638C138.452 96.1103 137.557 96.712 132.391 98.2991C127.648 99.7562 126.595 99.7529 126.993 98.6504C127.346 97.6704 129.641 96.5299 133.323 95.5076C139.627 93.8977 139.424 93.4153 132.752 94.3759C130.429 94.7629 128.536 94.5819 128.547 93.9249C128.735 92.778 136.023 90.3214 138.589 90.5132ZM184.19 81.8412C183.877 82.9177 182.257 84.069 179.97 84.7715C176.667 85.7863 176.163 85.7234 176.568 84.1829C176.881 83.1064 178.501 81.9551 180.788 81.2526C184.091 80.2379 184.595 80.3008 184.19 81.8412ZM137.351 98.9538C137.299 99.5143 134.537 100.907 131.319 101.896C127.592 103.041 125.398 103.279 125.494 102.596C125.505 101.94 128.307 100.643 131.525 99.6542C135.252 98.5094 137.447 98.2709 137.351 98.9538ZM182.643 86.1288C182.591 86.6892 180.846 87.7701 178.729 88.4205C176.357 89.1491 174.925 89.1534 175.021 88.4704C175.032 87.8135 176.818 86.8291 178.935 86.1787C181.307 85.4501 182.739 85.4458 182.643 86.1288ZM136.025 102.629C135.973 103.189 133.211 104.582 129.993 105.571C126.266 106.716 124.072 106.954 124.168 106.271C124.179 105.615 126.981 104.318 130.199 103.329C133.926 102.184 136.12 101.946 136.025 102.629ZM89.1963 119.085C90.1978 119.648 89.5571 120.172 86.2982 121.064C82.5312 122.112 82.3213 122.068 84.3246 120.69C86.4568 119.164 86.4163 119.067 83.4483 120.197C81.795 120.814 79.8949 121.071 79.3537 120.692C77.811 119.75 87.5689 118.168 89.1963 119.085ZM181.011 90.4423C180.658 91.4223 178.566 93.0452 176.401 94.0371C173.219 95.3413 172.84 95.3489 174.545 94.1716C175.782 93.2469 176.044 92.7308 175.156 92.8945C171.772 93.7163 174.052 90.9465 177.778 89.8017C181.251 88.7349 181.671 88.8238 181.011 90.4423ZM134.525 106.575C134.297 107.625 132.217 108.591 127.901 109.699C119.907 111.611 120.912 109.45 129.127 106.926C133.701 105.521 134.839 105.498 134.525 106.575ZM93.0035 120.638C95.2568 121.906 95.5808 122.678 94.0563 123.146C93.3787 123.355 92.9037 124.045 92.9772 124.676C93.0839 125.842 89.8399 125.858 89.3135 124.604C89.111 124.121 89.4167 123.483 89.8881 123.011C90.3153 122.662 90.1054 122.618 89.3394 123.071C88.4483 123.453 87.1374 123.747 86.2132 123.595C84.9944 123.425 85.51 122.831 87.6348 121.743C89.3765 120.881 90.8237 120.001 90.9526 119.852C91.122 119.8 92.002 120.074 93.0035 120.638ZM131.561 112.496C130.282 115.83 129.815 116.082 124.446 117.187C120.896 117.842 119 117.88 119.475 117.189C119.865 116.525 122.281 115.674 124.859 115.209L129.465 114.338L124.914 114.429C118.846 114.551 119.586 113.125 126.954 110.861L132.968 109.014L131.561 112.496ZM128.629 118.952C128.006 120.886 127.071 121.391 122.505 122.358C119.504 122.953 116.761 123.251 116.425 123.136C114.839 122.317 118.289 120.059 123.455 118.472C129.13 116.728 129.34 116.773 128.629 118.952ZM124.81 123.066C126.662 123.15 126.117 125.496 124.265 125.412C123.337 125.479 120.678 125.751 118.229 126.068C112.654 126.909 113.7 124.845 119.364 123.759C121.687 123.372 124.095 122.959 124.81 123.066ZM80.2311 141.009C84.2188 141.853 85.5368 143.627 82.9923 144.626C81.8029 145.21 81.7624 145.113 82.8708 144.337C83.7657 143.735 82.7642 143.172 79.697 142.698C77.2189 142.261 75.1974 142.229 75.0648 142.596C74.8917 142.867 76.3572 143.397 78.2903 143.675C82.4915 144.345 81.6409 144.824 76.5043 144.659L72.6307 144.542L73.9345 142.181C74.671 140.974 75.4039 139.987 75.6985 140.005C75.9931 140.024 78.0072 140.494 80.2311 141.009ZM124.541 126.525C125.877 127.204 122.743 130.672 120.633 130.884C119.326 130.959 116.793 131.302 114.767 131.488C111.56 131.82 111.35 131.776 112.264 130.079C113.045 128.75 114.827 127.984 118.631 127.252C121.547 126.682 124.206 126.41 124.541 126.525ZM119.598 132.291C124.448 132 121.634 133.953 115.503 135.292C110.429 136.415 109.671 136.431 110.076 134.89C110.441 133.253 111.626 132.889 119.598 132.291ZM80.4441 145.845C83.3456 146.152 83.3456 146.152 82.5057 148.479C81.7543 150.562 80.9037 151.041 75.6638 151.997L69.6617 153.188L70.8589 149.661C72.1444 145.89 74.0114 145.098 80.4441 145.845ZM119.204 135.68C121.896 135.943 117.811 143.297 114.206 144.731C112.553 145.348 109.581 146.697 107.751 147.804C105.284 149.215 104.396 149.379 104.496 148.477C104.551 147.697 106.171 146.546 108.119 145.948L111.595 144.662L108.388 144.994C102.986 145.564 106.102 143.191 112.612 141.844C116.545 140.963 117.521 140.554 115.624 140.592C114.067 140.526 111.449 140.895 109.799 141.293C107.302 141.951 106.967 141.836 107.373 140.295C107.866 138.51 115.883 135.285 119.204 135.68ZM78.0535 152.679L81.0471 152.522L79.8941 155.926C78.9622 158.717 78.2772 159.363 75.4898 159.784C69.5356 160.633 67.978 160.567 68.1255 159.323C68.2213 158.64 70.5117 157.719 74.1056 156.942C77.9536 156.086 78.9294 155.678 77.0331 155.715C75.4756 155.649 72.8575 156.018 71.2925 156.39C69.6428 156.788 68.4646 156.714 68.5604 156.031C68.7078 154.788 73.7084 153.034 78.0535 152.679ZM77.5001 160.473C78.8367 161.152 77.1391 161.891 72.5326 162.762C69.7856 163.279 67.3002 163.28 67.1382 162.894C66.8143 162.122 76.3293 159.962 77.5001 160.473ZM73.5266 163.764C79.2672 163.089 77.4074 165.948 71.0628 167.461C66.158 168.533 65.7787 168.54 65.8968 166.543C65.8786 165.133 66.6078 164.364 67.9996 164.264C69.1374 164.241 71.6266 164.021 73.5266 163.764ZM75.5917 168.684C75.7388 169.946 74.9729 170.399 72.9477 170.586C71.4711 170.713 68.8935 171.178 67.2843 171.672C65.5905 172.192 64.4122 172.119 64.508 171.436C64.5191 170.779 67.0674 169.56 70.0316 168.65C74.6898 167.219 75.4483 167.203 75.5917 168.684ZM72.9217 172.119C74.6891 172.229 73.7538 172.734 69.6443 174.106C66.043 175.321 63.9331 175.534 64.0289 174.851C64.1359 173.511 69.3868 171.898 72.9217 172.119Z" fill="#0AC2D4"/>
<path d="M69.7891 149.671C69.9434 150.043 71.0697 150.116 72.3657 149.717C73.5806 149.343 75.5592 149.048 76.8475 149.071C78.0972 149.001 78.7066 148.708 78.2282 148.435C76.8742 147.592 69.4031 148.74 69.7891 149.671Z" fill="#0AC2D4"/>
</svg>
