<svg width="400" height="208" viewBox="0 0 400 208" fill="none" xmlns="http://www.w3.org/2000/svg">
<path d="M234.34 1.15074C242.914 5.01621 246.217 6.98409 252.824 11.7632C260.976 17.8074 263.577 18.8616 256.83 13.5203C249.309 7.47606 239.259 1.71299 234.691 0.799336C232.653 0.377649 232.653 0.377649 234.34 1.15074Z" fill="white"/>
<path d="M224.079 12.1858C223.235 12.5372 222.322 13.2401 222.04 13.6617C221.689 14.2943 221.97 14.2943 223.095 13.6617C225.273 12.467 231.95 13.1698 235.816 14.9268C237.502 15.6296 243.617 19.6357 249.38 23.7823C260.414 31.6538 267.794 35.8004 269.972 35.3084C271.027 35.0273 270.816 34.7461 268.848 33.6216C267.583 32.9188 261.257 28.8425 254.792 24.6256C248.396 20.4087 240.876 15.9107 238.135 14.5754C232.864 12.0453 226.749 11.0613 224.079 12.1858Z" fill="white"/>
<path d="M12.2507 17.7378C12.2507 18.4407 19.7005 20.5491 31.5781 23.1495C36.2166 24.2037 40.4335 25.2579 40.9255 25.5391C41.558 25.8905 40.2227 27.2961 36.7086 29.9668C28.2749 36.4327 26.2367 38.6114 32.9837 33.9728C36.4978 31.6535 40.5038 28.9126 41.9094 27.9286L44.5801 26.1013L50.9757 27.3664L57.4416 28.6314L53.9978 31.8644C52.1002 33.6214 48.5159 36.9949 45.9857 39.2439C43.4556 41.4929 42.542 42.5471 43.9476 41.5632C45.3532 40.5793 49.1484 37.9086 52.3813 35.7298C55.6143 33.5511 58.8472 31.3021 59.4797 30.6696C60.3934 29.8965 61.5882 29.7559 64.2589 30.1073C69.1786 30.7399 77.1204 33.27 78.034 34.4648C79.2288 36.011 75.8553 55.1275 74.1685 56.6034C61.5179 67.2159 16.8893 107.417 8.03385 116.132C-0.259347 124.284 31.9998 97.9991 46.8994 84.4348C52.1705 79.5854 60.6745 71.7841 65.6645 67.0753C70.7248 62.3665 74.8011 58.9227 74.8011 59.4146C74.8011 59.9769 74.1685 63.2801 73.4657 66.8645L72.2007 73.3303L62.783 82.3966C52.3813 92.3063 39.7307 104.114 22.0901 120.138C5.43344 135.318 2.69247 137.989 3.53584 138.059C6.27681 138.13 40.0118 108.893 60.534 88.5814C66.0159 83.1697 70.6545 78.8826 70.795 79.0231C70.9356 79.234 70.4436 82.2561 69.6003 85.7701L68.1243 92.1657L59.3392 100.529C46.7588 112.477 20.4034 137.146 10.3531 146.353C5.64428 150.71 1.21656 154.224 0.513747 154.294C-1.73525 154.365 3.325 156.192 17.1704 160.198C24.4797 162.306 32.7729 164.977 35.5138 166.172C40.9255 168.421 43.3151 168.772 44.4396 167.367C45.1424 166.523 52.6625 152.045 53.1544 150.64C53.3653 150.007 54.3492 150.078 56.8793 150.921C60.534 152.116 68.8974 153.592 79.1585 154.927C86.8895 155.841 87.7328 155.489 89.279 150.359C89.8413 148.25 91.1766 145.017 92.1606 143.26C93.9176 140.168 93.9879 140.098 97.2208 140.308C100.243 140.519 100.524 140.66 101.157 142.979C102.14 146.282 105.795 149.796 109.309 150.71C113.104 151.764 118.586 150.569 122.873 147.899C124.701 146.704 126.247 145.79 126.317 145.79C126.388 145.79 126.528 147.477 126.598 149.515C126.809 154.857 129.339 162.096 132.221 165.399C136.508 170.389 145.293 171.724 151.197 168.28L153.516 166.945V169.124C153.516 176.082 161.809 183.883 170.243 184.937C173.054 185.218 173.687 185.64 174.6 187.467C176.428 191.262 178.958 192.457 185.213 192.809C190.414 193.019 191.187 192.879 195.404 190.77L199.972 188.521L205.384 190.77C212.623 193.722 217.683 194.214 221.408 192.317C224.711 190.63 228.506 186.624 229.139 184.164C229.49 182.618 229.771 182.547 231.739 183.11C235.394 184.164 237.432 183.883 241.789 181.634C246.428 179.315 251.699 174.535 252.332 172.005C252.683 170.74 253.245 170.389 255.002 170.389C263.014 170.389 270.605 164.626 272.151 157.316C272.713 154.786 272.854 154.576 274.962 154.786C278.828 155.208 284.45 153.1 288.035 149.937C292.322 146.142 294.079 142.628 294.079 137.849V134.053L297.804 133.561C299.771 133.351 302.794 132.859 304.48 132.507L307.432 131.945V135.951C307.432 140.379 309.4 147.688 311.579 151.132C313.125 153.592 312.141 153.592 323.948 151.413C327.814 150.71 331.96 149.937 333.155 149.726L335.334 149.375L335.685 154.576C335.966 158.441 336.529 160.831 338.075 163.782C341.027 169.686 342.784 170.74 349.812 170.74C352.974 170.74 357.964 170.248 360.846 169.756C368.928 168.351 400.555 159.917 399.993 159.355C399.852 159.214 396.689 159.706 392.894 160.409C389.169 161.112 386.147 161.604 386.147 161.463C386.147 161.323 387.834 158.3 389.942 154.716C393.527 148.602 395.143 145.088 394.3 145.088C394.159 145.088 392.824 147.055 391.348 149.445C389.872 151.905 387.201 155.77 385.374 158.16C382.001 162.447 381.93 162.447 376.659 163.501C373.778 164.063 371.388 164.485 371.388 164.415C371.388 164.274 372.513 162.377 373.918 160.128C376.94 154.997 382.422 143.963 382.985 141.573C383.406 139.887 383.406 139.816 382.282 141.222C381.649 141.995 379.4 145.369 377.292 148.812C375.183 152.186 372.372 156.403 370.966 158.3C369.561 160.128 368.085 162.447 367.733 163.501C367.171 165.118 366.468 165.469 362.673 166.102C360.284 166.523 357.894 166.875 357.402 166.875C356.91 166.875 358.246 164.415 360.354 161.393C365.133 154.576 370.826 144.736 375.535 135.389C379.26 127.869 389.24 104.395 388.818 103.973C388.677 103.832 387.201 106.784 385.515 110.509C378.276 126.322 370.615 139.887 358.878 157.527C352.553 167.086 352.131 167.578 349.952 167.578C348.617 167.578 347.141 167.367 346.579 167.156C345.665 166.804 345.665 166.594 346.86 165.399C347.563 164.696 348.406 163.22 348.617 162.166C348.898 161.112 350.023 159.284 351.077 158.09C355.294 153.662 371.81 124.495 382.352 103.059C390.013 87.4569 391.629 83.4508 386.709 92.3766C374.41 114.867 360.986 137.778 353.256 149.586L349.601 155.138V148.25C349.601 142.487 349.812 141.152 351.077 139.395C351.85 138.27 354.521 133.913 356.91 129.766C359.37 125.62 364.711 116.413 368.928 109.244C384.952 81.9047 391.137 71.0813 390.856 70.8002C390.645 70.6596 389.591 72.2058 388.396 74.244C387.201 76.2822 382.703 83.3103 378.487 89.9167C374.27 96.4529 368.858 105.027 366.468 108.893C364.149 112.758 360.776 118.1 359.089 120.84C357.332 123.511 354.591 127.939 352.974 130.68C350.023 135.459 349.952 135.529 349.531 133.491C349.25 132.296 349.039 129.696 348.968 127.658C348.898 124.144 349.179 123.581 355.434 114.304C368.999 94.2039 381.368 73.6817 388.537 59.4849C391.207 54.2138 390.434 54.2138 387.201 59.4849C370.474 86.8243 353.677 112.407 348.898 117.889C348.617 118.24 348.055 115.71 347.633 112.407L346.86 106.292L349.531 102.708C355.294 94.7661 377.503 60.3986 381.579 53.019C382.985 50.3484 380.384 53.8624 376.238 60.0472C371.95 66.5833 359.019 85.3484 350.655 97.226C348.406 100.459 346.438 102.848 346.298 102.497C346.227 102.146 345.665 98.983 345.103 95.5392C344.119 89.5653 344.189 89.1436 345.384 87.4569C352.201 78.3906 378.697 37.5572 377.854 37.5572C377.573 37.5572 376.8 38.4708 376.167 39.525C373.567 43.8122 348.758 78.3906 344.189 83.8725C343.627 84.5753 343.135 83.0994 342.432 78.8123C341.729 74.5954 341.8 74.1034 343.205 72.1356C344.541 70.238 353.958 54.9869 357.543 48.8022C358.316 47.4668 358.597 46.6937 358.175 47.0451C357.191 47.9588 347.703 60.9608 343.908 66.6536C342.292 69.1837 341.027 70.3785 340.886 69.8163C340.675 69.254 340.043 66.7942 339.48 64.4046L338.496 59.9066L341.94 54.0733C347.141 45.2881 346.368 43.6716 341.027 52.1054C339.059 55.1978 338.005 56.3925 337.653 55.76C337.372 55.1978 336.318 51.262 335.193 47.0451C334.139 42.758 332.804 38.7519 332.241 38.1194C331.328 37.0652 331.398 36.8543 333.225 35.9407C334.28 35.3784 336.81 34.6756 338.707 34.3945C347.633 33.1997 386.007 23.782 385.163 23.0089C384.952 22.7981 347.422 28.8423 336.669 30.8102C330.695 31.9347 327.814 33.8323 327.814 36.5029C327.814 37.9086 327.111 38.1897 320.996 39.3142C317.201 40.017 309.892 40.7901 304.761 41.0009C296.468 41.4226 295.203 41.6335 294.36 42.8283C293.798 43.6014 293.446 44.7961 293.587 45.4287C293.938 46.6937 293.868 46.764 282.201 48.1696C272.221 49.3644 270.745 48.9427 258.657 41.8443C238.556 30.0371 236.799 29.0531 232.231 27.6475C226.749 25.9607 218.597 26.2419 211.709 28.4206L207.422 29.7559L205.454 28.0692C201.026 24.4146 193.928 23.9929 185.283 26.9447C170.805 31.8644 153.938 38.26 145.153 42.1957C133.697 47.3263 127.442 49.0833 122.171 48.5913C117.532 48.0994 112.683 46.6234 113.175 45.8504C113.807 44.8664 111.98 43.0391 109.309 41.9849C106.357 40.7198 93.4256 38.4708 85.8352 37.8383C81.1967 37.4166 80.4236 37.2058 80.8453 36.2218C81.8995 33.6214 81.8292 32.8483 80.5641 31.7238C78.8071 30.1776 64.3994 26.523 43.8773 22.3764C19.4194 17.527 12.2507 16.4728 12.2507 17.7378ZM201.87 28.8423C205.243 30.2479 205.103 30.3182 190.835 34.3242C184.51 36.0813 178.255 38.0491 176.99 38.6817C173.546 40.2981 171.297 43.3202 167.853 50.6295C164.691 57.3062 158.506 66.1616 153.586 70.9408C151.619 72.7681 150.705 74.3143 150.705 75.5091C150.705 76.5633 149.791 79.0934 148.596 81.2018C147.472 83.3103 146.488 85.489 146.488 86.0513C146.488 86.6135 147.472 85.4187 148.667 83.3103C150.283 80.5693 151.056 79.7962 151.619 80.3585C152.462 81.2018 152.462 80.991 149.37 88.6517C148.596 90.6898 148.175 92.3766 148.456 92.3766C148.737 92.3766 150.072 90.5493 151.408 88.3003C152.743 86.1215 153.868 84.1537 153.938 84.0834C154.008 83.9428 154.781 84.0131 155.554 84.2942C157.452 84.8565 157.382 85.8404 155.273 90.6898C154.289 92.9388 153.586 94.8364 153.727 94.977C153.868 95.0473 155.062 93.1497 156.398 90.6195C158.436 86.6838 159.068 86.0513 160.685 86.0513C161.809 86.0513 162.653 86.3324 162.653 86.6838C162.653 87.0352 161.669 89.5653 160.474 92.3766C157.1 100.318 158.506 100.599 162.372 92.7983C165.323 86.8243 166.096 85.6998 167.853 85.2079C169.892 84.7159 171.578 85.2079 169.821 85.8404C169.4 86.0513 169.119 86.4027 169.329 86.7541C169.54 87.0352 168.697 89.6356 167.572 92.4468C164.55 99.6858 165.323 99.9669 168.837 92.7983C172.07 86.2621 171.93 86.4729 174.882 85.7701C177.201 85.2079 177.201 85.2079 174.671 91.6738C172.773 96.5934 174.53 94.6256 177.412 88.6517C179.098 85.2079 184.651 79.0231 186.127 79.0231C186.829 79.0231 185.775 82.6777 184.37 85.3484C183.105 87.6677 183.034 87.738 184.299 86.2621C185.002 85.4187 186.478 82.2561 187.532 79.234C188.586 76.2119 190.273 71.995 191.257 69.8163C193.084 65.8805 193.155 65.8102 197.723 64.5452C200.253 63.7721 204.47 63.2098 207 63.2098C211.006 63.2098 212.342 63.5612 217.121 66.0211C220.143 67.497 222.954 69.1135 223.376 69.5351C223.797 69.9568 228.647 72.2761 234.058 74.736C251.067 82.3263 256.197 86.4027 264.982 99.7561C267.793 103.973 273.838 111.704 278.406 116.834C290.635 130.61 292.111 132.648 292.462 136.232C293.376 143.752 284.31 152.608 276.368 151.975C273.908 151.764 273.416 151.483 272.573 149.375L271.589 146.985L274.259 147.407C279.39 148.25 284.872 145.79 287.332 141.433L288.667 139.114L285.856 141.784C282.974 144.525 279.601 145.931 277.281 145.298C276.016 145.017 276.157 144.806 278.125 142.909L280.374 140.8L277.563 142.276C274.47 143.822 269.129 144.174 268.356 142.839C268.075 142.417 268.215 141.855 268.707 141.714C269.902 141.292 273.697 138.059 273.697 137.357C273.697 137.075 272.151 137.638 270.183 138.692C266.88 140.449 266.669 140.449 265.474 139.254C264.35 138.13 264.35 137.919 265.334 137.357C267.583 136.092 269.832 133.983 269.41 133.491C269.129 133.28 267.864 133.702 266.599 134.475C264.209 135.951 261.749 136.443 261.749 135.389C261.749 135.108 262.874 134.194 264.209 133.28C265.544 132.437 266.669 131.242 266.669 130.68C266.669 129.836 266.036 130.047 263.858 131.453C262.171 132.577 260.625 133.14 259.922 132.859C258.868 132.437 259.149 131.945 261.468 129.485C264.209 126.674 263.858 126.533 260.203 129.063C259.219 129.766 258.024 130.328 257.603 130.328C256.197 130.328 256.83 126.674 258.587 124.565C260.765 121.965 260.273 121.051 257.954 123.23C256.267 124.847 254.721 124.706 254.721 123.089C254.721 121.614 249.872 114.375 248.607 113.883C247.552 113.461 247.482 113.531 248.536 114.656C250.083 116.483 250.926 118.17 252.191 122.527L253.316 126.322L251.559 124.706C249.169 122.457 249.31 124.144 251.91 128.642C253.034 130.61 255.565 133.632 257.532 135.318C269.972 145.861 272.854 149.796 271.589 154.365C270.675 157.527 267.442 161.955 264.279 164.415C262.03 166.172 256.478 168.28 254.229 168.28C252.824 168.28 253.175 167.015 254.791 166.523C256.619 165.891 260.906 162.166 261.89 160.268C262.382 159.214 261.89 159.495 260.203 161.112C257.322 163.853 252.613 165.75 251.559 164.626C251.067 164.134 251.207 163.782 251.91 163.501C253.386 163.009 257.532 158.722 257.532 157.738C257.532 157.246 256.408 157.879 255.073 159.074C252.261 161.533 249.38 162.517 248.255 161.393C247.693 160.831 248.185 160.057 249.872 158.652C255.916 153.662 256.267 152.116 250.504 155.981C244.32 160.128 241.649 159.074 246.779 154.505C248.677 152.889 249.942 151.343 249.591 150.991C249.31 150.71 248.396 151.132 247.482 151.905C246.077 153.24 241.93 155.63 241.016 155.63C240.173 155.63 240.805 154.154 242.422 152.537C245.022 149.937 244.53 148.953 241.789 151.061L239.33 152.889L237.924 150.218L236.518 147.547L236.729 150.851C236.94 153.592 237.573 154.857 240.524 158.582C242.492 161.041 245.374 164.274 246.92 165.821C250.856 169.616 250.926 172.568 247.201 176.152C244.109 179.104 241.297 180.65 237.643 181.282C234.55 181.915 234.34 181.212 237.01 178.963L238.908 177.347L235.956 178.752C233.356 180.017 230.826 180.158 230.826 178.963C230.826 178.752 231.528 177.839 232.372 176.925C234.058 175.098 233.356 174.817 231.247 176.363C228.014 178.823 225.484 176.925 228.506 174.325C231.317 171.935 230.052 171.302 226.819 173.481C224.149 175.308 222.392 175.8 222.392 174.746C222.392 174.395 223.165 173.692 224.079 173.2C225.625 172.427 227.452 169.897 226.046 170.529C225.765 170.6 224.079 171.302 222.251 172.076C218.878 173.411 217.191 175.308 219.44 175.308C220.916 175.308 226.398 178.682 228.155 180.72C229.35 181.985 229.279 182.196 227.663 184.656C225.344 188.029 220.564 190.77 217.05 190.77C213.115 190.77 211.92 189.786 214.52 188.732C215.715 188.24 217.332 187.116 218.175 186.202L219.651 184.586L216.207 186.343C213.817 187.537 211.85 187.959 210.022 187.819L207.281 187.537L210.093 186.272C213.747 184.656 217.261 181.985 218.245 180.088C218.878 178.823 218.386 179.033 215.645 181.001C213.747 182.337 211.287 183.813 210.233 184.304C207.844 185.359 201.589 185.429 200.956 184.445C200.745 184.094 201.097 183.742 201.799 183.742C203.697 183.742 209.811 180.017 212.482 177.136C215.434 174.114 215.012 173.973 211.006 176.644C208.195 178.471 200.745 181.634 199.199 181.634C197.442 181.634 198.848 179.174 202.572 175.449C208.406 169.756 209.741 166.875 204.189 172.005C201.799 174.184 199.41 176.011 198.918 176.011C198.426 176.011 197.723 174.887 197.301 173.551C196.809 172.146 196.809 171.092 197.161 171.092C197.512 171.092 199.199 169.827 200.956 168.21C203.908 165.469 204.189 165.399 206.297 166.102C207.562 166.523 209.811 166.875 211.428 166.804C214.239 166.734 214.169 166.734 209.741 165.539C207.211 164.837 203.627 163.642 201.729 162.798C197.512 160.901 196.528 160.831 200.113 162.728C201.518 163.501 202.713 164.345 202.713 164.626C202.713 165.399 198.918 168.14 196.809 168.983C195.474 169.475 194.842 169.335 193.928 168.28C192.803 167.015 192.803 166.804 194.912 164.274C197.372 161.323 197.582 160.549 195.966 160.549C195.404 160.549 195.052 160.831 195.333 161.182C195.544 161.533 194.56 162.798 193.084 163.993C191.187 165.539 190.203 165.961 189.36 165.469C188.305 164.907 188.516 164.415 191.187 161.604C195.615 156.965 194.982 156.262 190.133 160.479C186.619 163.572 185.705 163.993 183.878 163.642C182.261 163.29 181.839 162.939 182.191 161.814C182.331 161.041 182.964 160.268 183.526 160.057C184.791 159.565 192.803 150.148 194.56 147.055C195.474 145.58 194.068 146.704 190.765 150.218C184.159 157.316 183.315 157.738 183.245 154.365C183.175 152.327 183.737 151.202 186.197 148.32C188.938 145.298 193.576 137.146 193.576 135.529C193.576 135.248 192.101 137.146 190.344 139.887C187.04 144.806 183.878 148.602 182.964 148.602C182.753 148.602 182.121 147.688 181.629 146.493C180.926 144.736 180.996 144.174 182.191 142.487C184.37 139.324 191.117 126.533 190.273 127.025C189.852 127.306 187.392 130.82 184.791 134.897C182.191 138.973 179.731 142.276 179.309 142.276C178.888 142.276 177.833 141.573 176.99 140.8L175.374 139.324L179.59 130.961C181.839 126.322 183.597 122.598 183.456 122.598C183.245 122.598 181.558 125.409 179.59 128.782C175.514 135.881 172.492 140.027 171.438 139.746C171.016 139.676 169.821 139.395 168.767 139.184L166.799 138.692L169.189 135.389C176.006 125.901 178.325 122.387 177.552 122.668C176.358 123.089 164.761 136.794 164.761 137.849C164.761 138.341 163.707 139.184 162.442 139.816C161.177 140.379 159.279 142.206 158.295 143.752L156.398 146.634L155.273 144.244C154.57 142.979 153.235 141.082 152.251 140.027L150.494 138.13L153.235 134.053C154.711 131.804 157.944 127.377 160.404 124.144C162.864 120.911 164.761 118.17 164.691 118.029C164.199 117.608 155.062 128.361 152.392 132.437C150.916 134.545 149.651 136.443 149.51 136.583C149.37 136.794 148.386 136.092 147.331 135.037L145.504 133.14L148.034 128.079C149.37 125.268 152.321 120.419 154.57 117.326C156.819 114.234 157.874 112.336 157.03 113.11C154.149 115.64 147.612 124.284 145.434 128.431C144.309 130.61 142.833 132.437 142.271 132.507C141.639 132.507 141.568 132.718 141.99 132.859C142.482 133.069 142.693 133.772 142.482 134.545C142.201 135.6 141.709 135.74 139.811 135.459C138.476 135.248 136.438 135.459 135.173 135.881C133.908 136.302 132.783 136.513 132.643 136.373C131.729 135.529 139.952 122.035 145.293 115.359C149.229 110.65 148.667 109.947 144.52 114.445C137.211 122.387 127.582 137.567 128.426 139.746C128.637 140.238 128.566 141.082 128.215 141.573C127.793 142.276 127.231 142.136 125.755 140.941C124.701 140.168 123.365 139.465 122.873 139.465C121.398 139.465 120.976 138.059 122.1 136.794C122.663 136.162 124.49 132.929 126.106 129.626C127.723 126.322 130.886 120.981 133.064 117.678C138.476 109.455 138.335 109.666 137.422 110.228C136.086 111.071 127.09 124.144 125.122 128.15C122.452 133.491 118.516 138.762 117.11 138.762C116.408 138.762 115.494 138.481 114.932 138.13C114.088 137.567 114.58 136.302 117.462 131.242C121.819 123.652 124.139 119.013 127.371 111.704C130.675 104.043 133.416 95.8906 132.08 97.5774C131.518 98.3505 131.026 99.2641 131.026 99.5453C131.026 101.935 114.299 134.616 111.699 137.286C110.996 137.989 109.731 138.059 106.568 137.708L102.351 137.216L105.655 132.929C110.926 125.901 116.97 113.32 123.014 96.734C124.349 93.1497 125.122 90.4087 124.701 90.6195C124.349 90.8304 123.998 91.3223 123.998 91.6738C123.998 92.728 114.932 112.688 112.542 116.975C107.06 126.814 99.8212 137.357 98.6264 137.357C95.3232 137.357 95.2529 136.935 97.3614 130.258C98.4859 126.744 100.735 121.332 102.281 118.24C103.827 115.148 106.357 109.877 107.833 106.503C109.309 103.2 111.98 97.3665 113.737 93.5713C115.494 89.8464 116.759 86.7541 116.618 86.7541C116.478 86.7541 114.229 90.7601 111.628 95.6798C104.53 109.244 102.14 113.602 101.789 113.25C101.649 113.11 102.281 108.752 103.195 103.551C104.46 96.5934 105.584 92.728 107.412 88.8625C110.012 83.3103 110.293 81.483 107.904 85.4187C106.006 88.5111 106.006 88.23 108.888 71.2922C110.223 63.3504 111.347 55.3383 111.347 53.511V50.1375L115.424 50.6998C125.896 52.1757 134.61 50.2781 149.932 43.1797C157.1 39.8764 176.217 32.778 187.251 29.4045C193.506 27.5069 198.285 27.2961 201.87 28.8423ZM230.123 29.3343C232.231 30.2479 237.783 33.1294 242.422 35.7298C247.061 38.3303 255.775 42.8985 261.749 45.9206L272.643 51.4729L280.022 51.1917C284.099 51.0512 289.862 50.3484 292.814 49.5753L298.296 48.3102L298.928 50.8403C302.864 65.6697 306.308 83.3103 305.886 86.1215C305.675 87.246 305.816 87.9488 306.097 87.738C306.448 87.5974 306.87 88.5814 307.081 90.0573C307.362 91.5332 307.994 95.0473 308.557 97.8585C309.47 102.638 309.47 103.13 308.346 104.676C307.643 105.519 304.551 111.634 301.458 118.24C297.944 125.83 295.414 130.328 294.641 130.539C292.814 131.031 292.392 129.836 293.587 127.306C296.679 120.7 304.621 102.005 304.41 101.794C304.129 101.513 298.928 112.266 294.079 123.16L291.759 128.29L290.494 126.393C289.3 124.495 289.3 124.425 291.619 119.857C295.344 112.407 303.988 92.9388 303.707 92.6577C303.567 92.5171 300.193 99.1939 296.187 107.557C292.181 115.851 288.737 122.808 288.456 122.949C288.245 123.089 287.191 122.106 286.137 120.77L284.169 118.381L288.878 110.158C293.165 102.567 301.81 85.0673 301.81 84.0131C301.81 83.8022 299.631 87.6677 296.96 92.728C290.424 105.238 283.536 116.975 282.763 116.975C282.553 116.975 281.709 116.272 280.866 115.359L279.32 113.742L284.802 102.848C289.932 92.7983 295.836 79.1637 295.344 78.6717C295.203 78.5312 293.306 82.4669 291.057 87.3163C288.808 92.236 285.083 99.8264 282.693 104.184L278.406 112.126L276.789 110.509L275.173 108.893L277.563 104.043C278.898 101.443 279.812 98.9127 279.601 98.5613C279.32 98.1396 278.125 99.8967 276.93 102.286C275.735 104.746 274.4 106.784 273.908 106.784C273.486 106.784 271.518 104.676 269.48 102.075L265.826 97.3665L267.934 94.3444C271.729 88.7922 278.617 73.1195 277.633 72.2058C277.492 72.0653 276.93 73.1195 276.438 74.5954C274.189 81.5532 266.81 95.1878 265.334 95.1878C265.053 95.1878 263.858 93.8525 262.733 92.1657L260.625 89.2139L262.452 86.2621C264.49 83.0994 268.356 73.6817 269.129 70.238C269.34 69.0432 268.426 70.9408 266.95 74.4548C265.544 77.8986 263.295 82.4669 261.96 84.5753L259.5 88.3705L257.462 86.2621L255.354 84.2239L258.516 78.6014C261.468 73.4709 265.685 62.3665 265.053 61.7339C264.912 61.5231 264.069 63.4207 263.155 65.8102C261.468 70.5191 257.743 78.1797 255.635 81.2721L254.299 83.1697L249.942 80.0773C245.725 77.1958 245.163 75.5793 248.607 76.5633C249.942 76.9147 250.012 76.9147 248.888 76.2119C247.763 75.5091 247.834 75.2279 249.731 72.487C252.05 69.0432 254.37 64.6155 255.002 62.1556C255.283 61.1717 254.37 62.4367 252.964 64.8966C249.731 70.6596 247.061 74.1034 246.006 74.1034C245.514 74.1034 244.53 73.6817 243.828 73.1195C242.563 72.2058 242.563 72.1356 244.179 69.8866C246.077 67.2159 250.504 57.3765 250.504 55.8303C250.504 55.268 249.731 56.5331 248.818 58.7118C247.974 60.8905 246.006 64.5452 244.46 66.7942C242.211 70.1677 241.368 70.8705 239.962 70.7299C237.151 70.4488 236.94 69.5351 238.838 66.4428C240.876 63.2801 243.687 56.5331 243.265 56.0411C243.054 55.9006 242.563 56.8142 242.141 58.009C240.876 61.6636 236.237 68.4809 234.972 68.4809C232.934 68.4809 233.075 67.7078 236.097 61.5934C237.783 58.2199 239.4 54.495 239.611 53.3705C239.822 52.1757 238.346 54.5652 236.307 58.6415C232.723 65.74 231.528 67.005 229.631 65.8102C228.928 65.3886 229.42 63.6315 231.458 58.5713C235.605 48.4508 235.534 47.6074 231.247 56.3223C229.139 60.6797 226.96 64.2641 226.468 64.2641C223.868 64.1938 223.938 63.1396 226.679 57.6576C228.155 54.6355 229.42 51.3323 229.35 50.2781C229.35 48.8724 229.068 49.2239 228.085 52.0351C226.257 57.0251 224.922 59.4849 223.024 61.1014C221.338 62.507 221.338 62.507 222.462 61.1014C223.868 59.4146 226.257 54.7058 226.96 52.3162C227.311 51.1215 226.819 51.4729 225.484 53.511C223.235 56.8845 222.392 57.0251 224.079 53.7921C225.765 50.5592 225.414 50.4186 223.165 53.4407C222.111 54.9166 220.494 56.8142 219.651 57.517C218.175 58.8524 218.175 58.7821 219.862 55.76C220.775 54.0733 221.759 51.8945 221.97 50.9106C222.251 49.9267 221.759 50.4186 220.986 52.0351C220.213 53.5813 218.386 55.9709 216.98 57.3062L214.45 59.6958L214.942 57.5873C215.153 56.3925 215.504 52.8082 215.645 49.505C215.926 44.5853 215.926 44.2339 215.434 47.4668C215.153 49.6455 214.309 53.511 213.607 56.1114C212.412 60.4689 212.201 60.75 210.233 60.75C208.546 60.75 208.265 60.5391 208.687 59.4849C209.109 58.2901 210.444 48.2399 210.444 45.7801C210.444 45.1475 210.163 44.5853 209.741 44.5853C209.39 44.5853 209.038 46.1315 209.038 48.0994C209.038 55.268 207 60.75 204.4 60.75C203.556 60.75 203.416 59.4146 203.697 52.8082L204.048 44.9367L203.205 52.1054C202.291 59.4849 202.01 60.258 199.48 61.0311C198.004 61.4528 198.004 61.3825 198.285 55.3383C198.496 51.9648 198.356 48.0291 198.004 46.6937C197.442 44.6556 197.301 45.4287 197.231 50.9106C197.161 58.009 196.458 61.5231 195.123 62.0151C194.56 62.1556 194.42 61.3825 194.701 59.2038C194.912 57.517 194.771 54.7761 194.42 53.019C193.717 49.9267 193.717 49.9969 193.647 55.1275C193.576 60.3283 192.593 63.5612 190.976 64.0532C190.554 64.1938 190.062 63.491 189.852 62.3665L189.57 60.3986L189.43 62.5773C189.43 63.7018 188.868 65.3183 188.305 66.0914C187.392 67.2861 187.321 67.0753 187.181 63.2098C186.97 55.4086 186.127 54.7058 186.197 62.2962C186.197 69.3946 186.127 69.9568 184.44 71.5733L182.683 73.4006L182.753 67.2159C182.823 63.8424 182.753 62.507 182.613 64.2641C182.05 70.5894 180.785 75.5793 179.45 76.2822C178.185 76.9147 178.115 76.6336 178.044 72.5572L177.904 68.1295L177.412 71.995C176.92 75.9307 175.725 78.9528 174.319 79.8665C172.914 80.8504 172.492 80.4287 173.195 78.6014C173.617 77.6175 173.827 75.6496 173.827 74.244C173.757 72.4167 173.617 72.2058 173.406 73.4006C172.773 77.7581 171.508 81.2721 170.313 81.8344C169.189 82.4669 169.119 82.2561 169.47 80.0773C170.032 76.7741 168.908 76.985 167.432 80.4287C166.167 83.5211 164.058 84.2239 163.988 81.6235V80.0773L162.864 81.6235C161.528 83.5914 160.544 83.6617 157.1 81.8344C153.516 80.0071 152.11 78.6014 152.11 76.6336C152.11 73.8223 153.446 73.4006 156.117 75.2279C157.522 76.1416 159.139 76.9147 159.771 76.9147C160.474 76.9147 160.052 76.4227 158.787 75.6496C155.062 73.3303 154.711 72.4167 156.749 70.5191C158.155 69.254 163.707 62.4367 165.113 60.1877C165.534 59.5552 167.502 61.1014 168.205 62.6476C168.978 64.2641 168.697 65.1777 166.237 70.3785C162.934 77.1958 163.426 77.4769 167.221 71.1516C168.837 68.4809 169.892 65.8102 169.962 64.4046C169.962 63.2098 170.243 62.1556 170.524 62.1556C171.508 62.1556 171.157 60.6797 169.681 58.6415L168.275 56.6737L170.454 51.8243C173.968 43.9528 176.709 41.8443 187.392 38.7519C190.695 37.768 198.074 35.2379 203.838 33.1294C209.601 31.021 215.293 28.9828 216.418 28.5612C220.072 27.2961 225.976 27.6475 230.123 29.3343ZM338.005 75.5091C342.784 99.6858 344.752 114.867 345.806 136.162L346.298 145.79H342.081C339.762 145.79 336.88 146.001 335.756 146.212L333.647 146.634L333.577 137.567C333.507 128.571 331.749 114.375 330.555 113.11C330.133 112.758 330.133 113.812 330.414 115.921C330.695 117.889 330.906 125.62 330.976 133.14V146.845H328.657H326.338L326.127 136.302C325.916 125.69 324.581 115.569 323.456 115.569C323.175 115.569 323.105 117.397 323.386 119.575C324.089 125.057 324.089 138.2 323.386 143.12C322.894 146.353 322.543 147.196 321.559 147.196C320.434 147.196 320.294 146.001 319.802 133.702C319.169 114.656 318.255 113.11 318.185 130.82C318.115 146.071 317.764 148.11 315.233 148.812C314.039 149.094 313.617 148.602 312.774 145.861C312.141 144.104 311.298 140.73 310.946 138.411C310.525 136.092 310.033 133.632 309.822 132.929C309.541 132.156 309.962 131.523 311.087 131.102C312 130.75 312.774 130.61 312.914 130.68C313.125 130.891 315.093 143.331 315.163 144.525C315.163 144.877 315.514 145.088 316.006 145.088C316.569 145.088 316.639 142.417 316.358 135.037C315.514 115.921 311.087 88.3705 304.972 63.8424C302.512 53.9327 300.334 45.6395 300.053 45.4287C299.842 45.2178 299.069 45.3584 298.296 45.8504C297.522 46.272 296.82 46.4126 296.539 45.9909C295.836 44.9367 297.312 44.5853 305.816 43.8825C315.023 43.1797 327.392 40.7901 329.571 39.3845C330.906 38.4708 331.047 38.8222 332.944 49.0833C333.998 54.9166 336.247 66.7942 338.005 75.5091ZM93.0742 42.1254C109.45 45.8504 108.185 45.3584 108.396 48.3102C108.536 49.7158 107.201 59.6958 105.444 70.3785C103.687 81.1316 101.438 94.9067 100.454 101.091C98.3453 114.234 95.7449 126.252 93.3553 133.702C90.4738 142.557 86.5381 152.045 85.5541 152.397C85.0621 152.608 83.7268 152.608 82.6023 152.397L80.4939 151.975L83.2348 147.969C87.7328 141.292 91.2469 133.069 92.7228 125.549C93.4256 122.035 92.7228 122.879 90.9658 127.658C88.8573 133.421 84.4296 142.276 81.4075 146.704C80.0722 148.602 79.018 150.429 79.018 150.78C79.018 151.132 78.3854 151.413 77.6123 151.413C76.8392 151.413 76.2067 151.132 76.2067 150.78C76.2067 150.429 77.7529 146.915 79.7208 142.839C81.6184 138.832 83.8674 133.632 84.6405 131.383C86.3975 126.322 86.5381 123.089 84.781 127.166C84.1485 128.712 81.4075 134.405 78.6665 139.816C74.9416 147.126 73.3252 149.726 72.2709 149.867C70.9356 150.078 71.0059 149.726 73.1846 145.158C75.5742 140.308 79.0882 128.009 78.9477 125.128C78.8774 124.144 78.6665 124.495 78.1746 126.112C76.2067 132.999 74.7308 136.935 71.9195 142.768C69.3894 148.039 68.546 149.234 67.281 149.234C66.3673 149.304 65.6645 149.234 65.6645 149.094C65.6645 149.023 66.5782 146.704 67.7027 143.893C70.4436 137.146 74.028 124.003 73.044 124.003C72.9035 124.003 71.779 127.236 70.5139 131.172C67.4918 140.941 63.9778 147.899 62.0802 147.899C61.1665 147.899 60.7448 147.547 60.9557 146.985C65.2428 137.005 66.3673 134.264 67.281 130.68C67.8432 128.361 68.546 125.901 68.8272 125.198C69.1083 124.565 69.038 124.003 68.6866 124.003C68.4055 124.003 67.3513 126.112 66.4376 128.642C63.6966 136.373 58.0741 147.196 56.8793 147.196C54.9115 147.196 55.052 145.509 57.8633 138.341C68.7569 110.369 78.3151 70.5191 80.1425 45.7801C80.5641 39.8764 80.775 38.9628 81.7589 39.3142C82.3915 39.5953 87.4517 40.8604 93.0742 42.1254ZM239.751 73.5412C244.179 75.1577 245.866 76.2119 244.038 76.2119C242.773 76.2119 233.637 72.0653 234.832 71.995C235.253 71.995 237.432 72.6978 239.751 73.5412ZM183.245 77.1958C182.542 78.1095 181.839 78.6014 181.769 78.25C181.418 77.4067 182.964 75.5091 183.878 75.5091C184.229 75.5091 183.948 76.2822 183.245 77.1958ZM178.115 81.8344C177.201 83.5211 174.952 84.7862 173.406 84.5051C172.562 84.3645 173.054 83.732 175.022 82.3966C178.325 80.1476 179.098 80.0071 178.115 81.8344ZM66.7187 98.1396C66.5782 98.6316 65.4537 102.497 64.2589 106.784L62.1504 114.515L56.7388 119.786C51.8894 124.425 39.4496 135.81 21.8793 151.553L16.4676 156.473L11.3371 155.63C8.5961 155.138 6.06597 154.646 5.78484 154.435C5.50372 154.294 6.41738 153.17 7.89328 151.905C21.1764 140.168 40.4335 122.527 52.3111 111.142C60.2528 103.551 66.789 97.3665 66.8593 97.2963C66.9296 97.2963 66.8593 97.7179 66.7187 98.1396ZM308.205 113.25C305.464 120.208 299.982 129.626 298.647 129.626C298.085 129.626 297.593 129.485 297.593 129.345C297.593 128.993 307.292 107.276 308.346 105.379C309.049 104.043 309.119 104.043 309.681 105.871C310.173 107.276 309.822 108.963 308.205 113.25ZM310.946 112.899C310.946 114.164 311.368 118.029 311.93 121.403C312.984 128.361 312.914 128.501 308.627 128.079L306.097 127.869L308.135 123.089C310.806 116.905 309.892 117.467 306.729 123.933C305.464 126.674 303.918 128.923 303.426 128.923C302.161 128.923 302.161 128.853 305.253 122.387C306.8 119.224 308.416 115.288 308.908 113.602C309.892 110.087 310.946 109.736 310.946 112.899ZM58.2147 126.533L55.544 134.124L48.1645 141.433C44.0179 145.439 38.044 151.202 34.7407 154.154L28.7668 159.565L24.1985 158.511C21.6684 157.949 19.4897 157.387 19.2789 157.246C19.1383 157.106 20.0519 156.122 21.3873 155.067C28.556 149.515 41.9094 137.357 50.554 128.571C55.9657 123.089 60.534 118.662 60.6745 118.802C60.8151 118.943 59.6906 122.387 58.2147 126.533ZM147.894 138.2C147.894 138.551 146.98 138.27 145.855 137.638C144.661 136.935 143.958 136.021 144.169 135.459C144.45 134.686 144.942 134.826 146.207 136.021C147.121 136.865 147.894 137.849 147.894 138.2ZM144.59 139.043C147.894 140.379 152.462 145.72 153.727 149.726C155.484 155.208 155.906 160.268 154.711 161.041C154.149 161.323 153.305 162.377 152.813 163.361L151.829 165.118L151.337 163.361C151.056 162.377 150.775 158.933 150.705 155.63C150.564 150.359 150.494 150.007 149.932 152.467C149.58 154.013 149.51 157.738 149.721 160.69C150.072 165.399 150.002 166.242 149.018 166.594C148.386 166.875 147.612 166.875 147.402 166.664C147.191 166.383 146.839 163.29 146.629 159.706L146.347 153.17L143.747 153.381C140.584 153.662 136.789 152.186 132.643 149.094C129.339 146.563 129.129 145.931 130.675 142.909C132.924 138.551 139.319 136.794 144.59 139.043ZM113.667 141.573C117.11 141.925 121.046 142.557 122.382 143.049L124.982 143.893L122.171 145.298C120.414 146.212 117.532 146.845 114.018 147.055L108.606 147.407L106.076 144.877C101.859 140.66 102.422 140.379 113.667 141.573ZM169.892 141.503C172.703 142.628 176.849 146.634 178.185 149.656C179.801 153.17 180.082 164.063 178.607 164.063C177.341 164.063 174.882 166.804 173.968 169.194C173.546 170.248 172.984 173.622 172.773 176.714C172.07 184.937 170.454 183.742 170.384 174.957C170.313 171.373 170.243 170.951 169.54 172.146C169.048 172.919 168.697 175.379 168.627 177.557C168.627 180.298 168.345 181.634 167.783 181.634C166.096 181.634 165.253 178.682 165.675 174.325C166.026 170.178 166.026 170.108 165.113 172.497C164.621 173.833 164.129 176.152 164.129 177.557C164.058 179.666 163.847 180.088 162.934 179.736C161.95 179.385 161.809 178.471 162.09 173.973L162.442 168.632L161.177 171.443C160.474 172.989 159.841 175.027 159.841 175.941C159.841 177.347 159.701 177.417 158.787 176.714C157.522 175.66 157.522 175.027 158.436 170.6C159.49 165.68 160.123 164.907 161.739 166.312C165.323 169.475 169.119 168.632 171.368 164.134C174.249 158.441 174.179 157.246 171.157 161.744C167.713 167.086 165.815 167.507 162.301 163.782C160.052 161.323 159.139 158.16 159.139 152.256V149.726L160.685 151.343C162.723 153.592 167.432 155.559 171.578 155.981L174.952 156.333L171.789 155.419C170.032 154.857 167.643 153.943 166.378 153.31C164.199 152.186 159.841 147.477 159.841 146.282C159.841 145.931 160.896 144.596 162.231 143.26C164.691 140.8 166.729 140.308 169.892 141.503ZM47.6022 153.451C44.0179 161.463 42.542 164.063 41.7689 163.782C41.2066 163.642 39.0279 163.009 36.9195 162.377C34.8813 161.814 32.9837 161.182 32.7729 160.971C32.562 160.76 34.6002 158.582 37.2709 156.192C39.9416 153.802 44.299 149.656 47.04 147.055C49.7107 144.525 52.0299 142.487 52.1002 142.557C52.2408 142.628 50.2026 147.547 47.6022 153.451ZM130.675 154.224C129.761 155.7 128.918 154.786 128.918 152.256L128.988 149.656L130.042 151.624C130.604 152.678 130.886 153.873 130.675 154.224ZM134.892 152.818C136.508 153.662 139.038 154.224 141.006 154.224C144.309 154.224 144.38 154.294 144.38 156.403C144.38 161.112 141.287 162.588 136.578 160.128C134.61 159.144 131.799 154.576 131.729 152.256C131.729 151.202 131.659 151.132 134.892 152.818ZM131.729 156.965C131.729 158.371 130.815 159.425 130.112 158.722C129.62 158.16 130.394 155.63 131.096 155.63C131.448 155.63 131.729 156.262 131.729 156.965ZM159.279 163.782C159.349 164.134 158.928 165.61 158.295 166.945C157.663 168.21 156.89 169.967 156.608 170.74C155.625 173.411 155.414 169.053 156.327 164.485C157.733 157.457 157.944 157.035 158.506 160.198C158.787 161.744 159.139 163.361 159.279 163.782ZM132.502 162.166C131.94 162.728 131.729 162.517 131.729 161.533C131.729 159.636 132.713 158.652 132.994 160.198C133.135 160.831 132.924 161.744 132.502 162.166ZM136.086 163.712C135.805 166.172 135.594 166.453 134.61 165.821C134.189 165.61 133.837 164.415 133.837 163.29C133.837 161.604 134.118 161.182 135.102 161.393C135.946 161.604 136.227 162.236 136.086 163.712ZM145.012 166.664C145.082 167.788 144.661 168.28 143.747 168.28C141.428 168.28 140.655 163.923 142.833 162.728C143.747 162.166 144.098 162.377 144.52 163.572C144.731 164.415 144.942 165.821 145.012 166.664ZM140.444 165.258C139.882 168.421 139.811 168.561 138.827 167.929C138.406 167.718 138.054 166.383 138.054 165.047C138.054 163.08 138.335 162.658 139.46 162.658C140.795 162.658 140.865 162.939 140.444 165.258ZM186.408 167.226C193.084 169.194 196.388 174.325 196.388 182.547C196.388 183.813 196.739 185.218 197.161 185.64C197.723 186.202 197.231 186.905 195.404 188.311C193.998 189.365 192.663 190.138 192.522 189.927C192.311 189.716 191.89 187.678 191.538 185.429C191.046 182.055 190.906 181.704 190.765 183.742C190.625 185.078 190.625 187.256 190.695 188.451C190.835 190.349 190.625 190.77 189.43 190.77C187.181 190.77 186.829 187.889 188.657 184.164C189.43 182.477 190.203 179.666 190.273 178.049L190.414 175.027L186.056 174.254C182.402 173.551 176.709 170.81 176.709 169.686C176.779 168.351 179.801 166.242 181.699 166.172C182.261 166.172 184.37 166.664 186.408 167.226ZM177.623 180.65C177.833 180.931 177.693 181.774 177.271 182.618C176.498 184.023 176.428 184.023 175.866 181.985C175.584 180.79 175.514 177.839 175.795 175.308L176.287 170.74L176.779 175.449C176.99 178.12 177.341 180.439 177.623 180.65ZM185.705 175.871C190.625 176.222 190.695 176.292 187.743 181.985C186.759 183.883 186.337 185.78 186.478 187.748C186.619 190.419 186.478 190.77 185.213 190.77C184.018 190.77 183.737 190.349 183.737 188.381C183.737 187.045 184.159 185.851 184.651 185.64C185.072 185.499 184.51 185.148 183.245 184.867C180.223 184.164 179.52 183.11 179.028 178.401C178.607 174.606 178.677 174.395 179.942 174.957C180.645 175.238 183.245 175.66 185.705 175.871ZM182.402 187.819C181.629 190.56 179.942 190.208 179.45 187.256C179.169 185.921 178.958 185.359 178.888 185.991C178.747 187.889 177.412 187.537 177.412 185.64C177.412 183.18 177.974 183.039 180.574 184.515C182.613 185.71 182.823 186.132 182.402 187.819Z" fill="white"/>
<path d="M215.504 92.0251C214.52 94.2039 214.38 95.7501 215.293 94.7661C215.926 94.1336 216.98 90.2681 216.559 90.2681C216.418 90.2681 215.926 91.0412 215.504 92.0251Z" fill="white"/>
<path d="M220.073 94.6953C219.44 96.5226 219.229 97.9985 219.581 97.9985C220.354 97.9985 221.9 93.36 221.548 92.2355C221.338 91.7435 220.705 92.868 220.073 94.6953Z" fill="white"/>
<path d="M225.976 99.475C224.571 102.146 224.43 104.043 225.836 102.497C226.609 101.654 228.085 97.1557 227.733 96.8043C227.593 96.6637 226.82 97.8585 225.976 99.475Z" fill="white"/>
<path d="M231.247 104.324C230.615 105.518 230.334 106.432 230.685 106.432C231.318 106.432 233.145 102.918 232.723 102.496C232.583 102.356 231.95 103.199 231.247 104.324Z" fill="white"/>
<path d="M241.368 108.331C240.384 108.542 239.329 108.964 238.978 109.315C237.994 110.229 241.93 110.018 245.233 108.893L248.044 107.98H245.585C244.249 108.05 242.352 108.19 241.368 108.331Z" fill="white"/>
<path d="M196.177 111.071C195.896 111.352 195.685 112.055 195.685 112.687C195.685 113.46 195.896 113.531 196.458 112.969C196.88 112.547 197.161 111.844 196.95 111.352C196.809 110.93 196.458 110.79 196.177 111.071Z" fill="white"/>
<path d="M203.486 117.537C202.924 118.802 202.713 119.997 202.924 120.208C203.486 120.84 204.962 117.748 204.681 116.413C204.54 115.569 204.119 115.921 203.486 117.537Z" fill="white"/>
<path d="M165.112 128.009C157.452 138.551 155.695 141.292 155.624 143.119C155.624 145.298 156.608 144.454 159.068 140.308C160.404 138.129 163.988 132.436 167.08 127.657C170.102 122.878 172.492 118.872 172.351 118.731C172.211 118.591 168.908 122.737 165.112 128.009Z" fill="white"/>
<path d="M211.217 124.213C209.601 126.813 209.46 127.516 210.303 127.516C211.006 127.516 213.466 122.596 213.044 122.104C212.834 121.964 212.06 122.878 211.217 124.213Z" fill="white"/>
<path d="M225.906 139.817C228.577 141.785 229.561 142.066 228.998 140.59C228.787 140.028 227.663 139.254 226.468 138.833C223.306 137.708 223.235 137.849 225.906 139.817Z" fill="white"/>
<path d="M233.637 151.834C233.637 152.186 234.129 153.17 234.691 153.943C235.253 154.646 235.745 154.927 235.745 154.505C235.745 154.154 235.253 153.17 234.691 152.397C234.129 151.694 233.637 151.413 233.637 151.834Z" fill="white"/>
<path d="M218.737 170.81C217.261 171.724 216.066 172.637 216.066 172.848C216.066 173.691 217.472 173.059 219.932 171.091C223.095 168.561 222.392 168.35 218.737 170.81Z" fill="white"/>
<path d="M209.249 172.146C209.038 172.778 209.109 173.481 209.319 173.762C209.882 174.325 211.99 173.06 212.412 171.935C212.833 170.67 209.741 170.951 209.249 172.146Z" fill="white"/>
<path d="M277.703 54.9162C277.563 55.2676 278.476 57.6572 279.812 60.3982C281.639 64.1231 282.131 64.7556 281.78 62.858C281.217 60.1873 278.898 54.4242 278.336 54.4242C278.125 54.4242 277.844 54.6351 277.703 54.9162Z" fill="white"/>
<path d="M291.689 70.7297C291.127 71.6433 289.229 74.806 287.543 77.8281C285.715 81.061 284.239 82.9586 284.029 82.3964C283.818 81.9044 283.607 82.6072 283.607 83.9425C283.537 85.2779 283.045 88.3 282.482 90.6193C281.217 95.8904 281.217 96.7337 282.482 94.4847C283.045 93.5008 283.677 91.3221 283.958 89.565C284.169 87.808 286.348 82.5369 288.808 77.7578C292.954 69.6052 293.938 67.2156 291.689 70.7297Z" fill="white"/>
<path d="M335.545 98.2097C335.545 99.6153 335.826 100.81 336.247 100.81C336.599 100.81 336.739 99.8261 336.458 98.4908C335.896 95.3281 335.545 95.1876 335.545 98.2097Z" fill="white"/>
<path d="M328.727 98.2098C329.008 98.9126 329.219 100.107 329.219 100.88C329.219 101.583 329.5 102.216 329.852 102.216C330.555 102.216 329.641 98.1395 328.798 97.3664C328.516 97.1556 328.516 97.507 328.727 98.2098Z" fill="white"/>
<path d="M316.007 101.513C316.007 102.849 316.288 104.887 316.569 106.081C317.061 108.12 317.131 108.049 317.131 105.379C317.131 103.832 316.85 101.794 316.569 100.81C316.077 99.1939 316.007 99.2642 316.007 101.513Z" fill="white"/>
<path d="M322.262 102.567C322.262 104.113 322.543 105.87 322.894 106.432C323.386 107.206 323.527 106.995 323.527 105.378C323.456 104.183 323.175 102.497 322.894 101.513C322.402 99.9666 322.332 100.107 322.262 102.567Z" fill="white"/>
<path d="M338.637 114.515C338.848 117.185 339.27 124.706 339.48 131.171C339.972 141.924 340.113 142.979 341.238 142.979C342.713 142.979 342.713 143.822 340.324 122.949C339.551 115.991 338.707 110.157 338.497 109.946C338.356 109.736 338.356 111.774 338.637 114.515Z" fill="white"/>
<path d="M89.9115 107.276C89.771 107.768 89.1384 109.876 88.5059 111.914C87.3111 115.709 87.4517 117.537 88.7167 115.077C89.4898 113.671 90.9657 106.432 90.4738 106.432C90.3332 106.432 90.1224 106.854 89.9115 107.276Z" fill="white"/>
<path d="M81.6184 111.352C81.0562 113.672 80.8453 115.569 81.1265 115.569C81.759 115.569 83.5863 107.909 83.024 107.417C82.8835 107.206 82.251 108.963 81.6184 111.352Z" fill="white"/>
<path d="M71.6384 108.681C69.1083 115.639 68.6163 117.818 69.8111 116.553C70.5139 115.85 72.7629 107.838 72.271 107.838C72.0601 107.838 71.779 108.26 71.6384 108.681Z" fill="white"/>
<path d="M75.9959 112.336C75.7148 113.039 75.504 114.093 75.5743 114.726C75.5743 115.499 75.8554 115.359 76.2771 114.234C76.6285 113.32 76.8393 112.196 76.6988 111.774C76.5582 111.423 76.2771 111.634 75.9959 112.336Z" fill="white"/>
<path d="M53.3651 46.0614C40.9956 54.6358 11.2666 79.3748 16.1863 76.9852C21.4574 74.4551 59.9013 43.3907 57.9334 43.1799C57.7226 43.1799 55.6844 44.5152 53.3651 46.0614Z" fill="white"/>
<path d="M24.339 52.6671C17.8732 58.0788 15.5539 60.398 18.084 58.9221C21.4575 56.884 29.821 50.6289 31.5077 48.8719C35.7246 44.4442 31.4375 46.7635 24.339 52.6671Z" fill="white"/>
<path d="M58.5661 57.798C56.8091 59.2036 50.1324 64.4044 43.807 69.3241C26.2367 82.8884 10.3531 96.3121 10.9857 97.015C11.5479 97.5069 23.0741 88.7218 35.4436 78.3904C46.4777 69.1836 62.1505 55.6895 62.1505 55.4084C62.1505 54.9165 61.9396 55.057 58.5661 57.798Z" fill="white"/>
<path d="M389.591 129.696C388.045 132.858 386.92 135.529 387.131 135.74C387.483 136.091 390.083 131.242 391.981 126.603C393.878 122.105 392.613 123.722 389.591 129.696Z" fill="white"/>
<path d="M116.97 176.574C116.97 177.909 120.203 184.094 123.787 189.506C129.199 197.658 137.703 204.124 144.379 205.178C146.699 205.53 146.628 205.53 143.888 204.546C136.086 201.945 128.074 194.496 122.241 184.235C117.954 176.714 117.04 175.379 116.97 176.574Z" fill="white"/>
<path d="M139.952 183.039C141.849 186.623 147.261 191.824 151.127 193.792C153.024 194.776 156.819 196.182 159.56 197.025C162.301 197.868 166.167 199.696 168.346 201.172C175.725 206.513 180.856 207.989 188.024 206.935L191.819 206.372L186.408 206.302C179.731 206.232 174.811 204.475 170.103 200.609C165.605 196.884 164.831 196.463 160.052 195.619C152.462 194.214 147.05 190.7 141.006 183.39L138.687 180.579L139.952 183.039Z" fill="white"/>
</svg>
