<svg width="303" height="161" viewBox="0 0 303 161" fill="none" xmlns="http://www.w3.org/2000/svg">
<path d="M181.446 2.84831C178.722 3.34355 169.744 6.37456 168.994 7.06054C167.995 7.86599 170.721 7.24791 175.603 5.55348L180.941 3.6605L187.528 3.79131C193.621 3.87442 194.361 3.96643 197.147 5.02828C200.015 6.09125 201.621 6.11315 200.359 5.03113C198.202 3.19973 186.525 1.85278 181.446 2.84831Z" fill="#0AC2D4"/>
<path d="M180.302 5.24873C177.328 5.86344 172.487 7.55843 168.094 9.62811C163.992 11.497 165.97 11.3602 170.403 9.45483C176.575 6.7951 180.002 6.10467 186.672 6.19565C192.065 6.31017 192.805 6.40217 198.178 7.94982C204.7 9.84075 204.864 9.88395 204.954 9.31182C205.043 8.82159 199.346 6.81904 195.118 5.86037C190.848 4.90115 183.646 4.59813 180.302 5.24873Z" fill="#0AC2D4"/>
<path d="M180.556 7.75057C168.836 9.5565 158.082 16.0853 150.826 25.7744C147.597 30.0305 145.65 33.8946 144.057 38.9511C139.882 52.2042 141.641 65.1288 150.412 86.2578C151.129 88.0286 151.603 89.5504 151.519 89.6721C151.31 89.874 117.589 89.5369 117.592 89.3322C117.593 89.2503 118.181 88.3983 118.895 87.3842C120.491 85.1125 123.778 79.5876 124.795 77.5128C125.26 76.6182 125.928 75.8901 126.507 75.7751C127.581 75.5031 127.796 74.8098 126.849 74.7969C125.902 74.784 126.829 73.2813 127.987 72.9285C128.813 72.6941 128.855 72.6537 128.162 72.1528C127.51 71.6525 127.554 71.4483 128.617 69.0056C131.081 63.4285 132.304 58.3259 132.597 51.9411C132.875 46.6618 132.807 45.596 132.064 42.7191C130.537 36.8828 126.747 31.0156 122.346 27.5974C119.493 25.3879 114.34 22.8194 110.893 21.9124C106.667 20.749 99.9537 20.8622 95.8598 22.1168C90.898 23.6054 86.7451 26.1698 83.1946 29.8482C77.763 35.5896 74.2791 43.4462 73.463 51.9535C73.2231 54.4484 73.1084 56.8222 73.2257 57.2743C73.3431 57.7264 72.9603 58.6222 72.2898 59.4731C71.0746 61.0127 71.2337 61.4244 72.5674 60.255C73.2757 59.6503 73.3168 59.6509 73.3068 60.3879C73.3006 60.8383 73.0018 61.6124 72.6246 62.0987C71.9947 62.9911 72.3191 63.3641 73.1119 62.5968C73.4041 62.3141 73.9654 63.4275 74.8337 66.1833C76.8063 72.5171 80.3756 79.528 86.2633 88.6591C86.9086 89.6508 86.9064 89.8146 86.3712 89.8073C86.0006 89.8022 85.2679 89.1779 84.7427 88.4336C83.7319 87.0683 79.7987 79.561 77.1567 73.9962C76.3156 72.2647 75.4705 70.8198 75.2647 70.8169C75.0177 70.8136 75.0933 71.3061 75.4137 71.9657C75.7347 72.5844 76.8156 74.8516 77.7747 76.9943C79.6545 81.0744 82.0216 85.6526 83.5521 88.1716L84.4378 89.6581L80.3996 89.8487C78.2152 89.9827 74.2611 90.0517 71.6261 90.0157C67.0972 89.9539 66.8096 89.9091 66.6149 89.0873C66.3017 87.8954 65.594 88.4591 64.6163 90.6982C61.7712 97.0073 54.9062 105.186 42.933 116.531C15.6503 142.288 7.96804 150.005 8.73969 150.794C8.98337 151.043 34.5415 152.088 45.6573 152.28C51.4208 152.4 56.2362 152.588 56.3586 152.672C56.4393 152.796 55.9357 153.485 55.2258 154.213C53.6812 155.748 53.5938 156.115 54.6231 156.129C55.0348 156.135 56.1988 155.332 57.2009 154.322C58.6615 152.908 59.3258 152.508 60.3963 152.522C61.1373 152.532 61.7527 152.705 61.7505 152.868C61.7482 153.032 60.9948 153.923 60.0773 154.77C59.0758 155.74 58.5711 156.511 58.7742 156.718C59.2209 157.175 61.0893 156.054 63.3822 153.996L64.8417 152.665L111.78 153.1C149.331 153.449 161.887 153.702 174.562 154.366C183.409 154.815 196.952 155.204 205.228 155.276C228.41 155.387 268.758 155.979 280.901 156.349C291.479 156.698 291.974 156.664 292.56 155.935C292.896 155.489 293.15 155.001 293.152 154.837C293.158 154.346 286.346 146.635 280.784 140.785C278.064 137.922 274.698 134.108 273.241 132.246C266.118 123.139 263.969 120.611 258.079 114.674C250.89 107.409 246.15 101.652 243.416 96.823L241.566 93.5624L242.692 92.5539C243.817 91.5454 243.945 91.2195 243.461 90.4758C242.896 89.649 241.827 89.5525 231.447 89.7385C225.68 89.8646 220.903 89.8814 220.822 89.7984C220.741 89.7154 221.544 88.1701 222.599 86.3006C224.795 82.317 227.902 74.9058 229.455 69.7667C231.091 64.506 231.558 60.4579 231.406 53.4937C231.31 48.455 231.049 46.4856 230.073 42.5817C226.755 29.1854 219.885 19.6313 208.734 12.9266C201.219 8.40102 189.923 6.32209 180.556 7.75057ZM195.657 11.6424C209.534 14.6985 219.784 24.012 224.944 38.2115C228.476 47.9249 228.103 63.1957 224.088 73.748C219.774 85.1153 212.371 96.5224 198.177 113.652C193.488 119.322 187.863 127.19 185.164 131.822C183.646 134.423 182.299 136.534 182.175 136.573C182.011 136.571 181.57 135.705 181.091 134.593C180.652 133.522 177.874 128.897 174.93 124.311C169.405 115.758 168.036 113.487 162.975 104.162C157.713 94.4254 156.994 92.8183 157.741 92.419C159.4 91.4997 160.403 90.4486 159.997 90.0335C159.672 89.7014 159.093 89.8983 158.054 90.5803C157.264 91.102 156.478 91.4189 156.315 91.2938C155.747 90.6717 156.208 90.0637 158.16 88.8208C160.196 87.538 160.783 86.7269 159.713 86.7123C159.383 86.7078 158.306 87.2255 157.308 87.9081C155.106 89.3525 155.228 89.436 152.873 83.957C143.378 61.5485 142.982 45.3253 151.627 30.454C157.066 21.1498 168.203 13.7252 180.217 11.4318C183.974 10.7459 191.961 10.8548 195.657 11.6424ZM111.473 24.6642C118.772 26.9753 124.553 31.8048 127.476 37.9468C129.758 42.7286 130.455 45.9326 130.387 50.8871C130.23 56.4137 128.145 64.3304 124.963 71.1672C123.733 73.8125 123.609 73.8927 121.041 74.9634C118.059 76.1923 117.763 76.8026 120.66 75.7363C123.846 74.5921 123.544 75.6119 120.271 77.0825C118.199 78.0371 117.819 78.6872 119.764 77.9766C120.385 77.7803 121.087 77.5851 121.293 77.5879C121.911 77.5963 120.224 80.4811 116.485 85.9179C114.595 88.636 111.82 92.8165 110.304 95.253C107.779 99.273 101.91 106.851 101.124 107.127C100.586 107.325 96.7819 102.44 94.9322 99.1797C92.3586 94.6396 89.0974 89.1892 86.1939 84.6856C81.9614 77.9933 77.5982 68.8011 76.5475 64.3228L75.653 60.4609L76.9455 59.2908C77.695 58.6868 78.2798 58.0804 78.2815 57.9576C78.2876 57.5072 77.1309 57.7781 76.629 58.3446C76.2523 58.7899 75.963 58.8679 75.6381 58.5358C75.3538 58.2453 75.5658 57.7977 76.4405 57.0724L77.6896 56.0656L76.5746 56.2961C75.4602 56.4857 75.4196 56.4442 75.4397 54.9701C75.5139 49.5242 78.1394 41.2054 81.2959 36.2111C83.7364 32.3948 88.5788 27.5873 91.3557 26.2737C93.5529 25.1979 98.0196 23.7845 99.9591 23.4833C102.517 23.1496 108.644 23.7656 111.473 24.6642ZM241.026 96.9133C244.715 104.212 246.698 106.82 258.424 119.593C266.013 127.806 267.593 129.67 273.223 136.546C274.682 138.326 278.205 142.634 281.041 146.072C283.917 149.551 286.1 152.529 285.975 152.651C285.683 152.974 283.336 152.901 254.483 151.893C242.341 151.482 232.131 151.302 227.516 151.485C218.617 151.814 187.329 151.182 170.498 150.379C158.07 149.759 104.663 149.604 75.172 150.062L68.1701 150.171L69.5444 149.043C70.2532 148.397 70.882 147.587 70.887 147.218C70.9037 145.99 69.3742 146.42 67.0012 148.312C65.2947 149.64 64.3411 150.119 63.353 150.105L61.9948 150.046L63.1616 149.038C64.4942 147.95 64.4281 146.762 63.1055 147.112C62.651 147.229 61.5293 147.951 60.5712 148.757L58.8224 150.166L36.134 150.062L13.4044 149.956L15.2433 147.975C16.2465 146.883 24.5125 138.641 33.6536 129.633C53.4816 110 55.4029 108.019 59.6367 102.548C62.5712 98.7383 65.8597 93.1315 65.8764 91.9031C65.8809 91.5755 67.1989 91.5525 70.2846 91.7584C72.7526 91.9559 77.9369 92.2724 81.8054 92.448L88.9242 92.8318L90.8168 95.9701C91.8638 97.7045 93.1133 99.6873 93.6391 100.391C94.1648 101.094 94.567 101.796 94.5654 101.919C94.5575 102.492 92.5858 102.137 92.3466 101.561C92.069 100.779 91.122 100.766 90.4944 101.494C90.1177 101.94 88.3039 102.079 82.7029 102.125C78.7081 102.153 75.1645 102.309 74.8324 102.509C73.7524 103.191 75.3119 103.581 79.7167 103.682C82.1047 103.714 85.0257 103.918 86.1768 104.057L88.355 104.373L82.5962 109.946L76.878 115.561L69.9634 115.303C66.1767 115.169 63.0877 115.209 63.0861 115.332C63.0721 116.355 64.7551 116.747 70.1058 116.943L75.7852 117.184L71.8937 121.718L68.0027 126.211L59.5186 126.3C51.652 126.397 50.0023 126.579 50.6927 127.285C50.8557 127.41 54.2691 127.743 58.26 128.003C62.2508 128.262 65.5829 128.512 65.6647 128.554C65.7866 128.679 61.3497 133.942 58.8838 136.611L57.1283 138.512L47.9025 138.632C42.8367 138.686 37.6457 138.861 36.4089 138.967L34.1411 139.182L35.7835 139.532C36.687 139.708 41.3361 140.017 46.0686 140.245C50.8423 140.474 54.792 140.733 54.8732 140.816C54.9544 140.899 54.0335 141.992 52.8228 143.204C51.6115 144.457 50.7313 145.592 50.8531 145.717C51.0161 145.842 52.3893 144.796 53.9317 143.424L56.7665 140.883L70.7638 141.156C78.4623 141.302 84.8011 141.511 84.8829 141.553C84.923 141.635 84.5835 142.368 84.1195 143.181C82.9404 145.089 83.2569 146.036 84.4349 144.209C86.2444 141.367 85.007 141.514 104.402 141.573C121.203 141.598 121.984 141.649 121.604 142.34C121.056 143.316 121.053 143.521 121.753 143.53C122.082 143.535 122.706 143.093 123.125 142.525L123.88 141.512L138.829 141.47C155.385 141.368 154.029 141.145 153.744 143.926C153.694 144.539 153.814 144.828 154.186 144.71C154.476 144.591 154.775 143.817 154.869 142.958L155.013 141.404L164.356 141.777C169.5 142.011 176.043 142.346 178.923 142.549C183.737 142.819 184.147 142.948 184.343 143.729L184.578 144.592L185.373 143.661C186.042 142.892 186.579 142.776 189.008 142.809C190.532 142.83 196.095 142.538 201.289 142.158C213.737 141.263 214.19 141.269 214.339 142.418C214.485 143.771 215.722 143.665 215.576 142.312L215.467 141.246L221.728 141.085C225.189 140.969 230.543 140.919 233.631 140.961L239.271 141.038L240.402 142.691C241.492 144.303 242.35 144.766 242.855 143.953C242.982 143.75 242.825 143.134 242.503 142.638C242.139 142.142 241.859 141.565 241.861 141.36C241.864 141.196 247.629 141.152 254.669 141.289C263.109 141.445 267.598 141.383 267.89 141.101C268.975 140.051 267.62 139.786 260.292 139.645C256.175 139.548 249.919 139.34 246.422 139.129L240.084 138.796L238.356 135.701C237.432 134.01 236.67 132.484 236.673 132.279C236.634 132.115 240.712 132.048 245.694 132.116C253.516 132.222 254.794 132.158 255.048 131.629C255.177 131.262 255.141 130.852 255.02 130.686C254.857 130.561 250.494 130.379 245.307 130.267C237.484 130.161 235.757 130.014 235.27 129.516C234.295 128.479 230.087 120.026 230.421 119.703C230.588 119.541 234.501 119.472 239.112 119.535C246.852 119.681 247.511 119.608 247.52 118.953C247.536 117.807 245.892 117.58 236.998 117.499L228.722 117.427L226.874 114.085C224.382 109.546 223.183 106.908 223.517 106.585C223.642 106.423 226.651 106.259 230.193 106.185C234.724 106.124 236.703 105.905 237.038 105.541C238.042 104.367 236.933 104.147 229.44 104.045L221.906 103.942L221.187 102.294C220.787 101.388 220.303 100.644 220.139 100.642C219.974 100.64 220.046 101.378 220.363 102.283L220.917 103.929L216.224 103.865C213.63 103.829 211.49 103.718 211.492 103.595C211.494 103.473 213.006 101.282 214.852 98.7678C216.95 95.8887 218.54 94.0674 219.119 93.9115C219.656 93.796 222.004 93.7051 224.393 93.6968C226.781 93.6884 230.406 93.615 232.426 93.4787C239.763 92.9645 238.821 92.583 241.026 96.9133ZM150.06 93.9524C149.642 94.3972 149.473 94.7635 149.72 94.7668C149.967 94.7702 150.631 94.4107 151.213 93.9681C152.254 93.1632 153.575 92.8946 153.567 93.4678C153.565 93.6316 152.978 94.3608 152.227 95.0877C150.599 96.7446 150.961 97.3229 152.711 95.8724C153.419 95.3087 154.166 94.8275 154.29 94.8292C154.455 94.8314 155.701 97.0599 157.064 99.7815L159.59 104.73L156.338 104.686L153.126 104.642L152.87 102.345C152.58 99.3927 152.02 98.2383 151.187 98.8822C150.895 99.1649 150.681 99.7763 150.798 100.269C150.874 100.721 151.064 101.87 151.176 102.732L151.401 104.332L144.118 103.946C140.085 103.727 136.712 103.476 136.631 103.393C136.549 103.31 136.854 102.127 137.325 100.823C138.181 98.3772 138.029 97.4741 136.794 97.4573C136.341 97.4511 135.281 99.6891 134.293 102.706C133.992 103.644 133.909 103.684 130.619 103.352C128.809 103.205 125.558 103.038 123.458 103.009L119.671 102.957L120.763 101.375C121.814 99.7921 121.826 98.8913 120.797 98.8772C120.509 98.8733 119.59 99.8437 118.709 101.019L117.196 103.21L112.582 103.393C110.068 103.523 107.926 103.575 107.886 103.493C107.804 103.451 108.56 102.396 109.565 101.181C110.57 99.9664 112.125 97.6532 113.052 96.1096L114.697 93.2652L121.863 93.1582C125.817 93.0893 133.972 93.0367 139.942 93.0772C150.813 93.1436 150.813 93.1436 150.06 93.9524ZM217.097 106.293L221.787 106.603L224.348 112.044C226.348 116.371 226.744 117.523 226.248 117.68C225.917 117.799 221.798 117.865 217.146 117.802L208.623 117.685L207.693 113.414L206.763 109.142L208.354 107.239C209.777 105.579 210.067 105.419 211.175 105.68C211.874 105.812 214.546 106.094 217.097 106.293ZM97.8839 106.182C98.8581 107.219 99.8695 108.544 100.15 109.08C100.431 109.616 100.919 110.073 101.207 110.077C101.496 110.081 102.912 108.913 104.332 107.458L106.962 104.832L110.09 104.915C115.689 105.074 115.648 104.991 112.255 109.204C110.622 111.229 108.738 113.456 108.111 114.185L106.94 115.479L93.5604 115.215L80.1813 114.91L85.5667 109.536L90.9928 104.204L93.5866 104.24C96.1392 104.274 96.1798 104.316 97.8839 106.182ZM133.174 106.254C133.418 106.462 132.413 110.708 131.426 113.643L130.526 116.211L124.515 116.088C121.181 116.001 116.448 115.814 114.021 115.617L109.578 115.311L111.377 113.246C112.381 112.113 114.223 109.886 115.48 108.306L117.784 105.389L125.397 105.779C129.595 105.959 133.092 106.171 133.174 106.254ZM151.365 106.994C151.527 107.16 151.746 109.251 151.837 111.628L152.066 115.972L148.275 116.166C143.7 116.431 133.283 116.33 132.999 116.04C132.877 115.915 133.313 114.119 134.001 112.04C134.647 109.96 135.336 107.758 135.468 107.104L135.731 105.92L143.427 106.312C147.665 106.534 151.244 106.828 151.365 106.994ZM162.41 109.356C163.173 110.8 164.379 112.905 165.104 114.102C165.829 115.3 166.432 116.373 166.43 116.496C166.426 116.823 155.187 116.588 154.616 116.212C154.167 115.919 154.016 114.893 153.558 109.235L153.346 106.693L157.216 106.746L161.086 106.799L162.41 109.356ZM205.813 112.405C206.316 114.746 206.691 117.454 206.522 117.739C206.396 117.942 204.83 118.043 202.977 118.018L199.683 117.973L200.857 116.433C202.785 113.961 205.001 111.534 205.29 111.497C205.454 111.499 205.696 111.912 205.813 112.405ZM105.056 117.747C105.054 117.87 104.384 118.721 103.589 119.652C102.794 120.583 101.035 122.73 99.6528 124.431L97.1406 127.468L91.0494 127.221C87.7156 127.094 81.625 126.806 77.5507 126.628L70.1437 126.24L72.4422 123.773C73.6963 122.398 75.5358 120.375 76.5401 119.201L78.339 117.137L91.7198 117.319C99.0484 117.419 105.058 117.624 105.056 117.747ZM129.631 118.41C129.672 118.451 128.982 120.695 128.04 123.344L126.367 128.235L121.713 128.295C115.865 128.379 99.5675 127.665 99.5725 127.297C99.5742 127.174 101.333 125.027 103.425 122.598C105.978 119.603 107.564 118.068 108.265 117.955C109.215 117.763 129.428 118.202 129.631 118.41ZM167.096 119.003C168.042 119.139 168.652 119.638 169.337 120.754C169.82 121.579 171.072 123.398 172.124 124.764C173.135 126.129 174.266 127.701 174.629 128.279L175.274 129.312L165.023 129.131C159.341 129.054 154.69 128.908 154.568 128.784C154.487 128.701 154.354 126.365 154.268 123.62L154.089 118.621L156.438 118.489C159.033 118.401 165.042 118.647 167.096 119.003ZM152.189 119.045C152.267 119.333 152.399 121.751 152.527 124.415L152.708 129.291L140.649 128.799C134.022 128.586 128.549 128.306 128.467 128.264C128.427 128.223 129.199 125.94 130.183 123.25L131.98 118.278L141.985 118.415C149.643 118.519 152.07 118.675 152.189 119.045ZM230.804 124.827C232.166 127.59 233.205 129.938 233.038 130.059C232.913 130.18 228.259 130.24 222.66 130.163L212.532 130.025L211.11 125.583C210.319 123.156 209.527 120.851 209.409 120.481C209.17 119.864 209.542 119.746 212.796 119.667C214.774 119.612 219.097 119.63 222.35 119.675L228.278 119.797L230.804 124.827ZM199.738 119.981C199.735 120.185 198.727 121.687 197.51 123.308C196.293 124.971 194.74 127.161 194.067 128.217C193.141 129.638 192.558 130.162 191.858 130.153L190.87 130.139L191.838 128.596C194.49 124.373 198.343 119.593 199.167 119.604C199.496 119.609 199.741 119.776 199.738 119.981ZM208.656 124.361C209.567 126.954 210.318 129.258 210.315 129.503C210.31 129.872 208.373 129.968 203.433 129.901C199.604 129.849 196.102 129.924 195.607 130.04C194.243 130.39 194.418 129.614 196.266 126.977C197.148 125.72 198.577 123.569 199.462 122.147L201.02 119.629L203.984 119.67L206.948 119.71L208.656 124.361ZM85.6669 129.359C90.8117 129.552 95.0084 129.814 95.0068 129.937C95.0051 130.06 93.1222 132.246 90.7808 134.835L86.5989 139.529L74.5778 139.283C67.9503 139.11 61.7762 138.903 60.7903 138.726L59.0227 138.497L61.0286 136.354C62.1147 135.222 64.2463 132.917 65.7091 131.34L68.3848 128.386L72.334 128.686C74.5144 128.839 80.4815 129.125 85.6669 129.359ZM121.808 130.426L125.76 130.48L124.421 135.048L123.041 139.657L116.285 139.811C104.134 140.095 88.6947 139.844 88.7014 139.353C88.7048 139.107 90.7123 136.841 93.2183 134.254L97.688 129.605L107.772 129.988C113.328 130.187 119.626 130.396 121.808 130.426ZM175.041 131.316C176.891 131.505 177.661 132.416 180.35 137.572C181.673 140.17 181.752 140.458 181.05 140.612C180.389 140.726 155.328 139.483 155.124 139.317C155.084 139.275 154.945 137.389 154.811 135.094L154.58 130.914L156.806 130.78C158.866 130.644 171.38 131.02 175.041 131.316ZM153.062 133.514C153.167 134.867 153.389 136.754 153.54 137.698L153.846 139.463L150.387 139.457C148.534 139.432 141.985 139.506 135.849 139.586C129.753 139.667 124.688 139.68 124.606 139.638C124.484 139.554 126.377 133.56 127.318 130.992C127.488 130.585 130.248 130.541 140.169 130.758L152.849 131.054L153.062 133.514ZM191.756 131.544C191.755 131.626 190.452 133.574 188.815 135.845C187.219 138.157 185.832 140.227 185.746 140.472C185.66 140.716 185.453 140.836 185.331 140.712C185.209 140.587 186.144 138.429 187.414 135.907C189.404 131.921 189.824 131.353 190.729 131.366C191.306 131.374 191.758 131.462 191.756 131.544ZM206.863 131.995L211.063 132.053L212.085 135.589C212.635 137.521 213.065 139.206 212.982 139.246C212.773 139.489 198.388 140.48 192.496 140.686C187.8 140.827 187.018 140.776 187.313 140.288C187.524 139.963 188.994 137.813 190.632 135.501L193.612 131.323L198.138 131.631C200.648 131.788 204.557 131.964 206.863 131.995ZM236.262 135.263C237.062 136.953 237.783 138.478 237.781 138.601C237.777 138.888 229.578 139.186 220.724 139.229L215 139.273L213.894 135.818C213.261 133.926 212.872 132.2 212.999 131.997C213.125 131.835 218.067 131.78 223.995 131.901L234.739 132.171L236.262 135.263Z" fill="#0AC2D4"/>
<path d="M179.007 21.6949C170.79 23.3029 161.399 29.5226 158.312 35.4598C157.002 37.8992 157.074 38.6783 158.42 36.608C158.883 35.8362 160.93 33.6935 162.932 31.837C167.27 27.8007 171.088 25.6413 177.498 23.6401C182.378 22.0685 182.461 22.0287 181.892 21.5294C181.688 21.3629 180.369 21.4268 179.007 21.6949Z" fill="#0AC2D4"/>
<path d="M184.594 22.6312C181.417 23.1203 175.585 25.0065 171.814 26.7161C168.208 28.4279 167.003 29.2306 164.083 32.0166C161.454 34.5608 160.322 36.0197 159.137 38.3789C157.57 41.511 156.66 44.8158 157.491 44.2948C157.74 44.1753 157.952 43.7277 157.958 43.2773C157.973 42.1717 160.209 38.2706 162.428 35.557C164.606 32.8837 169.27 29.0977 172.13 27.7442C174.783 26.4699 179.001 25.176 183.252 24.4149C185.688 23.9567 186.847 23.522 186.852 23.1535C186.861 22.5393 186.163 22.3659 184.594 22.6312Z" fill="#0AC2D4"/>
<path d="M181.672 25.5809C169.648 28.5703 159.833 38.634 157.867 49.9515C157.11 54.1184 157.397 60.2655 158.501 63.8435C159.368 66.7221 163.112 72.9573 165.226 74.9928C167.461 77.1939 173.959 80.8046 177.118 81.6668C181.262 82.7881 187.15 82.8274 191.364 81.8201C206.939 78.101 218.626 60.5683 215.873 45.0501C214.307 36.1007 208.588 29.7158 199.285 26.4354C196.334 25.4123 195.143 25.1913 190.327 25.0027C185.799 24.8591 184.192 24.96 181.672 25.5809ZM196.237 29.4654C199.355 30.327 200.337 30.7909 204.54 33.5922C207.356 35.4735 210.466 39.9799 211.568 43.7218C212.236 46.0653 212.342 47.2953 212.131 50.6917C211.391 62.6811 203.164 74.1589 193.198 77.1764C186.5 79.1737 178.889 78.6194 172.876 75.6706C168.377 73.4386 164.398 69.2889 162.605 64.8414C161.369 61.8759 161.256 61.0962 161.151 56.7537C161.044 52.493 161.181 51.512 162.173 48.2492C163.811 42.8656 165.414 40.0616 168.878 36.7097C176.014 29.7629 186.76 26.9199 196.237 29.4654Z" fill="#0AC2D4"/>
<path d="M168.037 71.1815C170.351 73.6294 174.113 75.5646 178.587 76.6085C182.117 77.4348 191.378 77.7659 192.088 77.0793C192.421 76.7562 191.352 76.6598 188.303 76.782C180.311 77.0006 174.16 75.1557 168.29 70.7754L166.048 69.0657L168.037 71.1815Z" fill="#0AC2D4"/>
<path d="M171.57 71.803C171.561 72.4581 176.597 74.5745 179.841 75.274C182.961 75.9719 188.763 76.2967 188.275 75.7986C188.154 75.6332 186.756 75.4503 185.152 75.3465C181.696 75.1355 176.155 73.7494 173.538 72.4032C172.433 71.8967 171.572 71.5983 171.57 71.803Z" fill="#0AC2D4"/>
<path d="M215.582 60.3218C210.594 72.7857 202.203 81.1487 192.288 83.5117C190.429 83.9368 189.929 84.3805 190.705 84.8825C190.909 85.0082 192.892 84.5028 195.044 83.754C198.808 82.4949 202.709 80.2956 205.459 77.9578C206.542 77.0306 206.583 77.0312 205.872 77.8815C205.119 78.7313 199.752 82.7534 197.925 83.8343C197.22 84.2342 197.219 84.3161 197.833 84.5702C198.775 84.9516 204.218 81.381 208.097 77.789C211.433 74.681 214.287 70.7884 215.691 67.4493C216.671 65.0464 216.672 64.9645 216.219 64.9583C216.013 64.9555 215.172 66.2955 214.284 67.9625C212.678 70.9712 208.446 76.3194 207.664 76.3087C207.417 76.3054 207.921 75.5751 208.798 74.6451C212.225 70.965 215.692 64.3777 216.45 60.0879C216.851 57.8819 216.521 57.9593 215.582 60.3218Z" fill="#0AC2D4"/>
<path d="M167.474 100.374C165.613 103.994 165.613 103.994 166.107 104C166.477 104.005 168.298 100.345 168.942 98.3877C169.417 96.797 168.997 97.4056 167.474 100.374Z" fill="#0AC2D4"/>
<path d="M168.891 102.114C167.451 105.083 166.977 106.633 167.77 105.825C168.313 105.259 170.781 99.4366 170.578 99.2291C170.456 99.1046 169.697 100.405 168.891 102.114Z" fill="#0AC2D4"/>
<path d="M169.466 105.275C168.744 106.862 168.19 108.288 168.312 108.412C168.596 108.662 169.695 106.629 170.549 104.348C171.533 101.699 170.991 102.183 169.466 105.275Z" fill="#0AC2D4"/>
<path d="M172.411 103.677C172.407 104.005 171.769 105.47 171.091 106.894C170.372 108.318 169.859 109.662 169.938 109.909C170.134 110.608 172.852 104.543 172.657 103.803C172.54 103.269 172.459 103.227 172.411 103.677Z" fill="#0AC2D4"/>
<path d="M173.189 107.046C172.976 107.575 172.422 108.96 171.912 110.1C171.443 111.281 171.183 112.26 171.389 112.263C171.8 112.269 172.777 110.112 173.469 107.664C173.945 105.991 173.785 105.621 173.189 107.046Z" fill="#0AC2D4"/>
<path d="M173.745 111.558C173.147 113.147 172.716 114.574 172.838 114.658C173.122 114.989 173.206 114.868 174.445 111.568C175.043 109.979 175.391 108.632 175.226 108.63C175.021 108.627 174.385 109.929 173.745 111.558Z" fill="#0AC2D4"/>
<path d="M174.531 114.354C173.807 116.105 173.58 117.617 174.166 116.97C174.625 116.485 175.66 113.1 175.415 112.892C175.335 112.768 174.914 113.417 174.531 114.354Z" fill="#0AC2D4"/>
<path d="M176.545 114.627C176.371 115.28 176.067 116.463 175.851 117.239C175.634 118.014 175.457 118.953 175.452 119.281C175.477 120.469 176.159 118.799 176.728 116.309C177.254 113.941 177.069 112.423 176.545 114.627Z" fill="#0AC2D4"/>
<path d="M177.351 118.938C176.576 121.385 176.483 122.162 177.018 122.169C177.43 122.175 178.566 117.358 178.242 117.026C178.12 116.901 177.696 117.755 177.351 118.938Z" fill="#0AC2D4"/>
<path d="M178.768 120.678C178.086 122.429 177.726 124.636 178.179 124.642C178.385 124.645 178.77 123.585 179.075 122.32C179.603 119.87 179.451 118.967 178.768 120.678Z" fill="#0AC2D4"/>
<path d="M180.26 122.992C180.045 123.726 179.906 124.829 179.898 125.444C179.926 126.386 179.967 126.427 180.346 125.777C180.598 125.412 180.737 124.308 180.668 123.325L180.568 121.603L180.26 122.992Z" fill="#0AC2D4"/>
<path d="M181.118 126.525C181.11 127.098 181.31 127.551 181.516 127.554C181.763 127.558 181.934 127.109 181.942 126.536C181.949 125.963 181.791 125.51 181.544 125.507C181.338 125.504 181.126 125.952 181.118 126.525Z" fill="#0AC2D4"/>
<path d="M97.6086 29.7178C92.7294 31.2074 87.7032 34.415 85.4788 37.497C84.8913 38.308 85.639 37.8268 87.5151 36.1324C90.7259 33.1867 94.4168 31.2714 98.7123 30.3062C100.158 29.9574 101.317 29.5227 101.319 29.3589C101.327 28.8267 100.131 28.9332 97.6086 29.7178Z" fill="#0AC2D4"/>
<path d="M98.5361 31.2042C93.2054 32.5649 86.3456 37.3449 85.1898 40.5645C84.9327 41.2981 84.8849 41.7889 85.0924 41.6689C85.3417 41.5085 85.5108 41.1832 85.5153 40.8556C85.5264 40.0367 89.364 36.4441 91.9812 34.7597C94.9312 32.8342 98.0748 31.8122 101.372 31.5705C102.939 31.4691 104.301 31.201 104.427 31.0389C104.764 30.4701 100.932 30.6226 98.5361 31.2042Z" fill="#0AC2D4"/>
<path d="M99.3784 32.8537C93.6799 34.0046 88.1482 38.0246 85.7356 42.8243C82.3508 49.4536 83.5532 57.9065 88.701 63.9151C93.8895 69.9651 103.756 71.2055 113.942 67.0852C119.78 64.7486 121.327 63.0086 123.391 56.648C125.066 51.5516 124.91 47.9045 122.87 43.4946C118.949 35.0865 109.496 30.7802 99.3784 32.8537ZM110.988 36.0837C116.315 37.9993 119.89 41.611 121.305 46.5448C122.8 51.6845 121.529 57.2778 117.935 61.1194C114.55 64.7591 107.726 66.9595 101.06 66.5819C97.6858 66.372 97.0293 66.1992 94.3309 64.77C91.0201 62.9638 89.8834 61.7606 88.0387 58.1315C86.7948 55.7392 86.7581 55.4111 86.8195 50.907C86.8837 46.1981 86.8837 46.1981 88.5308 43.19C90.3458 39.9384 91.9711 38.5272 95.8658 36.7784C100.838 34.5528 106.03 34.296 110.988 36.0837Z" fill="#0AC2D4"/>
<path d="M120.705 63.2873C117.739 66.4001 114.335 68.4422 110.367 69.4938C108.921 69.8836 107.762 70.3182 107.759 70.523C107.753 71.0143 108.371 70.9408 110.975 70.2392C114.322 69.343 117.06 67.9061 119.227 65.97C121.02 64.3564 123.785 60.9132 123.459 60.6221C123.419 60.5806 122.167 61.7511 120.705 63.2873Z" fill="#0AC2D4"/>
<path d="M121.048 65.3807C120.003 66.5131 117.798 68.1621 115.972 69.2019C113.192 70.7611 112.026 71.728 112.89 71.7398C113.466 71.7477 119.236 68.3455 120.279 67.4178C121.488 66.2877 123.294 63.7324 123.049 63.5243C122.968 63.4413 122.051 64.2887 121.048 65.3807Z" fill="#0AC2D4"/>
<path d="M65.3667 99.0633C61.3539 106.462 61.1425 106.868 62.356 105.452C63.2339 104.481 69.564 93.2235 69.5713 92.6913C69.5852 91.6677 68.4919 93.3318 65.3667 99.0633Z" fill="#0AC2D4"/>
<path d="M230.962 95.0559L227.46 95.2538L232.399 95.3622C235.116 95.4402 237.711 95.3527 238.167 95.1542C239.119 94.7576 236.526 94.7223 230.962 95.0559Z" fill="#0AC2D4"/>
<path d="M66.2692 93.2607C66.253 94.4481 62.9619 100.259 60.3186 103.868C58.6828 106.057 57.4215 107.965 57.5433 108.089C57.624 108.213 58.1253 107.687 58.6293 106.957C59.0923 106.226 60.3497 104.605 61.4368 103.392C63.2361 101.287 67.0758 94.5003 67.0914 93.3539C67.0954 93.0673 66.934 92.8193 66.687 92.816C66.4812 92.8132 66.2725 93.0151 66.2692 93.2607Z" fill="#0AC2D4"/>
<path d="M32.6141 133.386C32.2363 133.914 29.8588 136.134 27.3166 138.351C20.1913 144.479 15.2632 149.531 16.8767 148.98C17.4971 148.784 32.7693 134.085 33.2333 133.272C33.8248 132.174 33.3291 132.29 32.6141 133.386Z" fill="#0AC2D4"/>
<path d="M269.572 147.594L262.159 147.698L266.642 148.046C271.496 148.481 279.241 148.218 279.249 147.644C279.251 147.481 278.759 147.351 278.141 147.384C277.481 147.415 273.65 147.527 269.572 147.594Z" fill="#0AC2D4"/>
<path d="M271.82 148.895C268.318 149.011 263.621 149.151 261.438 149.203C259.214 149.255 257.729 149.399 258.139 149.568C258.876 149.865 274.978 149.839 278.729 149.521C280.873 149.346 281.419 148.534 279.318 148.628C278.7 148.62 275.321 148.779 271.82 148.895Z" fill="#0AC2D4"/>
<path d="M252.027 150.877C252.355 150.922 259.682 151.145 268.286 151.344C276.89 151.544 283.107 151.588 282.08 151.41C280.355 151.1 250.713 150.572 252.027 150.877Z" fill="#0AC2D4"/>
<path d="M95.347 105.001C95.3348 105.902 100.932 112.121 101.797 112.133C102.291 112.14 107.809 106.072 107.566 105.782C107.444 105.658 106.028 106.867 104.441 108.442L101.562 111.27L98.4351 108.033C96.73 106.249 95.3487 104.879 95.347 105.001Z" fill="#0AC2D4"/>
<path d="M98.756 111.682C100.096 113.052 101.357 114.175 101.604 114.178C102.181 114.186 106.935 109.746 106.651 109.456C106.529 109.331 105.449 110.053 104.24 111.102C103.033 112.109 101.868 112.953 101.703 112.951C101.498 112.948 100.356 112.113 99.2172 111.074C96.1653 108.412 95.9138 108.736 98.756 111.682Z" fill="#0AC2D4"/>
<path d="M117.464 23.1896C117.463 23.3125 118.321 23.8156 119.343 24.321C122.983 26.1317 130.286 34.1764 131.271 37.4661C131.547 38.3299 131.906 39.1949 132.109 39.4024C132.798 40.1899 132.892 39.3721 132.338 37.6855C131.981 36.7387 131.909 35.9595 132.115 35.9624C132.897 35.973 132.547 34.4939 131.378 32.635C129.926 30.3628 126.513 26.9989 123.657 25.0761C121.209 23.4045 120.469 23.3125 122.054 24.8494C122.582 25.389 122.744 25.596 122.376 25.3453C120.991 24.2616 117.47 22.7802 117.464 23.1896ZM126.9 28.8062C129.741 31.8755 131.319 33.9038 131.313 34.3952C131.309 34.6408 130.617 34.058 129.808 33.0231C128.956 32.0286 127.172 29.9976 125.833 28.5459C124.494 27.0942 123.766 26.1014 124.216 26.3533C124.665 26.6051 125.886 27.6866 126.9 28.8062Z" fill="#0AC2D4"/>
<path d="M230.473 70.5996C230.455 71.9099 226.95 81.3225 225.3 84.4944C224.159 86.6903 223.268 88.5621 223.39 88.6866C223.715 89.0187 227.603 81.7 228.631 78.8472C229.916 75.1789 231.005 70.8526 230.679 70.5615C230.557 70.437 230.475 70.4358 230.473 70.5996Z" fill="#0AC2D4"/>
<path d="M229.947 78.9478C229.391 80.4554 228.244 83.0606 227.356 84.7275C225.625 87.8981 225.324 88.8359 226.24 88.0703C227.572 87.0238 231.662 76.9645 231.053 76.3419C230.972 76.218 230.462 77.3986 229.947 78.9478Z" fill="#0AC2D4"/>
<path d="M146.159 81.0812C146.715 82.604 147.508 84.8262 147.945 86.0197C148.66 87.9542 149.711 89.4018 150.128 88.998C150.212 88.8763 149.294 86.7343 148.094 84.1789C146.894 81.5826 145.936 79.3582 145.939 79.1535C145.941 78.9487 145.739 78.6593 145.535 78.5337C145.29 78.3665 145.563 79.5169 146.159 81.0812Z" fill="#0AC2D4"/>
<path d="M231.154 81.0119C231.149 81.4213 230.507 83.1735 229.701 84.9234C228.895 86.6324 228.422 88.1411 228.585 88.2662C228.748 88.3913 229.38 87.3352 229.976 85.91C231.083 83.2223 231.864 80.3254 231.411 80.3192C231.287 80.3175 231.159 80.6434 231.154 81.0119Z" fill="#0AC2D4"/>
<path d="M231.974 84.299C231.418 85.8476 230.862 87.3552 230.734 87.6811C230.521 88.1696 230.603 88.2117 231.144 87.8095C231.81 87.2453 233.395 82.7623 233.158 82.0219C233.079 81.7751 232.53 82.7914 231.974 84.299Z" fill="#0AC2D4"/>
<path d="M145.109 82.6229C145.047 84.0963 147.284 89.1639 147.824 88.8436C148.032 88.6826 147.757 87.737 147.194 86.7055C146.632 85.6741 145.954 84.0677 145.637 83.1215C145.165 81.518 145.124 81.4765 145.109 82.6229Z" fill="#0AC2D4"/>
<path d="M123.01 84.5734C122.842 84.8169 123.992 84.9964 125.927 85.0228C127.698 85.0469 129.016 84.983 128.935 84.9C128.487 84.5253 123.22 84.2487 123.01 84.5734Z" fill="#0AC2D4"/>
<path d="M122.159 86.6097C121.332 86.8031 122.195 86.9378 124.953 87.0163C127.546 87.0927 128.907 86.9474 128.746 86.6995C128.464 86.2452 124.017 86.1845 122.159 86.6097Z" fill="#0AC2D4"/>
<path d="M63.1081 89.5315C62.1355 91.402 60.2833 94.3662 59.0236 96.1509C57.7234 97.8941 56.7147 99.3955 56.7964 99.4376C57.1213 99.7696 62.7858 92.0252 63.8881 89.706C65.836 85.7602 65.1384 85.5869 63.1081 89.5315Z" fill="#0AC2D4"/>
<path d="M120.283 88.2221C120.277 88.6725 123.488 88.7163 127.9 88.326C130.497 88.1158 130.291 88.072 125.557 87.9665C122.264 87.8806 120.287 87.9765 120.283 88.2221Z" fill="#0AC2D4"/>
<path d="M21.4286 135.281C11.5497 144.034 4.95912 150.21 4.9513 150.783C4.94683 151.111 4.98465 151.357 5.067 151.358C5.14934 151.359 7.52685 149.139 10.4057 146.393C13.2428 143.688 17.6211 139.694 20.0392 137.515C23.707 134.289 26.7567 131.095 26.138 131.168C26.0551 131.208 23.9714 133.023 21.4286 135.281Z" fill="#0AC2D4"/>
<path d="M20.8318 133.758C17.9123 136.462 11.2439 142.31 7.32737 145.655C3.28623 149.081 1.78115 150.74 2.26851 151.238C2.43096 151.404 2.68023 151.244 2.89111 150.878C3.102 150.512 5.56241 148.252 8.35442 145.833C14.7297 140.35 22.6973 132.842 22.4537 132.593C22.3724 132.509 21.6241 133.032 20.8318 133.758Z" fill="#0AC2D4"/>
<path d="M16.2321 135.866C16.1475 136.029 13.8145 138.004 11.0659 140.259C4.40415 145.615 -0.266283 149.893 0.0986768 150.307C0.26113 150.473 0.842002 150.154 1.3845 149.629C1.92699 149.104 4.76185 146.562 7.72023 144.023C16.1792 136.725 16.8886 136.039 16.6043 135.748C16.4825 135.624 16.2761 135.662 16.2321 135.866Z" fill="#0AC2D4"/>
<path d="M288.727 147.159C288.724 147.364 289.532 148.481 290.505 149.641C291.436 150.841 292.769 152.702 293.371 153.857C294.015 154.972 294.78 156.252 295.104 156.625C295.671 157.329 295.176 157.363 285.459 157.312L275.206 157.213L285.37 157.762C290.967 158.043 295.824 158.191 296.197 158.032C296.735 157.835 296.415 157.134 294.478 154.2C292.098 150.563 288.776 146.546 288.727 147.159Z" fill="#0AC2D4"/>
<path d="M294.43 151.66C294.428 151.824 295.277 153.023 296.288 154.348C297.299 155.713 298.389 157.284 298.67 157.861L299.232 158.934L296.469 159.183C294.944 159.285 291.566 159.361 288.972 159.367C286.378 159.332 283.494 159.456 282.585 159.649C281.594 159.84 284.558 159.921 290.2 159.875C295.307 159.863 299.714 159.759 299.963 159.681C300.335 159.563 300.097 158.864 299.251 157.501C298.043 155.518 294.478 151.169 294.43 151.66Z" fill="#0AC2D4"/>
<path d="M93.3598 154.078C93.8527 154.166 94.5938 154.176 95.0066 154.1C95.3788 153.982 94.9682 153.895 94.0619 153.923C93.1562 153.911 92.8257 153.988 93.3598 154.078Z" fill="#0AC2D4"/>
<path d="M96.3615 154.405C96.727 154.779 172.48 156.017 172.238 155.645C172.117 155.439 156.598 155.063 134.118 154.757C113.244 154.472 96.2802 154.322 96.3615 154.405Z" fill="#0AC2D4"/>
<path d="M110.71 156.116C109.926 156.229 121 156.461 135.286 156.656C149.615 156.811 161.351 156.807 161.353 156.643C161.359 156.234 113.021 155.738 110.71 156.116Z" fill="#0AC2D4"/>
</svg>
