<svg width="250" height="58" viewBox="0 0 250 58" fill="none" xmlns="http://www.w3.org/2000/svg">
<path d="M0 43.7734C0 45.819 1.67671 47.4832 3.7377 47.4832H21.739V55.6886H20.6213C19.9809 55.6886 19.4569 56.2087 19.4569 56.8443C19.4569 57.4915 19.9809 58 20.6213 58H37.598C38.2384 58 38.7624 57.4915 38.7624 56.8443C38.7624 56.2087 38.2384 55.6886 37.598 55.6886H36.4685V47.4832H54.4816C56.5425 47.4832 58.2192 45.819 58.2192 43.7734V40.6646H0V43.7734Z" fill="white"/>
<path d="M54.4816 4.04037H3.7377C1.67671 4.04037 0 5.70458 0 7.75019V38.3531H58.2192V7.75019C58.2192 5.70458 56.5425 4.04037 54.4816 4.04037ZM21.5644 17.9319L9.16369 24.1034V24.1727L21.5644 30.3325V32.5053L6.85824 24.9816V23.2828L21.5644 15.7592V17.9319ZM25.7678 33.765H23.637L32.4863 10.9399H34.6521L25.7678 33.765ZM51.3609 25.0163L36.6548 32.5053V30.3325L49.1487 24.1727V24.1034L36.6548 17.9319V15.7592L51.3609 23.2597V25.0163Z" fill="white"/>
<path d="M95.5896 0.000781223H100.498V2.4367L95.5078 20.3H90.5994L87.9407 10.7186L85.282 20.3H80.3736L75.3425 2.4367V0.000781223H80.2508L83.2368 12.0177L86.1818 0.000781223H89.6586L92.6445 12.0177L95.5896 0.000781223ZM120.95 4.46608H108.884V7.9169H119.314V12.3827H108.884V15.8335H120.95V20.2993H106.634L103.566 17.2545V0H120.95L120.95 4.46608ZM143.446 3.04514V7.99811L141.278 10.1498L143.446 12.3016V17.2545L140.379 20.2994H125.04V0.00056847H140.379L143.446 3.04514ZM138.129 7.91683V4.46601H130.358V7.91683H138.129ZM138.129 15.8338V12.383H130.358V15.8338H138.129ZM159.399 4.46608H152.855V15.8336H159.399L161.035 14.2097H164.921V17.2545L161.854 20.2994H150.605L147.538 17.2545V3.04514L150.605 0.000283896H161.854L164.921 3.04514V6.09H161.035L159.399 4.46608ZM187.417 3.04514V10.1498L184.35 13.1947L187.417 17.8635V20.2994H182.509L178.255 13.3977H174.328V20.2994H169.011V0.00056847H184.35L187.417 3.04514ZM182.1 8.93209V4.4663H174.329V8.93209H182.1ZM191.508 20.2996V3.04514L194.576 0.000283896H206.437L209.505 3.04514V20.2996H204.188V14.6159H196.825V20.2996H191.508ZM196.826 10.1498H204.189V4.46608H196.826V10.1498ZM230.98 4.46608H218.914V7.9169H229.344V12.3827H218.914V20.2995H213.596V3.045L216.664 0.000141609H230.98L230.98 4.46608ZM232.616 4.46608V0.000283896H250V4.46608H243.946V20.2996H238.629V4.46608H232.616Z" fill="#0AC2D4"/>
<path d="M94.9565 33.8964H83.4377V39.1496H98.693L103.363 43.7847V53.364L98.693 57.9991H80.0129L75.3429 53.364V48.7288H81.2583L83.7489 51.2009H95.2677V45.9478H80.0124L75.3425 41.3126V31.7333L80.0124 27.0982H98.6926L103.363 31.7333V36.3685H97.4472L94.9565 33.8964ZM107.41 33.8964V27.0982H133.874V33.8964H124.658V57.9996H116.563V33.8964H107.41ZM137.921 53.3644V27.0982H146.015V51.2013H157.224V27.0982H165.318V53.3644L160.648 57.9996H142.591L137.921 53.3644ZM194.271 27.099L198.941 31.7341V53.3648L194.271 58H171.544V27.0994L194.271 27.099ZM190.847 51.2013V33.8967H179.638V51.2013H190.847ZM204.234 57.9996V51.8193H206.725V33.2785H204.234V27.0983H217.31V33.2785H214.82V51.8193H217.31V57.9996H204.234ZM245.33 27.099L250 31.7341V53.3648L245.33 58H227.273L222.603 53.3648V31.7341L227.273 27.099H245.33ZM241.905 51.2013V33.8967H230.697V51.2013H241.905Z" fill="white"/>
</svg>
