<svg width="348" height="378" viewBox="0 0 348 378" fill="none" xmlns="http://www.w3.org/2000/svg">
<path d="M82.9749 30.5157C63.2588 35.583 43.6487 49.1482 33.2292 65.0011C20.5563 84.1742 17.4134 105.272 23.6731 128.47C27.6527 143.219 33.2355 153.858 43.2654 165.74C62.2124 188.299 93.6055 203.487 124.411 205.151C132.387 205.53 146.682 204.042 157.267 201.77L164.346 200.12L166.735 203.465C168.098 205.273 170.22 207.3 171.525 207.924C173.146 208.744 173.776 209.456 173.392 210.303C172.622 212.313 173.729 214.793 176.877 218.355C178.514 220.207 183.798 227.147 188.536 233.681C193.379 240.281 201.558 250.816 206.845 257.119C212.133 263.422 219.203 272.115 222.453 276.38C229.625 285.775 230.737 286.98 256.851 315.673C270.391 330.513 279.085 339.389 281.988 341.393C286.384 344.393 286.574 344.447 291.368 343.735C294.135 343.29 299.144 341.754 302.613 340.342C323.549 331.693 336.05 317.395 336.699 301.32C336.909 297.235 336.662 295.995 334.759 292.507C332.438 288.12 320.307 274.288 302.774 255.998C293.535 246.398 275.245 231.787 248.997 213.294C229.647 199.619 221.3 193.322 217.31 189.235C215.609 187.47 212.308 184.962 210.035 183.671C207.782 182.457 205.744 180.737 205.536 179.969C205.245 179.212 204.344 177.819 203.378 176.833C201.782 175.135 201.868 174.805 206.289 168.494C216.938 153.168 221.561 135.932 220.072 116.798C219.813 113.57 218.346 107.161 215.977 99.6777C213.028 90.0435 211.526 86.4232 208.156 80.7425C188.311 47.7222 150.023 26.7608 109.564 26.9281C102.409 26.997 90.4979 28.5685 82.9749 30.5157ZM116.619 30.0544C163.057 32.9166 202.923 63.2954 213.992 104.315C223.34 138.959 208.716 172.947 176.865 190.752C165.161 197.308 160.131 198.767 142.581 201.162C128.305 203.046 125.708 203.15 119.296 202.405C81.0132 197.671 51.5357 179.207 33.3259 148.357C30.0181 142.907 29.1444 140.317 25.9938 128.641C22.7603 116.658 22.4126 114.397 22.616 107.37C22.9685 91.4928 28.0422 76.902 37.5598 64.1911C47.2686 51.2162 59.0037 42.5085 74.9055 36.2738C82.8349 33.2389 85.5396 32.5638 96.0784 31.0938C105.202 29.8901 110.12 29.6389 116.619 30.0544ZM201.797 180.701C203.426 184.145 202.469 185.783 193.926 193.354C183.688 202.421 176.323 206.575 172.783 205.451C171.139 204.872 166.516 200.709 166.164 199.403C166.06 199.019 167.246 198.226 168.789 197.784C175.638 195.608 190.162 186.214 196.652 179.789C197.967 178.502 199.301 177.61 199.68 177.719C200.08 177.905 201.045 179.209 201.797 180.701ZM215.935 194.189C215.356 195.936 195.858 212.509 190.841 215.637C183.431 220.274 181.679 220.267 178.053 215.256L175.223 211.254L176.729 209.703C177.536 208.801 180.013 207.281 182.297 206.344C187.944 203.928 200.233 194.033 203.57 189.218L206.355 185.271L211.315 189.389C214.027 191.657 216.105 193.848 215.935 194.189ZM242.352 212.66C269.397 232.161 285.798 244.634 293.194 251.295C296.998 254.691 306.929 265.234 315.24 274.638C333.71 295.43 334.463 296.922 332.157 306.533C330.39 313.926 327.263 318.873 320.543 325.089C310.282 334.398 294.31 341.994 286.78 340.999C283.342 340.578 282.88 340.161 269.908 325.804C262.624 317.616 251.331 305.265 244.886 298.24C238.441 291.214 230.068 281.58 226.334 276.822C222.601 272.064 215.174 263.021 209.887 256.718C200.109 245.121 184.276 224.379 183.799 222.612C183.654 222.074 184.29 221.513 185.304 221.379C189.528 220.822 205.902 208.559 215.723 198.592L218.735 195.49L222.121 197.987C223.992 199.41 233.12 206.002 242.352 212.66Z" fill="#0AC2D4"/>
<path d="M88.6586 39.7505C85.3464 40.5866 81.4557 41.8996 80.1711 42.7098C78.8866 43.5199 75.6986 45.1413 73.0683 46.2085C61.7974 50.9766 50.6541 60.1366 43.0229 71.1597C30.7485 88.8851 27.5356 108.385 33.3825 129.981C36.5485 141.349 39.9062 148.522 46.265 157.306C55.5494 170.033 70.0026 181.921 84.8425 189.028C116.822 204.223 155.161 202.39 182.12 184.337C192.912 177.147 203.238 164.968 207.775 153.951C216.566 132.836 214.848 109.174 203.127 88.7515C189.374 64.7478 169.837 49.4403 142.517 41.3281C124.34 35.9421 107.397 35.4437 88.6586 39.7505ZM116.595 39.6855C135.735 40.4562 153.911 46.1631 169.631 56.5215C182.076 64.5849 191.186 73.728 198.98 85.8497C202.855 91.9936 203.403 93.3645 206.923 106.368C211.219 122.236 211.471 127.414 208.635 139.81C206.453 149.396 203.734 155.364 197.973 163.817C185.397 182.063 166.433 193.053 142.173 196.241C118.426 199.363 97.2775 194.768 75.5519 181.833C61.231 173.374 50.6138 162.586 42.0014 147.766C36.3727 138.085 32.1782 123.246 31.9343 112.216C31.6886 97.2585 35.1163 86.0666 43.6726 73.5592C53.884 58.67 68.0864 48.0658 82.5953 44.4753C86.5699 43.4719 89.9255 42.4697 90.0545 42.2924C90.7845 41.3948 110.343 39.4652 116.595 39.6855Z" fill="#0AC2D4"/>
<path d="M50.7566 77.1677C45.8156 81.9654 40.7582 93.1584 41.8197 97.0858C42.1111 98.164 42.9434 97.0176 44.403 93.3164C45.6465 90.4411 48.0856 85.8134 49.8158 83.1133C54.6861 75.4539 55.3279 74.2529 54.3947 74.3758C53.9705 74.4316 52.2899 75.6897 50.7566 77.1677Z" fill="#0AC2D4"/>
<path d="M52.2564 85.3595C50.2101 89.1312 48.6647 94.1102 49.6793 93.9764C50.102 93.9206 51.3381 91.6884 52.4497 88.995C53.6666 86.3673 54.7783 83.674 55.0558 83.0803C55.4178 82.4754 55.3141 82.0911 54.8068 82.158C54.3841 82.2138 53.1942 83.6441 52.2564 85.3595Z" fill="#0AC2D4"/>
<path d="M199.385 124.269C199.063 134.086 195.718 141.759 182.62 162.799L179.266 168.169L182.693 165.014C187.751 160.135 196.6 146.649 198.864 140.152C201.321 133.073 201.941 126.951 200.569 123.159L199.53 120.277L199.385 124.269Z" fill="#0AC2D4"/>
<path d="M187.081 144.194C183.686 152.041 183.316 154.238 185.802 151.126C188.18 148.266 191.315 141.726 191.39 139.409C191.661 135.873 189.772 137.952 187.081 144.194Z" fill="#0AC2D4"/>
<path d="M321.706 282.187C321.844 282.718 322.881 284.458 323.959 286.036C325.037 287.615 326.587 291.638 327.537 294.96C329.059 300.478 329.239 300.845 329.948 299.415C331.144 296.976 328.689 288.526 325.833 284.917C323.375 281.881 321.252 280.446 321.706 282.187Z" fill="#0AC2D4"/>
<path d="M319.278 291.215C320.321 295.227 322.365 299.258 322.968 298.705C323.651 298.14 322.079 291.457 320.885 289.739C319.553 287.806 318.609 288.641 319.278 291.215Z" fill="#0AC2D4"/>
</svg>
