<svg width="693" height="346" viewBox="0 0 693 346" fill="none" xmlns="http://www.w3.org/2000/svg">
<g clip-path="url(#clip0_520_340)">
<path d="M-3.75177 170.582V350.835H355.343H714.439V170.582V-9.6708H355.343H-3.75177V170.582ZM701.897 -5.58757C702.915 -5.10403 704.255 -3.92204 704.952 -3.00869L706.131 -1.34316V170.851V343.045L704.952 344.711C704.255 345.624 702.915 346.806 701.897 347.289C700.236 348.095 672.097 348.149 352.664 348.149C33.2297 348.149 5.09162 348.095 3.43013 347.289C2.4118 346.806 1.0719 345.624 0.375144 344.711C-0.803974 343.045 -0.803974 342.723 -0.964763 323.327C-1.12555 304.792 -1.07196 303.61 -0.160818 303.341C3.9125 302.213 8.03941 301.89 18.3299 302.052C29.1564 302.213 29.8531 302.159 32.3185 301.031C34.9448 299.795 34.9448 299.795 37.571 293.455C38.0533 292.22 38.1605 292.22 41.5371 295.389C45.1816 298.828 49.9517 301.514 54.6682 302.75C60.0278 304.201 70.5863 303.61 76.9106 301.568C82.7526 299.688 84.1461 297.27 82.8062 291.145C81.4127 284.376 78.0362 279.003 68.6568 268.472C60.2422 259.124 57.348 253.321 57.348 245.907C57.348 230.112 72.7837 215.068 85.8612 218.13C93.0431 219.85 100.064 225.169 110.516 236.774C119.788 247.143 125.469 251.172 135.867 255.041C138.171 255.9 140.208 256.008 150.981 256.008L163.361 255.954L164.326 259.231C168.024 271.911 176.117 278.788 190.213 281.313C200.182 283.032 221.031 282.764 229.66 280.722C241.612 277.928 248.687 273.362 253.51 265.303L255.333 262.24L258.173 264.926C263.158 269.654 269.75 271.75 277.414 271.105L281.22 270.729L284.06 275.726C292.1 289.856 305.713 303.126 326.133 316.612C331.707 320.265 342.48 325.638 346.768 326.82C354.7 329.022 358.613 329.506 367.403 329.184C377.907 328.807 383.374 327.626 389.002 324.348C392.861 322.199 396.613 318.707 396.613 317.417C396.613 317.041 395.809 317.525 394.897 318.438C387.984 324.993 378.979 327.787 364.991 327.84C359.47 327.894 357.219 327.626 352.128 326.39C348.751 325.584 345.106 324.563 344.088 324.08C332.726 319.083 325.276 314.57 313.538 305.436C306.196 299.741 293.815 287.492 290.438 282.603C286.472 276.8 283.417 271.374 283.685 270.675C283.792 270.299 285.347 269.654 287.062 269.278C291.51 268.257 300.086 264.282 304.641 261.112C310.966 256.706 320.131 246.928 323.99 240.32C325.437 237.794 325.812 237.526 327.956 237.203C331.922 236.612 339.264 233.765 344.356 230.864C353.843 225.491 359.202 221.462 364.508 215.605C371.101 208.352 374.048 201.583 374.477 192.557C374.745 187.936 374.584 186.378 373.298 181.274C371.261 173 369.386 169.347 364.776 164.672C360.006 159.837 355.183 157.312 347.572 155.754C340.712 154.303 330.528 154.572 323.99 156.291C304.802 161.395 289.313 177.674 280.255 202.281C276.557 212.274 273.877 226.566 273.877 236.559C273.877 245.262 276.074 257.297 279.076 265.034C279.826 267.022 280.309 268.795 280.148 268.956C279.987 269.171 277.843 269.332 275.378 269.332C272.162 269.386 269.857 269.063 266.963 268.15C263.587 267.129 262.568 266.485 259.513 263.53C256.833 260.897 256.137 259.876 256.458 259.124C258.441 254.074 258.602 246.068 256.726 243.812C253.886 240.266 251.313 250.044 253.242 257.082L254.154 260.628L252.171 263.959C247.24 272.072 240.004 276.746 228.588 279.11C219.262 281.044 196.698 281.098 188.552 279.164C180.459 277.284 174.831 273.953 170.919 268.795C168.989 266.162 166.202 260.145 165.398 256.76L165.077 255.363L170.865 254.45C180.673 252.892 188.552 250.635 194.555 247.788C207.257 241.663 219.477 231.616 222.961 224.309C226.444 217.056 224.944 211.522 218.673 208.352C209.508 203.785 193.59 205.935 183.728 213.134C173.545 220.494 164.648 236.559 163.201 249.937L162.826 253.536L160.306 253.912C158.967 254.127 153.982 254.342 149.266 254.342C142.513 254.396 139.94 254.181 137.206 253.375C128.738 251.011 122.2 246.659 114.428 238.224C104.191 227.049 97.8132 221.247 93.3647 218.99C83.0206 213.725 73.4269 215.498 64.7979 224.148C61.8501 227.103 60.4566 229.037 58.9023 232.368C56.2225 238.117 55.5793 241.34 55.8473 247.626C56.0617 252.139 56.2761 253.268 57.9912 256.814C60.2422 261.595 61.5821 263.476 67.8529 270.514C74.4452 277.982 76.3747 280.615 78.8401 285.557C81.4127 290.715 82.1095 295.228 80.716 297.324C79.5905 299.097 74.338 300.708 67.4241 301.461C56.6513 302.643 49.4693 300.332 42.1267 293.348C39.8756 291.199 37.7318 289.587 37.3566 289.748C36.9814 289.909 36.3383 291.091 35.9631 292.327C33.7656 299.58 31.997 300.601 21.7065 300.279C10.0225 299.956 5.25241 300.117 1.98303 300.977L-1.07196 301.837L-0.964763 150.274L-0.803974 -1.34316L0.375144 -3.00869C1.0183 -3.92204 2.35821 -5.05031 3.32294 -5.53385C4.93083 -6.33975 33.5512 -6.4472 352.556 -6.4472C672.097 -6.4472 700.236 -6.39347 701.897 -5.58757ZM346.607 157.204C355.397 159.031 361.293 162.416 365.902 168.326C368.796 172.14 370.672 176.761 372.226 184.014C375.978 201.798 365.848 217.378 342.48 229.843C337.281 232.583 330.1 235.323 328.009 235.323C327.152 235.323 326.937 235.054 327.152 234.356C329.028 227.855 329.188 226.834 328.92 222.966C328.384 215.283 325.383 210.448 320.238 208.997C318.148 208.406 317.504 208.46 315.414 209.266C312.627 210.286 311.126 212.597 310.59 216.626C310.215 219.205 311.073 226.834 311.984 229.789C312.734 232.207 316.111 235.054 319.916 236.398C321.739 237.096 323.186 237.794 323.186 237.956C323.186 239.567 313.11 251.925 308.822 255.524C302.337 261.004 293.976 265.571 287.49 267.237C282.506 268.526 282.131 268.419 281.22 265.786C280.737 264.55 279.987 262.455 279.505 261.112C278.004 257.029 276.074 246.767 275.699 240.803C274.627 223.611 280.63 200.83 290.385 184.927C293.815 179.394 300.568 171.549 304.963 168.003C311.877 162.416 322.006 157.849 329.885 156.721C333.905 156.184 342.802 156.398 346.607 157.204ZM217.333 209.803C223.229 212.812 224.461 217.11 221.299 223.449C219.155 227.748 214.975 232.261 208.811 236.827C202.38 241.609 201.254 242.307 194.179 245.8C188.069 248.808 179.494 251.334 171.24 252.516C164.541 253.429 164.916 253.644 165.184 249.131C165.934 238.385 175.474 221.3 184.264 214.907C187.694 212.435 189.624 211.468 193.643 210.125C198.896 208.352 201.629 207.976 208.275 208.084C213.688 208.191 214.439 208.352 217.333 209.803ZM322.167 211.844C327.045 215.122 328.706 224.148 325.865 232.153C325.383 233.657 324.74 235.054 324.472 235.323C323.078 236.72 315.146 232.637 314.128 230.058C312.466 225.813 311.823 217.593 313.002 214.155C313.324 213.08 314.128 211.844 314.771 211.415C316.486 210.179 320.023 210.394 322.167 211.844ZM256.351 248.056C256.619 250.366 255.761 256.276 255.118 256.276C254.582 256.276 254.046 254.289 254.046 251.978C254.046 249.668 255.011 246.068 255.601 246.068C255.869 246.068 256.19 246.982 256.351 248.056Z" fill="#0AC2D4"/>
<path d="M451.281 4.99682C451.281 6.44744 456.48 20.7387 460.928 31.4304C463.393 37.3403 471.272 52.921 472.826 54.9089L473.791 56.1446L473.309 54.8015C473.041 54.0493 471.219 50.2347 469.235 46.2589C465.377 38.576 464.037 35.4599 459.642 24.1772C456.158 15.3123 453.8 8.5965 454.068 8.32787C454.175 8.22042 460.285 14.0766 467.681 21.3835C480.651 34.2241 490.513 45.0232 502.144 59.0996C508.736 67.1049 509.165 67.5347 509.165 66.7825C509.165 65.8154 501.125 55.6611 491.264 44.3248C483.814 35.7285 452.835 4.29837 451.817 4.29837C451.495 4.29837 451.281 4.62073 451.281 4.99682Z" fill="#0AC2D4"/>
<path d="M561.421 10.1005C561.26 10.5841 560.51 15.0971 559.813 20.1474C554.829 55.6608 554.829 55.6608 555.74 55.1235C556.329 54.7474 556.919 51.0403 558.473 38.9518C559.116 34.2238 559.92 28.3139 560.349 25.8424C560.778 23.371 561.153 21.1145 561.153 20.8459C561.153 20.5772 561.367 20.4698 561.582 20.631C561.796 20.7384 562.064 22.2965 562.118 24.0157C562.225 27.0244 564.53 42.7664 565.441 46.9033C566.03 49.6971 566.406 49.912 567.638 48.3539C568.389 47.4406 568.817 47.2257 569.032 47.6555C569.407 48.6226 571.176 48.5151 571.551 47.548C572.087 46.0437 572.944 46.7421 572.944 48.6226C572.944 49.8583 573.266 50.6642 573.802 50.8791C574.82 51.2552 575.303 50.5567 576.535 47.1182C577.071 45.7213 577.661 44.5931 577.875 44.5931C578.09 44.5931 578.25 46.6884 578.25 49.2673C578.197 57.1114 579.858 58.9918 583.181 54.8011C584.146 53.6192 585.111 52.6521 585.325 52.6521C585.539 52.6521 585.861 53.3505 586.075 54.2639C586.397 55.822 586.879 56.2518 587.522 55.607C588.058 55.0161 586.772 51.094 585.915 50.7716C585.379 50.5567 584.36 51.3089 582.806 53.0282C581.573 54.4251 580.341 55.3921 580.126 55.1772C579.858 54.9086 579.644 51.1477 579.59 46.8496C579.59 42.4977 579.483 38.7369 579.483 38.4682C579.215 37.2325 577.714 39.6502 576.642 42.8738C575.142 47.548 574.767 47.8704 574.445 44.8617C574.016 41.1008 573.212 40.7785 571.819 43.6797L570.64 46.0974L569.621 44.9692C568.657 43.7872 568.657 43.7872 567.853 44.808C567.424 45.399 566.941 45.7751 566.834 45.6139C566.673 45.5064 565.977 41.7456 565.226 37.34C563.779 29.0661 562.761 18.9654 562.761 13.0555C562.761 9.72444 562.118 8.32754 561.421 10.1005Z" fill="#0AC2D4"/>
<path d="M528.62 15.9034C528.459 16.3869 528.62 21.8671 528.942 28.0994C529.799 42.6593 529.585 56.1984 528.513 55.9835C528.084 55.8761 527.548 56.1447 527.334 56.5208C526.637 57.5416 526.744 58.0251 527.602 58.0251C528.459 58.0251 528.995 59.1534 528.995 60.9801C528.995 62.8068 529.96 63.1829 530.389 61.5174C530.764 59.9593 530.228 24.7146 529.746 20.6851C529.317 16.9779 530.014 17.8376 533.337 25.2518C536.981 33.472 539.339 39.973 542.234 49.6975C544.753 58.0789 544.86 58.4012 545.396 57.9177C546.307 57.0043 540.143 37.8239 535.856 28.2068C529.531 14.0767 529.424 13.8618 528.62 15.9034Z" fill="#0AC2D4"/>
<path d="M679.869 25.4128C675.742 27.6156 667.81 31.6989 662.182 34.6001C635.009 48.6765 631.686 50.6107 617.429 60.5501C608.586 66.7287 605.102 69.4687 609.122 67.1585C611.373 65.8153 612.177 65.2781 622.521 58.2936C630.56 52.8672 637.206 48.8914 645.835 44.4321C668.346 32.8271 677.028 28.4215 677.189 28.5827C677.296 28.6902 675.903 30.0871 674.08 31.6451C672.258 33.2569 664.755 40.1877 657.358 47.1722C638.975 64.5259 633.454 70.8656 632.758 75.5399C632.383 78.1725 632.811 78.3874 638.332 78.4411C641.655 78.4948 641.762 78.5486 640.636 79.3545C638.761 80.6439 639.136 81.5035 641.976 82.0408L644.495 82.5781L638.064 85.7479C629.488 89.9923 629.488 90.4222 637.796 92.7861C641.172 93.7532 646.746 95.3113 650.123 96.1709C653.5 97.0843 660.092 99.1259 664.701 100.738C669.364 102.349 674.67 104.015 676.492 104.499C681.53 105.788 681.638 105.842 680.673 106.379C680.244 106.594 677.725 107.239 675.045 107.722C672.419 108.206 666.952 109.441 662.986 110.462C651.731 113.363 651.302 113.74 657.09 115.674C659.181 116.372 660.574 117.178 660.574 117.608C660.574 118.521 652.374 121.261 648.086 121.745C643.263 122.336 643.691 123.303 650.927 127.601C653.392 129.052 657.198 131.362 659.342 132.705L663.254 135.123L661.11 135.23C654.893 135.606 646.854 136.681 646.586 137.111C646.05 137.917 647.39 138.937 650.82 140.495C654.518 142.107 654.732 141.194 651.141 139.152L648.783 137.809L651.195 137.487C652.535 137.272 656.447 136.949 659.931 136.735C663.415 136.466 666.363 136.144 666.47 135.875C666.631 135.66 664.969 134.424 662.772 133.135C647.55 124.216 645.942 123.034 649.373 123.034C651.677 123.034 662.343 119.327 662.664 118.36C663.093 117.232 661.7 115.674 659.449 114.868C658.43 114.492 657.626 114.062 657.626 113.847C657.626 113.363 664.112 111.644 673.598 109.495C677.618 108.636 681.477 107.776 682.12 107.615C682.763 107.454 683.621 107.024 683.942 106.594C684.746 105.627 682.763 104.767 675.688 102.94C672.901 102.188 669.686 101.221 668.506 100.738C665.934 99.6094 651.731 95.0964 650.873 95.0964C650.284 95.0964 644.549 93.4846 637.153 91.2281C635.116 90.6371 633.508 89.9386 633.508 89.67C633.508 89.4551 636.242 87.9507 639.564 86.3389C642.834 84.7809 645.889 83.0616 646.318 82.5781C647.122 81.5573 647.068 81.5573 643.691 80.6976L641.816 80.2141L643.584 79.3007C646.586 77.7427 645.46 77.0979 639.511 76.9368C634.205 76.7756 634.044 76.7756 634.044 75.5399C634.044 73.9818 639.35 66.7824 644.067 62.0007C650.177 55.8759 672.097 35.1911 676.224 31.7526C678.368 29.9796 681.906 27.1858 684.157 25.574C687.694 22.8877 689.034 21.4371 687.801 21.4908C687.533 21.4908 683.996 23.2638 679.869 25.4128Z" fill="#0AC2D4"/>
<path d="M560.081 58.9919C560.081 59.2605 560.724 59.7441 561.582 60.0664C562.922 60.6037 571.497 62.8602 572.14 62.8602C572.301 62.8602 572.408 63.0751 572.408 63.3437C572.408 63.6661 571.122 63.7198 569.353 63.5587C567.156 63.29 566.459 63.3975 566.727 63.8273C566.995 64.3108 565.923 64.472 562.815 64.472C559.706 64.472 558.473 64.2571 558.473 63.7736C558.473 63.4512 558.205 63.5587 557.884 64.0422C557.455 64.7944 556.651 65.0093 554.4 65.0093C552.685 65.0093 549.791 65.5465 547.593 66.2987C541.055 68.5015 539.018 68.9313 535.534 68.985L532.104 69.0388L536.284 67.0509C539.607 65.4391 540.143 65.0093 538.964 65.0093C537.035 65.0093 528.567 67.9105 524.708 69.8447C514.364 75.1636 504.234 84.727 497.159 95.8484C495.658 98.1586 494.372 99.7705 494.265 99.4481C493.836 98.1586 498.767 88.9177 501.608 85.8552C502.304 85.0493 502.787 84.2434 502.626 84.0823C502.465 83.9211 501.608 84.6195 500.697 85.6403C499.785 86.7149 498.445 87.6819 497.695 87.8968C496.034 88.3267 494.265 91.013 492.121 96.4394C491.21 98.8034 489.441 103.263 488.209 106.379C485.797 112.557 483.439 119.273 483.492 119.757C483.492 119.918 483.974 119.112 484.564 117.93C485.475 116.05 485.529 115.996 485.261 117.393C484.296 122.282 483.439 128.461 483.492 130.556C483.546 131.899 483.653 132.383 483.814 131.63C484.832 124.646 485.797 119.972 486.226 119.542C486.601 119.166 486.654 119.596 486.44 120.885C485.69 125.237 485.154 133.672 485.529 135.929C486.065 139.152 486.386 138.078 487.351 130.019C488.209 122.927 491.21 112.611 494.64 105.089C496.57 100.791 497.427 100.576 495.712 104.821C494.265 108.474 491.853 115.996 490.996 119.542C489.87 124.055 488.905 135.015 489.388 137.863C490.835 146.728 488.905 159.783 484.242 172.839C484.082 173.322 483.599 173.376 482.42 172.946C481.027 172.463 480.491 172.57 478.883 173.537C476.739 174.88 476.685 175.203 477.865 177.083L478.776 178.373L476.953 178.265C475.56 178.158 475.131 178.319 475.131 179.017C475.131 180.361 472.719 182.671 471.326 182.671C469.611 182.671 468.753 183.96 469.503 185.303C469.932 186.163 469.932 186.432 469.45 186.432C469.075 186.432 469.343 187.023 469.986 187.721C471.165 188.957 471.165 189.011 470.2 189.709C469.664 190.139 468.271 191.643 467.145 193.094C465.966 194.491 464.519 196.21 463.929 196.855C463.286 197.499 461.625 199.487 460.124 201.206C458.677 202.979 451.656 210.931 444.581 218.936C437.506 226.942 430.539 234.893 429.038 236.666C427.591 238.439 424.215 242.361 421.588 245.424C418.962 248.432 416.926 251.065 417.086 251.172C417.354 251.441 424.804 243.274 440.079 225.921C454.765 209.158 470.79 190.73 471.165 190.085C471.379 189.763 471.862 189.709 472.344 189.978C473.63 190.73 486.118 202.657 486.118 203.141C486.118 203.409 479.901 210.716 472.344 219.366C464.733 228.016 452.781 241.716 445.707 249.722C438.686 257.781 432.79 264.335 432.576 264.335C432.415 264.335 432.2 263.476 432.093 262.455C431.932 259.822 429.574 256.491 426.787 254.826C423.089 252.677 414.835 252.569 414.835 254.665C414.835 255.041 415.371 255.094 416.336 254.826C420.677 253.59 426.519 255.363 429.092 258.694C431.021 261.273 431.182 265.195 429.413 268.096C428.127 270.245 424.375 279.433 424.643 279.755C424.751 279.862 425.93 277.982 427.216 275.618C430.807 269.01 431.129 268.633 433.808 268.633C437.506 268.633 440.776 270.084 443.241 272.77C445.868 275.564 448.333 280.722 448.762 284.268C449.083 286.739 449.083 286.793 446.725 288.459C443.938 290.447 443.509 291.306 446.082 289.641C451.281 286.363 451.817 286.202 454.979 286.954C458.302 287.76 462.697 290.447 462.965 291.897C463.126 292.542 462.643 293.025 461.357 293.455C460.392 293.778 458.034 294.906 456.104 295.927C454.175 296.947 451.656 298.129 450.477 298.506C449.137 298.935 448.762 299.204 449.458 299.204C450.102 299.258 451.656 298.882 452.889 298.452C456.748 297.109 457.123 297.592 453.425 299.204C451.495 300.01 449.244 301.138 448.333 301.622C447.475 302.105 446.35 302.481 445.868 302.481C445.385 302.481 441.526 303.448 437.292 304.577C433.058 305.759 427.002 307.317 423.786 308.176C420.624 308.982 418.158 309.734 418.265 309.896C418.48 310.057 437.024 305.651 450.209 302.213C452.996 301.461 457.605 300.332 460.392 299.634C464.787 298.559 465.484 298.237 465.484 297.27C465.484 296.195 473.309 286.954 492.068 265.679C504.287 251.871 517.901 236.183 518.437 235.215C519.08 234.195 520.42 233.872 520.42 234.786C520.42 235.054 519.938 235.86 519.294 236.505C517.955 238.009 500.375 258.425 494.533 265.356C492.228 268.042 490.46 270.245 490.567 270.245C490.996 270.245 511.148 247.788 519.348 238.224C521.277 235.968 524.6 234.41 524.011 236.075C523.797 236.559 523.85 236.935 524.118 236.935C524.761 236.935 525.619 235.806 525.994 234.248C526.691 231.777 527.602 230.38 529.103 229.628C529.906 229.198 530.978 227.962 531.514 226.834C531.997 225.76 533.39 223.987 534.516 222.966L536.606 221.085L535.213 219.742C533.497 218.077 533.497 217.432 535.052 216.357C535.695 215.928 537.142 214.692 538.321 213.617C539.447 212.543 543.198 210.286 546.629 208.621C550.059 206.955 553.328 205.129 553.918 204.591C554.775 203.893 556.169 203.57 559.545 203.409C563.351 203.248 563.833 203.302 562.493 203.785C556.061 206.149 547.968 211.576 544.27 215.928C542.555 217.969 542.662 217.915 547.218 214.692C550.219 212.543 550.434 213.241 547.647 215.981C546.361 217.271 545.932 217.862 546.682 217.378C547.432 216.895 549.576 215.444 551.506 214.155C555.418 211.576 561.743 208.621 567.21 206.794C569.193 206.149 570.693 205.505 570.532 205.343C569.889 204.645 564.423 205.397 561.207 206.633C559.331 207.331 557.669 207.869 557.562 207.707C557.294 207.439 562.547 205.021 565.87 203.947C567.37 203.409 568.657 202.711 568.657 202.335C568.657 201.959 570.425 201.153 572.569 200.454C587.737 195.619 598.135 190.192 606.174 182.886C606.924 182.241 608.425 180.898 609.604 179.931C613.838 176.277 622.842 164.404 625.04 159.568C628.524 151.885 630.56 140.549 630.132 131.899C629.703 125.076 627.13 112.719 624.986 107.238C622.735 101.597 620.967 99.1257 614.267 92.195C606.496 84.0823 601.458 79.7304 595.455 75.8621C589.291 71.8326 590.042 71.4565 596.473 75.2711C598.992 76.7754 601.94 78.4947 602.958 79.0857L604.834 80.1602L603.494 79.0319C602.744 78.4409 600.493 76.7754 598.456 75.3785C596.473 73.9279 594.115 72.1012 593.204 71.2953C590.202 68.4478 574.82 61.4633 568.121 59.9052C563.511 58.8307 560.081 58.4546 560.081 58.9919ZM564.315 66.6748C576.267 68.6627 589.452 72.9071 590.899 75.1636C591.06 75.486 592.775 76.5068 594.758 77.4739C598.081 79.0857 601.565 82.0406 612.445 92.4099C618.662 98.3736 621.824 103.155 624.343 110.623C626.165 115.942 626.755 121.745 626.755 134.854L626.809 146.942L625.147 150.166C624.236 151.939 621.985 156.183 620.055 159.568C614.535 169.454 613.785 171.711 618.555 164.296C621.235 160.052 622.789 159.138 620.859 162.899C619.359 165.854 612.552 174.665 609.39 177.835C602.744 184.444 588.916 191.536 574.552 195.78C564.69 198.681 555.258 201.851 550.434 203.893C545.396 206.042 536.016 210.662 535.695 211.2C535.427 211.629 538.16 210.985 539.179 210.34C539.447 210.179 539.715 210.179 539.661 210.447C539.554 211.468 533.712 215.981 532.533 215.981C531.782 215.981 530.389 215.122 529.156 213.94C526.691 211.522 522.135 207.331 514.256 200.132C510.987 197.177 505.681 192.073 502.358 188.796C499.089 185.465 494.587 181.274 492.443 179.447C485.958 173.86 485.69 173.215 488.101 168.272C489.013 166.392 489.548 164.296 489.602 162.577C489.763 158.816 490.46 154.196 490.942 154.196C491.156 154.196 491.264 147.48 491.264 139.26L491.21 124.377L493.568 117.447C494.908 113.578 496.087 110.784 496.194 111.214C496.355 111.59 497.266 109.71 498.231 107.024C501.018 99.2332 505.681 93.3232 516.936 83.1689C523.368 77.4201 534.891 71.5639 542.234 70.3282C544.86 69.8984 545.985 69.5223 545.825 69.0388C545.557 68.3941 547.486 67.9105 555.258 66.6748C559.438 66.0301 560.349 66.0301 564.315 66.6748ZM530.55 68.985C530.442 69.0388 528.674 70.0596 526.637 71.1878C522.671 73.3906 517.633 77.259 511.362 82.9003C507.342 86.6074 506.485 87.0909 506.699 85.6941C506.914 84.0285 514.846 77.0441 520.688 73.3369C524.44 70.9729 530.174 68.1254 530.55 68.5015C530.657 68.6627 530.657 68.8776 530.55 68.985ZM529.853 73.0683C523.904 76.077 518.008 80.3214 511.523 86.2313C507.021 90.3683 506.271 91.2279 500.857 99.2869C499.196 101.758 497.695 103.692 497.588 103.531C497.106 103.048 499.678 97.9437 501.34 96.1708C502.304 95.15 504.395 92.6248 505.949 90.5832C511.845 83.0077 522.885 74.6264 530.871 71.6177C535.802 69.7909 535.534 70.1133 529.853 73.0683ZM494.265 104.069C493.729 105.197 492.711 107.615 492.014 109.495C491.371 111.322 490.674 112.772 490.567 112.611C489.924 111.966 491.8 105.573 493.193 103.639C495.123 101.006 495.658 101.221 494.265 104.069ZM490.352 108.367C489.763 110.408 488.905 114.33 488.423 117.124C487.941 119.918 487.405 122.443 487.19 122.658C486.654 123.249 487.137 118.145 487.994 113.632C488.637 110.247 490.567 104.767 491.103 104.767C491.264 104.767 490.888 106.379 490.352 108.367ZM625.147 156.721C624.504 158.118 624.182 158.494 624.022 157.849C623.754 156.828 625.522 153.067 625.844 154.034C625.951 154.357 625.629 155.539 625.147 156.721ZM485.475 175.525C488.852 177.513 494.426 182.241 500.643 188.527C507.021 194.92 517.472 204.699 521.867 208.352C523.689 209.856 527.387 213.295 530.121 216.035L535.105 220.924L533.39 222.482C531.943 223.825 531.461 223.987 530.55 223.449C529.049 222.643 528.62 223.288 529.746 224.524C530.657 225.491 530.657 225.652 529.746 226.995C528.352 229.144 526.53 229.628 524.815 228.392C521.599 226.189 520.688 226.028 522.993 228.177C524.708 229.843 525.244 230.702 525.244 232.046C525.244 233.389 524.976 233.872 523.797 234.302C522.725 234.678 522.242 234.624 521.76 234.141C521.438 233.765 519.455 231.508 517.419 229.144C515.382 226.78 513.131 224.363 512.381 223.772C511.63 223.181 509.111 220.978 506.753 218.936C504.395 216.841 500.321 213.51 497.642 211.576C495.015 209.588 490.996 206.096 488.691 203.785C486.44 201.475 482.099 197.338 478.99 194.544C475.345 191.267 472.88 188.581 471.969 186.808C471.165 185.357 470.629 184.014 470.843 183.853C471.004 183.692 471.915 183.853 472.88 184.175C475.292 185.035 475.506 184.981 474.756 183.745C474.166 182.886 474.274 182.563 475.238 181.596C477.114 179.877 478.454 180.79 488.959 190.461C496.302 197.231 499.303 199.81 498.66 198.789C497.856 197.446 486.065 186.378 482.474 183.53C479.419 181.113 478.508 179.984 479.58 179.984C479.794 179.984 480.276 180.253 480.652 180.629C481.938 181.919 481.295 179.286 479.848 177.406C478.508 175.633 478.508 175.525 479.419 174.827C480.919 173.698 482.688 173.913 485.475 175.525ZM578.036 196.586C577.232 197.338 569.407 200.186 565.548 201.206C559.492 202.765 560.671 201.69 567.317 199.648C570.854 198.52 574.606 197.284 575.624 196.908C577.875 195.995 578.733 195.888 578.036 196.586ZM490.406 207.17C492.014 208.836 494.104 210.716 495.015 211.307C498.606 213.779 504.663 218.56 505.681 219.688L506.753 220.924L504.931 222.536C503.912 223.449 502.144 225.33 500.965 226.673C499.785 228.016 497.213 230.971 495.23 233.174C490.781 238.17 470.468 261.38 459.32 274.167C454.765 279.379 450.852 283.677 450.638 283.677C450.37 283.677 450.209 283.193 450.209 282.656C450.209 280.776 447.154 274.866 444.903 272.287C442.33 269.386 439.275 267.774 435.255 267.183L432.361 266.753L441.687 256.223C446.832 250.42 459.106 236.344 468.968 224.954C478.829 213.564 487.029 204.215 487.19 204.215C487.351 204.161 488.798 205.505 490.406 207.17ZM510.505 223.825C512.113 225.222 514.632 227.909 516.186 229.789C518.651 232.852 518.919 233.335 518.115 233.819C517.579 234.087 516.615 235.108 515.971 236.129C515.328 237.096 506.378 247.519 496.034 259.285C485.743 271.051 474.756 283.623 471.647 287.223C468.539 290.876 465.859 293.831 465.645 293.831C465.484 293.885 465.162 293.133 464.948 292.273C464.412 289.802 457.284 285.342 453.853 285.289C452.996 285.289 452.353 285.02 452.353 284.752C452.353 284.429 455.193 280.937 458.677 277.015C462.107 273.147 468.11 266.323 471.969 261.864C475.828 257.458 483.546 248.647 489.12 242.307C494.694 235.914 501.018 228.607 503.216 226.028C505.359 223.449 507.235 221.354 507.396 221.354C507.503 221.354 508.897 222.482 510.505 223.825ZM463.608 295.389C463.608 295.658 462.75 296.088 461.732 296.41C459.642 297.055 459.213 296.518 461.089 295.604C462.536 294.906 463.608 294.798 463.608 295.389ZM463.072 297.592C463.072 298.022 457.659 299.365 457.284 298.989C457.069 298.774 461.464 297.216 462.429 297.162C462.75 297.109 463.072 297.324 463.072 297.592Z" fill="#0AC2D4"/>
<path d="M532.479 77.5813C526.959 79.3543 519.884 84.2971 514.149 90.4757C508.682 96.3856 502.68 105.68 499.625 113.095C499.517 113.363 501.608 110.355 504.341 106.379C509.647 98.5884 515.65 91.5502 521.706 85.9089C526.208 81.772 528.084 80.59 532.747 78.9782C534.677 78.2797 536.445 77.5276 536.767 77.2589C537.517 76.6142 534.945 76.7754 532.479 77.5813Z" fill="#0AC2D4"/>
<path d="M517.901 108.205C515.06 109.495 511.362 112.235 510.719 113.524C510.237 114.545 510.29 114.545 511.255 113.363C511.845 112.611 512.38 112.342 512.38 112.719C512.38 113.095 513.184 112.611 514.149 111.59C516.132 109.441 519.241 108.689 523.689 109.28C525.726 109.549 526.316 109.495 525.994 109.011C525.726 108.528 526.155 108.474 527.709 108.743C532.64 109.656 532.586 109.656 530.603 108.689C528.031 107.453 520.259 107.185 517.901 108.205Z" fill="#0AC2D4"/>
<path d="M520.956 111.107C518.33 111.429 515.65 112.933 515.168 114.438C514.149 117.232 515.007 118.736 520.902 124.646C524.011 127.816 528.781 132.759 531.514 135.714L536.392 141.086L534.355 145.384C533.229 147.695 531.032 151.455 529.478 153.712C520.42 166.499 517.633 170.367 514.417 174.773C512.434 177.459 510.933 179.769 511.094 179.931C511.523 180.36 516.4 174.988 519.348 170.851C520.688 169.024 523.207 165.532 524.976 163.114C530.925 155.109 534.194 150.22 535.963 146.674C536.928 144.74 537.785 143.074 537.892 142.967C538 142.859 540.465 144.901 543.306 147.533C546.2 150.22 550.327 153.766 552.471 155.539C554.561 157.258 556.329 158.762 556.329 158.816C556.329 158.87 553.757 160.696 550.595 162.846C541.001 169.293 534.784 174.289 530.389 179.017C526.369 183.315 524.6 185.679 525.672 185.303C525.94 185.196 528.62 182.778 531.675 179.984C534.677 177.191 538.75 173.752 540.679 172.301C549.148 166.284 554.078 162.899 556.115 161.717L558.259 160.482L561.796 163.275C563.726 164.78 567.853 167.251 570.961 168.755C575.839 171.066 577.071 171.442 580.019 171.442C581.841 171.496 584.039 171.227 584.789 170.958C587.255 169.991 590.095 167.09 590.095 165.639C590.095 162.093 584.736 156.882 579.483 155.27C574.659 153.766 570.908 153.873 564.583 155.807C561.689 156.667 558.956 157.419 558.527 157.419C557.723 157.419 550.648 151.724 545.878 147.157C544.11 145.492 541.858 143.396 540.84 142.537L539.071 140.979L539.554 136.197C540.197 130.233 539.607 124.27 538.107 121.1C536.713 118.199 532.854 114.223 530.067 112.826C527.923 111.698 523.153 110.838 520.956 111.107ZM529.531 114.921C534.248 117.339 536.874 121.637 537.517 127.762C538 132.382 537.624 137.648 536.713 137.916C536.445 138.024 534.73 136.466 533.015 134.478C531.246 132.436 527.387 128.353 524.44 125.398C516.079 116.909 515.811 116.372 517.794 114.384C518.812 113.363 519.402 113.256 523.046 113.471C525.994 113.578 527.763 114.008 529.531 114.921ZM581.145 158.118C584.307 159.676 587.951 163.544 587.951 165.371C587.951 168.057 582.806 170.099 578.25 169.239C572.944 168.218 561.26 161.717 561.207 159.729C561.153 159.353 563.029 158.494 565.334 157.742C571.015 155.915 576.857 156.022 581.145 158.118Z" fill="#0AC2D4"/>
<path d="M493.997 119.381C493.515 121.369 493.086 123.303 493.139 123.679C493.139 124.055 493.622 122.658 494.211 120.617C494.747 118.521 495.122 116.641 495.069 116.318C494.962 116.05 494.479 117.447 493.997 119.381Z" fill="#0AC2D4"/>
<path d="M529.585 143.773C528.888 145.277 528.191 146.083 528.031 145.653C527.923 145.277 526.744 147.05 525.458 149.576C524.172 152.101 521.331 156.936 519.08 160.267C516.883 163.598 515.06 166.714 515.06 167.144C515.06 167.574 514.203 168.756 513.184 169.777C512.22 170.744 511.416 171.711 511.469 171.926C511.523 172.194 510.88 173 509.969 173.753C509.111 174.505 508.629 175.149 508.95 175.149C509.754 175.149 513.613 170.905 517.311 166.016C518.973 163.813 521.492 160.536 522.885 158.763C525.833 154.948 531.3 143.988 531.032 142.322C530.925 141.409 530.603 141.678 529.585 143.773Z" fill="#0AC2D4"/>
<path d="M548.022 145.008C549.201 146.244 551.131 148.017 552.31 148.93C553.542 149.897 552.953 149.145 550.97 147.265C546.521 143.02 545.289 142.053 548.022 145.008Z" fill="#0AC2D4"/>
<path d="M588.862 152.369C593.364 154.68 595.615 156.829 597.331 160.375C598.027 161.825 598.617 162.739 598.67 162.362C598.67 161.986 598.188 160.697 597.545 159.515C596.151 156.721 596.527 156.345 598.617 158.548C601.243 161.234 601.672 163.544 600.332 167.144C599.314 169.884 598.885 170.314 596.098 171.818C594.436 172.732 593.311 173.538 593.579 173.538C593.9 173.538 595.401 172.785 596.955 171.872C600.278 169.992 601.833 167.252 601.886 163.383C601.886 161.234 601.618 160.804 598.778 158.011C595.83 155.109 587.898 150.435 585.968 150.435C585.539 150.435 586.826 151.295 588.862 152.369Z" fill="#0AC2D4"/>
<path d="M572.676 151.348C573.266 151.456 575.678 151.939 578.036 152.369C586.129 153.927 593.525 157.957 595.508 161.825C596.473 163.705 596.473 164.028 595.723 165.854L594.919 167.896L595.991 166.607C597.974 164.296 597.063 161.019 593.632 158.333C588.166 154.035 579.537 150.865 573.855 151.026C572.623 151.08 572.087 151.187 572.676 151.348Z" fill="#0AC2D4"/>
<path d="M553.114 166.445C548.772 168.756 544.27 171.55 542.18 173.108C538.16 176.224 532.158 181.704 532.479 182.026C532.64 182.187 533.658 181.489 534.784 180.414C538.535 176.868 544.967 172.033 549.844 169.239C552.578 167.681 554.882 166.177 555.043 165.962C555.418 165.264 555.204 165.371 553.114 166.445Z" fill="#0AC2D4"/>
<path d="M554.346 170.045C548.076 171.764 535.588 179.823 535.213 182.402C535.159 182.832 534.623 183.745 533.98 184.39C533.39 185.088 532.586 186.163 532.211 186.861C531.89 187.56 533.98 185.733 536.874 182.778C542.555 177.029 547.111 173.967 554.132 171.281C559.867 169.078 559.92 168.541 554.346 170.045Z" fill="#0AC2D4"/>
<path d="M575.356 174.343C578.84 175.257 588.166 175.257 590.899 174.343L593.043 173.699L590.095 173.967C585.807 174.397 581.252 174.397 576.696 174.021L572.676 173.645L575.356 174.343Z" fill="#0AC2D4"/>
<path d="M485.046 182.671C488.959 187.077 499.571 197.338 499.893 197.016C500.107 196.747 482.474 178.91 481.991 178.91C481.831 178.91 483.224 180.576 485.046 182.671Z" fill="#0AC2D4"/>
<path d="M477.597 185.411C479.633 187.238 491.639 197.016 493.515 198.413C493.836 198.681 494.158 198.842 494.158 198.681C494.158 198.574 490.567 195.243 486.118 191.267C481.723 187.345 478.079 183.906 478.079 183.692C478.079 183.53 477.436 183.315 476.632 183.315C475.238 183.315 475.238 183.369 477.597 185.411Z" fill="#0AC2D4"/>
<path d="M495.712 236.022C489.227 243.436 486.44 246.821 487.351 246.122C488.905 244.887 499.142 233.174 498.874 232.906C498.767 232.744 497.32 234.141 495.712 236.022Z" fill="#0AC2D4"/>
<path d="M491.478 245.424C483.01 254.181 481.241 256.33 487.619 250.098C493.032 244.886 497.32 240.158 496.73 240.158C496.623 240.158 494.265 242.522 491.478 245.424Z" fill="#0AC2D4"/>
<path d="M560.51 63.2363C561.421 63.3438 563.029 63.3438 563.994 63.2363C564.905 63.1289 564.155 63.0214 562.225 63.0214C560.296 63.0214 559.545 63.1289 560.51 63.2363Z" fill="#0AC2D4"/>
<path d="M446.618 81.5037C443.402 82.1484 447.047 85.1571 455.568 88.918C461.946 91.7655 471.594 95.204 472.398 94.9354C473.094 94.6668 470.897 93.6997 463.34 90.8522C456.48 88.2195 447.529 83.9214 447.529 83.2767C447.529 81.9335 458.409 83.1692 468.432 85.6407C474.113 87.0376 478.4 87.4674 477.865 86.554C477.65 86.2854 476.257 85.9093 474.702 85.6944C473.202 85.5332 469.504 84.781 466.556 84.0826C458.677 82.2022 449.244 80.9664 446.618 81.5037Z" fill="#0AC2D4"/>
<path d="M430.164 101.49C430.432 101.758 431.611 102.242 432.79 102.618C433.969 102.994 435.202 103.478 435.47 103.693C436.006 104.069 443.831 107.615 446.35 108.582C448.815 109.549 447.368 108.421 444.206 106.862L440.829 105.304L443.777 105.627C445.385 105.788 448.279 106.164 450.209 106.433C456.587 107.292 469.503 106.916 469.503 105.895C469.503 105.734 465.001 105.573 459.427 105.573C448.923 105.519 441.901 104.552 433.969 102.081C430.271 100.899 429.36 100.738 430.164 101.49Z" fill="#0AC2D4"/>
<path d="M481.134 127.44C480.651 129.428 480.223 131.577 480.276 132.275C480.276 132.974 480.759 131.577 481.348 129.213C481.884 126.849 482.259 124.7 482.152 124.378C482.099 124.109 481.616 125.506 481.134 127.44Z" fill="#0AC2D4"/>
<path d="M466.288 134.102C464.948 134.532 458.57 135.982 452.085 137.272C440.401 139.689 437.346 140.495 437.346 141.301C437.346 142.053 439.329 142.483 446.189 143.128C448.011 143.343 448.547 143.235 447.797 142.913C447.207 142.644 445.707 142.429 444.528 142.429C441.687 142.376 438.954 141.838 438.954 141.301C438.954 141.086 443.241 140.012 448.494 138.884C461.786 136.09 468.539 134.424 469.182 133.779C469.879 133.081 469.289 133.135 466.288 134.102Z" fill="#0AC2D4"/>
<path d="M635.973 161.61C635.866 161.825 637.099 162.846 638.76 163.866C640.422 164.833 646.639 168.863 652.535 172.731C658.43 176.6 665.183 181.005 667.542 182.51C679.333 189.978 687.104 195.189 687.104 195.619C687.104 196.264 685.228 195.78 680.03 193.9C670.275 190.3 656.554 186.915 656.554 188.097C656.554 188.581 656.983 188.742 663.254 190.192C665.934 190.783 672.848 192.879 678.69 194.759C684.478 196.693 689.623 198.251 690.052 198.251C691.553 198.251 690.856 196.801 688.605 194.92C686.193 192.986 673.598 184.605 647.979 167.896C642.566 164.404 636.295 161.073 635.973 161.61Z" fill="#0AC2D4"/>
<path d="M616.625 175.74C616.411 176.063 615.928 176.17 615.5 176.009C615.071 175.848 614.267 176.439 613.57 177.352C612.07 179.394 601.457 188.42 595.883 192.449C592.989 194.545 590.47 195.78 587.04 196.909C583.61 197.983 582.592 198.52 583.342 198.789C584.521 199.165 584.039 199.649 581.627 200.455C580.609 200.777 580.984 200.831 582.86 200.562C585.003 200.347 585.432 200.401 584.896 200.938C584.521 201.314 583.342 201.798 582.216 202.013L580.18 202.442L582.484 202.496C583.717 202.496 584.735 202.765 584.735 203.033C584.735 203.248 585.539 203.41 586.504 203.302C588.058 203.141 588.112 203.195 587.254 203.839C586.718 204.269 584.682 204.968 582.699 205.505C580.769 205.988 578.893 206.579 578.572 206.794C578.304 207.063 577.125 207.547 575.999 207.923C572.623 208.997 574.07 208.997 578.036 207.923C594.436 203.517 602.583 199.756 614.374 191.106C616.357 189.656 617.912 188.312 617.751 188.205C617.644 188.044 615.071 189.441 612.07 191.267C604.084 196.049 596.58 199.702 592.185 200.938C588.273 202.013 586.504 202.013 589.345 200.938C593.954 199.165 604.673 192.718 611.212 187.775C615.178 184.766 618.876 181.22 618.608 180.683C618.501 180.522 618.983 180.092 619.627 179.77C620.27 179.447 620.913 178.856 621.074 178.48C621.288 177.836 621.074 177.836 620.055 178.427C618.769 179.071 612.766 183.961 611.802 185.089C608.532 188.903 594.168 198.091 589.184 199.541C584.092 201.046 585.057 200.24 592.775 196.318C599.474 192.987 602.261 191.214 605.102 188.581C606.12 187.614 608.318 185.787 609.926 184.551C611.534 183.262 613.731 181.328 614.749 180.2L616.625 178.158L614.535 179.877C613.356 180.791 612.284 181.489 612.177 181.328C611.748 180.898 615.339 177.03 617 176.116C618.072 175.579 618.394 175.203 617.858 175.149C617.376 175.149 616.786 175.418 616.625 175.74Z" fill="#0AC2D4"/>
<path d="M631.686 190.031C631.9 190.569 635.706 198.52 640.261 207.707C644.817 216.948 648.515 224.631 648.515 224.846C648.515 225.061 646.907 223.234 644.924 220.763C637.367 211.361 630.453 205.934 626.916 206.687C624.933 207.063 624.665 207.869 625.737 210.34C626.165 211.468 626.487 212.489 626.38 212.543C626.273 212.65 625.469 212.435 624.557 212.113C622.414 211.307 621.074 212.274 621.288 214.316C621.395 215.444 621.235 215.659 620.377 215.551C619.412 215.337 619.412 215.444 620.591 216.733C621.878 218.077 623.861 218.614 623.861 217.593C623.861 217.324 623.593 216.519 623.271 215.766C622.896 215.014 622.789 214.047 622.95 213.564C623.271 212.811 623.646 212.919 626.005 214.101C629.381 215.82 629.971 215.014 627.934 211.522C626.273 208.674 626.219 207.922 627.666 207.922C631.954 207.922 639.296 215.337 655.268 235.645C655.59 236.075 656.019 236.397 656.233 236.397C657.037 236.397 656.34 234.732 653.232 229.467C650.177 224.255 644.335 213.134 635.545 195.673C633.669 192.073 632.007 189.118 631.793 189.118C631.579 189.118 631.525 189.548 631.686 190.031Z" fill="#0AC2D4"/>
<path d="M464.948 192.772C464.626 192.987 462.965 194.813 461.196 196.909C459.427 198.95 456.051 202.872 453.693 205.505C451.334 208.191 448.065 211.898 446.457 213.832C444.849 215.713 442.544 218.399 441.365 219.742C437.131 224.417 433.487 228.876 433.755 228.876C434.237 228.876 462.697 196.694 464.787 193.792C465.859 192.288 465.912 192.073 464.948 192.772Z" fill="#0AC2D4"/>
<path d="M466.234 209.749C463.769 212.489 460.553 216.304 459.052 218.184C457.605 220.065 453.853 224.47 450.745 228.07C447.636 231.616 444.796 235.055 444.367 235.592C443.027 237.419 452.406 227.694 454.389 225.115C457.391 221.354 464.465 213.457 468.914 208.836C472.13 205.559 472.719 204.699 471.808 204.699C471.058 204.699 469.182 206.365 466.234 209.749Z" fill="#0AC2D4"/>
<path d="M471.862 206.956L470.307 208.729L472.076 207.17C472.987 206.257 473.791 205.505 473.791 205.397C473.791 204.968 473.362 205.344 471.862 206.956Z" fill="#0AC2D4"/>
<path d="M475.721 208.46C474.113 210.286 469.557 215.498 465.645 220.172C455.783 231.885 453.8 234.249 454.121 234.249C454.282 234.249 457.605 230.434 461.518 225.76C467.788 218.345 473.738 211.522 478.025 206.687C478.776 205.881 479.204 205.236 479.044 205.236C478.883 205.236 477.382 206.687 475.721 208.46Z" fill="#0AC2D4"/>
<path d="M469.718 211.791C468.217 213.349 465.109 216.787 462.804 219.474C460.446 222.106 457.98 224.954 457.23 225.76C456.48 226.619 456.051 227.264 456.212 227.264C456.426 227.264 460.178 223.127 464.626 218.131C469.128 213.08 472.666 208.997 472.558 208.997C472.505 208.997 471.219 210.287 469.718 211.791Z" fill="#0AC2D4"/>
<path d="M461.946 218.238C452.674 228.714 446.457 236.021 445.439 237.633C444.528 239.137 445.492 238.117 453.639 228.553C457.176 224.47 461.893 219.044 464.09 216.519C470.147 209.641 470.254 209.534 469.932 209.534C469.771 209.534 466.181 213.456 461.946 218.238Z" fill="#0AC2D4"/>
<path d="M584.735 214.961C584.735 217.002 586.611 222.644 588.862 227.372C591.649 233.335 592.614 234.141 590.202 228.5C589.291 226.512 587.951 222.644 587.147 220.011C585.754 215.337 584.735 213.242 584.735 214.961Z" fill="#0AC2D4"/>
<path d="M453.907 229.789L452.085 231.831L454.121 230.004C455.944 228.231 456.372 227.802 455.944 227.802C455.836 227.802 454.925 228.715 453.907 229.789Z" fill="#0AC2D4"/>
<path d="M580.716 229.682C583.342 232.046 590.095 236.559 590.417 236.237C590.577 236.075 589.72 235.269 588.487 234.464C587.308 233.604 585.057 231.992 583.503 230.864C579.644 228.016 578.143 227.372 580.716 229.682Z" fill="#0AC2D4"/>
<path d="M450.423 233.819L448.869 235.592L450.637 234.034C451.549 233.12 452.353 232.368 452.353 232.261C452.353 231.831 451.924 232.207 450.423 233.819Z" fill="#0AC2D4"/>
<path d="M413.549 256.008C413.388 256.491 413.281 257.566 413.281 258.318C413.335 259.392 413.442 259.231 413.763 257.619C414.192 255.309 414.138 254.557 413.549 256.008Z" fill="#0AC2D4"/>
<path d="M410.387 275.726C409.476 281.259 409.261 284.107 409.69 283.623C410.065 283.247 411.727 271.32 411.512 270.675C411.405 270.353 410.869 272.663 410.387 275.726Z" fill="#0AC2D4"/>
<path d="M480.223 281.42C477.436 284.268 473.577 288.566 471.701 290.93C467.038 296.733 467.145 296.571 467.735 296.571C468.003 296.571 471.272 293.133 474.917 288.942C481.616 281.259 485.85 276.155 485.475 276.155C485.368 276.155 483.01 278.519 480.223 281.42Z" fill="#0AC2D4"/>
<path d="M414.085 296.84C413.602 297.538 413.227 298.291 413.227 298.505C413.227 298.72 412.638 299.634 411.941 300.547C411.244 301.46 410.226 303.18 409.636 304.362C408.993 305.544 407.975 306.994 407.332 307.585L406.099 308.66L406.421 304.899C406.689 301.568 406.581 301.783 405.724 306.779C405.188 309.896 404.706 312.689 404.706 313.012C404.652 313.441 406.099 313.28 409.1 312.528C412.584 311.615 413.227 311.346 412.155 311.077C410.869 310.755 410.869 310.701 412.959 309.627C414.138 308.982 416.979 307.102 419.284 305.436C423.303 302.481 424.536 301.299 422.339 302.481C421.749 302.804 421.052 302.965 420.784 302.804C420.57 302.642 419.284 303.18 417.997 303.986C413.388 306.887 409.422 309.036 409.1 308.767C408.94 308.606 409.315 307.8 409.851 306.941C411.298 304.899 414.674 298.667 415.318 296.894C416.014 295.121 415.264 295.067 414.085 296.84Z" fill="#0AC2D4"/>
<path d="M460.447 13.4317C462.216 15.2047 463.77 16.6553 463.877 16.6553C464.038 16.6553 462.752 15.2047 460.983 13.4317C459.214 11.6587 457.66 10.2081 457.553 10.2081C457.392 10.2081 458.678 11.6587 460.447 13.4317Z" fill="#0AC2D4"/>
<path d="M563.245 20.1477C563.245 21.3297 563.352 21.7595 563.459 21.0611C563.566 20.4163 563.566 19.4493 563.459 18.912C563.298 18.4285 563.191 18.9657 563.245 20.1477Z" fill="#0AC2D4"/>
<path d="M467.682 23.2637C467.682 23.3174 469.558 25.1979 471.863 27.4007L475.99 31.4302L471.97 27.2395C468.272 23.4249 467.682 22.8339 467.682 23.2637Z" fill="#0AC2D4"/>
<path d="M663.309 41.6385C662.023 42.9816 661.058 44.0562 661.219 44.0562C661.379 44.0562 662.559 42.9816 663.845 41.6385C665.131 40.2953 666.096 39.2207 665.935 39.2207C665.774 39.2207 664.595 40.2953 663.309 41.6385Z" fill="#0AC2D4"/>
<path d="M664.381 43.7874C663.095 45.1305 662.13 46.2051 662.291 46.2051C662.451 46.2051 663.631 45.1305 664.917 43.7874C666.203 42.4442 667.168 41.3697 667.007 41.3697C666.846 41.3697 665.667 42.4442 664.381 43.7874Z" fill="#0AC2D4"/>
<path d="M530.551 59.9053C530.551 61.3559 530.658 61.9469 530.765 61.0873C530.872 60.2814 530.872 59.0994 530.765 58.401C530.658 57.7563 530.551 58.401 530.551 59.9053Z" fill="#0AC2D4"/>
<path d="M497.16 60.0666C497.16 61.4098 499.894 66.084 500.644 66.084C501.663 66.084 501.663 65.3318 500.644 64.4722C500.215 64.0961 499.84 63.5051 499.84 63.1827C499.787 62.3231 497.16 59.207 497.16 60.0666Z" fill="#0AC2D4"/>
<path d="M644.229 62.9677L642.674 64.7407L644.443 63.1826C646.051 61.6783 646.426 61.2485 645.997 61.2485C645.89 61.2485 645.14 62.0544 644.229 62.9677Z" fill="#0AC2D4"/>
<path d="M565.442 63.4514C564.745 63.72 565.067 63.8812 566.728 63.8812C567.961 63.9349 568.979 63.8275 568.979 63.72C568.979 63.2902 566.407 63.0753 565.442 63.4514Z" fill="#0AC2D4"/>
<path d="M553.651 68.8777C553.437 69.2001 552.472 69.3075 551.507 69.1464C550.274 68.9315 549.792 69.0389 550.006 69.415C550.274 69.7911 549.792 69.8985 548.666 69.7374C547.755 69.6299 547.005 69.6836 547.005 69.9523C547.005 70.2209 546.791 70.3283 546.576 70.1672C546.308 70.006 546.094 70.2746 546.094 70.7044C546.094 71.3492 546.523 71.4566 547.755 71.2417C548.666 71.0805 554.348 70.6507 560.404 70.2746C568.015 69.8448 570.802 69.5224 569.515 69.2538C566.46 68.5554 553.973 68.2867 553.651 68.8777Z" fill="#0AC2D4"/>
<path d="M542.181 71.9404C538.215 72.6926 526.37 78.6563 521.386 82.4709C517.152 85.6408 516.241 86.1243 517.849 84.1901L518.867 83.0082L517.688 84.029C516.991 84.5662 516.616 85.2109 516.723 85.4259C516.884 85.6408 515.973 86.769 514.686 87.8973C512.167 90.2075 510.559 92.3029 512.489 90.7985C513.025 90.3687 513.614 89.8852 513.775 89.724C515.437 87.951 518.867 85.5333 519.296 85.8019C519.617 85.9631 519.671 85.8557 519.51 85.587C519.135 84.996 520.582 84.0827 521.44 84.2976C521.707 84.3513 521.761 84.1364 521.6 83.8678C521.279 83.3842 522.779 82.4709 523.583 82.6321C523.798 82.6858 523.959 82.5246 523.959 82.2023C523.959 81.665 527.657 79.8383 528.407 79.9995C528.675 80.0532 528.729 79.8383 528.568 79.5696C528.407 79.301 530.39 78.1727 532.963 77.0982C535.535 75.97 537.733 74.9491 537.894 74.7342C538.054 74.5731 538.43 74.3582 538.698 74.3044C539.019 74.2507 540.681 73.606 542.449 72.8538C545.665 71.5106 545.611 71.2957 542.181 71.9404Z" fill="#0AC2D4"/>
<path d="M538.966 76.0235C537.197 77.0443 537.84 77.0443 540.091 76.0235C541.109 75.5936 541.538 75.2713 541.109 75.2713C540.681 75.2713 539.716 75.5936 538.966 76.0235Z" fill="#0AC2D4"/>
<path d="M509.22 83.8139C507.772 85.2645 506.754 86.6614 506.969 86.8226C507.183 87.0375 507.344 86.9301 507.344 86.554C507.344 86.1779 507.558 86.0167 507.826 86.1779C508.04 86.3391 508.684 86.0167 509.22 85.4257C509.756 84.8347 509.97 84.3512 509.756 84.3512C509.488 84.3512 509.97 83.599 510.827 82.7394C511.685 81.826 512.275 81.1276 512.114 81.1276C511.953 81.1276 510.667 82.3096 509.22 83.8139Z" fill="#0AC2D4"/>
<path d="M499.465 84.4588C498.608 85.8557 498.822 86.6616 499.787 85.7483C500.323 85.2647 500.912 85.0498 501.127 85.2647C501.341 85.4797 501.341 85.2647 501.127 84.7275C500.751 83.6529 500.055 83.5455 499.465 84.4588Z" fill="#0AC2D4"/>
<path d="M511.578 85.7482C509.916 87.5749 509.863 87.6286 511.256 86.769C512.489 85.9631 514.258 83.814 513.614 83.814C513.507 83.814 512.596 84.6736 511.578 85.7482Z" fill="#0AC2D4"/>
<path d="M453.104 85.4793C453.747 86.1241 457.124 86.6613 456.749 86.0703C456.588 85.8017 455.57 85.4256 454.551 85.3182C453.533 85.2107 452.836 85.2644 453.104 85.4793Z" fill="#0AC2D4"/>
<path d="M609.177 87.8434C610.785 89.4552 612.232 90.7983 612.339 90.7983C612.5 90.7983 611.321 89.4552 609.713 87.8434C608.105 86.2316 606.658 84.8884 606.551 84.8884C606.39 84.8884 607.569 86.2316 609.177 87.8434Z" fill="#0AC2D4"/>
<path d="M507.612 95.204C505.95 97.0844 503.485 100.469 502.091 102.726C500.751 104.982 499.411 106.755 499.197 106.594C498.983 106.433 498.929 106.755 499.143 107.239C499.358 107.883 499.304 108.045 498.875 107.776C498.447 107.507 498.34 107.669 498.554 108.206C498.715 108.689 498.608 109.065 498.286 109.065C497.964 109.065 497.75 109.227 497.804 109.442C497.857 109.71 497.321 111.698 496.678 113.901C494.588 120.724 492.98 127.279 493.301 127.601C493.516 127.762 493.301 128.138 492.926 128.353C492.39 128.729 492.337 129.052 492.873 130.019C493.355 130.932 493.355 132.437 492.926 136.359C492.551 139.206 492.122 141.731 491.854 142.054C491.586 142.376 491.64 143.88 491.962 145.492C492.444 147.695 492.39 148.447 491.908 148.769C491.479 149.038 491.426 149.844 491.694 151.51L492.122 153.927L493.141 149.898C493.891 146.782 494.159 143.504 494.266 135.606C494.427 124.807 494.641 123.464 497.643 114.116C499.572 108.26 504.074 100.415 508.201 95.7412C509.863 93.8608 511.095 92.249 510.935 92.0878C510.827 91.9266 509.327 93.3235 507.612 95.204Z" fill="#0AC2D4"/>
<path d="M613.464 95.9023C614.375 97.0842 615.662 98.6423 616.251 99.3945C616.895 100.147 617.323 100.791 617.27 100.845C617.163 101.06 617.806 101.114 618.02 100.899C618.127 100.791 616.787 99.1259 614.965 97.2454C613.196 95.3113 612.5 94.7203 613.464 95.9023Z" fill="#0AC2D4"/>
<path d="M501.823 96.9771C500.698 98.2665 500.108 99.2336 500.483 99.1261C501.127 98.8575 504.45 94.5594 504.021 94.5594C503.914 94.5594 502.895 95.6339 501.823 96.9771Z" fill="#0AC2D4"/>
<path d="M620.486 106.809C623.273 111.913 624.077 112.88 622.576 109.334C620.861 105.197 619.735 103.209 618.931 102.887C618.556 102.726 619.253 104.499 620.486 106.809Z" fill="#0AC2D4"/>
<path d="M468.218 113.31C470.041 114.277 476.526 116.587 477.437 116.587C477.651 116.587 477.866 116.372 477.866 116.05C477.866 115.567 468.326 112.289 466.986 112.289C466.664 112.343 467.2 112.773 468.218 113.31Z" fill="#0AC2D4"/>
<path d="M491.158 115.513C490.675 117.017 490.515 118.091 490.783 117.93C491.265 117.608 492.551 113.364 492.23 113.041C492.069 112.934 491.64 114.062 491.158 115.513Z" fill="#0AC2D4"/>
<path d="M498.929 115.083C498.929 115.459 498.715 116.211 498.5 116.695C498.286 117.232 498.339 117.662 498.661 117.662C499.358 117.662 499.947 115.405 499.358 114.814C499.143 114.599 498.929 114.707 498.929 115.083Z" fill="#0AC2D4"/>
<path d="M496.892 120.993C496.464 122.497 496.196 123.894 496.356 124.001C496.517 124.162 496.624 124.109 496.624 123.948C496.624 123.786 497.107 122.39 497.696 120.885C498.286 119.435 498.5 118.199 498.232 118.199C497.964 118.199 497.375 119.435 496.892 120.993Z" fill="#0AC2D4"/>
<path d="M659.182 138.454C660.254 138.562 662.076 138.562 663.202 138.454C664.274 138.347 663.362 138.239 661.165 138.239C658.968 138.239 658.056 138.347 659.182 138.454Z" fill="#0AC2D4"/>
<path d="M487.513 147.426C487.513 150.704 487.138 152.316 485.423 156.936C484.297 159.998 483.172 163.115 482.957 163.867C482.261 166.231 483.547 164.297 484.833 161.019C485.476 159.3 486.173 158.011 486.28 158.172C486.709 158.548 484.405 165.801 482.689 169.616C481.886 171.442 481.296 173.054 481.51 173.215C481.832 173.591 485.316 166.661 485.369 165.586C485.369 165.21 485.584 165.049 485.905 165.21C486.227 165.371 486.28 165.156 486.12 164.726C485.959 164.243 486.066 163.867 486.388 163.867C486.709 163.867 486.816 163.544 486.656 163.115C486.495 162.685 486.602 162.201 486.924 161.986C487.245 161.825 487.352 161.073 487.192 160.267C486.977 159.407 487.031 158.978 487.352 159.193C487.62 159.407 487.781 158.816 487.62 157.849C487.46 156.936 487.567 156.345 487.835 156.506C488.103 156.667 488.263 155.862 488.156 154.68C488.049 153.498 488.21 151.832 488.585 150.972C489.014 149.952 489.067 149.092 488.746 148.662C488.478 148.34 488.317 146.997 488.371 145.707C488.424 144.471 488.263 143.451 487.995 143.451C487.728 143.451 487.513 145.224 487.513 147.426Z" fill="#0AC2D4"/>
<path d="M478.831 146.943C478.67 147.695 478.777 148.286 478.991 148.286C479.259 148.286 479.474 147.695 479.474 146.943C479.474 146.191 479.366 145.6 479.259 145.6C479.152 145.6 478.938 146.191 478.831 146.943Z" fill="#0AC2D4"/>
<path d="M490.622 157.957C490.139 159.032 490.032 159.891 490.139 162.524C490.246 164.512 490.3 164.565 490.782 163.33C491.372 161.879 491.211 156.668 490.622 157.957Z" fill="#0AC2D4"/>
<path d="M363.706 164.028C363.706 164.135 364.51 164.887 365.474 165.801L367.19 167.359L365.635 165.586C364.135 163.974 363.706 163.598 363.706 164.028Z" fill="#0AC2D4"/>
<path d="M298.586 171.496L295.906 174.343L298.747 171.657C301.32 169.185 301.802 168.702 301.373 168.702C301.32 168.702 300.033 169.991 298.586 171.496Z" fill="#0AC2D4"/>
<path d="M300.462 173.269C299.176 174.612 298.211 175.687 298.372 175.687C298.533 175.687 299.712 174.612 300.998 173.269C302.284 171.926 303.249 170.851 303.088 170.851C302.927 170.851 301.748 171.926 300.462 173.269Z" fill="#0AC2D4"/>
<path d="M473.846 178.212C473.096 179.071 472.56 180.199 472.613 180.79C472.828 182.295 473.792 181.919 474.007 180.307C474.168 178.91 475.775 177.997 476.847 178.641C477.169 178.856 477.115 178.534 476.687 177.889C475.775 176.439 475.507 176.439 473.846 178.212Z" fill="#0AC2D4"/>
<path d="M480.117 178.319C480.814 179.125 481.618 179.716 481.886 179.609C482.207 179.501 484.565 181.597 487.084 184.283C491.158 188.581 492.98 189.978 492.819 188.689C492.766 188.474 490.675 186.378 488.103 184.014C485.209 181.382 483.493 179.448 483.654 178.964C483.869 178.427 483.708 178.319 483.279 178.642C482.85 178.857 481.939 178.588 481.028 177.89C478.938 176.331 478.616 176.493 480.117 178.319Z" fill="#0AC2D4"/>
<path d="M482.154 181.758C482.154 181.865 482.957 182.617 483.922 183.531L485.637 185.089L484.083 183.316C482.582 181.704 482.154 181.328 482.154 181.758Z" fill="#0AC2D4"/>
<path d="M494.481 184.444C494.481 184.551 495.285 185.303 496.249 186.217L497.964 187.775L496.41 186.002C494.909 184.39 494.481 184.014 494.481 184.444Z" fill="#0AC2D4"/>
<path d="M471.327 185.787C471.756 186.056 472.077 186.486 472.077 186.754C472.131 187.023 472.56 187.184 473.042 187.077C473.525 187.023 476.204 188.527 478.991 190.461C481.778 192.396 484.78 194.33 485.637 194.76L487.245 195.619L485.852 194.383C479.527 188.796 476.097 186.271 474.757 186.163C473.953 186.056 472.721 185.841 471.97 185.626C471.059 185.411 470.845 185.411 471.327 185.787Z" fill="#0AC2D4"/>
<path d="M486.656 187.345C486.763 187.883 487.031 188.313 487.299 188.313C487.567 188.313 488.156 188.527 488.585 188.796C489.014 189.065 488.799 188.635 488.103 187.883C486.548 186.163 486.495 186.163 486.656 187.345Z" fill="#0AC2D4"/>
<path d="M468.111 188.903C467.95 189.064 467.897 189.655 468.058 190.246C468.272 191.052 468.54 191.16 469.076 190.676C469.451 190.354 469.612 189.763 469.451 189.333C469.183 188.527 468.594 188.366 468.111 188.903Z" fill="#0AC2D4"/>
<path d="M469.934 192.933C469.237 193.739 468.647 194.652 468.594 194.867C468.54 195.082 467.629 196.157 466.611 197.177C465.592 198.198 463.77 200.24 462.591 201.69C461.412 203.087 459.589 205.129 458.571 206.15C457.553 207.224 456.963 207.923 457.231 207.761C457.553 207.6 456.052 209.32 453.908 211.576C451.764 213.833 449.996 215.82 449.996 216.035C449.996 216.25 449.353 217.164 448.549 218.023C447.691 218.883 445.976 220.871 444.636 222.429C443.296 223.933 441.581 225.867 440.777 226.62C439.92 227.425 439.276 228.231 439.276 228.5C439.276 229.091 436.597 232.368 436.114 232.368C435.364 232.422 434.453 233.282 434.774 233.765C435.042 234.195 432.952 237.526 431.773 238.547C431.076 239.192 425.985 245.907 425.449 246.928C424.377 249.024 425.449 248.755 427.432 246.445C428.504 245.209 430.487 243.006 431.934 241.448C434.667 238.493 434.989 237.848 433.542 238.386C432.899 238.601 433.113 238.117 434.185 236.881C436.972 233.711 438.151 232.744 438.312 233.282C438.58 233.98 441.688 229.951 441.688 228.876C441.742 228.446 442.01 228.124 442.331 228.178C442.653 228.231 444.315 226.673 446.03 224.685C450.8 219.098 451.121 218.561 447.155 222.697L443.457 226.458L446.083 222.966C447.477 221.032 449.299 218.722 450.049 217.862C450.853 216.949 452.676 214.907 454.069 213.242C455.516 211.576 459.911 206.794 463.877 202.604C467.79 198.413 470.577 195.136 470.041 195.351C469.398 195.512 469.719 195.028 470.845 194.007C472.667 192.449 472.774 192.396 473.792 193.309C474.918 194.222 474.918 194.222 473.9 192.987C473.31 192.342 472.774 191.912 472.613 192.073C472.453 192.234 472.077 192.127 471.756 191.858C471.381 191.59 470.684 191.966 469.934 192.933Z" fill="#0AC2D4"/>
<path d="M495.821 193.309C497.75 195.404 499.09 196.479 497.75 194.867C497.428 194.437 497.268 193.954 497.428 193.792C497.589 193.578 497.536 193.524 497.321 193.685C497.107 193.846 496.249 193.309 495.338 192.503C494.373 191.59 494.534 191.966 495.821 193.309Z" fill="#0AC2D4"/>
<path d="M489.335 192.718C490.139 193.685 490.193 193.953 489.603 193.953C489.175 193.953 488.585 193.792 488.263 193.524C487.62 193.094 490.032 195.35 493.569 198.628C496.035 200.938 496.732 201.851 495.445 201.207C495.07 200.992 495.231 201.26 495.767 201.69C496.356 202.174 497.16 202.55 497.536 202.55C497.911 202.55 498.179 202.765 498.125 203.033C498.018 203.302 499.572 205.236 501.609 207.278C503.592 209.319 505.2 211.253 505.2 211.576C505.2 211.898 505.575 212.059 506.004 211.898C506.433 211.683 506.808 211.844 506.808 212.167C506.808 212.489 507.397 213.026 508.094 213.349C508.898 213.725 509.273 214.262 509.112 214.746C508.898 215.229 509.112 215.444 509.541 215.337C509.97 215.283 511.203 216.089 512.328 217.217C513.507 218.292 514.633 219.098 514.901 218.883C515.49 218.507 515.544 218.077 514.954 218.238C514.472 218.399 510.024 213.886 510.024 213.295C510.024 213.08 509.38 212.597 508.63 212.221C507.719 211.737 507.344 211.146 507.504 210.501C507.719 209.749 507.504 209.588 506.54 209.749C505.521 209.964 505.307 209.803 505.468 208.943C505.575 208.298 505.361 207.922 504.878 207.922C504.449 207.922 504.128 207.707 504.128 207.439C504.128 207.224 503.538 206.364 502.788 205.558C502.038 204.752 501.448 204.269 501.448 204.43C501.448 204.591 500.966 204.269 500.323 203.678C499.679 203.087 499.358 202.389 499.519 202.066C499.733 201.798 499.572 201.368 499.251 201.153C498.822 200.938 498.768 200.992 498.983 201.368C499.572 202.389 498.875 202.12 497.696 200.938C497.107 200.347 496.785 199.863 496.946 199.863C497.16 199.863 497 199.541 496.624 199.111C496.303 198.681 495.713 198.413 495.338 198.574C494.481 198.896 491.586 196.371 492.015 195.673C492.176 195.35 492.069 194.921 491.747 194.706C491.318 194.437 491.265 194.544 491.533 195.028C491.801 195.458 491.694 195.619 491.211 195.458C490.782 195.297 490.461 194.813 490.461 194.33C490.461 193.846 489.978 193.04 489.389 192.503C488.371 191.536 488.371 191.536 489.335 192.718Z" fill="#0AC2D4"/>
<path d="M471.381 194.33C471.327 194.598 471.273 194.974 471.22 195.297C471.059 196.586 460.715 209.695 452.943 218.453C450.317 221.462 444.636 227.963 440.348 232.905C436.061 237.902 431.666 242.952 430.54 244.134C428.825 246.015 425.877 250.528 427.378 249.023C428.343 248.003 442.224 232.314 445.708 228.231C447.637 225.975 449.46 223.987 449.835 223.826C450.746 223.45 446.566 229.252 443.671 232.422C442.278 233.926 440.563 235.86 439.866 236.72C439.116 237.58 437.508 239.46 436.221 240.911C432.952 244.618 432.148 246.391 435.257 243.113C437.133 241.126 437.561 240.857 436.865 242.039C436.114 243.436 436.275 243.328 438.205 241.341C439.437 240.051 440.241 238.815 440.027 238.439C439.812 238.117 439.866 238.009 440.188 238.171C440.456 238.386 441.42 237.795 442.224 236.935C443.028 236.075 443.886 235.484 444.1 235.592C444.314 235.753 444.85 235.431 445.226 234.893C445.922 234.087 445.869 234.034 445.065 234.732C444.529 235.108 444.1 235.216 444.1 234.947C444.1 234.302 446.351 232.153 447.048 232.153C447.369 232.1 447.584 231.885 447.584 231.616C447.584 230.703 449.996 227.801 450.692 227.963C451.014 228.016 451.282 227.801 451.228 227.425C451.068 226.619 453.587 223.772 454.444 223.772C454.819 223.718 455.034 223.503 454.98 223.181C454.927 222.912 455.409 222.053 455.998 221.354C456.588 220.602 456.856 220.333 456.642 220.763C456.374 221.247 456.481 221.408 456.91 221.139C457.231 220.924 457.392 220.548 457.231 220.28C457.07 220.065 457.446 219.259 458.089 218.614C458.678 217.916 459 217.701 458.785 218.131C458.41 218.829 458.464 218.829 459.268 218.184C459.804 217.754 460.072 217.325 459.965 217.217C459.697 216.949 460.715 215.659 462.966 213.51C463.77 212.704 464.306 211.845 464.092 211.522C463.931 211.2 464.038 211.146 464.306 211.307C464.627 211.522 465.163 211.307 465.539 210.877C465.914 210.448 466.021 210.072 465.807 210.072C465.592 210.072 466.396 209.051 467.629 207.815C468.808 206.526 469.826 205.182 469.826 204.753C469.826 204.323 470.202 203.517 470.737 202.98C471.22 202.442 471.381 202.013 471.059 202.013C470.362 202.013 466.932 205.72 459.161 214.8C455.784 218.668 452.943 221.784 452.783 221.677C452.676 221.515 452.997 220.817 453.533 220.118C454.123 219.366 455.891 217.002 457.606 214.853C459.268 212.65 463.77 207.278 467.682 202.872C471.541 198.52 474.543 194.759 474.382 194.545C474.168 194.383 473.685 194.706 473.203 195.297C472.399 196.371 472.399 196.371 472.774 195.136C473.042 194.276 472.881 193.954 472.292 193.954C471.809 193.954 471.381 194.115 471.381 194.33Z" fill="#0AC2D4"/>
<path d="M478.402 194.652C478.402 194.759 479.206 195.511 480.17 196.425L481.886 197.983L480.331 196.21C478.831 194.598 478.402 194.222 478.402 194.652Z" fill="#0AC2D4"/>
<path d="M497.16 197.607C497.16 197.876 497.857 198.735 498.661 199.541C499.894 200.723 500.323 200.831 500.805 200.24C501.234 199.703 501.127 199.541 500.323 199.488C498.983 199.38 497.589 198.306 498.018 197.661C498.179 197.392 498.018 197.177 497.75 197.177C497.428 197.177 497.16 197.392 497.16 197.607Z" fill="#0AC2D4"/>
<path d="M459.911 200.938C459.375 201.529 459.053 202.12 459.214 202.282C459.375 202.443 459.911 201.959 460.393 201.207C461.465 199.595 461.251 199.488 459.911 200.938Z" fill="#0AC2D4"/>
<path d="M501.127 201.046C500.966 201.261 501.341 201.476 501.931 201.476C502.52 201.476 503.11 201.261 503.324 200.992C503.485 200.67 503.11 200.509 502.467 200.562C501.877 200.616 501.234 200.831 501.127 201.046Z" fill="#0AC2D4"/>
<path d="M502.842 202.496C503.27 202.98 505.146 203.087 505.414 202.657C505.521 202.443 504.932 202.281 504.074 202.281C503.27 202.228 502.681 202.335 502.842 202.496Z" fill="#0AC2D4"/>
<path d="M633.295 202.442C633.295 202.98 634.474 204.162 635.01 204.162C635.278 204.162 635.171 203.678 634.796 203.087C634.099 202.013 633.295 201.636 633.295 202.442Z" fill="#0AC2D4"/>
<path d="M474.06 204.538L472.774 206.042L474.382 204.699C475.293 203.947 476.097 203.302 476.204 203.194C476.312 203.141 476.204 203.087 475.883 203.087C475.615 203.087 474.811 203.732 474.06 204.538Z" fill="#0AC2D4"/>
<path d="M455.302 206.15C454.123 207.439 453.908 207.815 454.712 207.224C455.838 206.472 457.874 204.162 457.392 204.162C457.285 204.162 456.32 205.021 455.302 206.15Z" fill="#0AC2D4"/>
<path d="M508.416 205.666C508.416 205.935 509.059 206.687 509.863 207.439L511.256 208.729L510.024 206.956C508.684 205.183 508.416 204.914 508.416 205.666Z" fill="#0AC2D4"/>
<path d="M491.801 207.654C492.819 208.675 493.73 209.534 493.891 209.534C494.052 209.534 493.355 208.675 492.337 207.654C491.318 206.633 490.407 205.773 490.247 205.773C490.086 205.773 490.782 206.633 491.801 207.654Z" fill="#0AC2D4"/>
<path d="M477.008 209.104L475.454 210.877L477.223 209.319C478.134 208.406 478.938 207.654 478.938 207.546C478.938 207.117 478.509 207.493 477.008 209.104Z" fill="#0AC2D4"/>
<path d="M471.381 209.373C469.344 211.845 469.237 212.328 471.059 210.609C472.131 209.588 473.042 208.675 473.042 208.567C473.042 208.137 472.024 208.621 471.381 209.373Z" fill="#0AC2D4"/>
<path d="M451.336 210.609C450.8 211.2 450.639 211.684 450.907 211.684C451.604 211.684 452.944 210.126 452.568 209.803C452.408 209.642 451.872 210.018 451.336 210.609Z" fill="#0AC2D4"/>
<path d="M464.949 214.477C464.038 215.767 463.984 216.035 464.627 215.498C465.592 214.746 466.879 212.758 466.396 212.758C466.235 212.758 465.592 213.564 464.949 214.477Z" fill="#0AC2D4"/>
<path d="M447.048 215.445C446.512 216.036 446.351 216.519 446.673 216.519C446.994 216.519 447.53 216.036 447.852 215.445C448.173 214.854 448.334 214.37 448.227 214.37C448.12 214.37 447.584 214.854 447.048 215.445Z" fill="#0AC2D4"/>
<path d="M467.307 217.056C466.343 217.593 465.217 218.775 464.788 219.635C464.36 220.495 463.127 221.838 462.055 222.644C461.037 223.45 460.286 224.309 460.447 224.524C460.769 225.115 458.625 227.909 458.035 227.533C457.821 227.372 457.285 227.694 456.91 228.231C456.213 229.037 456.266 229.091 457.124 228.392C458.625 227.21 458.196 228.661 456.427 230.649C455.57 231.67 454.819 232.691 454.819 232.852C454.819 233.067 457.392 230.112 460.501 226.351C463.663 222.59 466.986 218.668 467.843 217.701C469.773 215.713 469.666 215.605 467.307 217.056Z" fill="#0AC2D4"/>
<path d="M639.191 218.399C640.209 219.42 641.12 220.28 641.281 220.28C641.442 220.28 640.745 219.42 639.726 218.399C638.708 217.379 637.797 216.519 637.636 216.519C637.475 216.519 638.172 217.379 639.191 218.399Z" fill="#0AC2D4"/>
<path d="M361.83 219.85L359.15 222.697L361.991 220.011C364.563 217.54 365.046 217.056 364.617 217.056C364.563 217.056 363.277 218.345 361.83 219.85Z" fill="#0AC2D4"/>
<path d="M524.119 217.539C525.298 217.969 525.406 218.614 524.387 219.312C523.905 219.581 524.173 219.689 525.138 219.527C526.746 219.259 527.71 220.656 526.531 221.515C526.049 221.838 526.102 221.891 526.799 221.676C527.442 221.462 527.925 221.73 528.246 222.59C528.514 223.235 528.729 223.557 528.729 223.288C528.782 223.073 529.372 223.235 530.122 223.718C531.355 224.524 531.408 224.524 531.087 223.664C530.069 220.817 525.834 217.002 523.851 217.11C523.476 217.11 523.583 217.325 524.119 217.539Z" fill="#0AC2D4"/>
<path d="M461.144 218.507C460.125 219.742 459.482 220.817 459.857 220.817C459.965 220.817 460.608 220.065 461.251 219.205C462.484 217.432 462.43 217.056 461.144 218.507Z" fill="#0AC2D4"/>
<path d="M519.349 220.387C519.51 220.871 519.457 221.408 519.242 221.515C519.028 221.623 519.135 221.677 519.457 221.569C519.832 221.515 521.011 222.268 522.136 223.235C523.262 224.255 524.28 225.061 524.441 225.008C525.406 224.9 525.513 225.222 524.977 226.297C524.441 227.264 524.495 227.372 525.299 227.103C525.942 226.834 526.156 226.995 525.995 227.694C525.888 228.231 525.406 228.554 524.763 228.446C523.851 228.285 523.851 228.339 524.495 229.145C525.138 229.95 525.245 229.95 525.674 229.198C526.049 228.554 526.424 228.446 527.121 228.876C528.461 229.574 529.64 228.339 528.622 227.264C528.193 226.781 528.139 226.673 528.622 226.942C529.908 227.64 529.801 226.297 528.514 225.437C527.764 224.954 527.174 224.739 527.174 224.954C527.174 225.169 526.799 224.846 526.37 224.202C525.834 223.45 525.138 223.127 524.387 223.235C523.691 223.396 522.887 223.02 522.244 222.321C521.708 221.73 521.279 221.354 521.279 221.623C521.279 221.838 520.796 221.462 520.153 220.763C519.403 219.904 519.135 219.742 519.349 220.387Z" fill="#0AC2D4"/>
<path d="M503.002 223.342C502.252 224.202 500.162 226.512 498.286 228.607C496.41 230.649 493.945 233.55 492.766 234.947C489.282 239.353 485.316 243.866 479.956 249.507C473.524 256.277 469.451 260.951 471.863 258.748C472.828 257.835 473.578 257.351 473.578 257.62C473.578 257.835 474.06 257.62 474.65 257.083C475.24 256.545 475.561 255.901 475.4 255.632C475.025 255.041 476.74 252.946 477.33 253.322C477.544 253.483 478.027 253.214 478.402 252.784C478.777 252.355 478.884 251.979 478.616 251.979C478.402 251.979 478.938 251.334 479.849 250.474C480.76 249.668 484.512 245.639 488.103 241.502C491.747 237.365 495.553 233.013 496.624 231.831C503.11 224.739 504.664 222.912 504.664 222.429C504.664 221.623 504.45 221.73 503.002 223.342Z" fill="#0AC2D4"/>
<path d="M507.719 223.557C508.255 224.202 507.987 224.739 506.325 226.512C505.2 227.64 503.324 229.736 502.145 231.133C500.591 232.906 499.787 233.443 499.411 233.067C498.983 232.637 498.929 232.798 499.09 233.497C499.304 234.195 498.768 235.216 497.589 236.451C496.624 237.472 494.481 239.89 492.873 241.77C491.265 243.651 489.389 245.639 488.746 246.23C488.103 246.821 487.674 247.573 487.888 247.842C488.049 248.164 487.942 248.218 487.674 248.056C486.923 247.573 485.691 249.077 486.173 249.776C486.334 250.098 486.173 250.206 485.744 250.044C485.316 249.883 484.672 250.152 484.297 250.582C483.922 251.065 483.44 251.334 483.225 251.173C483.011 251.065 482.261 251.549 481.564 252.301L480.278 253.644L481.832 252.838C483.493 251.979 484.512 252.193 483.976 253.214C483.815 253.59 484.94 252.408 486.495 250.635C488.103 248.862 490.193 246.713 491.158 245.854C492.069 244.994 492.873 243.973 492.873 243.651C492.873 243.329 493.623 242.361 494.588 241.448C495.499 240.588 496.088 240.212 495.874 240.535C495.606 241.018 495.767 241.126 496.356 240.911C496.946 240.642 497.053 240.374 496.624 239.89C496.035 239.192 497.214 237.687 497.857 238.386C498.072 238.547 498.232 238.278 498.232 237.741C498.232 237.204 498.929 236.129 499.787 235.27C500.644 234.464 501.287 233.711 501.18 233.604C501.073 233.497 502.842 231.455 505.146 228.983C509.273 224.632 509.273 224.578 508.201 223.611C507.397 222.966 507.29 222.966 507.719 223.557Z" fill="#0AC2D4"/>
<path d="M504.396 226.082L502.359 228.607L504.718 226.351C505.95 225.115 506.915 223.933 506.754 223.826C506.593 223.665 505.575 224.685 504.396 226.082Z" fill="#0AC2D4"/>
<path d="M438.205 225.384C437.829 225.813 437.776 226.189 438.097 226.189C438.365 226.189 438.901 225.813 439.276 225.384C439.652 224.954 439.705 224.578 439.384 224.578C439.116 224.578 438.58 224.954 438.205 225.384Z" fill="#0AC2D4"/>
<path d="M508.255 229.252C506.593 230.864 505.2 232.422 505.2 232.637C505.2 232.905 504.718 233.281 504.128 233.443C503.538 233.604 503.056 233.98 503.056 234.249C503.056 234.571 502.199 235.645 501.18 236.72C500.162 237.741 499.304 238.977 499.304 239.406C499.304 239.782 498.983 239.997 498.554 239.836C497.911 239.567 496.196 242.576 496.517 243.49C496.571 243.758 496.41 243.919 496.089 243.919C495.445 243.919 492.337 247.143 492.337 247.788C492.337 248.056 492.069 248.11 491.694 247.895C491.372 247.68 491.265 247.734 491.479 248.11C491.64 248.432 491.586 248.808 491.265 249.023C490.997 249.185 490.729 249.561 490.729 249.829C490.729 250.098 491.801 249.238 493.141 247.895C494.481 246.606 495.553 245.424 495.553 245.263C495.553 245.101 496.249 244.295 497.053 243.49C497.857 242.684 498.5 241.878 498.5 241.717C498.5 241.394 499.787 239.836 502.949 236.559C503.86 235.592 504.664 234.517 504.664 234.195C504.664 233.872 504.932 233.819 505.2 233.98C505.521 234.141 505.736 234.087 505.736 233.872C505.736 233.604 507.022 232.046 508.576 230.38C511.149 227.586 511.471 227.425 512.382 228.124C513.079 228.607 513.186 228.876 512.703 228.876C512.328 228.876 512.114 228.983 512.275 229.145C512.435 229.306 511.578 230.488 510.345 231.777C506.808 235.592 504.128 238.762 504.128 239.191C504.128 239.46 504.503 239.621 504.986 239.621C505.414 239.621 505.682 239.406 505.468 239.138C505.2 238.654 506.111 237.741 506.915 237.741C507.558 237.741 508.041 236.935 507.397 236.935C506.915 236.935 507.022 236.666 507.558 236.075C508.041 235.645 508.63 235.377 508.952 235.592C509.273 235.753 509.327 235.538 509.166 235.054C508.898 234.463 509.166 234.087 509.97 233.872C510.56 233.711 510.935 233.389 510.828 233.12C510.667 232.905 511.31 231.831 512.221 230.756L513.883 228.876L512.596 227.586L511.31 226.297L508.255 229.252Z" fill="#0AC2D4"/>
<path d="M521.064 229.897C521.654 231.616 521.708 232.422 521.225 232.959C520.796 233.496 520.85 233.873 521.547 234.571C522.404 235.431 522.511 235.377 523.691 234.141C524.977 232.744 524.87 231.831 523.423 231.831C522.994 231.831 522.565 231.401 522.458 230.81C522.297 230.112 522.458 229.95 522.994 230.219C523.369 230.488 523.53 230.434 523.262 230.165C522.994 229.897 522.565 229.682 522.351 229.682C522.083 229.682 521.493 229.198 521.064 228.607C520.368 227.64 520.368 227.801 521.064 229.897Z" fill="#0AC2D4"/>
<path d="M103.228 231.294C104.836 232.905 106.283 234.249 106.39 234.249C106.551 234.249 105.372 232.905 103.764 231.294C102.156 229.682 100.709 228.339 100.602 228.339C100.441 228.339 101.62 229.682 103.228 231.294Z" fill="#0AC2D4"/>
<path d="M515.598 231.455C516.187 232.153 516.348 232.691 516.026 232.691C515.651 232.744 515.062 232.798 514.74 232.852C514.365 232.852 514.043 233.174 514.043 233.443C514.043 233.765 512.918 235.162 511.524 236.559C510.131 237.956 509.112 239.084 509.273 239.084C509.434 239.084 508.737 239.836 507.665 240.803C506.647 241.717 505.897 242.737 506.111 243.006C506.325 243.328 505.843 243.436 504.986 243.275C503.914 243.06 503.592 243.167 503.806 243.705C504.128 244.51 502.895 245.692 502.199 245.101C501.984 244.887 502.038 245.101 502.413 245.639C503.163 246.606 502.735 247.089 501.287 246.821C500.698 246.767 500.376 246.928 500.537 247.304C500.751 247.895 499.412 249.561 498.768 249.561C498.125 249.507 496.678 251.119 497 251.549C497.161 251.817 496.785 252.193 496.142 252.355C495.499 252.516 495.017 252.946 495.017 253.322C495.017 253.698 494.159 254.772 493.141 255.686C492.069 256.599 491.372 257.351 491.586 257.351C491.801 257.351 491.319 257.942 490.515 258.694C489.711 259.447 489.228 260.306 489.389 260.575C489.55 260.897 489.335 260.951 488.907 260.79C488.371 260.575 488.049 260.736 488.049 261.166C488.049 261.596 487.299 262.616 486.441 263.476C485.53 264.336 484.941 265.142 485.101 265.303C485.209 265.41 485.691 265.142 486.173 264.658C486.977 263.906 488.049 263.906 488.049 264.658C488.049 264.819 487.835 264.819 487.567 264.604C487.299 264.443 486.924 264.551 486.709 264.873C486.495 265.195 487.084 265.41 488.156 265.41C489.443 265.41 489.711 265.249 489.121 264.873C488.478 264.497 488.585 264.389 489.55 264.497C491.158 264.604 491.051 265.303 489.389 265.733C488.156 266.055 487.46 267.022 488.532 267.022C489.818 267.022 496.303 259.715 495.767 258.856C495.553 258.533 495.606 258.426 495.928 258.587C496.196 258.802 497.161 258.211 498.018 257.297C499.304 255.954 499.412 255.578 498.768 255.148C498.072 254.665 498.072 254.611 498.822 254.826C499.948 255.202 503.324 251.817 502.788 250.85C502.52 250.474 502.574 250.313 502.895 250.528C503.592 250.958 504.825 249.615 504.235 249.024C504.021 248.755 504.128 248.755 504.45 248.916C504.771 249.131 505.629 248.647 506.272 247.949C506.969 247.197 507.397 246.606 507.237 246.606C507.129 246.606 508.041 245.478 509.327 244.134C510.667 242.791 511.578 241.502 511.364 241.341C511.203 241.126 510.131 242.039 508.952 243.275C507.719 244.725 506.754 245.37 506.54 244.994C506.325 244.672 506.433 244.081 506.754 243.705C507.076 243.328 507.129 242.845 506.915 242.63C506.701 242.415 506.808 242.254 507.076 242.361C507.987 242.576 509.488 241.717 509.166 241.179C509.005 240.911 509.166 240.75 509.595 240.803C509.97 240.911 510.238 240.535 510.184 239.997C510.184 239.353 510.399 239.138 510.828 239.299C511.31 239.46 511.471 239.299 511.31 238.815C511.149 238.386 511.364 238.171 512.007 238.171C512.543 238.224 512.918 238.01 512.864 237.633C512.757 237.257 513.186 237.096 513.829 237.204C514.633 237.365 514.847 237.204 514.686 236.666C514.419 236.022 515.49 235.162 516.241 235.484C516.402 235.538 516.777 235.162 517.045 234.678C517.634 233.604 517.045 232.153 515.544 230.971C514.686 230.327 514.686 230.38 515.598 231.455Z" fill="#0AC2D4"/>
<path d="M213.314 233.282L211.76 235.055L213.529 233.497C215.137 231.992 215.512 231.562 215.083 231.562C214.976 231.562 214.226 232.368 213.314 233.282Z" fill="#0AC2D4"/>
<path d="M430.969 233.174C430.755 233.497 430.379 233.55 430.058 233.389C429.736 233.174 429.629 233.282 429.79 233.604C430.165 234.141 431.505 234.195 432.041 233.604C432.255 233.443 432.148 233.12 431.827 232.959C431.559 232.744 431.183 232.852 430.969 233.174Z" fill="#0AC2D4"/>
<path d="M436.114 235.431C434.399 237.15 433.81 238.708 435.257 237.472C436.221 236.667 438.419 233.712 438.044 233.712C437.883 233.712 437.025 234.464 436.114 235.431Z" fill="#0AC2D4"/>
<path d="M442.76 239.084C442.224 239.675 441.528 239.997 441.206 239.782C440.884 239.621 440.777 239.621 440.992 239.836C441.206 240.105 440.777 240.911 440.027 241.663C439.33 242.469 438.741 243.328 438.741 243.597C438.741 243.866 438.794 243.973 438.901 243.866C438.955 243.758 440.188 242.361 441.688 240.803C443.135 239.299 444.207 238.009 444.047 238.009C443.886 238.009 443.296 238.493 442.76 239.084Z" fill="#0AC2D4"/>
<path d="M513.025 238.869C511.631 240.266 512.06 240.964 513.507 239.621C514.258 238.923 514.847 238.278 514.847 238.171C514.847 237.687 513.775 238.117 513.025 238.869Z" fill="#0AC2D4"/>
<path d="M114.483 239.245C114.483 239.353 115.287 240.105 116.252 241.018L117.967 242.576L116.412 240.803C114.912 239.191 114.483 238.815 114.483 239.245Z" fill="#0AC2D4"/>
<path d="M515.383 240.75C513.507 242.415 513.507 242.415 515.222 241.233C516.187 240.642 517.098 239.89 517.259 239.621C517.795 238.762 517.366 239.03 515.383 240.75Z" fill="#0AC2D4"/>
<path d="M449.085 240.266C448.388 241.448 448.388 242.523 449.085 241.824C449.621 241.287 450.103 239.621 449.728 239.621C449.621 239.621 449.353 239.944 449.085 240.266Z" fill="#0AC2D4"/>
<path d="M501.984 241.287C500.001 243.758 499.304 244.457 498.715 244.457C498.447 244.457 498.286 244.618 498.34 244.833C498.554 245.478 496.839 247.734 496.464 247.304C496.249 247.143 496.088 247.358 496.088 247.788C496.088 248.271 495.713 248.755 495.285 248.97C494.856 249.131 494.481 249.668 494.534 250.205C494.534 250.958 494.641 251.011 494.856 250.367C495.338 249.185 496.249 248.701 496.785 249.453C497.107 249.883 497.16 249.829 497 249.238C496.624 248.11 497.589 247.143 498.715 247.519C499.358 247.788 499.411 247.68 498.929 247.143C498.179 246.337 499.143 244.994 500.162 245.37C500.537 245.478 500.751 245.155 500.751 244.618C500.698 244.027 500.966 243.651 501.555 243.705C502.306 243.758 502.466 243.49 502.252 242.469C502.091 241.341 502.198 241.179 503.056 241.394C504.182 241.663 504.396 241.394 503.699 240.32C503.431 239.836 502.895 240.159 501.984 241.287Z" fill="#0AC2D4"/>
<path d="M275.915 242.845C275.915 243.866 276.022 244.295 276.183 243.758C276.29 243.275 276.29 242.415 276.183 241.878C276.022 241.394 275.915 241.824 275.915 242.845Z" fill="#0AC2D4"/>
<path d="M511.363 245.316L509.756 246.713L511.524 245.531C512.435 244.887 513.239 244.296 513.239 244.134C513.239 243.758 513.025 243.866 511.363 245.316Z" fill="#0AC2D4"/>
<path d="M54.6159 247.143C54.6159 248.486 54.7231 249.024 54.8303 248.325C54.9375 247.681 54.9375 246.606 54.8303 245.908C54.7231 245.263 54.6159 245.8 54.6159 247.143Z" fill="#0AC2D4"/>
<path d="M506.754 250.206L505.468 251.603L507.237 250.367C509.005 249.024 509.273 248.755 508.523 248.755C508.255 248.755 507.505 249.4 506.754 250.206Z" fill="#0AC2D4"/>
<path d="M162.291 252.516C162.291 253.536 162.398 253.966 162.559 253.429C162.666 252.945 162.666 252.086 162.559 251.549C162.398 251.065 162.291 251.495 162.291 252.516Z" fill="#0AC2D4"/>
<path d="M502.52 254.934C502.145 255.363 502.038 255.739 502.306 255.739C502.574 255.739 501.716 256.76 500.376 257.996L497.964 260.199L500.376 258.318C501.716 257.244 502.788 256.169 502.788 255.954C502.788 255.686 503.002 255.148 503.217 254.772C503.806 253.859 503.324 253.966 502.52 254.934Z" fill="#0AC2D4"/>
<path d="M311.396 256.921L309.841 258.694L311.61 257.136C312.521 256.223 313.325 255.471 313.325 255.363C313.325 254.933 312.896 255.31 311.396 256.921Z" fill="#0AC2D4"/>
<path d="M145.998 258.265C146.962 258.372 148.409 258.372 149.213 258.265C150.017 258.157 149.213 258.05 147.445 258.05C145.676 258.05 145.033 258.157 145.998 258.265Z" fill="#0AC2D4"/>
<path d="M480.921 258.265C480.385 258.802 480.492 260.038 481.028 260.038C481.35 260.038 481.51 259.554 481.457 258.963C481.403 257.727 481.403 257.781 480.921 258.265Z" fill="#0AC2D4"/>
<path d="M477.115 259.93C477.437 260.145 477.651 260.736 477.544 261.273C477.437 262.026 477.598 262.079 478.08 261.703C478.455 261.381 478.938 261.22 479.098 261.381C479.313 261.542 479.366 261.488 479.206 261.273C479.045 261.112 479.259 260.575 479.634 260.091C480.17 259.339 480.17 259.339 479.366 259.93C478.777 260.414 478.402 260.467 478.134 260.038C477.973 259.769 477.491 259.5 477.169 259.5C476.687 259.5 476.687 259.608 477.115 259.93Z" fill="#0AC2D4"/>
<path d="M429.736 264.873C429.736 265.894 429.844 266.324 430.004 265.786C430.112 265.303 430.112 264.443 430.004 263.906C429.844 263.422 429.736 263.852 429.736 264.873Z" fill="#0AC2D4"/>
<path d="M467.147 265.142C466.771 265.571 466.289 265.84 466.128 265.679C465.914 265.571 465.699 265.84 465.699 266.27C465.699 266.861 466.021 266.753 466.986 265.84C467.683 265.195 468.218 264.604 468.218 264.497C468.218 264.121 467.79 264.389 467.147 265.142Z" fill="#0AC2D4"/>
<path d="M486.548 268.741C486.656 269.655 486.495 269.923 485.798 269.816C485.262 269.708 484.833 269.87 484.833 270.192C484.833 270.729 486.173 270.675 486.816 270.084C487.46 269.44 487.567 267.559 486.924 267.559C486.602 267.559 486.441 268.097 486.548 268.741Z" fill="#0AC2D4"/>
<path d="M489.389 271.32C489.175 271.642 488.853 271.75 488.639 271.589C488.371 271.481 487.727 271.857 487.191 272.556C486.173 273.738 486.173 273.738 487.299 272.771C487.888 272.287 488.531 271.965 488.692 272.126C488.853 272.287 489.282 272.072 489.657 271.589C490.032 271.159 490.193 270.783 490.032 270.783C489.871 270.783 489.55 271.051 489.389 271.32Z" fill="#0AC2D4"/>
<path d="M481.082 272.395C481.082 272.663 481.457 272.932 481.886 272.932C482.314 272.932 482.689 272.663 482.689 272.395C482.689 272.073 482.314 271.858 481.886 271.858C481.457 271.858 481.082 272.073 481.082 272.395Z" fill="#0AC2D4"/>
<path d="M483.172 272.502C483.118 272.878 483.118 273.416 483.172 273.684C483.225 273.953 482.904 274.007 482.475 273.845C481.939 273.63 481.778 273.792 481.993 274.329C482.261 275.027 482.421 275.027 483.225 274.275C483.708 273.845 484.137 273.093 484.137 272.663C484.137 271.696 483.279 271.589 483.172 272.502Z" fill="#0AC2D4"/>
<path d="M479.742 276.155C479.581 276.424 479.688 276.693 480.063 276.693C480.492 276.693 480.438 276.961 479.956 277.606C479.259 278.466 479.313 278.519 480.117 277.875C480.599 277.445 480.867 276.8 480.706 276.37C480.385 275.457 480.17 275.457 479.742 276.155Z" fill="#0AC2D4"/>
<path d="M205.972 281.367C206.937 281.475 208.652 281.475 209.724 281.367C210.849 281.26 210.099 281.152 208.008 281.152C205.972 281.152 205.061 281.26 205.972 281.367Z" fill="#0AC2D4"/>
<path d="M471.381 282.71C471.863 283.355 471.917 283.677 471.488 283.677C471.166 283.677 470.898 283.892 470.898 284.215C470.898 285.021 471.809 284.859 472.131 284C472.292 283.57 472.024 282.925 471.541 282.495C470.737 281.851 470.684 281.904 471.381 282.71Z" fill="#0AC2D4"/>
<path d="M471.702 290.125C471.166 290.716 471.005 291.199 471.327 291.199C471.649 291.199 472.185 290.716 472.506 290.125C472.828 289.534 472.989 289.05 472.881 289.05C472.774 289.05 472.238 289.534 471.702 290.125Z" fill="#0AC2D4"/>
<path d="M468.272 294.1C467.361 295.067 467.254 295.497 467.736 295.766C468.111 296.034 468.272 295.981 468.004 295.605C467.843 295.336 468.326 294.53 469.13 293.939C469.987 293.348 470.362 292.811 470.041 292.811C469.719 292.811 468.915 293.402 468.272 294.1Z" fill="#0AC2D4"/>
<path d="M8.52311 300.708C9.59503 300.816 11.4173 300.816 12.5428 300.708C13.6148 300.601 12.7036 300.494 10.5062 300.494C8.30872 300.494 7.39758 300.601 8.52311 300.708Z" fill="#0AC2D4"/>
<path d="M60.7795 302.32C61.7442 302.428 63.1913 302.428 63.9953 302.32C64.7992 302.213 63.9953 302.105 62.2266 302.105C60.4579 302.105 59.8147 302.213 60.7795 302.32Z" fill="#0AC2D4"/>
<path d="M361.991 328.646C362.902 328.754 364.51 328.754 365.474 328.646C366.385 328.539 365.635 328.432 363.706 328.432C361.776 328.432 361.026 328.539 361.991 328.646Z" fill="#0AC2D4"/>
</g>
<defs>
<clipPath id="clip0_520_340">
<rect width="693" height="346" fill="white"/>
</clipPath>
</defs>
</svg>
