<svg width="429" height="320" viewBox="0 0 429 320" fill="none" xmlns="http://www.w3.org/2000/svg">
<path opacity="0.227" fill-rule="evenodd" clip-rule="evenodd" d="M380.024 35.168C379.09 35.7449 379.09 35.7449 380.024 35.168Z" fill="#0AC2D4"/>
<path opacity="0.638" fill-rule="evenodd" clip-rule="evenodd" d="M402.212 35.3866C379.25 39.6319 356.203 43.5545 333.071 47.1544C299.958 53.5574 266.726 59.2588 233.376 64.2599C220.353 67.1054 207.291 69.7595 194.19 72.222C192.4 73.3128 192.032 74.7004 193.087 76.3855C200.765 82.1193 208.423 87.8342 216.06 93.5295C208.382 98.5312 200.704 103.534 193.026 108.535C200.981 104.593 208.847 100.313 216.625 95.6955C218.948 101.288 220.82 107.031 222.24 112.925C211.063 118.281 200.286 124.424 189.908 131.354C190.053 131.587 190.196 131.821 190.341 132.054C200.768 125.675 211.445 119.787 222.372 114.391C225.405 126.442 228.937 138.316 232.969 150.014C210.981 147.303 190.433 151.616 171.324 162.954C167.108 166.244 163.518 170.139 160.553 174.639C140.668 172.32 122.618 177.024 106.403 188.752C100.113 194.121 94.888 200.38 90.7285 207.528C89.1376 211.131 87.8682 214.817 86.9211 218.586C74.5273 224.953 62.8832 232.406 51.987 240.944C40.9532 252.533 31.6357 265.318 24.0355 279.3C23.0119 280.981 22.677 282.735 23.0315 284.563C30.9329 270.627 40.2283 257.597 50.917 245.474C61.6927 235.975 73.5267 227.889 86.4191 221.218C87.3095 224.312 87.962 227.455 88.3766 230.648C91.3477 236.292 94.3196 241.936 97.2907 247.58C106.266 256.423 116.103 257.631 126.805 251.203C133.836 242.263 134.355 232.98 128.362 223.352C121.202 216.469 112.564 213.552 102.45 214.601C98.2466 215.719 94.0033 216.47 89.7211 216.856C95.367 201.703 105.438 190.451 119.934 183.1C131.969 177.491 144.575 175.248 157.753 176.369C158.264 176.569 158.774 176.77 159.285 176.97C154.332 188.865 157.579 197.563 169.024 203.065C180.883 202.93 184.686 197.292 180.433 186.15C176.088 180.61 170.46 176.93 163.551 175.108C168.944 166.606 176.556 160.872 186.387 157.903C202.233 151.036 218.492 149.696 235.165 153.881C244.136 145.502 253.25 137.292 262.505 129.25C264.502 130.918 266.5 132.585 268.498 134.253C269.95 135.084 271.438 135.196 272.962 134.59C302.12 112.826 332.011 91.9073 362.635 71.8334C375.924 60.7822 389.77 50.4213 404.173 40.7521C406.047 39.418 406.393 37.7863 405.21 35.8556C403.987 37.0239 402.988 36.8678 402.212 35.3866ZM385.082 42.1017C382.705 41.4726 380.25 41.5702 377.719 42.3952C378.222 42.9928 378.865 43.3043 379.65 43.3297C381.38 42.5666 383.19 42.1567 385.082 42.1017ZM369.088 45.0198C369.311 46.3571 369.822 46.5572 370.62 45.6208C370.232 45.066 369.721 44.8659 369.088 45.0198ZM344.298 48.7299C345.013 50.2638 344.423 50.5629 342.531 49.6279C342.308 50.5761 341.742 51.12 340.831 51.2589C340.026 52.2078 339.048 52.2958 337.898 51.5229C337.964 52.2559 338.031 52.9889 338.097 53.7219C335.913 53.337 333.871 52.5359 331.968 51.3179C332.147 52.0792 332.091 52.8232 331.8 53.5499C330.595 53.7885 329.33 53.4096 328.003 52.414C327.729 53.3941 327.695 54.3829 327.9 55.379C326.835 55.5244 325.836 55.3683 324.902 54.91C324.157 55.6399 324.212 56.2505 325.067 56.7425C324.712 56.8979 324.356 57.0526 324.001 57.208C322.65 56.4126 321.241 55.8006 319.771 55.372C320.925 57.2389 320.48 57.7711 318.437 56.97C318.591 57.6035 318.391 58.1144 317.836 58.502C315.476 57.1983 313.145 55.9303 310.843 54.698C312.31 56.2633 313.919 57.719 315.67 59.0665C314.659 59.3904 313.66 59.2342 312.672 58.5975C311.243 56.7451 309.445 55.9213 307.277 56.1275C308.874 56.753 310.195 57.7425 311.239 59.096C311.017 59.3621 310.795 59.629 310.572 59.895C309.675 59.1408 308.654 58.7399 307.508 58.6931C307.048 59.4025 306.337 59.7126 305.375 59.6241C304.25 60.8397 302.928 61.2048 301.41 60.7201C301.237 61.3327 300.915 61.8546 300.442 62.2851C298.866 61.4339 297.312 60.5888 295.78 59.7491C295.035 60.4791 295.09 61.0897 295.945 61.5816C295.59 61.737 295.234 61.8917 294.879 62.0471C293.788 61.4699 292.644 61.0808 291.448 60.8781C290.647 61.7728 289.736 62.5937 288.714 63.3411C286.383 62.0731 284.052 60.8051 281.721 59.5372C281.488 59.6815 281.254 59.8253 281.021 59.9697C282.763 61.0025 284.35 62.2141 285.782 63.6052C285.5 64.2203 285.033 64.5084 284.382 64.4702C285.117 65.0062 285.905 65.5508 286.746 66.1047C286.391 66.2601 286.035 66.4148 285.68 66.5702C283.66 65.8853 281.739 65.0732 279.918 64.1332C280.634 65.6671 280.044 65.9662 278.152 65.0312C277.281 65.9017 277.125 66.9008 277.683 68.0292C276.129 67.1841 274.575 66.3383 273.021 65.4932C272.843 66.2482 272.664 67.0032 272.486 67.7582C271.638 67.2486 270.739 66.8367 269.788 66.5232C268.663 67.3893 267.441 67.4994 266.123 66.8532C266.277 67.4867 266.077 67.9976 265.522 68.3852C264.625 67.631 263.603 67.2301 262.458 67.1833C263.525 68.4144 264.734 69.5373 266.087 70.5513C266.602 71.2061 266.535 71.8277 265.885 72.4168C266.673 72.9613 267.461 73.5067 268.249 74.0513C268.027 74.3173 267.804 74.5842 267.582 74.8503C264.882 73.0384 262.04 71.5704 259.057 70.4453C259.049 70.8473 258.827 71.1133 258.39 71.2443C255.59 69.6617 253.002 69.6486 250.628 71.2043C249.412 70.8697 248.368 70.2247 247.498 69.2693C246.285 71.0315 246.772 72.3429 248.96 73.2018C248.271 73.7567 247.538 73.8227 246.761 73.3998C246.052 72.6915 245.264 72.1469 244.397 71.7653C244.551 72.3988 244.351 72.9097 243.796 73.2973C241.44 73.2428 238.986 73.3411 236.433 73.5909C237.232 74.2579 238.031 74.9249 238.83 75.5919C238.597 75.7363 238.363 75.88 238.13 76.0244C235.769 74.7206 233.438 73.4526 231.137 72.2204C234.916 77.5752 234.126 78.3852 228.77 74.6504C228.327 75.2459 227.739 75.5457 227.003 75.5484C227.157 76.1819 226.957 76.6928 226.402 77.0804C225.61 76.6396 224.833 76.2175 224.071 75.8124C224.216 76.3455 224.138 76.8454 223.837 77.3114C222.962 77.566 221.863 77.665 220.538 77.6085C220.692 78.2419 220.492 78.7528 219.937 79.1405C218.527 77.9536 216.973 77.1085 215.275 76.6045C215.925 77.228 216.113 77.95 215.84 78.7705C214.218 77.7452 212.542 76.9104 210.811 76.2675C210.965 76.9009 210.765 77.4118 210.21 77.7995C208.926 77.0668 207.738 76.1888 206.648 75.1645C206.205 75.76 205.617 76.0598 204.881 76.0625C203.794 76.6503 202.617 77.2492 201.348 77.8585C206.556 82.6634 212.328 86.5773 218.662 89.6005C240.869 83.9446 262.996 78.0107 285.042 71.8002C311.242 63.7327 337.979 55.6597 365.254 47.5818C365.843 47.2827 366.432 46.9829 367.021 46.6838C366.088 46.0813 365.089 45.9252 364.023 46.2148C360.553 47.0489 357.033 47.612 353.46 47.9048C351.979 48.1461 350.713 47.7679 349.663 46.7688C348.238 48.2207 346.449 48.8746 344.298 48.7299ZM376.616 46.5587C376.056 46.8183 375.6 47.2288 375.249 47.7903C376.248 48.0904 376.704 47.6799 376.616 46.5587ZM366.552 49.6818C363.862 50.9666 363.928 51.6996 366.75 51.8808C366.684 51.1478 366.618 50.4148 366.552 49.6818ZM381.344 49.8277C382.16 49.7963 382.915 49.9744 383.609 50.3627C383.068 48.8951 382.313 48.717 381.344 49.8277ZM381.344 49.8277C375.538 51.4692 369.795 53.3409 364.115 55.4433C334.313 67.9466 304.297 79.27 274.066 89.4148C261.504 94.6035 248.907 99.6787 236.273 104.641C242.044 108.555 247.371 113.002 252.253 117.981C256.802 120.541 261.008 123.488 264.872 126.82C264.694 126.059 264.749 125.315 265.041 124.588C266.414 125.849 267.867 126.95 269.402 127.89C268.461 126.302 267.34 124.802 266.041 123.39C266.704 122.973 267.427 122.786 268.207 122.825C268.029 122.064 268.084 121.32 268.376 120.593C270.914 122.485 273.199 124.619 275.234 126.996C275.7 127.297 276.199 127.375 276.733 127.23C274.627 124.565 272.42 121.932 270.109 119.329C270.554 118.796 271.043 118.752 271.575 119.197C272.55 120.126 273.604 120.893 274.738 121.498C273.382 119.676 271.985 117.831 270.545 115.964C270.768 115.698 270.99 115.431 271.212 115.165C274.405 118.435 277.767 121.581 281.299 124.602C278.804 120.684 275.653 117.149 271.846 114C272.18 113.6 272.513 113.201 272.847 112.801C273.688 113.62 274.61 114.276 275.61 114.769C275.432 114.008 275.487 113.264 275.779 112.537C276.62 113.356 277.542 114.012 278.542 114.505C278.292 113.387 277.715 112.453 276.812 111.705C277.113 110.924 277.59 110.757 278.245 111.207C281.166 114.783 284.606 117.429 288.567 119.145C285.984 116.651 283.532 114.039 281.21 111.309C281.493 110.694 281.96 110.406 282.61 110.444C282.044 109.218 281.212 108.184 280.114 107.344C280.47 107.188 280.825 107.034 281.181 106.878C284.133 109.456 287.185 111.891 290.337 114.182C289.113 111.997 287.694 109.908 286.077 107.915C286.3 107.649 286.522 107.382 286.744 107.116C289.176 109.942 291.761 112.665 294.5 115.285C294.834 114.886 295.167 114.486 295.501 114.087C292.339 110.656 289.31 107.111 286.414 103.451C286.637 103.185 286.859 102.918 287.081 102.652C288.042 103.187 288.841 103.854 289.478 104.653C289.325 104.02 289.525 103.509 290.079 103.121C291.004 104.018 292.048 104.663 293.21 105.056C292.018 103.554 291.253 101.899 290.915 100.09C292.674 101.711 294.416 103.278 296.142 104.792C295.847 103.585 295.259 102.529 294.378 101.626C295.137 101.21 295.881 101.267 296.611 101.794C296.608 101.059 296.308 100.47 295.712 100.028C296.376 99.6111 297.098 99.4235 297.879 99.4632C298.074 98.8264 298.54 98.5376 299.279 98.5982C299.474 97.9614 299.94 97.6726 300.679 97.7332C300.42 96.8026 300.598 96.0476 301.214 95.4682C301.346 95.0151 301.691 94.738 302.247 94.6362C303.305 95.5009 304.371 96.3899 305.443 97.3042C306.288 96.4352 307.266 96.3471 308.375 97.0402C308.731 96.8848 309.086 96.7301 309.442 96.5747C307.922 95.34 307.168 93.8067 307.18 91.9752C307.757 92.5742 308.412 93.0074 309.145 93.2762C309 92.7431 309.078 92.2432 309.379 91.7772C309.956 92.3762 310.611 92.8094 311.344 93.0782C311.138 92.0821 311.172 91.0933 311.446 90.1132C312.469 91.043 313.634 91.677 314.943 92.0152C314.156 89.5381 313.814 87.106 313.916 84.7181C315.907 85.4477 317.606 86.5266 319.011 87.9541C318.772 87.1073 318.951 86.3523 319.546 85.6891C320.386 86.6487 321.207 87.5605 322.009 88.4231C321.919 85.8411 322.63 85.531 324.142 87.4921C324.684 86.2728 325.184 84.9959 325.644 83.6621C325.91 83.8842 326.177 84.107 326.443 84.3291C326.791 82.2398 327.847 81.6518 329.61 82.5661C328.81 81.353 328.7 80.1318 329.28 78.9011C331.11 81.4459 332.94 83.9902 334.77 86.5351C335.104 86.1356 335.437 85.7361 335.771 85.3366C333.533 83.2872 332.202 80.8207 331.779 77.937C332.356 78.5361 333.011 78.9692 333.744 79.238C333.815 77.535 334.526 77.2249 335.877 78.307C336.009 77.8539 336.354 77.5768 336.91 77.475C337.84 78.1628 338.761 78.8188 339.674 79.443C339.245 76.93 340.047 74.8871 342.078 73.315C343.097 73.1198 344.196 73.0208 345.376 73.018C345.554 72.263 345.733 71.5079 345.911 70.753C346.488 71.686 346.976 71.6421 347.377 70.621C349.082 73.0552 350.059 72.9672 350.309 70.3569C350.627 70.7392 351.015 70.9503 351.475 70.9909C351.04 69.1879 351.484 68.655 352.809 69.3929C352.63 68.6317 352.686 67.8877 352.977 67.1609C353.554 67.7599 354.209 68.1931 354.942 68.4619C354.508 65.444 355.642 64.3561 358.343 65.1999C358.242 64.4086 357.932 63.6977 357.412 63.0669C358.367 62.7348 359.322 62.402 360.278 62.0699C365.591 67.4808 366.047 67.0703 361.645 60.8384C362.772 60.5151 363.783 60.7936 364.676 61.6739C364.438 60.827 364.616 60.072 365.211 59.4088C366.171 59.943 366.97 60.61 367.608 61.4098C368.364 59.804 368.721 58.294 368.678 56.8798C369.469 57.3206 370.246 57.7428 371.009 58.1478C370.755 56.14 371.444 55.5858 373.076 56.4838C372.822 54.476 373.511 53.9218 375.143 54.8198C374.905 53.973 375.083 53.218 375.678 52.5548C377.483 51.7242 379.438 51.5482 381.542 52.0268C381.476 51.2937 381.41 50.5607 381.344 49.8277ZM358.086 54.1388C360.065 53.8291 361.987 53.2866 363.851 52.5113C362.12 51.4176 360.787 51.661 359.852 53.2408C358.802 51.5937 358.213 51.8928 358.086 54.1388ZM358.086 54.1388C357.164 54.1649 356.51 53.731 356.121 52.8378C355.83 53.5646 355.774 54.3086 355.953 55.0699C356.915 55.1584 357.626 54.8483 358.086 54.1388ZM354.355 53.7359C352.944 54.1939 352.766 54.9489 353.82 56.0009C354.414 55.3377 354.593 54.5827 354.355 53.7359ZM351.555 55.4659C350.875 54.5036 350.397 54.67 350.122 55.9644C350.399 56.3089 350.676 56.6534 350.954 56.9979C351.118 56.4658 351.318 55.9549 351.555 55.4659ZM258.529 64.5813C258.969 65.5806 259.746 66.0036 260.86 65.8493C260.421 64.8499 259.644 64.427 258.529 64.5813ZM375.143 54.8198C375.197 55.743 375.63 56.443 376.44 56.9198C376.77 55.7832 376.337 55.0832 375.143 54.8198ZM347.289 57.3279C346.186 58.1018 345.087 58.2008 343.99 57.6249C343.044 59.5257 342.066 59.6137 341.058 57.8889C340.745 59.3809 340.034 59.6918 338.925 58.8199C338.634 59.5467 338.578 60.2907 338.757 61.0519C341.451 60.4273 344.083 59.5748 346.655 58.4934C347.037 58.176 347.248 57.7875 347.289 57.3279ZM373.076 56.4838C373.13 57.407 373.563 58.107 374.373 58.5838C374.703 57.4472 374.27 56.7472 373.076 56.4838ZM307.633 68.2881C307.21 68.9898 306.788 69.7667 306.365 70.6191C305.824 70.28 305.413 69.824 305.134 69.2521C305.102 70.5526 304.845 71.8068 304.364 73.0161C303.823 72.677 303.412 72.2211 303.133 71.6491C301.966 72.4422 300.666 73.0521 299.233 73.4781C298.625 72.8856 298.193 72.1856 297.936 71.3781C297.952 76.151 297.219 76.217 295.737 71.5761C295.866 73.9055 295.187 75.9374 293.699 77.6712C292.866 76.3452 292.49 74.9011 292.57 73.3392C292.206 74.753 291.85 76.263 291.5 77.8692C290.847 77.0199 290.392 76.0758 290.137 75.0362C290.105 76.3367 289.848 77.5909 289.367 78.8002C288.826 78.461 288.415 78.0051 288.136 77.4332C287.963 78.0458 287.641 78.5677 287.168 78.9982C286.519 77.264 286.12 75.576 285.973 73.9332C285.66 75.9321 285.348 77.9303 285.035 79.9292C284.289 78.322 283.769 76.6441 283.474 74.8972C283.01 81.6878 282.277 81.7538 281.275 75.0952C280.962 77.0942 280.65 79.0923 280.337 81.0912C279.718 80.3038 279.107 80.3588 278.504 81.2562C277.785 79.9 277.287 78.467 277.009 76.9572C277.079 79.2069 276.911 81.4389 276.503 83.6533C275.85 82.804 275.395 81.8599 275.14 80.8203C274.94 81.3312 274.739 81.8414 274.539 82.3523C274.163 80.9082 273.786 79.4643 273.41 78.0203C272.895 80.0034 272.46 82.0133 272.105 84.0493C271.334 82.1923 270.791 80.2704 270.478 78.2843C270.715 80.53 270.014 82.3178 268.374 83.6463C267.655 82.2901 267.157 80.8571 266.879 79.3473C266.949 81.597 266.781 83.829 266.373 86.0433C265.771 86.9407 265.159 86.9958 264.541 86.2083C264.363 86.9633 264.184 87.7184 264.006 88.4733C262.672 89.0287 261.406 88.6498 260.209 87.3373C259.811 85.6492 259.412 83.9604 259.014 82.2723C259.151 84.6246 258.86 86.8676 258.142 89.0014C257.81 88.0462 257.477 87.0905 257.145 86.1353C255.958 93.8201 254.736 93.9301 253.48 86.4654C253.526 88.4755 253.336 90.4635 252.908 92.4284C251.669 93.2634 250.426 93.1293 249.177 92.0254C248.494 92.1667 247.905 92.4658 247.411 92.9234C246.969 90.7464 246.526 88.5694 246.084 86.3924C246.598 89.8184 245.885 92.8384 243.944 95.4524C243.612 94.4973 243.279 93.5415 242.947 92.5864C242.725 92.8525 242.502 93.1194 242.28 93.3854C241.882 91.6973 241.483 90.0085 241.085 88.3204C240.725 90.7618 241.057 93.0721 242.078 95.2509C241.633 95.7839 241.145 95.8278 240.612 95.3829C240.114 94.5374 239.548 93.726 238.915 92.9494C237.794 98.9982 236.917 98.8311 236.284 92.4475C236.128 93.4465 235.971 94.4464 235.815 95.4455C235.527 94.9785 235.238 94.5124 234.95 94.0455C233.319 101.189 232.075 101.055 231.219 93.6425C231.029 95.6148 231.083 97.5807 231.38 99.5395C230.647 99.6055 229.914 99.6715 229.181 99.7375C229.206 98.7207 228.995 97.7539 228.551 96.8385C228.15 97.8596 227.662 97.9036 227.085 96.9705C227.584 98.92 227.638 100.885 227.246 102.868C226.276 100.403 225.323 98.0255 224.387 95.7355C224.728 98.2054 224.704 100.671 224.314 103.132C227.075 114.046 230.142 124.854 233.515 135.556C232.755 124.781 231.787 114.031 230.611 103.304C232.034 101.821 233.79 100.801 235.877 100.243C243.852 97.4684 252.45 94.4774 261.671 91.2699C286.641 81.6136 311.647 72.0959 336.69 62.716C336.714 61.6992 336.504 60.7324 336.059 59.817C335.502 61.8379 334.769 61.9039 333.86 60.015C333.674 61.3552 333.029 62.3983 331.925 63.145C331.039 63.6164 329.94 63.7154 328.626 63.442C326.421 66.5114 324.81 66.4104 323.796 63.138C324.368 66.4916 323.456 67.3126 321.062 65.601C319.874 66.4854 319.097 66.0632 318.731 64.333C318.457 65.3131 318.423 66.302 318.628 67.298C317.078 67.9578 315.634 68.3339 314.296 68.4271C313.688 67.8345 313.256 67.1345 312.999 66.3271C312.843 67.3261 312.686 68.326 312.53 69.3251C311.593 69.3237 310.593 69.1677 309.532 68.8561C308.793 70.6643 308.161 70.4752 307.633 68.2881ZM371.009 58.1478C371.122 59.2667 371.644 59.5892 372.574 59.1153C372.127 58.6257 371.606 58.3032 371.009 58.1478ZM209.748 72.6685C210.188 73.6679 210.965 74.0908 212.079 73.9365C211.64 72.9371 210.863 72.5142 209.748 72.6685ZM298.275 103.861C298.575 105.241 299.396 106.153 300.738 106.595C300.437 105.215 299.616 104.304 298.275 103.861ZM236.702 109.406C236.468 116.442 236.739 123.561 237.517 130.762C237.3 126.673 237.681 122.697 238.66 118.836C239.036 120.28 239.413 121.724 239.789 123.168C239.767 121.396 239.979 119.652 240.426 117.938C240.769 119.015 241.113 120.093 241.456 121.17C241.473 127.496 241.668 133.76 242.04 139.961C242.431 132.391 242.604 124.74 242.559 117.007C243.356 119.112 243.92 121.279 244.253 123.505C244.206 121.494 244.397 119.506 244.824 117.542C245.112 118.008 245.401 118.475 245.689 118.942C245.265 124.639 245.771 130.259 247.207 135.801C247.256 130.87 247.305 125.939 247.353 121.009C248.334 125.086 249.074 129.207 249.575 133.371C249.435 130.397 249.538 127.432 249.882 124.476C250.323 123.376 250.979 122.456 251.85 121.712C246.862 117.434 241.813 113.332 236.702 109.406ZM296.142 104.792C296.189 105.916 296.744 106.605 297.806 106.859C297.758 105.735 297.203 105.046 296.142 104.792ZM292.741 108.054C292.788 109.178 293.343 109.867 294.405 110.121C294.357 108.997 293.802 108.308 292.741 108.054ZM283.409 111.111C283.541 112.577 284.34 113.244 285.807 113.112C285.23 112.179 284.431 111.512 283.409 111.111ZM285.807 113.112C286.651 114.949 288.005 116.305 289.868 117.18C289.023 115.343 287.669 113.987 285.807 113.112ZM276.409 115.436C276.457 116.561 277.012 117.249 278.073 117.503C278.026 116.379 277.471 115.69 276.409 115.436ZM239.554 124.667C239.225 130.532 239.143 136.451 239.306 142.424C240.035 140.539 240.347 138.54 240.244 136.428C240.258 132.493 240.029 128.573 239.554 124.667ZM268.207 122.825C268.255 123.95 268.81 124.639 269.871 124.892C269.824 123.768 269.269 123.079 268.207 122.825ZM276.337 122.832C276.384 123.957 276.939 124.646 278.001 124.899C277.953 123.775 277.398 123.086 276.337 122.832ZM270.201 128.557C270.354 130.159 271.142 130.704 272.566 130.192C271.857 129.484 271.069 128.939 270.201 128.557ZM163.016 177.373C162.28 177.376 161.692 177.676 161.25 178.271C157.146 187.929 159.649 195.216 168.76 200.133C174.128 202.098 177.794 200.413 179.759 195.078C180.163 189.605 178.168 185.228 173.773 181.947C170.216 180.199 166.63 178.675 163.016 177.373ZM128.377 244.041C132.674 229.39 127.185 220.401 111.909 217.075C104.136 216.373 96.594 217.422 89.2851 220.221C88.8731 232.559 93.696 242.347 103.752 249.584C111.011 254.654 118.14 254.505 125.141 249.136C126.686 247.698 127.764 245.999 128.377 244.041Z" fill="#0AC2D4"/>
<path opacity="0.52" fill-rule="evenodd" clip-rule="evenodd" d="M189.627 70.7853C188.955 71.1806 188.387 71.7238 187.926 72.4163C187.09 71.7401 186.224 71.6947 185.328 72.2808C184.905 74.2602 184.082 76.0583 182.858 77.6759C178.594 80.9558 174.194 84.0617 169.657 86.993C170.155 87.8385 170.721 88.6499 171.354 89.4265C175.554 86.8314 179.754 84.2364 183.954 81.6414C186.033 84.3849 186.755 84.1972 186.12 81.0769C186.416 80.1864 186.972 79.5208 187.787 79.0794C188.172 79.9108 188.726 80.5998 189.451 81.1464C189.358 79.0333 190.059 77.2455 191.555 75.7843C190.863 75.2917 190.097 74.9912 189.257 74.8828C190.463 73.518 190.587 72.1524 189.627 70.7853Z" fill="#0AC2D4"/>
<path opacity="0.396" fill-rule="evenodd" clip-rule="evenodd" d="M217.387 100.061C207.317 104.541 197.695 109.841 188.522 115.961C188.788 116.183 189.055 116.406 189.321 116.628C198.361 111.04 207.783 106.251 217.585 102.26C217.519 101.527 217.453 100.794 217.387 100.061Z" fill="#0AC2D4"/>
<path opacity="0.35" fill-rule="evenodd" clip-rule="evenodd" d="M217.717 103.726C209.189 108.294 200.745 112.995 192.385 117.83C192.651 118.052 192.918 118.275 193.184 118.497C201.764 114.097 210.219 109.518 218.549 104.759C218.116 104.515 217.839 104.171 217.717 103.726Z" fill="#0AC2D4"/>
<path opacity="0.41" fill-rule="evenodd" clip-rule="evenodd" d="M243.57 103.615C241.047 103.965 240.869 104.72 243.035 105.88C243.63 105.216 243.808 104.461 243.57 103.615Z" fill="#0AC2D4"/>
<path opacity="0.339" fill-rule="evenodd" clip-rule="evenodd" d="M219.579 107.992C218.7 107.259 217.712 107.225 216.614 107.889C209.202 111.672 201.925 115.652 194.782 119.831C195.048 120.053 195.315 120.276 195.581 120.498C203.619 116.301 211.619 112.132 219.579 107.992Z" fill="#0AC2D4"/>
<path opacity="0.394" fill-rule="evenodd" clip-rule="evenodd" d="M220.51 110.124C211.618 114.587 202.94 119.433 194.478 124.661C203.09 120.897 211.578 116.685 219.942 112.023C220.449 111.481 220.639 110.849 220.51 110.124Z" fill="#0AC2D4"/>
<path opacity="0.417" fill-rule="evenodd" clip-rule="evenodd" d="M222.636 117.322C216.245 120.368 209.879 123.527 203.538 126.801C200.606 128.738 197.839 130.834 195.237 133.09C195.503 133.312 195.77 133.535 196.036 133.757C204.274 128.153 212.951 123.307 222.068 119.221C222.575 118.679 222.765 118.047 222.636 117.322Z" fill="#0AC2D4"/>
<path opacity="0.377" fill-rule="evenodd" clip-rule="evenodd" d="M223.765 121.654C216.274 125.251 208.997 129.232 201.933 133.596C202.954 133.997 203.932 133.909 204.865 133.332C210.985 129.687 217.351 126.527 223.963 123.853C223.897 123.12 223.831 122.387 223.765 121.654Z" fill="#0AC2D4"/>
<path opacity="0.369" fill-rule="evenodd" clip-rule="evenodd" d="M222.695 126.185C215.847 129.556 209.015 133.004 202.197 136.528C206.827 134.934 211.471 133.162 216.128 131.21C216.505 131.299 216.883 131.388 217.26 131.477C209.856 135.469 210.144 135.935 218.125 132.877C219.5 132.066 220.911 131.323 222.358 130.649C222.941 129.195 223.053 127.707 222.695 126.185Z" fill="#0AC2D4"/>
<path opacity="0.394" fill-rule="evenodd" clip-rule="evenodd" d="M224.557 130.451C220.586 132.645 216.598 134.851 212.591 137.07C217.323 136.359 221.589 134.497 225.389 131.484C224.957 131.24 224.679 130.896 224.557 130.451Z" fill="#0AC2D4"/>
<path opacity="0.49" fill-rule="evenodd" clip-rule="evenodd" d="M273.794 135.624C272.395 135.6 271.339 136.187 270.627 137.387C270.348 136.815 269.937 136.359 269.396 136.02C267.637 136.976 266.014 138.108 264.529 139.414C264.018 139.214 263.507 139.013 262.997 138.813C262.158 141.395 260.525 142.405 258.097 141.84C252.096 146.321 246.095 150.803 240.094 155.284C243.755 155.83 246.976 154.678 249.759 151.828C250.093 152.135 250.481 152.347 250.925 152.462C255.605 149.829 260.016 146.845 264.159 143.511C267.582 143.418 271.003 143.11 274.421 142.587C275.644 140.969 276.467 139.171 276.891 137.192C275.303 137.249 273.859 137.625 272.559 138.321C273.474 137.636 273.886 136.736 273.794 135.624ZM271.258 140.286C270.157 140.191 269.202 140.523 268.392 141.283C268.902 141.483 269.413 141.684 269.924 141.884C270.796 141.623 271.241 141.09 271.258 140.286Z" fill="#0AC2D4"/>
</svg>
