<svg width="212" height="205" viewBox="0 0 212 205" fill="none" xmlns="http://www.w3.org/2000/svg">
<g opacity="0.15">
<path d="M172.585 0.748328C172.328 1.15454 171.516 2.67248 170.767 4.12629C168.373 8.74425 165.829 11.6519 159.351 17.1678C154.07 21.6788 153.899 21.8499 153.899 22.7906C153.899 23.7099 154.155 23.9664 155.224 24.1589C155.994 24.3085 156.101 24.2444 159.821 21.1443C161.916 19.3912 165.08 16.5264 166.876 14.7519L170.105 11.545L170.233 12.5498C170.361 13.5119 170.297 13.7043 168.202 17.574C167.005 19.7761 165.914 21.8285 165.743 22.1278C165.594 22.4271 164.503 24.6292 163.349 27.0451C147.742 59.1784 123.561 80.3655 89.9743 91.3118C78.5363 95.0532 68.3811 96.956 51.3844 98.5808C46.4671 99.0511 33.1904 99.1367 30.1118 98.7091C27.0973 98.2815 23.7835 97.4477 22.1586 96.6994C20.5979 95.9939 19.9565 95.9939 19.2083 96.7422C18.6952 97.2553 18.6524 97.9608 19.08 98.5808C19.871 99.6925 23.9973 101.082 28.6152 101.809C32.0146 102.344 46.2319 102.344 52.2396 101.809C61.5824 100.975 72.8707 99.2863 79.028 97.8111C100.557 92.5945 118.43 83.9145 133.482 71.3861C138.42 67.2599 144.428 61.2309 148.661 56.1212C155.374 48.0397 161.36 38.6541 166.299 28.4775C168.074 24.8002 170.575 18.6002 170.575 17.8519C170.575 17.745 170.66 17.6381 170.746 17.6381C170.831 17.6381 171.088 18.4719 171.302 19.4981C172.029 23.1326 174.338 29.3541 175.792 31.6417C177.245 33.9079 177.309 33.2451 176.155 27.3658C173.418 13.5974 173.333 12.9132 173.162 5.66561L173.034 4.68851e-05L172.585 0.748328Z" fill="white"/>
<path d="M153.714 69.6085C153.073 70.4209 153.158 71.1264 153.928 71.8533C154.463 72.345 154.569 72.5802 154.463 73.0506C154.377 73.3926 154.185 75.274 154.014 77.2837C153.736 80.3837 153.693 89.5983 153.693 140.674C153.693 186.896 153.757 200.515 153.949 200.707C154.142 200.9 153.052 200.964 149.032 200.964H143.858L143.965 200.494C144.2 199.403 144.5 197.052 144.82 193.823C145.077 191.023 145.141 186.426 145.141 167.869C145.141 146.489 145.163 145.335 145.526 145.484C146.873 146.04 146.937 145.848 145.889 144.308L145.141 143.197V124.853C145.141 114.762 145.077 106.338 145.013 106.146C144.885 105.825 143.858 105.184 143.452 105.184C143.345 105.184 142.96 105.419 142.597 105.718L141.956 106.274L139.754 105.954C134.216 105.141 131.052 104.97 121.538 104.97C112.174 104.97 112.131 104.97 111.64 105.44C110.934 106.103 110.977 107.151 111.725 107.728L112.281 108.177L111.917 111.876C111.597 115.19 111.575 119.807 111.575 157.991C111.575 190.723 111.64 200.515 111.832 200.707C112.024 200.9 110.934 200.964 106.915 200.964C104.071 200.964 101.741 200.878 101.741 200.772C101.741 200.686 101.826 200.087 101.955 199.489C102.746 195.341 102.81 192.455 102.81 165.132V138.343L102.254 137.916C101.506 137.317 100.993 137.36 100.33 138.001L99.7953 138.536L97.9353 138.215C93.5311 137.488 89.1055 137.253 79.3351 137.253H69.693L69.2654 137.809C68.6454 138.579 68.7095 139.092 69.4578 139.861L70.0992 140.503L69.7785 143.517C69.3295 147.579 69.0302 199.724 69.4364 200.494L69.693 200.964H64.5192C59.7301 200.964 59.3667 200.943 59.495 200.601C59.7301 200.023 60.2005 196.26 60.4571 193.203C60.5853 191.664 60.6922 184.865 60.6922 177.66V164.854L60.2219 164.405C59.6019 163.828 58.6612 163.849 58.0198 164.491C57.5281 164.982 57.4853 164.982 56.0529 164.704C51.7342 163.892 48.6556 163.7 38.201 163.614L27.7892 163.507L27.2333 164.063C26.4851 164.811 26.5278 165.709 27.3616 166.415C27.7892 166.778 27.9816 167.099 27.8961 167.334C27.4685 168.724 27.1265 175.223 27.1265 182.193C27.1265 187.965 27.0623 189.825 26.8699 189.718C26.6989 189.611 26.6775 189.718 26.8271 190.082C26.9127 190.36 27.0196 192.797 27.0623 195.469C27.0837 198.826 27.1906 200.451 27.3616 200.665C27.5754 200.921 25.7154 200.964 14.3201 200.964H1.02211L0.509006 201.498C-0.132378 202.14 -0.175137 202.867 0.423488 203.615L0.851077 204.171H100.65C188.028 204.171 201.006 204.128 204.811 203.85C209.472 203.487 211.653 203.145 211.781 202.738C211.909 202.396 210.776 202.118 207.676 201.734C203.037 201.135 199.68 200.964 192.817 200.964H186.04L186.318 199.467C187.259 194.486 187.259 195.17 187.259 130.989C187.259 70.3354 187.259 70.1857 186.831 69.8009C186.233 69.245 185.142 69.2878 184.672 69.8864C184.287 70.3568 184.287 70.3568 182.085 70.0361C176.719 69.245 172.956 69.0526 163.506 69.0526H154.142L153.714 69.6085ZM184.266 72.6871C184.266 73.6278 184.18 74.3975 184.095 74.3975C184.009 74.3975 183.325 73.7775 182.555 73.0078C181.636 72.0885 181.294 71.5968 181.508 71.5326C181.743 71.4685 183.068 71.1906 184.116 70.9981C184.201 70.9981 184.266 71.7464 184.266 72.6871ZM179.626 74.4189C181.059 75.8513 182.684 77.3051 183.261 77.6472L184.266 78.2885V81.6237L184.244 84.9803L183.774 84.4245C183.517 84.1251 182.512 82.8637 181.55 81.6451C179.199 78.652 176.099 75.6161 172.999 73.2857C172.379 72.794 171.908 72.3664 171.951 72.3023C172.015 72.2595 172.999 72.1313 174.153 72.0457C175.308 71.9602 176.419 71.8747 176.633 71.8533C176.847 71.8533 178.087 72.9009 179.626 74.4189ZM167.953 73.5637C171.117 75.552 171.63 75.9582 178.835 82.4148C180.93 84.3176 183.026 86.1134 183.475 86.4555L184.266 87.0541V90.4962V93.9383L180.909 90.6245C175.265 85.0872 163.805 75.0816 160.278 72.623C159.807 72.3023 159.979 72.2809 162.843 72.2809L165.901 72.2595L167.953 73.5637ZM159.059 75.6161C162.608 78.3313 165.559 80.7899 171.523 86.1134C176.569 90.6245 180.31 93.639 183.047 95.4563L184.266 96.2687V99.7535C184.266 101.678 184.201 103.26 184.137 103.26C184.073 103.26 182.94 102.234 181.636 100.994C178.365 97.8935 166.414 88.3583 162.993 86.1134C161.24 84.9589 159.743 83.7831 158.995 82.9706C158.311 82.2437 157.541 81.581 157.263 81.4741C156.772 81.2817 156.75 81.1962 156.601 78.1389C156.515 76.4285 156.408 74.7395 156.323 74.3761C156.258 74.0126 156.301 73.7561 156.43 73.7561C156.536 73.7561 157.734 74.5899 159.059 75.6161ZM158.268 86.541C158.974 87.1183 160.727 88.3583 162.138 89.299C163.549 90.2183 167.205 92.9976 170.262 95.4563C175.372 99.5397 180.375 103.11 183.132 104.671L184.266 105.291V109.118V112.945L183.795 112.538C183.517 112.325 182.534 111.405 181.593 110.507C177.852 106.958 176.334 105.74 169.941 101.186C165.152 97.7866 157.52 92.9549 157.05 93.0618C156.857 93.0831 156.772 92.0997 156.729 89.299C156.707 87.2252 156.729 85.5148 156.814 85.5148C156.878 85.5148 157.541 85.9852 158.268 86.541ZM158.803 97.5301C162.181 99.5397 167.718 103.324 172.507 106.873C175.479 109.075 181.08 112.838 182.94 113.885L184.266 114.634V118.247V121.86L182.619 120.085C181.7 119.123 180.332 117.67 179.562 116.857C176.847 113.992 168.894 107.472 163.442 103.623C158.268 99.9887 157.883 99.7322 157.327 99.6253C156.814 99.5184 156.793 99.4328 156.729 97.9577C156.686 97.1239 156.729 96.4183 156.814 96.4183C156.9 96.4183 157.798 96.9101 158.803 97.5301ZM165.388 108.84C166.67 109.823 169.279 111.918 171.224 113.522C176.804 118.14 183.026 122.501 183.988 122.501C184.201 122.501 184.266 123.463 184.266 126.82V131.16L180.995 127.803C179.22 125.965 176.826 123.699 175.714 122.779C174.602 121.839 172.143 119.786 170.262 118.204C168.381 116.622 165.601 114.334 164.062 113.116C162.544 111.876 160.855 110.529 160.321 110.101C158.717 108.818 157.178 107.749 156.921 107.749C156.686 107.749 156.558 103.238 156.814 103.003C156.964 102.854 162.48 106.595 165.388 108.84ZM142.148 111.405C142.148 113.736 142.063 115.66 141.977 115.66C141.891 115.66 141.678 115.211 141.528 114.655C141.207 113.629 139.39 111.17 137.38 109.096C136.782 108.476 136.354 107.92 136.44 107.835C136.504 107.749 137.466 107.6 138.556 107.514C139.647 107.407 140.844 107.236 141.186 107.129C141.549 107.044 141.891 107.001 141.998 107.044C142.084 107.087 142.148 109.054 142.148 111.405ZM123.826 108.305C124.788 108.797 127.054 110.401 128.572 111.683C129.278 112.261 132.313 115.168 135.307 118.14C138.3 121.112 141.079 123.784 141.464 124.105L142.148 124.682V128.573C142.148 130.732 142.084 132.528 142.02 132.614C141.934 132.678 141.635 132.379 141.357 131.951C139.433 129.108 135.82 125.11 131.031 120.577C125.536 115.382 118.417 108.348 118.417 108.134C118.417 108.049 119.486 107.963 120.769 107.963C122.543 107.963 123.313 108.049 123.826 108.305ZM132.741 108.348C132.741 108.562 133.233 109.203 133.831 109.781C134.43 110.379 135.542 111.619 136.333 112.56C139.112 115.938 140.694 117.37 141.656 117.37C142.148 117.37 142.148 117.392 142.148 119.722C142.148 121.005 142.084 122.074 141.998 122.074C141.891 122.074 141.4 121.432 140.865 120.641C138.214 116.707 134.494 112.603 130.881 109.631C130.026 108.904 129.32 108.241 129.32 108.156C129.32 108.049 130.09 107.963 131.031 107.963C132.527 107.963 132.741 108.006 132.741 108.348ZM124.082 118.225C133.19 126.97 139.305 132.229 141.357 133.084L142.148 133.405V136.291C142.148 137.916 142.063 139.177 141.956 139.177C141.849 139.177 141.293 138.664 140.716 138.023C138.834 135.906 124.574 123.292 120.875 120.492C118.759 118.867 115.637 115.981 115.637 115.638C115.637 115.532 115.36 115.318 115.039 115.147L114.419 114.826L114.269 111.983C114.184 110.422 114.055 108.904 113.991 108.626C113.906 108.284 115.189 109.417 117.69 111.94C119.806 114.035 122.671 116.878 124.082 118.225ZM161.924 115.318C163.998 116.985 167.953 120.278 173.298 124.789C175.97 127.055 181.508 131.181 183.261 132.208L184.266 132.785V136.569V140.353L180.802 136.911C178.878 135.03 176.548 132.806 175.607 131.994C167.162 124.575 164.832 122.587 162.886 121.112C161.646 120.192 160.021 118.888 159.252 118.204C158.482 117.541 157.605 116.943 157.327 116.9C156.793 116.836 156.793 116.814 156.729 114.398C156.707 113.052 156.729 111.812 156.793 111.641C156.9 111.341 157.156 111.534 161.924 115.318ZM119.101 122.993C120.769 124.233 131.437 133.49 135.413 137.146C136.589 138.215 138.578 139.947 139.86 140.973L142.148 142.876V145.719C142.148 147.301 142.084 148.584 141.998 148.584C141.891 148.584 141.549 148.178 141.186 147.665C140.309 146.425 137.701 143.325 135.991 141.444C133.254 138.472 124.681 130.647 119.785 126.628C118.609 125.665 117.262 124.447 116.771 123.912C116.086 123.143 115.723 122.929 115.231 122.929H114.569V121.112V119.273L116.022 120.513C116.813 121.197 118.203 122.309 119.101 122.993ZM157.199 120.556C157.285 120.663 158.503 121.646 159.957 122.736C162.758 124.874 164.596 126.435 171.352 132.379C175.778 136.27 179.37 139.028 182.491 140.93L184.266 142.021V145.099C184.266 146.767 184.201 148.157 184.137 148.157C184.052 148.157 182.876 147.109 181.508 145.848C177.702 142.277 177.082 141.743 174.196 139.37C165.986 132.571 159.594 127.248 158.247 126.008L156.686 124.596V122.48C156.686 120.577 156.857 119.979 157.199 120.556ZM115.338 126.799C115.552 127.055 116.856 128.188 118.203 129.3C121.239 131.823 125.109 135.286 129.684 139.541C134.173 143.731 139.369 147.986 140.908 148.734L142.127 149.333V152.903C142.148 154.891 142.084 156.495 141.977 156.495C141.891 156.495 140.951 155.362 139.882 153.972C134.858 147.494 123.056 135.799 116.813 131.117L114.569 129.45V127.889C114.569 127.055 114.654 126.35 114.74 126.35C114.846 126.35 115.103 126.563 115.338 126.799ZM159.722 131.31C161.197 132.528 164.939 135.628 168.039 138.215C171.139 140.824 174.11 143.282 174.645 143.71C176.291 145.014 181.358 148.306 182.855 149.055L184.266 149.739V158.654V167.569L180.695 163.935C178.707 161.925 175.414 158.782 173.362 156.944C171.31 155.105 167.718 151.834 165.345 149.653C162.993 147.494 160.085 144.821 158.888 143.71L156.686 141.7V139.99C156.686 138.686 156.75 138.301 156.964 138.386C157.114 138.429 158.525 139.391 160.107 140.524C163.399 142.855 167.098 145.869 171.16 149.589C175.97 153.972 182.021 158.633 182.897 158.633C183.646 158.633 183.111 157.82 179.968 154.25C174.859 148.413 168.274 142.512 161.603 137.809C160.128 136.761 158.418 135.479 157.819 134.944L156.686 134.003V131.566C156.686 130.219 156.75 129.129 156.857 129.129C156.943 129.129 158.225 130.112 159.722 131.31ZM116.771 134.987C120.127 137.681 123.676 141.037 128.786 146.339C134.43 152.197 138.877 156.687 140.822 158.504L142.148 159.744V168.66C142.148 173.577 142.084 177.66 142.02 177.724C141.934 177.789 141.336 177.126 140.694 176.207C138.62 173.32 136.653 171.033 132.549 166.757C124.767 158.675 121.474 154.955 117.904 150.23C116.407 148.221 115.616 147.344 115.189 147.216L114.569 147.024V144.8C114.569 142.748 114.59 142.598 114.953 142.79C115.702 143.197 122.479 150.295 125.9 154.25C130.047 159.06 136.205 165.282 137.936 166.436C140.16 167.911 139.882 167.163 136.418 162.374C133.553 158.397 133.126 157.863 129.534 153.715C123.74 146.981 118.802 141.871 115.809 139.434L114.569 138.429V135.906C114.569 134.538 114.633 133.405 114.697 133.405C114.761 133.405 115.702 134.11 116.771 134.987ZM99.8167 147.13C99.8167 151.599 99.7311 154.998 99.6242 154.87C99.5387 154.763 98.5339 153.288 97.4222 151.577C95.1773 148.157 93.3601 145.955 90.1318 142.662C88.678 141.187 88.0793 140.439 88.2931 140.375C88.4642 140.31 89.3407 140.246 90.26 140.204C91.5214 140.139 91.9063 140.204 91.9063 140.417C91.9063 140.567 92.569 141.444 93.3814 142.341C94.2152 143.239 95.1559 144.33 95.4766 144.757C96.2249 145.741 97.8498 146.874 98.4911 146.874C99.1539 146.874 99.2822 146.404 98.9615 145.014C98.7477 144.03 98.427 143.496 97.016 141.828L95.327 139.819L96.0325 139.797C96.3959 139.776 97.3366 139.648 98.1063 139.498C98.876 139.348 99.5601 139.22 99.667 139.199C99.7525 139.199 99.8167 142.748 99.8167 147.13ZM73.9689 141.187C74.3323 141.615 76.1068 143.261 77.9027 144.843C81.0455 147.601 83.7179 150.487 90.6235 158.526C92.7401 160.984 95.3697 163.678 98.1704 166.244L99.838 167.762L99.7739 169.771L99.7098 171.781L97.5718 169.386C93.1035 164.405 85.749 156.516 83.5896 154.357C81.6869 152.475 74.9951 146.404 72.7502 144.501C72.1516 144.009 72.0661 143.795 71.9378 142.32C71.8523 141.401 71.8309 140.588 71.8951 140.503C71.9378 140.417 72.2799 140.353 72.6647 140.375C73.1565 140.396 73.4985 140.588 73.9689 141.187ZM85.2572 142.256C87.3097 144.009 88.3786 145.142 93.5097 150.936C94.8139 152.39 96.7594 154.485 97.8498 155.597L99.8167 157.585V161.326C99.8167 163.443 99.7311 165.025 99.6242 164.961C99.5174 164.897 98.6194 163.7 97.6146 162.331C96.6097 160.942 94.7497 158.611 93.4883 157.136C84.9793 147.259 83.3972 145.527 79.9765 142.555C78.7793 141.508 77.8386 140.567 77.8813 140.503C77.9241 140.417 79.1427 140.375 80.5538 140.396L83.1407 140.439L85.2572 142.256ZM158.546 147.558C159.337 148.306 160.043 148.948 160.107 149.012C160.235 149.162 164.832 153.373 167.696 155.982C172.934 160.749 176.355 163.529 180.097 166.073C181.615 167.099 183.453 168.04 183.924 168.04C184.223 168.04 184.266 168.553 184.266 172.529C184.266 174.988 184.244 177.019 184.201 177.019C184.159 177.019 182.983 175.651 181.572 174.004C179.797 171.888 176.141 168.211 169.535 161.861C164.297 156.858 159.273 152.005 158.354 151.064L156.686 149.397V147.815C156.686 146.938 156.772 146.233 156.9 146.233C157.007 146.233 157.755 146.831 158.546 147.558ZM79.6131 154.784C80.682 155.789 83.9317 159.146 86.8179 162.267C89.6828 165.389 92.6759 168.51 93.4242 169.215C95.0277 170.712 98.6408 173.62 99.3463 174.004C99.7953 174.24 99.8167 174.347 99.8167 177.682V181.102L96.7808 177.297C95.1132 175.202 91.5856 171.204 88.9131 168.403C86.2621 165.602 83.5896 162.737 82.9696 162.053C82.3496 161.369 80.6607 159.83 79.2069 158.654C77.753 157.478 75.8075 155.704 74.8668 154.699C73.9261 153.694 72.9854 152.86 72.793 152.86C72.4937 152.86 72.4509 152.561 72.4509 150.594V148.349L75.0592 150.658C76.4917 151.919 78.5441 153.779 79.6131 154.784ZM117.54 154.784C123.591 162.353 136.311 175.266 140.972 178.58L142.148 179.413V185.464C142.148 191.835 142.426 197.094 142.875 199.51L143.153 200.964H134.516C129.791 200.964 125.9 200.878 125.9 200.793C125.9 200.515 123.591 197.073 123.163 196.688C121.389 195.127 117.669 190.766 116.086 188.35C115.573 187.58 115.017 186.854 114.846 186.725C114.611 186.533 114.569 185.763 114.611 182.984L114.675 179.499L116.706 182.065C117.84 183.454 119.614 185.72 120.662 187.067C123.933 191.279 125.322 192.861 128.422 195.876C132.078 199.425 134.302 200.878 133.361 199.104C133.19 198.783 131.864 196.838 130.389 194.764C127.973 191.386 125.729 188.436 119.464 180.568C118.353 179.136 117.155 177.618 116.835 177.169C116.322 176.484 116.108 176.378 115.402 176.378H114.569V172.957C114.569 169.023 114.526 169.087 116.3 170.969C116.835 171.524 118.417 173.192 119.806 174.667C121.196 176.142 124.767 180.076 127.717 183.433C130.689 186.789 134.345 190.745 135.862 192.22C140.78 197.009 143.089 198.27 140.822 194.914C136.611 188.671 127.439 177.96 119.144 169.6C116.429 166.842 115.573 166.115 115.124 166.115H114.569V163.015C114.569 160.086 114.59 159.915 114.953 160.108C115.509 160.407 120.491 165.56 126.584 172.144C134.345 180.547 140.181 185.913 140.822 185.25C141.271 184.801 135.798 177.618 130.881 172.273C122.885 163.55 117.497 157.948 116.386 157.222C115.98 156.965 115.787 156.922 115.552 157.115C115.338 157.307 115.189 157.243 114.911 156.837C114.633 156.409 114.569 155.746 114.569 153.673L114.59 151.043L115.167 151.791C115.488 152.197 116.557 153.544 117.54 154.784ZM160.406 157.393C162.309 159.188 165.045 161.818 166.521 163.229C174.025 170.52 176.526 172.829 179.412 175.244C181.144 176.698 182.961 178.131 183.41 178.43L184.266 179.007V184.694C184.266 190.274 184.715 198.099 185.121 199.788C185.228 200.258 185.335 200.707 185.335 200.793C185.335 200.9 179.84 200.964 173.127 200.964C165.152 200.964 160.983 200.9 161.069 200.75C161.325 200.344 160.278 198.505 159.059 197.244C157.092 195.17 156.686 194.4 156.686 192.669C156.686 191.856 156.75 191.151 156.814 191.065C156.9 191.001 157.349 191.429 157.819 192.049C161.496 196.752 165.58 200.536 166.948 200.536C167.953 200.536 165.879 196.731 163.228 193.695C160.919 191.044 159.465 189.205 157.969 187.025L156.686 185.186V183.561C156.686 182.663 156.772 181.936 156.878 181.936C156.985 181.936 157.563 182.578 158.14 183.369C161.283 187.602 167.59 193.994 171.502 196.923C173.084 198.121 173.79 198.441 173.79 197.992C173.79 197.329 168.979 191.151 165.195 186.96C162.437 183.882 159.936 180.782 158.867 179.114C158.311 178.238 157.883 177.831 157.434 177.703L156.793 177.532L156.729 174.175C156.707 172.337 156.729 170.819 156.793 170.819C157.071 170.819 161.432 174.774 163.079 176.484C165.067 178.601 169.193 183.454 173.191 188.35C177.552 193.738 182.662 198.826 183.688 198.826C184.266 198.826 183.859 198.078 181.016 193.845C176.868 187.687 169.557 178.772 164.49 173.705C158.952 168.168 158.61 167.869 157.648 167.783L156.793 167.719L156.729 165.282C156.707 163.935 156.729 162.695 156.793 162.524C156.964 162.075 162.074 166.864 170.69 175.565C179.006 183.967 182.213 186.832 182.726 186.34C183.047 185.998 181.059 183.027 177.638 178.729C174.923 175.309 167.868 168.125 161.475 162.267C159.722 160.642 157.905 158.889 157.477 158.355C156.729 157.435 156.686 157.307 156.686 155.768C156.686 154.87 156.75 154.143 156.814 154.143C156.9 154.143 158.503 155.597 160.406 157.393ZM76.9406 160.813C79.4206 162.887 80.8958 164.341 87.0959 170.926C92.3338 176.484 95.8187 179.713 98.3629 181.338L99.7953 182.257V185.849C99.8167 190.317 100.18 196.154 100.586 198.762C100.757 199.852 100.886 200.793 100.886 200.857C100.886 200.921 99.9877 200.964 98.9187 200.964H96.9304L96.0966 199.403C94.6001 196.645 91.6925 192.22 89.3621 189.248C79.9338 177.147 75.8075 172.038 73.584 169.729L72.4296 168.553L72.4937 166.885L72.5578 165.217L76.6199 169.472C78.8648 171.824 83.0979 176.613 86.0055 180.14C91.5214 186.768 97.2084 192.711 98.9187 193.652C99.7953 194.144 99.8167 194.144 99.8167 193.716C99.8167 193.289 98.256 190.894 95.3484 186.854C92.6545 183.091 82.5634 171.161 78.5441 166.971C76.4489 164.79 74.2254 162.438 73.6054 161.711L72.4509 160.407V158.611V156.837L73.4772 157.799C74.033 158.333 75.5937 159.702 76.9406 160.813ZM57.6563 170.006C57.6136 171.161 57.5281 171.46 57.3998 171.14C57.186 170.669 56.2239 169.429 54.6418 167.569C54.086 166.906 53.7011 166.329 53.7867 166.265C53.8722 166.222 54.5563 166.115 55.3046 166.03C56.0529 165.944 56.8653 165.795 57.1219 165.709C57.5708 165.538 57.5922 165.581 57.6563 166.992C57.6991 167.804 57.6991 169.173 57.6563 170.006ZM50.8577 167.89C51.5204 168.617 52.6535 169.964 53.4232 170.883C54.9198 172.722 56.6729 174.24 57.2929 174.24C57.6777 174.24 57.6991 174.475 57.6991 178.516C57.6991 180.867 57.6563 182.791 57.6136 182.791C57.5708 182.791 56.8867 181.616 56.0956 180.162C55.3046 178.729 54.257 176.933 53.7439 176.164C52.4184 174.175 49.3397 170.562 47.2445 168.531L45.4487 166.778L46.2825 166.693C46.7314 166.65 47.6935 166.607 48.399 166.586L49.6818 166.543L50.8577 167.89ZM35.4644 167.762C35.8707 168.318 37.7093 170.327 39.5693 172.23C42.8831 175.672 46.0687 179.478 49.6818 184.374C51.6273 187.025 56.395 192.797 57.3356 193.674C57.806 194.08 57.9129 194.422 58.0198 195.812C58.1694 197.607 58.5115 200.023 58.6826 200.579C58.7895 200.943 58.3405 200.964 51.2211 200.964H43.6314L43.0328 199.938C42.7121 199.382 41.2369 197.094 39.7617 194.871C37.3672 191.236 36.7686 190.488 34.0534 187.751C32.0865 185.806 30.8465 184.716 30.5685 184.716C30.141 184.716 30.1196 184.609 30.1196 182.471C30.1196 180.547 30.1623 180.226 30.4616 180.226C31.0389 180.226 37.1534 186.576 39.5265 189.633C45.1707 196.945 49.7887 201.841 49.7887 200.515C49.7887 200.173 48.1639 197.18 46.1969 193.909C42.2204 187.302 35.2507 179.392 31.2527 176.955L30.141 176.271L30.1196 174.988C30.1196 174.282 30.0554 173.021 29.9913 172.209L29.863 170.712L32.2575 173.064C36.0203 176.762 38.7355 180.098 44.6576 188.35C46.2183 190.531 48.3135 193.31 49.3183 194.55C51.3708 197.052 54.5136 200.323 54.8984 200.323C55.5184 200.323 55.1549 199.51 52.5039 194.871C50.3659 191.129 49.1687 189.355 45.2349 183.903C40.9162 177.938 39.27 175.929 35.6782 172.209C32.6851 169.13 30.9748 167.184 30.9748 166.885C30.9748 166.821 31.8086 166.757 32.8561 166.757L34.7162 166.778L35.4644 167.762ZM42.5197 167.526C42.5197 168.211 42.7762 168.531 45.2562 170.99C46.9666 172.679 49.468 175.522 51.8411 178.516C53.9363 181.167 56.117 183.839 56.6943 184.459L57.6991 185.571V188.5V191.429L56.3522 189.077C55.6039 187.794 54.7701 186.362 54.4922 185.891C53.7653 184.673 48.228 177.297 46.1328 174.774C45.1493 173.598 43.1183 171.375 41.6217 169.835C40.1252 168.296 38.8852 166.971 38.8852 166.906C38.8852 166.821 39.6976 166.757 40.7024 166.757H42.5197V167.526ZM77.0475 178.622C78.8648 180.846 82.3283 185.229 84.7655 188.35C89.4262 194.336 91.1152 196.325 93.9159 199.189L95.6477 200.964H89.5331H83.44L81.6441 198.356C80.6393 196.923 78.8006 194.358 77.5179 192.669C76.2565 190.98 74.7599 188.842 74.2041 187.901C73.6482 186.982 73.0282 186.169 72.8358 186.105C72.4937 185.977 72.4509 185.656 72.4509 183.476L72.4723 180.974L73.7765 182.364C74.482 183.133 76.5558 185.528 78.3731 187.709C84.0172 194.443 88.4 199.061 89.9393 199.874C91.0725 200.472 90.1959 198.719 86.9248 193.802C84.9793 190.894 84.6586 190.467 81.8793 187.067C76.5344 180.568 73.6268 177.447 72.9427 177.447C72.4723 177.447 72.4509 177.404 72.4509 175.244L72.4723 173.064L73.1137 173.812C73.4772 174.218 75.2516 176.378 77.0475 178.622ZM32.1506 190.103C32.8561 190.851 35.0155 193.203 36.9396 195.363C38.8852 197.501 40.51 199.254 40.5741 199.254C40.6383 199.275 41.13 199.66 41.6431 200.13L42.5838 200.985L40.4031 200.921L38.201 200.857L37.7307 199.745C36.8969 197.693 33.1555 193.46 30.9534 192.091L30.1196 191.557V189.954C30.1196 188.008 30.1837 188.029 32.1506 190.103ZM74.3323 193.503C75.1875 194.636 77.0261 196.795 78.4586 198.27L81.0455 200.964H79.0144H76.9834L76.8551 200.258C76.7696 199.788 76.0427 198.826 74.5889 197.18L72.4509 194.785V192.925C72.4509 191.878 72.5365 191.129 72.622 191.236C72.7289 191.365 73.4985 192.369 74.3323 193.503ZM116.108 193.545C117.54 195.341 121.367 199.296 122.586 200.28L123.441 200.943H121.795C120.213 200.964 120.127 200.943 120.127 200.472C120.106 199.489 119.251 198.227 116.942 195.833C114.932 193.738 114.569 193.267 114.569 192.669C114.569 192.305 114.633 191.985 114.74 192.006C114.825 192.006 115.445 192.69 116.108 193.545ZM32.0651 197.158C32.7065 197.907 33.6899 199.061 34.2458 199.724L35.2934 200.964H33.7755C32.3003 200.964 32.2575 200.943 32.2575 200.429C32.2575 200.087 31.8727 199.467 31.1886 198.719C30.2051 197.629 30.1196 197.458 30.1196 196.474C30.1196 195.491 30.1623 195.405 30.5044 195.598C30.7182 195.705 31.4237 196.41 32.0651 197.158ZM116.044 200.921C115.21 200.964 114.504 200.964 114.483 200.921C114.462 200.878 114.483 200.194 114.526 199.382L114.611 197.907L116.086 199.382L117.583 200.857L116.044 200.921ZM73.1778 200.216L73.7551 200.964H72.9213H72.0875L72.3227 200.216C72.4509 199.809 72.5792 199.467 72.5792 199.467C72.6006 199.467 72.8785 199.809 73.1778 200.216ZM158.503 200.601L159.145 200.943L157.819 200.964C156.579 200.964 156.515 200.943 156.622 200.472C156.857 199.403 156.878 199.382 157.392 199.831C157.648 200.066 158.161 200.429 158.503 200.601Z" fill="white"/>
</g>
</svg>
