<svg width="682" height="636" viewBox="0 0 682 636" fill="none" xmlns="http://www.w3.org/2000/svg">
<path d="M177.319 93.8113C175.676 95.3625 175.676 95.3625 178.826 93.9226C180.569 93.1496 182.716 92.0276 183.546 91.3965C184.757 90.5712 184.468 90.5891 182.039 91.2852C180.367 91.8151 178.286 92.9159 177.319 93.8113Z" fill="white"/>
<path d="M185.329 92.3768C162.336 102.975 146.489 118.007 138.597 136.774C135.723 143.5 134.15 152.242 134.439 159.659C134.655 164.522 135.091 166.592 137.52 173.33C139.971 180.135 140.941 182.036 144.231 186.146C157.602 203.256 181.325 212.153 208.715 210.32C228.974 208.98 249.164 201.846 264.666 190.604L270.635 186.21L288.292 189.669C298.007 191.522 305.974 192.973 306.087 192.863C306.133 192.775 302.777 185.668 298.577 177.062L290.91 161.458L293.26 155.634C295.909 149.127 297.559 139.698 297.147 133.056C296.588 122.929 291.089 110.685 283.81 103.276C277.602 96.9252 267.196 90.8005 259.722 89.047L257.355 88.5457L260.131 89.8742L262.841 91.2239L261.448 93.7996C258.211 99.61 259.427 101.359 262.838 95.8619C264.951 92.5424 265.423 92.1722 266.434 92.8086C267.379 93.4663 267.439 93.8888 266.842 95.2558C265.833 97.4156 266.932 98.0977 268.424 96.3002C270.049 94.4603 271.455 95.4133 270.665 97.7983C270.339 98.8586 270.273 100.278 270.506 101.014C270.888 102.218 271.067 102.087 272.276 99.864C274.01 96.7385 275.085 97.5757 274.384 101.404C273.662 105.166 274.279 105.486 276.012 102.361C277.175 100.225 277.422 100.074 278.141 100.95C278.533 101.488 278.597 103.087 278.219 104.679C277.349 107.973 278.18 108.74 279.685 106.055C281.942 102.027 282.885 104.305 281.164 109.561C279.721 114.067 280.687 114.791 282.81 110.806C284.135 108.252 284.494 107.991 285.213 108.867C285.693 109.451 285.722 110.472 285.286 111.42C284.116 113.999 285.424 115.572 286.704 113.106C286.978 112.577 287.516 112.186 287.802 112.39C288.154 112.572 287.388 114.802 286.151 117.403C284.847 120.024 283.945 122.518 284.093 122.986C284.241 123.455 284.53 123.437 285.005 122.845C285.3 122.383 286.57 120.582 287.794 118.869C289.201 116.804 290.01 116.106 290.222 116.775C290.37 117.244 290.086 118.438 289.562 119.34C288.31 121.429 288.65 122.5 290.24 121.48C292.75 119.875 292.038 122.972 288.978 127.253C286.077 131.338 285.044 133.653 286.381 133.229C286.716 133.123 288.25 131.459 289.787 129.573C291.37 127.6 292.745 126.133 292.922 126.225C293.802 126.682 293.139 129.468 291.697 130.956C289.847 133.014 290.008 135.613 291.967 133.667C294.627 130.911 294.489 134.193 291.774 137.703C289.263 140.928 287.041 145.533 288.045 145.215C288.513 145.067 289.818 143.843 290.993 142.441C293.614 139.328 294.023 140.156 292.073 144.454C291.314 146.24 290.911 147.987 291.193 148.413C291.454 148.772 290.357 150.886 288.725 153.17C284.649 158.657 284.442 159.164 286.68 157.866L288.517 156.695L287.393 159.186C286.707 160.507 286.42 161.923 286.681 162.282C287.009 162.62 286.749 163.659 286.225 164.561C284.882 166.827 285.479 168.478 287.034 166.881C288.68 165.108 289.357 165.851 288.257 168.187C287.066 170.699 287.232 171.456 288.802 170.37C290.484 169.174 290.516 169.974 289.023 173.391C287.737 176.301 287.604 177.742 288.675 177.403C289.009 177.297 289.621 176.44 290.057 175.492C290.493 174.545 291.105 173.688 291.439 173.582C292.309 173.307 292.677 175.398 291.946 176.808C291.601 177.579 291.409 178.597 291.599 179.199C291.875 180.069 292.076 180.005 292.666 179.082C293.757 177.412 294.722 178.136 293.896 179.944C293.506 180.803 293.061 182.417 292.889 183.502L292.525 185.604L280.845 183.122L269.185 180.707L266.712 182.89C258.777 189.673 246.767 195.907 233.456 200.125C208.304 208.095 185.219 207.018 165.797 196.831C157.341 192.444 152.802 188.804 147.77 182.449C144.981 178.99 144.293 177.515 141.855 169.822C139.436 162.418 139.043 160.482 139.194 156.312C139.983 134.642 155.215 113.254 179.99 99.2211C187.645 94.808 203.487 89.0523 212.501 87.3003C221.248 85.6331 232.463 85.0235 241.24 85.7757C245.231 86.057 248.513 86.1947 248.604 86.0185C248.924 85.4019 236.435 83.618 230.18 83.3917C216.804 82.9926 197.284 86.896 185.329 92.3768ZM297.776 186.149C297.731 186.237 296.843 186.223 295.713 186.14L293.719 185.888L294.661 183.75L295.691 181.657L296.746 183.825C297.328 184.966 297.801 185.994 297.776 186.149Z" fill="white"/>
<path d="M256.804 76.3541C258.943 77.2958 261.303 78.2409 262.099 78.4303C264.952 79.072 261.396 76.4447 257.796 75.3037C252.938 73.6779 252.263 74.3336 256.804 76.3541Z" fill="white"/>
<path d="M250.292 79.9634C252.92 80.8237 257.423 82.4886 260.157 83.6833C263.046 84.9025 264.659 85.3482 263.982 84.6058C262.276 82.9382 255.307 79.9938 250.64 78.97C244.867 77.7078 244.681 78.282 250.292 79.9634Z" fill="white"/>
<path d="M202.379 108.321C190.475 114.89 187.609 130.004 196.69 138.683C200.059 141.885 203.121 143.417 205.061 142.803C208.473 141.722 210.645 137.427 209.521 133.881C209.246 133.012 208.114 131.53 206.997 130.559C203.973 127.984 203.392 125.224 205.125 122.098C209.457 114.396 221.889 118.553 222.306 127.769C222.368 129.59 221.441 132.239 219.296 136.157C213.752 146.305 212.741 148.687 211.932 153.801C211.267 158.207 211.402 159.563 212.886 164.246C214.158 168.259 215.019 170.047 216.379 171.088C219.449 173.575 223.885 172.243 225.987 168.191C226.901 166.429 226.872 165.408 225.77 161.93C225.028 159.589 224.648 156.765 224.826 155.236C225.047 153.841 227.187 148.747 229.633 143.923C232.146 139.078 234.402 133.653 234.696 131.793C235.795 125.041 231.898 115.529 226.602 112.055L224.293 110.578L226.864 113.812C229.826 117.584 232.064 123.72 232.023 128.003C231.969 130.155 230.539 133.773 226.384 141.567C223.301 147.402 220.546 153.574 220.343 155.258C220.095 157.03 220.341 159.896 220.931 161.991C221.779 164.667 221.826 165.977 221.104 166.72C219.726 168.409 218.329 166.79 217.353 162.315C215.893 156.079 216.84 152.099 222.387 141.729C227.751 131.712 228.505 128.749 226.873 123.599C223.86 114.322 212.787 109.807 205.08 114.752C198.245 119.2 197.116 127.949 202.763 133.226C205.258 135.527 205.581 137.706 203.669 137.944C201.979 138.185 196.603 132.601 195.67 129.658C193.953 124.24 196.506 116.733 201.545 112.192C204.402 109.594 211.182 107.298 214.972 107.643C218.607 107.963 218.793 107.389 215.344 106.495C213.266 105.975 205.385 106.191 205.065 106.807C205.086 106.874 203.833 107.566 202.379 108.321Z" fill="white"/>
<path d="M218.868 105.304C222.088 106.639 223.131 106.677 222.172 105.508C221.541 104.678 217.43 103.551 216.426 103.869C216.159 103.954 217.258 104.636 218.868 105.304Z" fill="white"/>
<path d="M187.914 131.895C188.028 133.184 188.825 134.771 189.851 135.918C191.575 137.875 191.575 137.875 189.902 133.988C187.929 129.387 187.689 129.095 187.914 131.895Z" fill="white"/>
<path d="M289.931 107.961C290.344 108.566 291.314 110.467 292.175 112.255C293.036 114.043 294.035 115.567 294.521 115.707C295.648 116.013 292.564 109.997 290.703 108.305C289.871 107.538 289.54 107.422 289.931 107.961Z" fill="white"/>
<path d="M141.852 162.61C141.395 163.491 143.245 168.867 144.041 169.056C144.461 169.218 144.262 167.662 143.605 165.588C142.309 161.729 142.287 161.663 141.852 162.61Z" fill="white"/>
<path d="M227.211 156.026C226.504 157.28 226.281 158.897 226.641 160.034C227.301 161.886 227.301 161.886 227.563 159.227C227.695 157.786 228.324 155.821 228.936 154.964C229.526 154.041 229.624 153.421 229.156 153.569C228.688 153.718 227.784 154.814 227.211 156.026Z" fill="white"/>
<path d="M135.325 186.613C137.223 190.281 139.202 193.04 142.043 195.967C146.326 200.425 147.488 199.909 143.338 195.409C141.131 193.091 138.54 189.79 137.499 188.132C135.161 184.236 133.578 183.191 135.325 186.613Z" fill="white"/>
<path d="M131.647 192.195C132.088 193.821 137 199.332 138.261 199.595C139.543 199.924 139.391 199.678 135.132 195.065C132.992 192.725 131.414 191.459 131.647 192.195Z" fill="white"/>
<path d="M220.523 177.43C219.242 178.499 218.915 182.577 219.998 184.368C221.145 186.361 223.984 187.89 226.404 187.859C228.468 187.868 231.951 184.924 232.337 182.888C232.796 180.387 231.574 177.462 229.679 176.59C227.695 175.673 227.086 176.307 227.804 178.804C228.418 180.744 227.237 182.59 225.374 182.518C223.866 182.407 222.909 179.618 223.887 178.057C225.16 176.035 222.793 175.533 220.523 177.43Z" fill="white"/>
<path d="M218.161 185.54C219.223 187.265 221.02 188.756 221.361 188.206C221.59 187.766 217.99 183.607 217.522 183.755C217.321 183.819 217.575 184.621 218.161 185.54Z" fill="white"/>
<path d="M297.109 169.872C298.722 173.336 300.809 176.208 301.108 175.524C301.428 174.908 297.794 168.551 296.589 167.534C295.976 166.993 296.163 167.817 297.109 169.872Z" fill="white"/>
<path d="M224.06 211.125C227.303 210.907 229.979 210.06 229.746 209.324C229.618 208.922 227.883 209.252 225.742 209.93C222.552 211.014 222.26 211.254 224.06 211.125Z" fill="white"/>
<g clip-path="url(#clip0_513_266)">
<path d="M439.165 243.029C444.058 245.779 444.058 245.779 435.6 244.204C430.936 243.39 425.087 241.978 422.705 240.956C419.292 239.696 419.998 239.565 426.271 239.781C430.62 240.052 436.295 241.454 439.165 243.029Z" fill="white"/>
<path d="M418.999 244.392C480.783 256.1 528.014 282.791 558.32 323.271C569.292 337.749 578.341 357.871 582.106 375.916C584.51 387.766 584.707 393.017 582.906 410.716C581.094 428.589 579.899 433.753 574.443 445.636C552.514 494.91 500.697 530.621 433.59 542.679C383.963 551.636 331.019 546.59 286.899 528.824L269.873 521.826L229.402 540.782C207.107 551.092 188.779 559.38 188.442 559.184C188.279 558.999 192.091 539.854 197.034 516.588L206.125 474.373L196.958 461.753C186.66 447.665 177.013 425.935 174.01 409.683C169.265 384.941 175.151 352.13 188.236 329.895C199.376 310.857 220.767 289.839 237.725 281.117L243.127 278.485L237.236 283.356L231.519 288.239L236.423 293.608C247.72 305.662 245.84 310.609 234.315 299.414C227.225 292.686 225.866 292.077 223.812 294.219C221.931 296.372 222.04 297.427 224.302 300.362C228.032 304.959 225.793 307.265 221.118 303.83C216.094 300.374 213.279 303.516 216.618 308.788C218.042 311.147 219.054 314.528 218.935 316.441C218.74 319.572 218.229 319.366 213.977 314.735C207.92 308.246 205.834 310.91 209.825 319.715C213.827 328.347 212.534 329.488 206.477 322.999C202.389 318.554 201.704 318.336 200.498 320.88C199.878 322.413 200.683 326.305 202.554 329.914C206.632 337.328 205.089 339.676 199.848 334.111C191.986 325.763 191.085 331.819 198.393 343.45C204.58 353.44 202.689 355.766 195.176 347.44C190.446 342.082 189.424 341.669 188.217 344.213C187.413 345.909 187.957 348.387 189.577 350.409C193.949 355.92 191.743 360.497 187.176 355.324C186.197 354.215 184.664 353.595 184.099 354.259C183.36 354.911 186.546 359.824 191.091 365.346C195.81 370.879 199.486 376.347 199.41 377.564C199.334 378.782 198.628 378.912 197.127 377.771C196.138 376.836 191.995 373.26 188.015 369.869C183.383 365.739 181.013 364.544 180.905 366.283C180.829 367.501 182.232 370.207 184.037 372.066C188.31 376.349 188.137 379.132 183.69 377.632C176.678 375.275 180.256 382.308 190.205 390.786C199.653 398.883 203.535 403.84 200.056 403.623C199.187 403.569 194.49 400.482 189.651 396.863C184.65 393.059 180.453 390.352 180.083 390.679C178.235 392.31 181.509 398.625 185.88 401.342C191.577 405.19 192.752 411.549 186.859 408.039C178.792 402.996 181.098 410.823 189.753 417.649C197.745 423.909 205.867 433.67 203.258 433.508C202.041 433.432 198.159 431.269 194.484 428.596C186.297 422.672 185.808 424.912 193.094 434.097C195.997 437.945 198.02 441.912 197.596 443.108C197.183 444.13 201.098 448.565 206.404 453.087C219.528 463.858 220.332 464.956 214.157 463.174L209.025 461.457L213.234 466.783C215.68 469.555 217.224 472.794 216.812 473.816C216.225 474.828 217.475 477.176 219.28 479.034C223.88 483.686 223.435 488.024 218.727 485.112C213.693 481.829 212.508 484.026 216.564 488.993C220.947 494.33 221.001 496.254 216.565 494.581C211.792 492.712 212.195 494.658 217.85 501.995C222.699 508.234 223.885 511.626 221.102 511.453C220.232 511.398 218.242 509.703 216.622 507.681C215.002 505.659 213.012 503.964 212.142 503.909C209.881 503.769 210.252 509.03 212.861 511.987C214.155 513.639 215.232 515.976 215.135 517.542C214.994 519.803 214.472 519.77 212.493 517.901C208.861 514.531 206.97 516.858 210.047 520.717C211.505 522.554 213.549 526.174 214.615 528.685L216.757 533.533L243.412 520.526L270.055 507.693L277.329 511.464C300.531 523.038 333.223 530.837 367.838 532.994C433.241 537.07 488.225 520.589 528.899 484.358C546.639 468.7 555.388 457.196 563.69 438.854C568.331 428.841 569.102 424.873 570.348 404.869C571.725 385.572 571.507 380.669 568.635 370.711C553.699 318.966 504.128 276.588 435.983 257.673C414.88 251.644 373.242 247.303 350.466 248.503C328.387 249.747 300.992 255.024 280.294 262.116C270.847 265.195 263.02 267.501 262.694 267.131C261.552 265.838 290.577 254.026 305.513 249.718C337.506 240.711 386.895 238.375 418.999 244.392ZM204.43 538.004C204.593 538.188 206.724 537.623 209.398 536.742L214.051 534.936L210.495 530.349L206.754 525.925L205.516 531.785C204.799 534.884 204.278 537.645 204.43 538.004Z" fill="white"/>
<path d="M237.121 248.774C232.534 252.33 227.414 256.027 225.61 256.963C219.12 260.225 226.109 251.755 234.098 246.84C244.827 240 246.849 241.173 237.121 248.774Z" fill="white"/>
<path d="M254.984 253.554C249.168 257.208 239.32 263.928 233.45 268.452C227.222 273.128 223.602 275.172 224.786 272.976C227.895 267.931 242.917 256.644 253.548 251.369C266.701 244.855 267.495 246.127 254.984 253.554Z" fill="white"/>
<path d="M388.433 306.538C359.63 305.163 337.646 329.271 344.392 355.043C346.918 364.573 350.743 370.745 354.93 371.792C362.293 373.634 370.992 368.293 372.906 360.641C373.376 358.764 372.979 354.83 372.041 351.834C369.443 343.821 371.465 338.19 378.071 334.473C394.458 325.38 412.287 346.713 402.792 363.821C400.878 367.177 396.258 370.931 388.028 375.622C366.731 387.783 362.255 390.959 355.107 399.296C349.007 406.514 347.743 409.113 345.215 419.219C343.049 427.881 342.615 432.068 343.914 435.461C346.692 443.366 356.185 445.894 364.487 440.914C368.097 438.749 369.18 436.872 371.058 429.364C372.321 424.311 374.776 418.789 376.798 416.227C378.747 413.953 388.277 407.132 398.059 401.142C407.986 395.187 418.093 387.898 420.692 384.866C430.186 373.894 433.726 352.383 428.024 340.218L425.498 334.984L426.544 343.683C427.698 353.79 424.917 367.361 420.08 375.048C417.589 378.874 410.983 383.818 394.812 393.273C382.755 400.382 370.916 408.466 368.677 411.281C366.259 414.204 363.515 419.654 362.251 424.094C360.807 429.869 359.435 432.287 357.305 432.828C352.938 434.343 352.216 429.868 355.43 420.7C359.726 407.815 365.863 401.68 387.413 389.121C408.241 376.996 412.897 372.485 415.678 361.368C420.553 341.264 405.576 320.797 386.157 321.156C368.868 321.587 357.1 336.131 361.429 351.941C363.377 358.872 361.536 363.167 357.819 361.47C354.498 360.026 350.999 343.963 352.588 337.611C355.513 325.917 368.472 315.198 382.621 312.601C390.67 311.086 405.468 314.48 411.929 319.318C418.136 323.938 419.111 323.108 413.878 317.658C410.702 314.409 396.229 306.033 394.966 306.791C394.93 306.935 391.898 306.791 388.433 306.538Z" fill="white"/>
<path d="M421.566 319.426C425.896 325.418 427.737 326.646 427.304 323.469C427.088 321.268 420.916 314.662 418.751 314.12C418.173 313.976 419.4 316.43 421.566 319.426Z" fill="white"/>
<path d="M336.093 333.024C334.865 335.478 334.54 339.232 335.117 342.445C336.055 347.895 336.055 347.895 337.355 339.016C338.909 328.513 338.8 327.719 336.093 333.024Z" fill="white"/>
<path d="M176.302 344.868C175.672 346.575 174.477 351.739 173.478 356.566C172.479 361.393 170.99 365.666 169.903 366.296C167.37 367.71 171.183 351.359 174.65 346.162C176.193 343.813 176.922 343.335 176.302 344.868Z" fill="white"/>
<path d="M566.018 387.487C567.649 389.334 566.423 403.402 564.619 404.338C563.706 404.979 563.248 401.109 563.584 395.717C564.387 385.639 564.398 385.465 566.018 387.487Z" fill="white"/>
<path d="M380.227 420.306C377.556 421.786 375.353 424.456 374.74 426.911C373.873 430.989 373.873 430.989 377.302 426.478C379.143 424.024 382.464 421.172 384.522 420.306C386.615 419.296 387.482 418.286 386.471 418.033C385.461 417.78 382.609 418.754 380.227 420.306Z" fill="white"/>
<path d="M596.186 441.403C593.818 451.384 590.71 459.222 585.624 467.986C577.983 481.305 574.874 480.762 582.166 467.421C586.09 460.506 590.349 450.993 591.86 446.372C595.152 435.576 598.336 432.108 596.186 441.403Z" fill="white"/>
<path d="M608.407 452.642C608.321 456.828 599.801 473.06 596.92 474.452C594.029 476.018 594.246 475.333 601.734 461.656C605.483 454.73 608.526 450.729 608.407 452.642Z" fill="white"/>
<path d="M344.345 451.521C340.844 452.026 335.718 459.028 335.681 463.468C335.536 468.34 338.964 474.26 343.368 476.896C347.085 479.206 356.65 477.763 359.61 474.515C363.22 470.509 364.268 463.868 361.814 460.186C359.251 456.324 357.447 456.793 355.966 462.098C354.919 466.285 350.732 468.306 347.448 466.104C344.849 464.227 346.221 458.127 349.723 456.395C354.271 454.157 350.553 450.62 344.345 451.521Z" fill="white"/>
<path d="M331.061 463.541C331.061 467.836 332.648 472.528 333.876 471.915C334.778 471.373 332.902 459.859 331.892 459.606C331.459 459.498 331.025 461.231 331.061 463.541Z" fill="white"/>
<path d="M196.247 498.379C194.444 507.696 191.141 515.872 190.01 514.405C188.868 513.111 193.801 495.607 196.094 492.432C197.246 490.758 197.29 492.856 196.247 498.379Z" fill="white"/>
<path d="M397.096 553.851C389.15 555.277 382.192 554.843 382.311 552.93C382.376 551.886 386.757 551.635 392.323 551.982C400.662 552.676 401.51 553.078 397.096 553.851Z" fill="white"/>
</g>
<defs>
<clipPath id="clip0_513_266">
<rect width="522.846" height="364.25" fill="white" transform="matrix(-0.996756 0.0804802 0.0804802 0.996756 623.521 202.391)"/>
</clipPath>
</defs>
</svg>
