<svg width="237" height="300" viewBox="0 0 237 300" fill="none" xmlns="http://www.w3.org/2000/svg">
<g opacity="0.15" filter="url(#filter0_d_228_345)">
<path d="M220.659 0.900395C217.863 2.10652 214.154 6.47398 212.231 10.9908C210.95 13.9556 210.94 14.3038 212.063 16.7017C213.258 19.2364 213.177 19.4478 211.656 22.9772C209.102 28.6282 204.621 36.4305 202.933 38.0173C202.089 38.8107 200.427 39.4921 199.158 39.5343C197.963 39.574 196.909 39.8873 196.897 40.3052C196.886 40.6534 194.908 41.9716 192.56 43.1628C185.669 46.5923 172.964 54.9462 163.801 62.0692C159.22 65.6307 153.504 69.717 151.223 71.1843C147.346 73.6092 132.544 87.3206 123.078 97.1672C118.304 102.196 117.247 102.649 120.962 98.0724C122.509 96.212 123.527 94.5779 123.309 94.3765C123.093 94.1053 122.641 94.2595 122.332 94.6177C122.021 95.0455 119.311 98.4056 116.292 102.124C113.273 105.842 108.231 112.411 105.119 116.758C102.009 121.036 99.2119 124.817 98.9797 125.103C98.6727 125.391 94.9824 126.558 90.6946 127.744C82.0463 130.049 72.9879 133.62 70.5387 135.719C69.6967 136.443 68.8568 137.097 68.6327 137.104C68.4834 137.109 68.3266 134.819 68.2588 132.038C68.0583 121.051 66.7033 116.365 63.0158 114.887C61.5404 114.31 60.103 114.984 50.3715 121.152C44.3651 124.969 37.7346 129.712 35.5862 131.732C31.8266 135.266 26.1642 142.621 23.3347 147.515C21.9997 149.786 21.9936 149.995 23.2266 151.207C24.3849 152.421 24.3787 152.629 22.3593 155.341C19.9461 158.76 19.8632 159.041 21.7582 160.579C23.2153 161.783 23.1385 161.855 18.8866 164.362C11.7517 168.495 5.88446 172.656 5.32697 173.857C4.76335 175.268 6.73505 176.733 9.12507 176.653C10.7682 176.599 10.7621 176.808 7.23385 182.63C3.15219 189.515 3.01427 191.676 6.80987 189.463C8.85909 188.282 11.3246 185.625 14.6647 181.131C15.5189 179.989 15.6356 181.099 15.3835 187.16C15.255 191.548 15.466 194.533 15.9121 194.587C16.3582 194.642 18.309 191.725 20.2802 188.111L23.9056 181.52L24.122 186.87C24.2604 189.788 24.7016 192.556 25.1375 192.959C26.5904 194.302 29.0661 191.298 30.941 185.878C31.8442 183.065 32.8825 180.734 33.1812 180.724C33.6293 180.71 34.7489 183.247 37.0239 189.642C37.7116 191.637 38.6915 188.751 39.7436 180.854C41.4449 168.622 41.4409 168.761 43.7644 168.406C45.1875 168.219 45.874 167.709 46.058 166.52C46.236 165.54 46.8498 164.963 47.8207 164.931C48.5676 164.906 49.25 164.536 49.2602 164.187C49.2725 163.77 50.1769 163.461 51.2225 163.426C53.3138 163.357 58.3166 160.686 58.3472 159.641C58.3574 159.293 58.6643 159.005 59.0378 158.992C59.4112 158.98 59.619 159.529 59.4512 160.161C58.5195 163.949 58.2906 166.67 58.8881 166.651C59.7843 166.621 61.2633 161.98 61.349 159.055C61.3837 157.871 61.7877 156.813 62.1612 156.801C62.6093 156.786 62.9264 156.149 62.9468 155.453C62.9733 154.548 63.8153 153.824 65.4727 153.282C68.1093 152.429 82.9248 148.458 83.597 148.435C83.8958 148.425 82.9424 150.405 81.6033 152.815C77.8245 159.551 69.0825 177.792 66.5836 184.137C63.6765 191.678 60.9033 197.198 60.1565 197.222C59.783 197.235 59.8353 197.998 60.1801 198.961C60.8719 200.817 60.2642 201.185 58.6619 199.846C58.0787 199.379 58.1452 199.655 58.8615 200.675C60.2961 202.645 59.6333 204.893 58.1199 203.065C57.4722 202.252 57.1755 202.192 57.0845 202.751C57.0457 204.075 60.0745 207.662 61.1949 207.624C63.7342 207.54 62.92 209.863 59.3118 213.323L55.6268 216.854L58.3903 216.763C60.6309 216.688 61.1456 216.949 61.115 217.994C61.066 219.666 59.156 221.19 57.6038 220.685C56.7178 220.367 56.4835 220.722 56.6545 222.526C56.7631 223.914 57.2615 224.732 58.0789 224.844C59.716 224.998 60.9653 225.653 64.1699 228.329C67.3787 230.866 68.1582 229.727 58.3962 236.94L52.9064 240.949L55.1667 242.752C56.9143 244.225 58.0971 244.603 60.7859 244.514C63.7734 244.415 64.1428 244.541 63.664 245.601C63.3449 246.307 62.8274 248.69 62.5401 250.857C62.1353 254.488 62.2724 254.901 63.4674 254.861C65.484 254.794 66.2492 254.143 68.7433 250.511L71.001 247.305L72.3961 253.173C73.9222 259.663 74.4123 260.76 75.9061 260.71C77.6239 260.653 79.0981 258.725 80.5547 254.85C81.3607 252.806 82.2394 250.828 82.5463 250.54C82.8553 250.182 83.9409 251.328 85.0123 252.963C87.4293 257.057 90.4682 260.296 91.2274 259.853C91.6069 259.632 92.1101 257.736 92.3954 255.64C94.1878 242.847 93.7776 244.113 96.3917 244.027C98.7817 243.947 106.426 245.363 107.077 246.037C107.297 246.169 107.206 246.729 106.895 247.156C106.506 247.726 106.064 247.532 105.341 246.721C104.478 245.636 104.397 245.848 104.315 248.634C104.264 250.375 104.539 256.28 104.973 261.831C105.335 267.316 105.572 271.97 105.493 272.112C105.342 272.186 103.382 270.303 101.14 267.873C97.2314 263.759 94.8781 262.584 93.7088 264.293C93.4746 264.649 92.4376 269.484 91.3822 274.946C89.6837 284.535 89.1037 286.502 88.4764 284.992C88.3393 284.579 86.4288 281.025 84.155 277.134C79.2545 268.67 77.7852 267.884 75.632 272.617C74.9129 274.241 73.22 278.541 71.8462 282.135C70.5472 285.727 69.1857 288.903 68.8082 289.055C68.5033 289.274 67.4205 285.483 66.443 280.645C64.2238 269.795 63.4777 267.246 62.4905 267.835C62.1109 268.056 60.56 270.056 59.0798 272.193C56.0445 276.468 49.7365 282.94 49.0827 282.335C48.8647 282.134 50.3193 278.328 52.313 273.948C56.466 264.626 57.2884 262.024 56.2427 262.059C55.8693 262.071 52.9985 263.28 49.9722 264.703C44.4506 267.252 36.4664 269.813 35.7379 269.211C35.5926 269.077 39.2837 265.336 43.962 261.006L52.4768 253.07L47.6845 253.646C41.4671 254.479 34.3194 253.951 35.3998 252.733C35.8622 252.23 38.9088 250.111 42.331 247.91C45.6785 245.712 48.4244 243.672 48.4325 243.394C48.4407 243.115 47.1832 242.739 45.6209 242.583C39.301 241.818 34.705 240.788 34.8727 240.157C34.9597 239.736 40.4127 236.981 46.9921 233.979C57.9586 228.953 62.586 226.364 60.2706 226.441C59.8225 226.456 54.5331 228.719 48.634 231.42C42.6602 234.123 36.2322 237.05 34.2658 237.95C32.2248 238.853 30.6277 239.88 30.6196 240.159C30.591 241.134 38.2709 243.87 40.8103 243.786C44.0965 243.677 43.7672 244.731 39.5818 247.514C34.712 250.738 31.7319 253.133 31.7115 253.829C31.6829 254.804 36.2063 255.767 41.7189 256.071L46.9369 256.246L40.1889 262.453C31.446 270.536 31.3305 271.932 39.589 270.196C42.2153 269.692 46.2832 268.374 48.7017 267.319C51.0456 266.267 53.2299 265.568 53.3732 265.772C53.5932 265.904 52.1407 269.64 50.149 273.951C48.1554 278.331 46.5453 282.35 46.529 282.907C46.4188 286.668 57.0024 279.428 60.3854 273.471C62.0354 270.633 62.0354 270.633 62.584 272.285C62.8542 273.25 63.7774 277.394 64.5533 281.473C65.3957 285.829 66.5532 289.617 67.2757 290.428L68.6498 291.913L70.0411 290.266C70.8146 289.336 72.8082 284.956 74.5052 280.516C76.3658 275.584 77.8746 272.473 78.3913 272.664C78.9101 272.786 80.9197 275.502 82.8404 278.709C86.6818 285.121 88.6291 287.422 90.0481 287.375C91.2432 287.335 91.5745 286.211 93.3825 275.436C94.1954 270.608 95.2141 266.4 95.521 266.111C96.4438 265.176 106.422 276.047 106.369 277.857C106.359 278.206 106.874 278.467 107.546 278.444C108.517 278.412 108.68 277.92 108.425 276.467C108.231 275.43 107.597 269.05 107.127 262.177C106.264 250.865 106.297 249.751 107.359 249.159C108.041 248.788 109.217 246.871 109.946 244.898C110.75 242.923 111.847 241.147 112.45 240.919C113.054 240.69 114.527 241.337 115.764 242.409L118.021 244.352L117.73 239.004L117.515 233.584L121.681 234.002C127.711 234.498 135.555 234.167 135.878 233.322C135.965 232.901 135.453 232.57 134.56 232.461C133.743 232.349 133.083 231.953 133.093 231.605C133.103 231.257 134.961 228.969 137.197 226.529C151.695 210.462 158.021 203.364 162.357 198.001C165.141 194.639 167.464 191.778 167.617 191.634C167.771 191.49 168.069 191.48 168.287 191.681C168.503 191.953 166.702 194.865 164.216 198.218C161.805 201.568 159.926 204.553 160.219 204.752C160.655 205.155 168.482 195.223 168.513 194.179C168.588 191.602 171.873 196.641 175.013 204.051L177.039 208.785L173.168 213.575C171.077 216.149 168.046 220.286 166.483 222.703C164.918 225.19 163.292 227.192 162.844 227.207C162.396 227.222 161.002 226.434 159.611 225.506C156.612 223.449 155.478 223.973 157.871 226.329C159.392 227.879 159.457 228.224 158.562 230.759C157.497 233.995 156.504 234.793 155.043 233.729C154.459 233.261 153.937 233.278 153.626 233.706C153.004 234.562 157.269 239.221 158.688 239.174C160.556 239.112 159.772 240.39 155.72 243.725C151.056 247.568 151.168 248.816 155.961 245.665C157.787 244.491 160.294 242.947 161.657 242.275C163.928 241.156 164.152 241.149 164.717 242.243C165.498 243.609 164.601 246.213 163.234 247.024C162.626 247.392 162.979 248.076 164.368 249.074C166.267 250.472 166.337 250.608 165.095 252.25C163.466 254.391 163.352 255.717 164.921 255.665C165.817 255.635 165.956 255.978 165.558 256.827C164.447 259.09 164.065 261.955 164.887 261.928C165.335 261.913 166.803 260.195 168.208 258.061C170.472 254.646 170.931 254.282 172.182 254.867C173.95 255.643 174.57 254.857 175.352 251.074C176.406 245.682 179.641 247.314 179.469 253.164C179.376 256.367 179.297 256.509 177.359 256.434C175.571 256.355 175.264 256.643 174.987 258.461C174.39 263.56 173.067 265.413 172.262 262.309C171.593 259.687 169.901 261.414 167.875 266.908C166.743 269.868 165.622 272.479 165.315 272.768C164.934 273.059 164.754 271.534 164.818 269.375C164.897 266.659 164.635 265.415 164.038 265.435C163.513 265.522 161.52 267.328 159.59 269.549C155.187 274.635 154.851 273.394 158.162 264.795C160.663 258.381 160.542 257.411 157.233 258.286C156.254 258.597 155.433 258.624 155.439 258.415C155.445 258.206 156.693 256.356 158.171 254.289C161.126 250.225 161.625 248.469 159.776 247.904C157.929 247.27 154.263 247.6 154.241 248.366C154.231 248.715 155.266 249.028 156.461 248.988C157.731 248.946 158.691 249.262 158.679 249.68C158.667 250.098 157.483 252.294 156.001 254.5C152.255 260.121 152.241 260.609 155.46 260.224L158.153 259.995L156.218 264.93C155.167 267.678 154.09 271.332 153.741 273.083C153.017 277.421 154.514 277.232 159.058 272.419L162.525 268.686L162.964 271.524C163.824 277.827 166.081 277.195 168.604 270.015C169.582 267.199 170.475 264.734 170.629 264.59C170.782 264.446 171.591 264.836 172.32 265.438C174.286 267.112 175.206 266.247 175.92 262.257C176.456 259.248 176.692 258.822 178.491 258.554C180.364 258.283 180.445 258.071 180.812 253.189L181.183 248.167L184.469 248.058C186.336 247.996 187.84 247.598 187.85 247.25C187.863 246.832 187.423 246.568 186.825 246.588C186.228 246.608 185.564 246.352 185.277 245.944C184.49 244.787 187.154 240.454 189.199 239.412C191.771 238.213 197.254 229.334 199.772 222.362C200.818 219.753 202.01 217.278 202.545 216.843C203.231 216.333 203.488 215.212 203.236 213.62C202.984 212.028 203.156 211.257 203.828 211.234C204.501 211.212 204.713 209.048 204.756 202.506C204.746 195.201 204.492 193.679 203.327 192.674C202.31 191.734 201.864 191.679 201.62 192.383C201.222 193.231 193.033 197.678 191.689 197.722C191.39 197.732 190.777 195.735 190.4 193.312C189.518 187.775 186.577 181.194 183.812 178.781C182.648 177.776 181.715 176.485 181.73 175.997C181.744 175.51 184.743 169.914 188.363 163.531C196.065 150.195 200.663 140.997 203.968 132.608C205.903 127.673 206.291 127.173 205.922 129.551C205.441 133.255 206.555 133.426 207.63 129.842C210.422 121.122 213.962 84.337 213.642 67.2317C213.501 54.2255 212.649 47.644 210.578 41.9379L208.991 37.5377L213.091 30.0263L217.189 22.5846L220.17 22.6942C224.419 22.8314 227.464 20.782 229.99 16.0364C232.354 11.7833 233.04 6.19434 231.466 3.88101C229.466 0.816491 224.285 -0.611633 220.659 0.900395ZM228.078 4.89806L231.646 7.91049L229.356 12.2308C226.985 16.7625 223.683 19.9336 221.368 20.0105C219.351 20.0775 218.863 18.9109 220.605 18.0181C221.365 17.5754 222.835 15.7872 223.782 14.0162C225.913 10.0492 225.482 6.93249 222.678 5.84285C221.57 5.46221 220.611 5.07658 220.464 5.0119C219.802 4.68601 222.421 1.88549 223.392 1.85323C223.988 1.90302 226.113 3.22396 228.078 4.89806ZM221.853 11.0885C221.467 14.0932 221.069 14.9413 220.33 14.6876C219.591 14.4338 219.278 14.9313 219.239 16.2545L219.182 18.2046L217.671 16.3066C216.156 14.548 216.16 14.4087 217.422 12.0707C219.238 8.67067 219.026 8.26025 216.789 10.7698C215.553 12.2024 214.945 12.5705 214.893 11.8068C214.936 10.3443 217.995 7.80748 220.245 7.38478C221.295 7.21075 222.195 7.04168 222.193 7.11133C222.268 7.10885 222.066 8.92458 221.853 11.0885ZM215.412 22.087C215.019 22.7958 214.088 24.0096 213.468 24.7955C212.309 26.156 212.234 26.1585 213.038 24.1836C214.161 21.5024 214.551 20.9328 215.447 20.903C215.895 20.8881 215.883 21.306 215.412 22.087ZM207.609 41.4104C209.489 46.0096 210.643 52.4419 210.634 57.8692C210.629 60.5829 210.408 63.0254 210.252 63.2393C210.024 63.3861 208.4 62.8138 206.561 61.9009C203.398 60.3361 201.025 57.284 202.315 56.5453C203.454 55.8813 203.246 50.2525 202.015 48.9714C201 47.9615 201.083 47.6804 202.161 46.5314C203.776 44.8774 203.803 43.972 202.342 42.9073C201.395 42.1039 201.478 41.8228 203.386 40.3679C204.533 39.4253 205.748 38.6891 205.975 38.612C206.273 38.6021 206.981 39.9005 207.609 41.4104ZM199.178 43.917C198.639 44.4915 198.619 45.1879 198.974 45.8023C200.118 47.5037 199.813 47.7226 196.537 47.4836C191.848 47.0828 191.646 46.3241 195.735 44.3097C199.597 42.3724 200.644 42.268 199.178 43.917ZM202.479 50.9738C202.624 51.1081 202.539 51.4588 202.307 51.7448C201.693 52.3218 194.391 49.4335 194.415 48.5977C194.429 48.1102 201.68 50.235 202.479 50.9738ZM195.054 52.2641C201.26 54.3539 202.954 55.1326 202.263 55.7817C201.803 56.2145 189.39 52.0348 187.856 50.903C187.126 50.3707 186.893 50.6567 186.857 51.9103C186.816 53.3032 187.694 53.9002 192.931 55.9526C196.249 57.3035 199.638 58.7912 200.369 59.3235C202.27 60.6519 201.123 61.5945 199.068 60.4104C193.857 57.4526 185.53 53.9025 183.885 54.0268C182.466 54.0739 183.858 54.9321 188.65 56.9298C195.801 59.8928 199.017 62.1515 192.45 59.6562C183.008 55.9345 179.474 54.3125 179.94 53.6708C180.249 53.3126 181.699 52.2208 183.143 51.3379C186.181 49.4975 186.926 49.5424 195.054 52.2641ZM187.389 59.1982C193.448 61.2233 199.915 64.6264 199.882 65.7408C199.868 66.2283 197.65 65.5366 194.485 64.0415C189.554 61.7006 181.503 58.9067 179.785 58.9638C179.412 58.9762 179.329 59.2573 179.541 59.6677C179.755 60.0085 179.595 60.3616 179.222 60.3741C178.774 60.3889 178.412 59.9835 178.429 59.4263C178.447 58.7995 177.93 58.608 176.953 58.8492C176.126 59.0854 175.458 58.9684 175.47 58.5506C175.529 56.5309 180.222 56.7924 187.389 59.1982ZM179.627 61.8217C181.993 62.578 184.423 63.6801 185.002 64.2871C185.654 64.9612 188.515 66.6055 191.462 67.8991C197.424 70.6928 201.731 73.959 206.354 79.1628L209.459 82.6777L205.088 79.0657C196.784 72.1752 181.849 64.9484 172.57 63.3086C169.082 62.6591 168.789 62.4601 170.007 61.6543C171.913 60.269 174.747 60.314 179.627 61.8217ZM191.342 64.3547C197.53 67.0713 203.769 70.6212 203.231 71.1261C202.925 71.4146 200.414 70.5239 196.29 68.6432C195.334 68.1879 194.603 67.6556 194.611 67.377C194.621 67.0288 193.881 66.8447 192.984 66.8745C192.016 66.8371 190.312 66.4067 189.059 65.8917C186.921 64.9886 187.071 64.9836 190.926 65.8296C191.963 66.0735 190.278 65.0162 187.261 63.5858C180.344 60.2672 183.386 60.8619 191.342 64.3547ZM207.025 63.9032C208.268 64.7664 208.984 65.7862 208.602 66.0772C208.296 66.3657 206.899 65.6468 205.591 64.4378C204.209 63.2314 202.74 62.4453 202.285 62.6691C201.754 62.9651 201.611 62.7611 201.928 62.1244C202.488 60.8534 203.521 61.2365 207.025 63.9032ZM180.277 67.6446C189.437 70.8191 198.25 75.6054 203.41 80.3043C209.372 85.6724 210.003 87.0429 209.22 93.4005C208.912 96.2634 208.467 98.7134 208.314 98.8576C208.158 99.0715 205.539 96.7929 202.564 93.8999C199.081 90.5368 194.991 87.5418 191.245 85.5093C180.516 79.8822 162.199 73.4635 156.971 73.6372C154.506 73.7191 154.508 73.6495 156.111 72.4134C166.191 64.5642 165.662 64.7905 169.683 65.0744C171.693 65.2163 176.509 66.3782 180.277 67.6446ZM207.655 67.8481C209.104 69.3307 209.104 69.3307 207.633 68.6142C205.501 67.5022 203.602 66.1042 203.619 65.547C203.641 64.781 206.063 66.1616 207.655 67.8481ZM207.445 69.9424C210.873 72.6116 211.569 74.3279 209.958 75.8426C208.96 76.7802 206.672 75.9517 205.158 74.1234C203.931 72.7031 204.699 71.9818 207 72.3924C208.782 72.6811 208.714 72.4746 205.727 69.9995C201.428 66.4547 202.922 66.4051 207.445 69.9424ZM163.888 76.9559C173.437 79.5608 187.741 85.417 193.605 88.9793L198.736 92.1486L199.119 99.4414C199.358 104.026 199.189 107.232 198.636 108.294C198.236 109.212 197.824 110.547 197.803 111.244C197.781 112.01 197.316 112.582 196.872 112.457C196.277 112.408 195.964 112.905 196.091 113.666C196.218 114.427 195.986 114.713 195.471 114.452C194.956 114.191 194.861 114.89 195.171 117.036C195.937 121.464 195.544 127.252 194.315 130.98C193.255 134.077 191.867 135.584 191.928 133.495C191.941 133.077 191.404 133.582 190.773 134.716C190.145 135.781 189.567 137.678 189.531 138.932C189.463 141.23 187.957 144.272 187.943 142.185C187.885 141.631 187.344 142.275 186.707 143.618C186.071 144.961 185.649 146.645 185.854 147.264C186.183 148.784 184.909 148.965 184.355 147.523C183.588 145.67 182.798 147.157 182.151 151.423C181.785 153.731 181.207 155.629 180.834 155.641C180.46 155.653 180.048 156.989 179.852 158.596L179.54 161.598L177.902 158.939C176.621 156.825 176.035 156.427 175.488 157.28C174.708 158.419 175.08 163.555 176.479 169.284C177.409 173.219 177.186 175.731 175.864 175.009C175.571 174.81 175.1 173.087 174.858 171.147C174.622 168.997 174.134 167.831 173.678 168.124C173.224 168.348 172.487 168.025 171.985 167.346C170.835 165.853 169.318 166.669 169.784 168.602C170.052 169.636 170.347 169.766 170.813 169.124C171.516 168.057 172.432 169.905 173.623 175.084C174.158 177.223 174.121 178.477 173.584 178.982C172.74 179.775 172.389 179.021 171.704 174.382C171.323 172.099 171.182 171.825 170.477 172.962C169.93 173.815 169.951 175.623 170.457 178.738C171.04 181.78 170.991 183.451 170.454 183.956C169.916 184.461 169.485 183.919 168.934 182.337C168.186 179.857 167.375 171.882 168.079 173.32C168.291 173.73 168.731 173.994 169.11 173.773C169.49 173.551 169.226 172.377 168.59 171.146L167.386 168.96L166.828 172.735C166.47 174.765 165.813 176.805 165.353 177.237C164.892 177.67 164.468 179.424 164.489 181.232L164.472 184.363L165.585 182.03C166.218 180.827 166.92 179.76 167.144 179.752C167.368 179.745 167.284 180.095 167.047 180.521C166.736 180.948 166.835 182.685 167.308 184.339C167.986 186.682 167.957 187.657 167.267 188.306C166.653 188.883 166.437 188.612 166.484 187.01L166.469 184.993L164.92 186.923C162.985 189.283 161.34 189.407 154.52 187.895C151.853 187.218 147.701 186.312 145.257 185.698C142.811 185.153 140.518 184.464 140.078 184.2C139.715 183.864 136.459 182.929 132.905 182.003C125.422 180.164 107.962 172.534 99.8972 167.654C96.8921 165.805 93.2895 163.977 91.9594 163.534C89.3759 162.576 85.6729 159.081 84.9186 156.81C84.1725 154.261 94.0369 135.913 99.1172 130.595C100.428 129.16 103.37 125.514 105.698 122.445C112.845 112.814 125.09 99.8139 139.123 86.8933C154.614 72.6023 152.12 73.6593 163.888 76.9559ZM204.328 102.469C206.898 106.419 207.158 107.732 204.894 106.068C203.8 105.2 203.724 105.272 204.21 106.508C205.464 109.528 206.049 112.5 205.782 113.97C205.521 115.231 205.085 114.828 203.528 111.958C201.476 108.13 201.021 105.849 202.748 108.018C203.684 109.17 203.761 109.098 203.388 106.536C203.209 105.011 202.802 103.633 202.509 103.434C201.849 103.038 200.859 98.6182 201.382 98.6009C201.606 98.5934 202.898 100.36 204.328 102.469ZM209.249 102.584C209.202 104.186 208.003 104.365 207.451 102.852C206.755 101.136 206.997 100.502 208.18 100.88C208.769 101.139 209.27 101.887 209.249 102.584ZM203.305 114.47C204.279 116.873 204.965 118.937 204.735 119.154C204.272 119.656 200.764 112.05 200.807 110.587C200.852 109.055 201.209 109.6 203.305 114.47ZM63.4909 119.046C64.1427 119.72 64.8345 121.576 65.0843 123.237L65.5194 126.215L62.9922 125.881C60.7618 125.607 60.6124 125.612 62.1584 126.326C63.0424 126.715 63.771 127.317 63.7608 127.665C63.7363 128.5 62.7694 128.393 60.8642 127.204C59.2537 126.145 59.2537 126.145 60.1819 127.575C61.1806 129.142 62.9649 129.361 64.346 128.063C65.3435 127.125 65.3435 127.125 65.5578 132.545C65.6195 135.535 67.3969 138.537 69.0401 138.482C69.7123 138.46 71.9027 137.552 73.9478 136.51C77.8867 134.501 80.1232 134.566 78.1969 136.648C76.5754 138.51 75.127 142.107 75.3706 143.977C75.4853 145.156 75.998 145.487 77.2697 145.375C80.0413 145.005 79.09 146.915 76.078 147.85C67.9443 150.417 62.2354 151.72 62.5566 150.943C64.3181 146.849 65.04 142.581 64.2531 141.425C63.7527 140.676 63.414 139.504 63.4323 138.878C63.4568 138.042 62.0663 137.114 59.3355 136.091C57.0467 135.263 54.3301 133.753 53.2404 132.746C52.1507 131.738 50.1749 130.412 48.7762 129.763C47.3775 129.114 46.5764 128.444 47.1033 128.288C47.5555 128.134 48.9644 128.435 50.2177 128.95C51.3944 129.537 52.9486 129.972 53.6208 129.95C54.4423 129.923 54.7288 130.33 54.4056 131.176C54.0036 132.164 54.5827 132.771 56.5728 133.609C58.2702 134.248 59.4591 134.417 59.7701 133.99C60.0811 133.562 60.7492 133.679 61.6292 134.206C62.3597 134.739 62.7128 135.423 62.4785 135.778C62.2422 136.204 62.5267 136.681 63.118 136.87C63.7841 137.057 64.4645 136.756 64.7836 136.05C65.426 134.498 61.9246 131.761 59.3852 131.846C58.3396 131.88 56.9409 131.231 56.2206 130.35C55.5002 129.47 53.5224 128.214 51.8996 127.572C50.2789 126.86 48.8884 125.932 48.8986 125.584C48.9272 124.609 59.5691 117.924 61.1376 117.872C61.8098 117.85 62.8391 118.372 63.4909 119.046ZM201.395 115.995C203.515 120.029 204.274 122.161 203.527 122.186C203.153 122.198 202.717 121.795 202.508 121.315C199.934 114.93 199.311 113.281 199.609 113.271C199.833 113.264 200.618 114.49 201.395 115.995ZM201.165 121.29C203.039 126.098 201.72 130.386 199.755 126.138C198.7 123.946 198.712 123.529 199.667 124.054C200.621 124.578 200.623 124.509 199.042 119.9C196.568 112.676 198.251 113.803 201.165 121.29ZM206.795 120.129C206.059 124.885 204.801 127.083 205.143 123.037C205.265 121.432 205.683 119.888 205.99 119.599C206.297 119.311 206.546 118.468 206.566 117.771C206.586 117.075 206.752 116.512 206.976 116.505C207.2 116.498 207.151 118.169 206.795 120.129ZM49.0762 132.258C51.272 133.715 55.0864 135.954 57.6617 137.191C60.2391 138.357 61.7002 139.422 61.028 139.444C59.1608 139.507 59.3421 140.962 61.197 141.317C63.272 141.805 62.6798 144.19 58.5737 151.911C55.0189 158.639 54.8593 158.992 56.7653 157.607C57.9101 156.734 57.9848 156.731 57.1346 157.733C55.2022 160.024 50.5491 160.944 44.8993 160.227C42.0754 159.834 39.8552 159.212 39.9421 158.792C40.029 158.371 37.8333 156.914 34.9612 155.618C29.5865 153.152 25.0599 149.754 25.1007 148.361C25.115 147.874 25.4198 147.655 25.8598 147.919C26.5945 148.312 27.8241 147.088 33.6155 140.425C38.7101 134.62 38.7101 134.62 44.5126 137.767C50.537 140.976 56.9635 143.198 59.1376 142.847C60.1873 142.673 58.5707 141.822 54.6571 140.422C51.2582 139.282 46.6948 137.138 44.4991 135.68L40.4708 133.1L42.611 131.359C43.7578 130.417 44.7533 129.549 44.9026 129.544C45.052 129.539 46.8825 130.73 49.0762 132.258ZM95.793 129.453C95.7624 130.498 89.4977 140.586 86.8665 143.804C85.7841 145.093 84.0316 146.334 82.9819 146.508C80.6544 147.002 80.6001 146.308 82.8856 144.702L84.5634 143.463L82.8313 144.008C81.1012 144.483 81.1033 144.413 83.4663 140.16C84.8033 137.82 85.9244 135.208 85.9469 134.442C85.9693 133.676 86.4358 133.034 87.0333 133.014C87.6308 132.994 88.3173 132.485 88.5577 131.92C89.0384 130.791 93.054 128.709 94.9233 128.577C95.3714 128.563 95.8073 128.966 95.793 129.453ZM36.2148 135.746C35.0537 137.177 33.9815 138.117 33.8362 137.982C33.3277 137.512 36.6596 133.296 37.5559 133.267C38.004 133.252 37.3739 134.386 36.2148 135.746ZM202.939 129.511C202.779 129.864 201.109 133.398 199.354 137.284C197.526 141.101 194.906 146.476 193.488 149.028L190.959 153.843L189.432 152.503L187.904 151.162L188.071 153.105C188.188 154.214 188.105 154.495 187.905 153.667C187.629 152.91 187.135 151.953 186.776 151.478C186.416 151.003 186.287 150.311 186.601 149.814C187.065 149.242 187.289 149.234 187.719 149.846C188.504 151.072 191.072 150.013 192.251 147.956C193.113 146.536 193.059 145.842 192.293 143.989C190.969 140.763 191.576 137.89 194.187 135.368C195.416 134.144 196.428 132.719 196.442 132.232C196.508 130.003 198.038 128.7 200.648 128.752C202.065 128.775 203.101 129.088 202.939 129.511ZM80.2086 139.294C77.0722 144.478 75.911 145.908 75.9437 144.793C75.9804 143.54 81.5403 134.588 82.3618 134.561C82.7353 134.549 81.7778 136.668 80.2086 139.294ZM81.9766 140.07C79.7026 143.834 79.1193 143.366 81.3228 139.466C82.266 137.834 83.1969 136.621 83.4148 136.822C83.6328 137.024 82.9924 138.506 81.9766 140.07ZM190.382 148.088C188.591 150.652 188.094 149.764 189.746 146.857C190.53 145.578 191.221 144.929 191.43 145.409C191.565 145.892 191.083 147.09 190.382 148.088ZM26.0244 157.584C25.3216 158.651 24.4029 159.447 24.0295 159.46C22.8344 159.499 23.1985 157.261 24.6584 155.821C26.5806 153.878 27.6581 155.304 26.0244 157.584ZM30.7942 157.774C30.7555 159.097 27.9226 161.557 26.6591 161.39C25.3975 161.154 25.4763 161.012 27.0231 159.151C28.6446 157.289 30.833 156.45 30.7942 157.774ZM186.357 155.597C186.612 157.049 186.503 158.236 186.13 158.248C185.457 158.27 184.58 155.099 184.646 152.87C184.703 150.92 185.913 152.898 186.357 155.597ZM33.7063 160.251C33.6634 161.714 32.177 164.059 31.2808 164.089C29.8617 164.136 29.7756 161.982 31.084 160.617C32.7761 158.891 33.7511 158.719 33.7063 160.251ZM185.156 160.924C185.142 161.412 184.837 161.631 184.395 161.437C184.027 161.24 183.682 160.278 183.711 159.303C183.744 158.188 183.459 157.711 182.926 158.076C182.395 158.372 182.124 159.982 182.281 162.272C182.444 164.354 182.245 166.031 181.872 166.043C181.573 166.053 181.293 165.436 181.313 164.74C181.336 163.974 180.983 163.29 180.613 163.163C179.947 162.976 181.705 156.447 182.953 154.597C183.345 153.957 185.209 159.114 185.156 160.924ZM37.3938 161.729C37.3326 163.818 36.4682 165.308 35.4225 165.343C33.7047 165.4 33.4467 164.017 34.6927 162.236C36.2477 160.097 37.4468 159.918 37.3938 161.729ZM87.3328 163.549C87.3226 163.897 86.7875 164.332 86.1819 164.631C85.4268 164.934 85.0636 164.598 85.0901 163.693C85.1329 162.23 82.9813 161.815 82.7911 163.212C82.7707 163.909 82.6213 163.914 82.4156 163.295C82.2058 162.814 82.4605 161.762 83.0078 160.909L83.951 159.278L85.6117 161.171C86.552 162.183 87.3409 163.27 87.3328 163.549ZM26.9007 163.33C26.8925 163.609 24.9723 165.482 22.6745 167.506C20.3768 169.531 18.4504 171.612 18.4382 172.03C18.3994 173.353 20.6237 173.836 22.2187 172.879C24.27 171.628 24.4153 171.762 24.35 173.991C24.2602 177.055 25.3038 177.09 27.9975 174.287L30.3862 171.703L30.3271 173.722C30.2536 176.23 31.8499 177.777 33.0836 176.414C33.4713 175.914 34.1137 174.362 34.4512 173.029C35.296 169.661 36.3119 168.097 37.5816 168.054C38.4778 168.025 38.6692 169.131 38.5509 173.171C38.4693 175.957 38.1351 179.725 37.858 181.543L37.2373 184.903L35.8374 181.749C33.6709 176.742 32.08 177.56 29.2395 185.378C26.7284 192.141 26.046 192.511 26.1263 187.221C26.2707 177.197 24.5692 176.697 19.9843 185.477L16.583 192.06L17.1033 187.034C17.64 181.45 17.2049 178.472 15.7858 178.519C15.3356 178.604 13.0318 180.837 10.7116 183.628C6.06911 189.279 4.71248 189.741 7.9983 184.553C14.2549 174.743 14.8083 173.681 13.6133 173.721C13.0158 173.741 12.2607 174.044 12.0244 174.47C11.4004 175.395 7.14317 175.536 7.16969 174.631C7.20233 173.517 16.1848 167.443 21.2542 165.048C26.0208 162.803 26.9252 162.494 26.9007 163.33ZM41.0792 163.276C41.0506 164.251 39.51 165.903 38.6137 165.933C37.7175 165.963 37.9158 164.286 38.99 163.276C40.2176 162.122 41.1118 162.162 41.0792 163.276ZM44.7708 164.615C44.73 166.008 42.7473 167.465 42.1036 166.513C41.3894 165.423 42.3346 163.722 43.679 163.677C44.2765 163.657 44.7871 164.058 44.7708 164.615ZM87.232 169.536C87.9544 170.347 88.5981 171.299 88.5838 171.787C88.5369 173.389 86.6174 172.687 83.7862 169.998C82.2626 168.518 80.6562 167.319 80.2828 167.331C79.9093 167.344 79.1747 166.951 78.6682 166.411C77.7944 165.675 77.8813 165.254 78.9636 163.966L80.2762 162.461L83.0286 165.292C84.5481 166.911 86.4329 168.797 87.232 169.536ZM179.57 168.207C179.958 172.786 178.518 171.025 177.268 165.292C176.673 162.667 176.224 160.178 176.311 159.757C176.513 157.942 179.282 165.294 179.57 168.207ZM31.591 166.236C33.8031 167.136 34.1541 167.89 33.6223 170.76C33.0926 173.561 32.0429 173.735 31.0727 171.193L30.3062 169.34L28.4566 171.349L26.607 173.359L26.6682 171.27C26.7518 168.414 25.789 168.168 23.039 170.347C21.7408 171.364 20.6809 171.886 20.6911 171.538C20.7237 170.423 26.9828 165.623 28.4018 165.576C29.1487 165.551 30.5576 165.853 31.591 166.236ZM93.9507 166.877C93.9405 167.225 94.4531 167.556 95.0506 167.536C96.0962 167.502 96.0901 167.711 94.9894 169.626C93.5757 172.038 92.7419 172.483 93.4773 170.302C93.9621 169.034 93.8895 168.966 92.5267 169.638C90.102 170.901 89.8861 170.63 91.4452 168.352C92.7761 166.22 93.9894 165.554 93.9507 166.877ZM80.4877 170.525C80.8305 171.557 81.335 172.167 81.5652 171.95C81.87 171.731 82.8206 172.396 83.6862 173.411C88.0953 178.274 116.965 191.23 137.375 197.509C140.851 198.577 143.727 199.733 143.717 200.082C143.706 200.43 143.327 200.651 142.808 200.529C142.362 200.475 141.744 201.191 141.417 202.176C140.998 203.72 140.847 203.795 140.432 202.696C140.153 202.009 139.641 201.678 139.186 201.902C138.73 202.196 138.641 202.686 138.853 203.096C139.212 203.571 138.909 203.72 138.171 203.467C137.21 203.151 136.903 203.439 136.866 204.693C136.84 205.598 136.359 206.727 135.749 207.165C135.214 207.6 134.495 209.224 134.153 210.697C133.886 212.167 133.093 213.793 132.481 214.301C131.487 215.099 131.494 214.89 132.53 212.629C133.722 210.155 133.615 208.697 132.345 208.739C131.673 208.762 130.659 212.831 130.583 215.408C130.512 217.845 129.588 221.355 129.065 221.372C128.692 221.384 128.65 220.273 128.84 218.875C129.117 217.057 128.986 216.435 128.378 216.803C127.922 217.096 127.52 218.084 127.494 218.989C127.467 219.894 127.065 220.882 126.685 221.103C126.229 221.397 126.055 222.237 126.332 222.994C126.602 223.959 126.444 224.242 125.93 223.981C125.49 223.717 125.149 222.615 125.184 221.431C125.216 220.317 124.944 219.422 124.496 219.437C124.122 219.449 123.737 219.879 123.722 220.367C123.708 220.854 123.013 221.643 122.178 222.158C120.811 222.968 120.516 222.839 119.376 220.998C117.954 218.61 117.064 218.431 117.003 220.52L116.96 221.983L115.139 220.443L113.319 218.903L113.276 220.366C113.252 221.202 113.53 221.888 113.978 221.873C114.352 221.861 114.487 222.343 114.17 222.98C113.846 223.826 113.62 223.903 113.118 223.224C112.049 221.52 111.78 223.06 112.843 224.972C113.829 226.957 113.567 228.288 112.408 227.074C111.464 226.201 110.266 221.231 111.076 221.622C111.956 222.149 111.901 221.455 111.054 219.814C109.777 217.56 109.23 218.413 109.337 222.375C109.492 224.736 109.225 226.206 108.702 226.223C107.507 226.263 105.752 222.495 105.824 220.057C105.856 218.943 105.512 217.98 105.063 217.995C104.466 218.015 104.288 218.995 104.536 220.726C104.882 224.193 103.862 225.897 102.349 224.069C100.619 221.969 101.036 220.494 102.773 222.315L104.293 223.935L103.233 221.882C102.671 220.718 101.67 219.221 101.02 218.477C99.8638 217.194 99.8597 217.333 100.127 220.942C100.334 224.066 100.17 224.559 99.5308 223.467C99.0284 222.788 97.9509 221.362 97.0832 220.417C95.6384 218.795 95.4911 218.73 94.1141 219.889C92.8138 220.976 92.5918 220.914 90.1719 219.464C88.7794 218.606 87.308 217.889 86.8599 217.904C84.9927 217.966 73.6588 210.063 71.1386 206.946C70.057 205.66 70.1317 205.658 72.0389 206.777C74.3155 208.023 74.8342 208.145 74.8607 207.24C74.8913 206.195 71.1985 202.352 70.5141 202.792C70.2113 202.942 69.9362 204.69 69.9538 206.638C69.9734 208.516 69.8518 210.12 69.7024 210.125C68.5821 210.162 64.9937 207.846 63.4036 206.09C61.8135 204.334 61.5393 203.508 62.0384 201.752C63.1358 197.402 63.8366 196.404 65.314 196.912C67.2355 197.544 70.8863 200.275 70.4239 200.778C70.1957 200.924 68.9464 200.27 67.6326 199.27C65.3683 197.606 65.2957 197.539 66.0723 199.044C66.5707 199.862 68.1771 201.061 69.6545 201.568C71.132 202.076 73.1159 203.123 74.1412 203.785C76.6981 205.648 77.6793 205.268 75.6492 203.248L73.9097 201.497L75.7626 201.922C77.6135 202.417 77.6135 202.417 76.2393 200.932C75.4402 200.193 74.5644 199.527 74.1909 199.539C73.7428 199.554 72.9375 199.024 72.2857 198.35C71.5593 197.678 71.4119 197.614 71.769 198.159C72.3421 198.974 72.2674 198.977 71.014 198.462C68.2187 197.094 67.0747 195.392 67.8746 193.557C68.5109 192.214 68.8137 192.064 69.6896 192.731C70.2728 193.199 70.7691 194.087 70.676 194.716C70.6556 195.412 70.5022 195.557 70.2218 194.94C70.0846 194.527 69.57 194.266 69.1884 194.557C68.0497 195.221 69.1394 196.228 71.0066 196.166C71.9029 196.136 73.013 196.447 73.5215 196.917C75.1198 198.395 74.4321 196.4 72.2812 193.41C70.1303 190.42 69.3911 185.087 71.0343 185.033C71.4824 185.018 71.7648 185.565 71.7444 186.262C71.722 187.028 72.3615 188.12 73.1627 188.789C75.1303 190.393 75.0054 189.563 72.8064 185.67L70.9604 182.461L73.9699 176.516C78.2478 168.025 79.1686 167.16 80.4877 170.525ZM98.6512 169.434C98.8671 169.706 98.1561 171.051 97.1484 172.337C94.6687 175.481 94.7311 175.896 97.5693 175.802C99.2871 175.745 100.424 175.15 101.66 173.718C103.82 171.28 104.698 171.877 103.05 174.646C102.42 175.78 101.85 177.399 101.828 178.165C101.803 179.001 101.248 180.133 100.561 180.642C99.4165 181.515 99.3459 181.379 99.8532 179.344C100.522 176.887 99.4948 176.295 98.166 178.356C97.4611 179.493 97.3885 179.426 97.3567 177.966C97.3872 176.921 97.0261 176.516 96.4224 176.745C95.8188 176.973 94.9266 176.864 94.412 176.603C93.31 176.013 94.0414 173.971 96.5334 170.409C97.7773 168.698 98.0802 168.549 98.6512 169.434ZM107.681 174.492C107.886 175.111 107.599 177.278 107.09 179.382C106.255 182.401 105.785 183.182 104.59 183.222C102.125 183.304 102.182 181.354 104.722 178.695C106.033 177.26 107.121 175.763 107.135 175.275C107.15 174.788 106.312 175.372 105.232 176.591C103.146 179.026 102.514 177.655 104.606 175.011C106.004 173.156 107.053 172.982 107.681 174.492ZM119.997 179.44C124.865 181.366 131.069 183.525 133.731 184.341C136.394 185.157 138.83 186.05 139.268 186.384C139.996 186.986 135.741 194.711 134.62 194.748C134.247 194.761 127.968 192.604 120.659 189.924L107.447 185.006L108.008 181.16C108.653 176.964 109.051 176.116 110.246 176.076C110.619 176.064 115.052 177.587 119.997 179.44ZM182.675 181.95L184.646 185.989L179.7 191.789C176.994 195.01 174.606 197.594 174.307 197.604C174.083 197.612 173.227 196.248 172.382 194.537L170.831 191.458L175.356 184.698C177.778 180.999 179.957 177.935 180.256 177.925C180.48 177.917 181.545 179.761 182.675 181.95ZM172.766 186.523C171.056 188.876 169.432 190.808 169.059 190.821C168.76 190.831 169.083 189.985 169.863 188.846C174.221 182.718 175.075 181.576 175.44 181.842C175.583 182.046 174.404 184.103 172.766 186.523ZM141.804 188.943C140.95 190.085 139.775 192.003 139.367 193.199C138.326 195.599 136.742 196.208 137.635 193.744C138.776 190.435 141.193 186.876 142.314 186.839C143.285 186.807 143.2 187.158 141.804 188.943ZM146.977 190.65C146.924 192.461 143.532 196.191 142.505 195.599C141.99 195.338 141.718 194.443 141.742 193.607C141.852 192.421 141.928 192.348 142.201 193.244C142.535 194.555 143.496 194.871 144.197 193.873C144.354 193.59 144.3 192.896 143.943 192.351C143.513 191.739 143.756 191.105 144.596 190.451C146.348 189.21 147.018 189.257 146.977 190.65ZM160.469 191.106C162.934 191.024 164.872 191.099 164.864 191.378C164.858 191.587 163.854 192.733 162.548 194.029C161.316 195.322 160.236 196.541 160.228 196.82C160.203 197.655 157.291 200.257 156.395 200.287C155.947 200.301 155.37 199.625 155.023 198.732C154.535 197.565 154.854 196.859 156.233 195.63C158.299 193.892 158.551 192.909 157.229 192.188C156.789 191.924 155.729 192.447 154.805 193.451C153.724 194.67 152.364 195.272 150.947 195.249C148.855 195.319 148.712 195.115 148.925 192.951C149.162 189.951 150.452 189.213 153.552 190.362C154.955 190.872 158.079 191.186 160.469 191.106ZM182.007 191.991C180.168 193.652 179.177 194.381 179.722 193.597C181.663 191.028 184.58 188.218 185.018 188.551C185.236 188.753 183.847 190.329 182.007 191.991ZM186.538 190.17C186.527 190.519 185.986 191.163 185.374 191.67C184.458 192.396 184.373 192.747 185.033 193.143C185.695 193.469 184.986 194.745 182.664 197.605C179.261 201.684 177.19 203.631 177.216 202.726C177.224 202.447 178.236 201.022 179.397 199.592C182.874 195.51 183.05 194.6 179.741 198.05C177.97 199.918 176.445 201.012 175.931 200.751C174.609 200.029 174.961 198.209 176.374 198.37C177.191 198.482 179.029 196.891 181.5 194.025C185.129 189.869 186.58 188.708 186.538 190.17ZM152.547 196.657C152.315 196.943 152.367 197.707 152.795 198.389C153.571 199.893 153.196 199.975 151.135 199C149.956 198.483 149.817 198.14 150.589 197.279C151.053 196.707 151.812 196.264 152.26 196.249C152.708 196.234 152.777 196.441 152.547 196.657ZM188.875 196.981C189.694 199.598 191.85 199.874 196.677 198.113C199.166 197.196 201.421 196.634 201.639 196.835C202.44 197.504 202.481 201.191 201.774 202.397C201.306 203.108 200.549 203.481 199.733 203.3C198.992 203.115 199.277 203.593 200.518 204.526C203.289 206.73 202.964 207.645 200.112 205.653C198.796 204.722 196.881 203.881 195.843 203.638L193.988 203.282L195.813 204.682C196.836 205.414 198.588 206.747 199.831 207.61C201.001 208.406 201.796 209.284 201.566 209.501C201.336 209.717 199.431 208.528 197.239 206.931C193.952 204.535 192.623 204.023 190.161 204.035C188.219 204.1 186.864 204.492 186.624 205.057C186.143 206.186 180.341 208.119 179.314 207.526C177.625 206.609 178.889 204.201 183.111 200.164C185.494 197.789 187.715 195.837 188.014 195.827C188.314 195.747 188.671 196.292 188.875 196.981ZM150.549 201.177C153.148 204.152 152.95 205.828 149.725 208.927C147.5 211.019 146.59 211.536 145.859 211.004C145.348 210.603 145.143 209.984 145.377 209.628C145.611 209.272 145.285 207.683 144.738 205.962C143.913 203.554 143.867 202.581 144.655 201.164C145.764 198.97 148.673 199.013 150.549 201.177ZM142.316 207.156C141.607 208.431 140.839 209.153 140.704 208.67C140.567 208.257 141.058 206.78 141.767 205.504C142.476 204.228 143.243 203.507 143.378 203.989C143.515 204.402 143.024 205.88 142.316 207.156ZM191.718 206.906C193.474 208.1 194.929 209.373 194.921 209.652C194.903 210.279 188.596 206.522 187.954 205.5C187.097 204.206 188.572 204.784 191.718 206.906ZM68.3633 212.535L70.555 214.132L68.7095 216.002C66.4056 218.236 66.1048 218.315 62.8736 216.544L60.377 215.166L62.4528 213.079C65.0636 210.557 65.5884 210.47 68.3633 212.535ZM189.489 209.137C191.467 210.393 193.596 211.574 194.337 211.759C195.594 212.134 196.074 213.579 194.954 213.617C193.908 213.651 187.898 209.955 186.449 208.472C184.496 206.38 185.533 206.624 189.489 209.137ZM185.579 210.171C187.108 211.442 187.389 212.059 186.63 212.502C185.035 213.459 186.564 214.73 188.67 214.173C189.873 213.855 192.251 214.193 195.061 215.074C200.532 216.771 200.092 216.507 199.454 217.92C198.735 219.544 196.426 219.412 191.707 217.482C185.585 215.041 182.74 212.84 183.388 211.079C183.796 209.882 183.651 209.748 182.295 210.21C180.789 210.678 180.211 210.001 181.286 208.992C182.208 208.056 183.541 208.43 185.579 210.171ZM139.843 212.595C140.035 213.702 140.43 215.498 140.698 216.533C141.028 217.983 140.944 218.333 140.286 217.868C139.341 216.995 138.11 210.635 138.931 210.608C139.23 210.598 139.652 211.488 139.843 212.595ZM199.386 210.06L201.212 211.391L198.612 210.99C195.567 210.535 195.345 210.473 196.045 209.475C196.748 208.408 197.269 208.461 199.386 210.06ZM182.265 213.76C185.034 216.034 194.675 220.584 196.617 220.519C197.14 220.502 197.57 221.114 197.547 221.88C197.498 223.551 192.059 233.473 189.82 236.052L188.275 237.843L183.318 236.407C180.579 235.663 178.056 235.19 177.751 235.409C177.372 235.631 176.855 235.439 176.643 235.029C176.356 234.621 174.003 233.446 171.422 232.419C167.215 230.819 166.705 230.419 166.756 228.678C166.787 227.633 167.593 225.588 168.453 224.238C170.482 221.179 178.53 211.379 179.052 211.362C179.202 211.357 180.663 212.422 182.265 213.76ZM74.5147 216.505C75.2392 217.246 75.1441 217.945 74.1242 219.649C72.7064 222.201 72.1795 222.358 69.9172 220.624L68.1634 219.36L70.009 217.49C72.1594 215.401 73.2858 215.154 74.5147 216.505ZM135.576 218.164C136.056 219.609 136.032 220.445 135.584 220.46C134.762 220.487 133.503 217.607 133.556 215.796C133.603 214.194 134.685 215.48 135.576 218.164ZM80.5535 219.227C81.8069 219.742 82.6827 220.408 82.5252 220.692C82.3676 220.975 81.7293 222.388 81.091 223.801C80.4507 225.283 79.7438 226.49 79.5198 226.497C79.2957 226.505 77.9758 225.714 76.664 224.644L74.2544 222.845L75.7408 220.5C77.3847 217.871 77.5341 217.866 80.5535 219.227ZM66.2595 220.676C67.2141 221.201 67.2039 221.549 66.0346 223.258C64.4736 225.606 64.0981 225.688 61.755 224.165C59.9971 223.041 59.9992 222.971 61.3844 221.534C62.923 219.952 64.4976 219.691 66.2595 220.676ZM87.4701 222.545C88.8708 223.125 90.0352 224.13 90.0169 224.757C89.9598 226.707 88.2852 230.381 87.4637 230.408C86.8662 230.428 83.8488 228.997 81.1323 227.487C80.987 227.353 84.3679 221.466 84.6667 221.456C84.7413 221.453 85.9947 221.968 87.4701 222.545ZM136.835 221.044C137.445 220.607 138.198 220.373 138.414 220.644C138.704 220.913 138.617 221.333 138.161 221.626C136.943 222.432 131.665 229.426 131.642 230.192C131.606 231.446 128.755 231.958 123.84 231.634C120.788 231.388 118.543 231.602 117.483 232.124C116.27 232.79 115.525 232.746 114.058 231.89C113.031 231.298 112.217 231.046 112.209 231.325C112.199 231.673 111.61 231.415 110.954 230.88C110.225 230.278 108.387 229.365 106.909 228.857C105.359 228.283 104.114 227.489 104.124 227.141C104.155 226.096 105.348 226.126 106.583 227.268C107.309 227.939 109.095 228.089 112.759 227.828C116.496 227.634 118.282 227.784 119.156 228.52C120.76 229.789 122.739 228.47 122.58 226.249C122.467 225.001 122.849 224.71 124.413 224.797C125.606 224.827 127.423 223.931 129.333 222.407C132.16 220.156 132.388 220.009 134.003 220.93C135.323 221.721 135.918 221.771 136.835 221.044ZM70.9253 224.417C72.3056 225.693 72.3456 226.875 71.118 228.029C69.8903 229.183 68.9214 229.145 66.8003 227.685L65.0466 226.421L66.8819 224.899C69.1736 223.084 69.4723 223.074 70.9253 224.417ZM95.8622 226.441C97.2486 227.508 97.3111 227.924 96.5715 230.244C95.9977 232.003 95.2243 232.933 94.4028 232.96C92.5356 233.022 89.8292 231.164 90.2332 230.107C92.4028 224.817 93.0873 224.376 95.8622 226.441ZM76.2992 229.457C76.0221 231.275 73.757 232.185 72.4493 230.976C71.8681 230.439 72.1873 229.733 73.4937 228.437C75.4927 226.422 76.8228 226.865 76.2992 229.457ZM104.282 231.936C103.524 234.884 102.309 235.62 99.5718 234.806C96.8348 233.993 96.8369 233.923 98.4285 230.531L99.5456 228.058L102.2 229.153C104.412 230.053 104.698 230.461 104.282 231.936ZM81.4723 231.163C81.0499 232.847 78.7787 233.967 77.7616 233.026C77.0351 232.355 77.1241 231.865 78.2003 230.785C79.7389 229.203 81.8947 229.48 81.4723 231.163ZM72.8097 233.956C75.0116 235.205 79.9402 237.615 83.8457 239.295L90.9905 242.467L90.7661 250.128L90.5417 257.788L87.388 253.371C83.5927 247.931 82.4283 246.926 81.348 248.144C80.8856 248.647 79.7665 251.189 78.7948 253.795C77.7463 256.474 76.7142 258.596 76.4901 258.603C76.1914 258.613 75.6367 257.17 75.169 255.307C74.7739 253.512 73.7494 250.275 72.9185 248.077C71.1879 243.472 70.5863 243.632 67.1389 249.243C66.0382 251.158 64.7983 252.73 64.4249 252.742C63.678 252.767 63.5972 252.978 65.1774 247.429C66.8466 241.39 66.5723 240.564 63.2493 241.927C60.6067 242.989 57.3327 242.68 56.9233 241.372C56.7176 240.753 67.6509 231.762 68.6219 231.73C68.7713 231.725 70.6825 232.705 72.8097 233.956ZM87.0915 232.925C87.2992 233.475 87.1172 234.594 86.7213 235.372C86.0185 236.439 85.5663 236.594 84.4623 236.074C82.6216 235.23 82.0547 234.206 82.6122 233.004C83.1759 231.594 86.5348 231.552 87.0915 232.925ZM109.152 233.792C109.065 236.787 108.368 237.645 106.521 237.011C104.378 236.316 105.796 231.19 108.111 231.113C108.933 231.086 109.209 231.842 109.152 233.792ZM162.207 231.125C162.185 231.891 162.627 232.085 163.907 231.695C165.261 231.302 165.027 231.657 162.727 233.752C159.355 236.786 157.177 237.276 157.995 234.813C159.297 231.152 162.285 228.478 162.207 231.125ZM92.7731 235.102C94.5248 236.435 94.5248 236.435 93.0005 237.529C89.9497 239.788 86.5834 237.534 88.9742 234.88C90.21 233.448 90.7308 233.5 92.7731 235.102ZM113.617 234.2C113.597 234.897 113.784 236.143 113.984 236.971C114.322 238.143 114.086 238.568 113.19 238.598C111.621 238.65 110.996 237.071 111.659 234.822C112.241 232.785 113.67 232.39 113.617 234.2ZM167.336 234.364C167.301 235.548 164.609 238.281 163.489 238.318C162.294 238.358 162.623 237.303 164.4 235.227C166.177 233.15 167.382 232.762 167.336 234.364ZM99.2865 236.903C100.019 237.366 100.082 237.781 99.3747 238.987C98.2781 240.763 97.5291 240.858 96.3002 239.507C94.5669 237.547 96.7899 235.525 99.2865 236.903ZM171.015 236.12C170.97 237.652 167.866 241.721 167.132 241.328C166.03 240.739 166.313 238.711 167.708 236.926C168.952 235.215 171.056 234.727 171.015 236.12ZM108.46 239.59C108.595 240.073 108.411 241.262 108.086 242.177C107.448 243.59 106.993 243.813 104.989 243.463C99.5674 242.599 99.522 239.052 104.9 238.873C106.767 238.811 108.25 239.11 108.46 239.59ZM174.369 238.792C173.777 241.177 172.533 242.888 171.412 242.925C170.441 242.958 171.381 238.891 172.54 237.53C174.081 235.879 174.961 236.406 174.369 238.792ZM177.967 240.759C177.216 243.498 176.899 244.135 176.002 244.164C174.733 244.207 174.578 241.846 175.743 240.277C177.532 237.782 178.642 238.093 177.967 240.759ZM183.149 242.188C183.075 244.695 182.843 244.981 181.2 245.035C179.183 245.102 178.552 243.732 179.382 240.852C179.795 239.516 180.33 239.081 181.593 239.247C182.932 239.412 183.218 239.82 183.149 242.188ZM171.769 246.045C174.058 246.873 174.419 247.278 173.932 248.617C173.201 250.659 172.044 251.949 170.923 251.987C170.4 252.004 169.789 252.511 169.474 253.078C169.069 254.136 166.742 254.63 166.77 253.655C166.779 253.377 167.33 252.384 168.103 251.454C169.345 249.813 169.275 249.676 167.372 248.417C165.834 247.425 165.624 246.944 166.319 246.156C167.476 244.865 168.447 244.833 171.769 246.045Z" fill="white"/>
<path d="M166.409 68.5346C165.564 68.9831 164.719 69.4316 164.564 69.5767C164.408 69.7218 164.834 70.6146 165.484 71.5694C167.077 73.8179 170.704 73.8308 172.059 71.5491C172.855 70.2644 172.716 69.8503 171.314 68.7822C169.392 67.3831 168.562 67.3422 166.409 68.5346ZM170.52 69.9969C171.324 70.8765 171.093 71.0242 169.505 71.0798C167.538 71.1485 166.353 70.352 167.287 69.4815C168.143 68.6835 169.571 68.9129 170.52 69.9969Z" fill="white"/>
<path d="M179.879 73.144C179.017 74.1511 179.082 74.4978 180.404 75.7081C181.723 76.9882 182.25 77.0397 183.934 76.2831C185.389 75.6043 185.862 74.9597 185.748 73.7772C185.506 71.8314 181.444 71.3446 179.879 73.144ZM184.236 73.8298C184.37 74.3835 183.83 74.7513 182.924 74.7828C181.336 74.8381 180.306 73.9666 181.161 73.1691C181.939 72.4441 183.889 72.8648 184.236 73.8298Z" fill="white"/>
<path d="M189.043 77.4026C188.327 78.6824 188.462 79.1658 189.707 80.3083C190.95 81.5205 191.476 81.5722 193.155 80.8171C196.362 79.3819 195.345 75.7214 191.651 75.8485C190.747 75.8797 189.597 76.5468 189.043 77.4026Z" fill="white"/>
<path d="M198.359 82.2003C197.812 82.847 197.551 83.9721 197.821 85.0092C198.226 86.5298 198.671 86.7934 200.639 86.516C203.591 86.1349 205.158 84.1972 203.619 82.7856C201.857 81.2422 199.453 80.9766 198.359 82.2003Z" fill="white"/>
<path d="M204.866 89.1702C204.229 90.2394 205.738 92.6997 207.023 92.6549C208.384 92.6075 210.639 90.5047 210.293 89.4697C209.945 88.5046 205.574 88.2381 204.866 89.1702Z" fill="white"/>
<path d="M159.344 95.6518C150.464 98.8796 144.227 106.546 143.984 114.566C143.832 119.587 145.107 122.121 150.784 127.989C156.169 133.589 158.082 134.847 159.621 133.611C160.467 132.955 160.69 133.017 160.658 134.063C160.662 136.432 162.492 137.972 164.61 137.412C165.746 137.095 166.568 137.206 166.555 137.625C166.545 137.973 166.91 138.309 167.286 138.296C167.737 138.281 168.065 137.364 168.098 136.248C168.134 135.063 168.544 133.934 168.926 133.712C169.385 133.418 169.66 134.245 169.616 135.709C169.531 138.499 170.408 139.305 171.805 137.794C172.348 137.219 173.339 136.697 174.091 136.672C174.842 136.646 176.522 135.683 177.834 134.524C179.145 133.365 180.441 132.694 180.656 133.035C181.374 134.125 182.309 132.979 181.978 131.527C181.778 130.698 181.87 130.137 182.243 130.194C183.963 130.415 185.403 129.948 185.354 129.113C185.35 126.745 185.777 125.058 186.292 125.389C186.588 125.518 187.376 124.307 187.952 122.616C190.006 116.763 187.19 105.643 182.395 100.372C179.199 96.8579 172.222 94.2387 166.812 94.4226C164.256 94.5792 160.937 95.11 159.344 95.6518ZM173.564 97.0494C176.542 97.8539 182.225 103.513 183.324 106.889C184.421 110.335 183.354 118.313 181.209 122.218C179.06 126.262 175.684 128.676 170.618 129.893C163.587 131.525 157.631 129.916 151.555 124.828C143.211 117.797 144.815 106.944 155.087 99.9068C160.452 96.2411 166.562 95.2671 173.564 97.0494ZM183.671 125.199C182.76 128.017 175.676 133.901 172.507 134.427C169.867 134.865 171.368 132.375 174.247 131.511C175.762 131.042 178.445 129.209 180.378 127.332C182.312 125.455 183.934 123.937 184.011 123.864C184.013 123.795 183.919 124.425 183.671 125.199Z" fill="white"/>
<path d="M158.486 103.634C155.202 105.21 152.769 108.501 151.425 113.079C150.498 116.317 150.556 116.873 152.044 119.889C154.32 124.203 159.639 127.437 164.31 127.277C172.973 126.979 181.231 117.772 179.27 110.519C178.391 107.273 175.407 103.959 172.28 102.881C168.857 101.604 161.697 101.99 158.486 103.634ZM172.494 105.732C174.932 107.182 177.081 110.734 177.002 113.316C176.902 116.596 172.829 121.825 168.857 123.774C165.803 125.203 165.047 125.299 162.508 124.689C156.384 123.157 153.049 119.018 153.952 114.107C155.205 107.581 159.674 104.151 166.663 104.468C168.841 104.603 171.458 105.14 172.494 105.732Z" fill="white"/>
<path d="M130.413 134.958C121.432 138.541 114.309 147.776 114.056 156.078C114.044 158.936 114.503 161.151 115.499 162.999C118.417 168.405 126.379 173.569 134.147 175.255C136.016 175.609 138.915 176.695 140.618 177.542C144.023 179.308 147.627 179.463 149.252 177.944C149.869 177.435 151.094 176.696 152.081 176.384C153.674 175.911 159.938 170.191 160.587 168.635C160.751 168.211 161.608 167.206 162.459 166.41C163.852 165.108 163.951 164.338 163.829 158.488C163.696 152.986 163.297 151.258 161.38 147.559C158.897 142.696 152.612 136.778 147.712 134.715C143.407 132.911 135.283 133.049 130.413 134.958ZM144.679 135.585C149.448 136.956 155.604 142.181 157.574 146.644C159.68 151.521 159.47 158.428 157.095 162.342C154.643 166.329 148.686 171.83 145.648 172.84C135.47 176.255 118.931 168.805 116.576 159.756C114.147 150.639 121.929 139.5 133.318 135.835C137.644 134.502 140.504 134.404 144.679 135.585ZM160.491 164.387C160.242 165.162 158.531 167.033 156.828 168.624C153.275 171.743 153.524 170.968 157.737 165.945C160.546 162.573 161.312 162.128 160.491 164.387ZM149.199 174.74C148.329 176.163 145.377 176.822 145.415 175.566C145.438 174.799 147.659 173.468 149.091 173.35C149.844 173.324 149.833 173.673 149.199 174.74Z" fill="white"/>
<path d="M133.042 141.775C128.406 143.398 126.402 144.999 124.418 148.413C120.915 154.806 121.633 160.845 126.684 165.342C128.44 166.955 130.943 168.681 132.135 169.059C133.324 169.506 134.282 170.17 134.269 170.589C134.237 171.635 140.591 170.372 144.103 168.649C150.592 165.43 155.663 159.402 155.806 154.727C155.88 152.285 153.814 148.522 150.394 144.806C145.805 139.944 140.869 139.068 133.042 141.775ZM145.449 144.208C148.852 146.043 153.814 153.471 153.141 155.794C151.122 162.833 140.841 169.597 135.188 167.56C133.924 167.115 132.893 166.384 132.908 165.896C132.923 165.407 131.907 164.187 130.658 163.254L128.455 161.518L130.54 159.704C132.548 157.962 132.551 157.892 130.97 157.947C128.034 158.047 124.18 156.227 124.225 154.762C124.28 152.948 125.086 151.178 125.914 151.15C126.215 151.139 126.351 151.623 126.108 152.189C125.783 152.966 126.151 153.233 127.355 153.191L129.087 153.132L127.244 154.38L125.401 155.628L128.01 156.375C131.884 157.567 132.94 157.461 131.481 155.978C130.75 155.306 130.248 154.486 130.257 154.207C130.265 153.928 129.547 152.838 128.677 151.752C127.376 150.054 127.242 149.501 128.042 147.94C130.197 143.824 140.567 141.587 145.449 144.208Z" fill="white"/>
<path d="M175.194 162.404C174.956 163.037 174.709 164.017 174.692 164.642C174.653 166.102 175.79 164.955 176.585 162.776C177.148 161.022 175.978 160.643 175.194 162.404Z" fill="white"/>
<path d="M47.738 137.293C48.2268 138.603 50.5665 138.731 50.6054 137.472C50.627 136.773 49.9588 136.378 49.0506 136.409C48.1424 136.441 47.6018 136.809 47.738 137.293Z" fill="white"/>
<path d="M70.5395 188.642C70.5274 189.06 70.8821 189.674 71.249 189.871C71.6885 190.135 71.8255 190.547 71.5936 190.833C71.4343 191.186 71.8596 191.937 72.6599 192.607C73.7504 193.544 74.1214 193.602 74.1436 192.836C74.178 191.652 70.6485 187.456 70.5395 188.642Z" fill="white"/>
<path d="M182.831 187.892C181.361 189.474 179.653 191.481 179.101 192.405C178.232 193.896 178.23 193.966 179.457 193.019C181.681 191.273 187.036 185.035 186.286 185.061C185.911 185.073 184.299 186.381 182.831 187.892Z" fill="white"/>
</g>
<defs>
<filter id="filter0_d_228_345" x="0.0641479" y="0.292908" width="236.25" height="299.62" filterUnits="userSpaceOnUse" color-interpolation-filters="sRGB">
<feFlood flood-opacity="0" result="BackgroundImageFix"/>
<feColorMatrix in="SourceAlpha" type="matrix" values="0 0 0 0 0 0 0 0 0 0 0 0 0 0 0 0 0 0 127 0" result="hardAlpha"/>
<feOffset dy="4"/>
<feGaussianBlur stdDeviation="2"/>
<feComposite in2="hardAlpha" operator="out"/>
<feColorMatrix type="matrix" values="0 0 0 0 0 0 0 0 0 0 0 0 0 0 0 0 0 0 0.25 0"/>
<feBlend mode="normal" in2="BackgroundImageFix" result="effect1_dropShadow_228_345"/>
<feBlend mode="normal" in="SourceGraphic" in2="effect1_dropShadow_228_345" result="shape"/>
</filter>
</defs>
</svg>
