<svg width="377" height="273" viewBox="0 0 377 273" fill="none" xmlns="http://www.w3.org/2000/svg">
<path d="M344.663 136.638C342.664 136.82 338.993 137.293 336.486 137.692C333.978 138.092 328.854 138.565 325.038 138.783C320.822 139.001 315.298 139.582 310.864 140.273C303.959 141.327 296.473 142.381 295.528 142.417C294.765 142.417 293.965 143.543 293.965 144.597C293.965 145.542 293.82 145.615 292.439 145.76C291.567 145.869 290.731 145.797 290.513 145.651C289.35 144.561 287.642 145.869 287.206 148.195C286.988 149.213 287.097 149.54 287.787 150.049L288.587 150.667L288.732 164.985C288.877 183.92 289.168 193.805 289.786 202.382C290.077 206.27 290.404 211.758 290.513 214.556C290.658 217.609 290.949 219.935 291.203 220.371C291.458 220.771 291.785 222.406 291.93 224.005C292.221 227.058 292.548 227.821 293.638 227.821C294.91 227.821 295.528 226.731 295.274 224.95C294.692 220.807 293.965 210.413 293.602 201.11C293.384 195.513 293.057 188.208 292.875 184.865C292.657 181.558 292.512 175.997 292.512 172.508C292.512 169.056 292.257 163.604 291.966 160.406C291.676 157.208 291.312 152.92 291.203 150.921L290.949 147.214L292.911 146.851C294.002 146.633 296.509 146.451 298.508 146.451C301.961 146.415 304.032 146.16 317.224 144.016C322.167 143.216 324.529 143.071 336.668 142.78C344.263 142.635 351.968 142.381 353.748 142.235C355.784 142.09 357.673 142.126 358.8 142.381C360.908 142.889 362.071 142.344 362.362 140.781C362.689 139.073 361.417 138.056 358.655 137.801C357.165 137.656 355.965 137.329 355.42 136.929C354.439 136.166 351.386 136.093 344.663 136.638Z" fill="white"/>
<path d="M225.824 25.2967C215.924 20.4314 210.388 19.539 200.173 21.0992C185.871 23.3097 182.252 24.242 177.559 26.906C167.437 32.6522 161.479 38.909 155.921 49.6102C152.707 55.7432 151.407 59.5772 150.574 65.1551C149.845 70.1404 149.818 73.3559 150.419 76.877C150.87 79.4069 151.426 80.7695 153.448 84.3506C154.789 86.7479 157.485 90.8876 159.416 93.5191L162.914 98.351L167.535 101.573C172.325 104.87 174.479 105.973 183.915 109.851C194.99 114.428 205.577 116.274 214.049 115.181C217.204 114.723 222.212 113.386 225.223 112.118C231.387 109.505 238.336 104.116 241.939 99.1407C242.738 98.0586 243.534 97.1074 243.757 97.0415C244.215 96.8293 250.965 100.429 251.195 100.988C251.312 101.202 255.807 104.16 261.181 107.509C266.584 110.878 273.237 115.252 275.938 117.224L280.884 120.806L277.406 120.33C272.962 119.713 271.254 119.939 270.318 121.28C269.383 122.622 269.424 124.024 270.501 125.085C271.428 126.042 272.381 126.264 275.549 126.169C277.961 126.078 284.709 126.885 289.298 127.738C293.816 128.629 295.227 128.638 296.131 127.851C297.374 126.768 297.231 125.383 295.49 122.353C292.719 117.496 282.629 105.851 278.873 103.232C276.399 101.507 273.591 103.182 274.349 105.97C274.535 106.72 275.076 107.851 275.578 108.466C276.058 109.111 276.527 109.837 276.593 110.06C276.688 110.304 277.375 111.226 278.183 112.1C279.051 113.015 279.451 113.649 279.13 113.601C278.334 113.534 266.364 105.984 255.705 98.9051L246.459 92.7227L247.269 91.1165C252.571 80.5914 253.581 76.1564 252.439 68.5812C250.538 55.8686 245.273 44.9304 235.251 32.9347C233.431 30.7794 228.029 26.3914 225.824 25.2967ZM231.396 35.0315L233.726 37.4093L226.571 32.42C220.171 28.0011 219.146 27.3747 216.605 26.4443C215.074 25.9081 213.754 25.3864 213.766 25.306C213.664 24.8804 217.629 26.1835 220.644 27.5775C224.947 29.6034 228.485 32.0266 231.396 35.0315ZM231.751 40.2412C236.427 44.6542 240.001 50.6471 242.163 57.6489C245.146 67.3496 245.145 70.2733 242.327 77.7453C239.594 84.967 235.538 90.9109 230.831 94.6735C224.915 99.4089 218.007 103.851 213.836 105.639C212.94 106.034 202.494 106.591 198.757 106.422C196.42 106.343 189.376 105.197 186.177 104.384C181.775 103.263 176.409 100.983 173.675 99.121C169.353 96.1067 167.227 92.6746 160.896 78.246C158.442 72.6798 158.298 67.4847 160.392 59.4631C161.522 55.1113 165.984 47.6335 169.889 43.6221C173.722 39.6496 180.517 34.8621 188.697 30.3758C194.256 27.2964 195.821 26.7042 198.363 26.6163C203.853 26.3685 213.941 28.4854 218.429 30.8177C220.524 31.8799 230 38.6216 231.751 40.2412ZM247.303 63.0496C248.312 66.3675 249.165 72.3235 248.952 74.7891C248.639 79.6218 245.113 87.6637 240.361 94.5406C237.784 98.237 236.946 99.2478 234.389 101.453C232.766 102.89 230.542 104.618 229.448 105.361C225.124 108.195 219.17 110.378 213.589 111.139C210.708 111.522 205.908 111.542 205.845 111.188C205.764 110.733 211.279 109.749 215.155 109.528C217.326 109.402 219.338 109.122 219.593 108.946C220.453 108.349 220.636 107.324 220.068 106.486L219.54 105.718L220.998 104.962C223.904 103.4 230.784 98.3625 234.616 94.9646C240.627 89.586 246.484 78.0744 247.362 69.8258C247.485 68.7597 247.248 66.1133 246.89 63.9584C246.482 61.8125 246.226 60.0831 246.315 60.1455C246.434 60.2286 246.871 61.5081 247.303 63.0496ZM182.268 26.8233C174.395 31.1245 168.839 35.9783 161.926 44.4936C158.159 49.1329 155.639 55.3509 154.568 62.668C153.609 68.9994 155.286 79.4289 158.449 86.7742C158.87 87.8215 159.175 88.6546 159.074 88.6726C158.467 88.7809 153.859 80.6491 152.901 77.7658C151.581 73.8768 151.937 66.0608 153.764 59.183C155.781 51.4624 163.141 39.4479 168.694 34.7251C173.385 30.7303 178.458 27.2677 181.428 26.0596C183.329 25.303 186.069 24.4229 186.126 24.5955C186.135 24.6461 184.41 25.6584 182.268 26.8233Z" fill="white"/>
<path d="M195.117 48.4529C191.119 49.8339 187.195 53.0684 187.195 54.9582C187.195 55.9395 188.248 56.9934 189.266 56.9934C189.666 56.9934 191.192 56.0121 192.682 54.8492C195.626 52.4869 197.625 51.6874 199.914 52.0145C202.059 52.3052 202.458 52.7777 202.458 54.9946C202.458 60.4823 199.442 65.3521 191.556 72.5116C189.266 74.6194 186.613 77.0544 185.668 77.9266C183.815 79.5983 183.451 80.9067 184.396 82.215C184.832 82.7965 185.268 82.8692 187.413 82.6874C188.794 82.5784 191.41 82.2513 193.191 81.9243C201.986 80.3615 205.184 79.8891 209.545 79.5257C215.105 79.0532 215.433 78.9805 215.723 78.0356C216.159 76.7636 215.578 75.9278 214.161 75.7097C213.434 75.6007 212.307 75.3463 211.726 75.1646C210.926 74.9102 209.872 74.9465 208.2 75.3099C204.239 76.1458 197.043 77.1271 196.789 76.8727C196.644 76.7273 197.189 75.9278 197.988 75.0555C198.788 74.1833 199.769 72.984 200.132 72.4026C200.496 71.8211 201.404 70.6218 202.131 69.7132C205.184 66.0063 206.819 61.5725 206.819 57.1024C206.819 53.7589 206.056 51.2513 204.566 49.8339C202.059 47.399 199.26 46.9992 195.117 48.4529Z" fill="white"/>
<path d="M3.25917 17.1084C3.00478 17.3628 2.96843 17.7262 3.22283 18.1623C3.47723 18.7075 3.3682 18.9618 2.64135 19.4343C2.09622 19.7977 1.73279 20.3792 1.73279 20.888C1.73279 21.3241 1.4784 21.8692 1.15131 22.0509C0.678864 22.3053 0.460809 23.3229 0.206413 26.5211C-0.266038 32.1541 0.133728 58.9384 0.787891 67.0065C1.11497 70.6043 1.36937 76.4191 1.36937 79.908C1.40571 83.3969 1.55108 88.0487 1.73279 90.2656C1.9145 92.4461 2.24159 97.9338 2.45964 102.44C2.67769 106.947 2.96843 111.199 3.1138 111.889C3.33186 113.052 3.47723 113.161 4.64018 113.161C6.56633 113.161 6.78438 112.325 6.85707 105.529C6.89341 99.3512 7.36586 99.6419 7.72928 106.074C8.09271 112.761 8.63784 113.743 11.2908 112.325C12.1267 111.889 15.1795 109.854 18.0869 107.819C20.9942 105.784 24.8465 103.131 26.6273 101.859C31.0247 98.806 32.0787 98.0428 33.5324 96.9889C34.2229 96.4801 35.3131 95.7169 35.9673 95.2445C36.6215 94.772 40.5101 92.01 44.6168 89.1026C56.6461 80.5622 59.7716 78.4543 60.026 78.7087C60.1713 78.8541 60.8982 78.3089 61.6614 77.5457C62.4245 76.7462 63.6238 75.6923 64.3507 75.1835C66.4222 73.7298 67.6578 72.8576 74.0178 68.3511C77.2522 66.0252 80.3777 63.8083 80.8865 63.4812C82.0131 62.7544 82.4855 61.7005 82.0494 60.9736C81.7587 60.5739 81.5043 60.5739 80.414 60.9736C79.6872 61.228 79.033 61.3734 78.9967 61.3007C78.924 61.2644 78.6696 60.8283 78.4515 60.3558C78.2335 59.9197 77.761 59.5563 77.4703 59.5563C77.0342 59.5563 74.1631 58.1389 73.3636 57.4848C73.2909 57.4484 73.509 57.0486 73.836 56.6852C74.6356 55.813 74.6719 55.813 79.7962 58.9384C84.3753 61.7005 85.4293 61.9185 85.611 60.0287C85.7563 58.6841 84.9205 58.0299 78.4152 54.5047C76.1256 53.269 73.9087 52.0697 73.509 51.8517C73.1092 51.5973 71.9826 51.0158 70.965 50.5434C69.9838 50.0709 68.6754 49.3077 68.094 48.908C66.8947 48.0721 62.897 46.0369 29.0259 28.9923C15.5792 22.1963 4.34944 16.6723 4.13139 16.6723C3.87699 16.6723 3.51357 16.854 3.25917 17.1084ZM8.89224 28.1201C5.14897 33.1717 5.258 33.0627 4.74921 32.2995C4.45847 31.8997 4.16773 30.0099 4.02236 27.793L3.80431 23.9771L6.74804 25.5035L9.69177 26.9935L8.89224 28.1201ZM11.7996 28.847C11.5816 29.1014 10.0552 30.9548 8.45613 32.99C6.85707 34.9888 5.43971 36.6242 5.29434 36.6242C4.5675 36.6969 5.11263 34.5164 6.2029 33.1354C6.82072 32.2995 8.09271 30.6277 8.92858 29.4284C10.4913 27.2842 10.5276 27.2479 11.3999 27.793C12.0904 28.2655 12.1631 28.4835 11.7996 28.847ZM14.7434 29.5375C15.1068 29.9009 14.816 30.4824 13.1806 32.5175C12.054 33.8986 10.782 35.4976 10.3459 36.0791C9.90982 36.6606 9.14664 37.6418 8.63784 38.2596C8.12905 38.8775 7.25683 40.0041 6.7117 40.7309C5.43971 42.439 5.00361 42.4754 5.00361 40.84C5.00361 38.7321 5.5124 37.8599 10.2369 31.827C12.3084 29.1377 12.8536 28.6653 13.5077 28.8833C13.9075 28.9923 14.489 29.3194 14.7434 29.5375ZM18.0869 31.2092L19.5042 31.9361L17.2146 34.371C14.598 37.1694 11.7633 40.5129 7.98368 45.1283L5.36703 48.3265V46.4003C5.36703 44.6196 5.54874 44.2198 7.47489 41.5668C10.782 36.915 15.9063 30.4824 16.3061 30.4824C16.4878 30.4824 17.2873 30.8095 18.0869 31.2092ZM22.0118 33.2444C22.8114 33.7895 22.8114 33.8622 22.2299 34.7708C21.9028 35.3159 21.4304 35.8974 21.2123 36.1154C20.7762 36.4789 11.3272 48.0721 7.94734 52.3968C6.89341 53.7415 5.94851 54.8318 5.91216 54.7591C5.87582 54.6864 5.73045 53.7415 5.62143 52.6149C5.40337 50.5797 5.40337 50.507 7.25683 48.0721C9.8008 44.6196 14.1619 39.2045 15.2158 38.1143C15.7246 37.6055 16.9966 36.1881 18.0505 34.9161C20.122 32.5539 20.6672 32.2995 22.0118 33.2444ZM25.9368 35.4249C26.8454 35.9701 27.5359 36.5152 27.4632 36.6606C27.3905 36.8423 26.2639 38.1506 24.9556 39.6407C18.3413 46.9455 16.0517 49.5985 12.4538 54.1049C10.3096 56.7942 8.12905 59.629 7.62026 60.3558C7.1478 61.119 6.60267 61.7368 6.4573 61.7368C6.27559 61.7368 6.09388 60.7919 6.02119 59.629C5.83948 57.2667 6.09388 56.7216 9.58274 52.1788C14.3436 46.0006 23.7563 34.48 24.0107 34.48C24.1924 34.48 25.0646 34.9161 25.9368 35.4249ZM31.1701 38.6231C31.1701 38.8411 29.353 41.058 27.1361 43.5656C22.2299 49.0533 14.5253 58.575 8.20173 66.8974C6.74804 68.8236 6.4573 68.6419 6.4573 65.8798C6.4573 64.0627 6.67535 63.6266 10.2732 58.9748C11.6543 57.1577 13.217 55.1225 13.7258 54.432C14.9978 52.7239 23.7199 42.2573 25.5007 40.3312C28.8442 36.6969 28.4444 36.9513 29.8981 37.6418C30.5886 37.9689 31.1701 38.405 31.1701 38.6231ZM34.0775 39.9314C34.877 40.3312 35.5312 40.8036 35.5312 40.949C35.5312 41.0943 31.2428 46.364 25.9732 52.6876C20.7399 59.0111 16.0517 64.7169 15.5429 65.371C15.0341 66.0252 13.3623 68.2058 11.836 70.2046C10.2732 72.2034 8.63784 74.384 8.20173 75.0381C7.72928 75.7286 7.25683 76.2738 7.11146 76.2738C6.92975 76.2738 6.82072 75.1108 6.82072 73.6934C6.82072 71.2949 6.92975 71.0041 8.16539 69.2233C12.0904 63.8083 23.7199 49.235 29.0986 43.0568C30.1525 41.8575 31.2791 40.5129 31.6426 40.0404C32.4421 39.0228 32.3331 39.0228 34.0775 39.9314ZM47.3061 42.6571C50.7223 44.2925 55.1561 46.4367 57.1549 47.3816C68.421 52.7239 73.3636 55.2679 73.2546 55.6313C72.7821 56.976 71.9462 56.7579 66.3859 53.6688C61.1162 50.7251 59.081 49.6348 47.3425 43.5293C37.3847 38.3687 37.3483 37.8599 47.3061 42.6571ZM38.8383 42.548C40.0013 43.2022 40.9825 43.8927 40.9825 44.0744C40.9825 44.2198 40.5828 44.6922 40.074 45.092C39.5652 45.4918 39.1654 46.0733 39.1654 46.364C39.1654 46.6911 38.7657 47.4906 38.2205 48.1811C37.53 49.126 37.1303 49.3441 36.4761 49.1624C35.3131 48.8716 30.6613 51.9971 23.7563 57.7028C23.1384 58.2116 23.1021 58.2116 23.3928 57.7028C23.8653 56.9033 36.3307 41.3851 36.5124 41.3851C36.5851 41.3851 37.6391 41.9302 38.8383 42.548ZM45.2346 45.9642C46.5066 46.6547 47.5242 47.3816 47.4515 47.5633C47.3788 47.7087 45.9251 49.4894 44.217 51.4883C42.5089 53.4871 39.5652 57.0123 37.6754 59.3382C35.7856 61.6278 34.2229 63.3722 34.1502 63.1905C34.0775 63.0451 34.6226 61.1917 35.3131 59.0838C36.0036 57.0123 36.6942 54.432 36.8395 53.3417C36.9849 52.2515 37.421 50.8704 37.8571 50.289C39.3471 48.1448 42.2545 44.6559 42.5816 44.6559C42.7633 44.6559 43.9626 45.2374 45.2346 45.9642ZM50.795 48.8353C51.7762 49.3077 52.6484 49.8892 52.7938 50.1073C52.9392 50.3253 52.1397 51.4883 51.0494 52.7602C49.9955 53.9959 46.1068 58.7567 42.4362 63.3722C35.4222 72.1671 29.3893 79.5446 29.1713 79.5446C29.0986 79.5446 29.3166 78.6724 29.6074 77.6184C29.8981 76.6008 30.5159 74.2749 30.9884 72.5305C32.1514 68.0967 32.5148 67.2972 34.4409 65.0076C35.3858 63.9174 36.8032 62.1729 37.5664 61.1553C41.7821 55.6313 48.3601 47.9267 48.8688 47.9267C48.9415 47.9267 49.8137 48.3265 50.795 48.8353ZM59.5535 53.4508C61.9158 54.6864 63.8782 55.7767 63.8782 55.922C63.8782 56.0674 56.4644 65.2984 52.3214 70.2773C51.9943 70.677 50.4679 72.4941 48.9779 74.2749C47.4878 76.092 46.1795 77.6184 46.0705 77.7275C45.9615 77.8365 44.5804 79.3992 43.0541 81.2527C40.4011 84.3781 39.1291 85.5411 36.4398 87.3945C35.8583 87.7943 33.4597 89.4297 31.1701 91.0288C28.8805 92.6278 26.7363 94.0815 26.4456 94.2632C26.1549 94.4449 26.809 93.4637 27.8993 92.0827C38.9474 78.0545 45.1983 70.2409 52.5394 61.228C54.9744 58.2116 56.9732 55.6313 56.9732 55.4496C56.9732 55.1225 55.1924 56.3581 55.1561 56.7216C55.1561 56.9033 53.3753 59.0838 48.7598 64.3898C48.1057 65.153 47.1244 66.3523 46.5429 67.0791C45.9978 67.7696 45.2346 68.7145 44.8348 69.1507C44.4714 69.5504 41.6367 73.0756 38.4749 76.9643C22.8114 96.3711 21.5757 97.8248 18.632 99.8599C17.8325 100.405 15.3612 102.113 13.1443 103.64L9.11029 106.402L8.67418 102.404C8.3471 99.3512 8.3471 98.2609 8.67418 97.6067C9.21932 96.6255 14.0165 90.0839 16.4515 87.0311C17.469 85.7591 18.6683 84.1964 19.1771 83.5422C19.6859 82.8517 20.5581 81.8341 21.1033 81.2163C21.6484 80.5985 22.6297 79.3992 23.2838 78.5633C24.6285 76.7462 24.9919 76.6372 24.9919 77.9818C24.9919 78.9994 25.7188 81.3617 26.0822 81.3617C26.1912 81.3617 26.4819 81.5071 26.7727 81.6888C27.1361 81.9068 25.9005 83.6149 21.7938 88.5575C14.1982 97.7158 11.0364 101.931 11.3272 102.658C11.4362 102.985 11.6906 103.167 11.8723 103.094C12.054 103.022 14.707 99.8599 17.7598 96.0803C20.7762 92.2644 23.7926 88.5938 24.4104 87.867C25.0283 87.1765 25.8641 86.1589 26.2639 85.6864C26.6637 85.1776 30.0072 81.0346 33.7141 76.4555C37.421 71.9127 42.3636 65.7708 44.7258 62.8634C51.7399 54.2139 54.3929 51.1975 55.0107 51.1975C55.1561 51.1975 57.1912 52.2151 59.5535 53.4508ZM31.1701 56.5399C31.1701 56.7216 30.734 57.303 30.2252 57.9209C29.7164 58.5023 28.6625 59.738 27.9356 60.6465C27.2088 61.5551 25.7188 63.3359 24.6648 64.6442C23.5746 65.9525 22.4843 67.2245 22.3026 67.4789C22.0845 67.7333 21.5757 68.3148 21.1396 68.7509C20.7399 69.187 18.9227 71.3312 17.142 73.5481C15.3612 75.7286 13.7621 77.7275 13.5441 77.9818C13.3623 78.1999 12.1994 79.6536 11.0001 81.18C9.8008 82.7427 8.45613 84.4144 8.02002 84.9596L7.22049 85.9045L7.18415 82.2339V78.5997L9.11029 75.9467C11.6906 72.3124 16.4515 66.0616 17.1783 65.2257C17.6144 64.7532 17.9051 64.6805 18.1959 64.9713C19.3225 66.0979 21.285 64.9349 27.1724 59.629C29.244 57.8118 30.9884 56.2855 31.0611 56.2855C31.1338 56.2855 31.1701 56.3945 31.1701 56.5399ZM66.931 57.4484C67.7305 57.8845 68.7118 58.5023 69.0389 58.7567C69.7657 59.3746 69.584 59.7016 67.4398 62.0275C66.7493 62.7544 64.2053 65.6981 61.7704 68.5328C58.5723 72.2398 56.7188 74.1296 55.1561 75.0745C53.9568 75.8376 51.3038 77.5457 49.2686 78.8541C47.1971 80.1987 45.4527 81.2163 45.4163 81.1436C45.3436 81.1073 46.4702 79.5809 47.9603 77.8001C51.1948 73.8025 59.3718 63.7356 62.6063 59.629C63.9146 57.9935 65.0775 56.6489 65.2229 56.6489C65.3319 56.6489 66.0951 57.0123 66.931 57.4484ZM28.6261 66.0616C27.4268 69.5141 26.1549 72.8212 25.8278 73.3664C25.4644 73.9478 22.8114 77.2187 19.904 80.6712C14.707 86.8857 12.054 90.2656 8.81955 94.9901C8.56516 95.3898 8.23808 95.6079 8.12905 95.4989C8.02002 95.3898 7.80197 93.6817 7.69294 91.6829L7.43854 88.0487L10.1279 84.5598C11.6179 82.67 13.217 80.5622 13.7258 79.908C14.7797 78.527 28.2627 62.0639 29.6074 60.5375C30.1162 59.956 30.5523 59.5563 30.625 59.629C30.6977 59.7016 29.7891 62.609 28.6261 66.0616ZM72.2733 60.5375C72.8548 60.9009 73.3273 61.2644 73.3273 61.3734C73.3273 61.5188 72.3824 62.7181 71.1831 64.1354C69.584 66.0252 68.1303 67.2245 65.3319 68.9326C63.2968 70.2046 61.5523 71.1858 61.4796 71.1131C61.2616 70.8587 70.6016 59.9197 71.0377 59.9197C71.1467 59.9197 71.6919 60.2104 72.2733 60.5375ZM75.0353 62.3546C75.108 62.5727 74.5992 63.0815 73.8724 63.4812C72.3824 64.3898 72.3097 64.2444 73.4363 62.8271C74.2358 61.7732 74.8173 61.6278 75.0353 62.3546ZM12.7809 107.456C10.8547 108.837 9.72811 109.454 9.43737 109.2C9.18298 108.909 9.18298 108.909 11.5452 107.565C14.0529 106.147 14.6707 106.111 12.7809 107.456Z" fill="white"/>
<path d="M362.144 144.161C361.708 144.852 361.162 155.1 361.526 155.755C361.708 156.154 361.889 159.68 361.889 164.077C361.926 168.256 361.998 172.654 362.107 173.853C362.216 175.052 362.362 177.996 362.471 180.395C362.943 191.624 364.724 211.395 365.269 212.085C366.359 213.43 367.995 212.049 368.322 209.541L368.576 207.869L369.267 208.742C369.703 209.323 370.066 210.595 370.248 212.376C370.466 214.157 370.793 215.392 371.229 215.865C371.847 216.555 371.811 216.555 369.885 216.555C366.941 216.555 359.127 217.537 353.567 218.554C350.878 219.063 346.626 219.717 344.118 220.008C339.248 220.589 337.722 220.807 328.491 222.188C322.276 223.097 305.304 223.933 300.689 223.569C298.108 223.351 297.491 223.787 297.672 225.714C297.745 226.513 298.036 227.022 298.654 227.313C299.417 227.712 299.271 227.785 297.127 228.003C295.783 228.149 294.511 228.512 294.292 228.766C293.784 229.384 294.147 229.421 299.78 228.875C302.07 228.657 307.23 228.476 311.228 228.512C316.679 228.585 320.132 228.403 325.038 227.821C328.636 227.385 334.124 226.913 337.213 226.731C343.863 226.331 350.005 225.75 352.404 225.277C362.035 223.388 367.086 222.043 367.777 221.28C368.249 220.735 369.158 220.553 372.247 220.335C375.663 220.117 376.208 220.008 376.644 219.317C377.371 218.227 376.935 216.955 375.772 216.701C373.919 216.301 373.919 216.301 374.427 215.211C374.973 214.048 374.645 209.069 373.701 204.926C373.192 202.563 372.828 198.675 372.101 188.208C371.266 175.343 370.212 164.949 369.194 159.57C367.486 150.594 367.014 148.704 366.178 147.759C365.742 147.287 365.233 146.596 365.015 146.269C364.833 145.942 364.288 145.615 363.852 145.579C363.307 145.542 363.016 145.288 363.016 144.888C363.016 144.198 362.434 143.689 362.144 144.161ZM365.233 178.941C366.141 186.391 366.505 192.715 366.032 193.95C365.814 194.532 365.415 191.297 364.724 183.593C364.179 177.451 363.743 171.891 363.779 171.309L363.815 170.219L364.106 171.309C364.288 171.891 364.797 175.343 365.233 178.941Z" fill="white"/>
<path d="M331.58 161.569C330.998 161.642 327.8 161.897 324.529 162.151C320.641 162.442 318.497 162.732 318.424 163.023C318.351 163.241 318.569 163.496 318.933 163.568C319.296 163.677 318.787 163.859 317.77 164.004C313.409 164.659 312.137 165.349 312.137 166.984C312.137 167.602 312.427 168.002 313.154 168.293C313.699 168.511 314.644 168.947 315.262 169.238C316.28 169.746 317.225 169.746 323.221 169.347C326.964 169.092 330.09 168.947 330.163 169.02C330.417 169.274 325.256 174.98 321.259 178.905C317.188 182.902 316.389 184.138 317.188 185.337C317.733 186.246 317.77 186.173 316.134 187.3C314.935 188.136 314.681 188.499 314.681 189.517C314.681 191.552 316.316 191.988 319.296 190.716C322.24 189.444 325.692 188.935 327.51 189.48C329.835 190.207 333.143 191.77 334.887 192.969C336.959 194.387 337.649 196.385 336.631 197.766C336.232 198.275 335.287 199.075 334.487 199.547C333.179 200.31 332.597 200.383 328.491 200.347C325.547 200.347 323.076 200.129 321.513 199.729C319.223 199.147 318.969 199.147 317.806 199.729C315.553 200.783 315.916 203.327 318.46 204.49C320.677 205.544 322.095 205.762 326.383 205.725C330.817 205.725 331.653 205.58 335.178 204.453C337.068 203.836 338.122 203.254 339.43 201.982C341.501 199.983 342.083 198.166 341.865 194.714C341.429 188.572 336.559 184.72 328.709 184.356C326.928 184.283 325.402 184.138 325.329 184.065C325.256 183.993 327.546 181.049 330.453 177.56C334.451 172.654 335.65 170.982 335.505 170.437C335.214 169.274 336.086 167.53 337.249 166.912C337.831 166.621 338.449 166.076 338.667 165.676C339.103 164.877 338.812 162.514 338.194 161.751C337.867 161.315 334.269 161.242 331.58 161.569Z" fill="white"/>
<path d="M114.649 55.486C113.85 56.3582 113.85 57.8482 114.685 58.5751C115.013 58.8658 115.885 59.3746 116.575 59.6654C117.811 60.2105 117.666 60.2105 112.941 60.3195C110.252 60.3559 104.764 60.3559 100.766 60.3195C91.6807 60.1742 88.4826 60.4649 87.3196 61.5188C86.5564 62.2093 86.5201 62.3547 86.9926 63.445C87.3923 64.3535 87.7557 64.6079 88.846 64.7896C92.1168 65.2984 104.982 65.7345 117.229 65.7345C125.661 65.7345 130.385 65.8799 130.385 66.098C130.385 66.4614 126.751 68.2422 124.353 69.0054C123.553 69.2597 122.317 69.8776 121.59 70.35C120.355 71.0769 120.209 71.3676 120.209 72.6396C120.209 73.6208 120.464 74.275 121.009 74.8201C122.317 76.0194 123.916 75.765 127.987 73.5845C139.253 67.6243 141.579 65.2984 139.326 62.3547C138.49 61.3008 127.732 57.6302 119.374 55.595C115.521 54.6501 115.376 54.6501 114.649 55.486Z" fill="white"/>
<path d="M269.329 210.269C268.749 210.387 267.74 210.912 267.072 211.46C264.703 213.422 262.972 214.321 256.075 217.262C252.226 218.913 249.012 220.307 248.991 220.336C248.97 220.366 247.901 220.847 246.63 221.361C245.337 221.904 243.798 222.538 243.192 222.817C240.94 223.876 228.546 226.777 222.498 227.684C214.165 228.953 208.89 229.165 200.842 228.619C196.527 228.314 187.428 227.051 186.899 226.666C186.722 226.538 187.371 226.201 188.392 225.909C189.391 225.647 190.802 225.189 191.518 224.945C192.225 224.651 193.78 224.118 194.916 223.73C202.545 221.142 203.352 220.65 202.96 218.838C202.725 217.679 201.279 217.258 199.711 217.87C198.779 218.226 193.607 219.905 192.087 220.328C178.449 224.077 175.745 224.583 172.958 223.906C171.739 223.605 170.545 223.456 170.358 223.59C169.912 223.895 170.441 224.279 171.483 224.452C172.466 224.583 172.141 225.155 170.874 225.538C168.986 226.097 168.541 228.379 169.953 229.899C170.477 230.414 173.112 232.104 175.863 233.697C179.492 235.75 182.203 237.584 185.814 240.342C190.677 244.098 190.816 244.154 191.874 243.935C193.316 243.68 194.066 242.338 193.593 240.826C193.271 239.784 192.63 239.183 188.914 236.26L184.631 232.88L190.887 233.605C199.08 234.57 198.978 234.587 201.538 234.649C212.723 234.958 235.712 230.949 246.451 226.801C251.062 225.03 265.718 217.529 268.854 215.314C271.055 213.769 271.546 213.092 271.387 211.765C271.221 210.386 270.692 210.001 269.329 210.269ZM183.798 228.277C183.135 228.199 182.608 227.997 182.584 227.844C182.56 227.692 182.945 227.657 183.434 227.788C184.842 228.137 185.072 228.439 183.798 228.277Z" fill="white"/>
<path d="M135.923 174.862C135.814 174.934 134.033 175.116 131.926 175.225C129.818 175.37 126.329 175.625 124.112 175.807C121.931 176.025 116.698 176.352 112.482 176.57C108.303 176.788 104.051 177.042 103.033 177.115C96.5644 177.733 84.7168 178.023 69.6711 177.987C53.6441 177.951 52.2267 178.023 51.5726 178.605C50.5913 179.477 50.664 181.331 51.7179 182.312C52.3358 182.893 53.0263 183.111 54.2619 183.111C56.079 183.111 56.6242 183.511 55.7883 184.202C55.0614 184.783 55.0978 185.946 55.861 187.291C56.1881 187.872 56.6969 188.89 57.0239 189.508C57.351 190.089 58.0052 191.107 58.4413 191.724C58.8774 192.342 59.2408 192.96 59.2408 193.105C59.2408 193.215 59.7496 194.05 60.3311 194.923C60.9489 195.795 61.7484 197.321 62.1845 198.266C62.9841 200.192 62.9477 200.156 68.5445 208.478C79.4472 224.76 81.3006 227.558 82.2819 229.157C83.6265 231.301 85.8434 234.754 89.2233 239.987C90.6406 242.168 92.7848 245.584 93.9841 247.583C96.2373 251.362 97.2913 252.271 98.5269 251.508C99.5082 250.89 99.5808 250.926 99.5808 252.089C99.5808 253.361 100.162 253.979 101.471 253.979C102.488 253.979 104.124 252.562 104.523 251.326C104.741 250.599 105.396 250.49 105.396 251.217C105.396 251.762 106.377 252.271 106.886 251.98C107.067 251.835 107.649 250.999 108.194 250.054C108.703 249.109 110.702 245.729 112.591 242.531C114.481 239.333 116.807 235.408 117.752 233.809C118.697 232.21 121.459 227.304 123.93 222.906C126.365 218.509 128.509 214.729 128.655 214.547C128.8 214.329 129.418 213.276 130.036 212.185C131.744 208.987 134.542 204.263 136.541 201.101C141.193 193.832 143.664 189.508 143.264 189.362C142.974 189.29 143.01 188.926 143.41 188.163C143.7 187.581 143.846 186.927 143.737 186.746C143.628 186.564 143.773 185.946 144.064 185.365C144.609 184.274 144.791 179.586 144.282 178.75C144.1 178.423 144.246 178.06 144.754 177.66C146.099 176.57 145.336 175.843 142.828 175.843C141.593 175.843 140.321 175.697 139.994 175.516C139.267 175.116 136.178 174.644 135.923 174.862ZM138.831 183.366C138.831 183.729 136.759 186.055 134.215 188.526C131.635 190.998 125.093 197.43 119.642 202.809C114.154 208.188 109.648 212.549 109.575 212.476C109.502 212.403 109.648 210.768 109.866 208.805L110.338 205.28L114.845 200.883C117.352 198.484 122.295 193.723 125.82 190.271C129.382 186.855 132.216 183.984 132.107 183.911C131.817 183.62 129.091 186.128 117.243 197.43C113.9 200.665 110.956 203.354 110.774 203.427C110.52 203.499 110.484 202.264 110.665 199.974L110.883 196.376L117.643 189.762L124.403 183.148L128.618 183.002C139.557 182.712 138.831 182.712 138.831 183.366ZM62.8751 183.547C62.8751 184.42 64.1107 185.292 65.3463 185.292H66.6183L65.31 186.273C64.6195 186.855 63.7473 187.472 63.4202 187.654C63.0568 187.872 62.8387 188.272 62.9114 188.526C63.0204 188.817 63.8926 188.345 65.3827 187.145C66.6547 186.128 68.0357 185.219 68.4718 185.11C70.725 184.674 71.9606 184.565 71.9606 184.819C71.9243 184.965 71.1611 185.728 70.2162 186.491C67.0544 188.999 64.9829 191.07 65.2373 191.434C65.6007 192.052 65.9278 191.906 67.7086 190.271C68.6535 189.435 70.2526 188.018 71.2701 187.109C72.3241 186.2 73.378 185.256 73.6687 184.965C74.541 184.129 79.5562 183.402 79.0474 184.165C78.8657 184.492 68.2537 193.324 66.8727 194.305C66.2549 194.741 66.0732 194.632 64.9829 192.742C64.3287 191.615 63.2748 189.871 62.6207 188.817C61.9665 187.763 61.3123 186.673 61.2033 186.382C61.0579 186.091 60.5491 185.328 60.0767 184.71C59.6042 184.093 59.2408 183.475 59.2408 183.366C59.2408 183.22 60.0767 183.111 61.0579 183.111C62.2209 183.111 62.8751 183.257 62.8751 183.547ZM101.761 186.309C97.9091 189.762 88.2057 199.465 81.8821 206.152C76.6488 211.676 76.6488 211.676 75.3405 209.169L74.7953 208.079L80.3557 202.591C83.4448 199.538 87.8423 195.359 90.1318 193.251C92.4214 191.107 95.2198 188.526 96.3464 187.509C97.473 186.491 98.6723 185.437 99.0357 185.147C99.3991 184.892 99.6172 184.492 99.5445 184.274C99.3991 183.875 97.3276 185.51 93.4026 189.071C88.8598 193.215 79.3018 201.973 76.8669 204.263L73.9595 207.025L73.1599 205.789C72.6875 205.135 72.3241 204.444 72.3241 204.263C72.3241 203.899 83.5902 192.851 89.1869 187.727C91.1131 185.946 92.6758 184.274 92.6758 183.984C92.6758 183.584 93.8387 183.475 98.5996 183.402C101.834 183.329 104.56 183.366 104.669 183.402C104.778 183.475 103.469 184.783 101.761 186.309ZM121.532 184.601C120.55 185.474 117.897 188.018 115.571 190.271C112.046 193.723 111.392 194.196 111.283 193.542C111.065 191.906 110.375 190.78 109.357 190.271L108.267 189.762L110.847 187.254C113.246 184.965 114.445 183.475 113.936 183.475C113.827 183.475 112.664 184.565 111.319 185.873C109.938 187.218 108.049 188.926 107.031 189.726C103.07 192.887 94.6019 201.101 86.3522 209.75C83.1541 213.094 80.3921 215.819 80.174 215.819C79.956 215.783 79.3018 215.056 78.7567 214.148L77.7027 212.512L83.8446 206.116C92.0943 197.43 101.071 188.417 103.869 186.055C105.105 184.965 106.122 183.911 106.122 183.693C106.122 183.402 108.775 183.257 114.699 183.148L123.276 183.039L121.532 184.601ZM84.4988 184.129C84.099 184.492 81.4823 186.818 78.684 189.326C75.8856 191.797 72.6148 194.777 71.4155 195.94C70.2162 197.103 69.0533 198.23 68.7989 198.448C68.4718 198.702 68.1447 198.375 67.5996 197.285C67.1635 196.413 66.9454 195.613 67.1271 195.468C67.2725 195.322 68.7262 194.123 70.3252 192.742C71.9243 191.397 73.487 190.016 73.8141 189.689C74.1412 189.362 74.7953 188.781 75.2678 188.417C75.7403 188.018 77.1213 186.855 78.3206 185.837C80.8645 183.62 81.0462 183.547 83.4085 183.511C85.1529 183.475 85.1893 183.475 84.4988 184.129ZM90.2045 185.365C89.0416 186.418 86.7883 188.417 85.2256 189.835C82.2092 192.524 80.5011 194.159 74.8317 199.683L71.3065 203.1L70.1799 201.355L69.0533 199.647L71.1248 197.721C72.2514 196.631 74.7953 194.268 76.7942 192.451C78.7567 190.598 81.7367 187.836 83.3721 186.309L86.3159 183.511L89.2959 183.475H92.3124L90.2045 185.365ZM132.979 194.268C128.764 201.973 128.219 202.845 126.365 204.699C121.059 210.077 98.5269 233.482 95.5468 236.68C94.9654 237.334 94.8927 237.261 93.4026 235.299C92.5668 234.136 91.9489 233.082 92.0216 232.864C92.276 232.137 102.924 221.271 103.433 221.271C103.688 221.271 104.451 221.598 105.069 221.961C106.122 222.615 106.341 222.615 107.213 222.179C108.267 221.634 108.267 221.562 108.884 216.619L109.139 214.729L122.586 201.283C129.999 193.905 136.105 187.909 136.214 187.981C136.287 188.054 134.833 190.889 132.979 194.268ZM106.849 196.449V198.521L102.525 202.809L98.1998 207.097H96.3464C95.3288 207.097 94.4929 206.988 94.4929 206.879C94.4929 206.77 95.1107 206.08 95.8739 205.353C96.6008 204.626 99.2538 201.828 101.725 199.175C104.196 196.558 106.377 194.377 106.559 194.377C106.704 194.377 106.849 195.322 106.849 196.449ZM105.795 203.717C105.214 205.971 105.105 206.189 103.978 206.479C103.324 206.625 102.27 206.734 101.652 206.661L100.562 206.552L103.07 203.936C104.451 202.482 105.759 201.283 105.977 201.283C106.268 201.283 106.231 202.009 105.795 203.717ZM124.911 208.079C123.276 210.913 117.425 220.689 116.843 221.634C116.407 222.325 115.426 223.924 114.699 225.123C113.936 226.359 110.847 229.957 107.831 233.155C104.778 236.317 101.543 239.769 100.598 240.787C99.6899 241.768 98.7813 242.531 98.5996 242.386C97.9454 241.95 95.8739 238.751 95.9829 238.424C96.0556 238.206 97.1096 237.007 98.3089 235.735C99.4718 234.499 101.543 232.283 102.852 230.902C111.392 221.671 114.263 218.654 116.662 216.183C118.152 214.62 120.587 212.113 122.04 210.586C124.439 208.115 125.384 207.279 124.911 208.079ZM89.3323 210.841C90.0591 211.313 91.1131 211.858 91.6582 212.04C92.6394 212.367 92.6394 212.367 88.6418 216.437C85.8798 219.236 84.6805 220.726 84.8258 221.089C85.0802 221.852 85.8071 221.453 87.9876 219.381C88.8962 218.545 90.7496 216.873 92.058 215.71C93.4026 214.547 94.4929 213.385 94.4929 213.13C94.4929 212.839 94.711 212.476 94.9654 212.222C95.4742 211.822 102.416 210.913 102.743 211.24C102.852 211.349 100.126 214.22 96.7098 217.673C93.2936 221.125 90.4952 224.069 90.4952 224.215C90.4952 225.378 92.0216 224.142 97.3276 218.763C100.671 215.347 103.469 212.549 103.579 212.549C103.688 212.549 103.433 214.22 103.033 216.292L102.307 220.072L96.8552 225.741C93.8751 228.866 91.2221 231.447 91.004 231.447C90.786 231.447 89.2233 229.484 87.5515 227.086C85.8798 224.687 83.7356 221.598 82.7907 220.29C81.8094 218.945 81.0462 217.637 81.0462 217.346C81.0462 216.982 87.4425 210.077 87.8786 210.005C87.9149 210.005 88.5691 210.404 89.3323 210.841ZM109.03 234.79C108.23 236.244 107.394 237.698 107.213 237.988C107.031 238.279 105.868 240.242 104.632 242.349C101.652 247.437 101.798 247.292 100.998 246.093C100.635 245.511 100.126 244.821 99.9079 244.494C99.5445 244.021 99.6172 243.767 100.162 243.185C100.526 242.785 102.997 240.06 105.577 237.189C108.194 234.281 110.338 231.955 110.411 232.028C110.484 232.065 109.866 233.3 109.03 234.79Z" fill="white"/>
</svg>
