<svg width="251" height="254" viewBox="0 0 251 254" fill="none" xmlns="http://www.w3.org/2000/svg">
<path d="M113.771 15.6169C111.836 15.8346 108.509 16.3129 106.343 16.654C104.21 17.0019 101.661 17.3668 100.67 17.5051C98.2603 17.8644 89.3349 20.1667 86.156 21.257C82.3559 22.5274 77.7279 24.4824 75.2142 25.8464C73.0046 27.0676 67.6406 31.2652 67.8833 31.5887C67.9619 31.7074 68.392 31.4539 68.8887 31.0431C70.5117 29.667 76.2929 26.6154 79.1879 25.5693C86.3789 23.0128 95.6355 20.4366 100.753 19.6083C102.424 19.3363 105.132 18.8672 106.802 18.5953C108.473 18.3233 111.682 17.9231 113.926 17.7008C117.887 17.3185 118.674 17.0015 118.488 15.903C118.333 15.153 117.759 15.1034 113.771 15.6169Z" fill="#0AC2D4"/>
<path d="M121.704 19.6425C114.387 19.4713 109.851 19.9748 102.017 21.8175C98.8063 22.5594 97.8219 22.8357 94.9074 23.8094C93.6914 24.2091 91.96 24.7763 91.0414 25.0662C89.31 25.6334 83.1086 28.2224 77.5081 30.7298C75.7294 31.5267 73.693 32.4074 72.9789 32.7052C70.1626 33.8701 65.7412 36.8251 64.0964 38.6414C62.0335 40.9872 61.4984 42.587 63.5073 40.5037C65.8211 38.1069 69.5861 35.8376 75.0473 33.5068C81.7911 30.6189 82.8491 30.1526 86.3135 28.6764C87.8539 28.0356 89.2025 27.4923 89.3014 27.5126C89.4003 27.5329 90.2132 27.2555 91.0793 26.8865C96.282 24.8103 104.692 22.6755 110.218 22.0337C114.866 21.4849 122.072 21.3597 125.911 21.7389C128.938 22.0537 129.731 21.8747 129.577 20.9539C129.429 20.171 126.969 19.7678 121.704 19.6425Z" fill="#0AC2D4"/>
<path d="M134.975 25.2786C126.348 24.2909 111.204 24.2541 107.676 25.2042C107.095 25.3582 105.952 25.5678 105.18 25.6484C100.684 26.1258 89.7012 29.5782 83.1019 32.5983C74.195 36.6486 63.7315 43.4224 57.2644 49.3081C56.5024 50.0064 54.9851 51.37 53.8851 52.3749C52.7522 53.3731 51.2011 54.9008 50.3724 55.7563C45.0148 61.4257 43.7679 62.8108 43.7274 63.0076C43.7072 63.1061 42.5457 64.5771 41.1392 66.2372C39.7395 67.8644 37.9935 70.1728 37.2029 71.3439C36.4521 72.489 34.9106 74.8053 33.7746 76.4868C29.7617 82.4669 25.6391 90.8184 23.6175 97.1397C22.3927 100.923 21.2131 107.828 20.9808 112.466C20.5056 122.627 20.7486 130.133 21.7635 136.223C22.1167 138.348 22.5209 140.893 22.6615 141.88C22.9759 143.86 25.5236 153.857 26.4874 156.688C29.6638 166.301 32.7358 172.747 37.9196 180.619C43.2082 188.649 49.4994 195.312 58.2382 202.102C63.0054 205.818 63.8803 206.409 69.7046 209.829C75.7986 213.442 79.0842 215.007 85.9545 217.686C91.6786 219.923 92.4232 220.145 100.393 221.818C108.733 223.533 111.78 223.92 123.68 224.692C137.039 225.559 153.652 221.794 167.786 214.715C171.463 212.872 181.674 206.32 185.356 203.452C196.396 194.882 208.263 181.283 215.451 169.048C224.237 154.064 226.807 143.238 226.076 124.074C225.966 120.597 225.778 117.002 225.65 116.121C225.136 111.603 223.328 102.853 221.881 97.5279C220.303 91.8343 219.887 90.5176 218.464 87.0787C218.118 86.2551 217.688 85.004 217.487 84.3128C217.286 83.6216 217.044 82.9564 216.966 82.8377C216.27 82.0448 214.442 77.736 214.4 76.7699C214.344 76.0402 214.011 75.3218 213.511 74.9113C213.071 74.5471 212.257 73.4907 211.694 72.5541C207.496 65.5692 202.693 59.6908 195.833 53.1162C193.396 50.7682 187.157 45.6889 184.953 44.2097C183.894 43.5131 181.683 42.0667 180.019 40.972C174.973 37.6087 161.797 31.3423 156.242 29.6185C152.783 28.565 139.031 25.7708 134.975 25.2786ZM163.672 36.9261C165.733 37.9313 168.268 39.1367 169.302 39.6229C173.839 41.7871 183.727 48.3349 187.289 51.5639C187.696 51.9213 189.116 53.205 190.489 54.3767C193.815 57.2495 197.197 60.8519 201.279 65.8977C202.755 67.7403 207.277 74.655 207.209 74.9831C207.108 75.4752 191.854 79.3145 186.3 80.2583L184.411 80.588L183.667 78.8618C181.067 73.1289 173.086 60.6467 168.754 55.6518C167.842 54.575 167.048 53.5909 166.976 53.4394C166.793 52.9914 160.279 46.0772 158.511 44.4825C151.775 38.3094 146.764 33.1066 146.906 32.4176C146.953 32.1879 149.135 32.6025 153.459 33.6286C159.095 34.9588 160.38 35.394 163.672 36.9261ZM141.088 31.8025C140.936 32.0447 140.583 32.7586 140.316 33.3877L139.875 34.5282L138.115 34.0637C137.14 33.7947 136.356 33.4283 136.357 33.2575C136.353 32.7778 139.996 31.0991 140.754 31.255C141.15 31.3364 141.248 31.5276 141.088 31.8025ZM133.518 30.6901C133.484 30.8542 131.071 31.8968 128.123 33.0345C118.67 36.7331 112.743 39.8232 104.391 45.3554C101.445 47.3145 97.9897 49.75 96.7511 50.7606C93.4528 53.4337 87.1557 59.6622 85.1115 62.2513C84.1426 63.4541 83.0883 64.571 82.8103 64.7533C82.387 64.974 81.748 64.74 79.9576 63.7562C74.9618 60.9846 64.918 53.8575 63.0799 51.7695C62.548 51.1814 62.641 51.0637 65.3226 49.0503C73.1098 43.0941 78.5816 39.8762 89.029 35.1852C95.1255 32.4379 113.413 29.0515 120.611 29.3008C127.426 29.574 133.613 30.2308 133.518 30.6901ZM149.673 40.5104C150.376 41.2705 151.44 42.276 151.986 42.7985C156.474 46.8679 161.747 52.6375 165.866 57.9989C168.825 61.8221 175.463 71.9764 176.115 73.6495C176.344 74.2094 176.572 74.7694 176.684 74.8949C177.071 75.3507 179.085 79.4242 179.332 80.2273C179.56 80.9581 179.493 81.1154 178.884 81.4007C178.508 81.5625 178.072 81.678 177.874 81.6374C177.709 81.6035 176.27 81.7521 174.711 81.9787C168.267 82.9104 156.057 83.3061 148.742 82.7933C143.9 82.4472 136.467 81.6708 134.654 81.298L133.797 81.1217L137.225 64.4539C140.734 47.3924 141.936 42.7152 143.958 37.7277L145.093 34.8832L146.753 37.0029C147.645 38.1781 148.971 39.7504 149.673 40.5104ZM137.792 35.4678C138.76 35.9404 138.917 36.178 138.762 36.9326C138.303 39.1637 138.151 39.235 135.416 38.5015C130.921 37.3035 129.518 36.7755 129.599 36.3818C129.679 36.1589 130.665 35.5409 131.882 34.9704C134.196 33.9075 134.704 33.9435 137.792 35.4678ZM130.131 38.4746C131.618 39.2594 133.864 40.2001 135.09 40.5889L137.343 41.326L137.008 42.454C136.814 43.0638 136.607 43.5685 136.607 43.5685C136.574 43.5617 133.252 42.8442 129.244 41.9514C122.283 40.383 121.927 40.2756 122.048 39.685C122.116 39.3569 122.308 39.0887 122.506 39.1294C122.671 39.1633 123.497 38.8203 124.278 38.3653C125.562 37.6375 126.996 37.0092 127.333 37.0442C127.399 37.0578 128.643 37.6899 130.131 38.4746ZM122.199 41.2892C123.035 41.7347 125.394 42.6301 127.469 43.2281C129.545 43.826 132.346 44.7439 133.723 45.2323L136.186 46.1152L135.849 47.7557C135.62 48.8713 135.347 49.3624 134.99 49.4258C134.706 49.47 132.677 48.8132 130.477 47.9845C127.262 46.742 119.473 44.3536 116.349 43.6767C116.019 43.6089 115.789 43.3906 115.83 43.1938C115.917 42.7672 119.888 40.3349 120.356 40.397C120.554 40.4377 121.363 40.8437 122.199 41.2892ZM118.556 45.8064C120.979 46.8862 125.59 48.6895 128.812 49.8992L134.629 52.0189L134.271 53.7579L133.913 55.4969L132.569 55.0153C131.799 54.7541 129.289 53.7592 126.97 52.8378C124.652 51.9163 121.365 50.6931 119.618 50.163C117.912 49.6068 115.665 48.8369 114.677 48.4627C112.885 47.8206 110.701 46.4138 110.782 46.02C110.836 45.7576 113.708 43.8177 113.972 43.8719C114.071 43.8923 116.126 44.7595 118.556 45.8064ZM111.024 47.8482C113.036 49.4248 115.374 50.5894 118.885 51.7221C120.559 52.2715 122.72 53.1262 123.654 53.5921C124.583 54.0908 126.077 54.8427 126.913 55.2883C127.782 55.7406 129.495 56.4348 130.72 56.8236C132.914 57.5143 132.974 57.5607 132.884 58.4997C132.826 59.4455 132.793 59.4387 131.417 58.9504C130.646 58.6892 128.821 58.0403 127.305 57.5576C118.608 54.7429 106.185 49.8282 106.109 49.1969C106.051 48.8089 109.011 46.6133 109.439 46.7015C109.538 46.7218 110.255 47.2454 111.024 47.8482ZM105.561 50.6916C105.797 51.0479 108.154 52.1141 114.477 54.7824C115.965 55.3963 119.568 56.9238 122.479 58.1381C125.383 59.3852 128.348 60.5079 129.04 60.6503C131.413 61.1384 132.335 61.6699 132.074 62.437C131.833 63.1057 131.701 63.0785 126.579 61.9225C123.692 61.2603 119.507 60.2285 117.273 59.5639C111.21 57.8039 102.912 54.2164 101.651 52.8286C101.172 52.3196 101.232 52.1951 102.708 51.1992C104.277 50.0855 105.063 49.9394 105.561 50.6916ZM105.507 56.6311C110.049 59.1042 121.822 63.3379 129.494 65.292C131.161 65.7034 131.28 65.7961 131.125 66.5508C130.956 67.371 130.89 67.3575 127.276 66.8878C122.191 66.2182 106.272 62.6021 102.009 61.1099C100.086 60.4406 97.582 59.5837 96.4815 59.2548C95.3548 58.8863 94.4723 58.4996 94.4993 58.3683C94.5668 58.0402 95.72 56.9437 98.2301 54.9292L100.469 53.0642L101.691 54.1364C102.329 54.7121 104.053 55.8531 105.507 56.6311ZM210.821 81.6423C211.285 82.7294 212.075 84.5676 212.598 85.7011C213.12 86.8346 213.773 88.5076 214.065 89.4228C214.358 90.338 214.983 92.1423 215.433 93.4659C216.41 96.2317 218.902 105.499 219.358 108.124C219.539 109.084 219.852 111.235 220.029 112.878C220.24 114.529 220.528 116.469 220.656 117.18C220.947 118.607 221.353 125.154 221.312 128.19C221.301 130.752 220.524 140.544 220.22 142.021L219.977 143.202L210.964 141.587C205.999 140.669 198.924 139.487 195.298 138.912C191.638 138.331 188.618 137.812 188.566 137.733C188.513 137.654 188.981 134.877 189.597 131.55C190.389 127.199 190.767 123.857 190.964 119.725C191.213 114.339 191.314 109.503 191.199 108.556C191.148 108.306 192.745 106.891 194.738 105.385C196.704 103.841 198.838 101.988 199.475 101.23C200.709 99.7396 201.655 97.8138 201.193 97.7189C201.061 97.6918 199.922 98.7227 198.695 100.009C196.493 102.361 191.785 106.043 191.192 105.921C191.027 105.888 190.87 105.65 190.851 105.407C190.825 105.196 190.698 104.144 190.597 103.132L190.434 101.251L192.169 100.001C193.142 99.2777 194.48 98.2875 195.142 97.7397C195.831 97.2316 197.247 96.1892 198.293 95.4468C200.306 94.014 200.598 93.5953 199.875 93.1045C199.539 92.8987 198.024 93.7499 194.939 95.8855C192.497 97.5718 190.372 98.8791 190.214 98.8124C190.063 98.7129 189.686 97.3701 189.39 95.8044C189.094 94.2387 188.328 91.277 187.691 89.1967C187.047 87.1491 186.528 85.3323 186.555 85.2011C186.582 85.0698 187.599 84.8003 188.841 84.6111C191.548 84.142 194.203 83.5937 197.533 82.7738C198.947 82.4147 201.615 81.8009 203.485 81.3987C205.354 80.9966 207.501 80.4123 208.208 80.1474C208.922 79.8497 209.616 79.6504 209.781 79.6843C209.92 79.6786 210.384 80.5948 210.821 81.6423ZM64.0989 55.5016C67.2127 58.5701 74.5964 64.4318 77.7156 66.3045C78.9726 67.0418 80.0319 67.7385 80.1173 67.8244C80.1629 67.9364 79.5042 69.1347 78.6005 70.5219C70.7583 82.7594 67.4755 90.7022 64.8676 104.05L63.7864 109.642L61.1891 109.073C47.102 105.903 36.4678 103.818 32.4837 103.477C30.0894 103.259 27.9857 102.963 27.8412 102.83C27.4007 102.466 29.5521 95.1798 31.1859 91.412C32.9599 87.2969 39.0704 77.1314 42.3698 72.7828C43.6377 71.1284 45.2907 68.9377 46.094 67.8718C46.8973 66.8059 48.2641 65.1718 49.179 64.2315C50.0609 63.2843 51.7454 61.442 52.9458 60.1158C54.1133 58.7828 55.5781 57.3399 56.1611 56.8443C56.777 56.3554 58.0028 55.2395 58.944 54.3388C59.8783 53.4708 60.8449 52.7804 61.0756 52.8279C61.3064 52.8753 62.6734 54.0798 64.0989 55.5016ZM97.996 61.413C104.727 64.2678 108.028 65.2546 119.202 67.7237C125.181 69.056 130.151 70.2833 130.282 70.4813C130.387 70.6396 130.264 71.401 129.984 72.0958L129.477 73.3935L122.357 71.9292C117.116 70.8513 113.926 69.99 110.394 68.7849C107.766 67.8681 104.004 66.6156 102.027 66.038C100.089 65.4343 96.7092 64.3288 94.5681 63.5464L90.6614 62.1616L92.0072 60.7968C93.0547 59.7127 93.5177 59.466 94.0181 59.7057C94.3934 59.8855 96.1651 60.626 97.996 61.413ZM97.8686 66.2087C105.892 69.2952 115.057 72.1721 122.717 74.0209C128.682 75.4188 129.255 75.6393 129.121 76.1247C129.054 76.4528 128.798 77.5287 128.563 78.5063L128.126 80.2973L121.632 78.9618C110.86 76.7121 98.762 72.8902 90.834 69.1736C86.5079 67.1553 86.4225 67.0693 87.763 65.3957C89.6146 63.0748 89.6873 63.0556 97.8686 66.2087ZM183.145 90.5871C183.808 92.8779 184.663 96.4052 185.069 98.4381L185.791 102.109L183.593 103.777C179.574 106.781 176.428 109.383 176.367 109.678C176.333 109.842 176.503 110.185 176.72 110.469C177.048 110.878 177.504 110.664 179.477 109.257C180.794 108.366 182.628 106.965 183.602 106.241C184.582 105.485 185.462 104.88 185.64 104.848C185.786 104.81 186.025 105.816 186.138 107.105L186.392 109.38L184.803 110.421C183.93 110.994 182.526 112.142 181.657 113.023C180.365 114.296 180.119 114.656 180.394 115.157C180.57 115.467 180.886 115.771 181.09 115.779C181.288 115.82 182.473 114.901 183.739 113.759C185.005 112.617 186.13 111.823 186.235 111.981C186.615 112.641 186.386 119.433 185.791 123.996C185.455 126.629 184.784 130.56 184.273 132.712L183.364 136.629L181.999 136.588C180.29 136.544 144.056 129.297 132.336 126.647L123.634 124.687L125.019 117.619C125.815 113.747 127.546 106.169 128.923 100.809C130.3 95.4499 131.659 89.8471 131.962 88.3707C132.367 86.402 132.654 85.6745 132.951 85.7355C133.683 85.8519 142.673 86.7433 147 87.0861C154.77 87.7266 162.503 87.8807 166.854 87.4418C168.293 87.2932 171.442 87.0174 173.858 86.7962C176.267 86.6078 178.796 86.3412 179.47 86.2404C181.649 85.8336 181.839 86.078 183.145 90.5871ZM89.1688 72.5929C98.3013 76.9677 113.871 82.1191 124.742 84.3891L127.379 84.9315L123.922 102.072C122.012 111.528 120.151 120.242 119.795 121.469L119.132 123.692L109.884 121.551C100.108 119.301 96.8387 118.492 86.9589 115.912C83.5713 115.01 78.0876 113.609 74.7853 112.793C71.516 111.984 68.7285 111.171 68.6236 111.013C68.3158 110.505 71.7264 94.757 72.8357 91.7021C73.8918 88.7388 77.5776 80.6737 78.5413 79.162C78.8868 78.6516 79.5987 77.3617 80.1713 76.2483C80.7438 75.135 81.9069 73.3223 82.7499 72.2303C84.038 70.4775 84.3624 70.2365 84.9153 70.5553C85.2576 70.7283 87.1934 71.6736 89.1688 72.5929ZM55.226 111.506C58.284 112.34 61.3285 113.24 61.9937 113.514L63.2388 113.975L63.0099 120.768C62.8609 124.499 62.9193 129.059 63.0958 130.874C63.9656 139.842 64.526 144.3 65.2297 147.728C65.6623 149.8 66.2365 152.689 66.5202 154.149C66.8039 155.61 67.4522 158.137 67.9397 159.776C68.8299 162.798 68.7212 163.493 67.4357 163.229C66.5786 163.053 59.1174 164.083 55.0619 164.925C50.8941 165.812 43.6267 167.737 42.7074 168.197C41.9402 168.587 37.6112 170.09 37.4134 170.05C37.3145 170.029 36.7259 168.882 36.0923 167.453C35.4849 166.062 34.727 164.402 34.4395 163.795C33.9429 162.701 32.8414 159.705 31.4089 155.477C30.1846 151.908 28.9328 147.137 27.5494 140.833C26.6054 136.569 25.4851 124.643 25.5653 120.077C25.6678 116.405 25.947 113.042 26.5538 108.756L27.0114 105.361L28.4888 105.528C30.8763 105.78 49.2021 109.891 55.226 111.506ZM74.2122 116.916C78.0546 117.945 94.1365 122.108 106.996 125.402C112.941 126.899 117.851 128.251 117.956 128.409C118.06 128.567 117.447 131.382 116.594 134.695C115.741 138.008 113.651 146.333 111.924 153.228C110.196 160.122 108.731 165.908 108.625 166.092C108.479 166.301 105.801 165.956 100.665 165.036C91.6124 163.448 85.0961 162.723 79.2166 162.745C76.9136 162.75 74.7627 162.684 74.4661 162.623C73.642 162.453 70.7521 150.779 69.1527 141.182C68.0997 134.776 67.4469 123.082 67.824 117.073C67.8834 115.614 67.9763 115.497 68.6955 115.508C69.1375 115.53 69.9684 115.667 70.4823 115.841C71.0291 116.022 72.6832 116.499 74.2122 116.916ZM218.343 149.979C217.455 153.626 215.199 159.25 213.137 162.929C208.526 171.146 200.995 181.704 196.102 186.785C195.055 187.869 193.344 189.672 192.29 190.788C189.067 194.264 177.681 203.686 176.923 203.53C176.527 203.449 172.524 200.027 169.969 197.586C168.93 196.62 166.195 194.382 163.881 192.606C161.533 190.824 159.653 189.274 159.687 189.11C159.714 188.979 160.172 188.423 160.695 187.881C170.654 177.379 179.149 163.805 184.14 150.4C185.415 147.037 186.505 143.91 186.593 143.483C186.802 142.466 187.178 142.475 199.759 144.618C205.139 145.519 210.684 146.454 212.049 146.667C213.408 146.912 215.491 147.306 216.678 147.55L218.814 148.024L218.343 149.979ZM181.606 143.005C180.977 145.064 177.093 154.593 176.541 155.437C176.236 155.921 175.317 157.716 174.517 159.432C172.665 163.258 170.371 167.232 168.79 169.403C168.126 170.293 166.679 172.32 165.582 173.976C163.57 176.913 156.815 185.031 155.643 185.885C154.961 186.36 155.547 186.686 149.014 182.538C144.414 179.677 136.243 175.807 126.001 171.649C125.302 171.368 122.107 170.369 118.904 169.403L113.079 167.658L114.494 161.109C115.269 157.507 116.575 151.995 117.42 148.886C118.266 145.777 119.671 140.116 120.585 136.337L122.24 129.461L152.084 135.702L181.928 141.942L181.606 143.005ZM107.328 171.228C107.558 171.447 107.104 174.157 105.943 179.801C104.431 187.15 101.554 203.145 100.229 211.593C99.7054 214.974 99.4469 215.228 98.2335 213.611C97.8927 213.096 97.1182 212.184 96.5204 211.583C93.8673 208.78 88.9945 200.733 85.9038 194.044C82.506 186.677 75.1635 167.417 75.673 167.112C76.5069 166.565 87.5624 167.437 96.5373 168.735C99.6366 169.202 106.954 170.878 107.328 171.228ZM116.647 173.692C118.618 174.303 122.353 175.686 124.948 176.767C127.569 177.888 130.546 179.116 131.593 179.536C134.827 180.851 139.634 183.208 142.681 184.929C148.947 188.543 150.953 189.811 150.879 190.171C150.839 190.368 149.202 191.81 147.235 193.355C139.322 199.593 131.952 203.686 120.893 207.841C114.898 210.096 111.639 211.409 107.95 212.976C106.138 213.766 104.578 214.334 104.532 214.222C104.034 213.47 110.756 174.943 111.708 172.984C112.054 172.303 112.022 172.296 116.647 173.692ZM70.6299 168.913C71.0081 169.914 71.6918 171.936 72.2062 173.444C73.4754 177.296 77.031 186.234 79.6042 192.099C82.0269 197.692 83.8513 201.351 85.8615 204.774C88.0942 208.618 91.2339 213.231 92.3575 214.283C94.8474 216.71 90.9256 215.733 82.0223 211.747C73.9355 208.135 61.8241 200.035 55.4444 193.969C51.6729 190.424 46.9397 185.039 44.1856 181.223C41.5364 177.566 38.393 172.303 38.6058 171.936C38.659 171.845 40.6811 171.201 43.0861 170.532C49.0191 168.914 58.1781 167.481 64.7784 167.128C69.9463 166.892 69.8871 166.845 70.6299 168.913ZM160.122 196.518C162.508 198.445 164.796 200.352 165.19 200.775C165.584 201.198 167.214 202.628 168.838 203.919C170.455 205.244 171.836 206.383 171.881 206.495C172.071 206.739 168.154 209.25 167.725 209.162C167.231 209.06 158.754 202.666 157.821 201.688C157.427 201.265 156.356 200.292 155.482 199.531C152.498 197.002 151.979 196.519 152.026 196.289C152.08 196.027 155.492 192.967 155.657 193.001C155.723 193.014 157.735 194.591 160.122 196.518ZM152.065 197.768C152.453 198.224 153.72 199.579 154.883 200.776C156.045 201.972 157.47 203.565 158.014 204.258C158.592 204.958 160.379 206.625 162.055 207.996L165.06 210.427L163.181 211.545L161.309 212.63L159.797 211.293C158.989 210.546 156.983 208.936 155.359 207.645C152.124 205.167 147.998 201.172 147.646 200.211C147.503 199.737 147.835 199.292 149.226 198.21C150.206 197.454 151.086 196.849 151.185 196.869C151.284 196.889 151.678 197.312 152.065 197.768ZM148.027 202.204C149.456 204.276 152.121 207.184 155.874 210.658C157.312 212.014 158.501 213.25 158.474 213.381C158.413 213.676 154.631 215.361 154.203 215.273C154.071 215.246 153.322 214.544 152.527 213.731C151.732 212.918 150.884 212.196 150.654 212.149C149.335 211.878 142.99 205.477 142.548 203.95C142.34 203.292 142.566 203.03 144.267 201.773C145.32 200.998 146.339 200.386 146.511 200.387C146.682 200.389 147.371 201.214 148.027 202.204ZM143.604 206.835C144.777 208.649 146.818 211.086 148.539 212.74C150.142 214.301 151.462 215.735 151.422 215.932C151.314 216.457 145.885 217.461 145.491 217.038C145.327 216.833 144.276 215.762 143.166 214.644C140.86 212.323 136.76 207.034 136.868 206.509C136.949 206.116 140.887 203.677 141.322 203.732C141.454 203.759 142.47 205.165 143.604 206.835ZM136.896 209.046C137.426 210.146 139.005 212.489 140.423 214.285C141.84 216.081 143.027 217.659 143.073 217.771C143.111 218.087 138.943 218.974 138.152 218.811C137.031 218.581 133.302 214.326 131.371 211.021C130.605 209.735 130.514 209.34 130.898 209.146C133.524 207.737 135.302 206.94 135.599 207.001C135.797 207.041 136.4 207.952 136.896 209.046ZM131.247 212.125C131.821 213.508 132.98 215.559 133.799 216.753C134.659 217.922 135.34 218.951 135.32 219.05C135.246 219.41 132.671 219.736 131.616 219.519C130.858 219.363 130.082 218.793 129.156 217.782C127.292 215.654 125.012 212.039 125.271 211.614C125.437 211.306 129.569 209.591 130.038 209.653C130.143 209.64 130.666 210.774 131.247 212.125ZM124.826 213.608C125.153 214.359 125.983 216.001 126.73 217.214C127.451 218.389 128.02 219.463 128 219.562C127.946 219.824 125.51 219.973 124.587 219.783C123.598 219.58 119.384 214.678 119.546 213.89C119.607 213.595 123.388 212.081 123.889 212.15C124.094 212.158 124.54 212.831 124.826 213.608ZM119.612 215.408C119.919 216.087 120.474 217.227 120.874 217.959C121.28 218.658 121.448 219.343 121.256 219.44C121.097 219.544 120.233 219.572 119.323 219.487C117.812 219.313 117.661 219.214 116.362 217.51C115.641 216.507 115.117 215.544 115.224 215.361C115.397 215.02 118.133 214.078 118.7 214.161C118.905 214.169 119.331 214.769 119.612 215.408ZM114.963 217.462C115.217 218.232 115.412 218.956 115.392 219.055C115.378 219.12 114.191 219.047 112.779 218.894C111.335 218.733 109.93 218.547 109.66 218.526C108.545 218.433 109.433 217.624 111.568 216.764C112.805 216.266 113.981 215.892 114.146 215.926C114.343 215.966 114.683 216.652 114.963 217.462Z" fill="#0AC2D4"/>
<path d="M56.5657 60.7233C54.0647 62.1925 53.8091 63.2684 56.2501 61.9238C57.8775 61.0273 58.9775 60.0224 58.7415 59.6661C58.6629 59.5473 57.7039 60.034 56.5657 60.7233Z" fill="#0AC2D4"/>
<path d="M57.1176 62.718C56.2244 63.2183 52.4423 64.9027 51.4443 65.2446C51.2196 65.3352 51.1326 65.5909 51.224 65.8149C51.3281 66.1441 51.7439 66.127 52.6692 65.8043C54.295 65.2495 58.0195 63.1771 58.3649 62.6668C58.7636 62.0648 58.3148 62.0751 57.1176 62.718Z" fill="#0AC2D4"/>
<path d="M55.9391 66.4424C55.2108 66.9766 51.7531 68.4199 49.7377 69.0314C49.1166 69.2114 48.5674 69.5431 48.5269 69.7399C48.419 70.2649 49.6326 70.3777 50.8224 69.9384C52.3358 69.4289 56.907 66.915 57.239 66.4703C57.6309 65.9012 56.7071 65.8822 55.9391 66.4424Z" fill="#0AC2D4"/>
<path d="M52.1633 71.1032C50.2654 71.9782 48.2755 72.8001 47.76 72.9677C46.8812 73.2315 46.224 74.0881 46.8638 74.1513C47.332 74.2134 54.745 70.745 55.6456 70.0411C56.7516 69.1742 55.5423 69.5411 52.1633 71.1032Z" fill="#0AC2D4"/>
<path d="M53.6103 73.5898C49.5922 74.9179 41.2412 78.6038 41.1138 79.0563C40.8979 80.1063 42.7282 79.5594 48.4284 76.9015C51.8075 75.3394 54.8029 73.9719 55.1333 73.8689C55.457 73.7986 55.6825 73.5372 55.6571 73.3268C55.6384 73.0836 54.7933 73.1834 53.6103 73.5898Z" fill="#0AC2D4"/>
<path d="M51.8152 77.9743C50.579 78.4724 48.8865 79.1845 48.0533 79.5603C47.2135 79.969 45.1111 80.8361 43.3459 81.5674C41.5875 82.2659 39.9541 83.0243 39.6627 83.2722C39.1262 83.709 38.7252 84.8235 39.0878 84.8981C39.1867 84.9184 40.4034 84.3479 41.8187 83.6472C43.2341 82.9465 45.8856 81.7478 47.6905 80.9904C53.8057 78.4863 54.5265 78.1558 54.6075 77.762C54.7627 77.0074 54.03 77.0619 51.8152 77.9743Z" fill="#0AC2D4"/>
<path d="M51.2529 81.2099C50.5583 81.58 48.8388 82.4233 47.47 83.0651C44.276 84.5627 40.0562 86.7043 38.5607 87.6279C37.6938 88.1678 37.4615 88.462 37.6713 88.7787C38.0645 89.3725 39.6911 88.6469 44.9246 85.5853C47.1873 84.2723 49.9131 82.7126 51.0242 82.1546C52.1421 81.5638 53.0487 80.9979 53.0825 80.8338C53.2496 80.3552 52.4966 80.5081 51.2529 81.2099Z" fill="#0AC2D4"/>
<path d="M48.8007 86.4509C41.1246 91.1989 32.5379 97.3669 32.3423 98.3184C32.2883 98.5809 32.4845 98.9632 32.7871 99.1623C33.3332 99.514 34.048 99.0454 40.464 94.2435C42.0465 93.0642 45.5486 90.5698 48.2032 88.6877C52.6187 85.5946 54.103 84.2242 53.1801 84.0343C52.9823 83.9937 51.0043 85.0916 48.8007 86.4509Z" fill="#0AC2D4"/>
<path d="M51.4162 90.2718C51.0648 90.6441 48.814 92.2331 46.4313 93.7949C38.2112 99.1834 36.5493 100.415 36.8901 100.929C37.3357 101.602 38.5322 101.13 40.314 99.6501C41.109 98.9586 43.6918 96.9249 46.0558 95.1198C51.0287 91.3206 52.4463 90.1075 52.2299 89.8236C52.1512 89.7048 51.8006 89.9063 51.4162 90.2718Z" fill="#0AC2D4"/>
<path d="M47.8744 97.1354C43.916 99.8438 42.3785 101.306 43.3344 101.502C43.4992 101.536 44.2799 101.081 45.0285 100.449C45.777 99.8161 47.7236 98.3698 49.339 97.1973C50.9282 95.9852 52.2994 94.8309 52.3467 94.6012C52.4007 94.3387 52.4082 94.1351 52.3752 94.1283C52.3093 94.1147 50.3103 95.4819 47.8744 97.1354Z" fill="#0AC2D4"/>
<path d="M49.9567 99.2053C49.3003 99.891 48.3862 100.661 47.9561 100.914C47.063 101.414 46.695 102.536 47.3543 102.671C48.0794 102.82 49.3779 101.685 50.7193 99.8409C52.1738 97.7803 51.7071 97.3766 49.9567 99.2053Z" fill="#0AC2D4"/>
<path d="M121.994 93.5703C121.482 95.8931 120.696 99.0486 120.181 100.55C118.367 106.196 116.845 111.423 116.164 114.566L115.43 117.801L113.116 117.359C111.864 117.101 106.676 115.932 101.6 114.717C92.4907 112.57 89.2004 112.03 90.7862 113.006C91.181 113.258 94.5154 114.252 98.2394 115.188C101.924 116.151 107.071 117.518 109.674 118.224C116.107 120.026 118.058 120.393 118.364 119.909C118.709 119.398 118.481 118.839 117.744 118.413C117.231 118.068 117.265 117.734 118.966 110.799C120.99 102.631 122.455 95.1699 122.729 91.6695C122.917 89.4169 122.897 89.5153 121.994 93.5703Z" fill="#0AC2D4"/>
<path d="M116.711 97.3744C116.522 98.2931 115.573 101.073 114.611 103.577C113.649 106.081 112.554 109.07 112.179 110.224L111.503 112.342L106.808 111.445C101.758 110.441 98.8628 110.153 98.7219 110.671C98.608 111.058 112.542 114.471 112.946 114.178C113.502 113.814 117.527 96.4137 117.186 95.899C117.108 95.7803 116.9 96.4557 116.711 97.3744Z" fill="#0AC2D4"/>
<path d="M29.4888 110.522C29.0764 112.694 28.983 115.821 29.1935 120.31C29.3921 124.523 30.8171 137.641 31.0553 137.485C31.1745 137.407 31.1921 134.982 31.0997 132.09C30.9315 125.558 30.9423 118.823 31.157 116.61C31.2141 115.664 31.2937 114.108 31.3179 113.155C31.3158 112.163 31.4321 111.264 31.5647 111.12C31.6973 110.976 32.5544 111.152 33.49 111.447C35.8948 112.284 47.0019 113.406 47.7564 112.911C48.2726 112.573 43.3949 111.398 37.6384 110.488C34.1833 109.914 31.3088 109.357 31.2436 109.173C31.2047 109.028 30.8623 108.855 30.4998 108.78C29.9394 108.665 29.8262 108.881 29.4888 110.522Z" fill="#0AC2D4"/>
<path d="M189.267 147.35C189.022 147.71 188.428 149.093 187.954 150.397C186.337 154.75 181.69 165.319 180.719 166.864C180.207 167.682 179.715 168.572 179.668 168.802C179.539 169.425 175.267 176.002 173.381 178.487C172.452 179.663 170.277 182.055 168.54 183.818C164.258 188.101 163.74 188.781 164.113 189.473C164.61 190.396 165.297 190.23 166.253 188.922C166.771 188.242 168.223 186.694 169.528 185.526C171.94 183.32 177.913 175.999 178.673 174.308C178.919 173.778 179.777 172.278 180.602 170.943C183.859 165.629 185.6 161.507 188.538 152.399C189.107 150.635 189.756 148.648 189.997 147.979C190.478 146.642 189.985 146.198 189.267 147.35Z" fill="#0AC2D4"/>
<path d="M189.636 160.592C189.371 160.88 188.413 162.53 187.521 164.193C186.623 165.889 185.033 168.606 184.003 170.275C182.973 171.944 181.457 174.47 180.612 175.904C178.411 179.589 172 187.539 169.271 189.953C166.786 192.177 166.459 192.931 167.777 193.373C168.482 193.621 168.972 193.243 171.849 190.449C174.851 187.544 177.167 184.634 180.721 179.381C181.95 177.581 183.355 174.929 185.886 169.807C186.425 168.687 187.697 166.178 188.716 164.233C189.734 162.288 190.474 160.525 190.343 160.327C190.239 160.169 189.908 160.272 189.636 160.592Z" fill="#0AC2D4"/>
<path d="M121.485 144.49C118.606 153.644 116.556 161.943 116.444 164.827C116.406 165.845 116.55 166.148 117.11 166.264C117.802 166.406 117.809 166.373 120.425 154.155C123.27 140.822 123.574 137.84 121.485 144.49Z" fill="#0AC2D4"/>
<path d="M123.661 152.119C121.434 161.613 120.346 167.237 120.667 167.679C120.824 167.917 121.206 168.064 121.563 168C122.204 167.893 122.643 165.589 124.266 154.022C125.296 146.676 125.081 146.05 123.661 152.119Z" fill="#0AC2D4"/>
<path d="M124.942 180.972C125.021 181.091 126.258 181.756 127.726 182.468C133.883 185.444 138.192 188.212 141.543 191.466C143.067 192.908 144.22 193.316 144.679 192.589C145.13 191.896 144.475 190.906 142.365 189.138C139.677 186.841 135.827 184.511 132.928 183.402C129.938 182.239 124.732 180.656 124.942 180.972Z" fill="#0AC2D4"/>
<path d="M71.5708 182.546C71.6487 182.836 71.9423 183.58 72.1901 184.213C72.4777 184.819 73.234 186.821 73.8855 188.665C75.8594 194.269 78.2006 198.923 82.0474 204.776C85.3107 209.79 86.4327 211.183 86.6082 210.33C86.6352 210.199 84.9582 207.495 82.894 204.334C79.5453 199.234 76.2552 192.846 73.0755 185.421C72.2921 183.55 71.3762 181.822 71.5708 182.546Z" fill="#0AC2D4"/>
<path d="M71.1126 190.455C71.0181 190.914 72.0605 193.864 73.0281 195.842C75.179 200.251 81.0495 209.461 81.8076 209.617C82.5658 209.773 82.4775 208.865 81.6888 208.19C80.6565 207.362 73.0987 194.83 72.0218 192.215C71.565 191.095 71.1463 190.291 71.1126 190.455Z" fill="#0AC2D4"/>
<path d="M229.015 114.795C229.026 115.242 229.035 116.201 228.985 116.943C228.969 117.692 228.95 120.288 228.992 122.758C229.221 137.511 228.255 146.888 225.472 156.746C223.828 162.564 222.621 165.427 219.768 170.278C218.757 172.019 217.984 173.605 218.023 173.749C218.095 173.901 218.497 174.12 218.925 174.209C219.585 174.344 219.83 174.155 220.369 173.035C220.722 172.321 221.415 170.959 221.874 170.061C222.373 169.138 223.767 165.868 224.975 162.834C227.038 157.649 227.293 156.744 228.771 149.559C230.209 142.399 230.345 141.401 230.483 135.889C230.665 129.156 230.376 121.709 229.73 117.165C229.327 114.278 228.957 113.073 229.015 114.795Z" fill="#0AC2D4"/>
<path d="M138.382 226.211C136.935 226.563 134.564 227.067 133.171 227.328C130.853 227.74 129.255 227.822 122.24 228.021C112.558 228.321 95.9458 224.733 85.778 220.214C83.8879 219.381 81.675 218.447 80.878 218.146C80.0809 217.845 77.9144 216.853 76.0117 215.914C74.1419 214.982 72.2189 214.142 71.7574 214.048C71.2959 213.953 69.9857 213.307 68.7879 212.616C67.6298 211.899 66.5698 211.373 66.5233 211.432C65.7755 211.894 74.7513 217.365 81.2634 220.448C94.7618 226.815 109.184 230.192 122.923 230.213C129.066 230.246 132.195 229.898 138.537 228.466C141.813 227.738 142.335 227.537 142.477 226.848C142.727 225.634 141.428 225.435 138.382 226.211Z" fill="#0AC2D4"/>
<path d="M122.185 232.798C121.142 232.857 118.312 232.753 115.871 232.593C109.538 232.146 94.5403 229.061 89.3428 227.103C83.6644 224.978 82.689 224.709 85.1641 226.038C89.5284 228.372 94.9971 230.181 103.468 232.094C111.899 234.033 115.677 234.537 121.781 234.595C125.14 234.636 125.833 234.437 125.705 233.556C125.603 232.885 124.746 232.709 122.185 232.798Z" fill="#0AC2D4"/>
</svg>
