<svg width="561" height="459" viewBox="0 0 561 459" fill="none" xmlns="http://www.w3.org/2000/svg">
<path d="M150.881 92.1629L60.8096 116.875L56.8825 119.584C48.6728 125.399 44.7472 131.561 43.1796 141.141C41.601 150.949 43.4012 160.447 53.5107 194.43L60.9119 219.31L51.4907 221.847C40.7549 224.739 37.6642 226.548 34.8465 231.66C31.1594 238.358 30.3145 234.457 49.1896 297.906C58.5135 329.248 71.3436 371.581 77.6407 391.954C90.4322 433.096 90.2144 432.629 97.4147 438.271C103.918 443.425 110.556 444.79 121.444 443.208C125.366 442.602 195.925 423.896 316.084 391.604C525.926 335.155 507.792 340.49 514.839 332.887C522.367 324.779 523.791 314.187 519.47 299.663C518.519 296.466 517.56 292.446 517.262 290.649C516.77 287.404 516.843 287.384 520.561 285.032C527.547 280.673 532.066 274.651 532.864 268.582C533.715 261.897 530.08 244.11 522.063 215.569C519.314 205.8 518.88 204.341 511.666 175.583C509.024 165.11 504.987 149.684 502.705 141.216C496.642 118.979 486.998 82.318 484.635 72.5205C483.49 67.8748 480.546 57.1831 478.118 48.7546C473.962 34.7861 473.299 33.0881 470.515 29.0339C466.496 23.2108 462.969 20.1073 457.96 17.8535C451.118 14.7423 446.571 15.3667 406.563 24.8674C393.22 28.0111 380.733 30.8493 378.845 31.1326C373.567 31.9537 250.446 64.8932 150.881 92.1629ZM396.09 30.7659C434.044 21.5184 449.44 18.6473 454.295 20.1169C458.087 21.1972 463.164 25.5345 466.623 30.5328C469.583 34.9148 470.516 36.9905 473.68 47.0974C476.927 57.4823 485.23 88.574 484.937 89.1785C484.55 89.7332 73.7123 200.023 73.1501 199.724C72.4004 199.326 70.4034 193.408 67.0032 181.713L65.1329 175.161L151.31 152.474C198.665 140.093 239.792 129.315 242.608 128.707C245.498 128.078 261.773 123.92 278.884 119.386C309.473 111.371 310.057 111.214 312.524 108.898C315.586 106.197 317.564 103.036 321.014 95.2763C322.388 92.204 324.484 88.1115 325.635 86.1498C327.666 82.9005 328.116 82.5543 334.064 80.2763C339.522 78.2056 408.641 59.9627 425.061 56.2904C438.592 53.2463 470.559 44.5603 471.03 43.7578C471.344 43.2228 471.012 42.6367 470.117 42.2774C469.033 41.8185 464.131 42.8389 449.483 46.6344C438.925 49.3283 426.812 52.3657 422.494 53.2287C410.935 55.7417 333.427 76.5446 329.378 78.311C324.055 80.5706 322.15 83.1853 316.102 95.9991C313.932 100.637 311.587 104.421 310.029 105.817L307.542 108.063L228.408 128.703C184.924 140.041 130.067 154.518 106.477 160.872C66.3095 171.692 63.555 172.509 62.6649 174.024C61.8065 175.382 62.1772 177.158 64.8525 186.947C68.6744 200.855 69.8679 203.01 74.0487 203.01C75.6127 202.964 77.907 202.721 79.0025 202.426C81.0474 201.876 81.0681 201.945 78.3482 205.53C76.8835 207.501 74.5604 210.829 73.2831 212.9C71.2314 216.079 70.4061 216.752 67.7769 217.46L64.6365 218.306L62.0813 210.512C56.4843 193.554 47.0472 157.589 46.4901 151.208C45.398 137.991 48.7764 129.725 58.1256 122.703L61.7399 120.003L218.071 78.0426C304.05 54.9578 384.176 33.6748 396.09 30.7659ZM126.923 189.293C127.005 189.571 125.36 192.792 123.339 196.339C121.265 199.975 120.112 202.462 120.791 201.829C121.491 201.265 123.543 198.085 125.407 194.806C128.696 188.891 128.749 188.801 133.173 187.234C135.688 186.407 137.712 185.786 137.774 185.995C137.816 186.134 135.92 189.572 133.564 193.585L129.27 200.896L118.753 203.729L108.237 206.562L111.841 199.586L115.466 192.679L120.642 190.985C123.47 190.148 125.964 189.251 126.308 189.083C126.58 188.935 126.84 189.015 126.923 189.293ZM145.625 190.11L141.247 197.67L136.135 199.047L131.096 200.404L135.692 192.786L140.31 185.237L145.182 183.849L150.002 182.551L145.625 190.11ZM159.938 182.802C157.164 187.002 153.821 193.532 154.552 193.336C154.844 193.257 156.968 190.057 159.314 186.273L163.471 179.298L168.197 177.95L172.923 176.602L168.922 183.835L164.921 191.068L153.715 194.237L142.562 197.316L147.232 189.678L151.995 182.089L157.055 180.801L162.115 179.513L159.938 182.802ZM179.535 180C177.42 183.498 175.848 186.698 175.972 187.115C176.096 187.532 178.137 184.581 180.399 180.518L184.693 173.207L189.294 171.967C191.85 171.279 194.009 170.847 194.03 170.917C194.071 171.056 192.301 174.385 190.091 178.358L186.142 185.502L175.99 188.236L165.912 190.951L170.33 183.531L174.656 176.06L178.944 174.83L183.305 173.58L179.535 180ZM205.818 168.117C205.901 168.394 204.215 171.476 202.193 175.023C200.099 178.59 198.736 181.434 199.101 181.335C199.54 181.217 201.717 177.929 204.02 174.005L208.209 166.872L212.518 165.711L216.9 164.531L212.794 171.942L208.74 179.265L197.973 182.315L187.185 185.296L191.823 177.816L196.408 170.426L201.062 169.098C203.597 168.34 205.756 167.908 205.818 168.117ZM227.039 162.551C227.122 162.828 226.546 163.809 225.762 164.621C224.998 165.502 223.364 168.495 222.168 171.369L219.903 176.483L214.937 177.821L210.044 179.139L214.098 171.816L218.172 164.564L222.512 163.244C224.902 162.526 226.936 162.203 227.039 162.551ZM234.675 165.148C230.222 173.779 230.825 174.216 235.694 165.924L239.758 158.899L243.9 157.709C246.216 157.01 248.104 156.726 248.02 156.974C248.03 157.272 246.385 160.492 244.405 164.178L240.717 170.876L231.098 173.542C225.84 174.959 221.364 176.089 221.177 175.99C220.989 175.89 222.634 172.67 224.938 168.746L228.981 161.652L233.415 160.383L237.756 159.063L234.675 165.148ZM256.061 160.138C253.643 163.942 252.029 167.004 252.488 166.955C252.926 166.837 255.218 163.668 257.583 159.953L261.896 153.236L277.379 149.066C285.851 146.784 293.092 144.608 293.395 144.301C294.89 142.697 293.821 144.937 289.873 151.555L285.559 158.797L280.885 160.056L276.211 161.315L280.189 155.065C282.325 151.637 283.719 148.634 283.344 148.435C282.876 148.186 280.814 151.068 278.636 154.882L274.751 161.709L270.296 162.909L265.841 164.109L269.694 157.441C271.841 153.785 273.11 150.891 272.599 151.029C271.503 151.324 264.927 162.629 265.216 163.601C265.32 163.949 260.071 165.663 253.571 167.414L241.667 170.62L246.013 163.22L250.306 155.908L255.418 154.531L260.51 153.084L256.061 160.138ZM487.131 95.4934C487.854 97.9257 487.582 98.5997 482.59 105.949C477.033 114.052 470.781 124.593 472.464 123.089C473.446 122.149 479.368 113.948 481.169 110.986C481.745 110.005 483.598 106.954 485.315 104.239L488.341 99.2959L488.73 102.194C488.965 103.782 490.327 109.42 491.805 114.652L494.345 124.251L487.333 134.622C483.429 140.328 480.299 145.449 480.245 146.064C480.179 147.433 490.684 132.894 492.791 128.573L494.457 125.422L496.11 130.982L497.785 136.611L495.097 140.037C491.739 144.395 482.303 160.673 484.844 157.812C485.911 156.624 489.124 151.78 492.066 147.084C495.007 142.388 497.551 138.475 497.843 138.397C498.062 138.338 498.797 140.542 499.405 143.381L500.601 148.463L494.749 157.696C491.598 162.748 488.372 168.346 487.659 170.19C486.536 173.044 486.714 172.846 489.571 168.398C491.288 165.684 494.596 160.364 496.889 156.669L500.962 149.942L502.533 155.224L504.084 160.436L497.394 171.095C493.699 176.97 490.526 182.478 490.335 183.43C489.83 185.443 501.959 167.614 503.396 164.224L504.404 161.776L506.264 168.03L508.198 174.265L500.409 186.797L492.672 199.24L489.12 185.709C485.537 172.338 482.481 160.475 478.415 144.155C476.341 135.857 476.32 135.787 478.099 133.281C485.947 122.009 488.208 118.473 489.446 115.738C492.141 109.682 490.101 112.108 483.15 123.213L476.219 134.388L474.043 129.194C471.443 122.839 466.318 117.013 461.88 115.356L458.86 114.218L462.926 106.142L466.992 98.0657L472.302 96.5602L477.613 95.0546L471.635 104.922C468.347 110.311 465.948 114.711 466.313 114.612C466.605 114.534 469.849 110.057 473.429 104.589C477.96 97.8134 480.596 94.4762 482.141 93.8349C485.461 92.2652 486.263 92.5746 487.131 95.4934ZM90.5293 200.072C90.4452 200.32 88.6127 203.441 86.3723 207.047L82.258 213.635L77.2298 214.764L72.1285 215.913L77.4747 208.693C82.7162 201.651 82.8939 201.453 86.733 200.569C88.8716 200.068 90.5403 199.844 90.5293 200.072ZM97.9348 202.956C92.7099 211.645 94.2436 211.232 99.8336 202.445L104.199 195.639L109.259 194.352C111.961 193.624 113.922 193.321 113.452 193.597C113.076 193.924 111.556 197.036 110.066 200.514L107.433 206.778L95.3101 210.044L83.1867 213.31L85.1116 210.764C86.1891 209.348 88.5853 206 90.3958 203.336C93.598 198.72 93.9948 198.463 97.8449 197.351L101.935 196.249L97.9348 202.956ZM300.411 148.792L296.222 155.925L291.694 157.145L287.093 158.384L291.229 151.34L295.366 144.296L299.946 142.987L304.526 141.678L300.411 148.792ZM311.761 146.11C308.106 152.649 307.29 153.619 305.329 153.922C304.119 154.098 301.814 154.569 300.26 154.913L297.464 155.591L301.871 148.398L306.3 141.275L311.099 139.908L315.919 138.609L311.761 146.11ZM324.521 142.598L320.144 150.157L316.336 150.882C314.25 151.294 311.799 151.804 310.975 151.951C309.733 152.286 310.331 150.849 313.703 145.211L317.964 138.058L323.442 136.583L328.919 135.108L324.521 142.598ZM339.264 134.348C338.645 135.715 337.084 138.688 335.837 141.126C334.569 143.494 335.49 142.345 337.835 138.561L342.086 131.636L353.406 128.587L364.705 125.468L361.321 131.859C359.425 135.297 358.083 138.211 358.291 138.38C358.552 138.46 360.592 135.508 362.791 131.763L366.896 124.878L372.154 123.461L377.486 122.025L373.34 128.772C367.969 137.5 369.576 137.067 375.166 128.28L379.531 121.475L384.497 120.137L389.536 118.779L387.276 121.79C386.042 123.474 384.011 126.723 382.722 129.022L380.408 133.173L351.069 141.151L321.783 149.04L326.191 141.847L330.672 134.635L335.565 133.317L340.458 131.999L339.264 134.348ZM399.223 118.197C396.765 121.336 392.764 128.569 393.326 128.868C393.888 129.167 402.021 116.993 401.772 116.159C401.669 115.812 404.069 114.865 407.137 114.038L412.687 112.543L408.937 119.559L405.239 126.485L393.554 129.632L381.868 132.78L386.422 125.548L390.997 118.386L396.109 117.009L401.221 115.632L399.223 118.197ZM423.524 111.051C422.562 112.06 420.312 115.369 418.698 118.431C415.494 124.098 415.243 124.316 409.025 125.69L406.136 126.318L410.272 119.274L414.408 112.23L419.865 110.685L425.322 109.14L423.524 111.051ZM436.787 106.577C436.89 106.925 435.906 108.391 434.63 109.935C431.869 113.382 428.204 119.623 429.153 119.368C430.03 119.131 437.491 108.414 437.901 106.877C438.112 105.995 440.095 105.236 446.814 103.426L455.453 101.174L451.694 107.366C449.704 110.754 448.289 113.688 448.664 113.887C449.039 114.086 451.225 111.095 453.477 107.261L457.582 100.375L461.66 99.5018L465.739 98.6283L461.57 106.357L457.327 114.105L453.25 114.453C450.935 114.626 446.304 115.498 442.892 116.493C435.609 118.529 434.952 118.706 426.825 120.82C423.392 121.745 420.126 122.7 419.563 122.927C417.308 123.834 418.106 121.743 422.282 115.363L426.71 108.766L431.676 107.429C434.378 106.701 436.704 106.299 436.787 106.577ZM62.9186 225.525C63.7165 227.412 71.1714 251.676 79.514 279.454C100.024 347.867 109.58 377.87 112.641 383.652C116.751 391.102 122.537 395.173 130.542 396.094C137.067 396.814 142.951 395.379 257.548 364.811L371.509 334.489L377.198 340.088L382.907 345.756L386.047 344.91C392.693 343.12 401.322 332.614 399.141 328.997L398.186 327.378L436.382 317.09C457.416 311.424 483.769 304.55 494.88 301.858L515.161 296.845L516.543 302.553C520.197 316.957 517.68 326.792 508.569 334.351L505.017 337.259L317.021 388.124C192.688 421.765 126.824 439.282 122.589 439.897C113.995 441.236 109.137 440.818 103.806 438.276C99.1302 436.082 95.8642 433.059 93.1245 428.092C89.2216 421.337 35.9373 245.403 36.0348 239.897C36.1517 234.987 39.3235 230.004 43.9066 227.643C45.0654 227.031 49.5838 225.514 53.799 224.303L61.5197 222.148L62.9186 225.525ZM444.04 120.087C454.963 117.294 455.568 117.207 458.86 118.196C460.87 118.856 463.577 120.529 465.553 122.399L468.86 125.561L473.779 142.627C478.627 159.186 492.538 210.986 506.817 265.614L513.817 292.328L510.999 293.462C509.381 294.123 482.766 301.443 451.727 309.803L395.399 324.901L386.809 316.181C382.067 311.378 378.116 307.113 377.972 306.626C377.847 306.209 380.377 303.576 383.585 300.835C389.405 295.74 391.978 292.72 391.544 291.26C391.172 290.009 384.851 287.058 378.454 285.178L372.651 283.438L374.77 282.342C375.95 281.799 377.86 281.06 379.028 280.745C380.781 280.273 381.273 279.54 381.938 276.208C382.382 273.986 383.157 264.395 383.567 254.901C384.051 245.388 384.426 237.105 384.48 236.49C384.534 235.875 385.822 237.555 387.4 240.207L390.245 244.996L388.065 249.336C386.87 251.685 386.072 253.776 386.26 253.876C386.728 254.125 390.29 247.536 390.136 246.752C390.053 246.474 390.283 246.186 390.575 246.108C390.94 246.009 392.208 247.619 393.36 249.636C396.07 254.236 395.488 253.342 398.448 257.724L400.962 261.4L397.777 267.663C393.019 277.126 393.016 278.178 397.677 269.716C400.882 264.049 401.96 262.633 402.291 263.745C402.518 264.509 403.629 266.387 404.709 267.897L406.694 270.59L404.818 274.098C400.628 281.757 400.186 283.453 403.736 277.617C407.253 271.941 407.609 271.545 409.714 271.728C410.913 271.781 412.769 271.656 413.865 271.361C415.691 270.869 415.627 271.187 412.402 276.784C406.693 287.029 406.533 288.349 412.072 279.125L417.423 270.328L421.209 269.533L424.996 268.738L421.371 275.644C419.432 279.469 418.373 282.007 419.125 281.354C419.857 280.631 421.867 277.312 423.565 274.003C425.314 270.604 427.23 267.761 427.887 267.584C430.297 266.935 431.255 263.524 431.896 253.218C432.567 243.804 433.162 235.462 434.898 216.904C436.132 203.285 437.267 187.742 437.101 187.186C436.564 185.379 433.874 185.353 427.801 187.214C420.195 189.488 416.135 190.957 415.821 191.492C415.716 191.67 415.111 200.24 414.521 210.458C413.146 234.473 412.489 242.607 411.948 242.377C411.552 242.109 407.45 236.008 401.334 226.32C398.27 221.591 391.706 211.724 387.073 205.166C385.546 202.95 383.903 201.14 383.351 201.139C382.871 201.118 379.356 201.765 375.663 202.609C368.569 204.22 366.074 205.643 366.756 207.936C367.045 208.909 365.401 244.482 364.716 251.197C364.214 256.136 365.877 258.015 347.596 231.037C337.906 216.758 336.056 214.254 335.16 213.895C333.463 213.226 318.472 216.663 317.739 217.912C316.796 219.517 317.626 221.245 326.121 234.42C330.544 241.335 334.293 247.306 334.438 247.793C334.562 248.21 333.678 251.075 332.545 254.158C329.292 262.315 327.484 267.906 328.143 267.204C328.498 266.808 330.167 262.605 331.962 257.768L335.175 248.945L337.75 252.83L340.305 256.646L337.652 262.841C336.121 266.18 334.652 269.729 334.202 270.601C333.772 271.542 333.75 271.998 334.105 271.602C334.659 271.078 339.586 260.593 340.448 258.184C340.7 257.441 341.542 258.415 343.587 261.842L345.726 265.32L343.838 269.581L342.023 273.823L344.149 270.098C345.438 267.799 346.504 266.611 346.889 267.108C349.029 270.06 350.761 273.496 350.53 274.309C350.362 274.805 350.476 274.924 350.779 274.617C351.155 274.291 352.019 274.809 352.809 275.872C353.578 276.866 354.066 277.711 353.847 277.77C353.555 277.848 349.877 276.887 345.564 275.647C332.718 271.976 328.716 271.253 326.378 272.408C324.781 273.138 324.309 273.941 324.21 275.994C324.186 277.502 327.383 290.903 331.689 307.233C338.731 334.086 339.362 335.942 340.903 336.878C343.682 338.532 345.217 337.593 356.734 326.984C359.022 324.866 361.029 323.125 361.216 323.225C362.309 323.981 367.186 328.973 367.996 330.106L368.889 331.517L254.333 362.224C146.987 390.914 139.444 392.871 135.002 392.791C125.275 392.709 118.468 388.388 114.226 379.697C112.587 376.31 104.883 351.738 88.6304 298.166L65.4208 221.473L249.013 172.245C349.964 145.127 437.718 121.639 444.04 120.087ZM339.261 225.026C342.408 229.507 348.962 239.076 353.782 246.26C358.601 253.444 363.005 259.764 363.557 260.291C365.387 262.201 367.277 260.866 367.641 257.315C368.291 251.81 370.061 220.107 369.995 213.519L370.052 207.348L376.041 205.735L381.956 204.142L383.993 206.746C385.147 208.237 390.662 216.434 396.301 225.049C412.69 249.909 411.515 248.349 413.33 248.085C414.561 247.979 415.032 247.176 415.498 244.499C416.101 240.958 418.126 211.438 418.531 200.07L418.777 193.473L425.934 191.545C430.535 190.306 433.174 189.895 433.319 190.382C433.443 190.799 433.159 195.679 432.676 201.214C429.86 234.175 428.408 251.305 428.092 256.87C427.947 260.362 427.334 263.604 426.833 264.04C426.331 264.475 422.262 265.646 417.912 266.668C410.526 268.357 409.827 268.395 408.85 267.232C407.967 266.119 401.31 255.677 386.452 231.981C385.247 230.053 384.664 229.685 383.131 230.098C381.013 230.668 381.152 229.28 380.239 251.669C379.871 261.302 379.251 271.152 378.849 273.512L378.233 277.806L373.193 279.69C368.569 281.385 367.818 281.512 364.495 280.681C362.452 280.18 360.255 279.421 359.651 278.983C358.485 278.247 354.071 271.629 341.153 251.539C337.757 246.223 333.727 240.102 332.253 237.797C327.735 230.832 321.827 221.314 321.579 220.48C321.414 219.924 323.251 219.204 327.455 218.222L333.506 216.817L339.261 225.026ZM509.196 191.411C506.12 195.918 496.413 212.344 498.285 209.888C502.083 204.887 508.76 194.982 510.216 192.187L511.955 189.017L513.378 195.389C514.14 199.012 514.444 202.158 514.078 202.782C513.764 203.317 510.405 208.2 506.731 213.618C500.505 222.652 498.881 225.416 500.972 223.427C502.362 222.001 506.788 215.93 511.078 209.67L515.275 203.36L516.599 207.808L517.942 212.325L510.853 224.293C506.906 230.911 503.367 236.518 503.044 236.755C502.501 237.052 501.725 234.709 500.404 229.209C499.321 224.772 497.267 216.543 495.864 210.766L493.263 200.432L498.979 191.536C502.119 186.712 505.427 181.392 506.203 179.757L507.764 176.784L509.658 182.354L511.551 187.924L509.196 191.411ZM519.645 219.373C520.241 222.44 521.159 226.321 521.749 228.039C522.339 229.756 523.764 235.077 524.857 239.812L526.91 248.567L523.089 254.551C518.116 262.496 512.806 271.958 513.033 272.722C513.116 273 516.37 268.295 520.171 262.242C524.023 256.1 527.382 251.217 527.591 251.386C528.528 251.885 528.932 260.933 528.146 262.271C527.602 263.093 525.309 266.788 522.944 270.503C517.217 279.627 515.257 283.908 519.4 278.213C521.074 275.886 523.994 271.647 525.795 268.684C529.615 262.701 530.865 263.19 528.795 269.753C527.144 275.077 522.919 279.968 517.417 282.951L515.444 284.008L509.257 261.354L502.997 238.72L505.885 234.639C507.486 232.331 510.899 226.833 513.423 222.325C516.041 217.866 518.24 214.121 518.366 214.012C518.512 213.973 519.068 216.375 519.645 219.373ZM348.597 280.009C378.967 288.493 387.384 291.33 386.9 292.886C386.732 293.382 383.858 296.183 380.472 299.122C377.014 302.08 374.097 305.268 373.886 306.15C373.528 307.598 374.681 309.089 381.139 315.681C385.277 320.046 390.414 325.118 392.432 327.127L396.176 330.697L395.201 332.986C394.173 335.365 389.741 339.561 386.557 341.32C385.179 341.991 384.407 342.049 383.627 341.283C382.827 340.448 382.955 339.288 384.162 336.185C385.012 334.005 385.538 332.061 385.257 331.912C385.049 331.743 384.273 333.378 383.695 335.41C383.043 337.462 382.288 339.167 382.069 339.226C381.85 339.285 380.674 338.251 379.51 336.988C377.483 334.682 377.441 334.543 378.25 332.223C379.405 329.21 380.027 326.265 379.589 326.383C379.37 326.442 378.761 328.107 378.182 330.139C377.677 332.152 377.068 333.817 376.922 333.857C376.776 333.896 375.351 332.553 373.822 330.863L370.963 327.88L371.773 325.035C372.184 323.498 372.323 322.11 372.115 321.94C371.854 321.86 371.497 322.782 371.337 324.101C371.04 326.283 369.994 327.541 369.581 326.151C369.477 325.804 367.73 324.172 365.743 322.531C363.683 320.909 362.061 319.169 362.135 318.624C362.189 318.009 359.546 319.997 356.233 322.916C352.921 325.835 350.089 328.249 349.975 328.129C349.787 328.03 350.921 324.947 352.369 321.329C353.87 317.622 355.015 314.311 354.911 313.964C354.787 313.547 354.568 313.606 354.254 314.141C353.301 315.974 349.093 326.49 348.808 327.918C348.491 329.505 344.936 333.465 343.548 333.839C343.11 333.957 342.476 333.152 342.125 331.97C341.69 330.511 342.312 328.092 344.513 323.295C348.152 315.109 350.504 308.695 349.701 308.912C349.409 308.99 347.416 313.43 345.286 318.733C343.229 324.016 341.321 328.208 341.134 328.109C340.571 327.81 327.48 277.44 327.64 276.121C327.779 274.733 334.042 275.898 348.597 280.009Z" fill="url(#paint0_linear_614_156)"/>
<path d="M113.579 119.249C109.016 121.679 105.222 129.607 106.524 133.986C106.938 135.375 106.619 137.488 105.56 140.025C103.461 145.169 103.7 145.706 106.089 141.009L108.048 137.253L109.138 139.061C109.938 140.422 109.997 141.682 109.241 143.913C106.688 151.506 106.645 151.893 107.796 150.457C108.36 149.705 109.336 147.415 110.081 145.413C111.247 142.171 111.55 141.865 112.768 142.512C114.08 143.21 114.09 143.507 113.386 145.649C111.884 149.882 112.049 150.437 113.852 146.949C115.067 144.67 116.029 143.661 116.988 143.703C118.207 143.825 118.249 143.964 117.452 145.529C116.949 146.49 116.739 147.373 117.02 147.522C117.301 147.672 117.886 146.989 118.389 146.027C118.997 144.888 120.24 144.028 121.993 143.556C129.442 141.549 133.647 136.063 133.312 128.571C133.153 125.386 132.832 124.572 130.784 122.196C127.572 118.558 123.156 116.97 118.597 117.823C116.584 118.215 114.341 118.894 113.579 119.249ZM123.613 121.426C124.863 121.915 126.07 122.791 126.215 123.277C126.38 123.833 125.036 127.798 123.242 132.11C120.189 139.613 119.017 140.979 116.695 139.803C116.321 139.604 116.491 138.056 117.027 136.411C119.59 129.115 119.072 127.903 116.353 134.941L114.663 139.6L113.019 138.316C112.093 137.59 110.961 135.643 110.403 133.766C109.597 131.056 109.725 129.896 111.004 127.299C112.89 123.564 114.217 122.455 118.234 121.373C120.185 120.773 122.009 120.807 123.613 121.426ZM129.882 128.444C129.983 129.843 129.884 131.897 129.516 133.047C128.696 135.595 125.487 138.861 123.296 139.451L121.543 139.923L122.498 137.564C123.064 136.286 124.46 132.757 125.594 129.675C127.2 125.263 127.776 124.283 128.556 125.048C129.087 125.506 129.708 127.065 129.882 128.444Z" fill="url(#paint1_linear_614_156)"/>
<path d="M75.4285 132.078C71.5718 135.819 70.2601 139.1 70.8322 143.675C71.108 145.928 70.6727 148.972 69.4754 152.373C67.3647 158.271 68.1046 158.372 70.3298 152.593C71.1275 150.501 71.9556 148.777 72.1747 148.718C72.3938 148.659 73.5279 149.554 74.5573 150.628L76.5018 152.657L74.2904 157.156C71.4079 163.112 71.7511 163.469 75.2371 157.952C76.9126 155.098 78.533 153.386 79.3777 153.308C81.1084 153.292 81.1594 153.729 80.0476 156.356C78.7469 159.408 79.3285 160.302 80.7228 157.3C81.7397 155.149 82.4396 154.585 85.7054 153.631C87.8027 152.991 90.5586 151.648 91.8332 150.629C101.089 143.557 97.756 129.967 86.3751 128.304C81.6747 127.618 79.1076 128.535 75.4285 132.078ZM86.8452 132.005C88.3141 132.435 89.6991 133.113 89.8438 133.6C89.9885 134.086 88.9153 137.903 87.4865 142.116C85.5645 147.588 84.3493 149.867 83.2745 150.232C80.7183 150.92 80.4909 150.156 82.0547 146.132C84.3639 140.105 84.1778 139.48 81.6316 144.444C80.3323 146.971 79.0026 149.131 78.6375 149.229C78.1993 149.347 77.0651 148.452 76.0467 147.15C74.342 145.132 74.1973 144.645 74.4865 141.64C75.109 134.716 80.6772 130.364 86.8452 132.005ZM93.6446 139.482C93.7316 142.161 91.4264 146.61 88.909 148.489C86.2137 150.566 85.318 150.207 86.6697 147.591C87.225 146.541 88.5366 143.26 89.4928 140.375C91.1736 135.418 91.4038 135.131 92.4538 136.275C93.0671 137.01 93.6473 138.43 93.6446 139.482Z" fill="url(#paint2_linear_614_156)"/>
<path d="M146.084 112.37C140.995 116.744 139.55 123.288 142.541 128.037C144.13 130.462 144.013 131.394 140.944 140.703C140.556 141.783 140.575 142.378 140.931 141.982C141.485 141.458 142.419 139.029 145.045 131.416C145.056 131.188 145.816 131.359 146.66 131.807C148.065 132.554 148.043 133.011 146.511 136.876C145.629 139.216 145.229 141.05 145.667 140.932C146.032 140.834 146.933 139.09 147.658 137.018C149.075 133.033 149.326 132.815 151.316 133.405C152.337 133.655 152.388 134.092 151.362 135.945C150.629 137.193 150.355 138.393 150.636 138.543C150.99 138.672 151.691 137.583 152.289 136.146C153.087 134.054 153.714 133.51 155.236 133.325C158.323 133.094 162.812 130.684 164.612 128.247C169.958 121.027 166.905 112.091 158.258 109.541C153.779 108.271 149.793 109.194 146.084 112.37ZM157.885 112.795L159.958 113.663L158.18 119.621C157.202 122.962 156.119 126.481 155.783 127.473C155.236 129.347 152.553 130.67 151.378 129.635C151.055 129.347 151.342 127.393 152.046 125.252C153.821 120.345 153.05 119.877 151.203 124.803C150.405 126.895 149.504 128.639 149.139 128.737C147.97 129.052 145.308 126.466 144.729 124.52C144.212 122.783 145.934 117.965 148.194 114.955C149.533 113.093 155.458 111.797 157.885 112.795ZM162.204 115.91C164.989 119.438 163.671 125.348 159.65 128.008C158.188 128.927 156.862 129.509 156.602 129.429C156.394 129.26 156.668 128.06 157.36 126.673C157.999 125.375 158.945 122.192 159.473 119.723C160.57 114.924 160.936 114.3 162.204 115.91Z" fill="url(#paint3_linear_614_156)"/>
<path d="M348.467 135.322C346.687 138.353 345.304 141.128 345.407 141.475C345.614 142.17 351.402 133.255 352.357 130.896C353.669 127.615 351.536 129.991 348.467 135.322Z" fill="url(#paint4_linear_614_156)"/>
<path d="M442.312 110.568C438.228 117.523 438.579 118.705 442.767 112.097C446.096 106.847 447.511 103.913 446.634 104.149C446.269 104.248 444.281 107.11 442.312 110.568Z" fill="url(#paint5_linear_614_156)"/>
<path d="M54.3316 260.565C51.2204 266.282 48.7265 271.158 48.8299 271.505C48.9126 271.783 50.2422 269.624 51.7826 266.581C53.3437 263.609 56.025 258.833 57.8672 256.01C59.7095 253.187 60.9564 250.749 60.6546 250.53C60.3005 250.4 57.4634 254.918 54.3316 260.565Z" fill="url(#paint6_linear_614_156)"/>
<path d="M61.2174 266.743C54.7085 280.131 53.0937 283.718 53.4588 283.62C53.897 283.502 64.2941 262.236 64.7887 260.451C65.4197 258.329 64.4566 259.865 61.2174 266.743Z" fill="url(#paint7_linear_614_156)"/>
<path d="M63.4434 284.833C57.1936 298.827 54.9575 304.834 59.8212 294.667C63.354 287.184 70.1603 271.614 70.0363 271.197C69.8502 270.572 69.3473 271.533 63.4434 284.833Z" fill="url(#paint8_linear_614_156)"/>
<path d="M70.6942 294.89C68.6895 300.084 66.496 305.704 65.8457 307.231C65.2161 308.826 64.9736 309.868 65.3291 309.472C66.667 308.135 75.6819 285.14 74.8055 285.376C74.5864 285.435 72.7195 289.766 70.6942 294.89Z" fill="url(#paint9_linear_614_156)"/>
<path d="M78.5403 317.548C74.3765 327.152 69.2346 340.097 69.3793 340.583C69.5241 341.07 80.5782 315.648 81.1155 313.477C81.8002 310.74 80.7847 312.365 78.5403 317.548Z" fill="url(#paint10_linear_614_156)"/>
<path d="M81.53 339.262C80.0626 342.285 77.8402 347.012 76.5506 349.836C75.1879 352.68 73.8666 355.664 73.4684 356.446C73.0908 357.299 72.8911 357.953 73.1102 357.894C73.3293 357.835 75.7708 353.049 78.4548 347.222C81.2325 341.444 83.8008 336.023 84.1783 335.171C84.5765 334.388 84.7762 333.734 84.5571 333.793C84.338 333.852 82.945 336.329 81.53 339.262Z" fill="url(#paint11_linear_614_156)"/>
<path d="M83.2986 360.854C77.8135 373.441 75.4313 379.487 78.4391 373.423C85.2098 359.589 90.203 347.735 88.9187 348.456C88.7727 348.495 86.2458 354.055 83.2986 360.854Z" fill="url(#paint12_linear_614_156)"/>
<path d="M88.9712 376.741C85.9634 382.806 83.1333 388.672 82.7654 389.822C81.7886 392.638 82.6787 391.122 87.971 380.538C90.4125 375.752 93.0428 370.54 93.8598 369.044C94.7293 367.458 95.2542 366.041 94.9938 365.961C94.7857 365.792 92.052 370.657 88.9712 376.741Z" fill="url(#paint13_linear_614_156)"/>
<path d="M96.4824 387.404C95.3182 390.119 93.0958 394.846 91.576 397.958C88.757 403.597 86.2494 409.752 87.8615 407.216C90.992 402.094 99.9051 382.203 98.9557 382.459C98.8096 382.498 97.6674 384.757 96.4824 387.404Z" fill="url(#paint14_linear_614_156)"/>
<path d="M99.0832 409.672C95.6138 416.837 93.6105 421.505 94.5213 420.059C97.536 415.343 106.489 396.117 105.56 396.443C105.414 396.482 102.532 402.438 99.0832 409.672Z" fill="url(#paint15_linear_614_156)"/>
<path d="M107.005 418.272C103.109 425.327 99.8294 431.54 99.8074 431.996C99.7633 432.909 112.362 410.824 113.799 407.435C115.803 402.767 113.877 405.838 107.005 418.272Z" fill="url(#paint16_linear_614_156)"/>
<path d="M160.646 398.644C157.587 404.272 148.018 423.814 146.905 426.966C145.728 430.436 146.891 428.246 152.488 416.83C155.129 411.39 158.315 405.127 159.478 402.937C161.751 398.647 163.764 394.276 163.326 394.394C163.18 394.434 162.007 396.326 160.646 398.644Z" fill="url(#paint17_linear_614_156)"/>
<path d="M173.173 403.902C166.058 417.904 162.934 424.375 163.12 425C163.244 425.417 166.922 418.421 172.194 407.769C174.405 403.27 177.402 397.433 178.868 394.936C180.313 392.37 181.236 390.17 180.955 390.021C180.653 389.802 177.155 396.073 173.173 403.902Z" fill="url(#paint18_linear_614_156)"/>
<path d="M143.002 403.772C141.965 405.853 140.037 409.45 138.79 411.888C136.706 415.752 130.395 429.012 128.56 433.184C128.256 434.017 128.129 434.651 128.275 434.612C128.494 434.553 130.087 431.422 131.932 427.547C133.724 423.761 137.371 416.398 140.043 411.325C142.694 406.182 145.01 401.505 145.158 400.94C145.809 398.888 144.784 400.215 143.002 403.772Z" fill="url(#paint19_linear_614_156)"/>
<path d="M191.203 395.293C184.351 408.323 179.666 417.767 180.105 417.649C180.324 417.59 183.854 411.159 187.909 403.311C192.057 395.513 195.683 388.606 196.049 387.982C196.73 386.823 196.763 386.138 196.251 386.276C196.105 386.316 193.843 390.378 191.203 395.293Z" fill="url(#paint20_linear_614_156)"/>
<path d="M216.267 382.235C215.608 382.938 210.254 393.313 203.997 405.958C202.195 409.446 201.156 412.052 201.491 411.587C201.92 411.171 204.947 405.702 208.132 399.439C217.227 381.751 218.003 380.116 216.267 382.235Z" fill="url(#paint21_linear_614_156)"/>
<path d="M300.076 364.84C294.71 375.443 290.286 384.967 292.737 380.478C298.624 370.035 304.838 357.777 304.253 357.935C303.815 358.053 301.983 361.174 300.076 364.84Z" fill="url(#paint22_linear_614_156)"/>
<path d="M241.113 386.728C233.379 402.097 231.933 405.189 232.371 405.071C232.663 404.992 237.503 395.807 247.331 376.871C248.212 375.057 248.664 373.659 248.299 373.758C247.933 373.856 244.697 379.682 241.113 386.728Z" fill="url(#paint23_linear_614_156)"/>
<path d="M428.929 333.134C422.04 344.448 413.534 359.875 417.606 353.674C422.714 345.918 436.138 323.16 435.481 323.337C435.189 323.416 432.237 327.814 428.929 333.134Z" fill="url(#paint24_linear_614_156)"/>
<path d="M440.117 336.801C434.316 346.47 430.745 352.762 432.137 350.811C436.646 344.492 452.132 318.852 451.329 319.068C450.891 319.186 445.845 327.151 440.117 336.801Z" fill="url(#paint25_linear_614_156)"/>
<path d="M282.517 369.195C280.255 373.257 275.497 382.72 271.461 391.164L270.183 393.76L271.972 391.026C274.924 386.628 286.189 364.302 285.386 364.519C285.24 364.558 283.983 366.698 282.517 369.195Z" fill="url(#paint26_linear_614_156)"/>
<path d="M314.279 367.77C310.351 374.983 306.653 381.909 306.055 383.346C305.016 385.953 318.589 362.105 320.885 357.358C323.851 351.154 320.994 355.602 314.279 367.77Z" fill="url(#paint27_linear_614_156)"/>
<path d="M332.293 359.915C322.573 377.095 321.22 380.237 328.854 367.447C335.461 356.509 338.845 350.118 337.968 350.354C337.822 350.393 335.236 354.693 332.293 359.915Z" fill="url(#paint28_linear_614_156)"/>
<path d="M226.195 389.62C219.488 403.136 216.595 409.32 217.033 409.202C217.471 409.084 230.989 382.398 231.504 380.683C232.23 378.086 230.712 380.672 226.195 389.62Z" fill="url(#paint29_linear_614_156)"/>
<path d="M261.801 377.777C257.746 385.625 253.553 394.336 252.608 396.993L251.999 398.658L253.046 396.875C253.695 395.874 256.514 390.236 259.47 384.26C266.261 370.496 266.313 370.407 265.875 370.525C265.656 370.584 263.865 373.844 261.801 377.777Z" fill="url(#paint30_linear_614_156)"/>
<path d="M461.235 325.332C457.969 330.265 453.855 336.853 452.168 339.934C449.141 345.403 449.141 345.403 451.883 341.362C454.081 338.143 464.035 323.076 467.856 317.093C468.295 316.449 468.317 315.993 467.952 316.091C467.514 316.209 464.573 320.379 461.235 325.332Z" fill="url(#paint31_linear_614_156)"/>
<path d="M480.032 318.243C477.426 321.947 473.061 328.753 470.286 333.479C464.945 342.574 465.28 342.108 476.594 325.249C483.428 315.076 485.7 311.311 485.043 311.488C484.897 311.528 482.637 314.538 480.032 318.243Z" fill="url(#paint32_linear_614_156)"/>
<path d="M408.601 343.563C404.632 350.112 400.863 356.532 400.265 357.969C399.646 359.337 401.425 356.831 404.21 352.403C412.752 338.692 416.575 332.183 416.179 331.914C415.919 331.834 412.517 337.104 408.601 343.563Z" fill="url(#paint33_linear_614_156)"/>
<path d="M490.601 323.277C485.931 330.915 482.957 336.295 483.971 335.196C486.386 332.444 500.133 309.975 499.55 309.607C499.269 309.457 495.271 315.639 490.601 323.277Z" fill="url(#paint34_linear_614_156)"/>
<path d="M346.371 358.975C341.134 368.417 337.014 377.108 339.442 373.602C342.027 369.828 352.964 349.317 352.234 349.514C351.869 349.612 349.189 353.862 346.371 358.975Z" fill="url(#paint35_linear_614_156)"/>
<path d="M120.821 421.757C115.174 432.211 112.67 437.314 113.327 437.137C113.473 437.098 116.762 431.183 120.523 423.939C124.285 416.696 127.282 410.859 127.063 410.918C126.917 410.957 124.11 415.842 120.821 421.757Z" fill="url(#paint36_linear_614_156)"/>
<path d="M362.015 356.412C355.008 369.184 354.378 370.78 360.409 360.823C365.393 352.65 367.52 348.399 366.571 348.654C366.425 348.694 364.383 352.171 362.015 356.412Z" fill="url(#paint37_linear_614_156)"/>
<path d="M505.533 319.105C503.072 323.296 501.448 326.586 501.813 326.487C502.835 326.212 510.962 312.163 510.4 311.864C510.119 311.715 507.942 315.003 505.533 319.105Z" fill="url(#paint38_linear_614_156)"/>
<path d="M380.385 352.665C374.716 364.101 374.013 365.716 376.012 362.625C378.713 358.445 383.136 349.447 382.353 349.733C382.061 349.812 381.202 351.169 380.385 352.665Z" fill="url(#paint39_linear_614_156)"/>
<path d="M394.994 160.996C388.623 173.521 381.526 188.644 381.198 190.459C380.987 191.341 381.322 190.876 381.941 189.508C383.168 186.475 388.954 174.633 391.573 169.649C396.791 159.611 400.156 152.625 399.854 152.406C399.667 152.306 397.436 156.21 394.994 160.996Z" fill="url(#paint40_linear_614_156)"/>
<path d="M125.791 236.137C119.383 250.924 115.416 260.925 116.073 260.748C116.293 260.689 117.939 256.943 119.744 252.403C121.57 247.933 124.716 240.48 126.74 235.881C130.138 228.21 130.663 226.793 130.006 226.97C129.86 227.009 127.931 231.132 125.791 236.137Z" fill="url(#paint41_linear_614_156)"/>
<path d="M270.044 199.982C266.033 206.918 261.75 214.527 260.576 216.945C259.381 219.294 262.867 213.776 268.333 204.572C273.799 195.368 278.062 187.689 277.781 187.54C277.5 187.39 274.034 192.978 270.044 199.982Z" fill="url(#paint42_linear_614_156)"/>
<path d="M342.813 181.808C332.704 200.595 329.423 207.333 336.031 195.87C343.111 183.604 350.78 169.078 350.311 168.829C350.124 168.729 346.741 174.595 342.813 181.808Z" fill="url(#paint43_linear_614_156)"/>
<path d="M429.755 160.64C424.832 169.547 420.108 178.326 419.248 180.209C417.34 184.401 428.325 165.379 434.821 153.27C437.387 148.375 439.358 144.392 439.139 144.451C438.92 144.51 434.699 151.802 429.755 160.64Z" fill="url(#paint44_linear_614_156)"/>
<path d="M175.178 219.981C174.161 222.132 170.211 229.802 166.45 237.045C159.786 249.649 158.528 252.315 159.259 252.118C159.697 252 175.162 222.313 176.683 218.675C178.414 214.681 177.233 215.75 175.178 219.981Z" fill="url(#paint45_linear_614_156)"/>
<path d="M414.218 156.943C412.908 159.698 410.309 164.752 408.507 168.24C405.091 174.789 400.593 184.859 401.104 184.721C401.25 184.682 404.561 178.31 408.47 170.501C412.399 162.762 416.015 155.558 416.57 154.508C417.105 153.388 417.368 152.416 417.087 152.267C416.806 152.117 415.549 154.257 414.218 156.943Z" fill="url(#paint46_linear_614_156)"/>
<path d="M185.878 223.33C176.575 240.848 175.474 243.247 182.271 231.357C188.544 220.359 192.18 213.225 191.45 213.422C191.304 213.461 188.78 217.969 185.878 223.33Z" fill="url(#paint47_linear_614_156)"/>
<path d="M313.006 185.032C311.237 187.836 306.934 194.85 303.395 200.457C299.878 206.134 297.595 210.126 298.306 209.334C300.188 207.176 316.802 180.557 316.637 180.001C316.471 179.445 316.137 179.911 313.006 185.032Z" fill="url(#paint48_linear_614_156)"/>
<path d="M229.527 216.526C225.148 224.612 221.051 232.321 220.527 233.738C219.247 236.86 218.88 237.485 228.893 219.7C235.701 207.582 238.897 201.091 237.759 201.773C237.613 201.813 233.926 208.511 229.527 216.526Z" fill="url(#paint49_linear_614_156)"/>
<path d="M287.946 195.461C279.665 208.726 274.272 217.91 276.814 214.523C279.66 210.829 294.652 186.448 293.974 186.556C293.755 186.615 291.013 190.656 287.946 195.461Z" fill="url(#paint50_linear_614_156)"/>
<path d="M365.258 169.756C364.534 171.302 360.512 178.466 356.271 185.688C352.124 192.961 348.961 198.767 349.253 198.688C349.545 198.61 351.02 196.411 352.466 193.844C353.964 191.189 358.048 184.234 361.483 178.279C364.844 172.345 367.464 167.36 367.183 167.211C366.902 167.062 366.075 168.26 365.258 169.756Z" fill="url(#paint51_linear_614_156)"/>
<path d="M214.954 216.324C208.488 229.325 205.437 235.776 205.561 236.193C205.644 236.471 208.798 230.367 212.675 222.717C216.531 214.998 219.457 208.655 219.269 208.556C219.061 208.386 217.113 211.914 214.954 216.324Z" fill="url(#paint52_linear_614_156)"/>
<path d="M95.6573 249.133C91.9895 256.426 89.2421 262.571 87.4992 267.319L86.2812 270.65L87.7583 267.925C89.11 265.309 96.8988 248.799 98.661 244.646C100.549 240.384 98.6334 243.227 95.6573 249.133Z" fill="url(#paint53_linear_614_156)"/>
<path d="M450.805 161.125C448.917 165.387 446.777 170.392 445.991 172.256L444.554 175.645L446.167 172.583C449.007 167.014 454.963 153.625 454.609 153.495C454.422 153.395 452.692 156.864 450.805 161.125Z" fill="url(#paint54_linear_614_156)"/>
<path d="M108.539 255.046C105.195 262.102 102.226 269.357 103.681 267.089C104.906 265.107 112.36 249.063 112.236 248.646C112.029 247.951 111.663 248.575 108.539 255.046Z" fill="url(#paint55_linear_614_156)"/>
<path d="M151.281 244.659C147.423 252.904 145.828 257.087 147.294 254.591C148.885 251.985 155.533 237.208 155.179 237.079C154.992 236.979 153.242 240.378 151.281 244.659Z" fill="url(#paint56_linear_614_156)"/>
<path d="M101.816 274.347C94.7398 277.079 94.6957 277.991 101.861 289.347C112.213 305.85 116.2 312.358 117.123 314.136C118.026 315.844 117.699 317.133 114.23 324.298C112.092 328.777 110.413 332.682 110.517 333.03C110.599 333.308 112.568 329.85 114.853 325.331L118.971 317.166L121.433 320.932L123.8 324.648L119.784 333.686C117.571 338.711 115.829 342.933 115.871 343.072C116.098 343.837 116.811 342.519 120.511 334.541C122.923 329.388 124.734 326.197 125.119 326.694C125.43 327.211 126.552 328.861 127.507 330.48L129.241 333.391L124.522 344.045C122.005 349.902 119.551 355.442 119.1 356.314C118.67 357.256 118.628 357.643 119.056 357.227C119.485 356.811 122.031 351.847 124.777 346.228C127.429 340.559 129.891 335.843 130.184 335.764C130.622 335.646 133.915 340.088 134.329 341.478C134.453 341.895 133.276 345.365 131.63 349.111C126.71 360.945 127.43 360.451 133.092 348.192C135.398 343.217 135.911 342.553 137.715 342.518C142.626 342.321 142.564 342.112 138.913 351.053C134.989 360.667 136.452 359.222 141.055 348.974C143.907 342.651 144.295 342.097 147.259 340.923C149.93 339.828 151.609 339.901 150.209 341.029C149.687 341.395 144.601 352.673 143.677 355.399C142.479 358.799 147.141 350.338 149.344 345.015C151.211 340.684 152.383 338.792 153.552 338.477C154.428 338.241 155.504 337.351 155.955 336.479C156.751 334.913 158.662 301.295 158.062 299.28C157.297 296.709 159.305 298.42 162.005 302.722C164.57 306.835 164.818 307.669 164.272 309.017C163.118 312.03 163.082 313.766 164.256 311.348C165.325 309.109 165.523 308.98 166.386 310.024C169.857 314.268 169.867 314.566 167.35 320.423C164.119 328.124 163.803 329.185 166.286 324.538C167.449 322.348 168.686 319.613 169.013 318.324C169.433 317.085 169.915 316.054 170.208 315.975C170.427 315.916 171.507 317.427 172.524 319.255L174.35 322.741L171.951 327.14C169.553 331.54 165.63 340.628 165.186 342.85C164.987 343.504 165.531 342.682 166.233 341.066C167.009 339.431 169.325 334.754 171.296 330.77L175.036 323.457L177.32 327.421C179.677 331.365 179.697 331.434 178.46 334.17C173.027 346.667 172.828 347.322 174.881 343.616C176.032 341.654 177.782 338.256 178.851 336.016C180.749 332.052 180.895 332.013 184.358 331.455L187.987 330.928L185.572 337.659L183.157 344.389L185.483 340.01C186.73 337.572 188.03 334.519 188.315 333.091C188.873 330.989 189.407 330.395 191.974 329.479C193.831 328.828 194.916 328.761 194.748 329.257C194.632 329.663 193.864 332.122 193.024 334.6C192.184 337.079 191.384 339.696 191.258 340.331C190.782 342.711 193.971 335.396 195.085 331.718C195.664 329.686 196.879 327.407 197.83 326.625C199.878 325.023 199.973 324.547 200.181 308.277C200.283 301.193 200.833 285.807 201.447 274.082C202.04 262.287 202.41 252.129 202.245 251.573C201.459 248.932 199.301 248.838 190.757 251.14C181.043 253.756 180.793 253.974 181.139 261.237C181.346 265.91 181.505 285.008 181.365 294.879C181.33 300.594 181.84 300.982 173.282 288.124C160.06 268.341 156.684 263.621 155.445 262.904C154.508 262.405 151.994 262.707 147.185 263.777C139.267 265.535 139.215 265.624 139.961 271.578C140.563 276.52 140.965 290.599 140.839 303.169L140.706 314.389L135.72 307.175C129.924 298.828 126.746 293.979 120.194 283.358C115.45 275.629 112.726 272.309 110.903 271.749C109.768 271.379 108.255 271.862 101.816 274.347ZM111.746 276.701C112.515 277.695 114.934 281.322 117.167 284.849C121.715 292.181 135.102 312.521 138.842 317.668C141.969 322.081 144.065 321.966 144.191 317.353C144.403 307.989 144.156 286.211 143.799 279.177C143.246 267.24 142.868 268.093 148.835 266.936L153.905 265.946L159.234 273.518C162.132 277.691 168.073 286.525 172.508 293.212C176.922 299.83 181.108 305.683 181.858 306.081C184.69 307.646 185.052 304.621 184.852 280.879C184.777 273.468 184.612 264.955 184.442 261.999L184.268 256.641L191.425 254.713C195.442 253.631 198.697 252.904 198.738 253.043C198.8 253.252 198.541 260.603 198.206 269.551C197.405 289.133 197.124 296.94 196.913 310.283C196.572 325.313 197.159 324.104 189.052 326.287L182.187 328.136L176.591 319.135C158.794 290.601 156.155 287.033 155.447 290.752C155.32 291.386 154.783 301.514 154.263 313.289L153.374 334.697L150.503 335.92C148.906 336.651 145.348 337.684 142.532 338.293L137.431 339.442L134.699 335.298C133.225 332.993 127.514 323.873 122.125 315.04C116.716 306.138 109.583 294.624 106.281 289.358C102.906 284.112 100.238 279.651 100.363 279.542C100.573 279.185 107.139 276.066 108.871 275.524C109.946 275.159 110.862 275.588 111.746 276.701Z" fill="url(#paint57_linear_614_156)"/>
<path d="M207.582 248.034C207.161 249.799 211.308 258.966 217.359 269.496L221.283 276.321L217.751 283.277C211.726 295.109 211.652 295.655 217.013 286.629C219.861 281.883 222.238 277.94 222.384 277.901C222.53 277.862 226.101 284.031 226.307 284.726C226.349 284.865 226.076 285.539 225.709 286.163C224.662 287.946 221.84 294.636 220.486 298.304L219.341 301.615L221.405 297.681C222.568 295.491 224.277 291.954 225.2 289.753C226.123 287.553 227.024 285.809 227.211 285.909C227.399 286.008 228.645 288.075 230.014 290.558C231.457 293.022 233.502 296.449 234.593 298.257L236.649 301.457L233.464 307.194C230.385 312.752 224.035 325.347 222.063 329.856C220.605 333.177 228.701 318.76 233.155 310.13L237.052 302.549L238.724 305.251C239.638 306.732 240.78 308.451 241.133 309.106C241.673 309.862 240.466 312.964 236.936 319.395C234.265 324.468 232.231 328.769 232.512 328.918C232.773 328.998 235.118 325.214 237.705 320.388L242.451 311.679L244.26 313.519C245.31 314.662 246.768 315.32 247.759 315.203C249.281 315.018 249.323 315.157 247.773 317.902C241.729 328.612 241.414 329.673 246.292 322.204C251.472 314.428 251.65 314.23 254.926 313.573L258.274 312.896L254.67 319.872C251.6 325.728 251.452 326.294 253.503 323.64C254.883 321.917 256.894 318.598 258.015 316.269C259.294 313.673 260.832 311.682 262.137 311.03C266.939 308.611 267.743 303.89 268.155 273.454L268.254 267.422L271.077 272.141C273.787 276.741 273.849 276.949 272.895 278.782C271.187 282.32 270.818 283.996 272.473 281.073C273.394 279.399 274.294 278.18 274.481 278.28C274.669 278.38 276.963 282.115 279.611 286.506L284.386 294.603L281.652 299.468C278.971 304.244 276.412 309.962 275.99 312.253C275.863 312.888 276.543 311.728 277.56 309.578C281.187 302.146 284.465 296.459 285.079 296.668C285.433 296.798 286.161 297.653 286.69 298.636C287.24 299.689 287.998 300.911 288.476 301.458C288.975 302.074 288.197 304.761 286.361 308.934C284.82 312.502 283.79 315.406 284.062 315.258C284.427 315.159 285.977 312.415 287.581 309.055C290.379 303.348 290.609 303.06 293.677 302.234C296.16 301.565 296.806 301.616 296.481 302.38C295.506 304.669 291.108 316.137 290.792 317.198C289.971 320.272 292.014 316.268 295.13 308.974C298.056 302.105 298.862 300.837 300.615 300.365C303.171 299.677 303.17 300.203 300.901 306.894C298.642 313.357 298.514 314.518 300.369 310.94C301.218 309.286 302.509 305.935 303.151 303.586C303.95 300.968 304.924 299.205 305.727 298.988C307.334 298.555 307.408 298.01 309.263 274.015C310.051 263.67 310.977 251.935 311.363 247.928C313.171 225.898 313.054 222.852 310.317 220.812C309.11 219.936 308.046 220.072 301.441 222.001C296.715 223.35 293.699 224.612 293.332 225.237C293.039 225.841 292.789 229.511 292.769 233.42C292.807 247.071 292.719 248.897 292.316 259.739L291.881 270.741L279.918 252.27C273.344 242.105 267.392 233.5 266.715 233.082C265.893 232.703 262.827 233.003 258.727 233.807C252.562 235.093 251.925 235.339 250.878 237.123C250.302 238.103 250.006 239.76 250.316 240.802C251.515 244.833 250.196 287.599 248.975 284.025C248.665 282.982 231.389 254.608 227.941 249.381C225.947 246.39 223.65 243.706 222.848 243.397C221.973 243.107 218.948 243.547 214.639 244.707C208.796 246.281 207.815 246.696 207.582 248.034ZM222.275 247.305C223.73 249.014 231.538 261.473 241.536 277.846C245.72 284.751 249.501 290.564 250.063 290.863C250.625 291.162 251.47 291.084 251.919 290.738C253.11 289.967 254.861 249.186 254.037 241.376C253.804 238.737 253.929 238.628 256.851 237.841C258.457 237.408 261.148 236.908 262.671 236.723C265.205 236.491 265.747 236.721 267.066 238.767C267.917 240.039 272.705 247.382 277.763 255.102C282.82 262.823 287.887 270.841 289.06 272.927C291.52 277.218 293.29 278.393 294.368 276.451C295.154 275.114 296.048 255.581 296.114 238.299L296.215 227.237L300.67 226.037C303.153 225.369 305.793 224.432 306.681 223.968C308.832 222.713 309.233 224.857 308.664 235.144C308.129 244.746 304.763 288.589 304.189 293.022L303.838 295.819L297.349 297.342L290.933 298.845L281.735 283.307C268.116 260.328 267.69 259.692 266.302 260.066C265.499 260.282 265.13 261.958 265.015 265.817C264.446 288.565 263.477 304.664 262.639 306.091C261.749 307.607 260.57 308.149 254.289 309.841L246.986 311.809L245.969 309.981C245.366 309.017 239.096 298.546 231.859 286.683C220.606 267.946 212.064 252.757 211.134 249.63C210.948 249.004 212.253 248.353 215.977 247.349C220.651 246.09 221.204 246.092 222.275 247.305Z" fill="url(#paint58_linear_614_156)"/>
<path d="M460.122 186.614C457.345 191.866 453.532 199.199 451.666 203.004C448.522 209.406 448.49 209.564 451.118 205.404C453.829 200.995 462.766 184.101 464.749 179.363C466.752 174.695 464.983 177.498 460.122 186.614Z" fill="url(#paint59_linear_614_156)"/>
<path d="M458.195 214.606C446.578 236.277 445.288 239.101 454.504 222.882C465.878 202.779 468.666 197.299 467.497 197.614C467.351 197.653 463.161 205.312 458.195 214.606Z" fill="url(#paint60_linear_614_156)"/>
<path d="M111.836 311.206C111.144 312.594 109.54 315.953 108.324 318.758L106.059 323.872L109.505 317.689C112.532 312.22 114.053 308.583 113.323 308.779C113.176 308.819 112.548 309.889 111.836 311.206Z" fill="url(#paint61_linear_614_156)"/>
<path d="M462.52 231.532C459.496 235.95 442.077 267.289 444.264 264.298C445.059 263.258 446.932 260.276 448.41 257.552C449.98 254.877 454.567 246.96 458.557 239.956C462.641 233 465.846 227.333 465.627 227.392C465.408 227.451 464.069 229.313 462.52 231.532Z" fill="url(#paint62_linear_614_156)"/>
<path d="M227.979 299.889C224.763 305.784 221.597 312.642 222.181 312.485C222.838 312.308 231.902 294.779 231.433 294.53C231.173 294.45 229.592 296.827 227.979 299.889Z" fill="url(#paint63_linear_614_156)"/>
<path d="M276.716 289.764C274.336 295.284 274.231 295.462 274.596 295.364C275.18 295.207 279.081 286.575 278.685 286.306C278.425 286.226 277.535 287.742 276.716 289.764Z" fill="url(#paint64_linear_614_156)"/>
<path d="M393.653 257.514C389.976 264.51 389.597 265.888 392.727 260.766C394.58 257.715 395.911 255.029 395.651 254.949C395.37 254.8 394.449 255.948 393.653 257.514Z" fill="url(#paint65_linear_614_156)"/>
<path d="M469.649 253.107C462.137 267.366 461.098 269.973 467.215 259.242C472.441 250.028 475.239 244.32 474.436 244.536C474.29 244.576 472.132 248.46 469.649 253.107Z" fill="url(#paint66_linear_614_156)"/>
<path d="M514.514 235.542C511.416 240.505 508.399 245.746 507.728 247.203L506.575 249.69L508.427 247.165C514.725 238.638 521.532 227.046 520.428 226.517C520.334 226.468 517.593 230.509 514.514 235.542Z" fill="url(#paint67_linear_614_156)"/>
<path d="M517.624 247.315C508.46 263.445 508.478 264.566 517.763 249.905C520.495 245.566 524.437 237.073 523.634 237.289C523.488 237.328 520.818 241.876 517.624 247.315Z" fill="url(#paint68_linear_614_156)"/>
<path d="M336.445 290.864C335.91 291.984 335.06 294.164 334.576 295.721L333.62 298.606L334.972 295.99C336.617 292.769 338.181 288.745 337.743 288.863C337.596 288.902 337 289.814 336.445 290.864Z" fill="url(#paint69_linear_614_156)"/>
<path d="M340.152 299.623C338.294 304.778 336.925 309.725 337.9 307.961C338.423 307.07 342.129 296.989 342.551 295.224C342.719 294.728 342.668 294.292 342.449 294.351C342.23 294.41 341.202 296.788 340.152 299.623Z" fill="url(#paint70_linear_614_156)"/>
<path d="M342.19 310.709C339.062 318.758 339.01 318.847 341.755 313.754C344.133 309.285 346.611 302.237 345.735 302.473C345.589 302.513 344.015 306.239 342.19 310.709Z" fill="url(#paint71_linear_614_156)"/>
<defs>
<linearGradient id="paint0_linear_614_156" x1="47.402" y1="291.908" x2="509.553" y2="154.424" gradientUnits="userSpaceOnUse">
<stop stop-color="#0AC2D4"/>
<stop offset="1" stop-color="#0AD4BC"/>
</linearGradient>
<linearGradient id="paint1_linear_614_156" x1="102.095" y1="137.332" x2="133.633" y2="127.95" gradientUnits="userSpaceOnUse">
<stop stop-color="#0AC2D4"/>
<stop offset="1" stop-color="#0AD4BC"/>
</linearGradient>
<linearGradient id="paint2_linear_614_156" x1="65.6545" y1="148.137" x2="97.2451" y2="138.739" gradientUnits="userSpaceOnUse">
<stop stop-color="#0AC2D4"/>
<stop offset="1" stop-color="#0AD4BC"/>
</linearGradient>
<linearGradient id="paint3_linear_614_156" x1="136.614" y1="128.382" x2="167.317" y2="119.248" gradientUnits="userSpaceOnUse">
<stop stop-color="#0AC2D4"/>
<stop offset="1" stop-color="#0AD4BC"/>
</linearGradient>
<linearGradient id="paint4_linear_614_156" x1="344.019" y1="136.809" x2="354.037" y2="133.829" gradientUnits="userSpaceOnUse">
<stop stop-color="#0AC2D4"/>
<stop offset="1" stop-color="#0AD4BC"/>
</linearGradient>
<linearGradient id="paint5_linear_614_156" x1="438.025" y1="111.669" x2="448.182" y2="108.647" gradientUnits="userSpaceOnUse">
<stop stop-color="#0AC2D4"/>
<stop offset="1" stop-color="#0AD4BC"/>
</linearGradient>
<linearGradient id="paint6_linear_614_156" x1="46.3832" y1="263.281" x2="62.9968" y2="258.339" gradientUnits="userSpaceOnUse">
<stop stop-color="#0AC2D4"/>
<stop offset="1" stop-color="#0AD4BC"/>
</linearGradient>
<linearGradient id="paint7_linear_614_156" x1="50.5378" y1="273.925" x2="67.7085" y2="268.817" gradientUnits="userSpaceOnUse">
<stop stop-color="#0AC2D4"/>
<stop offset="1" stop-color="#0AD4BC"/>
</linearGradient>
<linearGradient id="paint8_linear_614_156" x1="53.7091" y1="288.057" x2="73.3167" y2="282.224" gradientUnits="userSpaceOnUse">
<stop stop-color="#0AC2D4"/>
<stop offset="1" stop-color="#0AD4BC"/>
</linearGradient>
<linearGradient id="paint9_linear_614_156" x1="62.2123" y1="299.567" x2="77.6975" y2="294.96" gradientUnits="userSpaceOnUse">
<stop stop-color="#0AC2D4"/>
<stop offset="1" stop-color="#0AD4BC"/>
</linearGradient>
<linearGradient id="paint10_linear_614_156" x1="65.9074" y1="328.912" x2="84.6246" y2="323.344" gradientUnits="userSpaceOnUse">
<stop stop-color="#0AC2D4"/>
<stop offset="1" stop-color="#0AD4BC"/>
</linearGradient>
<linearGradient id="paint11_linear_614_156" x1="70.1516" y1="348.182" x2="87.3823" y2="343.056" gradientUnits="userSpaceOnUse">
<stop stop-color="#0AC2D4"/>
<stop offset="1" stop-color="#0AD4BC"/>
</linearGradient>
<linearGradient id="paint12_linear_614_156" x1="73.8024" y1="364.607" x2="92.2613" y2="359.116" gradientUnits="userSpaceOnUse">
<stop stop-color="#0AC2D4"/>
<stop offset="1" stop-color="#0AD4BC"/>
</linearGradient>
<linearGradient id="paint13_linear_614_156" x1="79.4361" y1="381.009" x2="97.8748" y2="375.524" gradientUnits="userSpaceOnUse">
<stop stop-color="#0AC2D4"/>
<stop offset="1" stop-color="#0AD4BC"/>
</linearGradient>
<linearGradient id="paint14_linear_614_156" x1="84.3088" y1="397.519" x2="101.927" y2="392.278" gradientUnits="userSpaceOnUse">
<stop stop-color="#0AC2D4"/>
<stop offset="1" stop-color="#0AD4BC"/>
</linearGradient>
<linearGradient id="paint15_linear_614_156" x1="91.4363" y1="410.672" x2="108.348" y2="405.641" gradientUnits="userSpaceOnUse">
<stop stop-color="#0AC2D4"/>
<stop offset="1" stop-color="#0AD4BC"/>
</linearGradient>
<linearGradient id="paint16_linear_614_156" x1="96.6866" y1="421.519" x2="117.503" y2="415.326" gradientUnits="userSpaceOnUse">
<stop stop-color="#0AC2D4"/>
<stop offset="1" stop-color="#0AD4BC"/>
</linearGradient>
<linearGradient id="paint17_linear_614_156" x1="142.432" y1="414.797" x2="167.245" y2="407.416" gradientUnits="userSpaceOnUse">
<stop stop-color="#0AC2D4"/>
<stop offset="1" stop-color="#0AD4BC"/>
</linearGradient>
<linearGradient id="paint18_linear_614_156" x1="158.967" y1="411.037" x2="184.933" y2="403.312" gradientUnits="userSpaceOnUse">
<stop stop-color="#0AC2D4"/>
<stop offset="1" stop-color="#0AD4BC"/>
</linearGradient>
<linearGradient id="paint19_linear_614_156" x1="124.098" y1="420.708" x2="149.274" y2="413.218" gradientUnits="userSpaceOnUse">
<stop stop-color="#0AC2D4"/>
<stop offset="1" stop-color="#0AD4BC"/>
</linearGradient>
<linearGradient id="paint20_linear_614_156" x1="176.364" y1="405.145" x2="200.058" y2="398.096" gradientUnits="userSpaceOnUse">
<stop stop-color="#0AC2D4"/>
<stop offset="1" stop-color="#0AD4BC"/>
</linearGradient>
<linearGradient id="paint21_linear_614_156" x1="197.86" y1="399.631" x2="220.395" y2="392.927" gradientUnits="userSpaceOnUse">
<stop stop-color="#0AC2D4"/>
<stop offset="1" stop-color="#0AD4BC"/>
</linearGradient>
<linearGradient id="paint22_linear_614_156" x1="289.238" y1="372.177" x2="306.951" y2="366.908" gradientUnits="userSpaceOnUse">
<stop stop-color="#0AC2D4"/>
<stop offset="1" stop-color="#0AD4BC"/>
</linearGradient>
<linearGradient id="paint23_linear_614_156" x1="228.598" y1="392.576" x2="251.927" y2="385.636" gradientUnits="userSpaceOnUse">
<stop stop-color="#0AC2D4"/>
<stop offset="1" stop-color="#0AD4BC"/>
</linearGradient>
<linearGradient id="paint24_linear_614_156" x1="412.881" y1="342.756" x2="438.967" y2="334.996" gradientUnits="userSpaceOnUse">
<stop stop-color="#0AC2D4"/>
<stop offset="1" stop-color="#0AD4BC"/>
</linearGradient>
<linearGradient id="paint25_linear_614_156" x1="428.142" y1="338.739" x2="454.841" y2="330.796" gradientUnits="userSpaceOnUse">
<stop stop-color="#0AC2D4"/>
<stop offset="1" stop-color="#0AD4BC"/>
</linearGradient>
<linearGradient id="paint26_linear_614_156" x1="266.72" y1="382.12" x2="288.707" y2="375.579" gradientUnits="userSpaceOnUse">
<stop stop-color="#0AC2D4"/>
<stop offset="1" stop-color="#0AD4BC"/>
</linearGradient>
<linearGradient id="paint27_linear_614_156" x1="302.606" y1="372.132" x2="325.264" y2="365.391" gradientUnits="userSpaceOnUse">
<stop stop-color="#0AC2D4"/>
<stop offset="1" stop-color="#0AD4BC"/>
</linearGradient>
<linearGradient id="paint28_linear_614_156" x1="321.034" y1="365.488" x2="340.827" y2="359.6" gradientUnits="userSpaceOnUse">
<stop stop-color="#0AC2D4"/>
<stop offset="1" stop-color="#0AD4BC"/>
</linearGradient>
<linearGradient id="paint29_linear_614_156" x1="213.485" y1="397.384" x2="235.005" y2="390.982" gradientUnits="userSpaceOnUse">
<stop stop-color="#0AC2D4"/>
<stop offset="1" stop-color="#0AD4BC"/>
</linearGradient>
<linearGradient id="paint30_linear_614_156" x1="248.64" y1="387.365" x2="269.208" y2="381.246" gradientUnits="userSpaceOnUse">
<stop stop-color="#0AC2D4"/>
<stop offset="1" stop-color="#0AD4BC"/>
</linearGradient>
<linearGradient id="paint31_linear_614_156" x1="446.658" y1="333.463" x2="471.166" y2="326.172" gradientUnits="userSpaceOnUse">
<stop stop-color="#0AC2D4"/>
<stop offset="1" stop-color="#0AD4BC"/>
</linearGradient>
<linearGradient id="paint32_linear_614_156" x1="463.774" y1="328.723" x2="488.107" y2="321.485" gradientUnits="userSpaceOnUse">
<stop stop-color="#0AC2D4"/>
<stop offset="1" stop-color="#0AD4BC"/>
</linearGradient>
<linearGradient id="paint33_linear_614_156" x1="397.103" y1="348.108" x2="419.065" y2="341.574" gradientUnits="userSpaceOnUse">
<stop stop-color="#0AC2D4"/>
<stop offset="1" stop-color="#0AD4BC"/>
</linearGradient>
<linearGradient id="paint34_linear_614_156" x1="480.821" y1="325.393" x2="502.349" y2="318.988" gradientUnits="userSpaceOnUse">
<stop stop-color="#0AC2D4"/>
<stop offset="1" stop-color="#0AD4BC"/>
</linearGradient>
<linearGradient id="paint35_linear_614_156" x1="335.816" y1="364.564" x2="355.037" y2="358.846" gradientUnits="userSpaceOnUse">
<stop stop-color="#0AC2D4"/>
<stop offset="1" stop-color="#0AD4BC"/>
</linearGradient>
<linearGradient id="paint36_linear_614_156" x1="110.152" y1="426.733" x2="130.018" y2="420.823" gradientUnits="userSpaceOnUse">
<stop stop-color="#0AC2D4"/>
<stop offset="1" stop-color="#0AD4BC"/>
</linearGradient>
<linearGradient id="paint37_linear_614_156" x1="354.106" y1="359.946" x2="368.808" y2="355.572" gradientUnits="userSpaceOnUse">
<stop stop-color="#0AC2D4"/>
<stop offset="1" stop-color="#0AD4BC"/>
</linearGradient>
<linearGradient id="paint38_linear_614_156" x1="500.079" y1="320.793" x2="512.013" y2="317.243" gradientUnits="userSpaceOnUse">
<stop stop-color="#0AC2D4"/>
<stop offset="1" stop-color="#0AD4BC"/>
</linearGradient>
<linearGradient id="paint39_linear_614_156" x1="373.311" y1="358.315" x2="384.03" y2="355.126" gradientUnits="userSpaceOnUse">
<stop stop-color="#0AC2D4"/>
<stop offset="1" stop-color="#0AD4BC"/>
</linearGradient>
<linearGradient id="paint40_linear_614_156" x1="376.54" y1="175.418" x2="404.255" y2="167.174" gradientUnits="userSpaceOnUse">
<stop stop-color="#0AC2D4"/>
<stop offset="1" stop-color="#0AD4BC"/>
</linearGradient>
<linearGradient id="paint41_linear_614_156" x1="111.893" y1="246.862" x2="134.157" y2="240.238" gradientUnits="userSpaceOnUse">
<stop stop-color="#0AC2D4"/>
<stop offset="1" stop-color="#0AD4BC"/>
</linearGradient>
<linearGradient id="paint42_linear_614_156" x1="256.865" y1="205.795" x2="281.075" y2="198.593" gradientUnits="userSpaceOnUse">
<stop stop-color="#0AC2D4"/>
<stop offset="1" stop-color="#0AD4BC"/>
</linearGradient>
<linearGradient id="paint43_linear_614_156" x1="328.758" y1="188.581" x2="353.966" y2="181.082" gradientUnits="userSpaceOnUse">
<stop stop-color="#0AC2D4"/>
<stop offset="1" stop-color="#0AD4BC"/>
</linearGradient>
<linearGradient id="paint44_linear_614_156" x1="414.773" y1="166.483" x2="443.19" y2="158.029" gradientUnits="userSpaceOnUse">
<stop stop-color="#0AC2D4"/>
<stop offset="1" stop-color="#0AD4BC"/>
</linearGradient>
<linearGradient id="paint45_linear_614_156" x1="154.844" y1="237.789" x2="181.562" y2="229.841" gradientUnits="userSpaceOnUse">
<stop stop-color="#0AC2D4"/>
<stop offset="1" stop-color="#0AD4BC"/>
</linearGradient>
<linearGradient id="paint46_linear_614_156" x1="397.198" y1="171.689" x2="420.828" y2="164.659" gradientUnits="userSpaceOnUse">
<stop stop-color="#0AC2D4"/>
<stop offset="1" stop-color="#0AD4BC"/>
</linearGradient>
<linearGradient id="paint47_linear_614_156" x1="174.929" y1="228.697" x2="194.348" y2="222.92" gradientUnits="userSpaceOnUse">
<stop stop-color="#0AC2D4"/>
<stop offset="1" stop-color="#0AD4BC"/>
</linearGradient>
<linearGradient id="paint48_linear_614_156" x1="294.781" y1="198.009" x2="319.781" y2="190.571" gradientUnits="userSpaceOnUse">
<stop stop-color="#0AC2D4"/>
<stop offset="1" stop-color="#0AD4BC"/>
</linearGradient>
<linearGradient id="paint49_linear_614_156" x1="215.901" y1="222.082" x2="241.725" y2="214.4" gradientUnits="userSpaceOnUse">
<stop stop-color="#0AC2D4"/>
<stop offset="1" stop-color="#0AD4BC"/>
</linearGradient>
<linearGradient id="paint50_linear_614_156" x1="272.898" y1="204.176" x2="297.092" y2="196.979" gradientUnits="userSpaceOnUse">
<stop stop-color="#0AC2D4"/>
<stop offset="1" stop-color="#0AD4BC"/>
</linearGradient>
<linearGradient id="paint51_linear_614_156" x1="345.565" y1="186.342" x2="370.662" y2="178.875" gradientUnits="userSpaceOnUse">
<stop stop-color="#0AC2D4"/>
<stop offset="1" stop-color="#0AD4BC"/>
</linearGradient>
<linearGradient id="paint52_linear_614_156" x1="202.264" y1="225.109" x2="222.414" y2="219.115" gradientUnits="userSpaceOnUse">
<stop stop-color="#0AC2D4"/>
<stop offset="1" stop-color="#0AD4BC"/>
</linearGradient>
<linearGradient id="paint53_linear_614_156" x1="82.9048" y1="259.3" x2="102.624" y2="253.434" gradientUnits="userSpaceOnUse">
<stop stop-color="#0AC2D4"/>
<stop offset="1" stop-color="#0AD4BC"/>
</linearGradient>
<linearGradient id="paint54_linear_614_156" x1="441.876" y1="166.643" x2="457.174" y2="162.092" gradientUnits="userSpaceOnUse">
<stop stop-color="#0AC2D4"/>
<stop offset="1" stop-color="#0AD4BC"/>
</linearGradient>
<linearGradient id="paint55_linear_614_156" x1="101.01" y1="259.769" x2="114.364" y2="255.797" gradientUnits="userSpaceOnUse">
<stop stop-color="#0AC2D4"/>
<stop offset="1" stop-color="#0AD4BC"/>
</linearGradient>
<linearGradient id="paint56_linear_614_156" x1="144.567" y1="247.919" x2="157.285" y2="244.135" gradientUnits="userSpaceOnUse">
<stop stop-color="#0AC2D4"/>
<stop offset="1" stop-color="#0AD4BC"/>
</linearGradient>
<linearGradient id="paint57_linear_614_156" x1="106.441" y1="319.329" x2="212.973" y2="287.637" gradientUnits="userSpaceOnUse">
<stop stop-color="#0AC2D4"/>
<stop offset="1" stop-color="#0AD4BC"/>
</linearGradient>
<linearGradient id="paint58_linear_614_156" x1="210.716" y1="292.771" x2="322.807" y2="259.425" gradientUnits="userSpaceOnUse">
<stop stop-color="#0AC2D4"/>
<stop offset="1" stop-color="#0AD4BC"/>
</linearGradient>
<linearGradient id="paint59_linear_614_156" x1="445.55" y1="195.868" x2="469.043" y2="188.88" gradientUnits="userSpaceOnUse">
<stop stop-color="#0AC2D4"/>
<stop offset="1" stop-color="#0AD4BC"/>
</linearGradient>
<linearGradient id="paint60_linear_614_156" x1="444.226" y1="219.136" x2="471.672" y2="210.971" gradientUnits="userSpaceOnUse">
<stop stop-color="#0AC2D4"/>
<stop offset="1" stop-color="#0AD4BC"/>
</linearGradient>
<linearGradient id="paint61_linear_614_156" x1="104.25" y1="317.791" x2="115.176" y2="314.541" gradientUnits="userSpaceOnUse">
<stop stop-color="#0AC2D4"/>
<stop offset="1" stop-color="#0AD4BC"/>
</linearGradient>
<linearGradient id="paint62_linear_614_156" x1="439.767" y1="250.01" x2="469.714" y2="241.101" gradientUnits="userSpaceOnUse">
<stop stop-color="#0AC2D4"/>
<stop offset="1" stop-color="#0AD4BC"/>
</linearGradient>
<linearGradient id="paint63_linear_614_156" x1="220.002" y1="305.336" x2="233.465" y2="301.331" gradientUnits="userSpaceOnUse">
<stop stop-color="#0AC2D4"/>
<stop offset="1" stop-color="#0AD4BC"/>
</linearGradient>
<linearGradient id="paint64_linear_614_156" x1="273.365" y1="291.711" x2="279.74" y2="289.815" gradientUnits="userSpaceOnUse">
<stop stop-color="#0AC2D4"/>
<stop offset="1" stop-color="#0AD4BC"/>
</linearGradient>
<linearGradient id="paint65_linear_614_156" x1="389.579" y1="260.343" x2="396.648" y2="258.24" gradientUnits="userSpaceOnUse">
<stop stop-color="#0AC2D4"/>
<stop offset="1" stop-color="#0AD4BC"/>
</linearGradient>
<linearGradient id="paint66_linear_614_156" x1="460.726" y1="257.371" x2="476.926" y2="252.551" gradientUnits="userSpaceOnUse">
<stop stop-color="#0AC2D4"/>
<stop offset="1" stop-color="#0AD4BC"/>
</linearGradient>
<linearGradient id="paint67_linear_614_156" x1="503.898" y1="240.69" x2="523.014" y2="235.004" gradientUnits="userSpaceOnUse">
<stop stop-color="#0AC2D4"/>
<stop offset="1" stop-color="#0AD4BC"/>
</linearGradient>
<linearGradient id="paint68_linear_614_156" x1="508.107" y1="251.199" x2="526.246" y2="245.803" gradientUnits="userSpaceOnUse">
<stop stop-color="#0AC2D4"/>
<stop offset="1" stop-color="#0AD4BC"/>
</linearGradient>
<linearGradient id="paint69_linear_614_156" x1="332.431" y1="294.61" x2="338.93" y2="292.676" gradientUnits="userSpaceOnUse">
<stop stop-color="#0AC2D4"/>
<stop offset="1" stop-color="#0AD4BC"/>
</linearGradient>
<linearGradient id="paint70_linear_614_156" x1="335.854" y1="302.465" x2="344.257" y2="299.965" gradientUnits="userSpaceOnUse">
<stop stop-color="#0AC2D4"/>
<stop offset="1" stop-color="#0AD4BC"/>
</linearGradient>
<linearGradient id="paint71_linear_614_156" x1="337.961" y1="311.144" x2="347.588" y2="308.28" gradientUnits="userSpaceOnUse">
<stop stop-color="#0AC2D4"/>
<stop offset="1" stop-color="#0AD4BC"/>
</linearGradient>
</defs>
</svg>
