<svg width="100" height="100" viewBox="0 0 100 100" fill="none" xmlns="http://www.w3.org/2000/svg">
<path d="M51.4648 9.29686C45.3516 9.96092 38.8867 12.7344 34.5117 16.582L33.3789 17.5781H26.3867C19.6094 17.5781 19.375 17.5976 18.8672 17.9883C18.1445 18.5547 18.1445 19.7265 18.8672 20.293C19.375 20.6836 19.6289 20.7031 24.9219 20.7031H30.4492L29.4336 22.1484L28.418 23.6133H15.7812L3.125 23.6328V22.168V20.7031H8.35938C13.9648 20.6836 14.0625 20.6836 14.4336 19.668C14.668 19.0625 14.4336 18.2422 13.9062 17.8515C13.6523 17.6562 12.2266 17.5976 7.75391 17.5781C1.34766 17.5781 0.976562 17.6367 0.332031 18.7305C0.0195312 19.2578 0 21.2695 0 47.4609C0 73.6523 0.0195312 75.6641 0.332031 76.1914C1.01562 77.3633 0.917969 77.3437 12.3828 77.3437H22.8711L23.3398 76.8555C23.9844 76.2305 23.9844 75.332 23.3398 74.707L22.8711 74.2187H12.8906H2.91016L3.00781 62.3437C3.06641 55.8203 3.10547 45.1562 3.125 38.6133V26.7578H14.8438C21.2891 26.7578 26.5625 26.8164 26.5625 26.875C26.5625 26.9531 26.2695 27.7539 25.8984 28.6914C25.5273 29.6094 25.0586 30.918 24.8828 31.582L24.5508 32.8125H16.875C9.21875 32.8125 9.19922 32.8125 8.78906 33.2422C8.41797 33.6523 8.39844 33.8867 8.39844 40.1367V46.6211L8.84766 47.0312C9.29688 47.4609 9.375 47.4609 16.9531 47.4609C22.9297 47.4609 24.6289 47.5195 24.6875 47.6953C24.7266 47.832 25 48.6523 25.2734 49.5312C25.5469 50.4101 25.7812 51.1719 25.7812 51.25C25.7812 51.3086 22.0703 51.3672 17.5195 51.3672C9.47266 51.3672 9.23828 51.3867 8.82812 51.7578C8.18359 52.3633 8.24219 53.5547 8.90625 54.082C9.41406 54.4922 9.60938 54.4922 18.3594 54.4922H27.3047L27.832 55.4101C28.125 55.9375 28.6719 56.7578 29.0234 57.2851L29.6875 58.2031H19.4727C9.45312 58.2031 9.23828 58.2031 8.82812 58.5937C8.18359 59.1992 8.24219 60.3906 8.90625 60.918C9.41406 61.3281 9.58984 61.3281 20.8789 61.3281H32.3047L33.3984 62.3828C35.2734 64.2383 38.0664 66.1719 40.7227 67.4805C45.4297 69.7852 48.3008 70.4883 53.6133 70.6445C56.8164 70.7422 57.6562 70.6836 59.7266 70.332C62.5195 69.8633 65.6836 68.8477 68.0469 67.6953L69.7266 66.875L71.2305 68.418C72.0703 69.2578 72.9883 70.0781 73.2812 70.2344C73.9258 70.5664 75.1953 70.5859 75.8789 70.2734C76.3672 70.0586 76.4844 70.1367 78.4766 72.1289L80.5664 74.2187H54.5312H28.4961L28.0273 74.707C27.3828 75.332 27.3828 76.2305 28.0273 76.8555C28.4961 77.3437 28.5547 77.3437 31.9336 77.3437C35.1172 77.3437 35.3711 77.3633 35.2734 77.6758C35.2344 77.8711 34.9414 78.8672 34.668 79.9023L34.1406 81.7969L32.0508 81.875C30.332 81.9336 29.8047 82.0312 28.8672 82.4609C26.6016 83.5156 25.1953 85.6445 25.0391 88.3203C24.9609 89.7266 24.9805 89.8437 25.4492 90.3125L25.957 90.8203H46.0938H66.2305L66.7383 90.3125C67.207 89.8437 67.2266 89.7266 67.1484 88.3203C66.9922 85.6445 65.5859 83.5156 63.2812 82.4609C62.4023 82.0508 61.8164 81.9336 60.1367 81.875L58.0469 81.7969L57.5195 79.9023C57.2461 78.8672 56.9531 77.8711 56.9141 77.6758C56.8164 77.3633 57.5391 77.3437 70.2344 77.3437H83.6719L87.3047 80.957C91.5625 85.1758 91.9922 85.4492 94.4336 85.4492C95.7422 85.4492 96.1523 85.3516 96.9922 84.9219C98.9844 83.8672 99.9805 82.1875 100 79.8828C100 77.5391 99.5898 76.8945 95.7031 72.9492L92.3828 69.6094L92.3438 44.5312C92.2852 20.0195 92.2852 19.414 91.8945 18.8086C91.1719 17.5976 91.0352 17.5781 83.0273 17.5781H75.7617L74.5312 16.5234C70.4883 13.1055 65.7617 10.8398 60.3711 9.74608C58.5352 9.37498 53.2422 9.10155 51.4648 9.29686ZM57.8125 12.5C69.668 13.9453 79.2383 22.7539 81.6211 34.375C82.0508 36.4648 82.3828 36.9141 83.4375 36.9141C84.3555 36.9141 84.9609 36.3672 84.9609 35.5469C84.9609 34.1211 83.8086 29.9609 82.7344 27.4805L82.4219 26.7578H85.8398H89.2578V46.6211V66.5039L86.9531 64.1992L84.6289 61.875L84.9219 61.0742C85.4492 59.6094 85.1758 58.9453 83.1641 56.9141L81.4258 55.1172L82.2266 53.5156C83.75 50.4687 85.0781 45.7031 85.1953 42.7734C85.2344 41.6601 85.1953 41.5234 84.707 41.0937C84.0234 40.5078 83.3789 40.5078 82.7148 41.0547C82.2852 41.4453 82.1875 41.7578 82.0117 43.2617C80.6836 54.3359 72.4414 63.8086 61.6211 66.6992C59.082 67.3633 57.3047 67.5977 54.4336 67.5977C47.0312 67.5781 40.3711 64.8047 35.0586 59.4727C30.8789 55.293 28.2422 50.2344 27.2656 44.5508C26.875 42.207 26.8555 37.7148 27.2461 35.5273C27.9492 31.4648 29.6875 27.2656 32.0508 23.9453C37.8906 15.7617 47.9297 11.3086 57.8125 12.5ZM89.2578 22.168V23.6328H84.9805H80.7031L79.8438 22.4023C79.375 21.7383 78.9258 21.0742 78.8477 20.9375C78.7109 20.7617 79.7852 20.7031 83.9648 20.7031H89.2578V22.168ZM23.9258 40.1367V44.5312H17.7344H11.5234V40.1367V35.7422H17.7344H23.9258V40.1367ZM80.8203 59.043L81.8359 60.0586L78.2227 63.6719L74.6094 67.2852L73.5352 66.2109L72.4414 65.1367L73.0859 64.6484C74.8047 63.3203 76.8164 61.4062 78.125 59.8047C78.9258 58.8281 79.6289 58.0078 79.6875 58.0078C79.7461 58.0078 80.2539 58.4766 80.8203 59.043ZM96.3086 78.2031C97.6172 79.9609 96.4453 82.4219 94.2773 82.4219C93.3789 82.4219 91.9922 81.1914 85.3516 74.5312L78.6133 67.7734L80.4688 65.918L82.3242 64.0625L89.0234 70.7422C92.7148 74.4336 95.9961 77.793 96.3086 78.2031ZM54.1406 79.4922C54.4336 80.625 54.6875 81.6016 54.6875 81.6797C54.6875 81.7773 50.8203 81.8359 46.0938 81.8359C41.3672 81.8359 37.5 81.7773 37.5 81.6797C37.5 81.543 38.418 78.0859 38.5742 77.5781C38.6523 77.3828 40.2539 77.3437 46.1133 77.3828L53.5742 77.4414L54.1406 79.4922ZM61.543 85.1562C62.3047 85.3711 63.8672 86.875 63.8672 87.4023C63.8672 87.6562 61.875 87.6953 46.0938 87.6953C30.4492 87.6953 28.3203 87.6562 28.3203 87.4023C28.3203 86.9727 29.6875 85.5273 30.3711 85.2344C31.1133 84.9023 60.3906 84.8437 61.543 85.1562Z" fill="#263849"/>
<path d="M51.7578 15.1758C46.4063 15.7422 41.211 18.2227 37.1875 22.1094C33.3985 25.7812 30.9571 30.332 29.9805 35.5469C29.6289 37.4609 29.5703 41.8555 29.8633 43.75C30.586 48.2812 32.3633 52.2266 35.293 55.8594C36.7383 57.6562 39.6094 60.2539 40.3711 60.4492C41.3867 60.7031 42.5781 59.5703 42.3242 58.5547C42.2461 58.2617 41.543 57.5 40.5664 56.6992C35.586 52.5 32.8125 46.5625 32.793 40.0391C32.793 34.2578 34.7656 29.2578 38.75 25.0391C43.1836 20.3516 49.2774 17.8906 55.6446 18.2227C63.5156 18.6328 70.5078 23.2422 74.1016 30.4102C78.1446 38.4961 76.6406 48.3398 70.3321 54.9414C64.7071 60.8398 56.6797 63.1055 48.8867 61.0352C46.6602 60.4492 46.211 60.4297 45.7031 60.9375C45.1758 61.4648 45.1758 62.6953 45.6836 63.1641C46.1524 63.5938 48.0469 64.1797 50.1953 64.5508C52.3633 64.9414 56.6406 64.9414 58.8867 64.5508C67.6172 63.0469 74.9805 56.8359 78.0274 48.4375C79.7071 43.75 79.9219 38.3398 78.6133 33.4375C76.4063 25.2148 69.8242 18.4961 61.6016 16.0352C58.8477 15.2148 54.7071 14.8633 51.7578 15.1758Z" fill="#263849"/>
<path d="M38.7109 33.6914C37.5 34.3164 36.7383 35.332 36.582 36.5039C36.3086 38.5937 37.2461 39.8828 39.707 40.8203C42.0703 41.7383 42.5586 41.9922 42.6758 42.4023C42.9297 43.2031 41.8164 43.8477 40.5664 43.6523C40.1562 43.5742 39.4336 43.2227 38.9453 42.8516C37.8906 42.0508 37.0898 41.9922 36.4258 42.6758C35.3515 43.7305 36.0547 45.0586 38.2422 46.1328C39.375 46.6992 39.7265 46.7773 41.1133 46.7773C42.3437 46.7773 42.8515 46.6797 43.457 46.3477C45.6445 45.1758 46.4844 42.9102 45.4883 40.8789C44.9609 39.7852 44.1601 39.1797 42.1484 38.3984C39.5117 37.3633 39.3555 37.2266 39.9609 36.6406C40.4297 36.1523 41.7578 36.25 42.6758 36.8164C44.1992 37.7539 45.5078 37.2656 45.5078 35.7812C45.5078 34.4141 43.789 33.3789 41.3086 33.2617C39.9023 33.1836 39.6289 33.2227 38.7109 33.6914Z" fill="#263849"/>
<path d="M49.707 33.6914L49.2188 34.1602V39.9219V45.6836L49.6875 46.2305L50.1562 46.7773H53.0273H55.8984L56.3672 46.2305C56.9336 45.5664 56.9727 44.9414 56.4258 44.2578C56.0547 43.7695 55.9375 43.75 54.1797 43.75H52.3438V42.6953V41.6406L54.0234 41.582C55.5078 41.5039 55.7422 41.4453 56.0742 41.0352C56.582 40.4102 56.5625 39.4336 55.9961 38.9062C55.6055 38.5352 55.3125 38.4766 53.9453 38.4766H52.3438V37.4219V36.3672L54.1992 36.2891C56.2695 36.2305 56.582 36.0547 56.7773 34.9219C56.8555 34.3359 56.7969 34.1211 56.3867 33.7109C55.8789 33.2031 55.8203 33.2031 53.0273 33.2031C50.2539 33.2031 50.1562 33.2227 49.707 33.6914Z" fill="#263849"/>
<path d="M64.5313 33.4765C62.6758 34.0625 60.8594 35.8593 60.2344 37.7343C59.7461 39.1992 59.9219 41.7773 60.6055 43.0859C62.0508 45.9179 65.4883 47.4414 68.4766 46.6015C71.7578 45.6445 73.9258 42.539 73.5547 39.2578C73.2813 36.8554 71.4258 34.4336 69.2188 33.6132C67.9883 33.1445 65.8008 33.0859 64.5313 33.4765ZM68.8867 37.0507C70.4492 38.3007 70.8594 40.0976 69.9414 41.7382C68.7305 43.8867 66.1719 44.3359 64.3359 42.7343C63.418 41.914 63.0859 41.2304 63.0859 40.039C63.0859 37.7539 64.6484 36.2695 66.9336 36.3867C67.9492 36.4257 68.2813 36.5429 68.8867 37.0507Z" fill="#263849"/>
<path d="M9.08203 65.2734C8.53516 65.5859 8.39844 65.8203 8.39844 66.6016C8.39844 68.1445 8.45703 68.1641 16.4062 68.1641H23.2617L23.7305 67.6758C24.375 67.0508 24.375 66.1523 23.7305 65.5273L23.2617 65.0391H16.3672C11.6016 65.0586 9.35547 65.1172 9.08203 65.2734Z" fill="#263849"/>
</svg>
